<?xml version="1.0" encoding="utf-8"?>
<!-- Generator: Adobe Illustrator 26.0.2, SVG Export Plug-In . SVG Version: 6.00 Build 0)  -->
<svg version="1.1" id="Capa_1" xmlns="http://www.w3.org/2000/svg" xmlns:xlink="http://www.w3.org/1999/xlink" x="0px" y="0px"
	 viewBox="0 0 1599.76 1041.7" style="enable-background:new 0 0 1599.76 1041.7;" xml:space="preserve">
<style type="text/css">
	.st0{fill:#602651;}
</style>
<g id="XMLID_4268_">
	<g id="XMLID_4970_">
		<path id="XMLID_5031_" class="st0" d="M799.82,151.95l-169.97,98.13v196.26l169.97,98.13l169.97-98.13V250.09L799.82,151.95z
			 M956.51,417.75l-138.57-240l138.57,80V417.75z M725.81,301.06l74.01-128.18l74,128.18l-74,128.18L725.81,301.06z M781.69,177.75
			L643.12,417.75v-160L781.69,177.75z M718.15,314.33l81.67,141.46l81.67-141.45l72.6,125.75l-154.27,89.07l-154.27-89.07
			L718.15,314.33z"/>
		<g id="XMLID_4995_">
			<path id="XMLID_5029_" class="st0" d="M353.61,871.92v0.99c0,8.49-3.43,16.79-14.49,16.79c-11.87,0-15.56-7.64-15.56-24.43
				c0-16.8,3.69-24.44,15.62-24.44c13.37,0,14.16,9.88,14.16,14.75v0.86h-7.51v-0.78c0-4.35-1.31-9.36-6.71-9.16
				c-5.54,0-8.04,3.43-8.04,18.58c0,15.15,2.51,18.98,8.04,18.98c6.26,0,6.98-6.99,6.98-11.33v-0.79H353.61z"/>
			<path id="XMLID_5027_" class="st0" d="M387.87,841.75h25.43v6.33h-17.92v13.04h16.87v6.32h-16.87v15.02h18.44v6.33h-25.96V841.75
				z"/>
			<path id="XMLID_5025_" class="st0" d="M448.56,841.75h9.15l13.64,35.05h0.13v-35.05h7.11v47.04h-9.15l-13.64-35.97h-0.13v35.97
				h-7.11V841.75z"/>
			<path id="XMLID_5023_" class="st0" d="M523.08,848.08h-11.21v-6.33h29.72v6.33h-11.01v40.71h-7.5V848.08z"/>
			<path id="XMLID_5020_" class="st0" d="M574.87,841.75h16.6c6.6,0,11.93,3.3,11.93,12.12c0,6.06-2.7,10.74-7.83,11.53v0.13
				c4.67,0.47,7.11,3.03,7.37,9.62c0.07,3.03,0.13,6.72,0.27,9.56c0.13,2.3,1.25,3.42,2.24,4.08h-8.49
				c-0.72-0.86-1.05-2.31-1.26-4.15c-0.26-2.82-0.2-5.46-0.32-8.89c-0.13-5.14-1.72-7.38-6.86-7.38h-6.12v20.42h-7.51V841.75z
				 M588.37,862.7c4.81,0,7.52-2.9,7.52-7.64c0-5.01-2.18-7.64-7.12-7.64h-6.38v15.28H588.37z"/>
			<path id="XMLID_5017_" class="st0" d="M638.11,865.27c0-16.8,4.75-24.44,15.56-24.44c10.8,0,15.55,7.64,15.55,24.44
				c0,16.79-4.74,24.43-15.55,24.43C642.86,889.7,638.11,882.07,638.11,865.27z M661.7,865.07c0-15.8-3.56-18.58-8.03-18.58
				c-4.48,0-8.04,2.77-8.04,18.58c0,16.21,3.56,18.98,8.04,18.98C658.14,884.05,661.7,881.27,661.7,865.07z"/>
			<path id="XMLID_5015_" class="st0" d="M778.59,871.92v0.99c0,8.49-3.43,16.79-14.49,16.79c-11.87,0-15.56-7.64-15.56-24.43
				c0-16.8,3.69-24.44,15.62-24.44c13.37,0,14.16,9.88,14.16,14.75v0.86h-7.52v-0.78c0-4.35-1.31-9.36-6.71-9.16
				c-5.54,0-8.04,3.43-8.04,18.58c0,15.15,2.5,18.98,8.04,18.98c6.26,0,6.98-6.99,6.98-11.33v-0.79H778.59z"/>
			<path id="XMLID_5013_" class="st0" d="M819.78,841.75v33.73c0,5.93,2.37,8.57,6.92,8.57c4.48,0,6.86-2.64,6.86-8.57v-33.73h7.51
				v33.14c0,10.87-5.4,14.81-14.36,14.81c-9.02,0-14.42-3.95-14.42-14.81v-33.14H819.78z"/>
			<path id="XMLID_5011_" class="st0" d="M876.37,841.75h7.51v40.71h18.18v6.33h-25.69V841.75z"/>
			<path id="XMLID_5009_" class="st0" d="M935.15,841.75h7.52v47.04h-7.52V841.75z"/>
			<path id="XMLID_5007_" class="st0" d="M979.09,841.75h9.15l13.64,35.05h0.13v-35.05h7.11v47.04h-9.15l-13.64-35.97h-0.13v35.97
				h-7.11V841.75z"/>
			<path id="XMLID_5004_" class="st0" d="M1054.8,841.75h9.62l12.38,47.04h-7.83l-2.9-11.53h-13.77l-3.03,11.53h-7.84L1054.8,841.75
				z M1064.81,871.26l-5.4-23.18h-0.13l-5.6,23.18H1064.81z"/>
			<path id="XMLID_5001_" class="st0" d="M1109.09,841.75h16.6c6.6,0,11.93,3.3,11.93,12.12c0,6.06-2.7,10.74-7.83,11.53v0.13
				c4.67,0.47,7.11,3.03,7.37,9.62c0.07,3.03,0.13,6.72,0.27,9.56c0.13,2.3,1.25,3.42,2.24,4.08h-8.49
				c-0.72-0.86-1.05-2.31-1.26-4.15c-0.26-2.82-0.2-5.46-0.32-8.89c-0.13-5.14-1.72-7.38-6.86-7.38h-6.12v20.42h-7.51V841.75z
				 M1122.6,862.7c4.81,0,7.51-2.9,7.51-7.64c0-5.01-2.17-7.64-7.12-7.64h-6.38v15.28H1122.6z"/>
			<path id="XMLID_4999_" class="st0" d="M1173.13,841.75h7.51v47.04h-7.51V841.75z"/>
			<path id="XMLID_4996_" class="st0" d="M1215.95,865.27c0-16.8,4.75-24.44,15.56-24.44c10.8,0,15.55,7.64,15.55,24.44
				c0,16.79-4.74,24.43-15.55,24.43C1220.71,889.7,1215.95,882.07,1215.95,865.27z M1239.54,865.07c0-15.8-3.56-18.58-8.03-18.58
				c-4.48,0-8.04,2.77-8.04,18.58c0,16.21,3.56,18.98,8.04,18.98C1235.98,884.05,1239.54,881.27,1239.54,865.07z"/>
		</g>
		<g id="XMLID_4971_">
			<path id="XMLID_4992_" class="st0" d="M255.37,711.41l-5.39,13.4c-0.83,2.21-2.21,6.77-2.21,8.71c0,4.42,3.18,8.57,9.95,8.57
				v3.04H230.5v-3.04c3.87-0.14,9.54-2.49,13.13-10.92l32.89-78.92h2.63l33.58,79.47c2.07,4.84,4.98,10.36,12.3,10.36v3.04h-36.07
				v-3.04c6.5,0,11.33,0.14,11.33-4.97c0-1.52-0.83-3.45-1.8-5.67l-8.29-20.04H255.37z M288.96,708.37l-16.17-38.97l-16.03,38.97
				H288.96z"/>
			<path id="XMLID_4990_" class="st0" d="M482.25,653.64h28.19v3.04h-3.45c-12.02,0-12.3,1.1-12.3,19.76v44.92
				c0,17.69,0,20.73,11.61,20.73h4.15v3.04h-43.81v-3.04h3.18c11.61,0,11.61-3.04,11.61-20.73v-58.88l-36.21,82.65h-3.18
				l-36.49-82.65v61.5c0,12.58,4.42,17.14,14.65,18.11v3.04h-32.62v-3.04c8.43-0.83,14.65-3.45,14.65-18.93v-46.71
				c0-18.52-0.14-19.76-12.16-19.76h-2.49v-3.04h27.78l33.58,75.74L482.25,653.64z"/>
			<path id="XMLID_4986_" class="st0" d="M577.83,745.13v-3.04h3.46c11.61,0,11.61-3.04,11.61-20.73v-44.64
				c0-20.04-0.42-20.04-14.1-20.04v-3.04c9.81-0.42,24.32-0.97,32.2-0.97c5.25,0,37.45-1.11,37.45,21.84
				c0,17.55-20.32,20.59-26.4,21.42c15.34,0.83,31.37,6.77,31.37,24.05c0,20.18-17.69,25.15-33.72,25.15H577.83z M606.16,694.55
				c17.55,0.42,28.05-2.21,28.05-19.35c0-16.59-9.67-20.73-28.05-19.07V694.55z M606.16,718.32c0,21.01,0,23.63,11.06,23.63
				c20.31,0,21.42-14.51,21.42-22.11c0-14.79-6.36-23.36-32.48-21.98V718.32z"/>
			<path id="XMLID_4983_" class="st0" d="M798.01,676.03c0,12.99-10.64,21.7-27.36,23.08c4.15,0.28,11.88,9.54,14.23,12.72
				l11.61,15.2c5.81,7.6,13.41,15.06,24.32,15.06v3.04h-24.6c-2.35-1.8-5.94-4.56-12.16-13.13l-14.37-19.76
				c-8.16-11.19-10.92-11.19-16.03-11.19h-1.94v20.31c0,17.69-0.14,20.73,11.47,20.73h4.42v3.04h-43.81v-3.04h2.9
				c11.75,0,11.75-3.04,11.75-20.73v-44.92c0-20.18-0.97-19.76-13.96-19.76v-3.04c9.81-0.69,24.88-1.24,33.86-1.24
				C764.29,652.39,798.01,651.84,798.01,676.03z M751.71,697.73h7.6c16.72,0,23.91-6.64,23.91-20.73c0-17.28-9.81-21.28-25.85-21.28
				c-2.49,0-3.87,0.14-5.67,0.28V697.73z"/>
			<path id="XMLID_4980_" class="st0" d="M919.22,651.98c24.88,0,50.31,14.51,50.31,47.27c0,27.92-19.49,47.54-49.89,47.54
				c-27.78,0-49.76-17.69-49.76-48.1C869.88,667.59,894.34,651.98,919.22,651.98z M920.19,743.47c29.99,0,33.86-28.61,33.86-44.09
				c0-13.27-2.76-44.09-34.41-44.09c-28.47,0-34.28,24.74-34.28,43.95C885.36,727.72,896.14,743.47,920.19,743.47z"/>
			<path id="XMLID_4978_" class="st0" d="M1039.89,714.72h3.32c1.24,6.36,5.8,28.75,27.23,28.75c12.44,0,20.32-8.43,20.32-17.83
				c0-12.99-13.68-17.83-22.53-21.7c-14.1-6.22-27.64-12.3-27.64-29.3c0-11.88,8.98-22.67,24.19-22.67
				c12.02,0,17.83,6.08,21.15,9.68c3.04-3.73,3.32-6.36,3.59-8.02h2.9v23.91h-2.9c-4.15-16.58-15.07-22.25-24.33-22.25
				c-10.23,0-15.76,6.77-15.76,13.96c0,10.92,11.33,16.03,21.98,20.59c17.69,7.6,29.02,13.27,29.02,30.54
				c0,13.27-8.43,26.4-28.75,26.4c-12.44,0-20.73-6.36-25.16-11.47c-0.83,1.24-2.21,3.32-3.32,8.85h-3.32V714.72z"/>
			<path id="XMLID_4975_" class="st0" d="M1170.42,653.64h41.74v3.04h-1.94c-12.02,0-12.3,1.1-12.3,19.76v44.92
				c0,17.69,0,20.73,11.61,20.73h2.62v3.04h-41.74v-3.04h2.63c11.61,0,11.61-3.04,11.61-20.73v-44.92c0-18.52-0.28-19.76-12.3-19.76
				h-1.94V653.64z M1181.06,645.34l7.74-13.27c3.46-5.8,5.39-8.02,8.57-8.02c2.21,0,4.29,1.66,4.29,4.01c0,2.21-1.93,4.01-4.7,6.36
				l-13.27,10.92H1181.06z"/>
			<path id="XMLID_4972_" class="st0" d="M1299.48,711.41l-5.39,13.4c-0.83,2.21-2.21,6.77-2.21,8.71c0,4.42,3.18,8.57,9.95,8.57
				v3.04h-27.23v-3.04c3.87-0.14,9.54-2.49,13.13-10.92l32.89-78.92h2.62l33.59,79.47c2.07,4.84,4.97,10.36,12.3,10.36v3.04h-36.07
				v-3.04c6.5,0,11.33,0.14,11.33-4.97c0-1.52-0.83-3.45-1.8-5.67l-8.29-20.04H1299.48z M1333.06,708.37l-16.17-38.97l-16.03,38.97
				H1333.06z"/>
		</g>
	</g>
</g>
</svg>
