<?xml version="1.0" encoding="utf-8"?>
<!-- Generator: Adobe Illustrator 25.4.1, SVG Export Plug-In . SVG Version: 6.00 Build 0)  -->
<svg version="1.1" id="Capa_1" xmlns="http://www.w3.org/2000/svg" xmlns:xlink="http://www.w3.org/1999/xlink" x="0px" y="0px"
	 viewBox="0 0 1059.09 301.21" style="enable-background:new 0 0 1059.09 301.21;" xml:space="preserve">
<style type="text/css">
	.st0{fill:#7F3D1E;}
	.st1{fill-rule:evenodd;clip-rule:evenodd;fill:#7F3D1E;}
	.st2{fill-rule:evenodd;clip-rule:evenodd;fill:#EF8E26;}
</style>
<g>
	<path class="st0" d="M438.77,182.64v-2.18l-1.09-2.66c-20.02-52.19-38.94-104.87-56.99-157.78l-1.52-4.1
		c-2.83,0.48-5.44,1.2-8.26,1.2c-2.82,0-5.44-0.73-8.26-1.2c-13.71,41.8-29.15,82.87-45.24,123.46l-16.34,41.86
		c0,0,3.36-0.47,6.63-0.47c3.47,0,10.8,1.14,14.07,1.87c3.48-15.95,8.91-30.93,13.71-46.15l1.08-3.39
		c8.92-0.23,17.62-0.47,26.54-0.47c8.04,0,15.88,0.47,23.92,0.72c5.87,16.18,10.44,32.62,15.01,49.29
		c6.09-0.73,12.18-1.21,18.27-1.21S432.68,182.15,438.77,182.64z M342.19,118.61l0.65-2.18c6.09-18.37,12.84-36.24,19.8-54.12
		c6.73,18.6,13.27,37.44,19.35,56.3H342.19z"/>
	<g>
		<path class="st0" d="M521.97,278.43c-2.25,0.22-4,0.33-5.27,0.33c-9.38,0-17.06-3.54-23.05-10.62
			c-5.99-7.09-8.99-16.46-8.99-28.15c0-11.83,3.04-21.27,9.12-28.31c6.09-7.04,14.21-10.57,24.38-10.57
			c10.28,0,18.42,3.5,24.41,10.51c5.99,7.01,8.99,16.47,8.99,28.37c0,9.2-1.96,17.03-5.85,23.5c-3.91,6.46-9.52,11.04-16.84,13.74
			c6.3,5.84,13.64,12.19,22.06,19.06c-2.3,1.03-4.57,2.67-6.8,4.93C536.73,292.59,529.34,285,521.97,278.43z M518.16,274.49
			c7.8,0,13.82-2.99,18.06-8.96c4.23-5.97,6.35-14.55,6.35-25.7c0-11.3-2.09-19.9-6.26-25.81c-4.18-5.9-10.23-8.86-18.15-8.86
			c-7.81,0-13.83,3.04-18.06,9.13c-4.24,6.09-6.36,14.75-6.36,25.97c0,11,2.1,19.46,6.3,25.37
			C504.25,271.54,510.29,274.49,518.16,274.49z"/>
		<path class="st0" d="M591.4,277.34v-1.98c0-1.09-0.06-3.39-0.18-6.89c-3.04,6.64-7.92,9.96-14.62,9.96
			c-9.56,0-14.33-6.02-14.33-18.07c0-0.58,0.07-3.7,0.22-9.37c0.15-5.65,0.23-11.04,0.23-16.15c0-2.26-0.06-5.37-0.18-9.31
			c1.03,0.29,2.24,0.44,3.63,0.44c1.4,0,2.69-0.15,3.91-0.44c-0.91,10.37-1.37,20.67-1.37,30.89c0,11.24,3.54,16.86,10.61,16.86
			c5.03,0,8.5-2.63,10.44-7.88c1.09-2.92,1.63-11.72,1.63-26.4c0-4.6-0.15-9.1-0.45-13.47c1.14,0.29,2.42,0.44,3.81,0.44
			c1.33,0,2.51-0.15,3.54-0.44c-0.3,5.56-0.45,15.81-0.45,30.74c0,8.48,0.12,15.51,0.36,21.07c-1.18-0.22-2.12-0.33-2.83-0.33
			C594.08,277.01,592.75,277.12,591.4,277.34z"/>
		<path class="st0" d="M645.4,271.97c-4.72,4.16-9.86,6.24-15.42,6.24c-6.36,0-11.52-2.48-15.48-7.45
			c-3.96-4.97-5.94-11.4-5.94-19.28c0-8.18,1.9-14.73,5.71-19.66c3.81-4.92,8.87-7.39,15.15-7.39c5.81,0,10.31,2.06,13.48,6.19
			c3.17,4.13,4.77,10.02,4.77,17.69c0,0.21,0,0.62,0,1.2c-0.06,0.51-0.09,0.91-0.09,1.2h-31.23v0.33c0,15.26,5.08,22.89,15.25,22.89
			c5.2,0,9.86-2.48,13.97-7.45c-0.12,1.89-0.18,3.28-0.18,4.16V271.97z M616.35,246.89h24.05v-1.86c0-5.4-1.02-9.62-3.06-12.65
			c-2.05-3.03-4.83-4.55-8.37-4.55c-3.48,0-6.4,1.68-8.78,5.04C617.82,236.45,616.54,241.12,616.35,246.89z"/>
		<path class="st0" d="M657.83,277.23c0.3-8.64,0.45-20.56,0.45-35.78c0-6.66-0.15-11.96-0.45-15.91c1.21,0.29,2.52,0.44,3.9,0.44
			c1.39,0,2.66-0.15,3.81-0.44c-0.37,3.5-0.54,7.52-0.54,12.05c3.27-8.32,7.05-12.48,11.35-12.48c0.66,0,1.81,0.18,3.44,0.54
			c-0.31,1.88-0.45,4.62-0.45,8.23l-0.73,0.54c-1.51-0.87-2.96-1.31-4.36-1.31c-3.39,0-5.83,1.78-7.3,5.35
			c-1.49,3.57-2.23,9.15-2.23,16.72c0,9.26,0.15,16.61,0.45,22.07c-1.14-0.29-2.45-0.44-3.9-0.44
			C660.19,276.79,659.05,276.93,657.83,277.23z"/>
		<path class="st0" d="M721.09,271.97c-4.72,4.16-9.86,6.24-15.43,6.24c-6.35,0-11.52-2.48-15.48-7.45
			c-3.96-4.97-5.94-11.4-5.94-19.28c0-8.18,1.9-14.73,5.71-19.66c3.81-4.92,8.87-7.39,15.16-7.39c5.81,0,10.3,2.06,13.47,6.19
			c3.17,4.13,4.77,10.02,4.77,17.69c0,0.21,0,0.62,0,1.2c-0.06,0.51-0.09,0.91-0.09,1.2h-31.22v0.33c0,15.26,5.08,22.89,15.25,22.89
			c5.21,0,9.86-2.48,13.97-7.45c-0.12,1.89-0.18,3.28-0.18,4.16V271.97z M692.05,246.89h24.05v-1.86c0-5.4-1.02-9.62-3.06-12.65
			c-2.05-3.03-4.84-4.55-8.37-4.55c-3.47,0-6.4,1.68-8.78,5.04C693.51,236.45,692.23,241.12,692.05,246.89z M696.05,218.52
			l12.79-15.99c1.69-2.12,3.11-3.17,4.26-3.17c2.18,0,3.27,1.27,3.27,3.83c0,1.53-0.91,2.99-2.72,4.38l-14.61,10.95H696.05z"/>
		<path class="st0" d="M727.9,230.13c0.12-1.31,0.18-2.26,0.18-2.85c0-0.22,0-0.51,0-0.88c-0.06-0.44-0.09-0.73-0.09-0.87
			c1.88,0.21,3.76,0.33,5.63,0.33v-3.61c0-2.34,0-5.41,0-9.2c2.85-0.58,5.27-1.5,7.26-2.74c-0.18,4.67-0.28,7.55-0.28,8.65v7.23
			c3.33,0,7.27-0.22,11.8-0.66c-0.18,1.12-0.28,2.35-0.28,3.7v0.9c-3.27-0.29-6.05-0.44-8.34-0.44c-1.52,0-2.61,0.04-3.27,0.11
			l-0.18,5.48c0,2.12-0.06,5.99-0.18,11.61c-0.12,5.62-0.18,10.22-0.18,13.8c0,4.89,0.58,8.41,1.73,10.57
			c1.15,2.16,3.11,3.23,5.9,3.23c1.57,0,3.69-0.77,6.35-2.3l0.64,2.42c-3.08,2.48-6.38,3.72-9.89,3.72c-4.17,0-7.14-1.19-8.9-3.56
			c-1.76-2.37-2.63-6.19-2.63-11.45c0-1.09,0.08-4.95,0.23-11.55c0.15-6.61,0.22-12.69,0.22-18.24v-3.73h-1
			C731.11,229.8,729.53,229.91,727.9,230.13z"/>
		<path class="st0" d="M782.27,270.88c-3.87,4.89-8.38,7.34-13.52,7.34c-8.35,0-12.52-4.48-12.52-13.44
			c0-7.65,3.5-12.39,10.52-14.21c3.33-0.8,6.69-1.6,10.08-2.4c2.85-0.73,4.75-1.6,5.72-2.62v-2.29c0-4.89-0.77-8.49-2.32-10.82
			c-1.54-2.33-4.13-3.5-7.76-3.5c-4.96,0-8.87,2.55-11.71,7.67h-0.73l0.19-5.81c4.05-4.1,8.92-6.14,14.6-6.14
			c5.09,0,8.75,1.47,10.99,4.42c2.23,2.95,3.36,7.59,3.36,13.93v1.31l-0.37,21.75c0,2.48,0.15,4.15,0.45,5.02
			c0.55,1.46,1.73,2.19,3.54,2.19c0.67,0,1.18,0,1.55,0l0.36,2.19c-3.27,1.17-5.75,1.75-7.45,1.75
			C784.48,277.23,782.82,275.11,782.27,270.88z M782.36,250.06c-7.14,1.46-11.89,2.92-14.25,4.39c-2.97,1.83-4.45,4.78-4.45,8.87
			c0,6.94,2.69,10.41,8.08,10.41c3.38,0,6.4-1.6,9.07-4.82c1.03-1.24,1.54-2.81,1.54-4.71V250.06z"/>
		<path class="st0" d="M803.41,277.23c0.31-8.64,0.46-20.56,0.46-35.78c0-6.66-0.15-11.96-0.46-15.91c1.21,0.29,2.52,0.44,3.9,0.44
			c1.4,0,2.66-0.15,3.82-0.44c-0.37,3.5-0.55,7.52-0.55,12.05c3.27-8.32,7.06-12.48,11.35-12.48c0.67,0,1.81,0.18,3.44,0.54
			c-0.3,1.88-0.45,4.62-0.45,8.23l-0.72,0.54c-1.52-0.87-2.97-1.31-4.36-1.31c-3.39,0-5.83,1.78-7.31,5.35
			c-1.48,3.57-2.22,9.15-2.22,16.72c0,9.26,0.15,16.61,0.45,22.07c-1.15-0.29-2.45-0.44-3.9-0.44
			C805.77,276.79,804.62,276.93,803.41,277.23z"/>
		<path class="st0" d="M851.25,278.22c-6.3,0-11.46-2.48-15.48-7.45c-4.03-4.97-6.04-11.43-6.04-19.39c0-7.89,2.04-14.33,6.13-19.33
			c4.09-5,9.21-7.5,15.38-7.5c6.36,0,11.53,2.48,15.52,7.45c4,4.96,5.99,11.43,5.99,19.39c0,8.03-2.02,14.51-6.08,19.44
			C862.62,275.75,857.48,278.22,851.25,278.22z M851.25,274.93c9.19,0,13.8-7.63,13.8-22.89c0-16.13-4.63-24.2-13.89-24.2
			c-9.13,0-13.7,7.81-13.7,23.44C837.45,267.04,842.05,274.93,851.25,274.93z"/>
	</g>
	<path class="st0" d="M442.11,71.66c0.22,10.42,1.09,20.58,1.09,31v9.68c0,9.2-0.21,18.41-0.21,27.6c0,10.17-0.44,20.11-0.44,30.27
		c0,4.12-0.66,8.48-0.66,12.6c5.23-0.25,10.48-1.22,15.69-1.22c5.24,0,10.48,0.97,15.71,1.22c-0.22-18.17-1.1-36.32-1.1-54.49
		c0-15.25-1.09-43.58,18.97-43.58c18.74,0,17.87,24.7,17.87,39.23c0,6.05-0.21,12.1-0.21,18.15c-0.21,9.44-0.44,18.64-1.09,28.08
		c-0.21,4.12-0.65,8.48-0.87,12.6c5.02-0.25,9.8-1.22,14.82-1.22c5.88,0,11.55,0.73,17.43,1.22c0-13.32-0.21-26.88-0.21-40.21
		c0-9.92,0.21-19.6,0.21-29.53c0-12.35,0.66-25.67-7.19-35.35c-7.63-9.19-15.91-13.56-27.25-13.56c-13.51,0-24.85,8.96-33.14,20.34
		l0.65-17.68c-4.79,0.49-9.37,0.98-14.16,0.98c-5.45,0-10.68-0.49-16.14-0.98L442.11,71.66"/>
	<path class="st0" d="M619.4,31.23c2.4-1.7,4.58-3.39,6.98-5.08c2.61-3.63,4.14-4.6,4.14-9.44c0-2.91-0.88-5.81-2.61-7.75
		c-1.96-1.69-4.36-2.91-6.98-2.91c-2.4,0-5.45,0-7.41,1.94c-2.85,1.45-5.02,4.36-6.98,6.78l-27.91,36.07h12L619.4,31.23
		 M558.37,95.4c0.64-0.97,1.73-1.93,2.39-2.9c6.76-6.54,15.26-10.9,24.19-10.9c10.03,0,20.28,8.47,20.28,20.09
		c0,3.63-0.21,6.78-2.83,9.2c-4.8,3.39-10.47,4.85-15.91,6.3c-9.59,2.66-17.88,4.36-26.81,10.17c-8.28,5.33-13.08,15.98-13.08,26.63
		c0,20.82,13.29,31.72,31.16,31.72c11.33,0,22.24-6.53,27.91-17.43c3.49,10.41,11.33,17.19,21.59,17.19c3.05,0,6.1-0.73,9.16-1.45
		c3.47-1.45,7.19-2.66,10.45-4.84v-2.42c0-6.3-0.21-1.7-7.41-4.12c-2.84-1.46-5.01-6.78-5.23-10.17c-0.22-4.6-0.22-9.19-0.22-13.8
		c0-11.86,0.65-23.48,0.65-35.35c0-5.33-0.21-10.89-0.21-16.22c-0.44-23.97-21.81-32.45-40.12-32.45
		c-13.73,0-30.08,5.81-40.33,16.23l2.84,14.52H558.37z M584.08,131c3.7-3.15,8.5-4.36,12.86-6.3c2.84-1.21,5.89-2.66,8.72-4.11
		c-0.44,7.75-0.44,15.5-0.44,23.24c0,12.11-2.83,25.42-16.14,25.42c-9.37,0-11.98-9.44-11.98-18.41
		C577.11,143.11,578.42,136.08,584.08,131"/>
	<path class="st0" d="M684.51,0c-5.45,1.21-11.12,1.21-16.57,1.21S657.04,0.97,651.81,0c1.1,26.39,1.74,52.78,1.74,78.93
		c0,9.45-0.22,18.89-0.22,28.09l-0.87,60.29c0,5.08-0.43,10.17-0.65,15.5c5.24-0.25,10.46-1.22,15.69-1.22
		c5.24,0,10.48,0.97,15.7,1.22c-0.21-18.17-1.09-36.33-1.09-54.49c0-15.49-1.09-43.58,18.96-43.58c7.62,0,14.39,6.54,16.35,14.52
		c1.09,5.57,1.53,18.41,1.53,24.46c0,7.02,0,14.29-0.44,21.31l-0.66,22.28c-0.21,5.08-0.65,10.41-1.09,15.5
		c5.24-0.25,10.68-1.22,15.92-1.22c5.44,0,10.9,0.73,16.34,1.22c0-4.37-0.21-8.48-0.21-12.84v-30.26V106.3
		c0-11.86-0.87-22.02-8.93-30.75c-7.19-7.75-15.48-11.38-25.51-11.38c-11.77,0-24.62,9.69-32.25,19.13l0.44-26.14L684.51,0"/>
	<path class="st0" d="M829.31,182.82c4.58-0.49,9.38-1.22,13.96-1.22c5.45,0,10.89,0.97,16.35,1.22l-0.21-4.85
		c-0.66-10.9-1.09-21.79-1.09-32.45v-12.35c0-12.83,0.21-25.66,0.43-38.73c0-9.2,0.21-18.41,0.87-27.62
		c-5.23,0.5-10.48,0.97-15.7,0.97c-5.23,0-10.46-0.48-15.7-0.97c0.23,18.17,1.09,36.33,1.09,54.49c0,15.25,0.87,43.59-18.96,43.59
		c-7.62,0-12.64-5.08-15.47-12.59c-2.19-5.08-2.4-14.52-2.4-20.09c0-21.79,0.21-43.59,2.18-65.39c-5.02,0.5-9.81,0.97-14.82,0.97
		c-5.87,0-11.56-0.48-17.44-0.97c0,4.37,0.22,8.48,0.22,12.85c0,17.68-0.22,35.1-0.22,52.78c0,12.1-1.09,27.12,5.67,37.53
		c6.55,10.41,18.09,15.02,29.2,15.02c15.27,0,22.89-7.75,32.71-19.85L829.31,182.82"/>
	<path class="st0" d="M879.31,95.4c0.64-0.97,1.74-1.93,2.38-2.9c6.76-6.54,15.26-10.9,24.2-10.9c10.03,0,20.28,8.47,20.28,20.09
		c0,3.63-0.22,6.78-2.84,9.2c-4.8,3.39-10.47,4.85-15.91,6.3c-9.59,2.66-17.88,4.36-26.82,10.17c-8.27,5.33-13.08,15.98-13.08,26.63
		c0,20.82,13.31,31.72,31.17,31.72c11.33,0,22.24-6.53,27.9-17.43c3.5,10.41,11.33,17.19,21.58,17.19c3.05,0,6.1-0.73,9.15-1.45
		c3.5-1.45,7.19-2.66,10.48-4.84v-2.42c0-6.3-0.22-1.7-7.42-4.12c-2.83-1.46-5.02-6.78-5.22-10.17c-0.22-4.6-0.22-9.19-0.22-13.8
		c0-11.86,0.65-23.48,0.65-35.35c0-5.33-0.22-10.89-0.22-16.22c-0.43-23.97-21.79-32.45-40.1-32.45c-13.74,0-30.08,5.81-40.33,16.23
		l2.83,14.52H879.31 M905.02,131c3.7-3.15,8.5-4.36,12.87-6.3c2.83-1.21,5.87-2.66,8.71-4.11c-0.43,7.75-0.43,15.5-0.43,23.24
		c0,12.11-2.84,25.42-16.13,25.42c-9.38,0-11.99-9.44-11.99-18.41C898.04,143.11,899.35,136.08,905.02,131"/>
	<path class="st0" d="M1059.09,75.3c-10.25-7.51-25.07-11.13-37.5-11.13c-34.22,0-57.33,24.46-57.33,62.71
		c0,16.95,5.02,31.23,15.7,43.34c10.68,11.86,26.82,15.26,41.43,15.26c7.84,0,23.32-3.15,29.43-9.2l5.22-14.29l-3.7-3.4
		c-5.23,6.78-14.61,11.39-22.68,11.39c-10.24,0-19.18-3.39-25.28-13.32c-6.53-10.41-7.19-21.79-7.19-34.13
		c0-17.92,5.67-46.5,26.16-46.5c12.86,0,20.7,10.9,22.24,24.21h5.23L1059.09,75.3"/>
	<g>
		<path class="st1" d="M13.5,168.12c-1.44,0.55-2.85,0.51-4.27-0.13c-1.42-0.64-2.4-1.66-2.94-3.08c-0.54-1.41-0.5-2.82,0.14-4.24
			c0.63-1.42,1.66-2.4,3.08-2.95c1.41-0.54,2.83-0.49,4.25,0.12c1.42,0.61,2.41,1.64,2.96,3.08c0.55,1.44,0.51,2.87-0.12,4.28
			C15.94,166.6,14.91,167.58,13.5,168.12 M268.12,157.72c1.43,0.55,2.46,1.53,3.08,2.94c0.62,1.43,0.67,2.85,0.12,4.26
			c-0.54,1.41-1.53,2.44-2.94,3.07c-1.41,0.63-2.83,0.67-4.26,0.13c-1.41-0.54-2.44-1.53-3.08-2.93c-0.64-1.41-0.69-2.83-0.15-4.27
			c0.56-1.43,1.54-2.47,2.96-3.09C265.28,157.22,266.7,157.18,268.12,157.72"/>
		<path class="st2" d="M103.18,87.22l43.87,50.17l9.66-8.18l-44.6-50.17L103.18,87.22z M116.93,74.96l43.86,50.17l9.66-8.18
			l-44.6-50.16L116.93,74.96z M130.68,61.96l43.87,50.16l9.66-8.18l-44.6-50.16L130.68,61.96z"/>
		<path class="st2" d="M93.49,178.47l43.87,50.17l9.66-8.18l-44.6-50.17L93.49,178.47z M107.26,166.21l43.85,50.16l9.66-8.18
			l-44.6-50.16L107.26,166.21z M121.01,153.2l43.86,50.16l9.67-8.17l-44.61-50.17L121.01,153.2z"/>
		<path class="st1" d="M192.56,104.3l-50.18,43.84l8.18,9.66l50.18-44.59L192.56,104.3z M204.83,118.05l-50.18,43.85l8.17,9.65
			L213,126.97L204.83,118.05z M217.84,131.8l-50.18,43.85l8.17,9.66l50.19-44.59L217.84,131.8z"/>
		<path class="st1" d="M101.5,95.75L51.31,139.6l8.18,9.66l50.18-44.59L101.5,95.75z M113.76,109.5l-50.18,43.85l8.18,9.66
			l50.18-44.59L113.76,109.5z M126.77,123.25L76.59,167.1l8.18,9.66l50.18-44.59L126.77,123.25z"/>
		<path class="st0" d="M22.73,141.15c0-3.14-0.81-5.51-2.43-7.14c-1.64-1.62-4.36-2.44-8.12-2.44c-1.4,0-2.73-0.01-3.99-0.03
			c-1.28-0.04-2.44-0.08-3.47-0.13c-1.07-0.04-1.99-0.08-2.8-0.13c-0.8-0.05-1.43-0.08-1.92-0.12c0.05,0.28,0.09,0.55,0.14,0.81
			c0.02,0.25,0.03,0.53,0.03,0.81c0,0.24-0.02,0.5-0.03,0.78c-0.05,0.28-0.08,0.57-0.14,0.87c1.5-0.08,3-0.15,4.49-0.2
			c1.47-0.04,2.96-0.06,4.45-0.06c1.51,0,2.98,0.05,4.39,0.13c1.39,0.08,2.61,0.33,3.7,0.71c1.09,0.37,1.96,0.92,2.6,1.66
			c0.64,0.74,0.97,1.76,0.97,3.05c0,1.06-0.11,1.99-0.33,2.79c-0.21,0.8-0.64,1.48-1.29,2.05c-0.67,0.54-1.62,0.95-2.83,1.23
			c-1.21,0.28-2.8,0.42-4.77,0.42c-1.86,0-3.7-0.03-5.49-0.07c-1.82-0.05-3.77-0.18-5.88-0.39c0.05,0.43,0.09,0.88,0.14,1.33
			c0.02,0.46,0.03,0.9,0.03,1.33c0,0.43-0.02,0.87-0.03,1.33c-0.05,0.45-0.08,0.9-0.14,1.33c0.54-0.04,1.36-0.08,2.45-0.1
			c1.07-0.02,2.49-0.03,4.25-0.03c0.58,0,1.14,0.02,1.69,0.03h1.69c0.59,0,1.23,0.02,1.91,0.04h2.31c1.54,0,2.85-0.25,3.93-0.74
			c1.06-0.52,1.94-1.23,2.62-2.12c0.68-0.89,1.16-1.93,1.43-3.12C22.58,143.84,22.73,142.54,22.73,141.15"/>
		<path class="st0" d="M7.19,122.05c1.63,0.25,3.32,0.56,5.08,0.9c1.75,0.32,3.37,0.64,4.88,0.97c1.5,0.3,2.75,0.57,3.79,0.81
			c1.04,0.22,1.64,0.38,1.8,0.44c0.04-0.5,0.09-0.99,0.17-1.48c0.05-0.24,0.08-0.48,0.12-0.74c0.04-0.25,0.1-0.51,0.18-0.76
			c-0.24-0.02-0.55-0.05-0.94-0.08c-0.41-0.04-0.92-0.1-1.54-0.18c-0.63-0.08-1.39-0.18-2.29-0.3c-0.9-0.14-1.99-0.31-3.27-0.52
			l-3.72-0.58c-0.64-0.11-1.27-0.21-1.89-0.3c-0.61-0.12-1.23-0.24-1.84-0.36c5.97-4.11,11.87-7.97,17.7-11.56
			c0.02-0.37,0.06-0.79,0.14-1.26c0.07-0.45,0.16-0.89,0.27-1.3l-3.84-0.61c-1.54-0.24-2.98-0.48-4.33-0.68
			c-1.36-0.25-2.74-0.49-4.13-0.75c-1.38-0.26-2.85-0.55-4.39-0.86c-1.58-0.31-3.33-0.68-5.26-1.1c0.02,0.61-0.01,1.1-0.06,1.46
			c-0.06,0.37-0.18,0.84-0.39,1.42c0.22-0.01,0.64,0.02,1.27,0.1c0.63,0.05,1.37,0.15,2.22,0.29c0.86,0.11,1.8,0.25,2.82,0.41
			c1.01,0.13,2.03,0.28,3.08,0.45l3.11,0.49l2.79,0.44c-2.97,1.99-5.88,3.92-8.75,5.81c-2.86,1.86-5.77,3.77-8.72,5.68
			c0.01,0.61-0.01,1.1-0.07,1.46c-0.05,0.37-0.18,0.84-0.39,1.43c0.77,0.09,1.67,0.2,2.68,0.31C4.48,121.64,5.72,121.82,7.19,122.05
			"/>
		<path class="st0" d="M14.93,95.05l4.23,1.3c1.72,0.51,3.24,1.01,4.58,1.46c1.31,0.45,2.59,0.92,3.86,1.39
			c0.06-0.37,0.16-0.75,0.28-1.17c0.12-0.41,0.27-0.88,0.42-1.4c0.17-0.52,0.31-0.98,0.43-1.4c0.13-0.42,0.27-0.79,0.41-1.14
			c-1.3-0.31-2.63-0.64-3.96-1.01c-1.36-0.37-2.9-0.81-4.62-1.34l-4.22-1.29c-1.73-0.52-3.23-1.01-4.55-1.46
			c-1.33-0.44-2.66-0.93-3.98-1.42c-0.07,0.36-0.15,0.77-0.22,1.19c-0.12,0.42-0.25,0.89-0.4,1.4c-0.15,0.51-0.31,0.98-0.46,1.39
			c-0.17,0.41-0.33,0.77-0.48,1.11c1.36,0.33,2.73,0.67,4.1,1.05C11.69,94.08,13.21,94.52,14.93,95.05"/>
		<path class="st0" d="M29.82,76.76c-1.45-0.15-2.92-0.29-4.42-0.43c-1.5-0.15-2.98-0.3-4.44-0.46c-1.48-0.17-2.93-0.34-4.34-0.49
			c-1.41-0.18-2.74-0.38-3.99-0.57c-0.17,0.44-0.34,0.89-0.51,1.34c-0.18,0.43-0.38,0.87-0.59,1.29c-0.21,0.44-0.43,0.87-0.67,1.3
			c-0.25,0.41-0.5,0.83-0.75,1.25c0.89,0.06,1.96,0.12,3.23,0.21c1.25,0.08,2.61,0.18,4.07,0.29c1.45,0.11,2.94,0.21,4.51,0.32
			c1.56,0.11,3.08,0.23,4.55,0.37c1.48,0.13,2.88,0.25,4.18,0.38c1.33,0.12,2.45,0.22,3.37,0.3c0.15-0.41,0.34-0.84,0.56-1.31
			c0.23-0.46,0.46-0.88,0.69-1.25c-1.37-1.37-2.79-2.85-4.32-4.49c-1.52-1.63-3-3.26-4.45-4.88c-1.44-1.62-2.81-3.17-4.09-4.64
			c-1.28-1.46-2.38-2.72-3.28-3.77c-0.15,0.53-0.31,0.99-0.48,1.36c-0.18,0.36-0.44,0.77-0.78,1.21c1.92,1.87,3.92,3.9,5.96,6.08
			C25.84,72.35,27.84,74.54,29.82,76.76"/>
		<path class="st0" d="M30.74,59.95l3.52,2.65c1.43,1.08,2.71,2.06,3.8,2.94c1.07,0.87,2.12,1.73,3.14,2.61
			c0.09-0.15,0.2-0.33,0.32-0.53c0.16-0.21,0.38-0.5,0.67-0.88c0.3-0.4,0.69-0.91,1.17-1.56c0.49-0.66,1.13-1.51,1.93-2.57
			c0.89-1.2,1.6-2.12,2.11-2.8c0.54-0.67,0.99-1.24,1.36-1.7c-0.14-0.05-0.28-0.12-0.45-0.21c-0.17-0.1-0.39-0.25-0.67-0.47
			c-0.28-0.21-0.48-0.38-0.63-0.51c-0.15-0.13-0.3-0.28-0.46-0.47c-0.64,1.1-1.3,2.15-1.99,3.18c-0.69,1.02-1.4,2.02-2.16,3.01
			c-1.07-0.73-2.17-1.51-3.3-2.36c-0.55-0.42-1.1-0.83-1.66-1.25c-0.54-0.43-1.1-0.86-1.64-1.27c1.47-1.96,3.03-3.86,4.66-5.71
			c-0.3-0.17-0.53-0.3-0.69-0.36c-0.18-0.11-0.33-0.21-0.46-0.31c-0.18-0.13-0.34-0.26-0.48-0.4c-0.15-0.14-0.35-0.34-0.6-0.61
			c-0.69,1.03-1.36,2.01-2.02,2.95c-0.64,0.92-1.38,1.96-2.21,3.09c-0.96-0.72-1.89-1.43-2.83-2.13c-0.92-0.71-1.83-1.47-2.72-2.25
			c0.13-0.19,0.38-0.51,0.74-0.94c0.35-0.43,0.76-0.91,1.21-1.44c0.46-0.54,0.94-1.1,1.41-1.66c0.49-0.58,0.94-1.1,1.36-1.58
			c-0.22-0.12-0.41-0.21-0.58-0.31c-0.17-0.1-0.4-0.25-0.67-0.47c-0.45-0.33-0.79-0.64-1.01-0.92c-0.23,0.37-0.7,1.07-1.43,2.1
			c-0.72,1-1.57,2.14-2.53,3.41c-0.58,0.77-1.18,1.53-1.79,2.27c-0.61,0.74-1.21,1.48-1.82,2.25c1.17,0.77,2.33,1.57,3.48,2.39
			C28.01,57.93,29.29,58.87,30.74,59.95"/>
		<path class="st1" d="M49.08,43.14l11.16,3.71c0.35-0.37,0.69-0.71,1.04-1.03c0.37-0.33,0.74-0.67,1.11-1
			c0.37-0.33,0.73-0.65,1.08-0.98c0.35-0.31,0.74-0.63,1.13-0.92c-2.09-0.54-4.19-1.09-6.29-1.64c-2.11-0.58-4.17-1.2-6.17-1.87
			c0.93-1.39,1.38-2.75,1.36-4.06c-0.02-1.31-0.56-2.56-1.62-3.73c-0.64-0.73-1.35-1.22-2.1-1.46c-0.75-0.29-1.53-0.39-2.33-0.31
			c-0.34,0.05-0.67,0.12-1,0.25c-0.32,0.08-0.68,0.25-1.06,0.48c-0.36,0.21-0.77,0.49-1.24,0.85c-0.46,0.36-1,0.81-1.61,1.36
			c-0.82,0.74-1.49,1.39-2.02,1.95c-0.51,0.52-0.99,0.97-1.43,1.37c-0.4,0.36-0.77,0.67-1.1,0.95c-0.35,0.26-0.68,0.49-0.98,0.71
			c1,0.99,1.99,1.99,2.97,3.01c0.96,1,2.04,2.17,3.24,3.5l2.95,3.27c1.2,1.34,2.26,2.55,3.17,3.62c0.89,1.06,1.76,2.11,2.58,3.17
			c0.25-0.28,0.54-0.56,0.86-0.85c0.31-0.29,0.67-0.61,1.08-0.97c0.41-0.37,0.77-0.69,1.09-0.98c0.32-0.29,0.63-0.54,0.94-0.76
			c-0.96-0.94-1.93-1.91-2.88-2.9c-0.97-1.02-2.06-2.2-3.26-3.53l-0.89-1L49.08,43.14 M48.67,35.46c1.04,1.16,1.55,2.29,1.5,3.37
			c-0.05,1.07-0.61,2.08-1.68,3.04c-0.08,0.07-0.16,0.15-0.26,0.25c-0.09,0.05-0.2,0.12-0.31,0.18c-1.96-2.19-3.91-4.39-5.84-6.63
			c0.66-0.59,1.26-1.07,1.78-1.43c0.54-0.36,1.06-0.57,1.55-0.61c0.5-0.06,1,0.05,1.53,0.33C47.45,34.26,48.04,34.75,48.67,35.46"/>
		<path class="st0" d="M67.6,20.74l0.42-0.25c-0.17-0.72-0.31-1.31-0.43-1.77c-0.11-0.49-0.2-1-0.28-1.53
			c-0.81-0.12-1.65-0.08-2.56,0.13c-0.88,0.18-1.84,0.57-2.85,1.16c-0.84,0.48-1.57,1.08-2.19,1.79c-0.6,0.7-1.04,1.46-1.33,2.3
			c-0.28,0.84-0.4,1.74-0.32,2.7c0.1,0.94,0.42,1.9,0.99,2.88c0.61,1.07,1.33,1.82,2.14,2.29c0.81,0.44,1.66,0.71,2.54,0.82
			c0.89,0.11,1.8,0.12,2.73,0.05c0.91-0.11,1.78-0.16,2.61-0.16c0.81-0.02,1.55,0.08,2.23,0.29c0.67,0.21,1.21,0.67,1.62,1.38
			c0.46,0.78,0.58,1.62,0.36,2.5c-0.21,0.87-0.87,1.62-1.99,2.27c-0.58,0.32-1.11,0.54-1.66,0.65c-0.54,0.09-1.06,0.08-1.54-0.01
			c-0.48-0.11-0.93-0.27-1.33-0.5c-0.43-0.26-0.8-0.58-1.11-0.94l-0.53,0.31c0.28,0.69,0.5,1.34,0.68,1.97
			c0.18,0.61,0.37,1.3,0.56,2.08c0.61,0.07,1.35-0.01,2.25-0.26c0.94-0.24,1.91-0.65,2.93-1.23c1.12-0.65,2.05-1.38,2.79-2.17
			c0.74-0.84,1.29-1.71,1.63-2.64c0.33-0.94,0.45-1.89,0.36-2.86c-0.09-1-0.42-1.97-0.96-2.9c-0.62-1.07-1.33-1.82-2.16-2.24
			c-0.81-0.46-1.66-0.73-2.58-0.84c-0.91-0.12-1.83-0.13-2.75-0.02c-0.91,0.08-1.81,0.14-2.65,0.15c-0.84,0.01-1.6-0.08-2.29-0.26
			c-0.67-0.21-1.21-0.67-1.61-1.36c-0.38-0.67-0.46-1.43-0.21-2.24c0.25-0.82,0.81-1.48,1.66-1.98
			C64.47,19.31,66.07,19.46,67.6,20.74"/>
		<path class="st0" d="M78.59,20.63l1.66,4.1c0.67,1.66,1.26,3.16,1.74,4.48c0.48,1.3,0.93,2.58,1.36,3.87
			c0.32-0.18,0.68-0.35,1.09-0.51c0.4-0.17,0.85-0.35,1.35-0.55c0.5-0.2,0.95-0.38,1.36-0.55c0.4-0.16,0.78-0.28,1.14-0.38
			c-0.59-1.21-1.16-2.45-1.72-3.72c-0.57-1.29-1.19-2.77-1.86-4.43l-1.66-4.1c-0.67-1.66-1.25-3.14-1.73-4.44
			c-0.48-1.33-0.94-2.65-1.4-3.99c-0.33,0.18-0.68,0.37-1.07,0.57c-0.39,0.18-0.84,0.38-1.35,0.57c-0.5,0.21-0.95,0.38-1.37,0.52
			c-0.41,0.12-0.8,0.23-1.16,0.33c0.61,1.27,1.2,2.55,1.76,3.84C77.31,17.49,77.92,18.96,78.59,20.63"/>
		<path class="st1" d="M91.43,15.67l0.99,4.29c0.4,1.76,0.74,3.32,1.01,4.69c0.28,1.36,0.51,2.71,0.74,4.03
			c0.35-0.12,0.74-0.24,1.15-0.34c0.43-0.09,0.9-0.2,1.43-0.33c0.82-0.18,1.8-0.4,2.92-0.64c1.12-0.24,2.48-0.54,4.06-0.91
			c1.49-0.35,2.83-0.94,4.02-1.76c1.21-0.84,2.19-1.86,2.96-3.08c0.78-1.24,1.29-2.64,1.53-4.19c0.26-1.55,0.19-3.2-0.21-4.95
			c-0.46-2-1.14-3.59-2.03-4.76c-0.9-1.19-1.97-2.06-3.23-2.58c-1.26-0.53-2.68-0.78-4.24-0.75c-1.55,0-3.24,0.21-5.05,0.63
			c-1.39,0.32-2.51,0.61-3.37,0.88c-0.85,0.24-1.62,0.44-2.32,0.6c-0.52,0.12-1,0.22-1.42,0.3c-0.44,0.05-0.84,0.1-1.21,0.15
			c0.41,1.35,0.78,2.71,1.14,4.06C90.65,12.38,91.03,13.92,91.43,15.67 M97.27,19.59l-2.11-9.11c-0.15-0.63-0.28-1.2-0.4-1.7
			c-0.09-0.51-0.16-0.84-0.19-0.99c0.48-0.15,0.94-0.3,1.4-0.42c0.48-0.15,1.09-0.32,1.86-0.5c1.09-0.25,2.12-0.28,3.11-0.08
			c0.97,0.18,1.86,0.56,2.66,1.15c0.8,0.58,1.49,1.33,2.06,2.29c0.6,0.95,1.05,2.08,1.35,3.38c0.76,3.29,0.64,5.9-0.38,7.85
			c-1.01,1.94-2.71,3.19-5.1,3.74c-0.65,0.15-1.2,0.27-1.66,0.34c-0.44,0.08-0.82,0.15-1.14,0.2c-0.05-0.15-0.13-0.47-0.26-0.97
			c-0.12-0.51-0.25-1.07-0.4-1.68L97.27,19.59z"/>
		<path class="st1" d="M136.6,22.13c-0.51,0-1.02,0.02-1.49,0.06c-0.45,0.04-0.91,0.08-1.36,0.12c-0.46,0.05-0.92,0.08-1.4,0.12
			c-0.45,0.04-0.91,0.1-1.35,0.18c-0.44-1.03-0.89-2.07-1.35-3.14c-0.47-1.07-0.95-2.14-1.46-3.2c-0.69,0.04-1.38,0.09-2.07,0.15
			c-0.7,0.05-1.39,0.09-2.08,0.15c-0.56,0.05-1.11,0.11-1.67,0.18c-0.57,0.05-1.13,0.12-1.68,0.18c-0.34,1.14-0.64,2.27-0.91,3.4
			c-0.27,1.13-0.51,2.24-0.72,3.32c-0.25-0.02-0.51-0.02-0.78,0.01c-0.23,0.02-0.48,0.04-0.74,0.06c-0.27,0.02-0.52,0.05-0.78,0.07
			c-0.25,0.02-0.53,0.07-0.84,0.14c0.21-0.58,0.48-1.39,0.84-2.42c0.35-1.04,0.71-2.19,1.13-3.49c0.41-1.3,0.84-2.68,1.3-4.16
			c0.48-1.5,0.94-3,1.4-4.52c0.48-1.53,0.94-3.01,1.37-4.49c0.46-1.47,0.86-2.85,1.23-4.12c0.22,0.02,0.43,0.05,0.62,0.08
			c0.19,0.01,0.41,0,0.62-0.02c0.21-0.02,0.42-0.05,0.61-0.09c0.2-0.06,0.4-0.12,0.61-0.18c0.84,1.78,1.75,3.67,2.71,5.7
			c0.99,2.02,1.96,4,2.94,5.97c0.97,1.93,1.92,3.77,2.83,5.51C135.05,19.46,135.87,20.94,136.6,22.13 M123.74,6.99
			c-0.44,1.34-0.87,2.67-1.25,3.99c-0.38,1.29-0.75,2.62-1.12,3.97l5.92-0.51c-0.59-1.27-1.18-2.52-1.76-3.73
			C124.97,9.48,124.37,8.24,123.74,6.99"/>
		<path class="st1" d="M141.17,8.99l-0.31,4.4c-0.12,1.79-0.25,3.38-0.39,4.79c-0.14,1.38-0.31,2.74-0.48,4.06
			c0.37-0.02,0.77-0.01,1.2,0.02c0.43,0.03,0.91,0.06,1.46,0.1c0.84,0.06,1.83,0.14,2.98,0.25c1.14,0.1,2.52,0.2,4.15,0.31
			c1.53,0.11,2.98-0.06,4.36-0.51c1.4-0.44,2.64-1.14,3.72-2.08c1.11-0.97,2-2.15,2.69-3.56c0.71-1.4,1.12-3,1.24-4.79
			c0.15-2.05-0.04-3.77-0.55-5.15c-0.51-1.4-1.28-2.55-2.32-3.41c-1.04-0.88-2.33-1.53-3.84-1.96c-1.48-0.45-3.15-0.74-5.01-0.87
			c-1.43-0.1-2.58-0.15-3.47-0.15c-0.9-0.02-1.69-0.05-2.4-0.1c-0.54-0.04-1.03-0.08-1.46-0.13c-0.43-0.08-0.83-0.15-1.19-0.21
			c-0.01,1.41-0.05,2.81-0.1,4.22C141.39,5.61,141.3,7.19,141.17,8.99 M145.61,14.43l0.65-9.33c0.05-0.64,0.09-1.23,0.13-1.74
			c0.05-0.52,0.09-0.86,0.1-1c0.5-0.01,0.98-0.01,1.46,0.01c0.51-0.02,1.14,0.01,1.92,0.07c1.13,0.08,2.12,0.35,3.01,0.83
			c0.87,0.44,1.62,1.07,2.21,1.88c0.6,0.77,1.03,1.71,1.3,2.78c0.29,1.09,0.39,2.3,0.3,3.64c-0.24,3.37-1.13,5.83-2.67,7.4
			c-1.53,1.56-3.53,2.25-5.97,2.08c-0.66-0.04-1.23-0.09-1.67-0.14c-0.45-0.06-0.84-0.11-1.17-0.16c0.01-0.15,0.02-0.48,0.04-1
			c0.03-0.52,0.08-1.09,0.12-1.72L145.61,14.43z"/>
		<path class="st1" d="M192.61,31.34c-0.48-0.18-0.96-0.35-1.41-0.48c-0.44-0.12-0.87-0.25-1.31-0.38
			c-0.44-0.13-0.89-0.25-1.34-0.38c-0.44-0.13-0.88-0.23-1.33-0.31c-0.05-1.11-0.08-2.25-0.14-3.41c-0.05-1.16-0.12-2.33-0.21-3.51
			c-0.65-0.21-1.32-0.4-1.98-0.59c-0.67-0.22-1.33-0.42-1.99-0.61c-0.54-0.15-1.08-0.3-1.63-0.43c-0.54-0.15-1.09-0.3-1.63-0.43
			c-0.72,0.94-1.41,1.89-2.06,2.85c-0.66,0.95-1.29,1.9-1.86,2.84c-0.24-0.12-0.48-0.21-0.74-0.28c-0.23-0.06-0.47-0.12-0.71-0.2
			c-0.25-0.07-0.5-0.15-0.75-0.21c-0.25-0.07-0.52-0.13-0.83-0.17c0.41-0.48,0.95-1.13,1.65-1.96c0.68-0.84,1.45-1.79,2.3-2.85
			c0.84-1.06,1.74-2.2,2.7-3.41c0.98-1.23,1.96-2.46,2.92-3.71c1-1.25,1.96-2.48,2.89-3.7c0.96-1.21,1.83-2.34,2.62-3.4
			c0.2,0.1,0.39,0.2,0.57,0.29c0.18,0.08,0.37,0.14,0.58,0.2c0.21,0.06,0.41,0.11,0.61,0.14c0.2,0.02,0.41,0.02,0.63,0.05
			c0.16,1.96,0.32,4.05,0.49,6.28c0.19,2.24,0.39,4.45,0.6,6.62c0.22,2.16,0.44,4.22,0.67,6.17
			C192.11,28.3,192.36,29.96,192.61,31.34 M186.03,12.61c-0.9,1.1-1.76,2.19-2.59,3.27c-0.83,1.07-1.65,2.17-2.47,3.31l5.71,1.63
			c-0.08-1.4-0.19-2.78-0.3-4.11C186.29,15.38,186.17,14,186.03,12.61"/>
		<path class="st0" d="M204.77,19.63c-0.82,1.43-1.71,2.9-2.67,4.42c-0.92,1.52-1.8,2.91-2.65,4.19c-0.81,1.29-1.5,2.37-2.1,3.25
			c-0.58,0.88-0.94,1.4-1.06,1.52c0.45,0.21,0.89,0.44,1.33,0.7c0.2,0.12,0.42,0.24,0.64,0.37c0.23,0.13,0.44,0.28,0.64,0.45
			c0.09-0.22,0.24-0.51,0.41-0.85c0.18-0.37,0.42-0.83,0.73-1.38c0.28-0.56,0.65-1.23,1.09-2.03c0.46-0.79,1-1.75,1.66-2.87
			l1.89-3.26c0.32-0.57,0.64-1.11,0.95-1.66c0.33-0.54,0.67-1.07,1-1.59c1.69,7.05,3.17,13.94,4.44,20.66
			c0.35,0.15,0.71,0.35,1.14,0.58c0.39,0.23,0.76,0.46,1.11,0.72l1.96-3.37c0.77-1.34,1.51-2.61,2.19-3.8
			c0.71-1.19,1.44-2.38,2.19-3.57c0.74-1.2,1.53-2.47,2.38-3.8c0.86-1.36,1.83-2.86,2.9-4.51c-0.58-0.21-1.02-0.41-1.34-0.6
			c-0.32-0.18-0.71-0.47-1.18-0.87c-0.08,0.21-0.25,0.59-0.55,1.15c-0.28,0.56-0.63,1.22-1.07,1.96c-0.41,0.77-0.87,1.59-1.4,2.49
			c-0.48,0.9-0.99,1.79-1.53,2.71l-2.98,5.18c-0.79-3.48-1.56-6.9-2.29-10.25c-0.72-3.34-1.45-6.73-2.19-10.18
			c-0.58-0.2-1.03-0.4-1.35-0.58c-0.31-0.18-0.71-0.48-1.18-0.87c-0.38,0.69-0.79,1.48-1.27,2.38
			C206.13,17.24,205.52,18.34,204.77,19.63"/>
		<path class="st1" d="M241.34,37.74c-0.18-0.12-0.36-0.24-0.53-0.34c-0.15-0.12-0.31-0.27-0.46-0.41
			c-0.15-0.16-0.29-0.31-0.41-0.47c-0.1-0.17-0.21-0.35-0.35-0.53c-1.2,0.54-2.52,1.11-3.95,1.7c-1.4,0.62-2.84,1.22-4.32,1.84
			c-1.45,0.62-2.9,1.23-4.35,1.83c-1.43,0.6-2.77,1.15-4.03,1.67c-1.25,0.52-2.38,0.99-3.39,1.38c-1.01,0.4-1.81,0.71-2.4,0.92
			c0.25,0.18,0.47,0.37,0.65,0.54c0.18,0.19,0.36,0.38,0.55,0.56c0.18,0.18,0.36,0.35,0.52,0.52c0.18,0.18,0.35,0.38,0.51,0.6
			c0.96-0.54,1.96-1.07,3.01-1.59c1.04-0.52,2.1-1.01,3.18-1.49c0.41,0.38,0.82,0.77,1.22,1.17c0.41,0.38,0.82,0.78,1.22,1.17
			c0.49,0.49,0.97,0.99,1.45,1.5c0.48,0.49,0.97,0.99,1.44,1.49c-0.48,1.07-1,2.13-1.51,3.17c-0.53,1.04-1.04,2.05-1.54,3.04
			c0.35,0.29,0.69,0.6,1.01,0.92c0.34,0.34,0.67,0.67,0.98,0.99c0.32,0.31,0.64,0.64,0.97,0.96c0.33,0.34,0.67,0.71,1.01,1.1
			c0.44-1.33,1.04-2.91,1.79-4.73c0.75-1.82,1.56-3.72,2.42-5.71c0.87-2,1.76-4.03,2.68-6.07
			C239.65,41.44,240.52,39.53,241.34,37.74 M231.74,47.93l-4.2-4.2c1.27-0.59,2.52-1.16,3.76-1.69c1.27-0.55,2.55-1.09,3.87-1.61
			c-0.56,1.29-1.12,2.55-1.7,3.77C232.92,45.41,232.33,46.66,231.74,47.93 M239.32,34.11l1.27,1.27c1.58,0.39,2.84,0.7,3.73,0.89
			c0.94,0.2,1.65,0.34,2.15,0.39c0.5,0.05,0.85,0.04,1.05-0.05c0.19-0.07,0.37-0.18,0.52-0.35c0.26-0.26,0.41-0.58,0.44-0.98
			c0.05-0.38-0.12-0.75-0.48-1.13c-0.17-0.17-0.37-0.3-0.57-0.38c-0.22-0.1-0.61-0.15-1.17-0.16c-0.57-0.02-1.4,0.02-2.48,0.08
			C242.7,33.79,241.21,33.93,239.32,34.11"/>
		<path class="st0" d="M251.22,70.58l-1.59,0.94c-1.54,0.93-2.92,1.73-4.16,2.42c-1.21,0.67-2.42,1.33-3.6,1.94
			c0.22,0.29,0.45,0.63,0.67,1c0.23,0.37,0.48,0.79,0.76,1.25c0.28,0.46,0.52,0.88,0.74,1.26c0.22,0.37,0.41,0.72,0.57,1.06
			c1.1-0.77,2.24-1.53,3.4-2.27c1.19-0.77,2.55-1.61,4.09-2.53l3.78-2.27c1.54-0.94,2.91-1.73,4.13-2.4
			c1.23-0.69,2.47-1.36,3.72-2.02c-0.23-0.29-0.47-0.61-0.73-0.95c-0.25-0.37-0.51-0.78-0.78-1.24c-0.28-0.46-0.52-0.89-0.73-1.27
			c-0.18-0.38-0.35-0.75-0.51-1.09c-1.16,0.8-2.32,1.57-3.48,2.32c-1.15,0.74-2.49,1.57-4.03,2.5c-0.35-0.52-0.71-1.1-1.11-1.72
			c-0.38-0.64-0.87-1.45-1.46-2.45c-0.61-1-1.12-1.85-1.53-2.53c-0.38-0.68-0.71-1.27-0.98-1.76c1.53-0.93,2.9-1.73,4.08-2.41
			c1.21-0.67,2.45-1.33,3.7-1.97c-0.22-0.28-0.47-0.61-0.73-0.95c-0.24-0.36-0.51-0.78-0.77-1.23c-0.28-0.47-0.53-0.9-0.73-1.28
			c-0.19-0.39-0.36-0.75-0.51-1.09c-1.17,0.8-2.33,1.58-3.51,2.33c-1.18,0.76-2.52,1.59-4.06,2.52l-3.79,2.27
			c-1.54,0.93-2.92,1.73-4.15,2.42c-1.21,0.68-2.41,1.33-3.6,1.94c0.23,0.29,0.44,0.63,0.67,1c0.22,0.37,0.47,0.79,0.76,1.25
			c0.27,0.46,0.52,0.88,0.74,1.26c0.22,0.37,0.41,0.73,0.57,1.07c1.1-0.77,2.24-1.53,3.4-2.28c1.19-0.77,2.55-1.61,4.1-2.54
			l1.58-0.94c0.46,0.67,0.91,1.37,1.36,2.06c0.44,0.7,0.87,1.39,1.3,2.1c0.43,0.71,0.82,1.42,1.22,2.14
			C250.42,69.13,250.81,69.85,251.22,70.58"/>
		<path class="st0" d="M249.6,96.13c0.92,3,2.39,5.04,4.42,6.11c2.05,1.07,4.88,1.06,8.47-0.04c1.35-0.41,2.63-0.8,3.83-1.14
			c1.23-0.33,2.35-0.62,3.36-0.89c1.03-0.27,1.92-0.5,2.71-0.69c0.77-0.19,1.4-0.35,1.87-0.44c-0.12-0.26-0.25-0.51-0.36-0.74
			c-0.1-0.24-0.19-0.5-0.27-0.76c-0.08-0.23-0.14-0.48-0.2-0.75c-0.05-0.28-0.08-0.58-0.13-0.87c-1.4,0.51-2.81,1-4.23,1.5
			c-1.39,0.47-2.81,0.92-4.23,1.36c-1.46,0.44-2.86,0.83-4.24,1.16c-1.35,0.32-2.59,0.45-3.74,0.4c-1.14-0.04-2.13-0.31-2.97-0.83
			c-0.84-0.51-1.45-1.39-1.82-2.63c-0.31-1.01-0.48-1.93-0.51-2.76c-0.03-0.84,0.19-1.61,0.64-2.34c0.48-0.71,1.27-1.38,2.34-2
			c1.08-0.63,2.56-1.23,4.44-1.8c1.78-0.54,3.54-1.06,5.27-1.54c1.76-0.49,3.67-0.94,5.74-1.34c-0.17-0.41-0.34-0.81-0.51-1.23
			c-0.15-0.43-0.3-0.85-0.42-1.27c-0.13-0.41-0.25-0.84-0.36-1.28c-0.09-0.45-0.18-0.88-0.26-1.31c-0.51,0.2-1.28,0.47-2.3,0.81
			c-1.03,0.34-2.38,0.76-4.06,1.27c-0.57,0.18-1.1,0.34-1.63,0.48c-0.51,0.15-1.05,0.32-1.61,0.49c-0.56,0.17-1.17,0.35-1.84,0.53
			c-0.64,0.19-1.37,0.41-2.21,0.67c-1.46,0.44-2.65,1.07-3.54,1.86c-0.87,0.8-1.5,1.73-1.9,2.78c-0.37,1.04-0.53,2.17-0.44,3.39
			C248.97,93.52,249.2,94.8,249.6,96.13"/>
		<path class="st1" d="M256.21,130.02c-0.02-0.52-0.07-1.02-0.12-1.49c-0.05-0.45-0.11-0.91-0.17-1.36
			c-0.05-0.44-0.11-0.91-0.17-1.38c-0.05-0.45-0.13-0.9-0.23-1.34c1.01-0.48,2.04-0.97,3.09-1.46c1.06-0.5,2.1-1.02,3.15-1.56
			c-0.07-0.69-0.14-1.37-0.23-2.07c-0.06-0.68-0.13-1.37-0.21-2.06c-0.07-0.55-0.15-1.11-0.24-1.66c-0.07-0.57-0.15-1.13-0.24-1.67
			c-1.15-0.3-2.29-0.56-3.44-0.79s-2.25-0.43-3.34-0.6c0-0.28,0-0.53-0.04-0.79c-0.03-0.23-0.06-0.48-0.1-0.74
			c-0.02-0.26-0.05-0.51-0.09-0.77c-0.02-0.26-0.08-0.54-0.16-0.83c0.59,0.19,1.4,0.44,2.45,0.74c1.04,0.31,2.22,0.64,3.53,1
			c1.31,0.37,2.71,0.75,4.19,1.16c1.51,0.42,3.04,0.84,4.57,1.23c1.53,0.42,3.05,0.83,4.53,1.21c1.49,0.4,2.87,0.77,4.16,1.09
			c-0.02,0.22-0.04,0.43-0.05,0.63c0,0.2,0.02,0.4,0.05,0.61c0.02,0.21,0.06,0.42,0.1,0.61c0.07,0.18,0.14,0.38,0.21,0.59
			c-1.75,0.91-3.6,1.88-5.59,2.91c-1.99,1.06-3.95,2.1-5.87,3.14c-1.89,1.04-3.7,2.05-5.42,3.02
			C258.81,128.37,257.36,129.24,256.21,130.02 M270.88,116.64c-1.36-0.41-2.7-0.77-4.03-1.11c-1.3-0.35-2.64-0.67-4-0.98l0.71,5.9
			c1.26-0.63,2.48-1.27,3.67-1.89C268.44,117.95,269.66,117.32,270.88,116.64"/>
		<path class="st0" d="M259.78,150.95l0.25-0.42c-0.36-0.35-0.7-0.76-1-1.23c-0.3-0.46-0.56-0.95-0.77-1.46
			c-0.2-0.52-0.36-1.05-0.48-1.6c-0.12-0.54-0.17-1.07-0.17-1.59c0-0.93,0.18-1.86,0.52-2.79c0.35-0.91,0.88-1.73,1.63-2.47
			c0.75-0.71,1.72-1.29,2.88-1.75c1.2-0.45,2.61-0.68,4.29-0.68c1.73,0,3.21,0.22,4.45,0.64c1.26,0.46,2.28,1.04,3.08,1.76
			c0.81,0.72,1.4,1.51,1.79,2.37c0.39,0.89,0.58,1.76,0.58,2.63c0,1.17-0.23,2.19-0.67,3.05c-0.44,0.87-1.17,1.71-2.22,2.54v0.44
			c0.57,0.05,1.12,0.12,1.66,0.23c0.57,0.13,1.11,0.3,1.66,0.52c0.21-0.37,0.42-0.82,0.61-1.36c0.2-0.51,0.37-1.07,0.49-1.66
			c0.15-0.58,0.27-1.19,0.36-1.82c0.08-0.63,0.13-1.22,0.13-1.79c0-1.71-0.23-3.34-0.69-4.9c-0.45-1.56-1.17-2.93-2.17-4.12
			c-0.97-1.17-2.25-2.11-3.83-2.83c-1.56-0.69-3.47-1.04-5.72-1.04c-1.53,0-2.96,0.27-4.29,0.81c-1.32,0.54-2.47,1.32-3.44,2.34
			c-0.94,1.04-1.7,2.29-2.24,3.77c-0.51,1.49-0.77,3.17-0.77,5.06c0,2.66,0.44,4.87,1.32,6.62c0.46,0.05,0.92,0.13,1.36,0.26
			C258.85,150.62,259.32,150.78,259.78,150.95"/>
		<path class="st0" d="M6.77,186.67c0.11,0.21,0.2,0.48,0.29,0.83c0.08,0.29,0.13,0.58,0.17,0.86c3.52,0.27,7.06,0.59,10.61,0.96
			c3.55,0.37,7.15,0.77,10.77,1.23c-0.18-0.35-0.33-0.65-0.39-0.91c-0.07-0.26-0.11-0.58-0.12-0.99c-0.67-0.02-1.47-0.05-2.39-0.1
			c-0.92-0.05-1.92-0.11-2.98-0.19c-1.07-0.06-2.19-0.13-3.36-0.21c-1.15-0.06-2.29-0.16-3.44-0.25c-1.11-0.09-2.19-0.18-3.25-0.28
			c-1.04-0.11-1.99-0.21-2.85-0.31c1.29-0.93,2.58-1.85,3.9-2.78c1.31-0.91,2.6-1.83,3.88-2.71c1.27-0.87,2.53-1.72,3.77-2.55
			c1.26-0.81,2.45-1.57,3.6-2.28c-0.11-0.24-0.21-0.45-0.31-0.67c-0.08-0.22-0.15-0.43-0.2-0.64c-0.05-0.2-0.1-0.42-0.15-0.64
			c-0.02-0.23-0.05-0.48-0.06-0.73c-1.46,1.05-3.01,2.15-4.64,3.3c-1.62,1.17-3.21,2.31-4.79,3.41c-1.56,1.1-3.04,2.15-4.45,3.14
			C8.98,185.15,7.78,185.98,6.77,186.67"/>
		<path class="st0" d="M23.14,196.54l-4.66,1.89c-1.2,0.48-2.38,0.93-3.56,1.35c-1.18,0.43-2.33,0.85-3.47,1.26
			c0.18,0.36,0.36,0.75,0.54,1.18c0.18,0.43,0.32,0.84,0.44,1.23c1.1-0.5,2.22-1.01,3.36-1.53c1.13-0.5,2.31-0.99,3.5-1.47
			l4.66-1.89c1.19-0.48,2.36-0.94,3.52-1.37c1.17-0.41,2.37-0.84,3.58-1.27c-0.12-0.2-0.24-0.39-0.35-0.58
			c-0.1-0.18-0.19-0.38-0.26-0.58c-0.08-0.19-0.15-0.39-0.21-0.6c-0.05-0.21-0.09-0.43-0.14-0.66c-1.18,0.53-2.34,1.04-3.48,1.55
			C25.48,195.56,24.33,196.06,23.14,196.54"/>
		<path class="st0" d="M22.25,224.04l0.18,0.32c0.18-0.1,0.47-0.25,0.84-0.47c0.41-0.22,0.88-0.49,1.41-0.81
			c0.57-0.31,1.17-0.65,1.79-1.02c0.65-0.36,1.28-0.71,1.9-1.08c0.64-0.35,1.23-0.68,1.82-1c0.61-0.34,1.11-0.62,1.54-0.85
			c0.49-0.28,1.15-0.63,1.99-1.05c0.84-0.42,1.69-0.85,2.56-1.3c0.87-0.42,1.7-0.84,2.47-1.22c0.77-0.37,1.36-0.64,1.76-0.82
			c-0.26-0.26-0.44-0.48-0.54-0.67c-0.12-0.22-0.22-0.5-0.31-0.86c-1.46,0.9-3.03,1.84-4.73,2.8c-1.68,0.97-3.4,1.95-5.19,2.94
			l-3.48,1.93c0.39-1.15,0.87-2.51,1.45-4.08c0.61-1.57,1.23-3.23,1.89-4.99c0.67-1.76,1.35-3.53,2.03-5.31
			c0.71-1.79,1.36-3.47,1.96-5.04l-0.21-0.38c-0.57,0.35-1.43,0.86-2.61,1.51c-1.17,0.67-2.57,1.46-4.2,2.37
			c-0.57,0.31-1.21,0.65-1.93,1.04c-0.73,0.38-1.48,0.77-2.25,1.15c-0.75,0.41-1.52,0.78-2.29,1.15c-0.77,0.39-1.5,0.74-2.15,1.07
			c-0.64,0.31-1.21,0.58-1.71,0.79c-0.47,0.22-0.8,0.37-0.99,0.43c0.18,0.25,0.35,0.53,0.53,0.84c0.16,0.29,0.29,0.57,0.39,0.84
			c0.14-0.09,0.38-0.25,0.74-0.48c0.39-0.23,0.83-0.5,1.33-0.8c0.5-0.3,1.05-0.62,1.63-0.97c0.59-0.35,1.17-0.69,1.74-1.03
			c0.58-0.32,1.13-0.64,1.66-0.94c0.52-0.29,0.97-0.54,1.33-0.74c1.38-0.77,2.48-1.37,3.29-1.79c0.81-0.42,1.46-0.77,1.94-1.02
			c-1.24,3.32-2.49,6.65-3.77,9.98C24.81,217.81,23.54,221,22.25,224.04"/>
		<path class="st0" d="M38.64,242.15l1.46-0.95l0.02-0.16c-0.32-0.04-0.71-0.11-1.19-0.2c-0.43-0.08-0.9-0.22-1.4-0.41
			c-0.47-0.18-0.94-0.42-1.43-0.72c-0.48-0.28-0.93-0.67-1.35-1.14c-0.68-0.79-1.19-1.65-1.5-2.57c-0.29-0.92-0.38-1.87-0.25-2.88
			c0.17-1,0.57-2.03,1.2-3.08c0.65-1.06,1.59-2.12,2.81-3.17c1.21-1.07,2.39-1.84,3.52-2.32c1.14-0.51,2.21-0.75,3.22-0.76
			c1.03-0.01,1.98,0.21,2.83,0.63c0.87,0.44,1.66,1.06,2.34,1.84c0.42,0.48,0.73,0.98,0.93,1.52c0.22,0.51,0.37,1.02,0.44,1.53
			c0.08,0.5,0.11,0.96,0.09,1.39c-0.01,0.44-0.05,0.8-0.11,1.08l0.15,0.08c0.28-0.16,0.61-0.37,1.03-0.61
			c0.41-0.23,0.76-0.39,1.07-0.47c-0.21-0.8-0.54-1.65-0.99-2.55c-0.41-0.9-1.01-1.79-1.78-2.67c-0.97-1.1-2.02-1.97-3.18-2.59
			c-1.15-0.61-2.36-0.96-3.61-1.04c-1.26-0.06-2.52,0.15-3.84,0.63c-1.29,0.48-2.55,1.27-3.8,2.35c-1.25,1.1-2.22,2.24-2.88,3.46
			c-0.64,1.22-1.04,2.45-1.15,3.68c-0.12,1.23,0.05,2.45,0.5,3.64c0.44,1.17,1.13,2.29,2.06,3.34c0.42,0.5,0.88,0.94,1.36,1.31
			c0.48,0.38,0.94,0.71,1.35,0.97c0.44,0.28,0.84,0.48,1.2,0.61C38.11,242.06,38.41,242.13,38.64,242.15"/>
		<path class="st0" d="M51.43,238.55l-3.23,3.86c-0.83,0.98-1.66,1.93-2.52,2.85c-0.81,0.93-1.64,1.84-2.49,2.77
			c0.65,0.49,1.28,0.99,1.89,1.5c0.61,0.51,1.23,1.03,1.86,1.55c0.62,0.53,1.23,1.04,1.83,1.54c0.61,0.51,1.2,1.04,1.79,1.58
			c0.09-0.18,0.23-0.39,0.44-0.63c0.08-0.11,0.18-0.22,0.28-0.34c0.13-0.12,0.25-0.23,0.36-0.31c-0.38-0.2-0.82-0.47-1.31-0.8
			c-0.46-0.33-0.94-0.7-1.47-1.09c-0.51-0.39-1.01-0.81-1.53-1.23c-0.5-0.42-0.97-0.82-1.43-1.2c0.22-0.3,0.57-0.72,1.01-1.29
			c0.47-0.56,1.06-1.26,1.77-2.11l1.86-2.22c0.21-0.24,0.36-0.44,0.49-0.58c0.15-0.15,0.28-0.3,0.4-0.44
			c0.25,0.21,0.56,0.49,0.97,0.84c0.41,0.35,0.84,0.74,1.3,1.14c0.47,0.4,0.93,0.81,1.37,1.23c0.44,0.42,0.84,0.81,1.15,1.15
			c0.15-0.26,0.31-0.5,0.5-0.73c0.2-0.24,0.42-0.44,0.64-0.64c-0.32-0.22-0.66-0.46-1.03-0.71c-0.34-0.26-0.72-0.54-1.14-0.84
			c-0.4-0.31-0.85-0.67-1.33-1.05c-0.49-0.38-1.03-0.83-1.63-1.33c0.24-0.28,0.58-0.71,1.03-1.27c0.47-0.56,0.95-1.13,1.43-1.7
			c0.47-0.56,0.88-1.04,1.26-1.47c0.4-0.41,0.79-0.85,1.21-1.3c0.67,0.55,1.22,1.04,1.66,1.47c0.48,0.41,0.88,0.8,1.26,1.16
			c0.38,0.37,0.74,0.72,1.06,1.04c0.35,0.34,0.72,0.71,1.13,1.1c0.15-0.25,0.31-0.5,0.5-0.72c0.19-0.22,0.4-0.42,0.63-0.61
			c-0.64-0.49-1.27-0.97-1.89-1.44c-0.61-0.48-1.22-0.97-1.83-1.49c-0.61-0.51-1.21-1.03-1.81-1.56c-0.58-0.53-1.15-1.07-1.73-1.6
			c-0.77,0.99-1.53,1.97-2.31,2.94C53.06,236.57,52.26,237.57,51.43,238.55"/>
		<path class="st0" d="M70.14,251.79l-2.36,4.44c-0.61,1.14-1.22,2.25-1.86,3.32c-0.61,1.09-1.23,2.15-1.85,3.2
			c0.38,0.16,0.77,0.34,1.18,0.55c0.41,0.21,0.77,0.44,1.12,0.67c0.52-1.09,1.04-2.2,1.59-3.33c0.55-1.12,1.14-2.25,1.73-3.38
			l2.36-4.44c0.61-1.14,1.22-2.24,1.82-3.31c0.63-1.07,1.27-2.16,1.93-3.28c-0.22-0.06-0.43-0.14-0.64-0.21
			c-0.19-0.08-0.38-0.17-0.58-0.27c-0.19-0.1-0.37-0.21-0.54-0.33c-0.17-0.13-0.35-0.27-0.54-0.41c-0.55,1.17-1.1,2.3-1.66,3.42
			C71.31,249.53,70.74,250.65,70.14,251.79"/>
		<path class="st0" d="M87.62,273.31l0.35,0.13c0.08-0.21,0.19-0.51,0.34-0.91c0.16-0.44,0.34-0.95,0.53-1.55
			c0.22-0.6,0.44-1.25,0.68-1.93c0.25-0.69,0.49-1.38,0.73-2.07c0.24-0.67,0.48-1.33,0.71-1.95c0.23-0.64,0.43-1.19,0.6-1.65
			c0.2-0.53,0.47-1.23,0.82-2.1c0.35-0.87,0.71-1.75,1.08-2.65c0.38-0.91,0.74-1.75,1.07-2.54c0.35-0.8,0.61-1.37,0.78-1.77
			c-0.36-0.03-0.64-0.08-0.84-0.15c-0.24-0.08-0.51-0.23-0.8-0.44c-0.51,1.64-1.09,3.38-1.73,5.22c-0.63,1.83-1.29,3.7-1.99,5.62
			l-1.36,3.73c-0.46-1.12-0.99-2.45-1.59-4.03c-0.58-1.58-1.19-3.24-1.86-5c-0.64-1.77-1.29-3.55-1.95-5.35
			c-0.64-1.82-1.25-3.5-1.83-5.08l-0.39-0.15c-0.2,0.64-0.52,1.58-0.99,2.85c-0.44,1.27-0.98,2.78-1.62,4.55
			c-0.22,0.6-0.48,1.29-0.78,2.06c-0.29,0.76-0.6,1.53-0.93,2.32c-0.31,0.81-0.64,1.6-0.99,2.39c-0.32,0.79-0.63,1.53-0.91,2.22
			c-0.28,0.67-0.54,1.23-0.77,1.71c-0.21,0.48-0.38,0.81-0.48,0.98c0.3,0.07,0.61,0.16,0.94,0.28c0.32,0.12,0.61,0.24,0.85,0.37
			c0.04-0.15,0.13-0.43,0.26-0.84c0.14-0.42,0.29-0.92,0.48-1.47c0.18-0.55,0.39-1.16,0.61-1.8c0.21-0.64,0.43-1.29,0.64-1.92
			c0.21-0.62,0.43-1.22,0.62-1.79c0.21-0.57,0.38-1.04,0.51-1.43c0.54-1.49,0.98-2.65,1.31-3.51c0.33-0.85,0.59-1.53,0.8-2.04
			c1.24,3.31,2.49,6.65,3.71,10C85.47,266.94,86.6,270.17,87.62,273.31"/>
		<path class="st1" d="M106.77,264.93l-0.79,4.98c-0.2,1.27-0.42,2.52-0.67,3.74c-0.22,1.2-0.46,2.42-0.71,3.64
			c0.43,0.03,0.84,0.08,1.27,0.15c0.43,0.07,0.86,0.14,1.28,0.21c0.42,0.05,0.84,0.14,1.26,0.22c0.44,0.08,0.86,0.16,1.29,0.23
			c0.76,0.12,1.55,0.16,2.35,0.11c0.81-0.07,1.58-0.27,2.3-0.61c0.72-0.36,1.33-0.87,1.86-1.55c0.52-0.66,0.86-1.54,1.04-2.61
			c0.25-1.66,0-2.94-0.79-3.83c-0.77-0.89-1.93-1.5-3.47-1.83l0.01-0.05c1.36-0.12,2.51-0.52,3.44-1.2
			c0.94-0.68,1.53-1.73,1.76-3.16c0.14-0.81,0.09-1.5-0.12-2.09c-0.21-0.58-0.54-1.07-1-1.46c-0.45-0.41-1-0.72-1.66-0.94
			c-0.64-0.24-1.34-0.42-2.09-0.54c-0.46-0.08-0.92-0.12-1.41-0.14c-0.48-0.04-0.94-0.09-1.4-0.16c-0.45-0.08-0.92-0.16-1.39-0.25
			c-0.46-0.12-0.92-0.23-1.37-0.34c-0.15,1.23-0.28,2.48-0.44,3.72C107.14,262.41,106.97,263.67,106.77,264.93 M110.12,266.92
			l-1.43-0.22l0.35-2.16c0.15-0.93,0.31-1.84,0.48-2.74c0.18-0.9,0.36-1.81,0.54-2.74c0.25,0,0.53,0.02,0.85,0.05
			c0.32,0.01,0.71,0.05,1.17,0.12c0.51,0.08,1,0.21,1.5,0.39c0.5,0.15,0.93,0.4,1.28,0.73c0.37,0.31,0.64,0.74,0.83,1.26
			c0.18,0.51,0.21,1.15,0.09,1.94c-0.13,0.81-0.39,1.46-0.77,1.96c-0.36,0.47-0.81,0.84-1.33,1.09c-0.52,0.23-1.09,0.37-1.73,0.41
			C111.34,267.05,110.72,267.01,110.12,266.92 M108.06,270.71l0.46-2.94l1.18,0.19c0.87,0.14,1.66,0.31,2.34,0.54
			c0.7,0.23,1.28,0.54,1.73,0.92c0.47,0.38,0.78,0.85,0.96,1.43c0.2,0.56,0.23,1.26,0.11,2.09c-0.13,0.77-0.35,1.44-0.67,2.02
			c-0.33,0.56-0.71,1.03-1.17,1.39c-0.44,0.35-0.95,0.58-1.51,0.71c-0.54,0.13-1.09,0.15-1.64,0.07c-0.48-0.08-0.94-0.16-1.39-0.25
			c-0.45-0.11-0.84-0.21-1.16-0.3c0.12-0.99,0.23-1.97,0.35-2.94C107.78,272.67,107.91,271.7,108.06,270.71"/>
		<path class="st1" d="M139.88,270.45c-0.06,1.62-0.28,3.01-0.71,4.19c-0.41,1.16-0.97,2.11-1.67,2.87
			c-0.67,0.74-1.48,1.28-2.39,1.62c-0.9,0.34-1.88,0.48-2.92,0.45c-1.03-0.04-1.98-0.25-2.87-0.66c-0.87-0.4-1.63-0.99-2.28-1.77
			c-0.63-0.81-1.1-1.8-1.43-2.98c-0.33-1.2-0.48-2.61-0.41-4.23c0.05-1.6,0.28-2.99,0.7-4.16c0.42-1.17,0.96-2.13,1.65-2.87
			c0.7-0.75,1.5-1.3,2.39-1.64c0.91-0.34,1.89-0.49,2.91-0.45c1.05,0.04,2,0.25,2.88,0.65c0.89,0.41,1.65,1.01,2.28,1.81
			c0.64,0.78,1.13,1.77,1.46,2.98C139.79,267.43,139.93,268.84,139.88,270.45 M122.6,269.85c-0.06,1.66,0.12,3.14,0.56,4.47
			c0.44,1.3,1.09,2.42,1.93,3.34c0.85,0.93,1.89,1.63,3.09,2.13c1.2,0.47,2.53,0.73,3.99,0.78c1.46,0.05,2.81-0.12,4.06-0.51
			c1.23-0.4,2.29-1.04,3.2-1.9c0.91-0.87,1.63-1.94,2.16-3.21c0.54-1.29,0.84-2.76,0.9-4.42c0.05-1.66-0.14-3.14-0.6-4.44
			c-0.43-1.33-1.07-2.45-1.93-3.37c-0.84-0.93-1.86-1.65-3.06-2.16c-1.2-0.51-2.55-0.79-4.02-0.84c-1.45-0.05-2.78,0.14-4.03,0.56
			c-1.23,0.43-2.32,1.07-3.23,1.94c-0.9,0.87-1.62,1.94-2.16,3.23C122.95,266.74,122.65,268.19,122.6,269.85"/>
		<path class="st0" d="M162.95,279.39l0.38-0.03c-0.02-0.21-0.05-0.53-0.09-0.96c-0.04-0.47-0.09-1-0.17-1.63
			c-0.05-0.64-0.12-1.32-0.2-2.03c-0.07-0.74-0.15-1.46-0.22-2.19c-0.06-0.72-0.12-1.41-0.18-2.06c-0.07-0.68-0.12-1.27-0.15-1.76
			c-0.05-0.56-0.1-1.31-0.15-2.25c-0.05-0.94-0.1-1.89-0.15-2.86c-0.03-0.97-0.06-1.89-0.11-2.75c-0.02-0.86-0.04-1.5-0.04-1.92
			c-0.35,0.12-0.62,0.19-0.83,0.21c-0.25,0.02-0.56-0.01-0.92-0.08c0.25,1.71,0.45,3.53,0.64,5.47c0.2,1.93,0.39,3.9,0.57,5.94
			l0.35,3.96c-0.88-0.83-1.93-1.83-3.14-2.99c-1.19-1.19-2.45-2.44-3.79-3.74c-1.33-1.34-2.68-2.68-4.03-4.03
			c-1.35-1.37-2.61-2.65-3.8-3.84l-0.43,0.04c0.1,0.66,0.2,1.66,0.32,3.01c0.14,1.33,0.28,2.94,0.44,4.8
			c0.05,0.64,0.11,1.37,0.17,2.19c0.05,0.82,0.09,1.65,0.14,2.52c0.05,0.85,0.1,1.71,0.12,2.58c0.04,0.86,0.08,1.65,0.1,2.39
			c0.04,0.73,0.05,1.35,0.04,1.88c0.02,0.53,0.01,0.89-0.01,1.09c0.29-0.07,0.61-0.12,0.97-0.15c0.33-0.02,0.64-0.03,0.93-0.02
			c-0.02-0.15-0.07-0.44-0.12-0.87c-0.06-0.45-0.12-0.97-0.19-1.55c-0.06-0.58-0.15-1.21-0.21-1.89c-0.08-0.67-0.15-1.35-0.23-2.01
			c-0.05-0.65-0.12-1.28-0.19-1.89c-0.05-0.61-0.1-1.1-0.14-1.52c-0.13-1.57-0.24-2.81-0.29-3.73c-0.06-0.91-0.12-1.65-0.15-2.19
			c2.53,2.48,5.06,4.98,7.59,7.5C158.31,274.53,160.69,276.99,162.95,279.39"/>
		<path class="st1" d="M184.99,264.49c0.36,1.57,0.49,2.98,0.4,4.22c-0.09,1.23-0.39,2.3-0.87,3.21c-0.47,0.89-1.1,1.62-1.9,2.18
			c-0.77,0.57-1.67,0.96-2.68,1.2c-1,0.23-1.99,0.27-2.96,0.11c-0.94-0.16-1.83-0.54-2.65-1.13c-0.81-0.61-1.53-1.45-2.16-2.5
			c-0.63-1.08-1.13-2.4-1.49-3.98c-0.37-1.57-0.5-2.97-0.39-4.19c0.09-1.25,0.37-2.32,0.84-3.2c0.48-0.91,1.11-1.65,1.89-2.21
			c0.79-0.57,1.69-0.97,2.69-1.2c1.01-0.23,2.01-0.27,2.95-0.11c0.96,0.16,1.85,0.54,2.67,1.16c0.82,0.58,1.55,1.42,2.18,2.49
			C184.13,261.59,184.63,262.91,184.99,264.49 M168.14,268.37c0.37,1.62,0.94,3.01,1.7,4.18c0.77,1.13,1.68,2.05,2.73,2.72
			c1.06,0.67,2.24,1.1,3.54,1.27c1.29,0.14,2.64,0.05,4.05-0.28c1.43-0.33,2.7-0.84,3.79-1.53c1.1-0.71,1.96-1.6,2.6-2.67
			c0.67-1.07,1.08-2.29,1.26-3.66c0.19-1.38,0.09-2.88-0.27-4.5c-0.38-1.61-0.95-2.99-1.72-4.13c-0.76-1.16-1.68-2.08-2.74-2.75
			c-1.05-0.67-2.22-1.11-3.52-1.3c-1.3-0.18-2.66-0.11-4.09,0.22c-1.42,0.33-2.66,0.86-3.76,1.59c-1.08,0.74-1.96,1.63-2.62,2.71
			c-0.65,1.07-1.06,2.3-1.25,3.68C167.67,265.27,167.76,266.76,168.14,268.37"/>
		<path class="st0" d="M197.89,248.57l-0.39,0.22c0.64,1.43,1.28,2.95,1.96,4.56c0.66,1.6,1.32,3.23,1.99,4.89
			c0.65,1.66,1.3,3.32,1.93,4.97c0.64,1.66,1.23,3.24,1.79,4.73c0.24-0.18,0.5-0.34,0.79-0.51c0.29-0.17,0.58-0.3,0.84-0.4
			c-0.38-0.68-0.83-1.57-1.33-2.68c-0.51-1.11-1.05-2.3-1.6-3.55c-0.56-1.27-1.13-2.55-1.68-3.86c-0.55-1.32-1.07-2.54-1.55-3.66
			l0.05-0.02c2.28,1.69,4.52,3.33,6.72,4.93c2.22,1.6,4.38,3.2,6.5,4.83l0.21-0.12c-0.36-2.84-0.61-5.6-0.77-8.27
			c-0.13-2.71-0.27-5.43-0.39-8.18l0.05-0.02c1.48,2.08,2.9,4.14,4.25,6.17c1.35,2.04,2.75,4.14,4.17,6.33
			c0.16-0.15,0.33-0.26,0.5-0.35c0.19-0.11,0.38-0.21,0.57-0.31c0.18-0.1,0.35-0.2,0.52-0.29c0.19-0.1,0.38-0.19,0.59-0.25
			c-0.97-1.32-1.93-2.65-2.88-4c-0.95-1.37-1.92-2.73-2.88-4.12c-0.98-1.39-1.96-2.81-2.96-4.24c-1-1.46-2.03-2.96-3.1-4.5
			l-0.31,0.17c0.05,1,0.09,2.07,0.15,3.23c0.04,1.15,0.1,2.32,0.16,3.52c0.07,1.19,0.13,2.37,0.19,3.54
			c0.07,1.14,0.13,2.21,0.17,3.21c0.05,1,0.1,1.89,0.15,2.67c0.04,0.75,0.07,1.34,0.09,1.76c-2.53-1.75-4.97-3.46-7.34-5.14
			C202.69,252.16,200.31,250.39,197.89,248.57"/>
		<path class="st1" d="M241.71,242.11c-0.21,0.14-0.4,0.28-0.58,0.44c-0.16,0.14-0.33,0.29-0.51,0.46
			c-0.18,0.17-0.35,0.32-0.54,0.48c-0.15,0.15-0.31,0.31-0.47,0.51c-0.4-0.25-0.88-0.54-1.45-0.86c-0.59-0.34-1.21-0.67-1.86-1
			c-0.65-0.35-1.32-0.7-1.99-1.04c-0.67-0.36-1.32-0.71-1.92-1.03c-0.44,0.36-0.87,0.75-1.3,1.14c-0.45,0.38-0.89,0.76-1.33,1.15
			c-0.4,0.37-0.81,0.74-1.18,1.1c-0.4,0.36-0.79,0.72-1.19,1.1c0.6,1.51,1.19,2.94,1.77,4.27c0.58,1.33,1.07,2.4,1.5,3.22
			c-0.25,0.17-0.51,0.38-0.77,0.61c-0.27,0.25-0.5,0.48-0.7,0.71c-1.21-3.5-2.45-6.96-3.69-10.38c-1.24-3.41-2.52-6.89-3.83-10.4
			l0.38-0.34c1.07,0.55,2.24,1.16,3.5,1.81c1.24,0.64,2.51,1.29,3.79,1.95c1.28,0.66,2.55,1.3,3.83,1.94
			c1.27,0.64,2.45,1.24,3.55,1.8c1.1,0.54,2.08,1.01,2.94,1.45C240.55,241.61,241.23,241.92,241.71,242.11 M226.88,243.22
			c0.35-0.31,0.7-0.62,1.08-0.94c0.38-0.31,0.74-0.62,1.09-0.93c0.37-0.33,0.74-0.67,1.1-1c0.36-0.35,0.71-0.69,1.07-1.04
			l-7.17-3.55L226.88,243.22z"/>
		<path class="st0" d="M236.5,228.94l3.96,3.11c1.02,0.79,2,1.59,2.95,2.4c0.96,0.79,1.9,1.59,2.82,2.37
			c0.49-0.7,0.98-1.34,1.46-1.96c0.49-0.64,1-1.28,1.52-1.95c0.51-0.64,1-1.29,1.51-1.92c0.5-0.64,1.02-1.27,1.55-1.89
			c-0.31-0.12-0.53-0.25-0.71-0.38c-0.18-0.14-0.38-0.36-0.61-0.64c-0.66,1.17-1.33,2.22-2.01,3.15c-0.69,0.91-1.43,1.87-2.19,2.86
			c-1.14-0.86-2.42-1.83-3.84-2.92c-1.44-1.11-3.14-2.42-5.07-3.93c-1.02-0.79-1.99-1.59-2.94-2.36c-0.94-0.82-1.92-1.64-2.9-2.47
			c-0.1,0.21-0.21,0.4-0.31,0.59c-0.12,0.18-0.24,0.35-0.36,0.52c-0.14,0.17-0.27,0.33-0.42,0.48c-0.17,0.15-0.33,0.29-0.51,0.45
			c1.05,0.75,2.08,1.5,3.08,2.24C234.48,227.4,235.48,228.15,236.5,228.94"/>
		<path class="st0" d="M253.84,205.48c0.54,0.28,1.11,0.6,1.75,0.95c0.63,0.35,1.23,0.75,1.83,1.18s1.11,0.91,1.58,1.44
			c0.48,0.51,0.84,1.08,1.09,1.69c0.25,0.61,0.35,1.29,0.31,2.03c-0.04,0.72-0.28,1.52-0.74,2.38c-0.47,0.87-0.96,1.55-1.51,2.02
			c-0.55,0.47-1.13,0.79-1.74,0.97c-0.62,0.17-1.26,0.22-1.9,0.16c-0.66-0.09-1.3-0.25-1.95-0.47c-0.65-0.22-1.3-0.49-1.91-0.81
			c-0.65-0.32-1.27-0.64-1.86-0.95c-0.97-0.51-1.89-1.02-2.78-1.51c-0.88-0.49-1.71-0.96-2.47-1.4c-0.76-0.44-1.43-0.84-2.02-1.19
			c-0.6-0.36-1.08-0.66-1.45-0.89c-0.05,0.18-0.11,0.38-0.17,0.58c-0.07,0.16-0.14,0.33-0.24,0.5c-0.1,0.19-0.21,0.39-0.35,0.6
			c-0.15,0.21-0.29,0.38-0.42,0.55c0.79,0.38,1.75,0.86,2.89,1.42c1.14,0.57,2.42,1.23,3.87,2c0.66,0.35,1.29,0.71,1.89,1.1
			c0.61,0.36,1.31,0.76,2.12,1.19c2.53,1.35,4.66,1.8,6.4,1.36c1.73-0.44,3.22-1.83,4.48-4.18c0.56-1.06,0.9-2.09,1-3.07
			c0.12-1,0-1.96-0.34-2.86c-0.33-0.9-0.88-1.74-1.63-2.52c-0.75-0.8-1.69-1.51-2.84-2.15c-0.94-0.51-1.9-1.06-2.88-1.62
			c-1-0.57-1.96-1.13-2.89-1.66c-0.95-0.54-1.83-1.06-2.62-1.54c-0.82-0.49-1.52-0.92-2.1-1.3c-0.05,0.31-0.13,0.57-0.25,0.77
			c-0.08,0.16-0.18,0.31-0.28,0.46c-0.12,0.14-0.24,0.28-0.36,0.44c0.53,0.21,1.46,0.64,2.8,1.33
			C249.5,203.17,251.39,204.17,253.84,205.48"/>
		<path class="st0" d="M248.72,192.45l-0.12,0.43c1.45,0.59,2.98,1.23,4.58,1.93c1.58,0.69,3.19,1.4,4.82,2.15
			c1.63,0.74,3.25,1.48,4.85,2.23c1.61,0.75,3.14,1.47,4.58,2.15c0.05-0.28,0.12-0.58,0.21-0.91c0.1-0.31,0.21-0.61,0.33-0.87
			c-0.74-0.23-1.69-0.57-2.81-1c-1.15-0.44-2.36-0.93-3.63-1.44c-1.29-0.52-2.58-1.06-3.89-1.6c-1.31-0.57-2.52-1.09-3.65-1.56
			l0.02-0.05c2.81-0.37,5.56-0.74,8.27-1.11c2.69-0.41,5.36-0.75,8.02-1.05l0.08-0.23c-2.22-1.79-4.33-3.59-6.3-5.42
			c-1.98-1.84-3.97-3.71-5.97-5.6l0.02-0.05c2.5,0.47,4.96,0.97,7.34,1.49c2.39,0.53,4.85,1.08,7.39,1.66
			c0.03-0.21,0.08-0.42,0.13-0.61c0.06-0.2,0.12-0.41,0.18-0.61c0.06-0.2,0.12-0.4,0.18-0.58c0.06-0.21,0.15-0.41,0.25-0.6
			c-1.61-0.27-3.22-0.56-4.84-0.87c-1.64-0.32-3.28-0.64-4.94-0.96c-1.68-0.32-3.37-0.66-5.08-0.99c-1.73-0.37-3.52-0.73-5.36-1.09
			l-0.1,0.33c0.73,0.68,1.5,1.43,2.35,2.22c0.84,0.8,1.69,1.6,2.56,2.42c0.87,0.8,1.75,1.61,2.6,2.41c0.84,0.78,1.63,1.5,2.36,2.19
			c0.72,0.68,1.37,1.29,1.95,1.82c0.55,0.52,0.98,0.92,1.29,1.2c-3.03,0.5-5.98,0.97-8.84,1.4
			C254.67,191.7,251.73,192.09,248.72,192.45"/>
		<path class="st1" d="M280.74,166.23v-6.61h0.96l2.29,5.74l2.28-5.74h0.96v6.61h-0.62v-5.84l-2.33,5.84h-0.58l-2.32-5.84v5.84
			H280.74 M288.93,160.26v5.97h-0.64v-6.61h1.77c0.4,0,0.71,0.02,0.94,0.08c0.25,0.05,0.46,0.15,0.65,0.29
			c0.26,0.19,0.48,0.43,0.62,0.74c0.15,0.31,0.24,0.63,0.24,0.98c0,0.51-0.16,0.96-0.47,1.32c-0.3,0.37-0.67,0.57-1.13,0.6l1.6,2.59
			h-0.77l-1.96-3.19h0.62c0.42,0,0.76-0.12,1.02-0.36c0.26-0.25,0.39-0.57,0.39-0.95c0-0.24-0.04-0.44-0.12-0.64
			c-0.08-0.19-0.19-0.35-0.35-0.49c-0.13-0.12-0.29-0.21-0.48-0.25c-0.18-0.05-0.51-0.08-0.97-0.08H288.93z"/>
	</g>
</g>
</svg>
