<?xml version="1.0" encoding="UTF-8" standalone="no"?>
<!DOCTYPE svg PUBLIC "-//W3C//DTD SVG 1.1//EN" "http://www.w3.org/Graphics/SVG/1.1/DTD/svg11.dtd">
<svg width="100%" height="100%" viewBox="0 0 2625 3030" version="1.1" xmlns="http://www.w3.org/2000/svg" xmlns:xlink="http://www.w3.org/1999/xlink" xml:space="preserve" xmlns:serif="http://www.serif.com/" style="fill-rule:evenodd;clip-rule:evenodd;stroke-linejoin:round;stroke-miterlimit:2;">
    <g transform="matrix(4.16667,0,0,4.16667,0,0)">
        <rect x="0" y="0" width="629.97" height="727.2" style="fill:rgb(255,89,0);"/>
        <g>
            <g>
                <path d="M442.73,340.4L357.65,100.97L402.43,100.97L402.43,59.98L218.43,59.98L218.43,100.97L263.21,100.97L178.14,340.4L149.27,340.4L149.27,381.39L261.76,381.39L261.76,340.4L222.41,340.4L244.89,272.96L375.98,272.96L398.46,340.4L359.11,340.4L359.11,381.39L471.6,381.39L471.6,340.4L442.73,340.4ZM256.89,237.58L303.52,100.97L317.35,100.97L363.98,237.58L256.89,237.58Z" style="fill:white;fill-rule:nonzero;"/>
                <path d="M456.69,320.63L385.66,120.74L422.2,120.74L422.2,40.21L198.67,40.21L198.67,120.74L235.21,120.74L164.18,320.63L129.5,320.63L129.5,401.16L281.54,401.16L281.54,320.63L249.85,320.63L259.15,292.73L361.74,292.73L371.04,320.63L339.35,320.63L339.35,401.16L491.39,401.16L491.39,320.63L456.69,320.63ZM471.61,381.39L359.11,381.39L359.11,340.4L398.46,340.4L375.98,272.96L244.89,272.96L222.41,340.4L261.76,340.4L261.76,381.39L149.27,381.39L149.27,340.4L178.14,340.4L263.22,100.97L218.44,100.97L218.44,59.98L402.44,59.98L402.44,100.97L357.66,100.97L442.74,340.4L471.61,340.4L471.61,381.39Z" style="fill:rgb(35,31,32);fill-rule:nonzero;"/>
                <path d="M317.35,100.97L303.52,100.97L256.89,237.58L363.98,237.58L317.35,100.97ZM284.53,217.81L310.44,141.91L336.35,217.81L284.53,217.81Z" style="fill:rgb(35,31,32);fill-rule:nonzero;"/>
            </g>
            <g>
                <g>
                    <path d="M105.73,561.92L88.13,512.38L97.3,512.38L97.3,498.68L51.34,498.68L51.34,512.38L60.51,512.38L42.91,561.92L35.74,561.92L35.74,575.62L65.57,575.62L65.57,561.92L57.56,561.92L61.14,551.17L87.49,551.17L91.07,561.92L83.06,561.92L83.06,575.62L112.89,575.62L112.89,561.92L105.73,561.92ZM65.36,538.74L74.32,512.49L83.28,538.74L65.36,538.74Z" style="fill:white;fill-rule:nonzero;"/>
                    <path d="M510.52,561.92L492.92,512.38L502.09,512.38L502.09,498.68L456.14,498.68L456.14,512.38L465.31,512.38L447.71,561.92L440.54,561.92L440.54,575.62L470.37,575.62L470.37,561.92L462.36,561.92L465.94,551.17L492.29,551.17L495.87,561.92L487.86,561.92L487.86,575.62L517.69,575.62L517.69,561.92L510.52,561.92ZM470.16,538.74L479.12,512.49L488.08,538.74L470.16,538.74Z" style="fill:white;fill-rule:nonzero;"/>
                    <path d="M120.08,561.82L127.67,561.82L127.67,512.39L120.08,512.39L120.08,498.69L143.48,498.69L177,551.18L177,512.39L169.09,512.39L169.09,498.69L198.71,498.69L198.71,512.39L191.12,512.39L191.12,575.63L176.57,575.63L142,521.34L142,561.81L149.91,561.81L149.91,575.62L120.08,575.62L120.08,561.82Z" style="fill:white;fill-rule:nonzero;"/>
                    <path d="M282.63,561.82L290.22,561.82L290.22,512.39L282.63,512.39L282.63,498.69L312.88,498.69L312.88,512.39L304.97,512.39L304.97,529.99L334.9,529.99L334.9,512.39L326.99,512.39L326.99,498.69L357.13,498.69L357.13,512.39L349.54,512.39L349.54,561.82L357.13,561.82L357.13,575.63L326.99,575.63L326.99,561.82L334.9,561.82L334.9,543.49L304.97,543.49L304.97,561.82L312.88,561.82L312.88,575.63L282.63,575.63L282.63,561.82Z" style="fill:white;fill-rule:nonzero;"/>
                    <path d="M371.71,545.8L371.71,512.39L364.33,512.39L364.33,498.69L394.69,498.69L394.69,512.39L386.78,512.39L386.78,546.02C386.78,555.61 393,562.25 402.38,562.25C411.76,562.25 418.08,555.82 418.08,546.02L418.08,512.39L410.28,512.39L410.28,498.69L440.53,498.69L440.53,512.39L433.15,512.39L433.15,545.8C433.15,565.72 421.24,576.68 402.37,576.68C383.41,576.68 371.71,565.3 371.71,545.8Z" style="fill:white;fill-rule:nonzero;"/>
                    <path d="M519.5,537.16C519.5,514.71 536.36,497.63 556.92,497.63C567.88,497.63 575.15,501.74 578.21,509.43L578.21,498.68L592.23,498.68L592.23,526.82L578.63,526.82C576.31,517.34 569.78,512.06 558.29,512.06C544.48,512.06 534.79,523.13 534.79,537.15C534.79,550.74 544.8,561.81 558.82,561.81C569.36,561.81 576.84,556.02 580.64,547.69L594.24,554.96C587.71,567.82 575.06,576.67 558.93,576.67C535.73,576.68 519.5,558.97 519.5,537.16Z" style="fill:white;fill-rule:nonzero;"/>
                    <g>
                        <path d="M268.28,561.92L250.68,512.38L259.85,512.38L259.85,498.68L213.9,498.68L213.9,512.38L223.07,512.38L205.47,561.92L198.3,561.92L198.3,575.62L228.13,575.62L228.13,561.92L220.12,561.92L223.7,551.17L250.05,551.17L253.63,561.92L245.62,561.92L245.62,575.62L275.45,575.62L275.45,561.92L268.28,561.92ZM227.92,538.74L236.88,512.49L245.84,538.74L227.92,538.74Z" style="fill:white;fill-rule:nonzero;"/>
                        <path d="M227.86,491.48L240.14,471.77L259.17,471.77L241.72,491.48L227.86,491.48Z" style="fill:white;fill-rule:nonzero;"/>
                    </g>
                </g>
            </g>
            <g>
                <path d="M94.81,673.15L102.42,673.15L102.42,623.58L94.81,623.58L94.81,609.84L117.53,609.84L140.04,643.24L162.87,609.84L185.06,609.84L185.06,623.58L177.45,623.58L177.45,673.15L185.06,673.15L185.06,687L154.3,687L154.3,673.15L162.97,673.15L162.97,632.46L139.72,666.6L117,632.99L117,673.15L125.67,673.15L125.67,687L94.81,687L94.81,673.15Z" style="fill:white;fill-rule:nonzero;"/>
                <path d="M193.09,673.15L200.8,673.15L200.8,623.58L193.09,623.58L193.09,609.84L254.81,609.84L254.81,634.47L240.54,634.47L240.54,623.48L215.49,623.48L215.49,641.02L236.63,641.02L236.63,654.86L215.49,654.86L215.49,673.14L240.54,673.14L240.54,661.94L254.81,661.94L254.81,687L193.09,687L193.09,673.15ZM231.66,585.54L246.56,585.54L230.6,603.61L219.61,603.61L231.66,585.54Z" style="fill:white;fill-rule:nonzero;"/>
                <path d="M263.57,673.15L271.18,673.15L271.18,623.58L263.57,623.58L263.57,609.84L302.78,609.84C320.85,609.84 330.89,619.67 330.89,633.83C330.89,644.61 324.65,652.32 314.93,655.6L324.65,673.14L333.53,673.14L333.53,687L315.46,687L300.24,657.83L285.34,657.83L285.34,673.15L293.69,673.15L293.69,687L263.57,687L263.57,673.15ZM285.34,623.58L285.34,644.82L301.51,644.82C311.34,644.82 315.67,640.49 315.67,633.94C315.67,626.96 311.34,623.58 301.61,623.58L285.34,623.58Z" style="fill:white;fill-rule:nonzero;"/>
                <path d="M340.82,673.15L350.75,673.15L350.75,623.58L340.82,623.58L340.82,609.84L375.7,609.84L375.7,623.58L365.77,623.58L365.77,673.15L375.7,673.15L375.7,687L340.82,687L340.82,673.15Z" style="fill:white;fill-rule:nonzero;"/>
                <path d="M383.72,673.15L391.33,673.15L391.33,623.58L383.72,623.58L383.72,609.84L415.95,609.84C440.57,609.84 455.9,626.22 455.9,648.1C455.9,670.19 439.2,686.99 415.95,686.99L383.72,686.99L383.72,673.15ZM406.23,623.48L406.23,673.15L415.32,673.15C431.17,673.15 440.68,662.26 440.68,648.1C440.68,633.73 431.91,623.48 415,623.48L406.23,623.48Z" style="fill:white;fill-rule:nonzero;"/>
                <path d="M457.58,673.26L464.77,673.26L482.42,623.59L473.22,623.59L473.22,609.85L519.19,609.85L519.19,623.59L510.21,623.59L527.86,673.26L535.15,673.26L535.15,687L505.24,687L505.24,673.26L513.06,673.26L509.47,662.48L483.05,662.48L479.46,673.26L487.49,673.26L487.49,687L457.58,687L457.58,673.26ZM505.25,650.01L496.27,623.69L487.29,650.01L505.25,650.01Z" style="fill:white;fill-rule:nonzero;"/>
            </g>
        </g>
    </g>
</svg>
