<?xml version="1.0" encoding="UTF-8" standalone="no"?>
<!DOCTYPE svg PUBLIC "-//W3C//DTD SVG 1.1//EN" "http://www.w3.org/Graphics/SVG/1.1/DTD/svg11.dtd">
<svg width="100%" height="100%" viewBox="0 0 1751 2880" version="1.1" xmlns="http://www.w3.org/2000/svg" xmlns:xlink="http://www.w3.org/1999/xlink" xml:space="preserve" xmlns:serif="http://www.serif.com/" style="fill-rule:evenodd;clip-rule:evenodd;stroke-linejoin:round;stroke-miterlimit:2;">
    <g transform="matrix(4.16667,0,0,4.16667,0,0)">
        <g>
            <g>
                <g>
                    <g>
                        <g>
                            <clipPath id="_clip1">
                                <path d="M306.59,10.1L306.59,10.1M250.49,45.3C253.39,45.6 256.19,46.2 259.09,46.5C260.49,46.7 261.89,46.9 263.29,47.3L267.39,48.3C270.29,48.9 272.49,49.8 274.89,50.6L278.49,51.8L288.09,55.8L288.49,56C288.29,55.9 288.09,55.8 287.69,55.7L287.89,55.8L288.79,56.3L290.69,57.3C293.19,58.7 295.69,60 297.99,61.6L301.49,63.9C302.59,64.7 303.69,65.6 304.69,66.4C313.29,73 320.39,80.7 325.39,89.3C330.29,97.9 333.69,107.3 334.59,117.4C335.69,127.4 334.89,137.9 332.39,148.3C329.89,158.7 325.79,168.9 320.09,178.2C314.49,187.6 307.59,196.3 299.69,203.8C291.79,211.3 291.79,211.3 273.49,222.4C255.19,233.5 248.69,261.4 273.49,277.3C298.29,293.2 297.59,293.8 305.59,304.8C313.59,315.8 318.59,328.7 320.19,342.6C321.79,356.4 320.39,371.1 315.79,385.4C313.59,392.5 310.59,399.5 306.99,406.3L304.19,411.3L301.09,416.2L298.19,420.5C297.79,421.1 296.99,422.2 296.29,423.1L294.19,425.9L291.99,428.7L290.09,431L286.39,435.7C285.19,437.3 283.89,438.8 282.49,440.2L278.49,444.5L276.49,446.7C275.79,447.4 275.09,448 274.29,448.7L269.89,452.7C267.09,455.5 263.79,457.7 260.69,460.1C247.99,469.5 233.89,477.2 218.49,482.8C203.09,488.5 186.59,492.2 169.59,494.5C165.39,495.2 161.09,495.5 156.69,495.9C152.39,496.4 148.09,496.6 143.69,496.7L137.19,497C137.19,497 154.79,552.1 159.89,551.9C165.09,551.7 170.19,551.6 175.39,551C196.19,549.4 217.09,545.4 237.69,538.7C258.19,532 278.39,522.4 296.39,509.5C300.79,506.2 305.49,503.1 309.59,499.3L315.89,493.8C316.89,492.9 317.99,492 318.99,491L321.89,488L327.69,482.1C329.69,480.1 331.59,478.1 333.29,475.9L338.59,469.5L341.19,466.3L345.59,460.7C346.29,459.7 346.99,458.9 347.89,457.6C349.59,455.2 351.49,452.7 353.09,450.2L357.59,443L361.79,435.6C367.19,425.6 371.79,415.1 375.39,404.1C382.49,382.2 385.59,358.3 382.59,334.4C379.69,310.5 370.49,286.9 355.89,267.3C351.09,260.7 345.69,254.6 339.89,249C340.59,248.3 341.29,247.6 341.99,246.9C353.89,235.2 363.79,221.6 371.69,207C379.69,192.4 385.49,176.6 388.79,160C392.19,143.4 392.59,126 389.69,108.7C386.99,91.4 380.09,74.6 370.39,59.9C360.69,45.1 347.59,33.2 333.69,24.1C331.89,23 330.19,21.8 328.49,20.7L323.09,17.7C319.49,15.6 315.79,13.9 312.19,12.3L309.39,11L307.99,10.4L307.69,10.2C306.19,9.6 306.19,9.6 306.29,9.6L306.09,9.6L305.49,9.4L295.69,6C293.69,5.4 291.49,4.8 289.29,4.3C284.99,3.2 280.59,2 276.69,1.6L270.69,0.7C268.69,0.4 266.69,0.1 264.69,0C260.99,0.3 250.49,45.3 250.49,45.3"/>
                            </clipPath>
                            <g clip-path="url(#_clip1)">
                                <rect x="137.29" y="0.3" width="255.7" height="551.9" style="fill:url(#_Linear2);"/>
                            </g>
                        </g>
                    </g>
                </g>
                <g>
                    <path d="M258.99,349.9C239.99,347.5 221.09,346.1 202.29,346C183.49,345.8 164.79,346.7 146.49,349.3C128.29,351.8 110.49,356.1 94.59,363C78.69,369.8 64.79,379.4 55.69,391.7C51.09,397.8 47.59,404.6 45.19,411.7C44.69,413.5 43.89,415.4 43.49,417L42.59,420.4C42.29,421.5 41.89,422.8 41.89,423.5C41.69,425.2 41.29,426.5 41.09,428.4C40.89,430.2 40.69,432 40.69,433.7C40.49,440.6 41.59,446.9 44.29,452.4C46.69,458 50.59,463 55.69,467.7C65.89,477 80.59,484 96.29,488.9C104.19,491.4 112.39,493.2 120.69,494.6C124.79,495.3 128.99,495.8 133.19,496.3L136.29,496.6L137.89,496.7L138.69,496.8C136.29,496.6 138.19,496.7 137.69,496.7L138.29,496.7L152.49,497.3L165.29,497.3L171.79,497C176.19,496.8 180.49,496.6 184.79,496.2C189.09,495.8 193.39,495.5 197.69,494.8C214.69,492.5 231.19,488.9 246.59,483.1C261.99,477.4 276.09,469.8 288.79,460.4C291.89,457.9 295.19,455.8 297.99,453L302.39,449C303.09,448.3 303.89,447.7 304.59,447L306.59,444.8L310.69,440.5C312.09,439.1 313.39,437.6 314.59,436L318.29,431.3L320.19,429L322.39,426.2L324.49,423.4C325.19,422.5 325.99,421.4 326.39,420.8L329.29,416.5L332.39,411.6L335.19,406.6C338.79,399.8 341.79,392.8 343.99,385.7C348.49,371.5 349.99,356.8 348.39,342.9C346.79,329 341.79,316.1 333.79,305.1C325.79,294.1 326.49,293.5 301.69,277.6C276.89,261.7 283.39,233.8 301.69,222.7C319.99,211.6 319.99,211.6 327.89,204.1C335.79,196.6 342.69,187.9 348.29,178.5C353.99,169.1 358.09,158.9 360.59,148.6C363.09,138.2 363.89,127.8 362.79,117.7C361.79,107.6 358.49,98.2 353.49,89.6C348.49,81 341.49,73.3 332.89,66.7C331.79,65.9 330.79,65 329.59,64.2L326.09,61.9C323.79,60.3 321.29,59 318.79,57.6L316.89,56.6L315.99,56.1L315.79,56C318.29,57 316.39,56.3 316.89,56.5L316.79,56.4L316.19,56.2L306.59,52.2L302.99,51C300.59,50.2 298.49,49.3 295.49,48.7L291.39,47.7C289.99,47.3 288.59,47 287.19,46.9C284.39,46.5 281.49,45.9 278.59,45.7L269.79,45C246.09,44.4 221.19,49.3 197.49,58.8C185.59,63.5 173.99,69.2 162.79,75.7C151.69,82.4 140.89,89.8 130.69,98C120.49,106.2 110.99,115.3 102.19,125.2C93.49,135.1 85.19,145.5 78.49,157C71.69,168.4 66.09,180.5 61.99,193.4C57.89,206.2 55.79,219.8 55.69,233.7C52.69,220.1 52.39,205.9 54.09,191.8C55.69,177.7 59.59,163.7 64.89,150.4C70.19,137 77.09,124.3 85.19,112.3C93.29,100.3 102.09,88.8 112.29,78.4C122.39,67.9 133.19,58.1 144.79,49.2C156.49,40.4 168.89,32.5 182.09,25.5C195.19,18.5 209.19,12.9 223.69,8.5C238.29,4.1 253.49,1.2 269.29,0.4L281.19,0.3C285.19,0.3 289.19,0.8 293.19,1C295.19,1.1 297.19,1.3 299.19,1.7L305.19,2.6C309.09,3.1 313.49,4.3 317.79,5.3C319.89,5.9 322.19,6.4 324.19,7L333.99,10.4L334.59,10.6L334.79,10.6C335.39,10.9 333.59,10.1 336.19,11.2L336.49,11.4L337.89,12L340.69,13.3C344.39,15 348.09,16.6 351.59,18.7L356.99,21.7C358.79,22.7 360.49,23.9 362.29,25.1C376.19,34.3 389.29,46.2 398.99,61C408.69,75.7 415.59,92.5 418.29,109.8C421.19,127.1 420.79,144.6 417.39,161.1C414.19,177.7 408.29,193.5 400.29,208.1C392.39,222.7 382.49,236.3 370.59,248C358.79,259.8 345.19,270 330.29,278L330.29,223.1C340.49,228.4 350.49,234.7 359.69,242.3C368.89,249.9 377.29,258.7 384.49,268.5C398.99,288.1 408.29,311.7 411.19,335.6C414.19,359.5 411.09,383.5 403.99,405.3C400.39,416.3 395.89,426.8 390.39,436.8L386.19,444.2L381.69,451.3C380.09,453.7 378.19,456.2 376.49,458.7C375.49,460.1 374.89,460.8 374.09,461.8L369.69,467.4L367.09,470.6L361.79,477C360.09,479.2 358.19,481.2 356.19,483.1L350.39,489L347.49,492C346.49,492.9 345.39,493.8 344.39,494.8L338.09,500.3C333.99,504.1 329.29,507.1 324.89,510.5C306.79,523.4 286.69,533 266.19,539.7C245.59,546.4 224.69,550.3 203.89,551.9C198.69,552.4 193.49,552.6 188.39,552.8C183.19,553.1 178.09,553 172.89,553L165.19,552.9L149.39,552.1L135.19,550.9L133.09,550.7L132.09,550.5L130.09,550.2L126.19,549.6C120.99,548.7 115.79,547.7 110.59,546.4C100.29,544 90.09,540.9 79.99,537C59.99,529.2 39.99,518.4 23.39,500.5C15.19,491.5 8.09,480.6 4.09,468.3C-0.11,456 -0.81,442.9 0.79,430.9C1.09,427.9 1.79,425 2.39,422.1C2.89,419.3 3.99,416.1 4.79,413.1C5.29,411.5 5.69,410.5 6.09,409.3L7.39,406C8.49,403.1 9.69,400.7 10.79,398C15.69,387.7 22.19,378 30.09,369.8C37.99,361.6 46.99,354.7 56.49,349.5C65.99,344.3 75.99,340.4 85.99,337.6C105.89,331.8 126.09,330.2 145.79,330.2C165.49,330.4 184.89,332.5 203.89,336C213.39,337.7 222.79,339.9 232.09,342.3C240.79,343.9 249.99,346.7 258.99,349.9" style="fill:rgb(35,31,32);fill-rule:nonzero;"/>
                    <path d="M219.49,75.5C219.49,75.5 219.89,76.5 220.39,78.3C220.69,79.2 220.99,80.3 221.39,81.7C221.49,82.4 221.69,83.1 221.89,83.9C221.99,84.7 222.19,85.5 222.39,86.4C222.59,87.3 222.79,88.3 222.89,89.2C222.99,90.2 223.19,91.2 223.29,92.3C223.59,94.5 223.79,96.8 223.89,99.3C224.19,104.3 224.19,109.9 223.89,116C223.89,117.5 223.69,119.1 223.59,120.6C223.49,122.2 223.29,123.8 223.19,125.4C222.99,127 222.79,128.6 222.59,130.3C222.39,132 222.19,133.6 221.89,135.3C221.39,138.7 220.79,142.2 220.19,145.7C219.59,149.2 218.79,152.8 217.99,156.4C217.19,160 216.29,163.6 215.29,167.3C214.79,169.1 214.29,170.9 213.79,172.8C213.29,174.6 212.69,176.5 212.19,178.3C209.99,185.7 207.49,193 204.89,200.3C202.29,207.6 199.49,214.7 196.59,221.7C193.69,228.7 190.69,235.4 187.69,241.9C184.69,248.4 181.59,254.6 178.69,260.5C177.19,263.4 175.79,266.3 174.29,269C172.89,271.7 171.49,274.4 170.09,276.9C167.39,282 164.79,286.6 162.49,290.8C160.19,295 158.19,298.6 156.49,301.6C155.69,303.1 154.89,304.5 154.19,305.7C153.59,306.9 152.99,307.9 152.59,308.8C151.69,310.5 151.09,311.4 151.09,311.4C151.09,311.4 150.79,310.4 150.39,308.5C150.19,307.5 149.89,306.4 149.69,305C149.49,303.6 149.19,302 148.99,300.2C148.69,298.4 148.59,296.4 148.49,294.3C148.29,292.1 148.29,289.8 148.29,287.3C148.19,282.3 148.39,276.8 148.99,270.7C149.29,267.7 149.59,264.6 149.99,261.4C150.39,258.2 150.89,254.9 151.49,251.6C152.69,244.9 154.09,237.9 155.89,230.8C157.69,223.7 159.69,216.4 161.89,209.1C164.19,201.8 166.59,194.5 169.19,187.3C171.79,180.1 174.59,173 177.39,166C180.19,159 183.09,152.3 185.99,145.8C186.69,144.2 187.49,142.6 188.19,141C188.89,139.4 189.59,137.8 190.29,136.3C190.69,135.5 190.99,134.7 191.39,134C191.79,133.2 192.09,132.5 192.49,131.7C193.19,130.2 193.89,128.7 194.59,127.2C195.99,124.2 197.29,121.4 198.69,118.6C199.99,115.8 201.29,113.2 202.59,110.6C205.09,105.4 207.39,100.7 209.49,96.5C209.99,95.4 210.49,94.4 210.99,93.4C211.49,92.4 211.89,91.4 212.39,90.5C213.19,88.7 214.19,86.9 214.79,85.4C215.19,84.6 215.49,83.9 215.79,83.2C216.09,82.5 216.49,81.8 216.79,81.2C217.29,79.9 217.79,78.8 218.19,78C218.99,76.4 219.49,75.5 219.49,75.5" style="fill:rgb(35,31,32);fill-rule:nonzero;"/>
                </g>
            </g>
            <g>
                <path d="M28.59,621.5C30.19,622.8 30.99,624.5 30.99,626.7C30.99,627.5 30.89,628.3 30.69,628.9C30.49,629.6 30.19,630.1 29.79,630.6C29.39,631.1 28.99,631.5 28.59,631.9C28.09,632.3 27.59,632.6 27.09,632.8C27.89,633.1 28.59,633.4 29.29,633.8C29.99,634.2 30.49,634.6 30.99,635.2C31.49,635.7 31.89,636.3 32.09,637.1C32.39,637.8 32.49,638.7 32.49,639.6C32.49,640.8 32.29,641.9 31.79,642.9C31.29,643.8 30.59,644.6 29.69,645.3C28.79,645.9 27.69,646.4 26.49,646.8C25.19,647.1 23.89,647.3 22.29,647.3L9.59,647.3L9.59,619.8L21.89,619.8C24.79,619.6 26.99,620.2 28.59,621.5ZM24.79,630.3C25.69,629.7 26.19,628.7 26.19,627.4C26.19,626.3 25.79,625.4 24.99,624.8C24.19,624.2 22.99,623.9 21.39,623.9L14.49,623.9L14.49,631.3L21.09,631.3C22.59,631.2 23.89,630.9 24.79,630.3ZM26.39,641.9C27.29,641.3 27.79,640.3 27.79,639.1C27.79,637.9 27.29,637 26.39,636.3C25.49,635.6 24.09,635.3 22.09,635.3L14.49,635.3L14.49,642.8L22.49,642.8C24.09,642.8 25.39,642.5 26.39,641.9Z" style="fill:rgb(35,31,32);fill-rule:nonzero;"/>
                <path d="M58.39,624L42.79,624L42.79,631.1L56.59,631.1L56.59,635.5L42.79,635.5L42.79,642.9L58.59,642.9L58.59,647.3L37.99,647.3L37.99,619.8L58.39,619.8L58.39,624Z" style="fill:rgb(35,31,32);fill-rule:nonzero;"/>
                <rect x="76.49" y="619.6" width="4.8" height="27.5" style="fill:rgb(35,31,32);fill-rule:nonzero;"/>
                <path d="M107.89,619.6L112.69,619.6L112.69,647.1L108.69,647.1L93.49,627.5L93.49,647.1L88.69,647.1L88.69,619.6L93.19,619.6L107.89,638.6L107.89,619.6Z" style="fill:rgb(35,31,32);fill-rule:nonzero;"/>
                <path d="M131.39,647.1L126.49,647.1L126.49,624.1L117.79,624.1L117.79,619.6L140.09,619.6L140.09,624.1L131.39,624.1L131.39,647.1Z" style="fill:rgb(35,31,32);fill-rule:nonzero;"/>
                <path d="M165.59,624L149.99,624L149.99,631.1L163.79,631.1L163.79,635.5L149.99,635.5L149.99,642.9L165.79,642.9L165.79,647.3L145.19,647.3L145.19,619.8L165.59,619.8L165.59,624Z" style="fill:rgb(35,31,32);fill-rule:nonzero;"/>
                <path d="M189.19,647.1L182.39,637.5L176.29,637.5L176.29,647.1L171.49,647.1L171.49,619.6L183.79,619.6C185.39,619.6 186.79,619.8 188.09,620.2C189.39,620.6 190.39,621.2 191.29,621.9C192.19,622.6 192.89,623.6 193.29,624.7C193.79,625.8 193.99,627 193.99,628.3C193.99,629.5 193.79,630.5 193.49,631.4C193.19,632.3 192.69,633.1 192.09,633.8C191.49,634.5 190.79,635.1 189.99,635.6C189.19,636.1 188.29,636.5 187.29,636.7L194.69,647.1L189.19,647.1ZM187.59,625.1C186.59,624.3 185.19,623.9 183.39,623.9L176.29,623.9L176.29,633.2L183.39,633.2C185.09,633.2 186.49,632.8 187.49,631.9C188.49,631.1 188.99,629.9 188.99,628.5C189.09,627.1 188.59,625.9 187.59,625.1Z" style="fill:rgb(35,31,32);fill-rule:nonzero;"/>
                <path d="M219.19,619.6L223.99,619.6L223.99,647.1L219.99,647.1L204.79,627.5L204.79,647.1L199.99,647.1L199.99,619.6L204.49,619.6L219.19,638.6L219.19,619.6Z" style="fill:rgb(35,31,32);fill-rule:nonzero;"/>
                <path d="M257.39,647.1L252.29,647.1L249.49,640.5L236.49,640.5L233.69,647.1L228.69,647.1L240.79,619.4L245.29,619.4L257.39,647.1ZM242.89,625.2L238.19,636.2L247.69,636.2L242.89,625.2Z" style="fill:rgb(35,31,32);fill-rule:nonzero;"/>
                <path d="M270.69,647.1L265.79,647.1L265.79,624.1L257.09,624.1L257.09,619.6L279.39,619.6L279.39,624.1L270.69,624.1L270.69,647.1Z" style="fill:rgb(35,31,32);fill-rule:nonzero;"/>
                <rect x="284.79" y="619.6" width="4.8" height="27.5" style="fill:rgb(35,31,32);fill-rule:nonzero;"/>
                <path d="M323.49,638.8C322.79,640.5 321.79,642 320.49,643.3C319.19,644.6 317.69,645.6 315.89,646.4C314.09,647.2 312.19,647.5 310.09,647.5C307.99,647.5 305.99,647.1 304.29,646.4C302.49,645.7 300.99,644.6 299.79,643.4C298.49,642.1 297.59,640.6 296.89,638.9C296.19,637.2 295.79,635.3 295.79,633.4C295.79,631.5 296.19,629.6 296.89,627.9C297.59,626.2 298.59,624.7 299.89,623.4C301.19,622.1 302.69,621.1 304.49,620.3C306.29,619.5 308.19,619.2 310.29,619.2C312.39,619.2 314.39,619.6 316.09,620.3C317.89,621 319.39,622.1 320.59,623.3C321.89,624.6 322.79,626.1 323.49,627.8C324.19,629.5 324.59,631.4 324.59,633.3C324.59,635.2 324.19,637.1 323.49,638.8ZM318.79,629.6C318.29,628.4 317.69,627.4 316.89,626.5C316.09,625.6 315.09,624.9 313.89,624.4C312.69,623.9 311.49,623.6 310.09,623.6C308.69,623.6 307.49,623.9 306.29,624.4C305.19,624.9 304.19,625.6 303.39,626.5C302.59,627.4 301.99,628.4 301.49,629.6C300.99,630.8 300.79,632.1 300.79,633.4C300.79,634.7 300.99,636 301.49,637.2C301.99,638.4 302.59,639.4 303.39,640.3C304.19,641.2 305.19,641.9 306.39,642.4C307.59,642.9 308.79,643.2 310.19,643.2C311.59,643.2 312.79,642.9 313.99,642.4C315.09,641.9 316.09,641.2 316.89,640.3C317.69,639.4 318.29,638.4 318.79,637.2C319.29,636 319.49,634.7 319.49,633.4C319.49,632.1 319.29,630.8 318.79,629.6Z" style="fill:rgb(35,31,32);fill-rule:nonzero;"/>
                <path d="M349.59,619.6L354.39,619.6L354.39,647.1L350.39,647.1L335.19,627.5L335.19,647.1L330.39,647.1L330.39,619.6L334.89,619.6L349.59,638.6L349.59,619.6Z" style="fill:rgb(35,31,32);fill-rule:nonzero;"/>
                <path d="M387.79,647.1L382.69,647.1L379.89,640.5L366.89,640.5L364.09,647.1L359.09,647.1L371.19,619.4L375.69,619.4L387.79,647.1ZM373.39,625.2L368.69,636.2L378.19,636.2L373.39,625.2Z" style="fill:rgb(35,31,32);fill-rule:nonzero;"/>
                <path d="M392.49,619.6L397.29,619.6L397.29,642.8L411.79,642.8L411.79,647.2L392.49,647.2L392.49,619.6Z" style="fill:rgb(35,31,32);fill-rule:nonzero;"/>
            </g>
            <g>
                <path d="M20.09,673.6C20.79,673.8 21.39,674.1 21.89,674.5C22.39,674.9 22.79,675.3 22.99,675.9C23.29,676.4 23.39,677 23.39,677.7C23.39,678.3 23.29,678.8 23.19,679.2C22.99,679.6 22.79,680 22.59,680.3C22.29,680.6 21.99,680.9 21.69,681.1C21.39,681.3 20.99,681.5 20.69,681.7C21.19,681.8 21.69,682 22.19,682.3C22.69,682.5 23.09,682.8 23.39,683.2C23.69,683.5 23.99,683.9 24.19,684.4C24.39,684.9 24.49,685.4 24.49,686C24.49,686.7 24.39,687.4 24.09,688C23.79,688.6 23.39,689.1 22.79,689.5C22.19,689.9 21.59,690.2 20.79,690.4C19.99,690.6 19.19,690.7 18.19,690.7L10.39,690.7L10.39,673.2L17.79,673.2C18.59,673.3 19.39,673.4 20.09,673.6ZM20.29,680.3C20.99,679.8 21.39,679 21.39,677.9C21.39,677 21.09,676.3 20.39,675.8C19.69,675.3 18.79,675 17.49,675L12.19,675L12.19,681L17.39,681C18.59,681.1 19.59,680.8 20.29,680.3ZM21.29,688.2C22.09,687.6 22.39,686.9 22.39,685.9C22.39,684.9 21.99,684.2 21.19,683.7C20.39,683.2 19.29,682.9 17.69,682.9L12.19,682.9L12.19,689.1L18.09,689.1C19.49,689.1 20.49,688.8 21.29,688.2Z" style="fill:rgb(189,190,192);fill-rule:nonzero;"/>
                <path d="M40.99,675.1L30.29,675.1L30.29,681.1L39.79,681.1L39.79,682.9L30.29,682.9L30.29,689L41.09,689L41.09,690.8L28.29,690.8L28.29,673.3L40.89,673.3L40.89,675.1L40.99,675.1Z" style="fill:rgb(189,190,192);fill-rule:nonzero;"/>
                <rect x="45.19" y="673.3" width="2" height="17.5" style="fill:rgb(189,190,192);fill-rule:nonzero;"/>
                <path d="M65.19,673.3L67.09,673.3L67.09,690.8L65.49,690.8L54.29,676.5L54.29,690.8L52.39,690.8L52.39,673.3L54.19,673.3L65.19,687.3L65.19,673.3Z" style="fill:rgb(189,190,192);fill-rule:nonzero;"/>
                <path d="M78.69,690.8L76.69,690.8L76.69,675.1L70.79,675.1L70.79,673.3L84.49,673.3L84.49,675.1L78.59,675.1L78.69,690.8Z" style="fill:rgb(189,190,192);fill-rule:nonzero;"/>
                <path d="M100.89,675.1L90.19,675.1L90.19,681.1L99.69,681.1L99.69,682.9L90.19,682.9L90.19,689L100.99,689L100.99,690.8L88.19,690.8L88.19,673.3L100.79,673.3L100.89,675.1Z" style="fill:rgb(189,190,192);fill-rule:nonzero;"/>
                <path d="M116.99,690.8L111.89,684L106.89,684L106.89,690.8L104.89,690.8L104.89,673.3L112.39,673.3C113.39,673.3 114.19,673.4 114.99,673.7C115.79,673.9 116.39,674.3 116.99,674.8C117.49,675.3 117.99,675.8 118.29,676.5C118.59,677.1 118.69,677.9 118.69,678.6C118.69,679.3 118.59,680 118.39,680.6C118.19,681.2 117.79,681.7 117.39,682.1C116.99,682.5 116.49,682.9 115.89,683.2C115.29,683.5 114.69,683.7 113.99,683.8L119.39,690.9L116.99,690.8ZM115.69,676.1C114.89,675.5 113.79,675.2 112.39,675.2L106.99,675.2L106.99,682.3L112.39,682.3C113.09,682.3 113.69,682.2 114.19,682.1C114.79,681.9 115.19,681.7 115.59,681.4C115.99,681.1 116.29,680.7 116.49,680.3C116.69,679.8 116.79,679.3 116.79,678.8C116.79,677.5 116.39,676.7 115.69,676.1Z" style="fill:rgb(189,190,192);fill-rule:nonzero;"/>
                <path d="M135.89,673.3L137.79,673.3L137.79,690.8L136.19,690.8L124.99,676.5L124.99,690.8L123.09,690.8L123.09,673.3L124.89,673.3L135.89,687.3L135.89,673.3Z" style="fill:rgb(189,190,192);fill-rule:nonzero;"/>
                <path d="M158.99,690.8L156.89,690.8L154.89,686.2L145.39,686.2L143.29,690.8L141.29,690.8L149.29,673.2L151.09,673.2L158.99,690.8ZM150.09,675.5L146.09,684.4L154.09,684.4L150.09,675.5Z" style="fill:rgb(189,190,192);fill-rule:nonzero;"/>
                <path d="M167.19,690.8L165.19,690.8L165.19,675.1L159.29,675.1L159.29,673.3L172.99,673.3L172.99,675.1L167.09,675.1L167.19,690.8Z" style="fill:rgb(189,190,192);fill-rule:nonzero;"/>
                <rect x="176.89" y="673.3" width="2" height="17.5" style="fill:rgb(189,190,192);fill-rule:nonzero;"/>
                <path d="M200.39,685.5C199.99,686.6 199.39,687.6 198.59,688.4C197.79,689.2 196.89,689.9 195.79,690.4C194.69,690.9 193.49,691.1 192.19,691.1C190.89,691.1 189.69,690.9 188.59,690.4C187.49,689.9 186.59,689.3 185.79,688.4C184.99,687.6 184.39,686.6 183.99,685.5C183.59,684.4 183.39,683.3 183.39,682C183.39,680.8 183.59,679.6 183.99,678.5C184.39,677.4 184.99,676.4 185.79,675.6C186.59,674.8 187.49,674.1 188.59,673.6C189.69,673.1 190.89,672.9 192.19,672.9C193.49,672.9 194.69,673.1 195.79,673.6C196.89,674.1 197.79,674.7 198.59,675.6C199.39,676.4 199.99,677.4 200.39,678.5C200.79,679.6 200.99,680.7 200.99,682C201.09,683.3 200.89,684.4 200.39,685.5ZM198.49,679.3C198.19,678.4 197.69,677.7 197.09,677C196.49,676.4 195.79,675.8 194.89,675.5C194.09,675.1 193.09,674.9 192.09,674.9C191.09,674.9 190.19,675.1 189.29,675.5C188.49,675.9 187.69,676.4 187.09,677C186.49,677.6 185.99,678.4 185.69,679.3C185.39,680.2 185.19,681.1 185.19,682.1C185.19,683.1 185.39,684 185.69,684.9C185.99,685.8 186.49,686.5 187.09,687.2C187.69,687.8 188.39,688.4 189.29,688.7C190.09,689.1 191.09,689.3 192.09,689.3C193.09,689.3 193.99,689.1 194.89,688.7C195.69,688.3 196.49,687.8 197.09,687.2C197.69,686.5 198.19,685.8 198.49,684.9C198.79,684 198.99,683.1 198.99,682.1C198.99,681.1 198.89,680.1 198.49,679.3Z" style="fill:rgb(189,190,192);fill-rule:nonzero;"/>
                <path d="M218.09,673.3L219.99,673.3L219.99,690.8L218.39,690.8L207.19,676.5L207.19,690.8L205.29,690.8L205.29,673.3L207.09,673.3L218.09,687.3L218.09,673.3Z" style="fill:rgb(189,190,192);fill-rule:nonzero;"/>
                <path d="M241.19,690.8L239.09,690.8L237.09,686.2L227.59,686.2L225.49,690.8L223.49,690.8L231.49,673.2L233.29,673.2L241.19,690.8ZM232.29,675.5L228.29,684.4L236.29,684.4L232.29,675.5Z" style="fill:rgb(189,190,192);fill-rule:nonzero;"/>
                <path d="M244.69,673.3L246.69,673.3L246.69,689L256.49,689L256.49,690.8L244.69,690.8L244.69,673.3Z" style="fill:rgb(189,190,192);fill-rule:nonzero;"/>
                <path d="M269.89,673.6C270.59,673.8 271.19,674.1 271.69,674.5C272.19,674.9 272.59,675.3 272.79,675.9C272.99,676.5 273.19,677 273.19,677.7C273.19,678.3 273.09,678.8 272.99,679.2C272.79,679.6 272.59,680 272.39,680.3C272.09,680.6 271.79,680.9 271.49,681.1C271.19,681.3 270.79,681.5 270.49,681.7C270.99,681.8 271.49,682 271.99,682.3C272.49,682.5 272.89,682.8 273.19,683.2C273.49,683.5 273.79,683.9 273.99,684.4C274.19,684.9 274.29,685.4 274.29,686C274.29,686.7 274.19,687.4 273.89,688C273.59,688.6 273.19,689.1 272.59,689.5C271.99,689.9 271.39,690.2 270.59,690.4C269.79,690.6 268.99,690.7 267.99,690.7L260.19,690.7L260.19,673.2L267.59,673.2C268.39,673.3 269.19,673.4 269.89,673.6ZM270.19,680.3C270.89,679.8 271.29,679 271.29,677.9C271.29,677 270.99,676.3 270.29,675.8C269.59,675.3 268.69,675 267.39,675L262.09,675L262.09,681L267.29,681C268.49,681.1 269.39,680.8 270.19,680.3ZM271.09,688.2C271.89,687.6 272.19,686.9 272.19,685.9C272.19,684.9 271.79,684.2 270.99,683.7C270.19,683.2 269.09,682.9 267.49,682.9L261.99,682.9L261.99,689.1L267.89,689.1C269.29,689.1 270.29,688.8 271.09,688.2Z" style="fill:rgb(189,190,192);fill-rule:nonzero;"/>
                <path d="M290.79,675.1L280.09,675.1L280.09,681.1L289.59,681.1L289.59,682.9L280.09,682.9L280.09,689L290.89,689L290.89,690.8L278.09,690.8L278.09,673.3L290.79,673.3L290.79,675.1Z" style="fill:rgb(189,190,192);fill-rule:nonzero;"/>
                <path d="M308.49,689.3C307.99,689.7 307.49,690 306.89,690.3C306.29,690.6 305.69,690.8 305.09,690.9C304.49,691 303.69,691.1 302.89,691.1C301.59,691.1 300.49,690.9 299.39,690.4C298.29,689.9 297.39,689.3 296.59,688.5C295.79,687.7 295.19,686.7 294.79,685.6C294.39,684.5 294.09,683.3 294.09,682.1C294.09,680.9 294.29,679.7 294.79,678.6C295.19,677.5 295.89,676.5 296.59,675.7C297.39,674.9 298.29,674.2 299.39,673.8C300.49,673.3 301.69,673.1 302.89,673.1C303.69,673.1 304.39,673.2 305.09,673.3C305.69,673.4 306.29,673.6 306.89,673.9C307.39,674.1 307.99,674.4 308.39,674.8C308.89,675.1 309.29,675.5 309.69,675.9L308.39,677.3C307.69,676.6 306.79,676 305.99,675.6C305.09,675.2 304.09,674.9 302.89,674.9C301.89,674.9 300.99,675.1 300.19,675.4C299.39,675.8 298.69,676.3 298.09,676.9C297.49,677.5 296.99,678.3 296.69,679.2C296.39,680.1 296.19,681 296.19,682C296.19,683 296.39,684 296.69,684.8C296.99,685.7 297.49,686.4 298.09,687.1C298.69,687.7 299.39,688.3 300.19,688.6C300.99,689 301.89,689.2 302.89,689.2C304.09,689.2 305.09,689 305.99,688.5C306.89,688.1 307.69,687.4 308.49,686.6L309.79,687.9C309.39,688.5 308.99,688.9 308.49,689.3Z" style="fill:rgb(189,190,192);fill-rule:nonzero;"/>
                <path d="M329.69,690.8L327.59,690.8L325.59,686.2L316.09,686.2L313.99,690.8L311.99,690.8L319.99,673.2L321.79,673.2L329.69,690.8ZM320.79,675.5L316.79,684.4L324.79,684.4L320.79,675.5Z" style="fill:rgb(189,190,192);fill-rule:nonzero;"/>
                <path d="M334.89,678.8C334.99,679.1 335.29,679.4 335.59,679.7C335.89,680 336.39,680.2 336.99,680.5C337.59,680.7 338.39,680.9 339.39,681.1C341.29,681.5 342.79,682.1 343.69,682.9C344.59,683.7 345.09,684.7 345.09,686.1C345.09,686.9 344.99,687.5 344.69,688.2C344.39,688.8 343.99,689.3 343.49,689.8C342.99,690.2 342.39,690.6 341.59,690.8C340.89,691 340.09,691.1 339.19,691.1C337.79,691.1 336.49,690.9 335.39,690.4C334.19,689.9 333.09,689.2 332.09,688.3L333.29,686.9C334.19,687.7 335.09,688.4 336.09,688.8C336.99,689.2 338.09,689.4 339.29,689.4C340.49,689.4 341.39,689.1 342.09,688.6C342.79,688 343.19,687.3 343.19,686.4C343.19,686 343.09,685.6 342.99,685.3C342.89,685 342.59,684.7 342.29,684.4C341.99,684.1 341.49,683.9 340.89,683.7C340.29,683.5 339.59,683.3 338.59,683.1C337.59,682.9 336.69,682.6 335.99,682.3C335.29,682 334.59,681.7 334.19,681.3C333.69,680.9 333.39,680.4 333.09,679.9C332.89,679.4 332.69,678.7 332.69,678C332.69,677.3 332.79,676.7 333.09,676.1C333.39,675.5 333.79,675 334.29,674.6C334.79,674.2 335.39,673.8 336.09,673.6C336.79,673.4 337.59,673.2 338.39,673.2C339.69,673.2 340.79,673.4 341.79,673.7C342.79,674.1 343.69,674.6 344.59,675.3L343.49,676.8C342.69,676.1 341.89,675.7 340.99,675.4C340.19,675.1 339.29,675 338.39,675C337.79,675 337.29,675.1 336.89,675.2C336.39,675.4 336.09,675.6 335.69,675.8C335.39,676 335.09,676.3 334.99,676.7C334.79,677.1 334.69,677.4 334.69,677.8C334.69,678.1 334.69,678.5 334.89,678.8Z" style="fill:rgb(189,190,192);fill-rule:nonzero;"/>
                <rect x="348.59" y="688.2" width="2.3" height="2.6" style="fill:rgb(189,190,192);fill-rule:nonzero;"/>
                <path d="M371.59,685.5C371.19,686.6 370.59,687.6 369.79,688.4C368.99,689.2 368.09,689.9 366.99,690.4C365.89,690.9 364.69,691.1 363.39,691.1C362.09,691.1 360.89,690.9 359.79,690.4C358.69,689.9 357.79,689.3 356.99,688.4C356.19,687.6 355.59,686.6 355.19,685.5C354.79,684.4 354.59,683.3 354.59,682C354.59,680.8 354.79,679.6 355.19,678.5C355.59,677.4 356.19,676.4 356.99,675.6C357.79,674.8 358.69,674.1 359.79,673.6C360.89,673.1 362.09,672.9 363.39,672.9C364.69,672.9 365.89,673.1 366.99,673.6C368.09,674.1 368.99,674.7 369.79,675.6C370.59,676.4 371.19,677.4 371.59,678.5C371.99,679.6 372.19,680.7 372.19,682C372.29,683.3 372.09,684.4 371.59,685.5ZM369.69,679.3C369.39,678.4 368.89,677.7 368.29,677C367.69,676.4 366.99,675.8 366.09,675.5C365.29,675.1 364.29,674.9 363.29,674.9C362.29,674.9 361.39,675.1 360.49,675.5C359.69,675.9 358.89,676.4 358.29,677C357.69,677.6 357.19,678.4 356.89,679.3C356.59,680.2 356.39,681.1 356.39,682.1C356.39,683.1 356.59,684 356.89,684.9C357.19,685.8 357.69,686.5 358.29,687.2C358.89,687.8 359.59,688.4 360.49,688.7C361.29,689.1 362.29,689.3 363.29,689.3C364.29,689.3 365.19,689.1 366.09,688.7C366.89,688.3 367.69,687.8 368.29,687.2C368.89,686.5 369.39,685.8 369.69,684.9C369.99,684 370.19,683.1 370.19,682.1C370.19,681.1 370.09,680.1 369.69,679.3Z" style="fill:rgb(189,190,192);fill-rule:nonzero;"/>
                <path d="M388.49,690.8L383.39,684L378.39,684L378.39,690.8L376.39,690.8L376.39,673.3L383.89,673.3C384.89,673.3 385.69,673.4 386.49,673.7C387.29,673.9 387.89,674.3 388.49,674.8C388.99,675.3 389.49,675.8 389.79,676.5C390.09,677.1 390.19,677.9 390.19,678.6C390.19,679.3 390.09,680 389.89,680.6C389.69,681.2 389.29,681.7 388.89,682.1C388.49,682.5 387.99,682.9 387.39,683.2C386.79,683.5 386.19,683.7 385.49,683.8L390.89,690.9L388.49,690.8ZM387.09,676.1C386.29,675.5 385.19,675.2 383.79,675.2L378.39,675.2L378.39,682.3L383.79,682.3C384.49,682.3 385.09,682.2 385.59,682.1C386.19,681.9 386.59,681.7 386.99,681.4C387.39,681.1 387.69,680.7 387.89,680.3C388.09,679.8 388.19,679.3 388.19,678.8C388.29,677.5 387.89,676.7 387.09,676.1Z" style="fill:rgb(189,190,192);fill-rule:nonzero;"/>
                <path d="M406.69,690.3C405.49,690.8 404.19,691.1 402.69,691.1C401.29,691.1 400.09,690.9 398.99,690.4C397.89,689.9 396.99,689.3 396.19,688.5C395.39,687.7 394.79,686.7 394.39,685.6C393.99,684.5 393.79,683.3 393.79,682.1C393.79,680.9 393.99,679.8 394.39,678.7C394.79,677.6 395.39,676.6 396.19,675.8C396.99,675 397.89,674.3 398.99,673.8C400.09,673.3 401.29,673.1 402.59,673.1C403.29,673.1 403.99,673.1 404.59,673.2C405.19,673.3 405.79,673.4 406.29,673.6C406.79,673.8 407.29,674 407.79,674.3C408.29,674.6 408.69,674.9 409.09,675.3L407.79,676.8C407.49,676.5 407.09,676.2 406.79,676C406.39,675.8 405.99,675.6 405.59,675.4C405.19,675.2 404.69,675.1 404.19,675C403.69,674.9 403.09,674.8 402.49,674.8C401.49,674.8 400.59,675 399.79,675.4C398.99,675.8 398.29,676.3 397.69,677C397.09,677.7 396.69,678.4 396.29,679.3C395.89,680.2 395.79,681.1 395.79,682.1C395.79,683.2 395.99,684.1 396.29,685C396.59,685.9 397.09,686.7 397.69,687.3C398.29,688 398.99,688.5 399.89,688.8C400.69,689.2 401.69,689.4 402.79,689.4C403.79,689.4 404.69,689.2 405.59,688.9C406.49,688.6 407.19,688.1 407.79,687.7L407.79,683.3L402.49,683.3L402.49,681.5L409.69,681.5L409.69,688.4C408.89,689.2 407.89,689.8 406.69,690.3Z" style="fill:rgb(189,190,192);fill-rule:nonzero;"/>
            </g>
        </g>
    </g>
    <defs>
        <linearGradient id="_Linear2" x1="0" y1="0" x2="1" y2="0" gradientUnits="userSpaceOnUse" gradientTransform="matrix(254.728,0,0,254.728,137.289,276.25)"><stop offset="0" style="stop-color:rgb(241,228,57);stop-opacity:1"/><stop offset="1" style="stop-color:rgb(242,172,38);stop-opacity:1"/></linearGradient>
    </defs>
</svg>
