<svg id="Capa_1" data-name="Capa 1" xmlns="http://www.w3.org/2000/svg" viewBox="0 0 864.77 1013"><defs><style>.cls-1{fill:#1d1d1b;}.cls-2{fill:#fff;}.cls-3{fill:#cf3339;}</style></defs><path class="cls-1" d="M220.78,814.85l.91,13.47h-.91q-1.82-6-5.17-8.71a12.62,12.62,0,0,0-8.07-2.66,12.48,12.48,0,0,0-12.14,8.39,28.4,28.4,0,0,0-1.83,10.9,23.16,23.16,0,0,0,1.72,9.33,13,13,0,0,0,5.19,6,15,15,0,0,0,7.91,2.1,13.73,13.73,0,0,0,6.81-1.65q3-1.65,6.49-6.56l.9.58a20.75,20.75,0,0,1-7,7.75,17.67,17.67,0,0,1-9.44,2.45q-9.85,0-15.26-7.3a20.92,20.92,0,0,1-4-12.81,22.66,22.66,0,0,1,2.66-10.9,19.21,19.21,0,0,1,7.32-7.7,19.79,19.79,0,0,1,10.18-2.73,18.71,18.71,0,0,1,8.48,2.1,4.63,4.63,0,0,0,1.75.65,1.94,1.94,0,0,0,1.38-.56,4.7,4.7,0,0,0,1.08-2.19Z" transform="translate(-107.62 -34)"/><path class="cls-1" d="M237.18,817.92v15.66h8.71q3.39,0,4.53-1c1-.89,1.57-2.48,1.69-4.73h1.08v13.79h-1.08a14.49,14.49,0,0,0-.82-3.71,3.65,3.65,0,0,0-1.72-1.61,8.82,8.82,0,0,0-3.68-.58h-8.71v13.06a12.51,12.51,0,0,0,.23,3.2,1.89,1.89,0,0,0,.82.91,5,5,0,0,0,2.22.33h6.72a17.83,17.83,0,0,0,4.88-.47,7.3,7.3,0,0,0,2.93-1.83,22.81,22.81,0,0,0,3.71-5.47h1.17l-3.42,9.94H225.9v-1.08h1.4a5.57,5.57,0,0,0,2.66-.68,2.49,2.49,0,0,0,1.27-1.4,13.86,13.86,0,0,0,.34-3.83V822.65c0-2.51-.26-4.06-.76-4.65a4.55,4.55,0,0,0-3.51-1.17h-1.4v-1.08h30.54l.44,8.69h-1.14a13.88,13.88,0,0,0-1.36-4.3,4.65,4.65,0,0,0-2.21-1.78,13,13,0,0,0-4.12-.44Z" transform="translate(-107.62 -34)"/><path class="cls-1" d="M260.44,815.75H271.2l24.23,29.73V822.62c0-2.43-.28-4-.82-4.56a4.33,4.33,0,0,0-3.42-1.23h-1.37v-1.08h13.79v1.08h-1.4a4,4,0,0,0-3.57,1.53c-.43.62-.64,2-.64,4.26V856H297l-26.13-31.92v24.41c0,2.43.26,4,.79,4.56a4.38,4.38,0,0,0,3.42,1.23h1.4v1.08h-13.8v-1.08H264a4,4,0,0,0,3.59-1.53c.43-.62.65-2,.65-4.26V821a18.06,18.06,0,0,0-2.62-2.66,9.52,9.52,0,0,0-2.62-1.2,9,9,0,0,0-2.57-.27Z" transform="translate(-107.62 -34)"/><path class="cls-1" d="M339.09,815.75l.44,9.3h-1.11a11.36,11.36,0,0,0-.88-3.51,5.83,5.83,0,0,0-2.41-2.5,8.46,8.46,0,0,0-4-.8h-5.58v30.28c0,2.43.26,4,.79,4.56a4.38,4.38,0,0,0,3.42,1.23h1.37v1.08h-16.8v-1.08h1.4a4,4,0,0,0,3.56-1.53c.43-.62.65-2,.65-4.26V818.24h-4.77a13,13,0,0,0-3.94.41,5.38,5.38,0,0,0-2.6,2.13,8.7,8.7,0,0,0-1.29,4.27h-1.11l.47-9.3Z" transform="translate(-107.62 -34)"/><path class="cls-1" d="M381.47,855.39H370.89l-13.41-18.53c-1,0-1.81,0-2.43,0h-.82l-.91,0v11.51c0,2.5.28,4,.82,4.65a4.16,4.16,0,0,0,3.34,1.29H359v1.08H342v-1.08h1.49a4,4,0,0,0,3.6-1.64c.41-.6.61-2,.61-4.3v-25.6c0-2.5-.27-4-.82-4.65a4.32,4.32,0,0,0-3.39-1.29H342v-1.08h14.44a34,34,0,0,1,9.31.93,10.63,10.63,0,0,1,5.09,3.39A8.83,8.83,0,0,1,373,826a9.27,9.27,0,0,1-2.39,6.34c-1.58,1.79-4,3.05-7.38,3.8l8.19,11.37a20.45,20.45,0,0,0,4.82,5.2,12.18,12.18,0,0,0,5.26,1.64ZM353.32,835l1,0H355c3.78,0,6.63-.81,8.55-2.45a7.86,7.86,0,0,0,2.88-6.25,8.16,8.16,0,0,0-2.32-6,8.32,8.32,0,0,0-6.16-2.32,25.74,25.74,0,0,0-4.59.55Z" transform="translate(-107.62 -34)"/><path class="cls-1" d="M402.84,814.85a18,18,0,0,1,13.37,5.86,20.23,20.23,0,0,1,5.65,14.63,20.82,20.82,0,0,1-5.7,15,19.05,19.05,0,0,1-27.54.15q-5.58-5.82-5.57-15.06a20,20,0,0,1,6.43-15.4A19,19,0,0,1,402.84,814.85Zm-.56,2.13a10.44,10.44,0,0,0-8.53,3.95q-4,4.91-4,14.38,0,9.69,4.15,14.93a10.27,10.27,0,0,0,8.42,4,11.49,11.49,0,0,0,9.22-4.36q3.64-4.35,3.64-13.73,0-10.17-4-15.17A10.82,10.82,0,0,0,402.28,817Z" transform="translate(-107.62 -34)"/><path class="cls-1" d="M467.69,816.83v-1.08h14v1.08h-1.49a4,4,0,0,0-3.6,2c-.41.61-.61,2-.61,4.21v16.08a28.41,28.41,0,0,1-1.18,9.25,11.63,11.63,0,0,1-4.65,5.64q-3.46,2.35-9.43,2.35-6.48,0-9.85-2.25a12.18,12.18,0,0,1-4.76-6.05c-.62-1.73-.94-5-.94-9.76V822.77c0-2.44-.33-4-1-4.79a4.16,4.16,0,0,0-3.26-1.15h-1.49v-1.08h17.12v1.08h-1.52a3.91,3.91,0,0,0-3.5,1.56c-.49.7-.73,2.16-.73,4.38V840a38.31,38.31,0,0,0,.42,5.29,11.23,11.23,0,0,0,1.53,4.65,8.37,8.37,0,0,0,3.2,2.75,11.12,11.12,0,0,0,5.13,1.08,14.15,14.15,0,0,0,7-1.7,9,9,0,0,0,4.19-4.34c.75-1.76,1.13-4.75,1.13-8.95V822.77c0-2.47-.27-4-.82-4.65a4.32,4.32,0,0,0-3.39-1.29Z" transform="translate(-107.62 -34)"/><path class="cls-1" d="M481.57,815.75h10.76l24.23,29.73V822.62c0-2.43-.28-4-.82-4.56a4.33,4.33,0,0,0-3.42-1.23H511v-1.08h13.79v1.08h-1.4a4,4,0,0,0-3.57,1.53c-.43.62-.64,2-.64,4.26V856h-1L492,824.11v24.41c0,2.43.26,4,.79,4.56a4.38,4.38,0,0,0,3.42,1.23h1.4v1.08H483.77v-1.08h1.37a4,4,0,0,0,3.59-1.53c.43-.62.65-2,.65-4.26V821a17.56,17.56,0,0,0-2.62-2.66,9.58,9.58,0,0,0-2.61-1.2,9.17,9.17,0,0,0-2.58-.27Z" transform="translate(-107.62 -34)"/><path class="cls-1" d="M544.06,854.31v1.08h-17v-1.08h1.4a4.23,4.23,0,0,0,3.57-1.44c.47-.62.7-2.12.7-4.5v-25.6a13.29,13.29,0,0,0-.38-4,2.65,2.65,0,0,0-1.2-1.25,5.52,5.52,0,0,0-2.69-.71h-1.4v-1.08h17v1.08h-1.43a4.22,4.22,0,0,0-3.54,1.44c-.49.62-.73,2.12-.73,4.5v25.6a13.29,13.29,0,0,0,.38,4,2.74,2.74,0,0,0,1.23,1.26,5.45,5.45,0,0,0,2.66.7Z" transform="translate(-107.62 -34)"/><path class="cls-1" d="M588,815.75v1.08a6.55,6.55,0,0,0-3.19,1.35,12.28,12.28,0,0,0-2.75,4.38l-13.82,33.73h-1.08l-14.85-34.16a18,18,0,0,0-1.61-3.22,5.09,5.09,0,0,0-1.79-1.42,8.44,8.44,0,0,0-2.88-.66v-1.08h16.19v1.08a7.43,7.43,0,0,0-3.57.94,2.14,2.14,0,0,0-.81,1.72,13,13,0,0,0,1.34,4.56l10.09,23.24,9.35-22.94a15.57,15.57,0,0,0,1.37-4.71,2.21,2.21,0,0,0-.85-1.62,5.57,5.57,0,0,0-2.86-1.1l-.5-.09v-1.08Z" transform="translate(-107.62 -34)"/><path class="cls-1" d="M601.26,817.92v15.66H610q3.39,0,4.53-1c1-.89,1.57-2.48,1.69-4.73h1.08v13.79h-1.08a14.49,14.49,0,0,0-.82-3.71,3.65,3.65,0,0,0-1.72-1.61,8.82,8.82,0,0,0-3.68-.58h-8.71v13.06a12,12,0,0,0,.23,3.2,1.89,1.89,0,0,0,.82.91,5,5,0,0,0,2.22.33h6.72a17.83,17.83,0,0,0,4.88-.47,7.37,7.37,0,0,0,2.93-1.83,22.81,22.81,0,0,0,3.71-5.47h1.17l-3.42,9.94H590v-1.08h1.4a5.57,5.57,0,0,0,2.66-.68,2.49,2.49,0,0,0,1.27-1.4,14,14,0,0,0,.33-3.83V822.65q0-3.76-.75-4.65a4.55,4.55,0,0,0-3.51-1.17H590v-1.08h30.54l.43,8.69h-1.13a13.88,13.88,0,0,0-1.36-4.3,4.65,4.65,0,0,0-2.21-1.78,13,13,0,0,0-4.12-.44Z" transform="translate(-107.62 -34)"/><path class="cls-1" d="M665.76,855.39H655.18l-13.41-18.53c-1,0-1.8,0-2.43,0h-.82l-.9,0v11.51c0,2.5.27,4,.81,4.65a4.19,4.19,0,0,0,3.34,1.29h1.54v1.08h-17v-1.08h1.5a4,4,0,0,0,3.59-1.64c.41-.6.62-2,.62-4.3v-25.6c0-2.5-.28-4-.82-4.65a4.33,4.33,0,0,0-3.39-1.29h-1.5v-1.08h14.44a34,34,0,0,1,9.31.93,10.58,10.58,0,0,1,5.09,3.39,8.83,8.83,0,0,1,2.09,5.89,9.31,9.31,0,0,1-2.38,6.34c-1.59,1.79-4,3.05-7.39,3.8l8.19,11.37a20.45,20.45,0,0,0,4.82,5.2,12.23,12.23,0,0,0,5.26,1.64ZM637.62,835l1,0h.67c3.78,0,6.63-.81,8.55-2.45a7.86,7.86,0,0,0,2.88-6.25,8.2,8.2,0,0,0-2.32-6,8.31,8.31,0,0,0-6.15-2.32,25.64,25.64,0,0,0-4.59.55Z" transform="translate(-107.62 -34)"/><path class="cls-1" d="M692.68,814.85v13.71H691.6a17,17,0,0,0-1.89-6.29,9.75,9.75,0,0,0-3.87-3.71,10.67,10.67,0,0,0-5.2-1.37,7.11,7.11,0,0,0-5,1.85,5.65,5.65,0,0,0-2,4.23,5,5,0,0,0,1.26,3.3q1.82,2.19,8.62,5.84a60,60,0,0,1,7.59,4.58,11.19,11.19,0,0,1,3.13,3.75,10,10,0,0,1,1.09,4.53,10.25,10.25,0,0,1-3.49,7.76,12.63,12.63,0,0,1-9,3.26,19.51,19.51,0,0,1-3.24-.26,32.23,32.23,0,0,1-3.76-1.07,17,17,0,0,0-3.61-.92,1.52,1.52,0,0,0-1.15.44,3.46,3.46,0,0,0-.63,1.81h-1.08V842.7h1.08a19.2,19.2,0,0,0,2,6.39,9.84,9.84,0,0,0,3.93,3.52,12.17,12.17,0,0,0,5.81,1.4,8.23,8.23,0,0,0,5.77-1.93,6,6,0,0,0,2.12-4.55,6.18,6.18,0,0,0-.81-3,8.56,8.56,0,0,0-2.5-2.77,68,68,0,0,0-6.22-3.73,60,60,0,0,1-7.23-4.55,12,12,0,0,1-3.26-3.73,9.33,9.33,0,0,1-1.11-4.51,9.77,9.77,0,0,1,3.27-7.35,11.68,11.68,0,0,1,8.33-3.08,16.73,16.73,0,0,1,6.69,1.55,7,7,0,0,0,2.31.73,1.78,1.78,0,0,0,1.25-.45,3.76,3.76,0,0,0,.77-1.83Z" transform="translate(-107.62 -34)"/><path class="cls-1" d="M717,854.31v1.08H700v-1.08h1.4a4.23,4.23,0,0,0,3.57-1.44c.46-.62.7-2.12.7-4.5v-25.6a12.86,12.86,0,0,0-.39-4,2.62,2.62,0,0,0-1.19-1.25,5.55,5.55,0,0,0-2.69-.71H700v-1.08h17v1.08h-1.43a4.22,4.22,0,0,0-3.54,1.44c-.49.62-.73,2.12-.73,4.5v25.6a13.29,13.29,0,0,0,.38,4,2.65,2.65,0,0,0,1.23,1.26,5.42,5.42,0,0,0,2.66.7Z" transform="translate(-107.62 -34)"/><path class="cls-1" d="M753.09,815.75l.44,9.3h-1.11a11.08,11.08,0,0,0-.88-3.51,5.89,5.89,0,0,0-2.41-2.5,8.46,8.46,0,0,0-4-.8h-5.58v30.28c0,2.43.26,4,.79,4.56a4.38,4.38,0,0,0,3.42,1.23h1.37v1.08h-16.8v-1.08h1.4a4,4,0,0,0,3.57-1.53c.42-.62.64-2,.64-4.26V818.24h-4.76a13,13,0,0,0-4,.41,5.43,5.43,0,0,0-2.6,2.13,8.7,8.7,0,0,0-1.29,4.27h-1.11l.47-9.3Z" transform="translate(-107.62 -34)"/><path class="cls-1" d="M777.61,842.12H762.27l-2.69,6.25a9.94,9.94,0,0,0-1,3.45,2,2,0,0,0,.86,1.59,7.48,7.48,0,0,0,3.72.9v1.08H750.69v-1.08a6.92,6.92,0,0,0,3.22-1.14,17.94,17.94,0,0,0,3.3-5.7l13.94-32.62h1l13.79,33q1.66,4,3,5.15a6.14,6.14,0,0,0,3.78,1.34v1.08H777.15v-1.08a5.73,5.73,0,0,0,3.19-.8,2,2,0,0,0,.84-1.63,12.08,12.08,0,0,0-1.17-4.06ZM776.8,840l-6.73-16-6.9,16Z" transform="translate(-107.62 -34)"/><path class="cls-1" d="M833.91,855.39H823.32l-13.41-18.53c-1,0-1.8,0-2.43,0h-.82l-.9,0v11.51c0,2.5.27,4,.82,4.65a4.15,4.15,0,0,0,3.33,1.29h1.55v1.08h-17v-1.08H796a4,4,0,0,0,3.59-1.64c.41-.6.62-2,.62-4.3v-25.6c0-2.5-.28-4-.82-4.65a4.32,4.32,0,0,0-3.39-1.29h-1.49v-1.08h14.44a33.94,33.94,0,0,1,9.3.93,10.58,10.58,0,0,1,5.09,3.39A8.83,8.83,0,0,1,825.4,826,9.26,9.26,0,0,1,823,832.3c-1.59,1.79-4,3.05-7.38,3.8l8.18,11.37a20.45,20.45,0,0,0,4.82,5.2,12.23,12.23,0,0,0,5.27,1.64ZM805.76,835l1,0h.68c3.77,0,6.62-.81,8.55-2.45a7.88,7.88,0,0,0,2.87-6.25,8.16,8.16,0,0,0-2.32-6,8.31,8.31,0,0,0-6.15-2.32,25.74,25.74,0,0,0-4.59.55Z" transform="translate(-107.62 -34)"/><path class="cls-1" d="M851.85,854.31v1.08h-17v-1.08h1.4a4.23,4.23,0,0,0,3.57-1.44c.47-.62.7-2.12.7-4.5v-25.6a13.29,13.29,0,0,0-.38-4,2.7,2.7,0,0,0-1.2-1.25,5.52,5.52,0,0,0-2.69-.71h-1.4v-1.08h17v1.08h-1.43a4.22,4.22,0,0,0-3.54,1.44c-.49.62-.73,2.12-.73,4.5v25.6a13.29,13.29,0,0,0,.38,4,2.69,2.69,0,0,0,1.23,1.26,5.45,5.45,0,0,0,2.66.7Z" transform="translate(-107.62 -34)"/><path class="cls-1" d="M875.2,814.85a18,18,0,0,1,13.37,5.86,20.24,20.24,0,0,1,5.66,14.63,20.82,20.82,0,0,1-5.7,15,19.06,19.06,0,0,1-27.55.15q-5.57-5.82-5.57-15.06a20.05,20.05,0,0,1,6.44-15.4A19,19,0,0,1,875.2,814.85Zm-.55,2.13a10.46,10.46,0,0,0-8.54,3.95q-4,4.91-4,14.38,0,9.69,4.15,14.93a10.25,10.25,0,0,0,8.41,4,11.5,11.5,0,0,0,9.23-4.36q3.63-4.35,3.63-13.73,0-10.17-4-15.17A10.79,10.79,0,0,0,874.65,817Z" transform="translate(-107.62 -34)"/><path class="cls-1" d="M135.21,941.54v1.76H107.62v-1.76h2.28q4,0,5.79-2.32c.76-1,1.14-3.45,1.14-7.32V890.3c0-3.26-.21-5.42-.62-6.46a4.24,4.24,0,0,0-1.94-2,8.91,8.91,0,0,0-4.37-1.14h-2.28V878.9h27.59v1.76h-2.33q-3.94,0-5.74,2.32c-.8,1-1.19,3.45-1.19,7.32v41.6c0,3.26.2,5.42.62,6.46a4.23,4.23,0,0,0,2,2,8.72,8.72,0,0,0,4.32,1.14Z" transform="translate(-107.62 -34)"/><path class="cls-1" d="M136.3,878.9h17.48l39.37,48.3V890.06q0-5.94-1.33-7.41-1.75-2-5.55-2H184V878.9h22.42v1.76h-2.28q-4.08,0-5.79,2.47-1,1.51-1,6.93v54.29h-1.71l-42.46-51.87v39.66q0,5.94,1.29,7.41,1.8,2,5.55,2h2.28v1.76H139.86v-1.76h2.24q4.13,0,5.84-2.46,1-1.53,1-6.94V887.35a29.11,29.11,0,0,0-4.25-4.32,15.94,15.94,0,0,0-4.25-1.95,15.4,15.4,0,0,0-4.18-.42Z" transform="translate(-107.62 -34)"/><path class="cls-1" d="M266.39,877.43l1.47,21.89h-1.47q-3-9.83-8.41-14.15a20.48,20.48,0,0,0-13.11-4.32,21.35,21.35,0,0,0-11.59,3.25q-5.17,3.25-8.14,10.38t-3,17.71a37.55,37.55,0,0,0,2.8,15.15,21,21,0,0,0,8.43,9.83,24.28,24.28,0,0,0,12.85,3.42,22.29,22.29,0,0,0,11.07-2.68q4.79-2.68,10.54-10.66l1.47,1q-4.84,8.59-11.3,12.58a28.62,28.62,0,0,1-15.34,4q-16,0-24.79-11.87a33.94,33.94,0,0,1-6.56-20.8,37,37,0,0,1,4.32-17.72,31.34,31.34,0,0,1,11.9-12.51,32.15,32.15,0,0,1,16.55-4.44,30.35,30.35,0,0,1,13.78,3.42,7.56,7.56,0,0,0,2.85,1A3.15,3.15,0,0,0,263,881a7.46,7.46,0,0,0,1.76-3.56Z" transform="translate(-107.62 -34)"/><path class="cls-1" d="M317.21,921.74H292.27L287.9,931.9a16.19,16.19,0,0,0-1.61,5.61,3.22,3.22,0,0,0,1.4,2.58q1.4,1.13,6.05,1.45v1.76H273.46v-1.76c2.69-.47,4.44-1.09,5.23-1.85q2.42-2.28,5.37-9.26l22.65-53h1.66L330.79,931q2.7,6.46,4.91,8.38a10.09,10.09,0,0,0,6.16,2.16v1.76H316.45v-1.76q3.84-.18,5.2-1.28A3.31,3.31,0,0,0,323,937.6q0-2.08-1.9-6.6Zm-1.33-3.51L305,892.2l-11.21,26Z" transform="translate(-107.62 -34)"/><path class="cls-1" d="M408.68,943.3H391.49l-21.8-30.11c-1.62.06-2.93.09-3.95.09-.41,0-.85,0-1.33,0s-1,0-1.47-.07V931.9c0,4.05.45,6.57,1.33,7.55a6.76,6.76,0,0,0,5.42,2.09h2.51v1.76H344.61v-1.76H347c2.73,0,4.67-.88,5.84-2.66.67-1,1-3.3,1-7V890.3c0-4.06-.44-6.57-1.33-7.55a7,7,0,0,0-5.51-2.09h-2.42V878.9h23.46q10.26,0,15.13,1.5a17.27,17.27,0,0,1,8.26,5.5,14.33,14.33,0,0,1,3.4,9.58,15,15,0,0,1-3.87,10.3q-3.87,4.38-12,6.18l13.29,18.47q4.56,6.36,7.84,8.45a19.7,19.7,0,0,0,8.55,2.66Zm-45.74-33.1c.6,0,1.13,0,1.57,0l1.09,0q9.22,0,13.89-4a12.74,12.74,0,0,0,4.68-10.16,13.3,13.3,0,0,0-3.77-9.81,13.55,13.55,0,0,0-10-3.77,42.07,42.07,0,0,0-7.46.9Z" transform="translate(-107.62 -34)"/><path class="cls-1" d="M406.54,878.9H424l39.37,48.3V890.06q0-5.94-1.33-7.41-1.76-2-5.55-2h-2.24V878.9h22.42v1.76h-2.28q-4.08,0-5.79,2.47-1,1.51-1.05,6.93v54.29h-1.71L423.4,892.48v39.66q0,5.94,1.29,7.41,1.8,2,5.55,2h2.28v1.76H410.1v-1.76h2.24q4.13,0,5.84-2.46,1-1.53,1-6.94V887.35A29.11,29.11,0,0,0,415,883a15.94,15.94,0,0,0-4.25-1.95,15.4,15.4,0,0,0-4.18-.42Z" transform="translate(-107.62 -34)"/><path class="cls-1" d="M522.57,921.74H497.64l-4.37,10.16a16,16,0,0,0-1.62,5.61,3.25,3.25,0,0,0,1.4,2.58c.94.75,2.95,1.23,6.06,1.45v1.76H478.83v-1.76q4-.7,5.22-1.85,2.43-2.28,5.37-9.26l22.65-53h1.67L536.15,931q2.72,6.46,4.92,8.38a10,10,0,0,0,6.15,2.16v1.76H521.81v-1.76c2.56-.12,4.3-.55,5.2-1.28a3.31,3.31,0,0,0,1.35-2.66q0-2.08-1.9-6.6Zm-1.33-3.51-10.92-26-11.21,26Z" transform="translate(-107.62 -34)"/><path class="cls-1" d="M593.81,878.9l.71,15.1h-1.8a18.31,18.31,0,0,0-1.43-5.7,9.56,9.56,0,0,0-3.92-4.06,13.64,13.64,0,0,0-6.43-1.31h-9.07v49.21q0,5.94,1.28,7.41,1.8,2,5.56,2h2.23v1.76H553.63v-1.76h2.28q4.08,0,5.79-2.46,1-1.53,1-6.94V882.93H555a21.6,21.6,0,0,0-6.41.67,8.78,8.78,0,0,0-4.23,3.47,14,14,0,0,0-2.09,6.93h-1.81l.77-15.1Z" transform="translate(-107.62 -34)"/><path class="cls-1" d="M617.27,882.41v25.46h14.16q5.51,0,7.36-1.66c1.65-1.46,2.56-4,2.75-7.7h1.76v22.42h-1.76a24.59,24.59,0,0,0-1.33-6,5.9,5.9,0,0,0-2.8-2.61,14.19,14.19,0,0,0-6-.95H617.27v21.23a19.23,19.23,0,0,0,.39,5.2,3,3,0,0,0,1.32,1.47,8,8,0,0,0,3.61.55h10.93a29.89,29.89,0,0,0,7.93-.76,11.92,11.92,0,0,0,4.75-3,36.57,36.57,0,0,0,6-8.88h1.9l-5.56,16.15H598.94v-1.76h2.28a9,9,0,0,0,4.32-1.09,4,4,0,0,0,2.07-2.28,22.46,22.46,0,0,0,.55-6.22V890.11c0-4.09-.42-6.6-1.24-7.55q-1.71-1.9-5.7-1.9h-2.28V878.9h49.63l.71,14.11h-1.85q-1-5.09-2.21-7a7.54,7.54,0,0,0-3.58-2.89,21.33,21.33,0,0,0-6.7-.72Z" transform="translate(-107.62 -34)"/><path class="cls-1" d="M770,878.9v1.76a8.18,8.18,0,0,0-4.09.9,9,9,0,0,0-3,3.37,55.34,55.34,0,0,0-3,7.93L742,944.77H740L725.37,903.6l-14.58,41.17h-1.71L689.94,891.3c-1.43-4-2.33-6.35-2.71-7.08a6.19,6.19,0,0,0-2.59-2.69,9.51,9.51,0,0,0-4.44-.87V878.9H704v1.76h-1.13a5.69,5.69,0,0,0-3.85,1.14,3.5,3.5,0,0,0-1.33,2.75c0,1.11.69,3.66,2.09,7.65l12.68,36.14,10.68-30.73-1.89-5.41-1.53-4.32a22.88,22.88,0,0,0-2.23-4.19,5.75,5.75,0,0,0-1.52-1.51,8.45,8.45,0,0,0-2.37-1.24,10.33,10.33,0,0,0-2.85-.28V878.9h25.08v1.76h-1.71a5.56,5.56,0,0,0-3.9,1.14,4,4,0,0,0-1.23,3.08q0,2.43,2.13,8.46l12.35,35,12.26-35.48q2.09-5.9,2.09-8.17a3.5,3.5,0,0,0-.69-2,3.72,3.72,0,0,0-1.74-1.33,13.93,13.93,0,0,0-4.7-.66V878.9Z" transform="translate(-107.62 -34)"/><path class="cls-1" d="M806.3,877.43q12.54,0,21.73,9.52t9.19,23.77q0,14.67-9.26,24.36a31,31,0,0,1-44.77.24q-9-9.45-9-24.46,0-15.33,10.44-25A30.86,30.86,0,0,1,806.3,877.43Zm-.9,3.47a17,17,0,0,0-13.87,6.4q-6.51,8-6.51,23.37,0,15.76,6.75,24.27a16.65,16.65,0,0,0,13.67,6.46,18.69,18.69,0,0,0,15-7.08q5.91-7.07,5.91-22.32,0-16.53-6.51-24.65Q814.61,880.9,805.4,880.9Z" transform="translate(-107.62 -34)"/><path class="cls-1" d="M906.7,943.3H889.51l-21.8-30.11c-1.62.06-2.93.09-3.94.09-.42,0-.86,0-1.33,0s-1,0-1.48-.07V931.9q0,6.08,1.34,7.55a6.73,6.73,0,0,0,5.41,2.09h2.52v1.76h-27.6v-1.76h2.42c2.72,0,4.67-.88,5.85-2.66.66-1,1-3.3,1-7V890.3c0-4.06-.44-6.57-1.33-7.55a7,7,0,0,0-5.51-2.09h-2.42V878.9h23.46q10.26,0,15.13,1.5a17.22,17.22,0,0,1,8.26,5.5,14.33,14.33,0,0,1,3.4,9.58,15,15,0,0,1-3.87,10.3q-3.87,4.38-12,6.18l13.3,18.47q4.56,6.36,7.83,8.45a19.7,19.7,0,0,0,8.55,2.66ZM861,910.2c.61,0,1.13,0,1.57,0l1.09,0q9.23,0,13.9-4a12.77,12.77,0,0,0,4.68-10.16,13.27,13.27,0,0,0-3.78-9.81,13.55,13.55,0,0,0-10-3.77,42.17,42.17,0,0,0-7.46.9Z" transform="translate(-107.62 -34)"/><path class="cls-1" d="M907.51,943.3v-1.76h2.42c2.72,0,4.66-.87,5.79-2.61.7-1,1-3.39,1-7V890.3q0-6-1.33-7.55a7,7,0,0,0-5.51-2.09h-2.42V878.9h26.22q14.43,0,22,3.28A26.05,26.05,0,0,1,967.8,893.1a33.67,33.67,0,0,1,4.58,17.67q0,13.44-8.16,22.46-9.16,10.08-27.93,10.07Zm18.38-4.65A48.92,48.92,0,0,0,936,940a24,24,0,0,0,18.29-7.74q7.26-7.75,7.27-21t-7.27-21q-7.26-7.69-18.67-7.69a40.2,40.2,0,0,0-9.73,1.38Z" transform="translate(-107.62 -34)"/><path class="cls-1" d="M187.51,1010.71l.79,11.79h-.79q-1.59-5.29-4.52-7.62a11.07,11.07,0,0,0-7.06-2.33,11.47,11.47,0,0,0-6.24,1.75,11.61,11.61,0,0,0-4.39,5.59,25,25,0,0,0-1.6,9.54,20.35,20.35,0,0,0,1.51,8.16,11.34,11.34,0,0,0,4.54,5.29,13,13,0,0,0,6.92,1.84,12,12,0,0,0,6-1.44c1.72-1,3.61-2.88,5.67-5.74l.8.51a18.21,18.21,0,0,1-6.09,6.77,15.33,15.33,0,0,1-8.26,2.15q-8.61,0-13.35-6.39a18.3,18.3,0,0,1-3.53-11.2,19.92,19.92,0,0,1,2.33-9.54,16.8,16.8,0,0,1,6.41-6.74,17.32,17.32,0,0,1,8.91-2.39,16.27,16.27,0,0,1,7.41,1.84,3.94,3.94,0,0,0,1.54.56,1.69,1.69,0,0,0,1.2-.48,4,4,0,0,0,1-1.92Z" transform="translate(-107.62 -34)"/><path class="cls-1" d="M216.45,1034.57H203l-2.35,5.47a8.71,8.71,0,0,0-.87,3,1.75,1.75,0,0,0,.75,1.39,6.52,6.52,0,0,0,3.26.78v1H192.89v-1a5.88,5.88,0,0,0,2.82-1,15.71,15.71,0,0,0,2.89-5l12.2-28.54h.89l12.07,28.85a13.22,13.22,0,0,0,2.65,4.51,5.34,5.34,0,0,0,3.31,1.16v1H216v-1a5.09,5.09,0,0,0,2.8-.69,1.8,1.8,0,0,0,.73-1.43,10.45,10.45,0,0,0-1-3.55Zm-.72-1.89-5.88-14-6,14Z" transform="translate(-107.62 -34)"/><path class="cls-1" d="M253.31,1046.18,239.91,1017v23.17q0,3.19.69,4a3.78,3.78,0,0,0,3,1.07h1.23v1H232.75v-1H234a3.55,3.55,0,0,0,3.12-1.32,7.89,7.89,0,0,0,.56-3.74v-22.66a7.93,7.93,0,0,0-.51-3.32,2.81,2.81,0,0,0-1.32-1.24,7,7,0,0,0-3.08-.5v-1h9.82l12.58,27.13,12.38-27.13h9.82v1h-1.2a3.55,3.55,0,0,0-3.15,1.33c-.37.54-.56,1.79-.56,3.73v22.66c0,2.13.24,3.46.71,4a3.8,3.8,0,0,0,3,1.07h1.2v1H262.62v-1h1.23a3.5,3.5,0,0,0,3.12-1.32,7.89,7.89,0,0,0,.56-3.74V1017l-13.38,29.18Z" transform="translate(-107.62 -34)"/><path class="cls-1" d="M290.76,1029.94V1040c0,2.19.24,3.54.72,4.07a3.68,3.68,0,0,0,2.94,1.12h1.33v1H280.89v-1h1.3a3.48,3.48,0,0,0,3.15-1.43,8.46,8.46,0,0,0,.51-3.76v-22.4c0-2.18-.23-3.54-.69-4.07a3.75,3.75,0,0,0-3-1.12h-1.3v-1H293.6a22.52,22.52,0,0,1,7.34,1,10.12,10.12,0,0,1,4.53,3.24,8.32,8.32,0,0,1,1.84,5.39,9.12,9.12,0,0,1-2.8,6.91q-2.81,2.65-7.92,2.66a22.24,22.24,0,0,1-2.71-.18Q292.43,1030.3,290.76,1029.94Zm0-1.46c.9.17,1.71.3,2.41.39a15.89,15.89,0,0,0,1.79.12,6.09,6.09,0,0,0,4.59-2,7.53,7.53,0,0,0,1.93-5.34,9.65,9.65,0,0,0-.92-4.18,6.46,6.46,0,0,0-2.61-2.89,7.65,7.65,0,0,0-3.84-1,15.46,15.46,0,0,0-3.35.49Z" transform="translate(-107.62 -34)"/><path class="cls-1" d="M335.7,1012.45v-1H348v1h-1.3a3.52,3.52,0,0,0-3.15,1.71q-.54.8-.54,3.69v14.06a24.83,24.83,0,0,1-1,8.09,10.16,10.16,0,0,1-4.07,4.94,14.51,14.51,0,0,1-8.25,2.06q-5.67,0-8.61-2a10.63,10.63,0,0,1-4.17-5.29q-.83-2.28-.82-8.55v-13.55c0-2.13-.3-3.53-.88-4.19a3.62,3.62,0,0,0-2.86-1H311v-1h15v1h-1.33a3.44,3.44,0,0,0-3.07,1.35c-.43.62-.64,1.9-.64,3.84v15.12a32.85,32.85,0,0,0,.37,4.62,9.87,9.87,0,0,0,1.34,4.07,7.31,7.31,0,0,0,2.8,2.4,9.71,9.71,0,0,0,4.49,1,12.27,12.27,0,0,0,6.09-1.49,7.93,7.93,0,0,0,3.67-3.79c.65-1.54,1-4.16,1-7.84v-14c0-2.17-.24-3.52-.71-4.07a3.77,3.77,0,0,0-3-1.12Z" transform="translate(-107.62 -34)"/><path class="cls-1" d="M374.13,1010.71v12h-.95a15,15,0,0,0-1.65-5.49,8.5,8.5,0,0,0-3.39-3.25,9.36,9.36,0,0,0-4.55-1.2,6.21,6.21,0,0,0-4.4,1.62,5,5,0,0,0-1.74,3.7,4.36,4.36,0,0,0,1.1,2.88q1.59,1.92,7.55,5.12a51.59,51.59,0,0,1,6.63,4,9.66,9.66,0,0,1,2.74,3.29,8.63,8.63,0,0,1,1,4,9,9,0,0,1-3.06,6.79,11.06,11.06,0,0,1-7.86,2.85,16,16,0,0,1-2.84-.23,27.31,27.31,0,0,1-3.29-.93,14.66,14.66,0,0,0-3.15-.81,1.31,1.31,0,0,0-1,.39,3,3,0,0,0-.55,1.58h-.95v-11.89h.95a16.78,16.78,0,0,0,1.79,5.59,8.6,8.6,0,0,0,3.44,3.08A10.62,10.62,0,0,0,365,1045a7.19,7.19,0,0,0,5-1.69,5.22,5.22,0,0,0,1.86-4,5.41,5.41,0,0,0-.71-2.58,7.67,7.67,0,0,0-2.18-2.43,63.06,63.06,0,0,0-5.45-3.26,51.8,51.8,0,0,1-6.33-4,10.84,10.84,0,0,1-2.85-3.27,8.1,8.1,0,0,1-1-3.94,8.51,8.51,0,0,1,2.86-6.43,10.2,10.2,0,0,1,7.29-2.7,14.72,14.72,0,0,1,5.86,1.35,5.86,5.86,0,0,0,2,.64,1.52,1.52,0,0,0,1.08-.39,3.21,3.21,0,0,0,.68-1.6Z" transform="translate(-107.62 -34)"/><path class="cls-1" d="M427,1010.71l.79,11.79H427c-1.06-3.53-2.56-6.07-4.53-7.62a11,11,0,0,0-7.05-2.33,11.43,11.43,0,0,0-6.24,1.75,11.61,11.61,0,0,0-4.39,5.59,25,25,0,0,0-1.6,9.54,20.35,20.35,0,0,0,1.51,8.16,11.34,11.34,0,0,0,4.54,5.29,13,13,0,0,0,6.92,1.84,12.06,12.06,0,0,0,6-1.44c1.72-1,3.61-2.88,5.67-5.74l.8.51a18.21,18.21,0,0,1-6.09,6.77,15.33,15.33,0,0,1-8.26,2.15q-8.62,0-13.35-6.39a18.3,18.3,0,0,1-3.53-11.2,19.92,19.92,0,0,1,2.33-9.54,16.84,16.84,0,0,1,6.4-6.74,17.38,17.38,0,0,1,8.92-2.39,16.27,16.27,0,0,1,7.41,1.84,3.94,3.94,0,0,0,1.54.56,1.69,1.69,0,0,0,1.2-.48,4,4,0,0,0,.95-1.92Z" transform="translate(-107.62 -34)"/><path class="cls-1" d="M448.15,1045.23v1H433.29v-1h1.23a3.69,3.69,0,0,0,3.12-1.25c.4-.54.61-1.86.61-3.94v-22.4a11.6,11.6,0,0,0-.33-3.48,2.34,2.34,0,0,0-1.05-1.1,4.85,4.85,0,0,0-2.35-.61h-1.23v-1h14.86v1h-1.26a3.69,3.69,0,0,0-3.09,1.25c-.43.55-.64,1.86-.64,3.94V1040a11.55,11.55,0,0,0,.33,3.48,2.28,2.28,0,0,0,1.08,1.1,4.65,4.65,0,0,0,2.32.61Z" transform="translate(-107.62 -34)"/><path class="cls-1" d="M476,1012.45v-1h12.28v1H487a3.52,3.52,0,0,0-3.14,1.71q-.54.8-.54,3.69v14.06a24.52,24.52,0,0,1-1,8.09,10.14,10.14,0,0,1-4.06,4.94,14.51,14.51,0,0,1-8.25,2.06c-3.78,0-6.66-.66-8.62-2a10.69,10.69,0,0,1-4.17-5.29q-.81-2.28-.81-8.55v-13.55c0-2.13-.3-3.53-.89-4.19a3.62,3.62,0,0,0-2.85-1h-1.3v-1h15v1h-1.33a3.46,3.46,0,0,0-3.07,1.35,7.71,7.71,0,0,0-.63,3.84v15.12a32.85,32.85,0,0,0,.37,4.62,9.72,9.72,0,0,0,1.34,4.07,7.31,7.31,0,0,0,2.8,2.4,9.68,9.68,0,0,0,4.49,1,12.23,12.23,0,0,0,6.08-1.49,7.88,7.88,0,0,0,3.67-3.79c.66-1.54,1-4.16,1-7.84v-14c0-2.17-.24-3.52-.72-4.07a3.74,3.74,0,0,0-3-1.12Z" transform="translate(-107.62 -34)"/><path class="cls-1" d="M491.29,1046.18v-1h1.3a3.45,3.45,0,0,0,3.12-1.4,8.11,8.11,0,0,0,.56-3.79v-22.4c0-2.17-.24-3.52-.71-4.07a3.77,3.77,0,0,0-3-1.12h-1.3v-1H505.4q7.78,0,11.83,1.77a14,14,0,0,1,6.52,5.88,18.07,18.07,0,0,1,2.47,9.51,17.37,17.37,0,0,1-4.4,12.1q-4.94,5.41-15,5.42Zm9.89-2.51a26,26,0,0,0,5.45.72,12.93,12.93,0,0,0,9.85-4.17q3.9-4.17,3.91-11.3t-3.91-11.33a13.22,13.22,0,0,0-10.05-4.14,21.45,21.45,0,0,0-5.25.74Z" transform="translate(-107.62 -34)"/><path class="cls-1" d="M553.75,1034.57H540.32L538,1040a8.71,8.71,0,0,0-.87,3,1.75,1.75,0,0,0,.75,1.39,6.52,6.52,0,0,0,3.26.78v1H530.19v-1a5.88,5.88,0,0,0,2.82-1,15.71,15.71,0,0,0,2.89-5l12.19-28.54h.9l12.07,28.85a13.06,13.06,0,0,0,2.65,4.51,5.34,5.34,0,0,0,3.31,1.16v1H553.34v-1a5.09,5.09,0,0,0,2.8-.69,1.77,1.77,0,0,0,.73-1.43,10.45,10.45,0,0,0-1-3.55Zm-.72-1.89-5.88-14-6,14Z" transform="translate(-107.62 -34)"/><path class="cls-1" d="M570.08,1046.18v-1h1.3a3.45,3.45,0,0,0,3.12-1.4,8.11,8.11,0,0,0,.56-3.79v-22.4c0-2.17-.24-3.52-.71-4.07a3.77,3.77,0,0,0-3-1.12h-1.3v-1h14.11q7.77,0,11.83,1.77a14,14,0,0,1,6.52,5.88,18.07,18.07,0,0,1,2.47,9.51,17.37,17.37,0,0,1-4.4,12.1q-4.93,5.41-15,5.42Zm9.89-2.51a26,26,0,0,0,5.45.72,13,13,0,0,0,9.85-4.17q3.9-4.17,3.91-11.3t-3.91-11.33a13.24,13.24,0,0,0-10.06-4.14,21.44,21.44,0,0,0-5.24.74Z" transform="translate(-107.62 -34)"/><path class="cls-1" d="M624.13,1046.18v-1h1.31a3.46,3.46,0,0,0,3.12-1.4,8.11,8.11,0,0,0,.56-3.79v-22.4c0-2.17-.24-3.52-.72-4.07a3.74,3.74,0,0,0-3-1.12h-1.31v-1h14.12q7.77,0,11.83,1.77a14,14,0,0,1,6.52,5.88,18.16,18.16,0,0,1,2.47,9.51,17.37,17.37,0,0,1-4.4,12.1q-4.93,5.41-15,5.42Zm9.9-2.51a25.93,25.93,0,0,0,5.45.72,12.91,12.91,0,0,0,9.84-4.17q3.91-4.17,3.92-11.3t-3.92-11.33a13.2,13.2,0,0,0-10.05-4.14,21.44,21.44,0,0,0-5.24.74Z" transform="translate(-107.62 -34)"/><path class="cls-1" d="M673.58,1013.4v13.7h7.62c2,0,3.3-.3,4-.89.88-.79,1.38-2.17,1.48-4.15h.94v12.08h-.94a13,13,0,0,0-.72-3.25,3.15,3.15,0,0,0-1.51-1.41,7.71,7.71,0,0,0-3.22-.51h-7.62v11.43a10.36,10.36,0,0,0,.21,2.8,1.55,1.55,0,0,0,.71.79,4.29,4.29,0,0,0,2,.3h5.88a16.06,16.06,0,0,0,4.27-.41,6.32,6.32,0,0,0,2.55-1.61,19.79,19.79,0,0,0,3.25-4.79h1l-3,8.7H663.71v-1h1.23a4.87,4.87,0,0,0,2.32-.58,2.21,2.21,0,0,0,1.12-1.23,12.35,12.35,0,0,0,.29-3.35v-22.53c0-2.2-.22-3.56-.67-4.07a3.94,3.94,0,0,0-3.06-1h-1.23v-1h26.72l.39,7.6h-1a11.83,11.83,0,0,0-1.19-3.76,4.09,4.09,0,0,0-1.93-1.56,11.51,11.51,0,0,0-3.61-.38Z" transform="translate(-107.62 -34)"/><path class="cls-1" d="M732.3,1046.18,718.89,1017v23.17c0,2.13.24,3.46.69,4a3.78,3.78,0,0,0,3,1.07h1.23v1H711.73v-1H713a3.53,3.53,0,0,0,3.12-1.32,7.89,7.89,0,0,0,.56-3.74v-22.66a7.93,7.93,0,0,0-.51-3.32,2.78,2.78,0,0,0-1.31-1.24,7,7,0,0,0-3.09-.5v-1h9.82l12.58,27.13,12.38-27.13h9.82v1h-1.2a3.53,3.53,0,0,0-3.14,1.33c-.38.54-.57,1.79-.57,3.73v22.66q0,3.19.72,4a3.78,3.78,0,0,0,3,1.07h1.2v1H741.6v-1h1.23a3.5,3.5,0,0,0,3.12-1.32,7.89,7.89,0,0,0,.56-3.74V1017l-13.37,29.18Z" transform="translate(-107.62 -34)"/><path class="cls-1" d="M770,1013.4v13.7h7.62c2,0,3.3-.3,4-.89.89-.79,1.38-2.17,1.48-4.15h1v12.08h-1a12.73,12.73,0,0,0-.71-3.25,3.2,3.2,0,0,0-1.51-1.41,7.71,7.71,0,0,0-3.22-.51H770v11.43a11,11,0,0,0,.2,2.8,1.62,1.62,0,0,0,.72.79,4.26,4.26,0,0,0,1.94.3h5.88a16.15,16.15,0,0,0,4.28-.41,6.32,6.32,0,0,0,2.55-1.61,19.79,19.79,0,0,0,3.25-4.79h1l-3,8.7H760.08v-1h1.23a4.87,4.87,0,0,0,2.32-.58,2.21,2.21,0,0,0,1.12-1.23,12.35,12.35,0,0,0,.29-3.35v-22.53c0-2.2-.22-3.56-.67-4.07a3.94,3.94,0,0,0-3.06-1h-1.23v-1H786.8l.38,7.6h-1a12.09,12.09,0,0,0-1.19-3.76,4.14,4.14,0,0,0-1.93-1.56,11.51,11.51,0,0,0-3.61-.38Zm10.87-13.18-7.55,8.83h-.87l2.69-8.83Z" transform="translate(-107.62 -34)"/><path class="cls-1" d="M814,1027l7.44,11.1a30.45,30.45,0,0,0,4.59,5.82,6.38,6.38,0,0,0,3.8,1.34v1H814.89v-1a6.52,6.52,0,0,0,2.2-.3,2.11,2.11,0,0,0,.88-.71,1.6,1.6,0,0,0,.35-1,3.26,3.26,0,0,0-.23-1.18,20.11,20.11,0,0,0-1.41-2.25l-5.88-8.9-7.26,9.31a13.13,13.13,0,0,0-1.38,2,2.35,2.35,0,0,0-.23,1,1.65,1.65,0,0,0,.69,1.35,4.85,4.85,0,0,0,2.63.61v1H793v-1a7.44,7.44,0,0,0,2.25-.53,13.35,13.35,0,0,0,3-1.79,21.44,21.44,0,0,0,3.27-3.45l8.19-10.34-6.83-10a20.21,20.21,0,0,0-4.73-5.33,8.55,8.55,0,0,0-4.48-1.34v-1h16v1a5.1,5.1,0,0,0-2.8.66,1.67,1.67,0,0,0-.76,1.31,5.77,5.77,0,0,0,1.23,2.76l5.32,8,6.16-7.8a13,13,0,0,0,1.32-1.89,2.44,2.44,0,0,0,.24-1.05,1.5,1.5,0,0,0-.31-.94,2,2,0,0,0-1-.76,8.82,8.82,0,0,0-2.43-.24v-1H829v1a7.06,7.06,0,0,0-2.37.46,9.56,9.56,0,0,0-2.54,1.58,28.49,28.49,0,0,0-3.24,3.69Z" transform="translate(-107.62 -34)"/><path class="cls-1" d="M848.12,1045.23v1H833.27v-1h1.22a3.67,3.67,0,0,0,3.12-1.25c.41-.54.62-1.86.62-3.94v-22.4a11.16,11.16,0,0,0-.34-3.48,2.34,2.34,0,0,0-1-1.1,4.79,4.79,0,0,0-2.35-.61h-1.22v-1h14.85v1h-1.25a3.67,3.67,0,0,0-3.09,1.25c-.43.55-.64,1.86-.64,3.94V1040a11.55,11.55,0,0,0,.33,3.48,2.3,2.3,0,0,0,1.07,1.1,4.72,4.72,0,0,0,2.33.61Z" transform="translate(-107.62 -34)"/><path class="cls-1" d="M882.51,1010.71l.79,11.79h-.79q-1.59-5.29-4.53-7.62a11,11,0,0,0-7.06-2.33,11.47,11.47,0,0,0-6.24,1.75,11.6,11.6,0,0,0-4.38,5.59,24.82,24.82,0,0,0-1.6,9.54,20.18,20.18,0,0,0,1.51,8.16,11.29,11.29,0,0,0,4.54,5.29,13,13,0,0,0,6.91,1.84,12,12,0,0,0,6-1.44c1.72-1,3.61-2.88,5.68-5.74l.79.51a18.28,18.28,0,0,1-6.08,6.77,15.37,15.37,0,0,1-8.27,2.15q-8.61,0-13.34-6.39a18.24,18.24,0,0,1-3.53-11.2,19.91,19.91,0,0,1,2.32-9.54,16.87,16.87,0,0,1,6.41-6.74,17.35,17.35,0,0,1,8.91-2.39,16.31,16.31,0,0,1,7.42,1.84,4,4,0,0,0,1.53.56,1.73,1.73,0,0,0,1.21-.48,4,4,0,0,0,.94-1.92Z" transform="translate(-107.62 -34)"/><path class="cls-1" d="M906.63,1010.71a15.71,15.71,0,0,1,11.7,5.13,17.69,17.69,0,0,1,4.95,12.8,18.21,18.21,0,0,1-5,13.12,16.67,16.67,0,0,1-24.1.12q-4.87-5.09-4.87-13.17a17.58,17.58,0,0,1,5.63-13.48A16.61,16.61,0,0,1,906.63,1010.71Zm-.48,1.87a9.15,9.15,0,0,0-7.47,3.45q-3.51,4.29-3.5,12.58,0,8.49,3.63,13.07a9,9,0,0,0,7.36,3.48,10.06,10.06,0,0,0,8.07-3.81q3.18-3.81,3.19-12,0-8.89-3.51-13.27A9.43,9.43,0,0,0,906.15,1012.58Z" transform="translate(-107.62 -34)"/><rect class="cls-1" x="22.45" y="946.48" width="818.25" height="3.87"/><path class="cls-2" d="M556.54,114.3a17.83,17.83,0,0,0,.93-4.5c0-.51.13-1,.13-1.52a17.58,17.58,0,0,0-8.79-15.23V63.76h7.89V46.14h-7.89V34H531.19V46.14h-7.88V63.76h7.88V93.05a17.58,17.58,0,0,0-8.79,15.23c0,.51.09,1,.13,1.52a17.84,17.84,0,0,0,.94,4.5c-154.22,8.61-277,136.77-277,293.1C246.44,569.27,378.12,701,540,701S833.57,569.27,833.57,407.4c0-156.33-122.82-284.49-277-293.1m-28.27-6a11.73,11.73,0,0,1,8.79-11.35v-39h-7.88V52h7.88V39.87h5.88V52h7.88v5.88h-7.88v39a11.71,11.71,0,0,1,4.15,20.67l71.67,269.68,12.73-32.56,20.18,45.37v20.45H579.85V397.79h-79.7v22.75H428.33V400.09l20.18-45.37,12.73,32.56L532.92,117.6a11.69,11.69,0,0,1-4.65-9.32M437.9,620.7v-2.52l-14.36-26.13.32-5H656.15l.32,5L642.1,618.18v2.52Zm204.15,30.2H438V628.54h204.1Zm9.62-222.52v3.42l-11.53,18.57v37.87a7.94,7.94,0,0,1,7.94,7.94v4.6h33.06l3.48-4.78v12l-3.48-4.77h-40.3l-.78,2.33,9.22,10.77,3.27-7.19,6.53-5.22,3.19.49-12.74,20.08-7.35-1L653,537.7l2.69,41.54H610.38V494.4a23.83,23.83,0,0,0-40.33-17.21v-2.84a30,30,0,1,0-60.08,0v2.86a23.83,23.83,0,0,0-40.34,17.19v84.84H424.36L427,537.7l10.78-14.2-7.34,1L417.74,504.4l3.19-.49,6.53,5.22,3.26,7.19,9.22-10.77-.78-2.33H398.87L395.38,508V496l3.49,4.78h33.05v-4.6a7.94,7.94,0,0,1,7.94-7.94V450.37L428.33,431.8v-3.42H508V405.62h64v22.76Zm-48.88,66v84.84H570.28V494.4a16.26,16.26,0,0,1,32.51,0m-40.33-20V579.24H517.55V474.35a22.46,22.46,0,1,1,44.91,0m-52.74,20v84.84h-32.5V494.4a16.25,16.25,0,0,1,32.5,0m-87.26-95.55v34.62L434,452v31.64a13.84,13.84,0,0,0-7.88,11.22H401.85L389.51,478v48l12.34-16.92h11.91l12.57,19.83-5,6.64L418.56,578c-53.26-38-88.09-100.3-88.09-170.58,0-103.5,75.45-189.65,174.23-206.49L460.18,368.44l-11.32-29ZM653.67,528.92l12.57-19.83h11.91L690.49,526V478L678.15,494.9H653.89A13.83,13.83,0,0,0,646,483.68V452l11.52-18.57V398.85l-26.4-59.37-11.32,29L575.3,200.91c98.78,16.84,174.23,103,174.23,206.49,0,70.28-34.83,132.55-88.09,170.58l-2.74-42.42ZM540,696.91C380.36,696.91,250.48,567,250.48,407.4c0-154.81,122.13-281.61,275.09-289.16.27.38.49.79.79,1.15l-20.52,77.2C404.26,213,326.42,301.26,326.42,407.4c0,72.54,36.39,136.7,91.84,175.33l-.7,10.65L432,619.68v37.09H648V619.68l14.47-26.3-.69-10.65c55.44-38.62,91.83-102.79,91.83-175.33,0-106.14-77.84-194.41-179.43-210.81l-20.51-77.2c.3-.36.53-.77.79-1.15,153,7.54,275.09,134.35,275.09,289.16C829.52,567,699.64,696.91,540,696.91" transform="translate(-107.62 -34)"/><path class="cls-2" d="M341.34,528.88c-3.3-.18-8,2.16-10.9,4.08l-15.62,10.37c-3.23,2.15-4.37,1.61-6.19-.29l-1.23.82,5.72,8.61,1.23-.82c-2-3.49-.69-5.06,2.3-7l14.92-9.91c3.14-2.09,10.68-7,15.26-.1,3.74,5.64-3,10.13-5.8,12l-16.35,10.86c-4.31,2.86-5.17,1.67-7-.81l-1.22.81,8.79,13.24,1.22-.81c-1.16-2.4-1.74-3.48,2.37-6.21l16.35-10.86c5.29-3.52,6.33-5.67,7.07-8.59,1.1-4.39-1.05-8.27-2.19-10-1.57-2.36-4.76-5.15-8.7-5.34" transform="translate(-107.62 -34)"/><path class="cls-2" d="M332.37,519.41c3.52-1.65,4.45-.64,6,1.74l1.33-.63-4.54-9.65-1.33.63c1.06,3.34.47,4.71-3.36,6.5l-21.27,10,0-.09,19.92-32.47-.56-1.2L297.22,509c-2.55,1.2-3.89,1.52-5.81-1.32l-1.33.62,4.3,9.15,1.33-.63c-1.31-3.59.21-4.93,3.4-6.43l16.11-7.57,0,.09L299.5,528.32l4.22,9,1.33-.62c-.27-.56-.43-1.31,2.12-5.42Z" transform="translate(-107.62 -34)"/><path class="cls-2" d="M292,496.07,318.94,487c3.45-1.17,4.26.5,5.35,2.82l1.39-.47-5.24-15.6-1.4.47c.6,2.52,1,4.36-2.53,5.56l-26.95,9.07c-3.78,1.27-4.56-.84-5.38-2.9l-1.39.47L288,502l1.39-.46c-.52-2.11-1.11-4.24,2.56-5.48" transform="translate(-107.62 -34)"/><path class="cls-2" d="M285.58,476.41l31.83-19.22-.27-1.24-36-3.16c-3.43-.31-4.65-.68-5.6-3.11l-1.44.31,2.13,9.78,1.43-.31c-.39-2.66-.45-4,1.79-4.52a15.76,15.76,0,0,1,4.16.05l20.16,1.74L287,466.68a26,26,0,0,1-4.64,2.45c-2.18.48-2.41-.58-3.27-3.42l-1.43.31L281,481.46l1.44-.32c0-2.06,0-2.79,3.18-4.73" transform="translate(-107.62 -34)"/><path class="cls-2" d="M278.73,440.36l28.35-2.28c3.64-.3,3.93,1.14,4.5,3.78l1.46-.12-2.2-27.41-12.34-.89.1,1.31c9.09,2.24,11,6.9,11.36,11.49.26,3.05-.38,4-3,4.2l-14.18,1.14c-.37-4.64,1.19-7.17,8.48-8.32l-.11-1.22-19.79,1.6.1,1.21c7.31.12,9,2.39,9.33,6.89l-13.59,1.1c-2.52.2-2.82-.62-3-3.2-.5-6.33.69-9.77,8.92-11.52L283,417l-11.78.95,2.18,27,1.46-.12c0-2.17,0-4.15,3.83-4.46" transform="translate(-107.62 -34)"/><path class="cls-2" d="M278,404.42l25.93,1.49c4.76.27,4.88,1.22,5.16,4.44l1.47.08.92-15.86-1.47-.08c-.71,3.06-.94,4.09-5.63,3.81l-11.51-.65.08-1.27,18.93-8.66.55-9.62L311,378a2,2,0,0,1-1.23,1.86l-17.27,8.47c-.85-2.6-2.39-7.53-9.6-8-9.86-.56-10.91,9.35-11.1,12.64l-.87,15.11,1.46.08c.39-2.66.59-4.1,5.64-3.81m-4.26-10.79c.21-3.76,2.85-5.54,8.78-5.2,7.62.44,8.78,3,8.48,9.11l-15-.86c-1.81-.34-2.45-.47-2.3-3.05" transform="translate(-107.62 -34)"/><path class="cls-2" d="M284.56,370.4c2.65.51,7.62,1.45,13.86-5.54l2.43-2.75c2.36-2.66,4.16-4.57,8-3.83.75.14,6.43,1.46,5.37,7-1.12,5.87-8.15,7.3-14.16,7.12l-.25,1.34,14.26,2.71.26-1.34c-.89-.36-1.89-.79-1.7-1.76.27-1.43,2.63-3.14,3.46-7.52,1.62-8.5-4.81-12.78-9.89-13.75-6.29-1.2-10.31,1.68-11.59,3.06l-5.51,6c-3.16,3.42-4.6,4.05-7.71,3.46-3.76-.71-5-3.58-4.55-6,1-5.45,8.2-7,12.4-7l.25-1.3L277,347.92l-.27,1.38c1.06.44,1.88.83,1.68,1.89-.26,1.35-2.58,3.15-3.28,6.85-1.67,8.77,5.91,11.69,9.44,12.36" transform="translate(-107.62 -34)"/><path class="cls-2" d="M286.62,337.26l27.29,8c3.49,1,3.2,2.85,2.76,5.37l1.41.42,4.65-15.79-1.41-.41c-1,2.41-1.65,4.17-5.26,3.1l-27.29-8c-3.83-1.13-3.25-3.31-2.74-5.47l-1.41-.41L280,339.86l1.4.41c.79-2,1.52-4.1,5.24-3" transform="translate(-107.62 -34)"/><path class="cls-2" d="M298,320.8c-8.31-4.49-6.72-9.07-5.67-12.2l28.58,11.93c4.55,1.89,4.23,3,3.22,6.29l1.36.56L332,311.89l-1.36-.57c-1.61,3.1-2.15,4.1-6.76,2.18L295.3,301.57c1.46-2.91,3.6-7.26,12.64-4.51l.52-1.26-10.93-4.45-10.87,26,10.85,4.68Z" transform="translate(-107.62 -34)"/><path class="cls-2" d="M305.86,285.38,327,287.8l7.46,4.35c4.21,2.46,3.74,3.49,2.46,6.5l1.26.75,8.24-14.09-1.27-.74c-2,2.63-2.64,3.47-6.85,1L329,280.12l-11.24-17a4,4,0,0,1-.37-3.92l-1.26-.74-5.23,8.93,1.27.74c1.27-1.82,2.25-3.26,4.23-2.1,1.37.8,3.4,3.73,3.79,4.34l6.75,10-14.62-2a12.21,12.21,0,0,1-3.41-.68c-1.42-.84-1.44-1.5.2-4.3l-1.27-.75-8,13.6,1.27.75c1.36-2,4.11-1.69,4.69-1.62" transform="translate(-107.62 -34)"/><path class="cls-2" d="M341.84,256.67c9.31,8.12,20.34,8.43,26.67,1.18s4.52-18.14-4.78-26.25c-9.66-8.42-20.7-8-26.66-1.18s-4.88,17.83,4.77,26.25m-3.32-25c4.33-5,13.27.53,19.74,6.17,3.85,3.36,14.07,12.64,8.79,18.7s-15.88-2.81-19.73-6.17c-6.47-5.64-13.12-13.74-8.8-18.7" transform="translate(-107.62 -34)"/><path class="cls-2" d="M361.18,214.65l18.6,21.51c2.39,2.76,1.4,3.84-.4,5.86l1,1.11,12.8-11.07-1-1.11c-2.6,2-4.1,3.16-6.64.23l-9-10.36c4.47-3.88,7.85-1.12,11.39,2.18l.88-.76-13-15-.9.77c2.58,4,4.78,7.6.29,11.33L366.36,209c-1.66-1.91-1.17-2.64.75-4.3,6.11-5.3,9.5-3.33,14.28.62l.85-.74-7.73-8.93-20.15,17.44,1,1.11c1.79-1.31,3.32-2.49,5.86.45" transform="translate(-107.62 -34)"/><path class="cls-2" d="M399.87,192c-3.94-8.59.1-11.3,2.82-13.16l15.64,26.73c2.49,4.26,1.58,4.93-1.2,7l.74,1.27,14.49-8.47-.75-1.27c-3.15,1.5-4.18,2-6.71-2.34L409.27,175c2.91-1.44,7.24-3.63,12.8,4l1.18-.69-6.05-10.14L392.85,182.4l5.84,10.26Z" transform="translate(-107.62 -34)"/><path class="cls-2" d="M429.34,168.52l10.71,26.34c1.3,3.21,0,4-2.13,5.37l.55,1.36,14.68-6-.56-1.36c-2.44.61-4.14,1-5.49-2.28L442,179.48l10.5-4.27,5.09,12.52c1.35,3.32-.18,4.2-2.35,5.46l.55,1.36,14.81-6-.56-1.36c-2.45.56-4.07,1-5.4-2.3l-10.71-26.35c-1.43-3.54.47-4.49,2.27-5.42l-.56-1.37-14.8,6,.56,1.36c2-.62,4-1.32,5.48,2.27l4.58,11.27L441,176.92l-4.58-11.27c-1.46-3.59.5-4.51,2.34-5.45l-.55-1.36-14.67,6,.55,1.36c1.92-.53,3.84-1.18,5.27,2.36" transform="translate(-107.62 -34)"/><path class="cls-2" d="M468,154.17l6.71,27.63c.86,3.54-.51,4.06-3,5l.35,1.43,26.72-6.49-1.06-12.32-1.28.31c-.78,9.33-5.08,11.94-9.55,13-3,.72-4,.24-4.62-2.27l-3.35-13.82c4.52-1.09,7.26.06,9.54,7.06l1.19-.29-4.68-19.3-1.19.29c1,7.25-.93,9.3-5.33,10.3l-3.22-13.24c-.6-2.45.17-2.88,2.68-3.49,6.16-1.5,9.75-.86,12.78,7l1.14-.27L489,143.27l-26.35,6.4.35,1.43c2.14-.35,4.08-.69,5,3.07" transform="translate(-107.62 -34)"/><path class="cls-2" d="M594.82,149.63c.75-3.93,3.11-3.53,5.44-3.21l.28-1.44-17.17-3.29-.28,1.44c2.23.61,4.51,1.17,3.78,5L581.52,176c-.69,3.58-2.64,3.44-5.35,3.22l-.27,1.45L593.06,184l.28-1.45c-2.65-.74-4.59-1.3-3.88-5Z" transform="translate(-107.62 -34)"/><path class="cls-2" d="M640.58,158.52l.45-1.39-10.2-3.35-.45,1.4c3.73,1.6,3.69,3.63,2.6,7l-5.53,16.92-.1,0-8.67-29.24-10-3.29-.46,1.4c.61.2,1.32.62,2.72,5.35l-8.66,26.47c-1.21,3.69-2.66,3.65-5.63,3.1l-.46,1.4L607,187.77l.46-1.4c-3.37-1.6-4-3-2.7-7L612,157l.1,0,11.22,37.2,1.33.43,10.76-32.9c.87-2.69,1.58-3.87,5.16-3.26" transform="translate(-107.62 -34)"/><path class="cls-2" d="M663,202.23c-6.18,3-10.33,2.84-13.79,1.06a8.89,8.89,0,0,1-4.43-8c.07-4.19,2.38-9.34,4-12.49,4.53-8.83,10.37-15.95,16.85-12.62,5.07,2.59,5.67,10.62,4.9,16l1.11.57,6.27-12.24-1.2-.61c-1.12,1.08-2.08,2-3.28,1.36s-3.26-4.91-7.27-7c-9.33-4.78-19.91.09-25.36,10.71-5,9.78-3.8,21.23,6.55,26.54,5.69,2.92,10.85,1.39,16.32-1.29Z" transform="translate(-107.62 -34)"/><path class="cls-2" d="M700.14,189.46l-1.13-.83-27.94,19.48c-3.81,2.67-5.55,3.88-8,2.66L662.2,212l8.19,6,.87-1.19c-1.31-1.09-3.14-2.65-1.82-4.46.56-.76,2.62-2.23,6.24-4.82l9.08,6.62c-.54,1.94-1.82,6.39-2.75,7.67-1.14,1.57-1.9,1.09-4.58-.51l-.86,1.19L689.64,232l.86-1.19c-2-1.31-1.47-3.4.42-9.8ZM685.51,211.8l-7.87-5.74,12.21-8.77Z" transform="translate(-107.62 -34)"/><path class="cls-2" d="M717.25,255.71l4.84-18.9c2.6,1.21,7.52,3.58,12.65-1.5,7-6.95-.1-14.8-2.56-17.29l-11.32-11.44-1,1c1.84,2.19,2.84,3.37-.75,6.93l-18.46,18.27c-3.38,3.34-4.2,2.76-6.93.67l-1,1,11.88,12,1-1c-1.94-2.71-2.59-3.61.75-6.92l8.18-8.1,1,1-5.79,20.29,7.21,7.27,1-1a2.18,2.18,0,0,1-.65-2.25m-1.42-26.57,10.64-10.54c1.48-1.1,2-1.48,3.93.47,2.82,2.84,2.47,6.07-1.75,10.25-5.43,5.37-8.18,4.43-12.82-.18" transform="translate(-107.62 -34)"/><path class="cls-2" d="M725.77,260.64c-3.15,2.25-4.31,1.35-6.38-.85l-1.2.86,6.6,9.22L726,269c-1.76-3.28-1.46-4.79,2-7.24l19.13-13.67,0,.08-13,36.61.81,1.13,28.16-20.12c2.31-1.64,3.59-2.18,6.1.44l1.2-.85-6.25-8.75-1.19.86c2.07,3.5.83,5.11-2,7.17L746.44,275l-.05-.07,10.34-28.7-6.12-8.58-1.19.86c.37.52.69,1.28-1,5.91Z" transform="translate(-107.62 -34)"/><path class="cls-2" d="M740.72,290l-1.32.64,4.5,9.09,1.32-.65c-.65-1.57-1.56-3.8.45-4.79.84-.42,3.35-.77,7.76-1.39l5,10.08c-1.38,1.45-4.57,4.81-6,5.52-1.74.86-2.19.08-3.82-2.57l-1.32.66,7.17,14.5,1.32-.65c-1.17-2.09.27-3.7,4.91-8.5l22.76-23.7-.62-1.25-33.78,4.35c-4.61.6-6.71.87-8.33-1.34m30,.43-10.56,10.86-4.32-8.73Z" transform="translate(-107.62 -34)"/><path class="cls-2" d="M781.1,313.06c9.23-2.05,11.15,2.73,12.49,6l-29.37,9.86c-4.67,1.57-5.17.48-6.66-2.87l-1.4.47,5.68,16.9,1.4-.46c-.91-3.6-1.17-4.77,3.57-6.37l29.35-9.85c.88,3.34,2.23,8.3-6.37,12.24l.47,1.38,11.16-3.86-9.53-28.4-11.25,3.61Z" transform="translate(-107.62 -34)"/><path class="cls-2" d="M799,351l-28,4.91c-3.59.64-4-.86-4.87-3.6l-1.44.25,5.06,28.78,12.37-.15-.23-1.37c-9.29-1.57-11.67-6.32-12.52-11.15-.56-3.19,0-4.25,2.52-4.7l14-2.46c.85,4.88-.44,7.69-7.57,9.55l.22,1.28,19.56-3.44-.22-1.27c-7.31.52-9.25-1.72-10-6.46l13.42-2.36c2.48-.43,2.88.41,3.35,3.12,1.17,6.64.33,10.38-7.69,13l.22,1.23,11.63-2-5-28.39-1.45.25c.23,2.29.47,4.38-3.35,5.06" transform="translate(-107.62 -34)"/><path class="cls-2" d="M770.16,414.41l-.1,1.4,26.8,11,0,.35-28,6.46-.09,1.34,34.58,12.43c2.13.75,3.47,1.95,3.51,3.7l1.47.1.64-9.07-1.47-.09c-.24,1.68-.41,3.42-2.82,3.25a8.07,8.07,0,0,1-2.43-.53l-19.54-6.92v-.09l19.89-4a17.47,17.47,0,0,1,3.28-.47c2,.13,1.94,1.58,2,3.74l1.46.1,1.1-15.54-1.47-.11c-.28,2.38-1,2.89-2.3,3.45l-5.75,1.35-17.47-7.08v-.1L805,414.64a7,7,0,0,1,2-.22c2.17.16,2.19,1.56,2.24,3.37l1.47.1,1-14.65-1.47-.1c-.5,2.07-1.12,2.52-4,3.17Z" transform="translate(-107.62 -34)"/><path class="cls-2" d="M787.33,452.69c-12-3-22.05,2.08-24.58,12s3.89,19.24,15.86,22.28c12.4,3.15,22.19-2.67,24.56-12s-3.43-19.12-15.84-22.28m14,21.8c-1.73,6.78-12.21,6-20.52,3.92-4.95-1.26-18.26-5-16.15-13.23s15.56-5.18,20.51-3.92c8.32,2.11,17.88,6.45,16.16,13.23" transform="translate(-107.62 -34)"/><path class="cls-2" d="M786.76,502.11,763,491.7c-4.36-1.92-4.13-2.9-3.19-6.2l-1.34-.59-6.78,15.47L753,501c1.81-2.81,2.41-3.75,6.71-1.86l10.56,4.62-.54,1.23-21,2.1-4.09,9.38L746,517a2.17,2.17,0,0,1,1.85-1.43l19.36-2.49c-.17,2.88-.57,8.32,6.06,11.22,9,3.95,13.72-5.56,15.12-8.76l6.45-14.73-1.35-.6c-1.35,2.52-2.08,3.89-6.71,1.87m0,12.2c-1.6,3.66-4.74,4.52-10.17,2.15-7-3.06-7.14-6-4.57-12l13.73,6c1.57,1,2.12,1.31,1,3.83" transform="translate(-107.62 -34)"/><path class="cls-2" d="M770.22,540.32l-24.33-15.73c-1.83-1.18-2.71-2.94-1-5.58l-1.23-.8-8.57,13.26c-6.43,10.83-1.66,20.34,7.42,26.2,7.6,4.91,18.65,6.65,26.24-5.11L777,539.77l-1.24-.8c-1.25,1.51-2.54,3.29-5.55,1.35M767,551.57c-4.67,7.22-15.8,1.39-20.29-1.52-11.79-7.62-12.57-13.35-9.53-18,1.3-2,2.44-1.82,4.41-.54l24.77,16c1.11.65,2.37,1.41.64,4.1" transform="translate(-107.62 -34)"/><path class="cls-2" d="M509.3,683.12V660.78h-.83l-12.34,4.28v1a20.11,20.11,0,0,1,4-1c1.92,0,1.92,1.72,1.92,2.7v15.09c0,2.42-.16,4-5.83,3.92v.93h18.35v-.93c-4.84,0-5.28-1.06-5.28-3.69" transform="translate(-107.62 -34)"/><path class="cls-2" d="M530.5,671.92c2.69-.71,6.66-2.12,6.66-5.46,0-2.23-2-5.68-9.4-5.68-7.83,0-11.11,3.33-11.11,7,0,3.25,3.13,5.64,6.8,7.29-3.27.82-7.34,2.35-7.34,6.62s4.94,6.59,10.23,6.59c7,0,11.51-3.06,11.51-8,0-3.64-3.14-6.38-7.35-8.37M523,665.1c0-1.61,1.62-3.17,4-3.17,3.61,0,4.35,2.78,4.35,4.77a5.71,5.71,0,0,1-2,4.51c-.49-.2-6.37-2.47-6.37-6.11m3.72,21.9c-3.18,0-4.65-2.59-4.65-5.41s1-4.07,2.5-5.84c3.33,1.77,6.51,3.46,6.51,6.66,0,1,0,4.59-4.36,4.59" transform="translate(-107.62 -34)"/><path class="cls-2" d="M556.21,671.92c2.69-.71,6.65-2.12,6.65-5.46,0-2.23-2-5.68-9.39-5.68-7.83,0-11.11,3.33-11.11,7,0,3.25,3.13,5.64,6.8,7.29-3.28.82-7.34,2.35-7.34,6.62s4.94,6.59,10.23,6.59c7,0,11.5-3.06,11.5-8,0-3.64-3.14-6.38-7.34-8.37m-7.54-6.82c0-1.61,1.62-3.17,4-3.17,3.61,0,4.35,2.78,4.35,4.77a5.69,5.69,0,0,1-2,4.51c-.48-.2-6.36-2.47-6.36-6.11m3.72,21.9c-3.18,0-4.65-2.59-4.65-5.41s1-4.07,2.49-5.84c3.34,1.77,6.52,3.46,6.52,6.66,0,1,0,4.59-4.36,4.59" transform="translate(-107.62 -34)"/><path class="cls-2" d="M578.59,683.12V660.78h-.83l-12.34,4.28v1a20.11,20.11,0,0,1,4-1c1.91,0,1.91,1.72,1.91,2.7v15.09c0,2.42-.14,4-5.82,3.92v.93h18.35v-.93c-4.84,0-5.28-1.06-5.28-3.69" transform="translate(-107.62 -34)"/><path class="cls-3" d="M500.15,397.79h79.7v22.75h71.82V400.09l-20.18-45.37-12.73,32.56L547.09,117.6a11.71,11.71,0,0,0-4.15-20.67v-39h7.89V52h-7.89V39.87h-5.88V52h-7.88v5.88h7.88v39a11.7,11.7,0,0,0-4.14,20.67L461.24,387.28l-12.73-32.56-20.18,45.37v20.45h71.82Z" transform="translate(-107.62 -34)"/><rect class="cls-3" x="330.33" y="594.54" width="204.1" height="22.36"/><polygon class="cls-3" points="316.24 553.08 315.92 558.05 330.29 584.18 330.29 586.7 534.49 586.7 534.49 584.18 548.85 558.05 548.53 553.08 316.24 553.08"/><path class="cls-3" d="M540,451.89a22.45,22.45,0,0,0-22.45,22.46V579.24h44.91V474.35A22.46,22.46,0,0,0,540,451.89" transform="translate(-107.62 -34)"/><path class="cls-3" d="M493.47,478.15a16.25,16.25,0,0,0-16.25,16.25v84.84h32.5V494.4a16.26,16.26,0,0,0-16.25-16.25" transform="translate(-107.62 -34)"/><path class="cls-3" d="M586.54,478.15a16.26,16.26,0,0,0-16.26,16.25v84.84h32.51V494.4a16.26,16.26,0,0,0-16.25-16.25" transform="translate(-107.62 -34)"/><path class="cls-3" d="M648.08,500.78v-4.6a7.94,7.94,0,0,0-7.94-7.94V450.37l11.53-18.57v-3.42H572V405.62H508v22.76H428.33v3.42l11.53,18.57v37.87a7.94,7.94,0,0,0-7.94,7.94v4.6H398.87L395.38,496v12l3.49-4.77h40.29l.78,2.32-9.22,10.78-3.26-7.19-6.53-5.22-3.19.49,12.74,20.08,7.34-1-10.77,14.2-2.69,41.54h45.27V494.4A23.83,23.83,0,0,1,510,477.21v-2.86a30,30,0,1,1,60.08,0v2.84a23.83,23.83,0,0,1,40.33,17.21v84.84h45.26L653,537.7l-10.77-14.2,7.35,1,12.73-20.08-3.18-.49-6.53,5.22-3.27,7.19-9.22-10.78.78-2.32h40.3l3.48,4.77V496l-3.48,4.78Z" transform="translate(-107.62 -34)"/><path class="cls-1" d="M557.47,109.8a18,18,0,0,1-.93,4.51c154.21,8.6,277,136.76,277,293.09C833.57,569.27,701.87,701,540,701S246.44,569.27,246.44,407.4c0-156.33,122.81-284.49,277-293.09a18,18,0,0,1-.94-4.51c-156.51,9-280.65,138.81-280.65,297.6,0,164.65,133.47,298.12,298.12,298.12S838.12,572.05,838.12,407.4c0-158.79-124.13-288.56-280.65-297.6" transform="translate(-107.62 -34)"/><path class="cls-1" d="M555,671.21a5.69,5.69,0,0,0,2-4.51c0-2-.74-4.77-4.35-4.77-2.4,0-4,1.56-4,3.17,0,3.64,5.88,5.91,6.36,6.11" transform="translate(-107.62 -34)"/><path class="cls-1" d="M347.32,250.4c3.85,3.36,14.45,12.23,19.73,6.17s-4.94-15.34-8.79-18.7c-6.47-5.64-15.41-11.13-19.74-6.17s2.33,13.06,8.8,18.7" transform="translate(-107.62 -34)"/><polygon class="cls-1" points="663.08 256.38 648.21 258.51 652.52 267.24 663.08 256.38"/><path class="cls-1" d="M746.72,550.05c4.49,2.91,15.62,8.74,20.29,1.52,1.73-2.69.47-3.45-.64-4.1l-24.77-16c-2-1.28-3.11-1.48-4.41.54-3,4.7-2.26,10.43,9.53,18" transform="translate(-107.62 -34)"/><path class="cls-1" d="M776.56,516.46c5.44,2.37,8.58,1.51,10.18-2.15,1.11-2.52.55-2.87-1-3.83l-13.73-6c-2.57,6-2.43,8.93,4.56,12" transform="translate(-107.62 -34)"/><path class="cls-1" d="M276.05,396.68l15,.86c.3-6.15-.86-8.67-8.48-9.11-5.93-.34-8.57,1.44-8.78,5.2-.15,2.58.49,2.71,2.3,3.05" transform="translate(-107.62 -34)"/><path class="cls-1" d="M526.68,687c4.36,0,4.36-3.57,4.36-4.59,0-3.2-3.18-4.89-6.51-6.66-1.47,1.77-2.5,3-2.5,5.84s1.47,5.41,4.65,5.41" transform="translate(-107.62 -34)"/><path class="cls-1" d="M250.48,407.39C250.48,567,380.36,696.91,540,696.91S829.52,567,829.52,407.39c0-154.8-122.13-281.61-275.09-289.15-.26.38-.49.79-.79,1.15l20.51,77.2c101.6,16.4,179.43,104.67,179.43,210.8,0,72.55-36.39,136.72-91.83,175.34l.69,10.65L648,619.68v37.09H432V619.68l-14.47-26.3.7-10.65c-55.45-38.63-91.84-102.79-91.84-175.34,0-106.13,77.85-194.4,179.42-210.8l20.52-77.2c-.3-.36-.52-.77-.79-1.15-153,7.55-275.09,134.35-275.09,289.15M803.17,475c-2.37,9.34-12.16,15.16-24.56,12-12-3-18.38-12.35-15.86-22.28s12.62-15,24.58-12c12.41,3.16,18.22,12.93,15.84,22.28m7-71.83,1.47.1-1,14.65-1.46-.1c0-1.81-.07-3.21-2.24-3.37a7,7,0,0,0-2,.22l-21.57,4.45v.1l17.47,7.08,5.75-1.35c1.33-.56,2-1.07,2.3-3.45l1.47.11-1.1,15.54-1.46-.1c0-2.16,0-3.61-2-3.74a17.28,17.28,0,0,0-3.27.47l-19.9,4v.09l19.54,6.92a8.07,8.07,0,0,0,2.43.53c2.41.17,2.58-1.57,2.82-3.25l1.47.09-.64,9.07-1.47-.1c0-1.75-1.38-2.95-3.51-3.7l-34.58-12.43.09-1.34,28-6.46,0-.35-26.79-11,.09-1.4,36-8.1c2.88-.65,3.5-1.1,4-3.17m-7.81-57.21,1.45-.26,5,28.39-11.63,2-.22-1.23c8-2.58,8.86-6.32,7.69-13-.47-2.71-.87-3.55-3.35-3.12l-13.42,2.36c.77,4.74,2.71,7,10,6.46l.22,1.27-19.56,3.44-.22-1.28c7.13-1.86,8.42-4.67,7.57-9.55l-14,2.46c-2.55.45-3.08,1.51-2.52,4.7.85,4.83,3.23,9.58,12.52,11.15l.23,1.37-12.37.15-5.06-28.78,1.44-.25c.85,2.74,1.28,4.24,4.87,3.6L799,351c3.82-.68,3.58-2.76,3.35-5.05m-.94-9.46-11.17,3.86-.47-1.38c8.6-3.94,7.24-8.9,6.37-12.24l-29.35,9.85c-4.74,1.6-4.47,2.77-3.57,6.37l-1.4.46-5.68-16.9,1.4-.47c1.49,3.35,2,4.44,6.66,2.87L793.59,319c-1.34-3.24-3.26-8-12.49-6l-.46-1.38,11.25-3.61ZM593.34,182.55l-.28,1.45-17.17-3.29.28-1.44c2.71.21,4.66.35,5.35-3.23l5.35-27.93c.73-3.81-1.55-4.37-3.78-5l.28-1.44L600.54,145l-.28,1.44c-2.33-.32-4.68-.72-5.44,3.21l-5.36,27.93c-.71,3.69,1.23,4.25,3.88,5m42.08-20.77-10.76,32.9-1.33-.43-11.22-37.2-.1,0-7.3,22.35c-1.32,4-.67,5.4,2.7,7l-.46,1.4-10.77-3.53.46-1.4c3,.55,4.43.59,5.63-3.1l8.66-26.47c-1.4-4.73-2.1-5.15-2.72-5.35l.46-1.4,10,3.29,8.67,29.24.1,0L633,162.16c1.09-3.35,1.13-5.38-2.6-7l.45-1.4,10.2,3.35-.45,1.39c-3.58-.61-4.29.57-5.16,3.26m11.92,43.73C637,200.2,635.78,188.75,640.79,179c5.45-10.62,16-15.49,25.36-10.71,4,2.05,6.11,6.36,7.27,7s2.16-.28,3.28-1.36l1.2.61-6.27,12.24-1.11-.57c.77-5.35.17-13.38-4.9-16-6.48-3.33-12.32,3.78-16.85,12.62-1.61,3.15-3.92,8.3-4,12.49a8.89,8.89,0,0,0,4.43,8c3.46,1.78,7.61,1.92,13.79-1.06l.66,2c-5.47,2.67-10.63,4.19-16.32,1.28m43.16,25.28-.86,1.19-13.07-9.54.86-1.19c2.68,1.6,3.44,2.07,4.58.51.94-1.28,2.21-5.73,2.75-7.67l-9.08-6.62c-3.62,2.59-5.68,4.07-6.24,4.83-1.32,1.8.51,3.36,1.82,4.45l-.87,1.19-8.19-6,.87-1.19c2.45,1.22,4.19,0,8-2.67L699,188.63l1.13.83L690.92,221c-1.89,6.4-2.42,8.49-.42,9.8M716.86,259l-7.21-7.27,5.79-20.29-1-1-8.18,8.1c-3.34,3.31-2.69,4.21-.75,6.92l-1,1-11.88-12,1-1c2.73,2.09,3.55,2.67,6.93-.67l18.46-18.27c3.59-3.56,2.59-4.74.75-6.93l1-1L732.18,218c2.46,2.49,9.58,10.34,2.56,17.29-5.13,5.08-10,2.71-12.65,1.5l-4.84,18.9a2.18,2.18,0,0,0,.65,2.25Zm17.29,25.81,13-36.61-.06-.08L728,261.77c-3.44,2.46-3.74,4-2,7.25l-1.19.85-6.6-9.22,1.2-.86c2.08,2.2,3.23,3.1,6.38.85l22.67-16.2c1.68-4.63,1.35-5.39,1-5.91l1.19-.86,6.12,8.58L746.39,275l.05.07,14.5-10.34c2.86-2.06,4.1-3.67,2-7.17l1.19-.85,6.25,8.74-1.2.85c-2.51-2.62-3.79-2.08-6.09-.44L735,285.93Zm13.14,21.74,1.32-.66c1.63,2.65,2.08,3.43,3.82,2.57,1.42-.71,4.61-4.07,6-5.53l-5-10.07c-4.41.62-6.92,1-7.76,1.39-2,1-1.1,3.22-.45,4.79l-1.32.65-4.5-9.09,1.32-.64c1.62,2.21,3.72,1.94,8.33,1.33l33.78-4.34.62,1.25-22.76,23.7c-4.64,4.8-6.08,6.41-4.91,8.5l-1.32.65Zm1.45,200.52,21-2.1.54-1.23-10.56-4.62c-4.3-1.89-4.9-.95-6.71,1.86l-1.35-.59,6.78-15.47,1.34.59c-.94,3.3-1.17,4.28,3.19,6.2l23.79,10.41c4.63,2,5.36.65,6.71-1.87l1.35.6-6.45,14.73c-1.4,3.2-6.08,12.71-15.12,8.76-6.62-2.9-6.23-8.34-6.06-11.22l-19.36,2.49A2.17,2.17,0,0,0,746,517l-1.34-.59Zm-13.66,24.41,8.57-13.26,1.23.8c-1.7,2.64-.82,4.4,1,5.58l24.33,15.73c3,1.94,4.3.16,5.55-1.35l1.24.8-8.27,12.79c-7.59,11.76-18.64,10-26.24,5.11-9.08-5.86-13.85-15.37-7.42-26.2M565.42,665.06l12.34-4.28h.83v22.34c0,2.63.44,3.69,5.28,3.69v.93H565.52v-.93c5.68,0,5.82-1.5,5.82-3.92V667.8c0-1,0-2.7-1.91-2.7a20.27,20.27,0,0,0-4,1Zm-23.07,2.7c0-3.65,3.29-7,11.12-7,7.44,0,9.39,3.45,9.39,5.68,0,3.34-4,4.75-6.65,5.46,4.2,2,7.34,4.73,7.34,8.37,0,4.91-4.5,8-11.5,8-5.29,0-10.23-2.28-10.23-6.59s4.06-5.8,7.34-6.62c-3.67-1.65-6.81-4-6.81-7.29m-25.7,0c0-3.65,3.28-7,11.11-7,7.44,0,9.4,3.45,9.4,5.68,0,3.34-4,4.75-6.66,5.46,4.21,2,7.35,4.73,7.35,8.37,0,4.91-4.51,8-11.51,8-5.29,0-10.23-2.28-10.23-6.59s4.07-5.8,7.34-6.62c-3.67-1.65-6.8-4-6.8-7.29m-20.52-2.7,12.34-4.28h.83v22.34c0,2.63.44,3.69,5.28,3.69v.93H496.23v-.93c5.67,0,5.83-1.5,5.83-3.92V667.8c0-1,0-2.7-1.92-2.7a20.11,20.11,0,0,0-4,1Zm-211.51-341,1.41.41c-.51,2.16-1.09,4.34,2.75,5.47l27.28,8c3.61,1.07,4.3-.69,5.26-3.1l1.41.41-4.65,15.79-1.41-.42c.44-2.52.73-4.34-2.76-5.37l-27.29-8c-3.72-1.1-4.45,1-5.24,3l-1.4-.41Zm-9.5,34c.7-3.7,3-5.5,3.28-6.85.2-1.06-.62-1.45-1.67-1.89l.26-1.39,12.53,2.38-.25,1.3c-4.2.06-11.37,1.57-12.4,7-.46,2.4.79,5.27,4.55,6,3.11.59,4.55,0,7.71-3.46l5.51-6c1.28-1.38,5.3-4.26,11.59-3.06,5.08,1,11.51,5.25,9.89,13.75-.83,4.38-3.19,6.09-3.46,7.52-.19,1,.81,1.4,1.7,1.76l-.26,1.34-14.26-2.71.25-1.34c6,.18,13-1.25,14.16-7.12,1.06-5.54-4.62-6.86-5.37-7-3.87-.74-5.67,1.17-8,3.83l-2.43,2.75c-6.24,7-11.21,6.05-13.86,5.54-3.53-.67-11.11-3.59-9.44-12.36m-3.34,35c.2-3.29,1.24-13.21,11.1-12.64,7.21.42,8.75,5.35,9.6,8l17.27-8.47A2,2,0,0,0,311,378l1.46.08-.55,9.62L293,396.38l-.08,1.27,11.51.66c4.69.27,4.92-.76,5.63-3.82l1.47.08-.92,15.86-1.46-.08c-.29-3.22-.41-4.17-5.17-4.44L278,404.42c-5.05-.29-5.25,1.15-5.64,3.81l-1.47-.08Zm-.52,24.86L283,417l.09,1.17c-8.23,1.75-9.42,5.19-8.92,11.52.21,2.57.51,3.4,3,3.2l13.59-1.1c-.3-4.5-2-6.77-9.33-6.89l-.1-1.21,19.79-1.6.1,1.22c-7.28,1.15-8.84,3.68-8.47,8.32L307,430.44c2.58-.21,3.22-1.15,3-4.2-.36-4.59-2.27-9.25-11.36-11.49l-.1-1.31,12.34.89,2.2,27.41-1.46.12c-.57-2.64-.86-4.08-4.5-3.78l-28.35,2.28c-3.86.31-3.82,2.29-3.83,4.46l-1.46.12Zm9.7,63.56L277.61,466l1.43-.31c.86,2.84,1.09,3.9,3.27,3.42a26,26,0,0,0,4.64-2.45l16.84-9.95L283.63,455a15.35,15.35,0,0,0-4.16-.05c-2.24.48-2.18,1.86-1.79,4.52l-1.43.31L274.12,450l1.44-.31c.95,2.43,2.17,2.8,5.6,3.11l36,3.16.27,1.24-31.83,19.22c-3.19,1.94-3.21,2.67-3.18,4.73Zm8.47,20.09L288,502l-5.25-15.59,1.39-.47c.82,2.06,1.6,4.18,5.38,2.9l26.95-9.07c3.57-1.2,3.13-3,2.53-5.56l1.4-.47,5.24,15.6-1.39.47c-1.08-2.32-1.9-4-5.35-2.82L292,496.07c-3.67,1.24-3.08,3.37-2.56,5.48M350,534.22c1.14,1.72,3.29,5.6,2.19,10-.74,2.92-1.78,5.08-7.07,8.59l-16.35,10.86c-4.11,2.73-3.53,3.82-2.37,6.21l-1.22.81-8.79-13.24,1.22-.81c1.86,2.48,2.72,3.67,7,.81L341,546.58c2.79-1.86,9.54-6.35,5.8-12-4.58-6.89-12.12-2-15.26.1l-14.92,9.91c-3,2-4.34,3.56-2.3,7l-1.23.82-5.72-8.61,1.23-.82c1.82,1.9,3,2.44,6.19.29L330.44,533c2.88-1.92,7.6-4.26,10.9-4.08,3.94.2,7.13,3,8.7,5.34m-21.5-40,.56,1.2-19.92,32.47,0,.09,21.27-10c3.83-1.79,4.42-3.16,3.36-6.5l1.33-.63,4.54,9.65-1.33.63c-1.57-2.38-2.5-3.39-6-1.74l-25.2,11.84c-2.55,4.11-2.39,4.86-2.12,5.42l-1.33.62-4.22-9,15.76-25.42,0-.09-16.11,7.57c-3.19,1.5-4.71,2.84-3.4,6.43l-1.33.63-4.3-9.15,1.33-.62c1.92,2.84,3.26,2.52,5.81,1.32Zm-3-166.87-1.36-.56c1-3.31,1.33-4.39-3.22-6.29L292.36,308.6c-1.05,3.13-2.64,7.71,5.67,12.2l-.52,1.26-10.85-4.68,10.87-26,10.93,4.46-.52,1.26c-9-2.75-11.18,1.6-12.65,4.51l28.58,11.93c4.61,1.92,5.15.92,6.76-2.18l1.36.57Zm12.7-28-1.26-.75c1.28-3,1.75-4-2.46-6.5L327,287.8l-21.18-2.42c-.58-.06-3.33-.37-4.69,1.62l-1.27-.75,8-13.6,1.27.75c-1.64,2.8-1.62,3.46-.2,4.3a12.21,12.21,0,0,0,3.41.68l14.62,2-6.75-10c-.39-.61-2.42-3.54-3.79-4.34-2-1.16-3,.28-4.23,2.1l-1.27-.74,5.23-8.93,1.26.74a4,4,0,0,0,.37,3.92l11.24,17,9.33,5.46c4.21,2.46,4.84,1.62,6.85-1l1.27.74ZM489,143.27l2.79,11.48-1.14.27c-3-7.85-6.62-8.49-12.78-7-2.51.61-3.28,1-2.68,3.49l3.22,13.24c4.4-1,6.36-3,5.33-10.3l1.19-.29,4.68,19.3-1.19.29c-2.28-7-5-8.15-9.54-7.06l3.35,13.82c.61,2.52,1.65,3,4.61,2.27,4.48-1.09,8.78-3.7,9.56-13l1.28-.31,1.06,12.32L472,188.26l-.35-1.43c2.53-1,3.9-1.49,3-5L468,154.17c-.92-3.76-2.86-3.41-5-3.07l-.35-1.43Zm-50.82,15.57.55,1.36c-1.84.94-3.8,1.86-2.34,5.45L441,176.92l10.49-4.26-4.58-11.28c-1.46-3.58-3.5-2.88-5.48-2.26l-.56-1.37,14.8-6,.56,1.37c-1.8.93-3.7,1.88-2.26,5.42l10.7,26.35c1.33,3.26,3,2.86,5.4,2.3l.56,1.36-14.81,6-.55-1.36c2.17-1.26,3.7-2.14,2.35-5.46l-5.09-12.52L442,179.48,447.1,192c1.35,3.33,3,2.89,5.49,2.28l.55,1.36-14.67,6-.55-1.36c2.15-1.32,3.43-2.16,2.13-5.37l-10.71-26.34c-1.44-3.54-3.35-2.89-5.27-2.36l-.55-1.36Zm-21,9.32,6.05,10.15-1.18.68c-5.56-7.64-9.89-5.45-12.8-4l15.63,26.73c2.53,4.31,3.56,3.84,6.71,2.34l.75,1.27-14.49,8.47-.74-1.27c2.78-2,3.69-2.71,1.2-7l-15.64-26.73c-2.72,1.87-6.76,4.57-2.82,13.16l-1.18.68-5.84-10.26Zm-42.69,27.49,7.73,8.94-.85.73c-4.78-3.94-8.17-5.92-14.28-.62-1.92,1.66-2.41,2.39-.75,4.3l8.91,10.31c4.49-3.73,2.29-7.34-.29-11.33l.9-.77,13,15L388,223c-3.54-3.3-6.92-6.06-11.39-2.18l9,10.36c2.54,2.93,4,1.79,6.64-.23l1,1.11-12.8,11.07-1-1.11c1.8-2,2.79-3.1.4-5.86l-18.6-21.51c-2.54-2.94-4.07-1.76-5.86-.45l-1-1.11Zm-10.78,35.94c9.3,8.12,11.12,19,4.78,26.25s-17.36,7-26.67-1.17c-9.65-8.42-10.75-19.41-4.77-26.25s17-7.24,26.66,1.17" transform="translate(-107.62 -34)"/><path class="cls-1" d="M529.33,671.21a5.71,5.71,0,0,0,2-4.51c0-2-.74-4.77-4.35-4.77-2.4,0-4,1.56-4,3.17,0,3.64,5.88,5.91,6.37,6.11" transform="translate(-107.62 -34)"/><path class="cls-1" d="M552.39,687c4.36,0,4.36-3.57,4.36-4.59,0-3.2-3.18-4.89-6.52-6.66-1.46,1.77-2.49,3-2.49,5.84s1.47,5.41,4.65,5.41" transform="translate(-107.62 -34)"/><path class="cls-1" d="M764.63,465.18c-2.11,8.28,11.2,12,16.15,13.23,8.31,2.11,18.79,2.86,20.52-3.92s-7.84-11.12-16.16-13.23c-4.95-1.26-18.41-4.37-20.51,3.92" transform="translate(-107.62 -34)"/><polygon class="cls-1" points="577.89 177.8 582.23 163.29 570.02 172.06 577.89 177.8"/><path class="cls-1" d="M728.65,229.32c4.21-4.18,4.57-7.41,1.75-10.25-1.92-1.95-2.45-1.57-3.93-.47l-10.64,10.54c4.64,4.61,7.39,5.55,12.82.18" transform="translate(-107.62 -34)"/><path class="cls-1" d="M773.59,632.21a4.63,4.63,0,0,0-4.63-4.64h-6.59v15.6h2.93v-6.33h2.1l3,6.33h3.24l-3.08-6.6a4.65,4.65,0,0,0,3.08-4.36m-4.63,1.7H765.3v-3.4H769a1.7,1.7,0,0,1,0,3.4" transform="translate(-107.62 -34)"/><path class="cls-1" d="M768,621.71a13.67,13.67,0,1,0,13.67,13.66A13.67,13.67,0,0,0,768,621.71m0,24.4a10.74,10.74,0,1,1,10.73-10.74A10.73,10.73,0,0,1,768,646.11" transform="translate(-107.62 -34)"/></svg>