<?xml version="1.0" encoding="utf-8"?>
<!-- Generator: Adobe Illustrator 25.4.1, SVG Export Plug-In . SVG Version: 6.00 Build 0)  -->
<svg version="1.1" id="Capa_1" xmlns="http://www.w3.org/2000/svg" xmlns:xlink="http://www.w3.org/1999/xlink" x="0px" y="0px"
	 viewBox="0 0 868.23 759.14" style="enable-background:new 0 0 868.23 759.14;" xml:space="preserve">
<style type="text/css">
	.st0{fill:#020203;}
</style>
<g>
	<g>
		<g>
			<g>
				<g>
					<path class="st0" d="M683.22,45.42c-0.55,0.55-1.2,0.81-1.98,0.81h-87.8c-0.62,0-0.93,0.31-0.93,0.93v62.88
						c0,0.62,0.31,0.93,0.93,0.93h62.18c0.78,0,1.43,0.27,1.98,0.82c0.54,0.55,0.81,1.2,0.81,1.98v5.36c0,0.78-0.27,1.44-0.81,1.98
						c-0.55,0.55-1.2,0.82-1.98,0.82h-62.18c-0.62,0-0.93,0.31-0.93,0.93v63.58c0,0.62,0.31,0.93,0.93,0.93h87.8
						c0.78,0,1.43,0.27,1.98,0.82c0.54,0.55,0.81,1.2,0.81,1.98v5.36c0,0.78-0.27,1.44-0.81,1.98c-0.55,0.55-1.2,0.82-1.98,0.82
						h-98.28c-0.78,0-1.44-0.27-1.98-0.82c-0.55-0.54-0.82-1.2-0.82-1.98V38.08c0-0.78,0.27-1.43,0.82-1.98
						c0.54-0.54,1.2-0.82,1.98-0.82h98.28c0.78,0,1.43,0.27,1.98,0.82c0.54,0.55,0.81,1.2,0.81,1.98v5.36
						C684.03,44.22,683.76,44.87,683.22,45.42z"/>
					<path class="st0" d="M769.85,197.5c-0.55-0.54-0.82-1.2-0.82-1.98V38.08c0-0.78,0.27-1.43,0.82-1.98
						c0.54-0.54,1.2-0.82,1.98-0.82h6.75c0.78,0,1.43,0.27,1.98,0.82c0.54,0.55,0.81,1.2,0.81,1.98v148.36
						c0,0.62,0.31,0.93,0.93,0.93h83.14c0.78,0,1.43,0.27,1.98,0.82c0.54,0.55,0.81,1.2,0.81,1.98v5.36c0,0.78-0.27,1.44-0.81,1.98
						c-0.55,0.55-1.2,0.82-1.98,0.82h-93.62C771.05,198.32,770.4,198.05,769.85,197.5z"/>
					<path class="st0" d="M25.39,473.6c-8.08-4.19-14.32-10.13-18.75-17.82S0,439.28,0,429.35v-66.38c0-9.93,2.21-18.67,6.64-26.2
						s10.67-13.39,18.75-17.58c8.07-4.19,17.39-6.29,27.95-6.29c10.4,0,19.64,2.06,27.71,6.17c8.07,4.12,14.32,9.9,18.75,17.35
						s6.64,16.07,6.64,25.85c0,0.78-0.27,1.44-0.81,1.98c-0.55,0.55-1.2,0.81-1.98,0.81l-6.75,0.23c-1.86,0-2.8-0.47-2.8-1.4v-1.4
						c0-11.64-3.73-21-11.18-28.06c-7.45-7.06-17.31-10.6-29.58-10.6c-12.43,0-22.36,3.53-29.81,10.6
						c-7.45,7.07-11.18,16.42-11.18,28.06v67.54c0,11.64,3.76,21.04,11.3,28.18c7.53,7.14,17.43,10.71,29.7,10.71
						c12.26,0,22.12-3.57,29.58-10.71c7.45-7.14,11.18-16.54,11.18-28.18c0-1.71,0.93-2.56,2.8-2.56l6.75,0.23
						c1.86,0,2.79,0.39,2.79,1.17v1.16c0,9.78-2.21,18.44-6.64,25.97c-4.43,7.53-10.68,13.39-18.75,17.58
						c-8.08,4.19-17.32,6.29-27.71,6.29C42.78,479.89,33.46,477.79,25.39,473.6z"/>
					<path class="st0" d="M194.13,476.98c-0.55-0.54-0.81-1.2-0.81-1.98V317.56c0-0.78,0.27-1.43,0.81-1.98
						c0.54-0.54,1.2-0.82,1.98-0.82h6.75c0.78,0,1.43,0.27,1.98,0.82c0.54,0.55,0.81,1.2,0.81,1.98v148.36
						c0,0.62,0.31,0.93,0.93,0.93h83.14c0.78,0,1.43,0.27,1.98,0.82c0.54,0.55,0.81,1.2,0.81,1.98v5.36c0,0.78-0.27,1.44-0.81,1.98
						c-0.55,0.55-1.21,0.82-1.98,0.82H196.1C195.33,477.79,194.67,477.52,194.13,476.98z"/>
					<path class="st0" d="M475.58,475.46l-10.01-30.51c-0.16-0.47-0.47-0.7-0.93-0.7h-72.66c-0.47,0-0.78,0.23-0.93,0.7l-9.78,30.51
						c-0.47,1.55-1.48,2.33-3.03,2.33h-7.45c-0.93,0-1.63-0.27-2.1-0.82c-0.47-0.54-0.55-1.36-0.23-2.45l51.7-157.44
						c0.47-1.55,1.47-2.33,3.03-2.33h10.01c1.55,0,2.56,0.78,3.03,2.33l51.94,157.44c0.15,0.31,0.23,0.7,0.23,1.16
						c0,1.4-0.86,2.1-2.56,2.1h-7.22C477.06,477.79,476.05,477.02,475.58,475.46z M394.88,433.66c0.23,0.23,0.5,0.35,0.81,0.35
						h65.21c0.31,0,0.58-0.12,0.81-0.35c0.23-0.23,0.27-0.5,0.12-0.81l-33.07-102.01c-0.16-0.31-0.39-0.47-0.7-0.47
						c-0.31,0-0.55,0.16-0.7,0.47l-32.61,102.01C394.61,433.16,394.65,433.43,394.88,433.66z"/>
					<path class="st0" d="M590.28,473.25c-8.15-4.27-14.48-10.28-18.98-18.05c-4.5-7.76-6.75-16.69-6.75-26.78V317.56
						c0-0.78,0.27-1.43,0.81-1.98c0.54-0.54,1.2-0.82,1.98-0.82h6.75c0.78,0,1.43,0.27,1.98,0.82c0.54,0.55,0.82,1.2,0.82,1.98
						v111.33c0,11.96,3.84,21.58,11.53,28.88s17.74,10.95,30.16,10.95c12.58,0,22.67-3.65,30.28-10.95s11.41-16.92,11.41-28.88
						V317.56c0-0.78,0.27-1.43,0.81-1.98c0.54-0.54,1.2-0.82,1.98-0.82h6.75c0.78,0,1.43,0.27,1.98,0.82
						c0.54,0.55,0.82,1.2,0.82,1.98v110.86c0,10.09-2.25,19.02-6.75,26.78c-4.5,7.77-10.83,13.78-18.98,18.05
						c-8.15,4.27-17.58,6.4-28.3,6.4C607.87,479.66,598.44,477.52,590.28,473.25z"/>
					<path class="st0" d="M770.55,468.13c-9.86-7.69-14.79-17.97-14.79-30.86v-7.22c0-0.78,0.27-1.43,0.81-1.98
						c0.54-0.54,1.2-0.82,1.98-0.82h6.29c0.77,0,1.43,0.27,1.98,0.82c0.54,0.55,0.82,1.2,0.82,1.98v6.52
						c0,9.63,3.96,17.39,11.88,23.29c7.92,5.9,18.63,8.85,32.14,8.85c12.89,0,22.71-2.68,29.46-8.03
						c6.75-5.36,10.13-12.77,10.13-22.24c0-5.74-1.48-10.75-4.43-15.02s-7.61-8.27-13.97-11.99c-6.37-3.73-15.22-7.99-26.55-12.81
						c-12.11-5.12-21.27-9.39-27.48-12.81c-6.21-3.41-11.18-7.72-14.91-12.93c-3.73-5.2-5.59-11.91-5.59-20.15
						c0-12.73,4.39-22.55,13.16-29.46c8.77-6.91,20.92-10.36,36.45-10.36c17.08,0,30.39,3.88,39.94,11.65s14.32,18.17,14.32,31.21
						v4.89c0,0.78-0.27,1.44-0.81,1.98c-0.55,0.55-1.2,0.82-1.98,0.82h-6.75c-0.78,0-1.44-0.27-1.98-0.82
						c-0.55-0.54-0.81-1.2-0.81-1.98v-4.19c0-9.78-3.73-17.66-11.18-23.64c-7.45-5.98-17.93-8.97-31.44-8.97
						c-11.8,0-20.88,2.45-27.25,7.34s-9.55,11.92-9.55,21.08c0,6.21,1.47,11.26,4.43,15.14c2.95,3.88,7.18,7.26,12.69,10.13
						c5.51,2.88,14.01,6.64,25.5,11.3s20.76,9.12,27.83,13.39c7.06,4.27,12.61,9.28,16.65,15.02c4.04,5.75,6.06,12.66,6.06,20.73
						c0,12.58-4.66,22.67-13.97,30.28c-9.32,7.61-22.36,11.41-39.13,11.41C793.72,479.66,780.41,475.81,770.55,468.13z"/>
					<path class="st0" d="M485.02,595.06c0.54,0.55,0.81,1.2,0.81,1.98v5.36c0,0.78-0.27,1.44-0.81,1.98
						c-0.55,0.55-1.2,0.82-1.98,0.82h-46.11c-0.62,0-0.93,0.31-0.93,0.93v148.36c0,0.78-0.27,1.44-0.81,1.98
						c-0.55,0.55-1.2,0.81-1.98,0.81h-6.75c-0.78,0-1.44-0.27-1.98-0.81c-0.55-0.54-0.81-1.2-0.81-1.98V606.12
						c0-0.62-0.31-0.93-0.93-0.93h-43.78c-0.78,0-1.44-0.27-1.98-0.82c-0.55-0.54-0.81-1.2-0.81-1.98v-5.36
						c0-0.78,0.27-1.43,0.81-1.98c0.54-0.54,1.2-0.82,1.98-0.82h104.11C483.81,594.24,484.47,594.52,485.02,595.06z"/>
					<path class="st0" d="M660.97,755.18l-35.87-74.06c-0.16-0.47-0.47-0.7-0.93-0.7h-43.79c-0.62,0-0.93,0.31-0.93,0.93v73.13
						c0,0.78-0.27,1.44-0.81,1.98c-0.55,0.55-1.2,0.81-1.98,0.81h-6.75c-0.78,0-1.44-0.27-1.98-0.81c-0.55-0.54-0.82-1.2-0.82-1.98
						V596.57c0-0.78,0.27-1.43,0.82-1.98c0.54-0.54,1.2-0.82,1.98-0.82h58.22c13.04,0,23.56,4.04,31.56,12.11
						c7.99,8.08,11.99,18.63,11.99,31.67c0,11.18-3.07,20.53-9.2,28.06c-6.14,7.53-14.32,12.15-24.57,13.86
						c-0.78,0.31-1.01,0.7-0.7,1.16l35.63,73.36c0.31,0.62,0.47,1.09,0.47,1.4c0,1.25-0.86,1.86-2.56,1.86h-6.52
						C662.83,757.27,661.75,756.57,660.97,755.18z M579.46,605.89v63.35c0,0.62,0.31,0.93,0.93,0.93h46.58
						c9.63,0,17.43-2.99,23.41-8.97s8.97-13.78,8.97-23.41c0-9.93-2.99-17.89-8.97-23.87s-13.78-8.97-23.41-8.97h-46.58
						C579.77,604.96,579.46,605.27,579.46,605.89z"/>
					<path class="st0" d="M776.37,752.5c-8.15-4.43-14.44-10.63-18.87-18.63c-4.42-7.99-6.64-17.19-6.64-27.6v-61.02
						c0-10.4,2.21-19.6,6.64-27.6c4.43-7.99,10.71-14.21,18.87-18.63c8.15-4.43,17.58-6.64,28.3-6.64c10.71,0,20.18,2.21,28.41,6.64
						c8.23,4.42,14.59,10.64,19.1,18.63c4.5,8,6.75,17.2,6.75,27.6v61.02c0,10.4-2.25,19.6-6.75,27.6s-10.87,14.21-19.1,18.63
						c-8.23,4.43-17.7,6.64-28.41,6.64S784.52,756.92,776.37,752.5z M835.06,737.01c7.69-7.61,11.53-17.7,11.53-30.28v-61.72
						c0-12.42-3.84-22.47-11.53-30.16s-17.82-11.53-30.39-11.53c-12.42,0-22.44,3.84-30.04,11.53
						c-7.61,7.69-11.41,17.74-11.41,30.16v61.72c0,12.58,3.8,22.67,11.41,30.28c7.61,7.61,17.62,11.41,30.04,11.41
						C817.25,748.42,827.38,744.62,835.06,737.01z"/>
				</g>
			</g>
			<g>
				<g>
					<polygon class="st0" points="277.96,66.22 288.58,18.29 327.77,0 365.27,19.39 365.78,26.93 339.02,39.74 326.92,33.62 
						299.2,46.1 295.57,58.83 					"/>
				</g>
				<g>
					<polygon class="st0" points="336.43,47.43 382.33,27.07 420.19,47.09 427.46,88.71 421.98,93.33 395.43,80.1 392.65,66.59 
						365.88,52.26 353.33,56.87 					"/>
				</g>
				<g>
					<polygon class="st0" points="386.44,81.73 431.88,102.54 442.09,144.46 415.27,176.98 407.76,175.55 400.4,147.12 
						408.86,136.47 401.97,106.39 390.07,100.22 					"/>
				</g>
				<g>
					<polygon class="st0" points="392.68,139.98 404.42,188.8 377.61,221.6 334.95,220.9 331.44,214.17 349.27,191.19 363.1,191.32 
						382.73,167.46 380.28,154.46 					"/>
				</g>
				<g>
					<polygon class="st0" points="350.53,182.37 319.93,221.54 276.26,221.53 250.76,188.85 253.59,181.72 282.79,180.93 
						291.51,191.76 322.56,191.94 331.16,181.85 					"/>
				</g>
				<g>
					<polygon class="st0" points="289.31,175.78 238.93,175.18 212.73,140.92 223.71,100.59 231.17,98.78 249.62,120.96 
						246.2,134.24 264.42,159.02 277.98,159.99 					"/>
				</g>
				<g>
					<polygon class="st0" points="257.03,124.74 225.81,85.83 236.28,44.55 274.93,27.54 280.8,31.95 274.81,60.42 261.72,66.51 
						254.32,95.47 262.08,106.44 					"/>
				</g>
				<g>
					<polygon class="st0" points="302.35,53.24 319.57,45.47 360.08,65.16 364.74,84.45 					"/>
				</g>
				<g>
					<polygon class="st0" points="362.88,56.13 381.16,66.1 388.21,108.48 375.43,123.81 					"/>
				</g>
				<g>
					<polygon class="st0" points="396.67,106.62 400.91,125.47 373.42,159.44 352.32,159.05 					"/>
				</g>
				<g>
					<polygon class="st0" points="379.74,164.46 367.91,179.04 323.12,178.77 310.56,163.49 					"/>
				</g>
				<g>
					<polygon class="st0" points="324.41,184.85 302.97,185.24 276.05,150.94 279.91,131.63 					"/>
				</g>
				<g>
					<polygon class="st0" points="269.91,155.76 257.83,140.52 267.74,98.29 286.81,89.49 					"/>
				</g>
				<g>
					<polygon class="st0" points="261.21,95.65 266.38,77.24 306.49,60.23 325.2,70.24 					"/>
				</g>
			</g>
		</g>
	</g>
</g>
</svg>
