<?xml version="1.0" encoding="UTF-8" standalone="no"?>
<!DOCTYPE svg PUBLIC "-//W3C//DTD SVG 1.1//EN" "http://www.w3.org/Graphics/SVG/1.1/DTD/svg11.dtd">
<svg width="100%" height="100%" viewBox="0 0 1368 1516" version="1.1" xmlns="http://www.w3.org/2000/svg" xmlns:xlink="http://www.w3.org/1999/xlink" xml:space="preserve" xmlns:serif="http://www.serif.com/" style="fill-rule:evenodd;clip-rule:evenodd;stroke-linecap:round;stroke-linejoin:round;stroke-miterlimit:10;">
    <g transform="matrix(4.16667,0,0,4.16667,0,0)">
        <g>
            <g>
                <g>
                    <path d="M25.88,280.34C27.95,277.37 30.52,275.88 33.59,275.88C35.28,275.88 36.84,276.42 38.28,277.48C39.72,278.56 40.75,280.06 41.37,281.99L40.18,282.7C39.66,280.89 38.8,279.49 37.62,278.51C36.43,277.53 35.11,277.04 33.66,277.04C31.34,277.04 29.42,278.24 27.91,280.66C26.4,283.07 25.64,286.19 25.64,290.02C25.64,293.61 26.27,296.7 27.55,299.29C29.05,302.35 31.19,303.88 33.97,303.88C35.27,303.88 36.51,303.39 37.69,302.4C38.87,301.41 39.77,300.05 40.38,298.31L40.45,298.09L41.64,299.11C40.96,301.14 39.87,302.69 38.36,303.75C37.02,304.69 35.45,305.16 33.65,305.16C30.58,305.16 27.99,303.6 25.9,300.48C23.92,297.54 22.93,294.14 22.93,290.28C22.94,286.47 23.92,283.16 25.88,280.34" style="fill:rgb(2,2,3);fill-rule:nonzero;stroke:rgb(2,2,3);stroke-width:1px;"/>
                    <path d="M53.97,285.86L53.97,287.06L47.59,287.06C47.23,287.06 47.04,287.38 47.04,288.03L47.04,294.27L52.64,294.27L52.64,295.19L47.04,295.19L47.04,301.51C47.04,301.95 47.14,302.4 47.35,302.84C47.56,303.28 47.88,303.5 48.31,303.5L53.91,303.5L53.91,304.56L46.85,304.56C46.3,304.56 45.88,304.3 45.57,303.76C45.26,303.23 45.11,302.63 45.11,301.94L45.11,288.65C45.11,287.91 45.27,287.27 45.57,286.72C45.88,286.18 46.2,285.9 46.54,285.9L53.97,285.86Z" style="fill:rgb(2,2,3);fill-rule:nonzero;stroke:rgb(2,2,3);stroke-width:1px;"/>
                    <path d="M60.04,286.26C60.43,286.61 60.74,287.05 61,287.6L66.81,299.73L66.81,286.05L67.73,286.05L67.73,303.96C67.73,304.2 67.64,304.43 67.46,304.67L67.23,304.67C67.06,304.7 66.98,304.7 66.95,304.67L59.13,288.58C59.09,288.52 58.91,288.3 58.62,287.93C58.6,287.9 58.55,287.84 58.48,287.74L58.07,288.27L58.07,304.54L57.18,304.54L57.18,287.74C57.18,287.12 57.34,286.63 57.65,286.28C57.97,285.92 58.37,285.74 58.84,285.74C59.25,285.73 59.65,285.91 60.04,286.26" style="fill:rgb(2,2,3);fill-rule:nonzero;stroke:rgb(2,2,3);stroke-width:1px;"/>
                    <path d="M80.38,285.95L80.38,287.02L76.63,287.02L76.63,304.57L74.45,304.57L74.45,287.02L70.59,287.02L70.59,285.95L80.38,285.95Z" style="fill:rgb(2,2,3);fill-rule:nonzero;stroke:rgb(2,2,3);stroke-width:1px;"/>
                    <path d="M88.71,285.86C89.69,285.86 90.7,286.47 91.72,287.68C92.54,288.66 92.95,289.84 92.95,291.23C92.95,292.53 92.53,293.58 91.68,294.38C90.95,295.06 90.03,295.49 88.92,295.67C89.83,297.71 90.51,299.22 90.97,300.19C91.74,301.81 92.48,303.28 93.19,304.58L90.94,304.58L86.13,294.68L87.12,294.68C88.16,294.68 89.02,294.41 89.68,293.89C90.45,293.27 90.84,292.35 90.84,291.12C90.84,289.6 90.42,288.47 89.58,287.74C88.9,287.15 87.97,286.86 86.78,286.86C86.6,286.86 86.4,286.87 86.19,286.9C85.97,286.93 85.65,286.97 85.22,287.04L85.22,304.59L83.07,304.59L83.07,285.89L88.71,285.86Z" style="fill:rgb(2,2,3);fill-rule:nonzero;stroke:rgb(2,2,3);stroke-width:1px;"/>
                    <path d="M106.61,288.26C108.01,290.18 108.71,292.58 108.71,295.47C108.71,298.44 108,300.8 106.59,302.54C105.3,304.13 103.69,304.93 101.78,304.93C100,304.93 98.44,303.97 97.07,302.05C95.7,300.14 95.02,297.94 95.02,295.47C95.02,292.46 95.67,290.03 96.96,288.17C98.26,286.31 99.86,285.38 101.78,285.38C103.6,285.38 105.21,286.34 106.61,288.26M105.44,289.23C104.48,287.31 103.27,286.36 101.79,286.36C100.15,286.36 98.92,287.51 98.11,289.81C97.52,291.46 97.22,293.35 97.22,295.47C97.22,297.85 97.64,299.9 98.48,301.59C99.32,303.29 100.45,304.13 101.89,304.13C103.28,304.13 104.44,303.29 105.37,301.61C106.3,299.93 106.77,297.87 106.77,295.42C106.76,293.09 106.32,291.03 105.44,289.23" style="fill:rgb(2,2,3);fill-rule:nonzero;stroke:rgb(2,2,3);stroke-width:1px;"/>
                    <path d="M119.94,276.58L119.94,295.5C119.94,297.04 120.3,298.61 121.03,300.23C122.05,302.53 123.5,303.68 125.37,303.68C126.94,303.68 128.21,303.04 129.19,301.77C130.28,300.32 130.83,298.59 130.83,296.58L130.83,276.58L132.09,276.58L132.09,297.65C132.09,299.51 131.46,301.26 130.21,302.88C129.05,304.39 127.46,305.14 125.44,305.14C123.27,305.14 121.5,304.41 120.11,302.93C118.5,301.19 117.69,299.26 117.69,297.14L117.69,276.58L119.94,276.58Z" style="fill:rgb(2,2,3);fill-rule:nonzero;stroke:rgb(2,2,3);stroke-width:1px;"/>
                    <path d="M140.21,286.26C140.6,286.61 140.91,287.05 141.16,287.6L146.97,299.73L146.97,286.05L147.89,286.05L147.89,303.96C147.89,304.2 147.8,304.43 147.61,304.67L147.37,304.67C147.21,304.7 147.12,304.7 147.09,304.67L139.27,288.58C139.23,288.52 139.05,288.3 138.76,287.93C138.74,287.9 138.69,287.84 138.62,287.74L138.21,288.27L138.21,304.54L137.32,304.54L137.32,287.74C137.32,287.12 137.48,286.63 137.8,286.28C138.12,285.92 138.51,285.74 138.99,285.74C139.43,285.73 139.83,285.91 140.21,286.26" style="fill:rgb(2,2,3);fill-rule:nonzero;stroke:rgb(2,2,3);stroke-width:1px;"/>
                    <path d="M153.77,280.03C154.09,280.03 154.36,280.18 154.59,280.48C154.82,280.78 154.93,281.14 154.93,281.56C154.93,281.98 154.82,282.34 154.59,282.63C154.36,282.93 154.09,283.08 153.77,283.08C153.45,283.08 153.17,282.93 152.95,282.63C152.72,282.33 152.61,281.97 152.61,281.56C152.61,281.14 152.72,280.78 152.95,280.48C153.17,280.18 153.45,280.03 153.77,280.03M152.81,304.57L154.75,304.57L154.75,286.05L152.81,286.05L152.81,304.57Z" style="fill:rgb(2,2,3);fill-rule:nonzero;stroke:rgb(2,2,3);stroke-width:1px;"/>
                    <path d="M159.75,285.86L163.71,299.43C163.77,299.7 163.85,299.93 163.92,300.12C164,300.31 164.09,300.51 164.2,300.72L164.73,300.54L169.15,285.87L170.08,285.87L164.81,303.91C164.72,304.21 164.55,304.45 164.3,304.66C164.05,304.87 163.83,304.91 163.62,304.79C163.49,304.79 163.33,304.65 163.13,304.37C162.94,304.09 162.81,303.83 162.74,303.6L157.76,285.87L159.75,285.86Z" style="fill:rgb(2,2,3);fill-rule:nonzero;stroke:rgb(2,2,3);stroke-width:1px;"/>
                    <path d="M181.62,285.86L181.62,287.06L175.24,287.06C174.87,287.06 174.69,287.38 174.69,288.03L174.69,294.27L180.29,294.27L180.29,295.19L174.69,295.19L174.69,301.51C174.69,301.95 174.79,302.4 175,302.84C175.21,303.28 175.52,303.5 175.96,303.5L181.56,303.5L181.56,304.56L174.49,304.56C173.95,304.56 173.52,304.3 173.21,303.76C172.9,303.23 172.75,302.63 172.75,301.94L172.75,288.65C172.75,287.91 172.9,287.27 173.21,286.72C173.52,286.18 173.84,285.9 174.18,285.9L181.62,285.86Z" style="fill:rgb(2,2,3);fill-rule:nonzero;stroke:rgb(2,2,3);stroke-width:1px;"/>
                    <path d="M190.49,285.86C191.47,285.86 192.47,286.47 193.49,287.68C194.31,288.66 194.72,289.84 194.72,291.23C194.72,292.53 194.3,293.58 193.46,294.38C192.73,295.06 191.81,295.49 190.7,295.67C191.61,297.71 192.29,299.22 192.75,300.19C193.52,301.81 194.26,303.28 194.97,304.58L192.71,304.58L187.9,294.68L188.89,294.68C189.94,294.68 190.79,294.41 191.45,293.89C192.22,293.27 192.61,292.35 192.61,291.12C192.61,289.6 192.19,288.47 191.35,287.74C190.67,287.15 189.73,286.86 188.55,286.86C188.37,286.86 188.17,286.87 187.95,286.9C187.74,286.93 187.41,286.97 186.97,287.04L186.97,304.59L184.82,304.59L184.82,285.89L190.49,285.86Z" style="fill:rgb(2,2,3);fill-rule:nonzero;stroke:rgb(2,2,3);stroke-width:1px;"/>
                    <path d="M204.73,285.86L204.73,287.01L200.6,287.01C200.16,287.19 199.86,287.36 199.67,287.54C199.08,288.13 198.79,289.03 198.79,290.24C198.79,290.89 198.94,291.5 199.23,292.06C199.53,292.62 199.89,293 200.32,293.21L203.96,294.88C204.4,295.06 204.8,295.54 205.17,296.34C205.63,297.28 205.86,298.3 205.86,299.39C205.86,300.92 205.48,302.16 204.72,303.12C203.96,304.08 203.05,304.55 202.01,304.55L197.2,304.55L197.2,303.36L202.28,303.36C202.5,303.36 202.8,303.1 203.17,302.56C203.63,301.87 203.85,301.08 203.85,300.16C203.85,299.51 203.72,298.86 203.46,298.22C203.2,297.58 202.98,297.2 202.8,297.08L198.81,295.09C198.15,294.76 197.66,294.25 197.36,293.54C197.05,292.83 196.9,292.02 196.9,291.11C196.9,289.66 197.22,288.47 197.85,287.53C198.6,286.41 199.55,285.85 200.69,285.85L204.73,285.86Z" style="fill:rgb(2,2,3);fill-rule:nonzero;stroke:rgb(2,2,3);stroke-width:1px;"/>
                    <path d="M210.01,280.03C210.33,280.03 210.6,280.18 210.83,280.48C211.06,280.78 211.17,281.14 211.17,281.56C211.17,281.98 211.05,282.34 210.83,282.63C210.6,282.93 210.33,283.08 210.01,283.08C209.69,283.08 209.42,282.93 209.19,282.63C208.96,282.33 208.85,281.97 208.85,281.56C208.85,281.14 208.96,280.78 209.19,280.48C209.42,280.18 209.7,280.03 210.01,280.03M209.06,304.57L211.01,304.57L211.01,286.05L209.06,286.05L209.06,304.57Z" style="fill:rgb(2,2,3);fill-rule:nonzero;stroke:rgb(2,2,3);stroke-width:1px;"/>
                    <path d="M223.8,285.95L223.8,287.02L220.05,287.02L220.05,304.57L217.86,304.57L217.86,287.02L214.01,287.02L214.01,285.95L223.8,285.95Z" style="fill:rgb(2,2,3);fill-rule:nonzero;stroke:rgb(2,2,3);stroke-width:1px;"/>
                    <path d="M231.65,286.04C231.92,286.37 232.13,286.8 232.27,287.33L236.94,304.57L234.81,304.58L233.23,299.27L227.21,299.27L226.07,304.57L225,304.58L229.02,287.03C229.11,286.58 229.3,286.21 229.59,285.9C229.88,285.59 230.19,285.43 230.56,285.43C230.94,285.42 231.31,285.63 231.65,286.04M229.46,289.13L227.39,298.29L233.03,298.29L230.5,288.96C230.38,288.58 230.22,288.39 230.01,288.39C229.74,288.38 229.56,288.64 229.46,289.13" style="fill:rgb(2,2,3);fill-rule:nonzero;stroke:rgb(2,2,3);stroke-width:1px;"/>
                    <path d="M245.41,285.86C246.39,285.86 247.39,286.47 248.41,287.68C249.23,288.66 249.64,289.84 249.64,291.23C249.64,292.53 249.22,293.58 248.38,294.38C247.65,295.06 246.73,295.49 245.61,295.67C246.52,297.71 247.2,299.22 247.65,300.19C248.43,301.81 249.17,303.28 249.87,304.58L247.62,304.58L242.8,294.68L243.79,294.68C244.84,294.68 245.69,294.41 246.35,293.89C247.12,293.27 247.51,292.35 247.51,291.12C247.51,289.6 247.09,288.47 246.25,287.74C245.57,287.15 244.64,286.86 243.45,286.86C243.26,286.86 243.07,286.87 242.85,286.9C242.64,286.93 242.31,286.97 241.88,287.04L241.88,304.59L239.73,304.59L239.73,285.89L245.41,285.86Z" style="fill:rgb(2,2,3);fill-rule:nonzero;stroke:rgb(2,2,3);stroke-width:1px;"/>
                    <path d="M254.25,280.03C254.57,280.03 254.84,280.18 255.07,280.48C255.3,280.78 255.41,281.14 255.41,281.56C255.41,281.98 255.3,282.34 255.07,282.63C254.84,282.93 254.57,283.08 254.25,283.08C253.93,283.08 253.66,282.93 253.43,282.63C253.2,282.33 253.08,281.97 253.08,281.56C253.08,281.14 253.19,280.78 253.43,280.48C253.65,280.18 253.92,280.03 254.25,280.03M253.29,304.57L255.23,304.57L255.23,286.05L253.29,286.05L253.29,304.57Z" style="fill:rgb(2,2,3);fill-rule:nonzero;stroke:rgb(2,2,3);stroke-width:1px;"/>
                    <path d="M270.31,288.26C271.71,290.18 272.41,292.58 272.41,295.47C272.41,298.44 271.7,300.8 270.29,302.54C268.99,304.13 267.39,304.93 265.48,304.93C263.7,304.93 262.13,303.97 260.77,302.05C259.4,300.14 258.72,297.94 258.72,295.47C258.72,292.46 259.37,290.03 260.66,288.17C261.96,286.31 263.56,285.38 265.47,285.38C267.3,285.38 268.9,286.34 270.31,288.26M269.12,289.23C268.17,287.31 266.95,286.36 265.47,286.36C263.83,286.36 262.6,287.51 261.79,289.81C261.2,291.46 260.9,293.35 260.9,295.47C260.9,297.85 261.32,299.9 262.17,301.59C263.01,303.29 264.15,304.13 265.58,304.13C266.96,304.13 268.13,303.29 269.06,301.61C269.99,299.93 270.46,297.87 270.46,295.42C270.46,293.09 270.02,291.03 269.12,289.23" style="fill:rgb(2,2,3);fill-rule:nonzero;stroke:rgb(2,2,3);stroke-width:1px;"/>
                    <path d="M291.93,274.1L291.93,304.56L287.12,304.56C285.46,304.56 283.88,303.78 282.38,302.21C280.58,300.35 279.68,297.91 279.68,294.9C279.68,292.15 280.39,289.95 281.8,288.3C283.1,286.8 284.65,286.04 286.44,286.04L289.85,285.95L289.85,274.1L291.93,274.1ZM286.4,287.15C285.38,287.15 284.41,287.75 283.5,288.96C282.43,290.38 281.89,292.24 281.89,294.55C281.89,297.92 282.7,300.35 284.31,301.87C285.56,303.05 287.27,303.64 289.43,303.64L289.84,303.64L289.84,287.15L286.4,287.15Z" style="fill:rgb(2,2,3);fill-rule:nonzero;stroke:rgb(2,2,3);stroke-width:1px;"/>
                    <path d="M305.38,285.86L305.38,287.06L298.99,287.06C298.63,287.06 298.44,287.38 298.44,288.03L298.44,294.27L304.04,294.27L304.04,295.19L298.44,295.19L298.44,301.51C298.44,301.95 298.54,302.4 298.75,302.84C298.96,303.28 299.27,303.5 299.71,303.5L305.31,303.5L305.31,304.56L298.24,304.56C297.69,304.56 297.27,304.3 296.96,303.76C296.65,303.23 296.5,302.63 296.5,301.94L296.5,288.65C296.5,287.91 296.65,287.27 296.96,286.72C297.27,286.18 297.59,285.9 297.93,285.9L305.38,285.86Z" style="fill:rgb(2,2,3);fill-rule:nonzero;stroke:rgb(2,2,3);stroke-width:1px;"/>
                </g>
                <g>
                    <path d="M3.27,327.14L10.42,349.72L17.42,327.12L20.02,327.12L20.02,355.06L17.77,355.06L17.77,330.39L9.85,355.94L1.83,330.74L1.83,355.06L0.5,355.06L0.5,327.12L3.27,327.14Z" style="fill:rgb(2,2,3);fill-rule:nonzero;stroke:rgb(2,2,3);stroke-width:1px;"/>
                    <path d="M34.08,336.41L34.08,337.6L27.7,337.6C27.33,337.6 27.15,337.93 27.15,338.57L27.15,344.81L32.75,344.81L32.75,345.73L27.15,345.73L27.15,352.06C27.15,352.5 27.25,352.95 27.46,353.38C27.66,353.83 27.98,354.05 28.42,354.05L34.02,354.05L34.02,355.11L26.95,355.11C26.41,355.11 25.98,354.84 25.67,354.31C25.36,353.78 25.21,353.17 25.21,352.49L25.21,339.19C25.21,338.46 25.36,337.81 25.67,337.26C25.98,336.71 26.3,336.44 26.65,336.44L34.08,336.41Z" style="fill:rgb(2,2,3);fill-rule:nonzero;stroke:rgb(2,2,3);stroke-width:1px;"/>
                    <path d="M42.96,336.41C43.94,336.41 44.94,337.02 45.96,338.22C46.78,339.2 47.19,340.38 47.19,341.77C47.19,343.07 46.77,344.12 45.93,344.91C45.2,345.59 44.28,346.02 43.17,346.2C44.08,348.24 44.76,349.74 45.22,350.72C45.99,352.34 46.73,353.8 47.44,355.11L45.19,355.11L40.37,345.21L41.36,345.21C42.41,345.21 43.26,344.94 43.92,344.42C44.7,343.8 45.08,342.88 45.08,341.64C45.08,340.12 44.66,338.99 43.82,338.26C43.14,337.68 42.21,337.38 41.02,337.38C40.84,337.38 40.64,337.4 40.42,337.42C40.2,337.45 39.88,337.5 39.45,337.56L39.45,355.11L37.29,355.11L37.29,336.41L42.96,336.41Z" style="fill:rgb(2,2,3);fill-rule:nonzero;stroke:rgb(2,2,3);stroke-width:1px;"/>
                    <path d="M51.41,338.9C52.65,336.88 54.18,335.87 56,335.87C58.23,335.87 59.91,337.14 61.05,339.67L60.27,340.02C59.95,338.96 59.43,338.13 58.72,337.54C58,336.95 57.2,336.65 56.31,336.65C54.9,336.65 53.75,337.58 52.86,339.44C52.06,341.12 51.66,343.09 51.66,345.36C51.66,348.1 52.12,350.3 53.04,351.95C53.96,353.6 55.12,354.43 56.51,354.43C57.42,354.43 58.25,354.15 58.99,353.59C59.73,353.02 60.26,352.22 60.57,351.16L60.71,350.72L61.32,351.6C60.71,352.78 59.99,353.72 59.17,354.43C58.35,355.14 57.45,355.49 56.47,355.49C54.56,355.49 52.93,354.54 51.57,352.64C50.22,350.73 49.54,348.4 49.54,345.63C49.55,343.17 50.17,340.92 51.41,338.9" style="fill:rgb(2,2,3);fill-rule:nonzero;stroke:rgb(2,2,3);stroke-width:1px;"/>
                    <path d="M69.55,336.58C69.82,336.9 70.03,337.33 70.16,337.86L74.84,355.1L72.7,355.11L71.12,349.8L65.11,349.8L63.97,355.09L62.9,355.1L66.93,337.55C67.02,337.11 67.21,336.73 67.49,336.43C67.77,336.11 68.1,335.96 68.46,335.96C68.84,335.97 69.21,336.17 69.55,336.58M67.36,339.67L65.3,348.82L70.94,348.82L68.41,339.49C68.29,339.11 68.13,338.92 67.92,338.92C67.64,338.93 67.45,339.17 67.36,339.67" style="fill:rgb(2,2,3);fill-rule:nonzero;stroke:rgb(2,2,3);stroke-width:1px;"/>
                    <path d="M88.73,324.64L88.73,355.11L83.92,355.11C82.25,355.11 80.68,354.33 79.17,352.76C77.37,350.9 76.47,348.46 76.47,345.45C76.47,342.7 77.18,340.5 78.58,338.85C79.88,337.34 81.43,336.59 83.22,336.59L86.63,336.5L86.63,324.65L88.73,324.64ZM83.2,337.69C82.18,337.69 81.21,338.3 80.3,339.51C79.23,340.93 78.7,342.79 78.7,345.1C78.7,348.47 79.51,350.9 81.12,352.41C82.37,353.59 84.08,354.18 86.24,354.18L86.65,354.18L86.65,337.69L83.2,337.69Z" style="fill:rgb(2,2,3);fill-rule:nonzero;stroke:rgb(2,2,3);stroke-width:1px;"/>
                    <path d="M103.66,338.79C105.06,340.71 105.76,343.11 105.76,345.99C105.76,348.97 105.06,351.32 103.64,353.06C102.35,354.66 100.74,355.45 98.83,355.45C97.05,355.45 95.48,354.49 94.12,352.57C92.76,350.66 92.07,348.46 92.07,345.99C92.07,342.98 92.71,340.55 94.01,338.69C95.3,336.84 96.91,335.91 98.82,335.91C100.65,335.92 102.26,336.88 103.66,338.79M102.48,339.77C101.52,337.85 100.31,336.9 98.83,336.9C97.19,336.9 95.96,338.05 95.14,340.35C94.55,342 94.25,343.89 94.25,346.01C94.25,348.4 94.67,350.44 95.51,352.13C96.35,353.82 97.48,354.67 98.92,354.67C100.31,354.67 101.47,353.83 102.4,352.15C103.33,350.47 103.8,348.41 103.8,345.96C103.82,343.62 103.37,341.56 102.48,339.77" style="fill:rgb(2,2,3);fill-rule:nonzero;stroke:rgb(2,2,3);stroke-width:1px;"/>
                    <path d="M117.13,336.5L117.13,337.56L113.37,337.56L113.37,355.11L111.19,355.11L111.19,337.56L107.33,337.56L107.33,336.5L117.13,336.5Z" style="fill:rgb(2,2,3);fill-rule:nonzero;stroke:rgb(2,2,3);stroke-width:1px;"/>
                    <path d="M128.6,336.41L128.6,337.6L122.22,337.6C121.85,337.6 121.68,337.93 121.68,338.57L121.68,344.81L127.27,344.81L127.27,345.73L121.68,345.73L121.68,352.06C121.68,352.5 121.78,352.95 121.99,353.38C122.2,353.83 122.51,354.05 122.95,354.05L128.54,354.05L128.54,355.11L121.48,355.11C120.93,355.11 120.5,354.84 120.2,354.31C119.89,353.78 119.74,353.17 119.74,352.49L119.74,339.19C119.74,338.46 119.89,337.81 120.2,337.26C120.51,336.71 120.83,336.44 121.18,336.44L128.6,336.41Z" style="fill:rgb(2,2,3);fill-rule:nonzero;stroke:rgb(2,2,3);stroke-width:1px;"/>
                    <path d="M132.64,338.9C133.88,336.88 135.41,335.87 137.23,335.87C139.46,335.87 141.14,337.14 142.28,339.67L141.5,340.02C141.18,338.96 140.66,338.13 139.94,337.54C139.22,336.95 138.42,336.65 137.53,336.65C136.12,336.65 134.97,337.58 134.09,339.44C133.29,341.12 132.89,343.09 132.89,345.36C132.89,348.1 133.35,350.3 134.27,351.95C135.19,353.6 136.35,354.43 137.74,354.43C138.65,354.43 139.48,354.15 140.21,353.59C140.95,353.02 141.48,352.22 141.8,351.16L141.94,350.72L142.55,351.6C141.94,352.78 141.22,353.72 140.4,354.43C139.58,355.14 138.68,355.49 137.7,355.49C135.79,355.49 134.15,354.54 132.8,352.64C131.45,350.73 130.77,348.4 130.77,345.63C130.78,343.17 131.4,340.92 132.64,338.9" style="fill:rgb(2,2,3);fill-rule:nonzero;stroke:rgb(2,2,3);stroke-width:1px;"/>
                    <path d="M148.45,336.8C148.83,337.15 149.15,337.6 149.41,338.14L155.22,350.27L155.22,336.59L156.14,336.59L156.14,354.5C156.14,354.73 156.05,354.97 155.86,355.21L155.62,355.21C155.46,355.24 155.37,355.24 155.35,355.21L147.53,339.11C147.48,339.05 147.31,338.83 147.01,338.46C146.99,338.43 146.94,338.37 146.88,338.28L146.47,338.81L146.47,355.08L145.58,355.08L145.58,338.29C145.58,337.67 145.74,337.18 146.06,336.83C146.38,336.48 146.78,336.3 147.25,336.3C147.67,336.27 148.06,336.45 148.45,336.8" style="fill:rgb(2,2,3);fill-rule:nonzero;stroke:rgb(2,2,3);stroke-width:1px;"/>
                    <path d="M162.01,330.57C162.33,330.57 162.6,330.72 162.83,331.02C163.06,331.32 163.17,331.68 163.17,332.1C163.17,332.52 163.06,332.88 162.83,333.17C162.6,333.47 162.33,333.62 162.01,333.62C161.69,333.62 161.42,333.47 161.19,333.17C160.96,332.88 160.85,332.51 160.85,332.1C160.85,331.68 160.97,331.32 161.19,331.02C161.42,330.72 161.69,330.57 162.01,330.57M161.05,355.11L163,355.11L163,336.59L161.06,336.59L161.06,355.11L161.05,355.11Z" style="fill:rgb(2,2,3);fill-rule:nonzero;stroke:rgb(2,2,3);stroke-width:1px;"/>
                    <path d="M172.96,336.58C173.23,336.9 173.44,337.33 173.58,337.86L178.25,355.1L176.12,355.11L174.54,349.8L168.52,349.8L167.38,355.09L166.31,355.1L170.34,337.55C170.43,337.11 170.62,336.73 170.9,336.43C171.18,336.11 171.51,335.96 171.88,335.96C172.26,335.97 172.63,336.17 172.96,336.58M170.77,339.67L168.71,348.82L174.35,348.82L171.82,339.49C171.7,339.11 171.55,338.92 171.34,338.92C171.05,338.93 170.87,339.17 170.77,339.67" style="fill:rgb(2,2,3);fill-rule:nonzero;stroke:rgb(2,2,3);stroke-width:1px;"/>
                    <path d="M186.22,336.4L191.1,350.49L195.9,336.4L196.83,336.41L188.02,363.28L187.09,363.28L190.03,354.19L184.29,336.41L186.22,336.4Z" style="fill:rgb(2,2,3);fill-rule:nonzero;stroke:rgb(2,2,3);stroke-width:1px;"/>
                    <path d="M212.93,327.12C213.95,327.12 215.11,327.66 216.41,328.72C218.17,330.17 219.04,332.08 219.04,334.44C219.04,336.51 218.47,338.26 217.32,339.69C216.17,341.13 214.9,341.84 213.51,341.84L207.5,341.84L207.5,355.1L205.18,355.1L205.18,327.11L212.93,327.11L212.93,327.12ZM207.51,340.61L212.97,340.61C213.59,340.61 214.29,340.06 215.09,338.97C216.05,337.68 216.53,336.16 216.53,334.42C216.53,332.74 216.11,331.37 215.27,330.31C214.29,329.1 213.2,328.5 212,328.5L207.53,328.5L207.51,340.61Z" style="fill:rgb(2,2,3);fill-rule:nonzero;stroke:rgb(2,2,3);stroke-width:1px;"/>
                    <path d="M224.33,336.41L224.33,349.28C224.33,350.43 224.68,351.51 225.39,352.53C226.1,353.55 227,354.06 228.09,354.06C229.11,354.06 229.92,353.53 230.51,352.47C231.02,351.58 231.26,350.52 231.26,349.29L231.26,336.4L232.18,336.4L232.18,349.35C232.18,350.97 231.75,352.39 230.9,353.59C230.05,354.8 228.98,355.4 227.71,355.4C226.17,355.4 224.88,354.85 223.85,353.76C222.74,352.58 222.18,351.02 222.18,349.07L222.18,336.4L224.33,336.41Z" style="fill:rgb(2,2,3);fill-rule:nonzero;stroke:rgb(2,2,3);stroke-width:1px;"/>
                    <path d="M238.87,324.51L238.87,336.49L240,336.49C242.48,336.49 244.53,337.2 246.14,338.62C248.05,340.3 249.01,342.72 249.01,345.88C249.01,348.36 248.44,350.49 247.3,352.26C246.07,354.16 244.5,355.1 242.59,355.1L236.65,355.1L236.65,324.5L238.87,324.51ZM239.57,337.66C239.31,337.74 239.07,337.77 238.87,337.77L238.87,354.22C239.32,354.31 239.76,354.35 240.17,354.35L240.62,354.35C242.8,354.35 244.44,353.53 245.54,351.87C246.47,350.45 246.94,348.56 246.94,346.2C246.94,343.66 246.36,341.58 245.18,339.97C244.01,338.36 242.34,337.56 240.18,337.56C240.03,337.56 239.83,337.59 239.57,337.66" style="fill:rgb(2,2,3);fill-rule:nonzero;stroke:rgb(2,2,3);stroke-width:1px;"/>
                    <path d="M254.88,324.07L254.88,352.58C254.88,353.59 255.19,354.09 255.8,354.09L257.61,354.09L257.61,355.1L254.13,355.1C253.88,355.1 253.58,354.91 253.24,354.52C252.9,354.14 252.73,353.73 252.73,353.28L252.73,324.06L254.88,324.07Z" style="fill:rgb(2,2,3);fill-rule:nonzero;stroke:rgb(2,2,3);stroke-width:1px;"/>
                    <path d="M261.16,330.57C261.47,330.57 261.75,330.72 261.98,331.02C262.21,331.32 262.32,331.68 262.32,332.1C262.32,332.52 262.21,332.88 261.98,333.17C261.75,333.47 261.48,333.62 261.16,333.62C260.84,333.62 260.57,333.47 260.34,333.17C260.11,332.88 260,332.51 260,332.1C260,331.68 260.11,331.32 260.34,331.02C260.57,330.72 260.84,330.57 261.16,330.57M260.2,355.11L262.14,355.11L262.14,336.59L260.2,336.59L260.2,355.11Z" style="fill:rgb(2,2,3);fill-rule:nonzero;stroke:rgb(2,2,3);stroke-width:1px;"/>
                    <path d="M267.76,338.9C269,336.88 270.53,335.87 272.35,335.87C274.58,335.87 276.26,337.14 277.4,339.67L276.62,340.02C276.3,338.96 275.78,338.13 275.06,337.54C274.34,336.95 273.54,336.65 272.65,336.65C271.24,336.65 270.1,337.58 269.2,339.44C268.4,341.12 268.01,343.09 268.01,345.36C268.01,348.1 268.47,350.3 269.39,351.95C270.31,353.6 271.47,354.43 272.85,354.43C273.76,354.43 274.59,354.15 275.33,353.59C276.07,353.02 276.6,352.22 276.92,351.16L277.06,350.72L277.68,351.6C277.06,352.78 276.35,353.72 275.53,354.43C274.71,355.14 273.81,355.49 272.83,355.49C270.92,355.49 269.29,354.54 267.93,352.64C266.57,350.73 265.9,348.4 265.9,345.63C265.9,343.17 266.52,340.92 267.76,338.9" style="fill:rgb(2,2,3);fill-rule:nonzero;stroke:rgb(2,2,3);stroke-width:1px;"/>
                    <path d="M281.95,330.57C282.27,330.57 282.54,330.72 282.77,331.02C283,331.32 283.11,331.68 283.11,332.1C283.11,332.52 283,332.88 282.77,333.17C282.54,333.47 282.27,333.62 281.95,333.62C281.63,333.62 281.36,333.47 281.13,333.17C280.9,332.88 280.79,332.51 280.79,332.1C280.79,331.68 280.9,331.32 281.13,331.02C281.36,330.72 281.62,330.57 281.95,330.57M280.99,355.11L282.93,355.11L282.93,336.59L280.99,336.59L280.99,355.11Z" style="fill:rgb(2,2,3);fill-rule:nonzero;stroke:rgb(2,2,3);stroke-width:1px;"/>
                    <path d="M298.81,324.64L298.81,355.11L294,355.11C292.34,355.11 290.76,354.33 289.26,352.76C287.47,350.9 286.56,348.46 286.56,345.45C286.56,342.7 287.27,340.5 288.68,338.85C289.97,337.34 291.52,336.59 293.32,336.59L296.73,336.5L296.73,324.65L298.81,324.64ZM293.28,337.69C292.26,337.69 291.29,338.3 290.38,339.51C289.31,340.93 288.77,342.79 288.77,345.1C288.77,348.47 289.58,350.9 291.19,352.41C292.44,353.59 294.15,354.18 296.31,354.18L296.72,354.18L296.72,337.69L293.28,337.69Z" style="fill:rgb(2,2,3);fill-rule:nonzero;stroke:rgb(2,2,3);stroke-width:1px;"/>
                    <path d="M308.64,336.58C308.91,336.9 309.12,337.33 309.25,337.86L313.93,355.1L311.8,355.11L310.21,349.8L304.2,349.8L303.06,355.09L301.99,355.1L306.02,337.55C306.11,337.11 306.3,336.73 306.58,336.43C306.86,336.11 307.19,335.96 307.55,335.96C307.93,335.97 308.3,336.17 308.64,336.58M306.45,339.67L304.38,348.82L310.02,348.82L307.49,339.49C307.37,339.11 307.21,338.92 307.01,338.92C306.72,338.93 306.54,339.17 306.45,339.67" style="fill:rgb(2,2,3);fill-rule:nonzero;stroke:rgb(2,2,3);stroke-width:1px;"/>
                    <path d="M327.82,324.64L327.82,355.11L323,355.11C321.34,355.11 319.76,354.33 318.26,352.76C316.46,350.9 315.56,348.46 315.56,345.45C315.56,342.7 316.27,340.5 317.68,338.85C318.97,337.34 320.53,336.59 322.32,336.59L325.73,336.5L325.73,324.65L327.82,324.64ZM322.29,337.69C321.27,337.69 320.3,338.3 319.39,339.51C318.32,340.93 317.78,342.79 317.78,345.1C317.78,348.47 318.59,350.9 320.21,352.41C321.46,353.59 323.17,354.18 325.33,354.18L325.74,354.18L325.74,337.69L322.29,337.69Z" style="fill:rgb(2,2,3);fill-rule:nonzero;stroke:rgb(2,2,3);stroke-width:1px;"/>
                </g>
            </g>
            <g>
                <g>
                    <path d="M283.72,72.91C282.87,71.99 281.95,71.14 281.1,70.15C280.82,69.94 280.61,69.73 280.47,69.45C280.4,69.38 280.33,69.24 280.33,69.16C280.26,69.09 280.26,69.02 280.26,68.95L280.26,68.81C280.26,68.74 280.33,68.67 280.33,68.67C280.47,68.6 280.61,68.6 280.75,68.6C281.24,68.67 281.67,68.81 282.09,69.02C283.15,69.45 284.21,70.15 284.84,71.21C284.98,71.35 285.05,71.63 285.12,71.84L285.12,72.13C285.12,72.2 285.05,72.27 285.05,72.34C284.91,72.55 284.77,72.7 284.62,72.76C284.35,72.84 284,72.91 283.72,72.91" style="fill:rgb(247,168,41);fill-rule:nonzero;"/>
                    <path d="M280.46,69.45C280.6,69.73 280.82,69.94 281.09,70.15C281.94,71.14 282.86,71.99 283.71,72.91C283.99,72.91 284.34,72.84 284.62,72.77C284.76,72.71 284.91,72.56 285.05,72.35C285.05,72.28 285.12,72.21 285.12,72.14L285.12,71.85C285.05,71.64 284.98,71.36 284.84,71.22C284.2,70.16 283.14,69.46 282.09,69.03C281.67,68.82 281.24,68.68 280.75,68.61C280.61,68.61 280.46,68.61 280.33,68.68C280.33,68.68 280.26,68.75 280.26,68.82L280.26,68.96C280.26,69.03 280.26,69.1 280.33,69.17C280.33,69.24 280.4,69.38 280.46,69.45Z" style="fill:rgb(247,168,41);fill-rule:nonzero;"/>
                    <path d="M256.53,55.11C256.6,55.18 256.67,55.25 256.74,55.25C256.95,55.39 257.24,55.46 257.45,55.53C258.29,55.74 259.07,55.81 259.91,56.02C264.64,57.15 267.39,61.67 271.99,63.15L271.99,62.52C272.35,62.3 272.76,62.09 272.91,61.67C272.98,61.53 273.05,61.31 273.05,61.18C273.05,60.97 272.97,60.75 272.91,60.62C272.69,60.19 272.41,59.77 272.13,59.41C271.71,58.99 271.22,58.56 270.72,58.21C268.6,56.59 266.26,55.53 264,54.26C263.01,53.76 261.88,53.69 260.83,53.62C259.7,53.62 258.57,53.76 257.51,54.04C257.16,54.11 256.8,54.26 256.52,54.47C256.45,54.54 256.38,54.68 256.3,54.76L256.3,54.9C256.3,54.97 256.38,54.97 256.38,55.04C256.46,55.04 256.53,55.11 256.53,55.11Z" style="fill:rgb(247,168,41);fill-rule:nonzero;"/>
                    <path d="M250.46,71.71C251.16,71.36 251.8,70.79 252.29,70.16L251.1,68.89C250.88,69.1 250.67,69.31 250.46,69.52C249.75,70.3 249.19,71.28 248.69,72.34C248.97,72.2 249.33,72.13 249.68,72.06C249.96,71.99 250.24,71.85 250.46,71.71Z" style="fill:rgb(247,168,41);fill-rule:nonzero;"/>
                    <g>
                        <path d="M182.24,105.82C183.23,105.82 184.22,105.89 185.21,105.89C190.64,106.17 196.22,106.6 201.73,106.39C211.76,106.03 220.73,103.78 230.48,101.44C231.19,101.3 231.88,101.16 232.59,101.02C243.25,98.4 251.58,95.37 257.09,92.97C249.32,97.34 241.48,100.67 233.08,103.42C226.79,105.47 220.37,107.16 213.94,108.58C204.4,110.63 195.02,111.26 185.34,110.76C184.07,110.69 182.87,110.62 181.59,110.48C180.74,110.42 179.97,110.27 179.12,110.06C178.91,109.92 178.69,109.85 178.48,109.71C178.34,109.64 178.2,109.5 178.06,109.36C178,109.28 178,109.14 178,109C178,108.86 178,108.72 178.07,108.64C178.21,108.29 178.49,108.01 178.78,107.8C179.76,107.02 181.03,106.31 182.24,105.82M264.72,89.01C264.44,89.01 262.54,89.86 258.92,91.98C258.29,92.33 257.73,92.69 257.09,92.97C261.75,90.99 264.36,89.44 264.72,89.08L264.72,89.01Z" style="fill:rgb(247,168,41);fill-rule:nonzero;"/>
                        <path d="M124.75,98.62C114.73,97.49 105.75,94.24 96.5,90.22C92.9,88.59 89.29,86.83 85.76,84.99C80.67,82.31 75.87,79.34 70.86,76.44C69.8,75.81 68.68,75.38 67.47,75.11C66.7,74.96 65.77,74.89 64.93,75.11C64.72,75.18 64.43,75.32 64.22,75.46C64.15,75.6 64.15,75.68 64.08,75.74L64.08,76.1C64.15,76.45 64.36,76.73 64.57,76.95C64.93,77.37 65.42,77.73 65.84,78.01C71.2,81.4 76.43,85.07 81.73,88.39C82.65,88.96 83.5,89.45 84.41,89.94C91.96,93.9 100.23,97.5 108.35,99.83C114.92,101.74 121.98,102.66 128.76,103.36C127.37,101.72 126.02,100.17 124.75,98.62" style="fill:rgb(247,168,41);fill-rule:nonzero;"/>
                        <path d="M182.24,105.82C183.23,105.82 184.22,105.89 185.21,105.89C190.64,106.17 196.22,106.6 201.73,106.39C211.76,106.03 220.73,103.78 230.48,101.44C231.19,101.3 231.88,101.16 232.59,101.02C243.25,98.4 251.58,95.37 257.09,92.97C249.32,97.34 241.48,100.67 233.08,103.42C226.79,105.47 220.37,107.16 213.94,108.58C204.4,110.63 195.02,111.26 185.34,110.76C184.07,110.69 182.87,110.62 181.59,110.48C180.74,110.42 179.97,110.27 179.12,110.06C178.91,109.92 178.69,109.85 178.48,109.71C178.34,109.64 178.2,109.5 178.06,109.36C178,109.28 178,109.14 178,109C178,108.86 178,108.72 178.07,108.64C178.21,108.29 178.49,108.01 178.78,107.8C179.76,107.02 181.03,106.31 182.24,105.82M264.72,89.01C264.44,89.01 262.54,89.86 258.92,91.98C258.29,92.33 257.73,92.69 257.09,92.97C261.75,90.99 264.36,89.44 264.72,89.08L264.72,89.01Z" style="fill:rgb(247,168,41);fill-rule:nonzero;"/>
                        <path d="M124.75,98.62C114.73,97.49 105.75,94.24 96.5,90.22C92.9,88.59 89.29,86.83 85.76,84.99C80.67,82.31 75.87,79.34 70.86,76.44C69.8,75.81 68.68,75.38 67.47,75.11C66.7,74.96 65.77,74.89 64.93,75.11C64.72,75.18 64.43,75.32 64.22,75.46C64.15,75.6 64.15,75.68 64.08,75.74L64.08,76.1C64.15,76.45 64.36,76.73 64.57,76.95C64.93,77.37 65.42,77.73 65.84,78.01C71.2,81.4 76.43,85.07 81.73,88.39C82.65,88.96 83.5,89.45 84.41,89.94C91.96,93.9 100.23,97.5 108.35,99.83C114.92,101.74 121.98,102.66 128.76,103.36C127.37,101.72 126.02,100.17 124.75,98.62" style="fill:rgb(247,168,41);fill-rule:nonzero;"/>
                        <path d="M299.89,105.26C299.6,104.48 299.1,104.06 298.34,104.06C297.35,104.06 296.29,104.77 295.51,105.33C294.02,106.39 292.54,107.66 291.12,108.86C290.56,109.43 289.99,109.99 289.43,110.63C288.72,111.34 288.02,112.11 287.38,112.89C285.83,114.65 284.34,116.35 282.72,118.04C281.03,119.8 279.26,121.57 277.42,123.13C277.35,123.2 277.2,123.27 277.13,123.34C277.07,123.41 276.92,123.41 276.86,123.48L276.64,123.48C276.57,123.48 276.5,123.48 276.43,123.41C276.21,123.27 276.07,122.92 276.01,122.56C275.72,121.64 275.65,120.58 275.31,119.66C275.16,119.23 274.95,118.88 274.67,118.6C274.45,118.53 274.31,118.46 274.11,118.39C273.91,118.39 273.62,118.46 273.4,118.53C273.12,118.67 272.76,118.81 272.48,119.02C272.13,119.23 271.72,119.59 271.35,119.87C270.22,120.86 269.23,121.99 268.17,123.05C265.07,126.29 260.97,128.63 257.09,130.53C254.9,131.59 252.71,132.58 250.46,133.43C247,134.77 243.39,135.83 239.79,136.74C232.09,138.65 224.33,139.7 216.42,139.92C213.31,139.99 210.13,139.85 207.1,139.42C204.98,139.07 202.79,138.65 200.89,137.66C200.68,137.6 200.53,137.52 200.32,137.52C200.04,137.45 199.76,137.38 199.48,137.38C198.63,137.31 197.85,137.31 197.01,137.31C195.17,137.31 193.35,137.31 191.43,137.24C190.72,137.17 190.1,137.17 189.38,137.03C189.17,136.96 188.96,136.96 188.75,136.89C188.75,136.83 188.68,136.83 188.61,136.75C188.61,136.75 188.55,136.68 188.55,136.61C188.55,136.61 188.55,136.54 188.61,136.48C188.61,136.41 188.68,136.41 188.75,136.33C188.96,136.19 189.24,136.04 189.52,135.98C190.58,135.48 191.71,135.13 192.77,134.85C200.05,132.87 207.67,132.1 215.16,131.53C222.93,130.97 230.91,130.54 238.75,131.39C239.8,131.46 240.86,131.67 241.92,131.89C242.91,132.1 243.89,132.03 244.89,131.82C246.16,131.61 247.43,131.19 248.56,130.69C249.2,130.41 249.83,130.06 250.47,129.77C252.86,128.57 255.19,127.09 257.46,125.6C264.45,120.8 270.95,115.29 277.37,109.64C279.63,107.66 281.82,105.61 284.01,103.64C286.21,101.66 288.46,99.61 290.65,97.64C291.07,97.28 291.5,96.79 291.85,96.29C292.77,94.94 293.4,93.47 293.9,91.91C294.39,90.14 294.75,88.16 294.82,86.33C294.89,82.66 294.26,79.2 292.71,75.88C292.14,74.61 291.29,73.41 290.38,72.42C289.89,71.85 289.11,71.22 288.4,71.15C288.19,71.08 287.98,71.15 287.84,71.37C287.76,71.44 287.7,71.58 287.7,71.65C287.62,71.86 287.62,72 287.62,72.14C287.55,72.71 287.62,73.2 287.7,73.69L288.12,76.02C288.26,76.8 288.4,77.5 288.47,78.28C288.9,81.53 288.9,84.71 287.76,87.82C287.62,88.17 287.41,88.52 287.2,88.88C287.05,89.16 286.85,89.38 286.64,89.58C286.29,89.86 285.86,90.07 285.44,90.01C283.33,89.66 281.41,87.82 278.94,87.4C278.8,87.33 278.66,87.33 278.52,87.33C278.03,87.26 277.47,87.11 277.04,86.83L276.97,86.76C276.9,86.69 276.9,86.62 276.9,86.62L276.9,86.48C276.97,86.41 276.97,86.34 277.04,86.34C277.97,85.28 279.02,84.65 279.94,83.51C280.64,82.59 281.13,81.53 281.42,80.4C281.84,78.98 281.84,77.64 281.56,76.23C281.49,76.02 281.49,75.73 281.42,75.52C280.29,72.28 278.45,70.08 275.42,68.95C273.23,68.1 270.9,68.1 268.65,67.82C267.09,67.68 265.68,67.32 264.34,66.55C263.64,66.05 262.93,65.42 262.37,64.78C261.59,63.86 260.88,62.87 260.32,61.81C260.18,61.67 260.11,61.53 259.96,61.39C259.82,61.31 259.69,61.17 259.54,61.1C259.19,60.89 258.76,60.82 258.41,60.75C257.5,60.61 256.58,60.75 255.73,60.96C254.95,61.17 254.17,61.52 253.54,62.01C253.33,62.23 253.11,62.44 252.97,62.72C252.97,62.79 252.9,62.94 252.97,63.08C252.97,63.15 252.97,63.29 253.04,63.43C253.33,63.86 253.81,64.28 254.17,64.64C254.95,65.35 255.65,65.98 256.43,66.61C258.41,68.3 260.31,70 262.15,71.83C263.63,73.39 265.12,75.01 266.53,76.7C267.23,77.48 268.08,78.68 267.38,79.81C267.38,79.81 267.31,79.87 267.24,79.87L267.17,79.87L267.17,79.81C266.19,79.24 265.27,78.74 264.35,78.25C264.28,78.25 264.28,78.18 264.21,78.18L264.14,78.11L264.14,78.04C264.21,77.97 264.28,77.83 264.35,77.76C264.42,77.62 264.49,77.48 264.42,77.34C264.35,76.7 263.01,76.78 262.59,76.78C259.83,76.71 257.36,76.15 254.61,76.5C253.55,76.57 252.49,76.93 251.57,77.35C251.21,77.49 250.86,77.7 250.51,77.92C249.94,78.27 249.38,78.7 248.88,79.19C248.6,79.4 248.31,79.69 248.11,80.04C247.89,80.26 247.75,80.46 247.61,80.75C247.61,80.89 247.33,81.74 247.19,81.24C246.98,80.11 247.12,78.42 247.33,77.29C247.54,75.73 247.97,73.9 248.74,72.34C241.82,74.32 235.4,78.35 228.48,80.6C224.3,81.94 219.99,82.58 215.62,82.37C210.96,82.09 206.79,82.72 202.27,83.79C197.61,84.92 193.09,86.05 188.36,86.4C187.16,86.54 185.88,86.4 184.76,86.4C183.42,86.33 182.15,86.33 180.88,86.26C177.84,86.12 174.81,85.98 171.77,85.84C169.87,85.77 168.02,85.7 166.12,85.77C165.56,85.84 164.99,85.84 164.42,85.99C164.29,85.99 164.07,86.06 163.93,86.13L163.79,86.27L163.73,86.34C163.73,86.48 163.73,86.62 163.79,86.77C163.79,86.91 163.93,87.05 164,87.19C164.36,87.47 164.78,87.69 165.2,87.83C166.61,88.32 168.16,88.53 169.72,88.6C173.39,88.96 177.14,88.96 180.88,88.81C182.15,88.81 183.5,88.74 184.76,88.67C192.46,88.24 200.01,87.46 207.64,86.83C210.61,86.55 213.58,86.33 216.47,86.33C217.52,86.33 218.58,86.4 219.65,86.61C220.36,86.75 221.07,86.96 221.7,87.39L221.77,87.46L221.77,87.6C221.7,87.67 221.7,87.74 221.63,87.82C221.55,87.89 221.49,87.96 221.34,87.96C220.71,88.38 219.99,88.59 219.29,88.88C216.53,89.79 213.72,90.43 210.96,91C202.34,92.69 193.66,93.68 184.97,94.32C183.56,94.46 182.22,94.53 180.87,94.6C176.78,94.88 172.75,95.02 168.72,95.16C166.25,95.23 162.93,95.02 160.59,95.72C160.03,95.86 159.54,95.94 158.97,95.94C158.55,95.94 158.12,95.8 157.7,95.58C156.93,95.23 156.36,94.59 155.73,93.96C155.59,93.75 155.37,93.6 155.09,93.53C155.03,93.46 154.88,93.39 154.81,93.39C154.24,93.11 153.67,92.97 153.11,92.76C151.27,92.27 149.5,91.92 147.68,91.56C142.03,90.5 136.38,89.58 130.73,88.59C116.25,85.98 101.78,82.87 87.72,78.21C78.05,74.96 68.3,71 59.62,65.29C58.77,64.72 58,63.95 57.29,63.17C55.38,61.27 53.97,58.86 52.13,56.96C51.99,56.75 51.71,56.61 51.43,56.54C51.07,56.47 50.72,56.54 50.44,56.61C49.95,56.75 49.45,56.96 48.96,57.11C48.25,57.39 47.61,57.74 46.91,58.09C46.91,58.16 46.84,58.23 46.77,58.23C46.7,58.3 46.63,58.37 46.63,58.44C46.49,58.65 46.35,58.86 46.35,59.08C46.06,59.93 46.13,60.84 46.28,61.62C46.91,65.37 49.25,69.03 51.58,71.79L64.93,84.29C59.7,81.4 54.9,77.58 50.6,73.27C47.84,70.59 45.16,67.62 42.83,64.51C41.48,62.74 41.7,61.47 41.77,59.43C41.77,59.22 41.7,59.01 41.56,58.79C41.42,58.58 41.13,58.51 40.93,58.51C40.5,58.36 40.01,58.36 39.51,58.36C38.73,58.36 37.96,58.43 37.18,58.51C36.76,58.51 36.33,58.65 35.99,58.94C35.7,59.15 35.42,59.5 35.21,59.93C34.79,60.85 34.72,62.04 34.86,63.11C35.14,65.44 35.99,67.06 36.7,69.18C36.7,69.25 36.77,69.32 36.77,69.32L36.77,69.39L36.7,69.46L36.62,69.46C36.55,69.46 36.48,69.39 36.41,69.39C35.92,68.96 35.42,68.4 34.93,67.83C34.65,67.55 34.36,67.2 34.01,66.91C33.87,66.77 33.58,66.63 33.37,66.63C33.16,66.63 32.95,66.77 32.81,66.91C32.67,67.05 32.53,67.33 32.46,67.62C32.04,69.17 32.24,70.87 32.53,72.42C32.6,72.84 32.67,73.27 32.74,73.62C34.29,79.06 37.05,84.14 40.58,88.31C50.75,100.53 63.82,108.3 77.66,114.58C82.74,116.91 87.97,118.67 93.19,120.66L117.41,132.24C103.57,129.91 88.95,126.45 75.96,120.66C70.24,118.11 64.95,114.73 60,110.7C52.37,104.56 45.17,98.91 38.39,91.64C36.34,89.38 34.37,86.97 32.46,84.58C31.9,83.8 31.26,83.02 30.62,82.32C30.48,82.11 30.27,81.89 30.06,81.68C29.99,81.62 29.92,81.54 29.85,81.54C29.78,81.47 29.7,81.47 29.64,81.47L29.57,81.54L29.57,81.75C29.57,81.97 29.64,82.25 29.71,82.46C30.07,83.38 30.56,84.3 30.98,85.14C32.67,88.18 34.79,91.14 37.05,93.69C47.64,105.69 61.34,115.86 75.54,122.22C75.68,122.29 75.82,122.36 75.96,122.43C94.54,128.86 112.26,137.97 130.76,144.33C132.17,144.82 133.58,145.32 135.06,145.74C141.63,147.86 148.34,149.41 155.12,150.54C162.54,151.74 170.09,152.45 177.58,152.8C178.7,152.8 179.77,152.87 180.9,152.94C182.81,153.02 184.72,153.09 186.61,153.23C197.56,154 208.37,155.35 219.17,157.4C220.38,157.61 221.57,157.89 222.77,158.1C222.91,158.17 223.06,158.17 223.19,158.17C223.41,158.32 223.69,158.39 223.91,158.46C224.47,158.67 225.1,158.88 225.67,158.95C226.23,159.09 226.74,159.09 227.29,159.02C227.93,158.95 228.5,158.81 229.13,158.59C229.84,158.39 230.62,158.03 231.32,157.68C233.72,156.55 236.06,155.28 238.38,153.94C239.86,153.16 241.34,152.46 242.9,151.89C245.16,151.04 247.42,150.55 249.75,150.19C250.03,150.19 250.25,150.12 250.53,150.12C252.5,149.84 254.48,149.69 256.46,149.49C258.93,149.2 261.34,148.78 263.66,148.07C266.48,147.3 269.17,146.09 271.71,144.47C275.66,141.99 279.48,139.03 283.43,136.42C285.97,134.65 288.3,132.32 290.28,129.85C295.08,123.92 299.33,116.57 300.24,108.66C300.31,107.58 300.24,106.17 299.89,105.26ZM158.65,126.58C158.65,126.65 158.58,126.65 158.58,126.72C158.44,126.79 158.23,126.86 158.01,126.93C157.1,127.14 156.11,127.29 155.05,127.29C153.78,127.43 152.44,127.36 151.24,127.36C149.76,127.36 148.34,127.15 146.93,126.73C145.65,126.38 144.46,125.81 143.26,125.32C141.99,124.76 140.79,124.26 139.52,123.83C138.03,123.41 136.62,123.27 135.14,123.2C133.93,123.06 132.39,122.92 130.69,122.64C121.79,121.37 107.74,118.19 102.65,114.45C102.09,114.09 105.69,115.02 108.16,115.36C109.22,115.57 110.35,115.72 111.4,115.79C111.76,115.86 112.11,115.93 112.53,115.93L113.03,115.93C118.89,117.06 124.82,118.41 130.68,119.81C135.06,120.8 139.44,121.79 143.81,122.7C147.42,123.41 151.37,123.97 155.04,125.03C155.96,125.25 156.88,125.53 157.79,125.88C158,125.95 158.22,126.02 158.43,126.16C158.5,126.23 158.5,126.23 158.57,126.3C158.64,126.37 158.64,126.37 158.64,126.44L158.65,126.58ZM155.04,110.13C153.77,110.2 152.43,110.2 151.16,110.13C149.46,110.06 147.76,109.85 146.21,109.35C145.58,109.14 144.94,108.85 144.37,108.5C143.87,108.22 143.45,107.86 143.17,107.44C142.96,107.16 142.88,106.73 142.88,106.38C142.88,105.95 142.95,105.53 143.1,105.11C143.17,104.76 143.24,104.4 143.31,104.05C143.38,103.98 143.38,103.91 143.38,103.84L143.45,103.84C143.45,103.98 143.6,103.98 143.67,104.05C144.09,104.26 144.59,104.33 144.94,104.48C146.42,104.83 147.97,105.04 149.45,105.18C151.29,105.4 153.19,105.67 155.03,105.82C155.74,105.82 156.44,105.89 157.15,105.89C159.62,105.89 162.03,105.89 164.5,106.11C165.13,106.18 165.77,106.32 166.33,106.46C166.47,106.53 166.68,106.6 166.82,106.67C166.89,106.74 167.03,106.81 167.1,106.95L167.1,107.16C167.03,107.3 166.96,107.37 166.89,107.44C166.61,107.72 166.26,107.93 165.9,108.07C164.7,108.57 163.43,108.92 162.16,109.2C159.85,109.7 157.45,109.99 155.04,110.13ZM185.83,128.77C184.14,128.98 182.44,129.19 180.82,129.33C176.16,129.68 171.57,129.9 166.98,129.76C166.63,129.76 166.27,129.76 165.99,129.62C165.78,129.55 165.57,129.41 165.43,129.27C165.14,128.92 165.01,128.56 164.86,128.14C164.79,127.72 164.72,127.29 164.58,126.94C164.51,126.8 164.36,126.66 164.23,126.52C164.08,126.38 163.87,126.31 163.67,126.31L180.82,126.52L185.76,126.59C189.58,126.59 193.46,126.37 197.27,126.37C201.23,126.37 186.4,128.7 185.83,128.77Z" style="fill:rgb(247,168,41);fill-rule:nonzero;"/>
                    </g>
                </g>
                <g>
                    <path d="M277.14,207.16L277.14,204.12L280.25,204.12C282.29,204.12 284.62,202.71 287.31,199.88C290.42,196.56 292.04,192.75 292.04,188.3C292.04,184 290.7,180.54 287.94,177.92C284.76,174.74 281.16,173.19 277.13,173.12L277.13,169.66L280.17,169.66C285.26,169.66 290.2,171.85 294.94,176.23C298.54,179.48 300.37,183.57 300.37,188.3C300.37,193.53 298.46,197.98 294.65,201.65C290.84,205.33 286.67,207.16 282.08,207.16L277.14,207.16ZM90.71,227C88.52,232.15 84.92,236.04 79.91,238.78C75.32,241.26 70.09,242.46 64.31,242.46C54.14,242.46 45.59,238.5 38.67,230.59C32.11,223.1 28.85,214.34 28.85,204.39C28.85,194.78 32.1,186.38 38.52,179.1C45.37,171.4 53.92,167.59 64.09,167.59C69.53,167.59 74.61,168.93 79.48,171.69C84.36,174.44 87.81,178.33 89.79,183.27L85.84,185.1C84.21,180.51 81.39,176.91 77.36,174.37C73.33,171.83 68.96,170.56 64.3,170.56C56.6,170.56 50.24,173.6 45.3,179.74C40.29,185.89 37.74,193.87 37.74,203.75C37.74,213.07 39.79,220.98 43.96,227.48C48.9,235.32 56.03,239.21 65.28,239.21C69.6,239.21 73.69,237.93 77.64,235.39C81.53,232.92 84.49,229.38 86.53,224.94L86.75,224.37L90.71,227ZM277.14,169.66L277.14,173.12L262.24,173.12L262.24,204.12L277.14,204.12L277.14,207.16L262.24,207.16L262.24,240.91L254.55,240.91L254.55,169.66L277.14,169.66ZM151.8,223.25C151.8,227.99 149.82,232.37 145.87,236.39C141.85,240.35 136.48,242.4 129.83,242.4C122.63,242.4 116.84,240.56 112.39,236.82C106.88,232.3 104.2,227.35 104.2,221.92L104.2,169.45L111.61,169.45L111.61,217.76C111.61,221.79 112.82,225.81 115.14,229.83C118.53,235.7 123.34,238.67 129.55,238.67C136.18,238.67 141.12,236.13 144.38,230.96C146.57,227.5 147.63,223.97 147.63,220.51L147.63,169.45L151.79,169.45L151.8,223.25ZM234.92,240.91L227.43,240.91L227.43,177.99L201.23,243.17L174.68,178.91L174.68,240.91L170.3,240.91L170.3,169.66L179.55,169.66L203.21,227.14L226.3,169.66L234.92,169.66L234.92,240.91Z" style="fill:rgb(2,2,3);fill-rule:nonzero;"/>
                    <rect x="27.23" y="251.51" width="273.86" height="10.66" style="fill:rgb(247,168,41);"/>
                </g>
                <path d="M277.14,207.16L277.14,204.12L280.25,204.12C282.29,204.12 284.62,202.71 287.31,199.88C290.42,196.56 292.04,192.75 292.04,188.3C292.04,184 290.7,180.54 287.94,177.92C284.76,174.74 281.16,173.19 277.13,173.12L277.13,169.66L280.17,169.66C285.26,169.66 290.2,171.85 294.94,176.23C298.54,179.48 300.37,183.57 300.37,188.3C300.37,193.53 298.46,197.98 294.65,201.65C290.84,205.33 286.67,207.16 282.08,207.16L277.14,207.16ZM90.71,227C88.52,232.15 84.92,236.04 79.91,238.78C75.32,241.26 70.09,242.46 64.31,242.46C54.14,242.46 45.59,238.5 38.67,230.59C32.11,223.1 28.85,214.34 28.85,204.39C28.85,194.78 32.1,186.38 38.52,179.1C45.37,171.4 53.92,167.59 64.09,167.59C69.53,167.59 74.61,168.93 79.48,171.69C84.36,174.44 87.81,178.33 89.79,183.27L85.84,185.1C84.21,180.51 81.39,176.91 77.36,174.37C73.33,171.83 68.96,170.56 64.3,170.56C56.6,170.56 50.24,173.6 45.3,179.74C40.29,185.89 37.74,193.87 37.74,203.75C37.74,213.07 39.79,220.98 43.96,227.48C48.9,235.32 56.03,239.21 65.28,239.21C69.6,239.21 73.69,237.93 77.64,235.39C81.53,232.92 84.49,229.38 86.53,224.94L86.75,224.37L90.71,227ZM277.14,169.66L277.14,173.12L262.24,173.12L262.24,204.12L277.14,204.12L277.14,207.16L262.24,207.16L262.24,240.91L254.55,240.91L254.55,169.66L277.14,169.66ZM151.8,223.25C151.8,227.99 149.82,232.37 145.87,236.39C141.85,240.35 136.48,242.4 129.83,242.4C122.63,242.4 116.84,240.56 112.39,236.82C106.88,232.3 104.2,227.35 104.2,221.92L104.2,169.45L111.61,169.45L111.61,217.76C111.61,221.79 112.82,225.81 115.14,229.83C118.53,235.7 123.34,238.67 129.55,238.67C136.18,238.67 141.12,236.13 144.38,230.96C146.57,227.5 147.63,223.97 147.63,220.51L147.63,169.45L151.79,169.45L151.8,223.25ZM234.92,240.91L227.43,240.91L227.43,177.99L201.23,243.17L174.68,178.91L174.68,240.91L170.3,240.91L170.3,169.66L179.55,169.66L203.21,227.14L226.3,169.66L234.92,169.66L234.92,240.91Z" style="fill:rgb(2,2,3);fill-rule:nonzero;"/>
                <rect x="27.23" y="251.51" width="273.86" height="10.66" style="fill:rgb(247,168,41);"/>
                <path d="M104.33,0C85.11,0 69.52,15.59 69.52,34.81C69.52,54.04 85.11,69.62 104.33,69.62C123.55,69.62 139.14,54.03 139.14,34.81C139.14,15.59 123.56,0 104.33,0ZM121.36,25.56C117.46,25.56 114.29,22.39 114.29,18.49C114.29,14.59 117.45,11.42 121.36,11.42C125.27,11.42 128.43,14.59 128.43,18.49C128.42,22.4 125.26,25.56 121.36,25.56Z" style="fill:rgb(2,2,3);fill-rule:nonzero;"/>
            </g>
        </g>
    </g>
</svg>
