<?xml version="1.0" encoding="utf-8"?>
<!-- Generator: Adobe Illustrator 19.2.0, SVG Export Plug-In . SVG Version: 6.00 Build 0)  -->
<svg version="1.1" id="Layer_1" xmlns="http://www.w3.org/2000/svg" xmlns:xlink="http://www.w3.org/1999/xlink" x="0px" y="0px"
	 viewBox="0 0 1755.7 549.1" style="enable-background:new 0 0 1755.7 549.1;" xml:space="preserve">
<style type="text/css">
	.st0{fill:#6A6C6C;}
	.st1{fill:#0F519E;}
	.st2{fill:#01A3DC;}
	.st3{fill:#E70A46;}
</style>
<g>
	<g>
		<path class="st0" d="M1132.1,497.1c-0.6,8.7-5.8,13.5-14.5,13.5c-8.1,0-13.3-5.3-13.3-14.8v-13.7c0-9.5,5.4-14.8,13.4-14.8
			c8.3,0,13.8,5.3,13.8,14.8v9.2H1109v4.5c0,7,3.3,10.2,8.8,10.2c6,0,9-2.8,9.6-8.9H1132.1z M1109,482.2v4.8h17.9v-4.8
			c0-6.9-3.4-10.2-9.1-10.2C1112.4,472,1109,475.3,1109,482.2z"/>
		<path class="st0" d="M1159.8,509.9l-9.2-16.9l-9.2,16.9h-5.4l11.9-20.7l-11.4-20.8h5.3l8.8,16.3l8.8-16.3h5.3l-11.3,20.8
			l11.8,20.7H1159.8z"/>
		<path class="st0" d="M1169.9,495.9v-13.7c0-9.5,5.3-14.8,13.3-14.8c8.2,0,13.4,5.3,13.7,14.8h-4.7c-0.2-6.9-3.4-10.2-8.9-10.2
			c-5.3,0-8.5,3.2-8.5,10.2v13.7c0,7,3.2,10.2,8.5,10.2c5.5,0,8.8-3.2,9-10.2h4.7c-0.2,9.5-5.5,14.8-13.7,14.8
			C1175.2,510.7,1169.9,505.4,1169.9,495.9z"/>
		<path class="st0" d="M1231.2,484.8v25h-4.7v-24.6c0-9.6-2.4-13.4-7.7-13.4c-5.8,0-9.6,4.8-9.6,13v25h-4.7V453h4.7v20.6
			c2.1-3.7,5.7-6.2,10.7-6.2C1227.1,467.5,1231.2,472.7,1231.2,484.8z"/>
		<path class="st0" d="M1266,481.2v28.7h-4l-0.4-3.9c-1.9,2.8-5,4.8-9.6,4.8c-7.6,0-13.1-4.7-13.1-12.7c0-8,5.1-12.4,14.2-12.4h8.2
			v-4.4c0-6.1-2.8-9.3-8.2-9.3c-4.7,0-8,2.7-8.3,7.3h-4.7c0.3-7.1,5.5-11.8,13.1-11.8C1261.2,467.5,1266,472.7,1266,481.2z
			 M1261.3,498.2V490h-8.4c-6.1,0-9.3,2.8-9.3,8.1c0,5.4,3.7,8.1,9.1,8.1C1258,506.2,1261.3,502.9,1261.3,498.2z"/>
		<path class="st0" d="M1303,483.3v26.5h-4.7V484c0-8.4-2.2-12.2-7.7-12.2c-5.8,0-9.6,4.8-9.6,12.9v25.1h-4.7v-41.5h3.9l0.8,5.1
			c2.1-3.7,5.7-6.1,10.7-6.1C1298.6,467.5,1303,472,1303,483.3z"/>
		<path class="st0" d="M1339.1,468.4v44.3c0,7.4-5.2,12.4-13.2,12.4c-7.7,0-12.8-4.7-13.2-12h4.5c0.4,5,3.5,7.7,8.7,7.7
			c5.3,0,8.5-3,8.5-8.1v-8.1c-2.1,2.6-5.3,4-9.2,4c-8,0-13.4-5.3-13.4-14.8v-10.7c0-10.3,5.4-15.7,13.2-15.7c4,0,7.3,1.8,9.5,5.1
			l0.6-4.2H1339.1z M1334.4,493.8v-11.5c0-7.2-3.8-10.5-8.4-10.5c-5.8,0-9.4,3.3-9.4,11.3v10.7c0,7,3.6,10.4,9.4,10.4
			C1331.3,504.2,1334.4,500.9,1334.4,493.8z"/>
		<path class="st0" d="M1376.3,497.1c-0.6,8.7-5.8,13.5-14.5,13.5c-8.1,0-13.3-5.3-13.3-14.8v-13.7c0-9.5,5.4-14.8,13.4-14.8
			c8.3,0,13.8,5.3,13.8,14.8v9.2h-22.5v4.5c0,7,3.3,10.2,8.8,10.2c6,0,9-2.8,9.6-8.9H1376.3z M1353.2,482.2v4.8h17.8v-4.8
			c0-6.9-3.4-10.2-9.1-10.2C1356.5,472,1353.2,475.3,1353.2,482.2z"/>
		<path class="st0" d="M1430.2,483.3v11.9c0,10.3-4.9,15.6-12.9,15.6c-3.7,0-7.3-1.5-9.6-4.7v17.9h-4.6v-55.7h3.8l0.6,3.9
			c2.2-3.1,5.8-4.8,9.8-4.8C1424.9,467.5,1430.2,472.8,1430.2,483.3z M1425.5,483.3c0-8.1-3.4-11.5-9.2-11.5
			c-4.7,0-8.6,3.6-8.6,11.4v12.1c0,6.6,3.4,11.2,8.6,11.2c6.1,0,9.2-3.3,9.2-11.2V483.3z"/>
		<path class="st0" d="M1459.3,467.9v5.1c-1.5-0.5-3.2-0.9-5.2-0.9c-5.9,0-9.8,4.7-9.8,12.6v25.1h-4.7v-41.5h3.9l0.8,5.2v0.1
			c2.1-3.7,5.7-6.2,10.8-6.2C1456.7,467.5,1458,467.6,1459.3,467.9z"/>
		<path class="st0" d="M1464.1,495.8v-13.4c0-9.7,5.5-15,13.8-15c8.3,0,13.8,5.3,13.8,15v13.4c0,9.7-5.5,15-13.8,15
			C1469.6,510.8,1464.1,505.5,1464.1,495.8z M1487,495.8v-13.4c0-7.2-3.5-10.4-9.1-10.4c-5.6,0-9.1,3.2-9.1,10.4v13.4
			c0,7.2,3.5,10.4,9.1,10.4C1483.5,506.2,1487,503,1487,495.8z"/>
		<path class="st0" d="M1527.3,468.4v44.3c0,7.4-5.2,12.4-13.2,12.4c-7.7,0-12.8-4.7-13.2-12h4.5c0.4,5,3.6,7.7,8.7,7.7
			c5.3,0,8.5-3,8.5-8.1v-8.1c-2.1,2.6-5.3,4-9.2,4c-8,0-13.3-5.3-13.3-14.8v-10.7c0-10.3,5.4-15.7,13.2-15.7c4,0,7.3,1.8,9.5,5.1
			l0.6-4.2H1527.3z M1522.6,493.8v-11.5c0-7.2-3.8-10.5-8.4-10.5c-5.9,0-9.4,3.3-9.4,11.3v10.7c0,7,3.5,10.4,9.4,10.4
			C1519.5,504.2,1522.6,500.9,1522.6,493.8z"/>
		<path class="st0" d="M1557.4,467.9v5.1c-1.5-0.5-3.2-0.9-5.2-0.9c-5.9,0-9.8,4.7-9.8,12.6v25.1h-4.7v-41.5h3.9l0.8,5.2v0.1
			c2.1-3.7,5.7-6.2,10.8-6.2C1554.8,467.5,1556.1,467.6,1557.4,467.9z"/>
		<path class="st0" d="M1588.1,481.2v28.7h-4l-0.4-3.9c-1.9,2.8-5,4.8-9.6,4.8c-7.6,0-13.1-4.7-13.1-12.7c0-8,5.1-12.4,14.2-12.4
			h8.2v-4.4c0-6.1-2.9-9.3-8.2-9.3c-4.7,0-8,2.7-8.3,7.3h-4.7c0.3-7.1,5.4-11.8,13.1-11.8C1583.3,467.5,1588.1,472.7,1588.1,481.2z
			 M1583.5,498.2V490h-8.4c-6.1,0-9.3,2.8-9.3,8.1c0,5.4,3.7,8.1,9.1,8.1C1580.1,506.2,1583.5,502.9,1583.5,498.2z"/>
		<path class="st0" d="M1645.7,483.5v26.4h-4.7v-26c0-8.7-2.6-12-7.1-12c-5.6,0-9.5,4.8-9.5,12.9v25.1h-4.7v-26c0-8.7-2.7-12-7.3-12
			c-5.5,0-9.2,4.8-9.2,12.9v25.1h-4.7v-41.5h3.9l0.7,5.4c2-3.8,5.4-6.3,10.3-6.3c4.7,0,8.2,2.5,10,8c1.9-4.7,5.6-8,11.5-8
			C1641.4,467.5,1645.7,472.5,1645.7,483.5z"/>
		<path class="st0" d="M1652.9,497.5h4.7c0,5.4,3.4,8.7,9.1,8.7c5.1,0,8.1-2.6,8.1-7c0-10.1-21.3-6.4-21.3-20.6
			c0-6.7,5-11.1,12.5-11.1c7.7,0,12.9,5,12.9,12.7h-4.7c0-5.1-3-8.2-8.2-8.2c-4.9,0-7.7,2.5-7.7,6.8c0,9.7,21.3,6,21.3,20.6
			c0,6.9-5.1,11.5-12.9,11.5C1658.4,510.8,1652.9,505.5,1652.9,497.5z"/>
	</g>
	<g>
		<path class="st1" d="M357.9,427.5c-46.9,0-93-36.4-93-125.2c0-55.2,26.2-121.5,96.2-121.5c25.3,0,41,11,57.5,24.4V91.6h58.4v331.3
			h-53.4v-23C412.2,411,389.2,427.5,357.9,427.5z M320.7,304.7c0,69.5,35.9,75.5,51.5,75.5c21.2,0,34.5-9.7,46.5-23.9V248.5
			c-15.2-12.9-27.1-19.8-44.2-19.8C331.7,228.7,320.7,264.2,320.7,304.7z"/>
		<path class="st1" d="M565.3,427.5c-66.3,0-68.6-50.6-68.6-95.7V185.5h57.5V353c0,20.2,16.1,28.5,29,28.5
			c18.9,0,41.4-12.9,53.4-29.4V185.5h56.1v237.4h-52.9v-28.5C619.6,411.9,596.2,427.5,565.3,427.5z"/>
		<path class="st1" d="M36.2,422.9V87h222.3v55.8h-157v79.4h114.8v56.2H101.4v89.7h161.4v54.8H36.2z"/>
	</g>
	<path class="st2" d="M714.1,422.9V90.2h64v277.5h145v55.2H714.1z"/>
	<path class="st2" d="M1230.4,180.9c-32.2,0-53.4,14.3-71.3,29v-24.4h-53.8h-0.5h-9.5l-54.8,29l-32.4,115.9l-24.8-90l-49,19.7
		l46.2,148.5c-10.6,42.3-25.3,51.1-49.7,51.1c-6.4,0-13.3-1.4-20.3-3.2v50.6c9.7,1.8,19.8,3.2,29.4,3.2c59.4,0,77.3-48.8,92-96.6
		l72.7-226.8v236h57.5V251.8c10.6-11,32.2-23.5,51.5-23.5c29,0,29,26.2,29,35.9v158.8h57.5V262.3
		C1300.3,237.9,1300.3,180.9,1230.4,180.9z"/>
	<path class="st2" d="M1322.4,422.9V91.6h56.6v189.1l71.3-95.2h66.7l-71.3,86l75.9,151.4H1460l-51.5-108.6l-29.4,39.6v69H1322.4z"/>
	<path class="st2" d="M1594.4,427.5c-58,0-84.7-35.4-92.9-49.2l37.7-30.4c14.3,17.5,31.3,35.4,59.8,35.4c18.9,0,27.6-13.3,27.6-23.9
		c0-42.8-117.8-27.1-117.8-106.8c0-19.8,12.4-71.8,81.4-71.8c36.4,0,64,16.1,80.5,37.3l-35.9,31.3c-14.3-13.3-29.9-24.4-47.9-24.4
		c-17,0-26.7,12-26.7,22.1c0,39.1,119.2,23.5,119.2,106.8C1679.5,393.9,1651,427.5,1594.4,427.5z"/>
	<g>
		<path class="st2" d="M924.3,106.4l3-0.6l2.4-1.6l0-3.2l-5.4,0C924.3,101.6,924.3,106.4,924.3,106.4z"/>
		<polygon class="st2" points="911.4,109.1 914.2,110.6 921,101.1 915.7,101.1 912,105.1 		"/>
		<polygon class="st2" points="924.3,109.2 921.9,109.4 921.1,112.9 926.2,112.9 928.5,110.6 928.5,107.4 924.8,108 		"/>
		<polygon class="st2" points="926.9,95.9 927,99.7 930.3,98.9 		"/>
		<path class="st2" d="M886.3,163.6l12.3-8.3l1.1,4.1l-3.8,7.1l9.4,1.6l1,14.5l12.9,2.1l8.1-9.5l9.9,2l3.5,4.8l9.5-0.6l0.3-2.8
			l5.2,2.5l5.9,9.2l10.2,0.1l3.8,6.6l0.6,8l11.3,4.2l14.2,0.1l0.3,0.4c13.1-6.8,25.1-14,37.6-20.9l-10.9-12.3l0.1-13.7l2.6-0.9
			l0.9-5.2l-3.6,0l-1.5-5.5l17.8-12.9l0-9.1l8.7-4.9l3.5,0.3l7.2,0l5.6-3l18.1-1.5l0,9.2l14.3,3.6l2.8,2l2.6,0l0-5l8.2-0.8l6.1,4.5
			l5.5-5c-0.9-2.4-1.8-4.8-2.8-7.2l-0.1,0l-4.2-4.6l-0.7-6.4l-0.4-0.8l-4,2.2l-2.3,9.1l-6.3-6.6l-0.3-6.3l-6-5.1l-2.2-2.2l-7,0
			l2.2,6.2l8.4,4.6l1.5,1.5l-1.8,0.9l0.1,4.9l-4.1,1.7l-3.5-0.8l-2.2-3.1l5.7,0.3l1.5-2.1l-12.6-8.4l-1-3.6l-5.1,4.7l-5.2-1.1
			l-7.9,10.3l-1.5,4l-5,0.5l-7.5,0.1l-4.5-2.1l-1.4-8.9l1.6-4.2l7.6-1.7l8.3,1.6l1-4.6l-3.5-0.8l1.2-7.1l8.3-1.4l5.8-8.3l6-1
			l5.4,0.7l2,0l-1.1-7.8l-6.6,2.7l-2.3-5.8l-3.9-0.5l-0.8-4l2.4-2.6c-6.6-1.4-10.8-2.1-10.8-2.1s5.7-0.4,14.5-0.5
			c-27-23-62-36.8-100.2-36.6c-23,0.1-44.8,5.3-64.3,14.4l4.2,5.8l7.1,0.4l4.3-4.2l3.2,1.6l-5.9,5.8c0,0-8.2,0.2-7.8,0.2
			c0.4,0,0.7,5.6,0.7,5.6l9.9-0.3l1.1-2.7l6.8-0.4l0.8-4l-4-0.7l1.3-3.6l3.1-0.9l10.7,0.5l-5.9,5.4l1,4.2l6.2,0.9l-0.4-7.5l5.9-3.1
			l10.4-1.3l15.2,6.6l0,5.8l4.8,1.2l-2.4,4.6l-6.8,0l-2,5.2l-15.6-3.6l12.3-6.6l-4.7-4l-10.6,1.4l-0.9,1h0l-0.2,0.2l-3,3.2l-5,0.5
			l0.4,2.5l1.8,0.7l-0.1,0.8l-4.1,0.6l-0.3,2.4l-3.9,0.2l-0.8-4.7l-7,2.2l-14.3,8.5l1.6,5.9l4.1,2.6l8,1.1l0,9.1l3.7-0.6l3.4-7.2
			l8.6-2.7l0-11l4.7-3.6l11.5,2.7l-0.8,7.2l3.1,0l8.4-4.2l0.5,9.5l6.2,3.7l-0.2,5.6l-5.9,2l0.4,1.9l7.1,3.2l-0.1,3.9l-2.1,0.2
			c0-0.1,0-0.1,0-0.1l-9-2.7l-0.4-2.9l0,0l2.6-1.8l0-2.6l-2.8-0.7l-0.7,2.4l-4.9,0.8l-0.5-0.2l0,0.3l-1.7,0.3l-1.4-2.8l-1.6-0.7
			l-3.5,0L960,91l0,2.9l3,1l3,0.4l-0.7,0.3l-2.7,3l-1.2-1.5l-2.6-0.7l-7.1,6.7l0.9,0.8l-10.5,5.9l-9.9,10.4l-0.7,4.6l-9.9,6.6
			l-4.9,5l0.6,9.9l-6.8-3.1l0-5.8l-19,0.1l-9.8,5l-4.2,7.9l-1.7,6.3l2.8,6.1L886.3,163.6z"/>
		<path class="st2" d="M933.6,245.2c-2.3-1.7-7.5-5.5-7.9-5.5c-0.5,0-5-1.2-5-1.2l-1-5.3L907.5,218l1.2-5.5l0.3-9l8.4-5.9l-1.2-10
			l-12.3-0.9l-9.7-11l-6.8-1.8l-4.4-0.8l0.5-4l-5.6-0.8l0,2.3l-14.1-3.4l-5.7-8.7l2.3-4.2l-8.9-13l-1.6-9.5l-3.6,0l1.3,9.2l6.2,9.5
			l-0.7,3.8l-5.2-0.8l-6.5-10.9l-0.1-12.8l-2.7-1.3c-5.8,16.2-8.9,33.8-8.8,52c0.2,37.2,13.5,71.2,35.7,97.7
			C884.4,269.7,907.5,257.9,933.6,245.2z"/>
		<polygon class="st2" points="931,104.5 931,107.4 932.4,109.4 937.5,109.4 937.5,106.3 931.4,104.5 		"/>
	</g>
	<path class="st3" d="M1076.7,64.5c0,0,116-6.6,86.5,57.2C1132.2,188.8,820,299,820,299s332.5-147.8,323.7-198.3
		C1136.7,74.1,1076.7,64.5,1076.7,64.5z"/>
</g>
</svg>
