<?xml version="1.0" encoding="utf-8"?>
<!-- Generator: Adobe Illustrator 25.0.0, SVG Export Plug-In . SVG Version: 6.00 Build 0)  -->
<svg version="1.1" xmlns="http://www.w3.org/2000/svg" xmlns:xlink="http://www.w3.org/1999/xlink" x="0px" y="0px"
	 viewBox="0 0 1862.4 521.6" style="enable-background:new 0 0 1862.4 521.6;" xml:space="preserve">
<style type="text/css">
	.st0{fill:#333F48;}
	.st1{fill:#8F1736;}
	.st2{fill:#FFFFFF;}
</style>
<g id="Capa_1">
	<g>
		<g>
			<path class="st0" d="M526.6,184.5c-6.2,0-15.6,0.3-21.1,0.4v-10.1c1.8,0.1,3.7,0.1,4.9,0.1c3.9,0,5.5-0.7,6.2-2.2
				c0.7-1.3,0.9-4.8,0.9-8.9c0.1-11.6,0.1-25.8,0.1-31.5c0-10,0-23.6-0.1-27.5c-0.1-4.3-0.1-7.4-0.9-8.6c-0.7-1.5-2.4-2.1-6.2-2.1
				c-1.2,0-3,0-4.8,0.1V84.2c5.8,0.1,15.9,0.6,22.1,0.6c19.5,0,40.4-0.1,52.7-0.6c0.3,6.5,1,16.9,1.9,24.7l-9.1,0.4
				c-1.5-8.5-3-10.8-5.3-12.3c-2.7-1.6-5.8-2.4-18.4-2.4c-3,0-6.8,0-10.1,0.3c-2.1,0.1-3.1,1.2-3.4,2.7c-0.7,3-0.7,9.4-0.7,23.3
				c0,3.1,0.4,4.3,1.3,4.9c0.9,0.6,3,0.6,9.7,0.6c8.9,0,12.2-0.9,14.1-2.8c1.6-1.8,2.2-5.1,2.7-8.8h8.8c-0.1,3.7-0.6,13.1-0.6,18.1
				c0,4.8,0.1,12.9,0.4,16.3h-8.9c-0.4-5.5-1.6-8.2-3.4-9.5c-2.1-1.6-6.4-2.2-13.4-2.2c-7.3,0-9.1,0.3-9.7,0.9c-0.7,0.7-1,1.6-1,4
				c0,20.9,0.9,25.7,2.4,28.1c1.3,2.5,3.6,3.9,13.8,3.9c11.7,0,16.9-0.6,20.5-3.3c3-2.4,5.9-6.8,7.6-16l9.7,0.6
				c-0.9,6.4-2.5,19-3.7,29.1C571.3,184.7,547.3,184.5,526.6,184.5z"/>
			<path class="st0" d="M647.4,165.8c0,11.7-8.8,21.1-27.2,21.1c-14.1,0-22.9-6.2-22.9-14.1c0-4.3,2.5-6.4,5.5-6.4
				c3.6,0,5.1,1.5,5.8,5.1c0.9,5.2,5.1,8.6,13.1,8.6c11.7,0,15.9-5.8,15.9-11.1c0-6.4-3.1-9.4-11.7-13.5l-10.8-5.2
				c-9.7-4.6-13.7-8.9-13.7-18c0-10.5,9.1-20.1,25.8-20.1c12.9,0,18.3,5.6,18.3,12c0,4.2-2.8,5.5-5.5,5.5c-3,0-4.8-1.6-5.3-4.6
				c-1-4.3-5.1-5.8-9.8-5.8c-8.8,0-14.1,4.3-14.1,11c0,5.2,2.8,7.9,11.3,11.7l9.7,4.5C644.3,152.6,647.4,158.8,647.4,165.8z"/>
			<path class="st0" d="M688.4,186.9c-18.4,0-29.6-13.8-29.6-34.2c0-24.2,15-40.7,36.2-40.7c12.5,0,19.5,5.8,19.5,12.6
				c0,5.6-3,7.4-6.2,7.4c-3.4,0-5.5-1.6-5.9-4.6c-1-6.7-3.6-8.2-10.2-8.2c-12.2,0-23,11.3-23,29c0,19,8.8,30,22.7,30
				c7.4,0,15.9-4.6,20.9-12.9l5.5,3.7C710.7,181.7,699.8,186.9,688.4,186.9z"/>
			<path class="st0" d="M782.7,186.3l-1.2-1.2c0.3-3.6,0.4-8,0.6-10.8c-9.1,8.8-18,12.5-26.6,12.5c-12.5,0-21.2-4.8-21.2-25.1
				c0-6.2,0.6-21.5,0.6-29.7c0-5.3-0.3-7.1-1.2-8.5c-0.9-1.2-2.4-2.2-5.8-2.2c-1.3,0-2.5,0-4.8,0.1v-6.5c7.3,0,17.2-1.2,21.7-2.5
				l1.5,1.6c-1.2,8.9-2.1,22.3-2.1,40.3c0,8.3,0.6,14.7,2.7,17.8c2.7,4.3,8,5.6,12.6,5.6c6.5,0,16-3.7,19.9-10.8
				c2.4-4.3,2.8-9.5,2.8-15.2c0-4.3,0-15-0.1-19.8c-0.1-5.3-0.4-7.1-1.2-8.5c-0.9-1.5-2.7-2.2-5.9-2.2c-1.3,0-2.8,0-4.5,0.1v-6.5
				c7.3,0,17.1-1.2,21.5-2.5l1.2,1.5c-1,8.9-1.6,20.8-1.6,38.8c0,14.1,0.3,19,1,21.8c0.6,2.4,1.5,3.4,4.9,3.4c1,0,4.2-0.1,5.9-0.3
				v6.7C798.9,184.2,790.6,185,782.7,186.3z"/>
			<path class="st0" d="M846,186.9c-19.9,0-30.7-14.3-30.7-35.1c0-23.9,14-39.8,34.3-39.8c15.4,0,24.4,10.2,24.4,26.1
				c0,4.8-1.3,6.1-5.5,6.4c-8.8,0.4-18,0.6-43.1,0.6c-0.3,1.8-0.4,3.6-0.4,5.2c0.2,16.5,8.9,27.6,24.2,27.6
				c7.6,0,15.9-4.3,21.5-12.8l5.3,3.7C869.5,179.6,859.4,186.9,846,186.9z M828.8,138.6c2.8,0.1,7.7,0.1,11,0.1
				c11.7,0,18.9-0.3,21.1-1.3c1.5-0.7,1.9-2.7,1.9-4.3c0-10.2-7-14-15.6-14c-7,0-15.3,3.9-19.3,13.5c-0.4,1.2-1,3.3-1,4
				C826.9,137.9,827.6,138.6,828.8,138.6z"/>
			<path class="st0" d="M902,184.4c-6.1,0-11.9,0.4-17.5,0.6v-6.5c1.8,0.1,2.7,0.1,3.9,0.1c4,0,5.8-0.4,6.8-1.9
				c1-1.3,1.2-4.8,1.2-9.1c0.1-11,0.1-28.5,0.1-34c0-11.4-0.1-31.6-0.3-40.7c-0.3-9.5-2.7-9.7-8.9-9.7c-0.7,0-2.1,0-3.4,0.1v-6.7
				c5.6,0,14.6-0.4,21.7-2.5l1.5,1.9c-0.6,7-0.9,16.8-1,52c0,9.1,0,23.5,0.3,39.5c0.2,5.3,0.3,7.6,1.2,9.1c0.7,1.2,2.5,1.9,5.9,1.9
				c1,0,2.4,0,4.6-0.1v6.5C914.2,184.8,908.4,184.4,902,184.4z"/>
			<path class="st0" d="M947.9,186.4c-11,0-20.3-7.9-20.3-20.1c0-9.1,5.6-13.2,12.9-15.7c7.1-2.5,15.2-3.6,25.1-5.5
				c5.8-1,6.7-2.1,6.7-7.4c0-13.2-4.2-18.4-15.3-18.4c-4.6,0-7.9,1.2-9.5,2.7c-1.6,1.3-2.7,3.6-2.7,7c0,3.6-2.8,4.6-5.9,4.6
				c-3.3,0-5.3-2.1-5.3-5.9c0-8.5,10.1-15.4,27.5-15.4c11.7,0,20.9,4,20.9,19.8c0,6.5-0.9,22.4-0.9,34c0,11.3,2.5,12.6,6.5,12.6
				c1.6,0,4.3-0.7,5.8-1.3l1.8,5.9c-3,1.5-8.2,2.8-12,2.8c-6.2,0-10.7-1.5-11.9-10.1C963.4,183.5,955.2,186.4,947.9,186.4z
				 M968.9,151.7c-4.8,0-16.5,2.7-22,4.5c-5.2,1.6-9.2,4.5-9.2,10.1c0,7.4,6.2,11.9,13.1,11.9c5.3,0,12-2.8,15.6-5.9
				c4.3-3.7,5.5-7.7,5.5-16.6C971.8,152.9,970.5,151.7,968.9,151.7z"/>
			<path class="st0" d="M1050.8,185.6l-0.8-0.9c0.2-1.7,0.4-4.3,0.5-6.7c-4.2,4.8-9.2,7.7-15.1,7.7c-8.8,0-15.9-6.2-15.9-18.6
				c0-16,10.4-23.5,20.5-23.5c4,0,7.6,0.5,10.6,2.4c0-4.7-0.1-9.8-0.3-14.7c-0.2-3.5-1.5-4-4.8-4c-0.5,0-1.4,0-2,0.1v-3.8
				c3.3,0,8.2-0.2,12.2-1.3l0.8,1c-0.4,3.1-0.6,10.1-0.7,29.7c0,2.5,0,13.6,0.2,20.3c0.2,6.8,0.7,7.8,4,7.8c0.8,0,2.4-0.1,3.3-0.2
				v3.6C1059.1,184.5,1055,184.7,1050.8,185.6z M1049.1,151.9c-1.6-3-5.1-4.4-9.1-4.4c-8.4,0-14.7,7.4-14.7,17.7
				c0,10.4,5.3,15.5,12.2,15.5c3.8,0,8.4-2.2,10.7-5.2c1.9-2.7,2.4-7,2.4-14.2C1050.5,157,1050.3,154,1049.1,151.9z"/>
			<path class="st0" d="M1086.5,185.9c-11.3,0-17.4-8.1-17.4-19.8c0-13.5,7.9-22.5,19.4-22.5c8.7,0,13.8,5.8,13.8,14.8
				c0,2.7-0.8,3.4-3.1,3.6c-5,0.3-10.2,0.3-24.4,0.3c-0.2,1-0.3,2-0.3,2.9c0.1,9.3,5,15.6,13.7,15.6c4.3,0,9-2.4,12.2-7.2l3,2.1
				C1099.8,181.8,1094.1,185.9,1086.5,185.9z M1076.7,158.6c1.6,0.1,4.4,0.1,6.2,0.1c6.6,0,10.7-0.2,11.9-0.8
				c0.8-0.4,1.1-1.5,1.1-2.4c0-5.8-4-7.9-8.8-7.9c-4,0-8.7,2.2-10.9,7.7c-0.3,0.7-0.6,1.8-0.6,2.3
				C1075.6,158.2,1076.1,158.6,1076.7,158.6z"/>
			<path class="st0" d="M522.8,313.3c-6.1,0-13.4,0.4-17.8,0.6v-10.1c2.1,0,3.4,0.1,4.8,0.1c2.8,0,4.9-0.7,6.1-1.9
				c1-1.2,1.5-4.5,1.6-9.7c0.3-22,0.3-49.2,0.3-57.3c0-5.3-0.6-7.3-2.1-9.1c-0.9-1-3-2.7-6.8-2.8c-0.9,0-2.5,0-4.2,0.1v-10.1
				c2.4,0.1,12.9,0.4,19,0.4c4.3,0,10.7-0.3,13.1-0.4c1.6,3,4.8,7.9,8.3,12.5c9.2,12,25.7,33.6,44,55.8c-0.1-16.3-0.3-34-0.9-47.2
				c-0.1-5.1-0.9-7.4-1.6-8.9c-0.9-1.5-3-2.2-6.5-2.2c-1.2,0-3.4,0-5.2,0.1V213c4.8,0.3,13.8,0.6,20.2,0.6c6.2,0,13.8-0.4,17.8-0.6
				v10.2c-2.2-0.1-3-0.1-4.2-0.1c-2.5,0-4.8,0.4-5.9,1.6c-1.2,1-1.8,4.2-1.9,8.8c-0.3,19.8-0.4,29.7-0.4,41.3
				c0,17.1,0.4,31.8,0.9,38.8l-10,1.9c-18-23.6-49.5-63.9-62.5-80.1c0,20.8,0.4,43.8,1,58.5c0.1,4.5,0.9,6.5,1.8,7.9
				c1,1.3,2.5,2.1,6.2,2.1c1,0,3.4-0.1,5.5-0.1v10.1C538.7,313.6,529.3,313.3,522.8,313.3z"/>
			<path class="st0" d="M653.2,315.8c-19.9,0-30.7-14.3-30.7-35.1c0-23.9,14-39.8,34.3-39.8c15.4,0,24.4,10.2,24.4,26.1
				c0,4.8-1.3,6.1-5.5,6.4c-8.8,0.4-18,0.6-43.1,0.6c-0.3,1.8-0.4,3.6-0.4,5.2c0.1,16.5,8.9,27.6,24.2,27.6
				c7.6,0,15.9-4.3,21.5-12.8l5.3,3.7C676.7,308.5,666.6,315.8,653.2,315.8z M636,267.5c2.8,0.1,7.7,0.1,11,0.1
				c11.7,0,18.9-0.3,21.1-1.3c1.5-0.7,1.9-2.7,1.9-4.3c0-10.2-7-14-15.6-14c-7,0-15.3,3.9-19.3,13.5c-0.4,1.2-1,3.3-1,4
				C634,266.8,634.8,267.5,636,267.5z"/>
			<path class="st0" d="M691.4,300.2c0-5.8,2.7-10.8,12.9-16.3c-4.3-3.4-7.3-10-7.3-17.1c0-14.4,11.3-25.7,27.9-25.7
				c7.6,0,13.7,2.4,18.1,6.7c1.2-6.4,5.3-11.3,11.9-11.3c4.3,0,6.4,1.5,6.4,5.1c0,3.3-1.5,4.9-4.5,4.9c-2.4,0-3.3-1-5.3-1
				c-1.6,0-3.4,1.9-3.4,5.6c0,1.9,0.4,3.9,0.9,5.8c0.6,2.1,1,4.9,1,7.7c0,15.6-11,26.1-27.3,26.1c-4,0-7.7-0.7-11.3-1.8
				c-0.6-0.1-1.8-0.3-2.4-0.3c-1.2,0-2.4,0.4-3.3,0.9c-3.1,1.6-5.3,4.9-5.3,8.2c0,4.8,3,6.8,12.8,6.8c7.4,0,19.6-0.4,24.2-0.4
				c13.8,0,20.9,5.5,20.9,16c0,19.3-17.8,31.2-40.7,31.2c-17.4,0-27.8-8-27.8-18.4c0-7.4,4.9-13.8,16-19.6
				C694.4,311.7,691.4,305.9,691.4,300.2z M729.4,313.3c-2.7,0-7.7,0-10.1,0.3c-4.8,0.4-8.9,2.2-12,4.6c-4.3,3.3-7.3,7.3-7.3,12.3
				c0,8.9,8.6,12.9,20.9,12.9c14.6,0,26.7-7.6,26.7-18.4C747.7,317.6,745.5,313.3,729.4,313.3z M723.9,248.2
				c-10.5,0-16.5,7-16.5,16.3c0,13.7,6.8,19.2,16.2,19.2c10.3,0,16.3-6.1,16.3-17.1C740,256.8,735.1,248.2,723.9,248.2z"/>
			<path class="st0" d="M798.6,315.8c-19.2,0-31.6-15.6-31.6-35.4c0-22.7,14.7-39.5,36.4-39.5c18.7,0,31.2,14.4,31.2,34.9
				C834.6,299.2,821.4,315.8,798.6,315.8z M800.7,248.8c-14.3,0-23.3,11.7-23.3,26.9c0,21.4,10.1,32.4,24.1,32.4
				c12.6,0,23-9.5,23-27.6C824.5,265.8,818.8,248.8,800.7,248.8z"/>
			<path class="st0" d="M876.6,315.8c-18.4,0-29.6-13.8-29.6-34.2c0-24.2,15-40.7,36.2-40.7c12.5,0,19.5,5.8,19.5,12.6
				c0,5.6-3,7.4-6.2,7.4c-3.4,0-5.5-1.6-5.9-4.6c-1-6.7-3.6-8.2-10.2-8.2c-12.2,0-23,11.3-23,29c0,19,8.8,30,22.7,30
				c7.4,0,15.9-4.6,20.9-12.9l5.5,3.7C898.9,310.6,888.1,315.8,876.6,315.8z"/>
			<path class="st0" d="M931.3,313.3c-6.1,0-12.3,0.4-16.9,0.6v-6.5c1.8,0.1,2.7,0.1,4,0.1c3.9,0,6.2-0.6,6.8-1.9
				c0.7-1.3,0.7-5.5,0.9-9.8c0.2-6.8,0.2-14.9,0.2-19c0-13.5-0.3-19.2-0.9-23c-0.4-2.4-2.5-3.6-7.3-3.6c-1.3,0-2.4,0-4.2,0.1v-6.5
				c8,0,13.7-0.4,22-2.7l1.3,1.6c-1,10-1.3,24.7-1.3,33.1c0,4.2,0,13.8,0.1,19.9c0.1,5.5,0.3,8.6,1,10c0.7,1.2,2.8,1.8,6.1,1.8
				c1.3,0,2.4,0,4.8-0.1v6.5C944.4,313.7,937.5,313.3,931.3,313.3z M929.2,224.2c-4.2,0-7.3-3.1-7.3-7.7c0-4.5,2.8-7.9,7.4-7.9
				c4.6,0,7.3,3.6,7.3,7.7C936.6,221.1,933.5,224.2,929.2,224.2z"/>
			<path class="st0" d="M990.6,315.8c-19.2,0-31.6-15.6-31.6-35.4c0-22.7,14.7-39.5,36.4-39.5c18.7,0,31.2,14.4,31.2,34.9
				C1026.5,299.2,1013.3,315.8,990.6,315.8z M992.6,248.8c-14.3,0-23.3,11.7-23.3,26.9c0,21.4,10.1,32.4,24.1,32.4
				c12.6,0,23-9.5,23-27.6C1016.4,265.8,1010.8,248.8,992.6,248.8z"/>
			<path class="st0" d="M1086.8,294.7c0,11.7-8.8,21.1-27.2,21.1c-14.1,0-22.9-6.2-22.9-14.1c0-4.3,2.5-6.4,5.5-6.4
				c3.6,0,5.1,1.5,5.8,5.1c0.9,5.2,5.1,8.6,13.1,8.6c11.7,0,15.9-5.8,15.9-11.1c0-6.4-3.1-9.4-11.7-13.5l-10.8-5.2
				c-9.7-4.6-13.7-8.9-13.7-18c0-10.5,9.1-20.1,25.8-20.1c12.9,0,18.3,5.6,18.3,12c0,4.2-2.8,5.5-5.5,5.5c-3,0-4.8-1.6-5.3-4.6
				c-1-4.3-5.1-5.8-9.8-5.8c-8.8,0-14.1,4.3-14.1,11c0,5.2,2.8,7.9,11.3,11.7l9.7,4.5C1083.7,281.5,1086.8,287.7,1086.8,294.7z"/>
			<path class="st0" d="M1117.3,282.2c-2.1-4.7-3.2-4.8-4.7-4.8c-0.4,0-1.1,0-1.7,0.1v-3.7c3.6,0.3,5.4,0.3,9.2,0.3
				c2.9,0,6.1,0,9.2-0.3v3.7c-0.9-0.1-1.8-0.1-2.7-0.1c-2.6,0-3.5,0.7-3.5,2.4c0,1.3,1.1,4.1,3.2,9.1c3.3,7.7,5.9,13.6,7.7,17.5
				c2.4-6.1,4.9-12.6,6.6-17.2c1.8-5,2.9-8.2,2.9-9.4c0-1.8-1.1-2.3-3.7-2.3c-0.8,0-1.3,0-2.4,0.1v-3.7c3.7,0.3,5.6,0.3,8.6,0.3
				c2.6,0,5.5,0,8.2-0.3v3.7c-0.7-0.1-1.2-0.1-1.6-0.1c-2.1,0-2.9,1-6.4,9.6c-6.5,16.1-9.2,23.4-15.1,36.7
				c-2.8,6.3-6.2,11.3-12.3,11.3c-3.3,0-4.7-1.7-4.7-3.7c0-2.3,1.3-3.4,3.4-3.4c1.1,0,1.7,0.7,3.2,0.7c1.7,0,3.4-1.3,4.7-3.6
				c1.7-2.7,3.4-6.7,5.6-11.6C1128.5,307.8,1123.2,295.8,1117.3,282.2z"/>
			<path class="st0" d="M505.7,432.7c1.8,0.2,3,0.2,4.2,0.2c4.2,0,6.1-0.6,6.7-1.9c0.7-1.5,1-4.3,1-9.1c0.1-9.1,0.1-26,0.1-31.6
				c0-11.9,0-23.8-0.1-27.5c-0.1-4.3-0.1-7.3-0.9-8.9c-0.7-1.3-2.5-1.8-6.4-1.8c-1.2,0-3.1,0-4.6,0.1v-10.1
				c5.8,0.1,15.2,0.6,20.8,0.6c5.2,0,19.2-0.4,25.3-0.4c32.8,0,54.1,12.3,54.1,48.4c0,29.3-19.2,52-55.3,52
				c-7.9,0-19.6-0.4-24.1-0.4c-6.2,0-15,0.4-20.8,0.6V432.7z M535.8,420.8c0.3,4.5,0.9,6.4,2.2,8c1.5,1.6,6.1,3.3,15.4,3.3
				c21.5,0,32.2-13.2,32.2-41.9c0-21.8-8.5-37.6-35.6-37.6c-7.7,0-11,0.3-12.3,1.5c-1,0.9-1.9,2.8-2.1,7.1
				c-0.1,3.7-0.3,19.8-0.3,29.4C535.4,402.4,535.4,411.8,535.8,420.8z"/>
			<path class="st0" d="M637.2,442.2c-6.1,0-12.3,0.4-16.9,0.6v-6.5c1.8,0.1,2.7,0.1,4,0.1c3.9,0,6.2-0.6,6.8-1.9
				c0.7-1.3,0.7-5.5,0.9-9.8c0.1-6.8,0.1-14.9,0.1-19c0-13.5-0.3-19.2-0.9-23c-0.4-2.4-2.5-3.6-7.3-3.6c-1.3,0-2.4,0-4.2,0.1v-6.5
				c8,0,13.7-0.4,22-2.7l1.3,1.6c-1,10-1.3,24.7-1.3,33.1c0,4.2,0,13.8,0.1,19.9c0.1,5.5,0.3,8.6,1,10c0.7,1.2,2.8,1.8,6.1,1.8
				c1.3,0,2.4,0,4.8-0.1v6.5C650.2,442.7,643.4,442.2,637.2,442.2z M635.1,353.1c-4.2,0-7.3-3.1-7.3-7.7c0-4.5,2.8-7.9,7.4-7.9
				c4.6,0,7.3,3.6,7.3,7.7C642.5,350,639.4,353.1,635.1,353.1z"/>
			<path class="st0" d="M680.4,442.2c-6.2,0-12.5,0.4-15.9,0.6v-6.5c1.8,0.1,2.7,0.1,3.9,0.1c4,0,6.1-0.9,7.1-2.4
				c0.7-1.3,0.9-4.6,1-8.5c0.1-7.4,0.1-15.4,0.1-20.1c0-13.4-0.4-19.3-1-22.9c-0.4-2.4-2.2-3.6-7-3.6c-1.3,0-2.4,0-4.2,0.1v-6.5
				c8.6,0,15.2-0.7,20.8-2.5l1.8,1.6c-0.4,4.6-0.7,8.9-0.9,13.4c7.6-10.5,16-15.2,22.4-15.2c4.6,0,8,2.2,8,6.8
				c0,4.9-2.8,7.4-6.7,7.4c-1.6,0-3.3-0.3-4.9-2.1c-1.2-1.2-2.4-1.2-3.4-1.2c-3.3,0-9.4,4-12.9,11.6c-1.5,3.3-2.7,7.9-2.7,14
				c0,4.2,0,13.2,0.1,18.9c0.2,5.6,0.6,7.9,1.3,9.2c0.9,1.3,3,1.8,6.2,1.8c1.2,0,3.9,0,6.4-0.1v6.5
				C693.2,442.4,686.6,442.2,680.4,442.2z"/>
			<path class="st0" d="M753.8,444.8c-19.9,0-30.7-14.3-30.7-35.1c0-23.9,14-39.8,34.3-39.8c15.4,0,24.4,10.2,24.4,26.1
				c0,4.8-1.3,6.1-5.5,6.4c-8.8,0.4-18,0.6-43.1,0.6c-0.3,1.8-0.4,3.6-0.4,5.2c0.2,16.5,8.9,27.6,24.2,27.6
				c7.6,0,15.9-4.3,21.5-12.8l5.3,3.7C777.2,437.5,767.1,444.8,753.8,444.8z M736.5,396.5c2.8,0.1,7.7,0.1,11,0.1
				c11.7,0,18.9-0.3,21.1-1.3c1.5-0.7,1.9-2.7,1.9-4.3c0-10.2-7-14-15.6-14c-7,0-15.3,3.9-19.3,13.5c-0.4,1.2-1,3.3-1,4
				C734.6,395.7,735.4,396.5,736.5,396.5z"/>
			<path class="st0" d="M822.9,444.8c-18.4,0-29.6-13.8-29.6-34.2c0-24.2,15-40.7,36.2-40.7c12.5,0,19.5,5.8,19.5,12.6
				c0,5.6-3,7.4-6.2,7.4c-3.4,0-5.5-1.6-5.9-4.6c-1-6.7-3.6-8.2-10.2-8.2c-12.2,0-23,11.3-23,29c0,19,8.8,30,22.7,30
				c7.4,0,15.9-4.6,20.9-12.9l5.5,3.7C845.1,439.6,834.3,444.8,822.9,444.8z"/>
			<path class="st0" d="M888.4,444.8c-18.4,0-29.6-13.8-29.6-34.2c0-24.2,15-40.7,36.2-40.7c12.5,0,19.5,5.8,19.5,12.6
				c0,5.6-3,7.4-6.2,7.4c-3.4,0-5.5-1.6-5.9-4.6c-1-6.7-3.6-8.2-10.2-8.2c-12.2,0-23,11.3-23,29c0,19,8.8,30,22.7,30
				c7.4,0,15.9-4.6,20.9-12.9l5.5,3.7C910.6,439.6,899.8,444.8,888.4,444.8z"/>
			<path class="st0" d="M943,442.2c-6.1,0-12.3,0.4-16.9,0.6v-6.5c1.8,0.1,2.7,0.1,4,0.1c3.9,0,6.2-0.6,6.8-1.9
				c0.7-1.3,0.7-5.5,0.9-9.8c0.2-6.8,0.2-14.9,0.2-19c0-13.5-0.3-19.2-0.9-23c-0.4-2.4-2.5-3.6-7.3-3.6c-1.3,0-2.4,0-4.2,0.1v-6.5
				c8,0,13.7-0.4,22-2.7l1.3,1.6c-1,10-1.3,24.7-1.3,33.1c0,4.2,0,13.8,0.1,19.9c0.1,5.5,0.3,8.6,1,10c0.7,1.2,2.8,1.8,6.1,1.8
				c1.3,0,2.4,0,4.8-0.1v6.5C956.1,442.7,949.3,442.2,943,442.2z M941,353.1c-4.2,0-7.3-3.1-7.3-7.7c0-4.5,2.8-7.9,7.4-7.9
				c4.6,0,7.3,3.6,7.3,7.7C948.4,350,945.3,353.1,941,353.1z"/>
			<path class="st0" d="M1002.3,444.8c-19.2,0-31.6-15.6-31.6-35.4c0-22.7,14.7-39.5,36.4-39.5c18.7,0,31.2,14.4,31.2,34.9
				C1038.3,428.1,1025,444.8,1002.3,444.8z M1004.4,377.8c-14.3,0-23.3,11.7-23.3,26.9c0,21.4,10.1,32.4,24.1,32.4
				c12.6,0,23-9.5,23-27.6C1028.2,394.7,1022.5,377.8,1004.4,377.8z M1021.6,339.3c-6.5,7.3-15,16-23.2,24.2l-3.6-1.9
				c5.3-8.5,12.3-20.1,15.7-27L1021.6,339.3z"/>
			<path class="st0" d="M1067.5,442.2c-6.1,0-11.4,0.4-17.1,0.6v-6.5c1.9,0.1,2.7,0.1,4,0.1c3.6,0,6.1-0.7,7-2.4
				c0.7-1.3,1-4.6,1-8.6c0-7.1,0.1-15.3,0.1-19.9c0-14.4-0.3-19.6-0.9-22.9c-0.4-2.4-2.8-3.6-7.6-3.6c-1.2,0-2.2,0-3.7,0.1v-6.5
				c6.8,0,14.6-0.7,21.1-2.5l1.5,1.8c-0.4,4.5-0.7,7.4-0.9,11.7c8.9-8.6,19.9-13.7,29-13.7c7.4,0,13.4,3.6,15.9,12.6
				c1.5,5.8,1.9,13.5,1.9,23.2v19.6c0,5.3,0,7.9,0.9,9.2c0.7,1.2,2.8,1.8,6.2,1.8c1.3,0,2.2,0,4.6-0.1v6.5
				c-4.3-0.2-10.8-0.6-16.9-0.6c-6.2,0-10.7,0.4-16.5,0.6v-6.5c1.8,0.1,2.8,0.1,3.9,0.1c3.9,0,5.6-0.9,6.5-2.4
				c1.5-2.5,1.9-7.1,1.9-16.6c0-20.1-1-28.4-3.7-33.1c-2.2-3.7-6.4-4.9-11.1-4.9c-6.2,0-15.2,4-19.6,10.4c-2.7,3.7-3.1,9.2-3.1,14.9
				c0,4.3,0,14.7,0.1,20.8c0.2,5.3,0.3,7.9,1.2,9.2c0.6,1.2,2.8,1.8,5.9,1.8c1.2,0,2.4,0,4.6-0.1v6.5
				C1079.6,442.7,1073.9,442.2,1067.5,442.2z"/>
		</g>
		<path class="st1" d="M76.4,83.7h358.4v358.4H152.2c0,0-75.8,0-75.8-75.8V83.7z"/>
		<path class="st2" d="M383.6,173.3c0,21.2-17.2,38.4-38.4,38.4c-21.2,0-38.4-17.2-38.4-38.4c0-21.2,17.2-38.4,38.4-38.4
			C366.4,134.9,383.6,152.1,383.6,173.3z"/>
		<g>
			<g>
				<path class="st1" d="M1311.4,83.3c2.6,0,6.7,0.5,10.6,0.5c3.8,0,8.4-0.3,10.4-0.3c1.5,0,2.6,0.8,2.6,1.7c0,1.3-0.6,1.8-3.2,2.3
					c-4.4,0.9-5.5,1.9-7,6.8c-2.1,7-5.5,20.7-6.9,26.9c-1.6,6.5-2,10.3,0.8,14.3c2.7,3.7,8.4,5.5,11.5,5.5c9.2,0,15.2-2.6,19.9-16.2
					c2.8-8,6.7-23.1,7.6-27c2-8.5,1.4-9-5.1-10.3c-2.2-0.4-3.1-1.4-3.1-2.2c0.1-0.9,0.9-1.7,3.2-1.7c2.5,0,5.7,0.3,9.8,0.3
					c4.7,0,8.1-0.4,9.7-0.4c1.6,0,2.8,0.8,2.8,1.9c0,1-1,1.7-3.5,2.2c-5.1,1-5.7,2.3-7.3,7.3c-1.2,3.6-5.7,18.5-8.4,28.1
					c-1.4,5.3-4.1,11.6-7.7,15.8c-4,4.8-10.4,8.5-20.9,8.5c-7.1,0-14-2.5-17.4-7.2c-3-4-3.7-8.4-2.4-15.4c1.3-7.1,7.6-30.5,8-33.2
					c0.2-1.9,0.3-3-4.4-4.4c-1.8-0.5-2.9-1.5-2.9-2.2C1308.4,83.9,1309.6,83.3,1311.4,83.3z"/>
				<path class="st1" d="M1411.5,110.2c0,1.3-0.4,3.3-1.2,6.3c-1.5,5.4-4.6,13.4-6.9,19.5c-0.5,1.2,0,1.6,0.4,1.6
					c1.6,0,6-3.1,8.1-4.9c0.6-0.5,1.5,0.5,1.5,1.3c0,0.6-0.5,2.2-1.7,3.5c-3.8,4.5-10.7,9.3-15.9,9.3c-1.2,0-2.8-1.7-3-2.5
					c-0.2-0.9-0.1-2.3,0.7-4.5c0.7-1.7,9.6-25.4,10.5-28.9c0.2-0.6-0.3-2.5-2.5-2.5c-4.3,0-9.8,7.1-13.2,12.5
					c-5.3,8.5-11.3,21.3-12.7,23.8c-0.5,1-1.7,2.1-2.5,2.1c-1.1,0-3.7-1.8-3.7-3.3c0-1.2,0-3.4,2.3-8.9c2.6-6.2,7-17.9,8-20.9
					c0.8-2.2-0.1-3-0.4-3c-1.9,0-4.5,1-7.6,3.7c-1.1,0.8-2.7,0.4-2.7-0.5c0-0.4,0.1-1.3,0.4-2c2-4.8,7.1-9.1,12.8-9.1
					c3.2,0,4.8,2.4,4.8,5.1c0,2.3-1.1,5.5-2.5,9.1c-0.2,0.4,0.1,1,0.5,0.5c3.3-4.6,7.7-8.5,11.2-11c2.8-2,6.2-3.6,9.7-3.6
					C1409.5,102.9,1411.5,106.7,1411.5,110.2z"/>
				<path class="st1" d="M1441,107c0,1.1-0.4,2.4-0.8,3.8l-8.9,25.6c-0.1,0.2,0.2,0.9,0.6,0.9c1.3,0,5.2-2.3,7.1-3.8
					c0.8-0.6,1.7-1,2.1-1c0.4,0,0.8,0.2,0.8,1c0,1.5-0.9,2.9-2,4.4c-3.4,4.5-11.2,9-14.8,9c-1.6,0-3.5-2.1-3.5-3.4
					c0-0.8,0.3-2.4,0.9-3.9c0.6-1.3,6.4-17.6,8.9-25.3c0.7-2.1,0.2-2.7-0.3-2.7c-1.9,0-6.4,3.4-8.1,5.2c-0.4,0.4-1.6-1.2-1.6-1.7
					c0-0.5,0.5-1.3,0.9-2c3.7-5.4,10.8-10,15.9-10C1439.4,102.9,1441,104.9,1441,107z M1443.9,87.5c0,2.2-1.7,4.9-2.5,5.5
					c-0.7,0.6-1.9,0.9-3,0.9c-2,0-4.6-1.5-4.6-4.5c0-2.6,1.9-5,2.8-5.7c0.6-0.4,1.9-0.8,2.7-0.8
					C1442.9,82.9,1443.9,86.1,1443.9,87.5z"/>
				<path class="st1" d="M1468,104.6c0.9,1.3,1.2,4.3,0.5,6.2c-2.5,6.3-6,18.3-7.3,22.4c-0.4,1.1-0.4,2.4,0.1,3.5
					c0.6,1.7,2.2,2.8,3.4,2.8c7.8,0,16.7-13.6,16.7-22.6c0-1.7-1.4-4.6-2.4-6.3c-0.6-1-1-2.1-1-2.8c0-1.9,3.4-5,5.9-5
					c1.9,0,5,2.1,5,8c0,7.5-5.2,19-11.2,25.8c-5.5,5.9-10.8,10.2-17.9,10.2c-4.5,0-7.4-4.8-7.4-8.7c0-2.1,0.3-4,1.5-7.9
					c2-6.5,4.7-13.4,6.1-18.1c0.1-0.6-0.3-1.2-0.8-1.2c-1.4,0-5.1,3-7.7,5.1c-0.4,0.4-1.9,0-1.9-1c0-0.7,0.3-1.6,0.8-2.4
					c2.4-3.8,9.4-9.7,14.6-9.7C1466.1,102.9,1467.5,103.8,1468,104.6z"/>
				<path class="st1" d="M1525.1,104.2c2.5,1.5,4.2,3.9,4.3,7c0.1,3.8-2.3,7-5.2,9c-4.9,3.5-12.8,5.2-18.3,5.6c-0.2,0-0.9,0.7-1,1
					c-0.5,1.3-0.9,4.8-0.9,7.9c0,1.1,0.6,3.3,2.1,4.5c1.8,1.3,3.7,1.4,4.5,1.4c2.4,0,7.4-2.9,9.5-5.3c0.8-0.8,1.8-1.6,2.3-1.6
					s1.1,1,1.1,1.6c0,1.6-1.5,3.8-2.9,5.3c-3.1,3.1-7.9,6.4-14.2,6.4c-5.8,0-9.9-4.3-11.1-9.4c-0.2-0.6-0.3-1.7-0.3-2.5
					c0-9.9,6.2-23,14.4-28.8c2-1.3,6.9-3.3,10.8-3.3C1521.3,102.9,1524.1,103.7,1525.1,104.2z M1506.2,121c0,0.7,0.1,1.1,0.6,1.1
					c3.9-0.2,15.3-4.5,15.3-12.9c0-1.2-1.3-2.6-2.4-2.6C1515.9,106.6,1509.5,113.2,1506.2,121z"/>
				<path class="st1" d="M1552.5,109.3c0,0.9-1.6,6.9-3.1,11.2c-0.1,0.4,0.4,0.7,0.8,0.3c0.4-0.8,6.8-11.6,10.3-15
					c2.5-2.5,4.7-2.9,6.1-2.9c3.3,0,5.3,2.8,5.3,3.9c0,3.1-3.1,6.7-5,7.8c-0.3,0.2-1.5,0.1-1.9-0.1c-0.7-0.4-2.8-2.3-3.7-2.3
					c-1.1,0-2.5,1.7-3.7,3.7c-5.3,9-8.5,16.6-12.9,26.7c-1.5,3.4-3,4.3-3.6,4.3c-1.7,0-3.8-1.4-4.2-1.9c-0.4-0.7-0.5-2.2-0.2-2.9
					c0.4-1.2,6.7-20.3,8.1-25.9c0.7-3.2,0.5-5.1-1.2-5.1c-1.2,0-2.9,0.8-4.9,3c-1.1,1.1-2,1.5-2.6,1.5c-0.7,0-0.9-1-0.9-1.5
					c0-3.5,5.6-11.2,12-11.2C1551.1,102.9,1552.5,105.9,1552.5,109.3z"/>
				<path class="st1" d="M1599,105.9c0.9,1.2,1.4,2.7,1.4,3.7c0,0.9-1.7,4.2-2.3,4.2c-0.9,0-1.4-0.1-3-1.5c-2-1.9-5-3.8-7.2-3.8
					c-2.8,0-4,2.3-4,4.2c0,3.1,2.6,6.1,7.7,11.2c3.2,3.3,4.5,6.3,4.5,8.3c0,3-0.9,7.1-7.5,11.4c-3.7,2.5-8.5,3.3-9.7,3.3
					c-2.6,0-6.2-1.1-8.1-3.2c-1.1-1.2-1.8-2.5-1.8-4.3c0-0.8,1.4-3,2.6-4.1c0.2-0.2,1.3-0.4,1.5-0.2c1.2,0.9,6.1,6.3,9.8,6.3
					c3.7,0,5.7-2.2,5.7-4.5c0-2.6-1.4-4.7-7.2-11c-3.5-3.9-4.5-7.4-4.5-9.5c0-2.8,2.1-6.7,4.8-8.9c4.2-3.5,9.2-4.7,10.3-4.7
					C1596.1,102.9,1598.1,104.7,1599,105.9z"/>
				<path class="st1" d="M1625.1,107c0,1.1-0.4,2.4-0.8,3.8l-8.9,25.6c-0.1,0.2,0.2,0.9,0.6,0.9c1.3,0,5.2-2.3,7.1-3.8
					c0.8-0.6,1.7-1,2.1-1c0.4,0,0.8,0.2,0.8,1c0,1.5-0.9,2.9-2,4.4c-3.4,4.5-11.2,9-14.8,9c-1.6,0-3.5-2.1-3.5-3.4
					c0-0.8,0.3-2.4,0.9-3.9c0.6-1.3,6.4-17.6,8.9-25.3c0.7-2.1,0.2-2.7-0.3-2.7c-1.9,0-6.4,3.4-8.1,5.2c-0.4,0.4-1.6-1.2-1.6-1.7
					c0-0.5,0.5-1.3,0.9-2c3.7-5.4,10.8-10,15.9-10C1623.5,102.9,1625.1,104.9,1625.1,107z M1628,87.5c0,2.2-1.7,4.9-2.5,5.5
					c-0.7,0.6-1.9,0.9-3,0.9c-2,0-4.6-1.5-4.6-4.5c0-2.6,1.9-5,2.8-5.7c0.6-0.4,1.9-0.8,2.7-0.8C1627,82.9,1628,86.1,1628,87.5z"/>
				<path class="st1" d="M1649.5,107.3c4.4-3,8.1-4.5,11.3-4.5c0.9,0,4.5,1.1,5.9,2c0.4,0.3,1.1-0.1,1.2-0.4
					c2.2-7.7,4-16.2,4.3-18.4c0.1-1.4-0.4-1.9-4.1-3.1c-1.2-0.4-1.9-1.9-1.9-2.3c0-0.3,0.4-1,2.3-1.6c4.9-1.4,11.4-1.9,12.2-1.9
					c0.7,0,1.5,1.8,1,4.1c-1,5.4-4.3,18.4-7,29.1c-2.3,8.7-4.7,17.2-6.5,26.1c-0.2,1-0.3,1.3,0.1,1.8c0.2,0.3,0.9,0.5,1.5,0.5
					c2.2,0,5.2-2.7,7.6-5.6c0.6-0.8,1-1.2,2-1.2c1.6,0,0.4,3.3,0.2,3.8c-2.2,4.8-7.9,11.2-15.5,11.2c-1.5,0-3.3-0.7-4.1-1.6
					c-0.1-0.2-0.7-1.9-0.7-2.2c0-1.1,1.8-7.5,2.6-10.5c0.2-0.7-0.4-0.9-0.9-0.5c-0.4,0.8-7.6,9.3-14.2,13c-2.1,1.2-4.5,1.9-6.3,1.9
					c-2.8,0-5.4-2-6.3-3.6c-0.8-1.3-1.7-3.7-1.7-7.3C1632.5,127.5,1639.6,114.2,1649.5,107.3z M1645.2,139.9c3.5,0,7.6-3.9,10.9-8
					c2.9-3.7,6.5-8.9,8.8-17.2c0.2-0.7,0.2-1.8-0.1-2.7c-0.6-2.2-2.4-5-3.2-5c-5.9,0-12.9,9.3-15.6,14.5c-2.8,5.3-4.7,11.9-4.7,15.6
					C1641.4,138.1,1643.5,139.9,1645.2,139.9z"/>
				<path class="st1" d="M1719.7,105.4c0.2,0.1,0.7-0.1,0.8-0.5c0.5-1.2,0.9-2.3,1.3-2.9c0.4-0.7,1-0.9,1.3-0.9
					c1.3-0.1,3.5,0.5,4.6,1.2c0.5,0.3,0.8,1.3,0.7,1.8c-0.9,3.6-7.8,26.7-9.1,31.8c-0.2,1-0.3,1.7,0,2c0.4,0.3,0.7,0.4,1.2,0.4
					c1.7,0,4.5-1.7,7-4.9c1.4-1.8,3.1-1.8,3.1-0.1c0,1.1-0.6,2.2-1.2,3.5c-2.2,4.4-8.1,10-15.3,10c-1.7,0-3.7-1.7-3.7-3.1
					c0-1.5,2.1-7.6,2.9-11c0.1-0.3-0.7-0.4-1.1,0.1c-4,4.9-14.1,14.1-21.1,14.1c-1.2,0-3.6-0.7-4.6-1.5c-1.3-1.2-1.6-3.1-1.6-4.4
					c0-3.4,2.2-9.5,6-14.7c5.8-7.9,12.7-15,20.1-19.7c2.6-1.7,4.1-1.8,4.8-1.8C1716.5,104.8,1718.9,105.1,1719.7,105.4z M1705.7,116
					c-6.1,6.8-10.7,15.7-10.7,19.8c0,1,1,3.1,2.6,3.1c3.3,0,7.5-3.1,11.9-9.2c4.1-5.6,6.2-9.1,8.2-15.7c0.2-0.5,0-1.6-0.3-1.9
					c-0.8-0.9-1.9-1.6-2.5-1.6C1712.6,110.6,1709.1,112.4,1705.7,116z"/>
				<path class="st1" d="M1753.4,107.3c4.4-3,8.1-4.5,11.3-4.5c0.9,0,4.5,1.1,5.9,2c0.4,0.3,1.1-0.1,1.2-0.4
					c2.2-7.7,4-16.2,4.3-18.4c0.1-1.4-0.4-1.9-4.1-3.1c-1.2-0.4-1.9-1.9-1.9-2.3c0-0.3,0.4-1,2.3-1.6c4.9-1.4,11.4-1.9,12.2-1.9
					c0.7,0,1.5,1.8,1,4.1c-1,5.4-4.3,18.4-7,29.1c-2.3,8.7-4.7,17.2-6.5,26.1c-0.2,1-0.3,1.3,0.1,1.8c0.2,0.3,0.9,0.5,1.5,0.5
					c2.2,0,5.2-2.7,7.6-5.6c0.6-0.8,1-1.2,2-1.2c1.6,0,0.4,3.3,0.2,3.8c-2.2,4.8-7.9,11.2-15.5,11.2c-1.5,0-3.3-0.7-4.1-1.6
					c-0.1-0.2-0.7-1.9-0.7-2.2c0-1.1,1.8-7.5,2.6-10.5c0.2-0.7-0.4-0.9-0.9-0.5c-0.4,0.8-7.6,9.3-14.2,13c-2.1,1.2-4.5,1.9-6.3,1.9
					c-2.8,0-5.4-2-6.3-3.6c-0.8-1.3-1.7-3.7-1.7-7.3C1736.5,127.5,1743.6,114.2,1753.4,107.3z M1749.1,139.9c3.5,0,7.6-3.9,10.9-8
					c2.9-3.7,6.5-8.9,8.8-17.2c0.2-0.7,0.2-1.8-0.1-2.7c-0.6-2.2-2.4-5-3.2-5c-5.9,0-12.9,9.3-15.6,14.5c-2.8,5.3-4.7,11.9-4.7,15.6
					C1745.3,138.1,1747.4,139.9,1749.1,139.9z"/>
				<path class="st1" d="M1333.5,208.9c2.5,0,2.8-0.2,5.2-3.2c1.9-2.6,2.7-3,3.2-3c0.7,0,2.4,1.6,2,2.6c-2,4.3-4,12-4.8,14.8
					c-0.2,1-0.6,1.7-1.3,1.7c-1.2,0-2.3-1.1-2.4-2.8c-0.4-3.7-1.2-4.6-3.1-5c-1-0.2-3.1-0.4-4.7-0.4c-2.7,0-5.3,0.4-6.6,0.6
					c-0.3,0.1-1.1,1-1.2,1.3c-1.2,3.2-4,15.5-4.7,19.1c-0.3,1.8,0.3,3.8,1.1,4c1.3,0.4,4.9,0.9,10.1,0.9c8.6,0,11.6-1.1,15-4.4
					c1.5-1.4,2.8-2.8,5-5.8c0.6-0.9,1.6-1.4,2.1-1.4c1.2,0,1.2,2.2,1.2,2.6c-0.2,4.3-5.6,12.1-7,13c-1.1,0.7-2.3,0.9-3.2,0.9
					c-7.9,0-14.6-0.8-32.1-0.7c-4.7,0-10.2,0.5-11.8,0.5c-2,0-3.2-0.8-3.2-1.7c0-1.2,1.8-2,3.1-2.2c7.2-1,7.7-1.7,9-5.5
					c3.1-9.4,9.5-32.8,12.2-43.2c0.9-3.8,0.4-5.2-4.9-6.2c-2.6-0.5-3.2-1.1-3.2-1.8c0-0.8,1-2,3.4-2c0.9,0,11,0.5,18.1,0.5h8
					c9.2,0,11.9-0.3,16.1-0.6c0.9,0,1.3,1.8,0.9,2.7c-2.3,5.9-3.3,10.2-3.5,10.9c-0.4,1.7-1.6,2.5-2.4,2.5c-0.9,0-1.5-1.3-1.5-2.6
					c-0.1-6.5-0.9-7.9-2.7-8.4c-2.1-0.4-5-0.5-9.2-0.5c-2,0-4.5,0.2-6.4,0.5c-0.5,0.1-1.3,1.1-1.9,2.4c-0.9,2.1-3.1,9.2-5.5,18.6
					c-0.1,0.3,0.2,1.1,0.5,1.1H1333.5z"/>
				<path class="st1" d="M1375.9,206.4c-0.5,3-6.3,19.1-9.4,28.2c-0.3,0.8-0.1,3,1.4,3c3.1,0,6.5-2.9,12.5-11.3
					c4.7-6.4,10.5-17.7,12.5-21.3c1.7-3,2.9-3.8,3.6-3.8c1.7,0,3.7,1.6,3.7,3.2c0,1.5-0.6,3.5-2.2,8.7c-1.6,5.2-4.6,16-6.5,22.2
					c-0.1,0.3,0.3,1,1.1,1c1.6,0,3.7-1,7.5-4.7c1.8-1.9,3.1-1.1,3.1-0.5c0,1.3-0.6,2.9-1.3,4.4c-2.1,4.3-8.8,10-15.4,10
					c-2.5,0-4-2.3-4-3.6c0-0.5,0.7-2.5,1.4-4.5l4-12.2c0.2-0.5-0.7-1.2-1-0.7c-4.5,6.1-9.3,12.1-15.2,16.8c-2.8,2.3-6.2,3.4-8.5,3.4
					c-2.1,0-4.8-1.1-5.7-3c-0.5-1.1-0.4-2.5,0-4.7c0.5-2.3,6.3-18.4,8.5-24.3c0.9-2.1,0.2-2.9-0.2-2.9c-1.8,0-6.4,4.2-7.4,5
					c-0.4,0.3-1.8-0.2-1.8-1.2s0.7-2.6,1.7-3.8c3.9-4.7,10-8.6,14.5-8.6C1374.9,201.2,1376.2,204.1,1375.9,206.4z"/>
				<path class="st1" d="M1426.8,207.5c0,0.9-1.6,6.9-3.1,11.2c-0.1,0.4,0.4,0.7,0.8,0.3c0.4-0.8,6.8-11.6,10.3-15
					c2.5-2.5,4.7-2.9,6.1-2.9c3.3,0,5.3,2.8,5.3,3.9c0,3.1-3.1,6.7-5,7.8c-0.3,0.2-1.5,0.1-1.9-0.1c-0.7-0.4-2.8-2.3-3.7-2.3
					c-1.1,0-2.5,1.7-3.7,3.7c-5.3,9-8.5,16.6-12.9,26.7c-1.5,3.4-3,4.3-3.6,4.3c-1.7,0-3.8-1.4-4.2-1.9c-0.4-0.7-0.5-2.2-0.2-2.9
					c0.4-1.2,6.7-20.3,8.1-25.9c0.7-3.2,0.5-5.1-1.2-5.1c-1.2,0-2.9,0.8-4.9,3c-1.1,1.1-2,1.5-2.6,1.5c-0.7,0-0.9-1-0.9-1.5
					c0-3.5,5.6-11.2,12-11.2C1425.4,201.2,1426.8,204.2,1426.8,207.5z"/>
				<path class="st1" d="M1481.8,215.8c0,9.5-4.6,20.6-12,25.7c-3,2-6.7,3.6-10.2,3.6c-8.2,0-12.8-8.6-12.7-15.8
					c0.1-9.5,5.5-19.5,11.7-24.3c3.1-2.3,8.6-3.9,10.8-3.9C1477.5,201.2,1481.8,208.6,1481.8,215.8z M1461.4,212.1
					c-4.9,7.9-6.6,16.5-6.6,21.7c0,3.8,1.6,6.6,5.4,6.6c1.8,0,3.7-1.1,6.7-5.3c3.4-4.8,7.5-16.5,7.5-22.5c0-3.3-1-6.9-5-6.9
					C1467.6,205.7,1464.6,206.8,1461.4,212.1z"/>
				<path class="st1" d="M1516.8,239.1c-4.3,3.4-9.3,6.1-11.9,6.1c-1.3,0-3.1-0.6-5-1.3c-0.3-0.1-1.1,0.5-1.1,0.7
					c-1,4.6-1.9,7.9-2.8,12.8c-0.6,3.4-0.3,4.7,4.8,6c1.1,0.2,2.7,1,2.7,1.9c0,1.1-1.3,2.3-3.7,2.3c-0.3,0-6.7-0.5-11.8-0.6
					c-2.5,0-6.2,0.2-7.7,0.2c-2.2,0-3.1-0.6-3.1-1.4c0-0.9,1.4-2.7,2.7-2.9c5.4-1,6.1-1.9,7.2-5.1c2.4-6.8,8.7-35.3,11.4-47.1
					c0-0.3-0.3-1.3-0.7-1.1c-1.5,0.5-4.9,1.5-6.6,2.2c-0.7,0.2-1.6-0.5-1.6-0.8c0-0.9,1.6-3.2,1.9-3.4c0.9-0.8,4.8-2.1,7.2-3.2
					c0.9-0.4,1.2-0.8,1.3-1.1c1.5-6.1,1.9-7.6,2.9-9c0.5-0.5,2-1.6,2.7-1.6c0.8,0,4,2,4,3.2c0,1.2-0.6,3.7-1,5.5
					c0,0.4,0.4,0.9,0.7,0.9c3.3-0.4,7-0.9,8.6-0.9c10.4,0,12.6,6.9,12.6,12.4C1530.4,224.9,1520.5,236.1,1516.8,239.1z
					 M1515.9,206.1c-3.3,0-6.6,0.7-7.5,0.9c-0.3,0.1-1.4,1.4-1.5,2.4c-1.5,6.8-5.2,21.1-6.3,26c-0.1,0.3,0.1,1.3,0.5,2
					c0.7,1.6,2.4,3.4,3.5,3.4c3.3,0,8.6-5.9,10.6-8.9c1.1-1.8,6.4-11.8,6.4-19.1C1521.6,208.4,1518.2,206.1,1515.9,206.1z"/>
				<path class="st1" d="M1567.9,202.5c2.5,1.5,4.2,3.9,4.3,7c0.1,3.8-2.3,7-5.2,9c-4.9,3.5-12.8,5.2-18.3,5.6c-0.2,0-0.9,0.7-1,1
					c-0.5,1.3-0.9,4.8-0.9,7.9c0,1.1,0.6,3.3,2.1,4.5c1.8,1.3,3.7,1.4,4.5,1.4c2.4,0,7.4-2.9,9.5-5.3c0.8-0.8,1.8-1.6,2.3-1.6
					s1.1,1,1.1,1.6c0,1.6-1.5,3.8-2.9,5.3c-3.1,3.1-7.9,6.4-14.2,6.4c-5.8,0-9.9-4.3-11.1-9.4c-0.2-0.6-0.3-1.7-0.3-2.5
					c0-9.9,6.2-23,14.4-28.8c2-1.3,6.9-3.3,10.8-3.3C1564.1,201.2,1566.9,202,1567.9,202.5z M1549,219.3c0,0.7,0.1,1.1,0.6,1.1
					c3.9-0.2,15.3-4.5,15.3-12.9c0-1.2-1.3-2.6-2.4-2.6C1558.7,204.9,1552.3,211.5,1549,219.3z"/>
				<path class="st1" d="M1608.6,203.7c0.2,0.1,0.7-0.1,0.8-0.5c0.5-1.2,0.9-2.3,1.3-2.9c0.4-0.7,1-0.9,1.3-0.9
					c1.3-0.1,3.5,0.5,4.6,1.2c0.5,0.3,0.8,1.3,0.7,1.8c-0.9,3.6-7.8,26.7-9.1,31.8c-0.2,1-0.3,1.7,0,2c0.4,0.3,0.7,0.4,1.2,0.4
					c1.7,0,4.5-1.7,7-4.9c1.4-1.8,3.1-1.8,3.1-0.1c0,1.1-0.6,2.2-1.2,3.5c-2.2,4.4-8.1,10-15.3,10c-1.7,0-3.7-1.7-3.7-3.1
					c0-1.5,2.1-7.6,2.9-11c0.1-0.3-0.7-0.4-1.1,0.1c-4,4.9-14.1,14.1-21.1,14.1c-1.2,0-3.6-0.7-4.6-1.5c-1.3-1.2-1.6-3.1-1.6-4.4
					c0-3.4,2.2-9.5,6-14.7c5.8-7.9,12.7-15,20.1-19.7c2.6-1.7,4.1-1.8,4.8-1.8S1607.8,203.4,1608.6,203.7z M1594.6,214.3
					c-6.1,6.8-10.7,15.7-10.7,19.8c0,1,1,3.1,2.6,3.1c3.3,0,7.5-3.1,11.9-9.2c4.1-5.6,6.2-9.1,8.2-15.7c0.2-0.5,0-1.6-0.3-1.9
					c-0.8-0.9-1.9-1.6-2.5-1.6C1601.5,208.9,1597.9,210.7,1594.6,214.3z"/>
				<path class="st1" d="M1312,280.2c10.3,0,12.6-0.1,14.8-0.5c0.9-0.2,2.2,1.1,2.7,2.9c1.5,4.8,6.1,25.8,9,39
					c0.2,1,0.6,1.3,1.2,0.5c4.4-6,14.3-20,19.4-26.9l9.8-13.7c0.9-1.2,3.8-1.5,5-1.5c2.9,0,9.3,0,11.8,0.1c1.7,0,3.2,0.6,3.2,1.5
					c0,1-1.4,2.3-3.3,2.4c-6.8,0.5-7.7,1.5-9.1,6.9c-1.7,6-7.1,30.8-8.5,39.6c-1.1,6.3,1,7,6.2,8.2c2.1,0.5,2.6,1,2.6,2.2
					c0,1.1-1.2,1.7-3.1,1.7c-5.1,0-8.4-0.6-14.2-0.6c-4.9,0-8.6,0.5-10,0.5c-1.9,0-3.2-1.2-3.1-2.2c-0.1-0.9,0.5-1.4,2.2-1.7
					c6.6-1.2,7.9-3.3,10.2-12c2.5-9.5,7.1-26.3,8.7-33.8c0.2-0.8-0.6-0.9-1-0.5c-4.7,6.5-16.5,23-19.6,27.9
					c-3.7,5.9-8.4,13.4-9.9,16.1c-1.8,3.2-3.7,4.4-5,4.4c-1.3,0-2.2-3.9-2.4-6.2c-0.7-9.5-3.6-24.3-6.3-38.2
					c-0.2-0.6-1.1-0.1-1.3,0.4c-3.6,9.1-9.4,26.8-11,33.8c-1.2,5.8-0.4,6.6,4.9,7.7c1.9,0.4,2.9,1.3,3,2.2c-0.1,0.9-1.3,1.9-3.5,1.9
					c-3.7,0-5.4-0.3-9-0.3c-2.8,0-9.5,0.5-11,0.5c-2.2,0-3.5-0.9-3.6-1.8c0-1.2,1.4-1.9,3.2-2.3c5.2-1,7.2-2.4,9.2-7.2
					c2.4-5.8,12.5-32.6,14.4-38c0.9-2.3,1.3-4.1,1.1-5.2c-0.2-1.1-0.9-2.5-1.8-2.7c-2.5-0.6-5-1-6.3-1.3c-0.7-0.1-2.5-1-2.4-2
					C1309.1,281.1,1310.3,280.2,1312,280.2z"/>
				<path class="st1" d="M1403.9,303.6c0,1.1-0.4,2.4-0.8,3.8l-8.9,25.6c-0.1,0.2,0.2,0.9,0.6,0.9c1.3,0,5.2-2.3,7.1-3.9
					c0.8-0.6,1.7-1,2.1-1c0.4,0,0.8,0.2,0.8,1c0,1.5-0.9,2.9-2,4.4c-3.4,4.5-11.2,9-14.8,9c-1.6,0-3.5-2.1-3.5-3.4
					c0-0.8,0.3-2.4,0.9-3.9c0.6-1.3,6.4-17.6,8.9-25.3c0.7-2.1,0.2-2.7-0.3-2.7c-1.9,0-6.4,3.4-8.1,5.2c-0.4,0.4-1.6-1.2-1.6-1.7
					c0-0.5,0.5-1.3,0.9-2c3.7-5.4,10.8-10,15.9-10C1402.4,299.4,1403.9,301.5,1403.9,303.6z M1406.8,284.1c0,2.2-1.7,4.9-2.5,5.5
					c-0.7,0.6-1.9,0.9-3,0.9c-2,0-4.6-1.5-4.6-4.5c0-2.6,1.9-5,2.8-5.7c0.6-0.4,1.9-0.8,2.7-0.8
					C1405.8,279.5,1406.8,282.6,1406.8,284.1z"/>
				<path class="st1" d="M1439.4,300.9c0.6,0.3,1.4,0.5,1.8,0.4c1.2-0.1,7.4-1,10.2-1c0.5,0,1.3,0.8,1.3,2.4c0,1.4-1.2,4.1-2.2,4.1
					c-1.4,0-4.9-0.6-6.9-1c-0.3-0.1-0.8,0.5-0.6,0.8c0.3,0.9,0.6,3,0.6,3.7c0,8.4-5.4,15.9-9.2,18.4c-1.5,0.9-6.9,2.9-8.7,3.4
					c-1,0.1-1.7,1.6-1.7,2.5c0,1.7,1.3,3.1,3.9,4.6c6.2,3.5,10.9,7.2,12.9,9.1c1.3,1.1,2.9,3.9,2.9,5.2c0,4.2-3.2,8.5-8.7,11
					c-3.5,1.6-10.3,2.9-15.4,2.9c-3.7,0-10-1.4-14.3-4.6c-2.8-2.1-4.1-5.3-4.1-7.1c0-3.8,4-7.1,7.1-8.9c3.1-1.7,6.6-2.8,9.2-3.9
					c0.3,0,0.6-0.8,0.3-1.1c-0.4-0.5-0.8-1.2-1.1-2c-0.4-0.8,0-2.7,0.8-3.4c1-1.2,2.5-2.4,3.6-3.5c0.1-0.5-0.4-0.7-0.6-0.8
					c-3.4-1-6.7-5.2-6.7-9.8c0-9.4,7.4-18.3,13.2-21.2c1.6-0.8,5.6-1.7,7.4-1.7C1435.9,299.4,1438.6,300.4,1439.4,300.9z
					 M1436.1,356c0-0.8-0.6-1.7-1.7-2.9c-1-1.2-6.2-4.7-11.7-7.2c-0.4-0.1-1.5-0.4-2-0.3c-4.1,1.1-10.8,4.8-10.8,8.8
					c0,1.6,1.2,3.8,1.7,4.3c2.5,1.9,7.9,3.9,13.5,3.9C1430.7,362.6,1436.1,361.3,1436.1,356z M1426.1,309.7
					c-3.3,5.2-4.5,10.7-4.5,14.5c-0.1,4.1,2.8,4.7,4,4.7c1.1,0,1.7-0.6,3.4-2.3c3.7-3.7,6.9-11.8,6.9-18.3c0-3.5-1.7-4.8-2.5-4.8
					C1431.4,303.4,1429.2,304.8,1426.1,309.7z"/>
				<path class="st1" d="M1473.9,304.7c-0.5,3-6.3,19.1-9.4,28.2c-0.3,0.8-0.1,3,1.4,3c3.1,0,6.5-2.9,12.5-11.3
					c4.7-6.4,10.5-17.7,12.5-21.3c1.7-3,2.9-3.9,3.6-3.9c1.7,0,3.7,1.6,3.7,3.2c0,1.5-0.6,3.5-2.2,8.7c-1.6,5.2-4.6,16-6.5,22.2
					c-0.1,0.3,0.3,1,1.1,1c1.6,0,3.7-1,7.5-4.7c1.8-1.9,3.1-1.1,3.1-0.5c0,1.3-0.6,2.9-1.3,4.4c-2.1,4.3-8.8,10-15.4,10
					c-2.5,0-4-2.3-4-3.6c0-0.5,0.7-2.5,1.4-4.5l4-12.2c0.2-0.5-0.7-1.2-1-0.7c-4.5,6.1-9.3,12.1-15.2,16.8c-2.8,2.3-6.2,3.4-8.5,3.4
					c-2.1,0-4.8-1.1-5.7-3c-0.5-1.1-0.4-2.5,0-4.7c0.5-2.3,6.3-18.4,8.5-24.3c0.9-2.1,0.2-2.9-0.2-2.9c-1.8,0-6.4,4.2-7.4,5
					c-0.4,0.3-1.8-0.2-1.8-1.2c0-1,0.7-2.6,1.7-3.8c3.9-4.7,10-8.6,14.5-8.6C1472.9,299.4,1474.3,302.4,1473.9,304.7z"/>
				<path class="st1" d="M1536.6,300.8c2.5,1.5,4.2,3.9,4.3,7c0.1,3.8-2.3,7-5.2,9c-4.9,3.5-12.8,5.2-18.3,5.6c-0.2,0-0.9,0.7-1,1
					c-0.5,1.3-0.9,4.8-0.9,7.9c0,1.1,0.6,3.3,2.1,4.5c1.8,1.3,3.7,1.4,4.5,1.4c2.4,0,7.4-2.9,9.5-5.3c0.8-0.8,1.8-1.6,2.3-1.6
					c0.5,0,1.1,1,1.1,1.6c0,1.6-1.5,3.8-2.9,5.3c-3.1,3.1-7.9,6.4-14.2,6.4c-5.8,0-9.9-4.3-11.1-9.4c-0.2-0.6-0.3-1.7-0.3-2.5
					c0-9.9,6.2-23,14.4-28.8c2-1.3,6.9-3.3,10.8-3.3C1532.9,299.4,1535.6,300.3,1536.6,300.8z M1517.8,317.6c0,0.7,0.1,1.1,0.6,1.1
					c3.9-0.2,15.3-4.5,15.3-12.9c0-1.2-1.3-2.6-2.4-2.6C1527.4,303.2,1521,309.8,1517.8,317.6z"/>
				<path class="st1" d="M1555.9,274.5c3.1-0.4,8.6-0.9,11.6-0.9c0.7,0,1.5,1.9,0.8,4.5c-2.4,9.5-12.1,43-14.5,54.5
					c-0.5,2.5,0.4,3.3,1.7,3.3c2.2,0,4.7-2.8,6.7-4.8c0.6-0.5,2.1-0.6,2.1,0.4c0,0.9-0.4,2.2-0.8,3c-3,5.3-8.6,8.9-13.9,8.9
					c-2.7,0-4.8-3.1-4.8-5.6c0-4.5,3.1-15.5,4.6-20.4c3.6-13.8,8.2-31.2,9.4-36c0.1-0.7,0.1-1.8-3.4-2.7c-1.8-0.4-2.5-1.1-2.5-1.5
					C1553,276.2,1554.6,274.7,1555.9,274.5z"/>
				<path class="st1" d="M1608.3,303.9c4.4-3,8.1-4.5,11.3-4.5c0.9,0,4.5,1.1,5.9,2c0.4,0.3,1.1-0.1,1.2-0.4
					c2.2-7.7,4-16.2,4.3-18.4c0.1-1.4-0.4-1.9-4.1-3.1c-1.2-0.4-1.9-1.9-1.9-2.3c0-0.3,0.4-1,2.3-1.6c4.9-1.4,11.4-1.9,12.2-1.9
					c0.7,0,1.5,1.8,1,4.1c-1,5.4-4.3,18.4-7,29.1c-2.3,8.7-4.7,17.2-6.5,26.1c-0.2,1-0.3,1.3,0.1,1.8c0.2,0.3,0.9,0.5,1.5,0.5
					c2.2,0,5.2-2.7,7.6-5.6c0.6-0.8,1-1.2,2-1.2c1.6,0,0.4,3.3,0.2,3.8c-2.2,4.8-7.9,11.2-15.5,11.2c-1.5,0-3.3-0.7-4.1-1.6
					c-0.1-0.2-0.7-1.9-0.7-2.2c0-1.1,1.8-7.5,2.6-10.5c0.2-0.7-0.4-0.9-0.9-0.5c-0.4,0.8-7.6,9.3-14.2,13c-2.1,1.2-4.5,1.9-6.3,1.9
					c-2.8,0-5.4-2-6.3-3.6c-0.8-1.3-1.7-3.7-1.7-7.3C1591.4,324,1598.4,310.8,1608.3,303.9z M1604,336.5c3.5,0,7.6-3.9,10.9-8
					c2.9-3.7,6.5-8.9,8.8-17.2c0.2-0.7,0.2-1.8-0.1-2.7c-0.6-2.2-2.4-5-3.2-5c-5.9,0-12.9,9.3-15.6,14.5c-2.8,5.3-4.7,11.9-4.7,15.6
					C1600.2,334.7,1602.3,336.5,1604,336.5z"/>
				<path class="st1" d="M1674.7,300.8c2.5,1.5,4.2,3.9,4.3,7c0.1,3.8-2.3,7-5.2,9c-4.9,3.5-12.8,5.2-18.3,5.6c-0.2,0-0.9,0.7-1,1
					c-0.5,1.3-0.9,4.8-0.9,7.9c0,1.1,0.6,3.3,2.1,4.5c1.8,1.3,3.7,1.4,4.5,1.4c2.4,0,7.4-2.9,9.5-5.3c0.8-0.8,1.8-1.6,2.3-1.6
					s1.1,1,1.1,1.6c0,1.6-1.5,3.8-2.9,5.3c-3.1,3.1-7.9,6.4-14.2,6.4c-5.8,0-9.9-4.3-11.1-9.4c-0.2-0.6-0.3-1.7-0.3-2.5
					c0-9.9,6.2-23,14.4-28.8c2-1.3,6.9-3.3,10.8-3.3C1670.9,299.4,1673.6,300.3,1674.7,300.8z M1655.8,317.6c0,0.7,0.1,1.1,0.6,1.1
					c3.9-0.2,15.3-4.5,15.3-12.9c0-1.2-1.3-2.6-2.4-2.6C1665.4,303.2,1659.1,309.8,1655.8,317.6z"/>
				<path class="st1" d="M1356.6,380.3c1.1,0.3,3.2,0,3.9-0.5c0.8-0.5,2.3-1,2.9-0.5c0.5,0.5,0.9,1.8,0.5,2.7c-1,2-3.7,9.6-4.2,11.5
					c-0.3,1.7-1.6,3.2-2.6,3.2c-1,0-1.6-1.7-1.7-3.2c0.1-2.9-0.4-5.4-1.9-7.5c-2.6-3.5-8.5-5.1-11.4-5.1c-6,0-12.7,2.2-18.9,9.3
					c-5.7,6.6-9.1,17.8-9.1,25.7c0,2.9,1,9.1,2.7,12.3c2.7,5.3,7.8,8.8,14.8,8.8c5.2-0.1,9.8-3.5,11.9-5.5c2-1.9,3.5-3.6,5.8-5.5
					c0.9-0.8,2-1.5,2.6-1.5c0.8,0,1.4,1.5,1.1,2.8c-0.5,2.6-6.2,11.9-6.5,12.4c-0.3,0.5-1.3,1.3-2.1,0.8c-1.2-0.9-2.8-1.9-4.9-1.1
					c-4,1.5-9,2.3-11.5,2.3c-7.6,0-13.9-2.6-18.1-7.2c-4.4-4.7-6.8-11.3-6.8-18.8c0-13.3,7.2-25.9,17.9-32.9
					c5.5-3.6,13-6.3,21.7-6.3C1351,376.9,1355.1,379.8,1356.6,380.3z"/>
				<path class="st1" d="M1391.8,399c2.5,1.5,4.2,3.9,4.3,7c0.1,3.8-2.3,7-5.2,9c-4.9,3.5-12.8,5.2-18.3,5.6c-0.2,0-0.9,0.7-1,1
					c-0.5,1.3-0.9,4.8-0.9,7.9c0,1.1,0.6,3.3,2.1,4.5c1.8,1.3,3.7,1.4,4.5,1.4c2.4,0,7.4-2.9,9.5-5.3c0.8-0.8,1.8-1.6,2.3-1.6
					s1.1,1,1.1,1.6c0,1.6-1.5,3.8-2.9,5.3c-3.1,3.1-7.9,6.4-14.2,6.4c-5.8,0-9.9-4.3-11.1-9.4c-0.2-0.6-0.3-1.7-0.3-2.5
					c0-9.9,6.2-23,14.4-28.8c2-1.3,6.9-3.3,10.8-3.3C1388,397.7,1390.8,398.5,1391.8,399z M1372.9,415.8c0,0.7,0.1,1.1,0.6,1.1
					c3.9-0.2,15.3-4.5,15.3-12.9c0-1.2-1.3-2.6-2.4-2.6C1382.6,401.5,1376.2,408.1,1372.9,415.8z"/>
				<path class="st1" d="M1419.2,404.1c0,0.9-1.6,6.9-3.1,11.2c-0.1,0.4,0.4,0.7,0.8,0.3c0.4-0.8,6.8-11.6,10.3-15
					c2.5-2.5,4.7-2.9,6.1-2.9c3.3,0,5.3,2.8,5.3,3.9c0,3.1-3.1,6.7-5,7.8c-0.3,0.2-1.5,0.1-1.9-0.1c-0.7-0.4-2.8-2.3-3.7-2.3
					c-1.1,0-2.5,1.7-3.7,3.7c-5.3,9-8.5,16.6-12.9,26.7c-1.5,3.4-3,4.3-3.6,4.3c-1.7,0-3.8-1.4-4.2-1.9c-0.4-0.7-0.5-2.2-0.2-2.9
					c0.4-1.2,6.7-20.3,8.1-25.9c0.7-3.2,0.5-5.1-1.2-5.1c-1.2,0-2.9,0.8-4.9,3c-1.1,1.1-2,1.5-2.6,1.5c-0.7,0-0.9-1-0.9-1.5
					c0-3.5,5.6-11.2,12-11.2C1417.8,397.7,1419.2,400.8,1419.2,404.1z"/>
				<path class="st1" d="M1460.5,399.4c0.9,1.3,1.2,4.3,0.5,6.2c-2.5,6.3-6,18.3-7.3,22.4c-0.4,1.1-0.4,2.4,0.1,3.5
					c0.6,1.7,2.2,2.8,3.4,2.8c7.8,0,16.7-13.6,16.7-22.6c0-1.7-1.4-4.6-2.4-6.3c-0.6-1-1-2.1-1-2.8c0-1.9,3.4-5,5.9-5
					c1.9,0,5,2.1,5,8c0,7.5-5.2,19-11.2,25.8c-5.5,5.9-10.8,10.2-17.9,10.2c-4.5,0-7.4-4.8-7.4-8.7c0-2.1,0.3-4,1.5-7.9
					c2-6.5,4.7-13.4,6.1-18.1c0.1-0.6-0.3-1.2-0.8-1.2c-1.4,0-5.1,3-7.7,5.1c-0.4,0.4-1.9,0-1.9-1c0-0.7,0.3-1.6,0.8-2.4
					c2.4-3.8,9.4-9.7,14.6-9.7C1458.6,397.7,1460,398.6,1460.5,399.4z"/>
				<path class="st1" d="M1517.7,400.3c0.2,0.1,0.7-0.1,0.8-0.5c0.5-1.2,0.9-2.3,1.3-2.9c0.4-0.7,1-0.9,1.3-0.9
					c1.3-0.1,3.5,0.5,4.6,1.2c0.5,0.3,0.8,1.3,0.7,1.8c-0.9,3.6-7.8,26.7-9.1,31.8c-0.2,1-0.3,1.7,0,2c0.4,0.3,0.7,0.4,1.2,0.4
					c1.7,0,4.5-1.7,7-4.9c1.4-1.8,3.1-1.8,3.1-0.1c0,1.1-0.6,2.2-1.2,3.5c-2.2,4.4-8.1,10-15.3,10c-1.7,0-3.7-1.7-3.7-3.1
					c0-1.5,2.1-7.6,2.9-11c0.1-0.3-0.7-0.4-1.1,0.1c-4,4.9-14.1,14.1-21.1,14.1c-1.2,0-3.6-0.7-4.6-1.5c-1.3-1.2-1.6-3.1-1.6-4.4
					c0-3.4,2.2-9.5,6-14.7c5.8-7.9,12.7-15,20.1-19.7c2.6-1.7,4.1-1.8,4.8-1.8C1514.4,399.7,1516.9,400,1517.7,400.3z M1503.7,410.9
					c-6.1,6.8-10.7,15.7-10.7,19.8c0,1,1,3.1,2.6,3.1c3.3,0,7.5-3.1,11.9-9.2c4.1-5.6,6.2-9.1,8.2-15.7c0.2-0.5,0-1.6-0.3-1.9
					c-0.8-0.9-1.9-1.6-2.5-1.6C1510.6,405.4,1507,407.2,1503.7,410.9z"/>
				<path class="st1" d="M1577.8,405c0,1.3-0.4,3.3-1.2,6.3c-1.5,5.4-4.6,13.4-6.9,19.5c-0.5,1.2,0,1.6,0.4,1.6c1.6,0,6-3.1,8.1-4.9
					c0.6-0.5,1.5,0.5,1.5,1.3c0,0.6-0.5,2.2-1.7,3.5c-3.8,4.5-10.7,9.3-15.9,9.3c-1.2,0-2.8-1.7-3-2.5c-0.2-0.9-0.1-2.3,0.7-4.5
					c0.7-1.7,9.6-25.4,10.5-28.9c0.2-0.6-0.3-2.5-2.5-2.5c-4.3,0-9.8,7.1-13.2,12.5c-5.3,8.5-11.3,21.3-12.7,23.8
					c-0.5,1-1.7,2.1-2.5,2.1c-1.1,0-3.7-1.8-3.7-3.3c0-1.2,0-3.4,2.3-8.9c2.6-6.2,7-17.9,8-20.9c0.8-2.2-0.1-3-0.4-3
					c-1.9,0-4.5,1-7.6,3.7c-1.1,0.8-2.7,0.4-2.7-0.5c0-0.4,0.1-1.3,0.4-2c2-4.8,7.1-9.1,12.8-9.1c3.2,0,4.8,2.4,4.8,5.1
					c0,2.3-1.1,5.5-2.5,9.1c-0.2,0.4,0.1,1,0.5,0.5c3.3-4.6,7.7-8.5,11.2-11c2.8-2,6.2-3.6,9.7-3.6
					C1575.8,397.7,1577.8,401.6,1577.8,405z"/>
				<path class="st1" d="M1609.7,388.9c0,0.8-1.2,5-2.5,9.3c-0.2,0.5,0.2,1,0.8,1h9.5c0.4,0,0.7,0.7,0.7,1.2c0,0.7-1.5,4.2-2.1,4.2
					l-9.7-0.4c-0.3,0-0.9,0.6-1.1,1.1c-1,2.7-3.8,12.1-6.7,22.4c-1,3.4-0.5,4.3,0.2,4.3c1.9,0,6.1-3.2,9.4-6.2
					c0.4-0.3,1.5,0.7,1.5,1.4c0,1.2-0.5,2.6-1.4,3.8c-3.7,5.2-13.4,10.9-16.2,10.9c-2.6,0-3.9-3.3-3.9-4.3c0-0.3,0.2-2.3,0.8-4.8
					c1.2-4.5,6-21.2,8.1-27.5c0.1-0.3,0-0.9-0.4-0.9c-1.8,0-5.2-0.2-6.5-0.2c-0.4-0.1-0.8-0.5-0.8-1.4c0-1.6,1.5-3.3,1.8-3.4
					c0.7-0.2,5.8-0.2,6.7-0.3c0.3-0.1,1-0.6,1.2-1c0.6-1,2.9-5.9,3.7-7.6c1-2.1,2.8-2.5,3.5-2.5C1608,388,1609.7,388.5,1609.7,388.9
					z"/>
				<path class="st1" d="M1648.9,399c2.5,1.5,4.2,3.9,4.3,7c0.1,3.8-2.3,7-5.2,9c-4.9,3.5-12.8,5.2-18.3,5.6c-0.2,0-0.9,0.7-1,1
					c-0.5,1.3-0.9,4.8-0.9,7.9c0,1.1,0.6,3.3,2.1,4.5c1.8,1.3,3.7,1.4,4.5,1.4c2.4,0,7.4-2.9,9.5-5.3c0.8-0.8,1.8-1.6,2.3-1.6
					s1.1,1,1.1,1.6c0,1.6-1.5,3.8-2.9,5.3c-3.1,3.1-7.9,6.4-14.2,6.4c-5.8,0-9.9-4.3-11.1-9.4c-0.2-0.6-0.3-1.7-0.3-2.5
					c0-9.9,6.2-23,14.4-28.8c2-1.3,6.9-3.3,10.8-3.3C1645.2,397.7,1647.9,398.5,1648.9,399z M1630.1,415.8c0,0.7,0.1,1.1,0.6,1.1
					c3.9-0.2,15.3-4.5,15.3-12.9c0-1.2-1.3-2.6-2.4-2.6C1639.7,401.5,1633.4,408.1,1630.1,415.8z"/>
				<path class="st1" d="M1684,400.8c0.9,1.2,1.4,2.7,1.4,3.7c0,0.9-1.7,4.2-2.3,4.2c-0.9,0-1.4-0.1-3-1.5c-2-1.9-5-3.8-7.2-3.8
					c-2.8,0-4,2.3-4,4.1c0,3.1,2.6,6.1,7.7,11.2c3.2,3.3,4.5,6.3,4.5,8.3c0,3-0.9,7.1-7.5,11.4c-3.7,2.5-8.5,3.3-9.7,3.3
					c-2.6,0-6.2-1.1-8.1-3.2c-1.1-1.2-1.8-2.5-1.8-4.3c0-0.8,1.4-3,2.6-4.1c0.2-0.2,1.3-0.4,1.5-0.2c1.2,0.9,6.1,6.3,9.8,6.3
					c3.7,0,5.7-2.2,5.7-4.5c0-2.6-1.4-4.7-7.2-11c-3.5-3.9-4.5-7.4-4.5-9.5c0-2.8,2.1-6.7,4.8-8.9c4.2-3.5,9.2-4.7,10.3-4.7
					C1681,397.7,1683.1,399.5,1684,400.8z"/>
			</g>
		</g>
		<rect x="1220.3" y="9.9" class="st1" width="10" height="506"/>
	</g>
</g>
<g id="Capa_2">
</g>
</svg>
