<?xml version="1.0" encoding="UTF-8" standalone="no"?>
<!DOCTYPE svg PUBLIC "-//W3C//DTD SVG 1.1//EN" "http://www.w3.org/Graphics/SVG/1.1/DTD/svg11.dtd">
<svg width="100%" height="100%" viewBox="0 0 1772 1772" version="1.1" xmlns="http://www.w3.org/2000/svg" xmlns:xlink="http://www.w3.org/1999/xlink" xml:space="preserve" xmlns:serif="http://www.serif.com/" style="fill-rule:evenodd;clip-rule:evenodd;stroke-linejoin:round;stroke-miterlimit:2;">
    <g transform="matrix(4.16667,0,0,4.16667,0,0)">
        <g>
            <g>
                <rect x="39.68" y="39.68" width="345.83" height="345.84" style="fill:rgb(239,62,66);"/>
                <path d="M385.52,39.68L385.52,385.52L39.68,385.52L39.68,39.68L385.52,39.68M395.52,29.68L29.68,29.68L29.68,395.52L395.51,395.52L395.51,29.68L395.52,29.68Z" style="fill:white;fill-rule:nonzero;"/>
            </g>
            <path d="M77.52,230.44L77.52,228.06C78.79,228.06 79.8,228.02 80.58,227.95C81.36,227.89 81.96,227.7 82.42,227.37C82.85,227.04 83.15,226.53 83.29,225.81C83.45,225.09 83.51,225.41 83.51,224.11L83.51,165.31C83.51,164.03 83.45,163 83.29,162.3C83.14,161.58 82.84,161.06 82.42,160.74C81.95,160.41 81.36,160.23 80.58,160.15C79.8,160.07 78.79,160.05 77.52,160.05L77.52,157.65L99.08,157.65L99.08,160.05C97.83,160.05 96.8,160.07 96.03,160.15C95.26,160.23 94.64,160.41 94.2,160.74C93.75,161.06 93.45,161.58 93.3,162.3C93.15,162.99 93.07,164.02 93.07,165.31L93.07,224.11C93.07,225.41 93.15,225.09 93.3,225.81C93.45,226.53 93.75,227.04 94.2,227.37C94.64,227.7 95.26,227.89 96.03,227.95C96.8,228.02 97.82,228.06 99.08,228.06L99.08,230.44L77.52,230.44Z" style="fill:rgb(251,251,253);fill-rule:nonzero;"/>
            <path d="M105.65,228.07C106.85,228.07 107.83,228.03 108.62,227.96C109.39,227.9 110,227.71 110.45,227.38C110.89,227.05 111.21,226.54 111.39,225.82C111.57,225.1 111.66,225.42 111.66,224.12L111.66,165.32C111.66,164.02 111.57,163.01 111.39,162.31C111.21,161.59 110.87,161.07 110.39,160.75C109.91,160.42 109.28,160.24 108.5,160.16C107.73,160.08 106.74,160.06 105.55,160.06L105.55,157.66L131.67,157.66C134.94,157.66 138.17,157.92 141.34,158.46C144.54,159.02 147.37,159.97 149.84,161.36C152.33,162.78 154.35,164.7 155.91,167.12C157.47,169.56 158.23,172.65 158.23,176.37C158.23,181.11 156.94,184.68 154.34,187.14C151.75,189.56 148.1,191.29 143.46,192.29C145.91,192.71 148.22,193.4 150.39,194.37C152.59,195.35 154.49,196.58 156.11,198.09C157.76,199.59 159.04,201.35 160.01,203.4C160.97,205.44 161.46,207.77 161.46,210.33C161.46,214.13 160.66,217.3 159.06,219.84C157.48,222.41 155.38,224.45 152.8,226.04C150.2,227.61 147.25,228.76 143.96,229.43C140.65,230.1 137.33,230.43 134,230.43L105.63,230.43L105.63,228.07L105.65,228.07ZM121.12,222.93C121.48,223.65 122.04,224.18 122.77,224.53C123.52,224.9 124.33,225.13 125.22,225.24C126.11,225.34 127,225.39 127.88,225.39L130.22,225.39C132.74,225.39 135.25,225.18 137.78,224.75C140.31,224.31 142.55,223.52 144.56,222.39C146.57,221.24 148.18,219.7 149.41,217.82C150.62,215.91 151.23,213.5 151.23,210.55C151.23,207.19 150.48,204.49 148.96,202.5C147.44,200.49 145.5,198.96 143.17,197.87C140.84,196.8 138.21,196.07 135.28,195.71C132.35,195.35 129.52,195.2 126.77,195.2L121.11,195.2L121.11,222.93L121.12,222.93ZM121.21,189.8L131.9,189.8C134.18,189.8 136.37,189.57 138.45,189.11C140.54,188.64 142.36,187.87 143.9,186.79C145.46,185.73 146.68,184.34 147.58,182.6C148.46,180.88 148.9,178.77 148.9,176.26C148.9,173.67 148.37,171.5 147.29,169.76C146.23,168 144.82,166.59 143.12,165.56C141.42,164.52 139.45,163.79 137.22,163.34C134.99,162.92 132.74,162.7 130.44,162.7C129.85,162.7 129.11,162.68 128.22,162.66C127.33,162.63 126.45,162.63 125.54,162.7C124.66,162.77 123.83,162.92 123.04,163.14C122.27,163.35 121.66,163.7 121.21,164.21L121.21,189.8Z" style="fill:rgb(251,251,253);fill-rule:nonzero;"/>
            <path d="M216.85,230.44L166.16,230.44L166.16,228.06C168.46,228.06 169.91,227.77 170.5,227.15C171.11,226.53 171.39,225.08 171.39,222.79L171.39,165.32C171.39,163.01 171.11,161.59 170.5,160.96C169.92,160.34 168.46,160.06 166.16,160.06L166.16,157.66L215.73,157.66L215.85,168.74L213.85,168.74C213.47,166.02 212.59,164.35 211.22,163.74C209.86,163.12 207.87,162.83 205.27,162.83L183.27,162.83C182.01,162.83 181.29,162.97 181.1,163.2C180.91,163.46 180.82,164.16 180.82,165.31L180.82,189.93L202.04,189.93C203.22,189.93 204.26,189.87 205.14,189.77C206.04,189.66 206.76,189.42 207.32,189.07C207.87,188.72 208.29,188.17 208.6,187.46C208.89,186.74 209.11,185.79 209.27,184.56L212.06,184.56L212.06,200.78L209.27,200.78C209.11,199.51 208.89,198.48 208.6,197.77C208.3,197.07 207.88,196.5 207.32,196.1C206.76,195.72 206.06,195.47 205.21,195.36C204.35,195.24 203.29,195.19 202.03,195.19L180.81,195.19L180.81,223.25C180.81,223.9 181.03,224.38 181.42,224.72C181.83,225.05 182.31,225.25 182.87,225.31C183.42,225.41 184.03,225.41 184.66,225.36C185.29,225.33 185.81,225.31 186.28,225.31L204.61,225.31C206.37,225.31 207.92,225.22 209.22,225.05C210.52,224.87 211.7,224.47 212.72,223.91C213.77,223.33 214.69,222.57 215.5,221.6C216.31,220.64 217.09,219.34 217.83,217.68L219.61,217.68L216.85,230.44Z" style="fill:rgb(251,251,253);fill-rule:nonzero;"/>
            <path d="M269.14,230.44C267.35,226.65 265.57,223.24 263.79,220.18C262.02,217.14 260.07,214.29 258.02,211.64C255.94,208.98 253.68,206.44 251.23,203.99C248.78,201.58 246.01,199.01 242.89,196.37L234.9,196.48L234.9,222.79C234.9,224.02 234.97,224.98 235.12,225.7C235.26,226.41 235.53,226.96 235.89,227.3C236.27,227.67 236.81,227.88 237.55,227.94C238.3,228.01 239.27,228.05 240.45,228.05L240.45,230.43L220.2,230.43L220.2,228.05C221.31,228.05 222.22,228.01 222.93,227.89C223.63,227.79 224.18,227.55 224.54,227.2C224.91,226.84 225.15,226.32 225.25,225.63C225.37,224.94 225.42,224.01 225.42,222.78L225.42,165.31C225.42,164.16 225.36,163.23 225.25,162.52C225.14,161.78 224.91,161.26 224.54,160.9C224.18,160.55 223.63,160.31 222.93,160.19C222.22,160.09 221.31,160.05 220.2,160.05L220.2,157.65L246.78,157.65C250.04,157.65 253.16,158 256.17,158.67C259.17,159.36 261.82,160.45 264.12,161.96C266.42,163.46 268.26,165.44 269.63,167.86C271,170.31 271.67,173.31 271.67,176.92C271.67,179.64 271.16,182.02 270.12,184.06C269.07,186.09 267.68,187.81 265.89,189.22C264.12,190.63 262.06,191.74 259.78,192.6C257.49,193.47 255.06,194.07 252.54,194.42C254.7,196.14 256.45,197.61 257.78,198.84C259.1,200.06 260.29,201.21 261.26,202.33C262.27,203.45 263.26,204.6 264.21,205.77C265.18,206.96 266.32,208.34 267.67,209.92C269.16,211.69 270.54,213.74 271.9,215.97C273.21,218.26 274.65,220.27 275.61,222.34C278.33,228.15 280.67,228.06 281.54,228.06L281.54,230.44L269.14,230.44ZM234.89,191.31L240.22,191.31C242.89,191.31 245.5,191.07 248.06,190.63C250.62,190.15 252.93,189.33 255.01,188.15C257.09,186.96 258.75,185.37 260.01,183.36C261.26,181.35 261.9,178.84 261.9,175.83C261.9,173.17 261.39,170.99 260.36,169.26C259.3,167.56 257.9,166.2 256.17,165.24C254.44,164.27 252.43,163.61 250.23,163.25C248,162.89 245.75,162.71 243.45,162.71L241.23,162.71C240.48,162.71 239.71,162.75 238.88,162.82C238.07,162.89 237.33,163.07 236.61,163.35C235.91,163.64 235.33,164.04 234.9,164.53L234.9,191.31L234.89,191.31Z" style="fill:rgb(251,251,253);fill-rule:nonzero;"/>
            <path d="M345.43,208.68C343.85,213.23 341.57,217.22 338.57,220.67C335.57,224.12 331.89,226.83 327.51,228.8C323.13,230.77 318.14,231.75 312.5,231.75C306.8,231.75 301.75,230.76 297.38,228.8C293,226.83 289.32,224.14 286.32,220.72C283.31,217.32 281.06,213.33 279.54,208.75C278.02,204.16 277.25,199.28 277.25,194.13C277.25,187.74 278.25,182.19 280.27,177.46C282.26,172.72 284.94,168.76 288.27,165.57C291.6,162.38 295.38,160.01 299.6,158.42C303.84,156.85 308.13,156.07 312.5,156.11C316.87,156.16 321.17,156.95 325.4,158.53C329.63,160.11 333.39,162.48 336.75,165.63C340.08,168.78 342.75,172.75 344.76,177.52C346.74,182.27 347.74,187.81 347.74,194.13C347.74,199.26 346.98,204.13 345.43,208.68M336.35,182.66C335.43,178.75 333.95,175.23 331.96,172.08C329.95,168.92 327.36,166.34 324.2,164.34C321,162.33 317.09,161.32 312.51,161.32C307.83,161.32 303.92,162.34 300.73,164.34C297.53,166.33 294.94,168.92 292.94,172.08C290.94,175.23 289.49,178.74 288.6,182.61C287.71,186.47 287.25,190.33 287.25,194.12C287.25,197.91 287.71,201.77 288.6,205.67C289.49,209.56 290.94,213.09 292.94,216.21C294.94,219.32 297.53,221.87 300.73,223.84C303.92,225.81 307.83,226.79 312.51,226.79C317.1,226.79 321.01,225.81 324.24,223.84C327.45,221.86 330.08,219.31 332.07,216.17C334.08,213 335.52,209.48 336.42,205.61C337.31,201.73 337.76,197.91 337.76,194.11C337.75,190.38 337.28,186.58 336.35,182.66" style="fill:rgb(251,251,253);fill-rule:nonzero;"/>
            <path d="M77.49,242.13L80.76,242.13L80.76,264.61L91.55,264.61L91.55,267.34L77.49,267.34L77.49,242.13Z" style="fill:rgb(251,251,253);fill-rule:nonzero;"/>
            <path d="M108.19,255.53L98.44,255.53L98.44,264.61L109.37,264.61L109.37,267.34L95.16,267.34L95.16,242.13L108.81,242.13L108.81,244.87L98.44,244.87L98.44,252.83L108.19,252.83L108.19,255.53Z" style="fill:rgb(251,251,253);fill-rule:nonzero;"/>
            <path d="M135.12,254.48C135.12,263.12 129.86,267.76 123.42,267.76C116.72,267.76 112.1,262.57 112.1,254.93C112.1,246.93 117.02,241.69 123.76,241.69C130.65,241.7 135.12,246.96 135.12,254.48M115.54,254.86C115.54,260.28 118.44,265.1 123.6,265.1C128.77,265.1 131.69,260.35 131.69,254.63C131.69,249.57 129.07,244.35 123.64,244.35C118.23,244.35 115.54,249.35 115.54,254.86M129.07,236.33L124.28,240.72L121.63,240.72L125.1,236.33L129.07,236.33Z" style="fill:rgb(251,251,253);fill-rule:nonzero;"/>
            <path d="M139.35,267.34L139.35,242.13L142.93,242.13L150.98,254.89C152.81,257.84 154.31,260.5 155.46,263.08L155.58,263.05C155.29,259.67 155.22,256.61 155.22,252.69L155.22,242.12L158.29,242.12L158.29,267.33L154.99,267.33L146.98,254.54C145.22,251.74 143.56,248.87 142.31,246.14L142.19,246.16C142.39,249.33 142.42,252.38 142.42,256.56L142.42,267.32L139.35,267.32L139.35,267.34Z" style="fill:rgb(251,251,253);fill-rule:nonzero;"/>
        </g>
    </g>
</svg>
