<?xml version="1.0" encoding="utf-8"?>
<!-- Generator: Adobe Illustrator 25.4.1, SVG Export Plug-In . SVG Version: 6.00 Build 0)  -->
<svg version="1.1" id="Layer_1" xmlns="http://www.w3.org/2000/svg" xmlns:xlink="http://www.w3.org/1999/xlink" x="0px" y="0px"
	 viewBox="0 0 869.5 208.3" style="enable-background:new 0 0 869.5 208.3;" xml:space="preserve">
<style type="text/css">
	.Arched_x0020_Green{fill:url(#SVGID_1_);stroke:#FFFFFF;stroke-width:0.25;stroke-miterlimit:1;}
	.st0{fill:#FFFFFF;}
	.st1{fill:#FFCA00;}
	.st2{fill:#575756;}
	.st3{fill:#B2B2B2;}
</style>
<linearGradient id="SVGID_1_" gradientUnits="userSpaceOnUse" x1="-16.8442" y1="629.8042" x2="-16.1371" y2="629.0971">
	<stop  offset="0" style="stop-color:#1DA238"/>
	<stop  offset="0.9831" style="stop-color:#24391D"/>
</linearGradient>
<g>
	<g>
		<path class="st1" d="M257,166.9c-0.2,0.1-0.5,0.3-1.2,0.5L55.6,208.3c-9.1-1.4-15-7-17.8-17.1l-2.4-10.7L0.5,15.2L0,9.9
			c0.1-2.3,0.6-4.2,1.5-5.7C3.6,1.4,6.4,0,10.1,0c0.8,0,1.6,0.1,2.3,0.2l200.5,30.7l0.3,0.1l0.4,0c0,0,1.2,0.1,4.4,3
			c2.5,2.7,4.3,5.7,5.4,8.9l9.8,31.9c-4.8,0-9.1,0.6-13.7,1.6l-3.6,1l0,0.1c4.1,1.5,7.3,3.1,9.8,4.7c2.3,1.5,4.3,3.3,6.1,5.2
			c3.5,3.8,5.2,8.1,5.3,12.9l0,63.6h21.3C258.1,165,257.6,166.1,257,166.9z"/>
	</g>
	<path class="st2" d="M378.9,97.7l-3.3,23.2c0,0.2,0,0.3,0,0.4c0,0.3,0.1,0.8,0.2,1.4h-5.1c0.3-0.6,0.5-1.2,0.6-1.8l5.1-34.1
		c0-0.3,0.1-0.6,0.1-0.9c0-0.2,0-0.5-0.1-0.9h8.4c0,0.2,0,0.3,0,0.4c0,0.3,0.1,0.8,0.2,1.3l8.6,25.5l8.7-25.6
		c0.2-0.5,0.3-0.9,0.3-1.2c0-0.1,0-0.2,0-0.4h8.2c0,0.4-0.1,0.6-0.1,0.8c0,0.3,0,0.6,0.1,0.8l4.7,34.3c0.1,0.6,0.3,1.2,0.6,1.8
		h-10.1c0.1-0.3,0.1-0.6,0.1-0.9c0-0.2,0-0.5-0.1-0.9l-2.9-23.6l-8,23.6c-0.2,0.6-0.3,1-0.3,1.4c0,0.1,0,0.2,0,0.4H387
		c0-0.1,0-0.3,0-0.4c0-0.3-0.1-0.7-0.3-1.3L378.9,97.7z"/>
	<path class="st2" d="M425.9,85.1h21.8v4.2c-0.6-0.2-1.2-0.2-1.9-0.2h-10.2v12.6h10c0.8,0,1.5-0.1,2.1-0.2v4.4
		c-0.5-0.1-1.2-0.2-2-0.2h-10.1v12.8h9.9c0.8,0,1.6-0.1,2.2-0.2v4.6h-21.8c0.2-0.5,0.3-1.1,0.3-1.8v-34
		C426.2,86.1,426.1,85.5,425.9,85.1z"/>
	<path class="st2" d="M468.8,105.8v15.1c0,0.7,0.1,1.3,0.3,1.9h-10c0.2-0.4,0.3-1,0.3-1.9v-34c0-0.7-0.1-1.3-0.3-1.9h15
		c3,0,5.5,0.7,7.5,2.2c2.7,2,4.1,4.7,4.1,8.3c0,2.4-0.7,4.5-2,6.2c-1.1,1.3-3.1,2.5-6,3.5l9.7,15.9c0.5,0.8,0.9,1.4,1.4,1.7h-11.3
		c-0.1-0.6-0.3-1.2-0.6-1.7L468.8,105.8z M468.8,102.8h1.9c1.4,0,2.6-0.4,3.4-1.2c1.4-1.3,2-3.2,2-5.5c0-2.2-0.5-3.9-1.5-5.1
		c-1-1.3-2.3-1.9-4-1.9h-1.9V102.8z"/>
	<path class="st2" d="M524.9,86.3v6.5c-1.8-1.4-3.4-2.4-4.8-3c-1.4-0.6-2.8-0.9-4.4-0.9c-3.4,0-6,1.3-7.9,4
		c-1.9,2.7-2.8,6.3-2.8,10.9c0,4.9,1.1,8.6,3.2,11.3c2,2.5,4.6,3.8,7.8,3.8c1.5,0,3-0.3,4.3-0.9c1.3-0.6,2.9-1.6,4.6-3.1v6.3
		c-2,0.8-3.7,1.4-5.3,1.7c-1.6,0.3-3.4,0.5-5.4,0.5c-6.2,0-10.9-1.6-14.1-4.9c-3.3-3.4-4.9-8.3-4.9-14.8c0-4.3,0.7-7.7,2.2-10.3
		c3.3-5.9,9.2-8.9,17.8-8.9C518.7,84.5,521.9,85.1,524.9,86.3z"/>
	<path class="st2" d="M540.8,112l-3.1,9c-0.2,0.5-0.3,0.9-0.3,1.3c0,0.1,0,0.2,0,0.4h-5.1c0.4-0.5,0.7-1.1,0.9-1.7l12.1-34.3
		c0.2-0.5,0.3-1,0.3-1.3c0-0.1,0-0.2,0-0.3h8c0,0.4,0.1,0.9,0.3,1.5l12.4,34.4c0.2,0.6,0.6,1.2,1,1.7h-10.8c0-0.2,0-0.3,0-0.4
		c0-0.4-0.1-0.8-0.3-1.4l-3.1-9H540.8z M542.3,107.8h9.5l-4.7-14L542.3,107.8z"/>
	<path class="st2" d="M575.8,85.1h13.7c5,0,9.1,1.1,12.3,3.3c2.5,1.7,4.3,4,5.5,6.8c1,2.6,1.6,5.4,1.6,8.4c0,4.7-1.1,8.6-3.3,11.9
		c-1.6,2.4-3.5,4.2-5.9,5.4c-2.3,1.3-5,1.9-7.8,1.9h-16.1c0.2-0.5,0.3-1.1,0.3-1.9v-34C576,86.1,576,85.5,575.8,85.1z M585.5,118.3
		h3.3c2.9,0,5.2-1,6.8-3c2.2-2.7,3.3-6.6,3.3-11.6c0-5.2-1.4-9.1-4.1-11.7c-1.7-1.7-4-2.5-6.6-2.5h-2.7V118.3z"/>
	<path class="st2" d="M637.6,84.5c5.5,0,10,1.4,13.3,4.2c4,3.3,5.9,8.4,5.9,15.2c0,6.5-1.8,11.5-5.4,14.8c-3.4,3.1-8.1,4.7-14.1,4.7
		c-4.2,0-7.6-0.7-10.2-2c-3.3-1.7-5.7-4.4-7.2-8c-1.1-2.7-1.7-6-1.7-9.7c0-4.2,0.8-7.8,2.5-10.8C623.9,87.3,629.5,84.5,637.6,84.5z
		 M637.6,88.6c-6.3,0-9.4,5-9.4,15.1c0,2.7,0.2,4.9,0.5,6.7c0.3,1.8,0.9,3.4,1.6,4.8c1.5,2.8,4,4.2,7.3,4.2c3.1,0,5.4-1.3,7-3.8
		c1.6-2.5,2.4-6.3,2.4-11.4c0-5.1-0.7-8.9-2.2-11.5C643.2,90,640.8,88.6,637.6,88.6z"/>
	<path class="st2" d="M662.8,85.1h28.7V90c-0.8-0.2-1.5-0.3-2.2-0.3h-7.5v31.2c0,0.8,0.1,1.4,0.3,1.9h-10c0.2-0.5,0.3-1.1,0.3-1.9
		V89.7h-7.2c-0.8,0-1.6,0.1-2.5,0.3V85.1z"/>
	<path class="st2" d="M699.8,85.1h21.8v4.2c-0.6-0.2-1.2-0.2-1.8-0.2h-10.2v12.6h10c0.8,0,1.5-0.1,2.1-0.2v4.4
		c-0.5-0.1-1.2-0.2-2-0.2h-10.1v12.8h9.9c0.8,0,1.6-0.1,2.2-0.2v4.6h-21.8c0.2-0.5,0.3-1.1,0.3-1.8v-34
		C700.1,86.1,700,85.5,699.8,85.1z"/>
	<path class="st2" d="M761.1,86.3v6.5c-1.8-1.4-3.4-2.4-4.8-3c-1.4-0.6-2.8-0.9-4.4-0.9c-3.4,0-6,1.3-7.9,4
		c-1.9,2.7-2.8,6.3-2.8,10.9c0,4.9,1.1,8.6,3.2,11.3c2,2.5,4.6,3.8,7.8,3.8c1.5,0,3-0.3,4.3-0.9c1.3-0.6,2.9-1.6,4.6-3.1v6.3
		c-2,0.8-3.7,1.4-5.3,1.7c-1.6,0.3-3.4,0.5-5.4,0.5c-6.2,0-10.9-1.6-14.1-4.9c-3.3-3.4-4.9-8.3-4.9-14.8c0-4.3,0.7-7.7,2.2-10.3
		c3.3-5.9,9.2-8.9,17.8-8.9C754.9,84.5,758.1,85.1,761.1,86.3z"/>
	<path class="st2" d="M775.7,96.1v24.8c0,0.8,0.1,1.4,0.3,1.9h-4.9c0.2-0.5,0.3-1.1,0.3-1.9v-34c0-0.8-0.1-1.4-0.3-1.9h8.4
		c0.1,0.4,0.4,0.9,0.9,1.6l18.3,24.9V86.9c0-0.7-0.1-1.4-0.3-1.9h4.8c-0.2,0.3-0.3,1-0.3,1.9v34c0,0.7,0.1,1.3,0.3,1.8H795
		c-0.1-0.4-0.4-0.9-1-1.7L775.7,96.1z"/>
	<path class="st2" d="M815.7,85.1h10c-0.2,0.4-0.3,1.1-0.3,1.9v34c0,0.8,0.1,1.4,0.3,1.9h-10c0.2-0.5,0.3-1.1,0.3-1.9v-34
		C816,86.2,816,85.6,815.7,85.1z"/>
	<path class="st2" d="M843,112l-3.1,9c-0.2,0.5-0.3,0.9-0.3,1.3c0,0.1,0,0.2,0,0.4h-5.1c0.4-0.5,0.7-1.1,0.9-1.7l12.1-34.3
		c0.2-0.5,0.3-1,0.3-1.3c0-0.1,0-0.2,0-0.3h8c0,0.4,0.1,0.9,0.3,1.5l12.4,34.4c0.2,0.6,0.6,1.2,1,1.7h-10.8c0-0.2,0-0.3,0-0.4
		c0-0.4-0.1-0.8-0.3-1.4l-3.1-9H843z M844.5,107.8h9.5l-4.7-14L844.5,107.8z"/>
	<path class="st2" d="M470.9,153.8l-9.2-19.9c-0.4-0.7-0.7-1.3-1-1.7h10.8c0,0.1,0,0.2,0,0.2c0,0.4,0.2,0.9,0.4,1.5l6.3,14l6.7-14
		c0.3-0.5,0.4-1.1,0.5-1.7h5.2c-0.3,0.4-0.6,1-1,1.7l-9.3,19.8V168c0,0.8,0.1,1.4,0.3,1.9h-10c0.2-0.5,0.3-1.1,0.3-1.9V153.8z"/>
	<path class="st2" d="M530.9,154.9V168c0,0.5,0.1,1.1,0.4,1.9h-10.1c0.2-0.6,0.3-1.2,0.3-1.9v-33.9c0-0.8-0.1-1.4-0.3-1.9h14.4
		c3.4,0,6.2,0.7,8.3,2c3,1.9,4.5,4.9,4.5,9.1c0,4.3-1.7,7.5-5,9.5c-1.3,0.8-2.6,1.3-4,1.6c-1.4,0.3-3.1,0.5-5.1,0.5H530.9z
		 M530.9,150.6h2.2c1.5,0,2.7-0.4,3.6-1.1c1.4-1.3,2.1-3.4,2.1-6.3c0-2.2-0.5-4-1.4-5.2c-0.9-1.2-2.3-1.8-4-1.8h-2.5V150.6z"/>
	<path class="st2" d="M589.7,132.2c-0.2,0.5-0.3,1.1-0.3,1.9v22.8c0,3.3-0.8,6-2.5,8.3c-2.7,3.5-7.2,5.3-13.5,5.3
		c-3.8,0-6.8-0.6-9-1.9c-4.2-2.4-6.4-6.3-6.4-11.8v-22.7c0-0.7-0.1-1.3-0.3-1.9h10c-0.2,0.5-0.3,1.2-0.3,1.9v23.2
		c0,2.4,0.6,4.3,1.7,5.7c1.5,2,3.9,3,7,3c2.9,0,5.2-0.8,6.8-2.4c1.6-1.6,2.4-4,2.4-7v-22.4c0-0.8-0.1-1.4-0.3-1.9H589.7z"/>
	<path class="st2" d="M601.6,132.2h16c3.1,0,5.6,0.8,7.5,2.3c2,1.6,3,4,3,7.2c0,3.3-1.2,5.7-3.6,7.1c-0.8,0.5-1.9,0.9-3.5,1.4
		c1.8,0.4,3.3,1,4.4,1.9c2.2,1.7,3.3,4.1,3.3,7.3c0,3.9-1.4,6.8-4.2,8.7c-1.8,1.2-4,1.9-6.5,1.9h-16.5c0.2-0.5,0.3-1.1,0.3-1.9
		v-33.9C601.9,133.3,601.8,132.6,601.6,132.2z M611.3,148.8h1.9c1.8,0,3.1-0.3,3.9-1c0.5-0.5,1-1.2,1.3-2.3c0.3-1,0.5-2.1,0.5-3.3
		c0-3.9-1.7-5.9-5.1-5.9h-2.5V148.8z M611.3,165.8h3c3.4,0,5-2,5-6.1c0-4.6-2-7-5.9-7h-2.1V165.8z"/>
	<path class="st2" d="M661.2,169.9h-21.3c0.2-0.5,0.3-1.1,0.3-1.8v-34c0-0.7-0.1-1.4-0.3-1.9h10c-0.2,0.5-0.3,1.1-0.3,1.9v31.5h9.3
		c1,0,1.8-0.1,2.3-0.3V169.9z"/>
	<path class="st2" d="M670.5,132.2h10c-0.2,0.4-0.3,1.1-0.3,1.9v34c0,0.8,0.1,1.4,0.3,1.9h-10c0.2-0.5,0.3-1.1,0.3-1.9v-34
		C670.8,133.3,670.7,132.7,670.5,132.2z"/>
	<path class="st2" d="M721.5,133.4v6.5c-1.8-1.4-3.4-2.4-4.8-3c-1.4-0.6-2.8-0.9-4.4-0.9c-3.4,0-6,1.3-7.9,4
		c-1.9,2.7-2.8,6.3-2.8,10.9c0,4.9,1.1,8.6,3.2,11.3c2,2.5,4.5,3.8,7.7,3.8c1.5,0,3-0.3,4.3-0.9c1.3-0.6,2.9-1.6,4.6-3.1v6.3
		c-2,0.8-3.7,1.4-5.3,1.7c-1.6,0.3-3.4,0.5-5.4,0.5c-6.2,0-10.9-1.6-14.1-4.9c-3.3-3.4-4.9-8.3-4.9-14.8c0-4.3,0.7-7.7,2.2-10.3
		c3.3-5.9,9.2-8.9,17.8-8.9C715.2,131.6,718.5,132.2,721.5,133.4z"/>
	<path class="st2" d="M731.8,132.2h10c-0.2,0.4-0.3,1.1-0.3,1.9v34c0,0.8,0.1,1.4,0.3,1.9h-10c0.2-0.5,0.3-1.1,0.3-1.9v-34
		C732.1,133.3,732,132.7,731.8,132.2z"/>
	<path class="st2" d="M754.5,132.2h13.7c5,0,9.1,1.1,12.3,3.3c2.5,1.7,4.3,4,5.5,6.8c1,2.6,1.6,5.4,1.6,8.4c0,4.7-1.1,8.6-3.3,11.9
		c-1.6,2.4-3.5,4.2-5.9,5.4c-2.3,1.2-5,1.9-7.8,1.9h-16.1c0.2-0.5,0.3-1.2,0.3-1.9v-34C754.8,133.3,754.7,132.6,754.5,132.2z
		 M764.2,165.4h3.3c2.9,0,5.2-1,6.8-3c2.2-2.7,3.3-6.6,3.3-11.6c0-5.2-1.4-9.1-4.1-11.7c-1.7-1.7-4-2.5-6.6-2.5h-2.7V165.4z"/>
	<path class="st2" d="M801.5,159.2l-3.1,9c-0.2,0.5-0.3,0.9-0.3,1.3c0,0.1,0,0.2,0,0.4H793c0.4-0.5,0.7-1.1,0.9-1.7l12.1-34.3
		c0.2-0.5,0.3-1,0.3-1.3c0-0.1,0-0.2,0-0.3h8c0,0.4,0.1,0.9,0.3,1.5l12.4,34.4c0.2,0.6,0.6,1.2,1,1.7h-10.8c0-0.2,0-0.3,0-0.4
		c0-0.4-0.1-0.8-0.3-1.3l-3.1-9H801.5z M803,155h9.5l-4.7-14L803,155z"/>
	<path class="st2" d="M836.5,132.2h13.7c5,0,9.1,1.1,12.3,3.3c2.5,1.7,4.3,4,5.5,6.8c1,2.6,1.6,5.4,1.6,8.4c0,4.7-1.1,8.6-3.3,11.9
		c-1.6,2.4-3.5,4.2-5.9,5.4c-2.3,1.2-5,1.9-7.8,1.9h-16.1c0.2-0.5,0.3-1.2,0.3-1.9v-34C836.8,133.3,836.7,132.6,836.5,132.2z
		 M846.2,165.4h3.3c2.9,0,5.2-1,6.8-3c2.2-2.7,3.3-6.6,3.3-11.6c0-5.2-1.4-9.1-4.1-11.7c-1.7-1.7-4-2.5-6.6-2.5h-2.7V165.4z"/>
	<g>
		<g>
			<path class="st3" d="M376.2,39.7h6.3c-0.1,0.4-0.2,1-0.2,1.7v31.4c0,0.7,0.1,1.3,0.2,1.7h-6.3c0.2-0.5,0.2-1.1,0.2-1.7V41.4
				C376.5,40.8,376.4,40.2,376.2,39.7z"/>
			<path class="st3" d="M394.1,47.3h5.4v3.8c0.8-1.3,1.6-2.2,2.5-2.8c1.6-1.1,3.5-1.6,5.9-1.6c3.1,0,5.4,0.9,7,2.8
				c1,1.2,1.5,2.9,1.5,5v18.2c0,0.6,0.1,1.1,0.2,1.7h-5.7c0.1-0.4,0.2-1,0.2-1.7V55.4c0-1.6-0.5-2.7-1.4-3.6
				c-0.9-0.8-2.2-1.3-3.8-1.3c-2.1,0-3.6,0.6-4.7,1.7c-1.1,1.2-1.7,2.8-1.7,4.7v15.9c0,0.6,0.1,1.2,0.2,1.7h-5.7
				c0.1-0.5,0.2-1.1,0.2-1.7V49C394.3,48.4,394.2,47.9,394.1,47.3z"/>
			<path class="st3" d="M425.5,72.7l0.9-3.7c1.5,1.3,2.9,2.1,4.1,2.6c1.2,0.5,2.4,0.8,3.8,0.8c1.7,0,3-0.5,3.9-1.4
				c0.9-0.9,1.3-1.9,1.3-3.1c0-1.2-0.4-2.1-1.2-2.7c-0.8-0.7-2.6-1.5-5.4-2.6c-2.7-1.1-4.5-2.3-5.4-3.6c-0.8-1.2-1.3-2.6-1.3-4.1
				c0-2.8,1.2-5,3.6-6.5c1.7-1,3.7-1.6,6-1.6c2.6,0,5.3,0.6,8.1,1.8l-0.9,3.4c-2.4-1.7-4.6-2.6-6.7-2.6c-1.5,0-2.6,0.4-3.6,1.1
				c-1,0.8-1.5,1.8-1.5,3c0,1,0.4,1.8,1.1,2.4c0.7,0.6,2.3,1.4,4.7,2.3c2.8,1.1,4.8,2.2,5.9,3.4c1.1,1.2,1.7,2.8,1.7,4.7
				c0,2.8-1.1,5-3.2,6.7c-1.8,1.3-4.2,2-7.2,2C431.3,75,428.4,74.2,425.5,72.7z"/>
			<path class="st3" d="M455.4,49.9h-4v-2.5h4v-5.2l5.4-0.6c-0.1,1-0.1,1.7-0.1,2v3.8h4.4v2.5h-4.4v19.6c0,1.6,0.7,2.4,2,2.4
				c0.7,0,1.5-0.3,2.4-0.8v2.8c-1.5,0.7-3,1.1-4.6,1.1c-1.8,0-3.1-0.4-3.9-1.3c-0.8-0.9-1.3-2.2-1.3-4V49.9z"/>
			<path class="st3" d="M477.3,40c1,0,1.8,0.2,2.4,0.7c0.6,0.4,0.9,1,0.9,1.8c0,0.8-0.3,1.4-0.9,1.8c-0.6,0.4-1.4,0.7-2.4,0.7
				c-2.3,0-3.4-0.8-3.4-2.5c0-0.7,0.3-1.3,0.9-1.8C475.4,40.2,476.2,40,477.3,40z M474.3,47.3h5.7c-0.1,0.5-0.2,1.1-0.2,1.7v23.8
				c0,0.6,0.1,1.1,0.2,1.7h-5.7c0.1-0.5,0.2-1.1,0.2-1.7V49C474.5,48.4,474.4,47.8,474.3,47.3z"/>
			<path class="st3" d="M492.3,49.9h-4v-2.5h4v-5.2l5.4-0.6c-0.1,1-0.1,1.7-0.1,2v3.8h4.4v2.5h-4.4v19.6c0,1.6,0.7,2.4,2,2.4
				c0.6,0,1.5-0.3,2.4-0.8v2.8c-1.5,0.7-3,1.1-4.6,1.1c-1.8,0-3.1-0.4-3.9-1.3c-0.8-0.9-1.3-2.2-1.3-4V49.9z"/>
			<path class="st3" d="M528.1,74.5v-3.7c-1,1.3-1.9,2.3-2.8,2.9c-1.4,0.9-3.2,1.3-5.4,1.3c-2.9,0-5.1-0.8-6.7-2.5
				c-1.3-1.4-1.9-3.3-1.9-5.9V49c0-0.6-0.1-1.1-0.2-1.7h5.7c-0.1,0.5-0.2,1-0.2,1.7v17c0,1.5,0.3,2.6,1,3.5c0.9,1.1,2.3,1.7,4.1,1.7
				c1.9,0,3.4-0.5,4.5-1.6c1.1-1.1,1.7-2.4,1.7-4.1V49c0-0.6-0.1-1.2-0.2-1.7h5.7c-0.1,0.4-0.2,1-0.2,1.7v23.8
				c0,0.5,0.1,1.1,0.2,1.7H528.1z"/>
			<path class="st3" d="M545.4,49.9h-4v-2.5h4v-5.2l5.4-0.6c-0.1,1-0.1,1.7-0.1,2v3.8h4.4v2.5h-4.4v19.6c0,1.6,0.7,2.4,2,2.4
				c0.6,0,1.5-0.3,2.5-0.8v2.8c-1.5,0.7-3,1.1-4.6,1.1c-1.8,0-3.1-0.4-3.9-1.3c-0.8-0.9-1.3-2.2-1.3-4V49.9z"/>
			<path class="st3" d="M574.6,46.7c4,0,7.2,1.4,9.4,4.1c2.1,2.6,3.2,5.9,3.2,10.1c0,4.4-1.2,8-3.6,10.5c-2.2,2.4-5.2,3.6-8.9,3.6
				c-4,0-7-1.3-9.2-3.9c-2.2-2.7-3.4-6.2-3.4-10.6c0-4,1.1-7.3,3.3-9.9C567.6,48,570.6,46.7,574.6,46.7z M574.6,49
				c-0.9,0-1.9,0.3-2.8,0.8c-0.9,0.5-1.6,1.2-2.1,2.1c-1.4,2.2-2.1,5.2-2.1,8.9c0,3.9,0.7,6.9,2.1,9.2c0.5,0.8,1.2,1.5,2.1,2
				c0.9,0.5,1.8,0.8,2.7,0.8c1,0,1.9-0.3,2.7-0.8c0.9-0.5,1.6-1.2,2.1-2c1.4-2.3,2.1-5.3,2.1-9.1c0-3.8-0.7-6.9-2.1-9.1
				C578.3,49.9,576.7,49,574.6,49z"/>
			<path class="st3" d="M631.9,70.5c-0.9,1.3-1.7,2.2-2.5,2.7c-1.4,1.1-3.3,1.7-5.5,1.7c-3.2,0-5.6-1.3-7.3-3.8
				c-1.7-2.6-2.6-6.1-2.6-10.3c0-4.3,1-7.9,2.9-10.5c1.8-2.4,4.3-3.6,7.6-3.6c1.6,0,3,0.3,4.1,0.8c1.1,0.6,2.1,1.4,3.1,2.7V38.7
				c0-0.6-0.1-1.2-0.2-1.7h5.7c-0.1,0.5-0.2,1.1-0.2,1.7v34.1c0,0.6,0.1,1.1,0.2,1.7h-5.5V70.5z M626,49.6c-1.4,0-2.7,0.5-3.7,1.6
				c-1.7,1.8-2.6,5-2.6,9.7c0,7.2,2,10.8,6,10.8c2.1,0,3.7-0.9,4.7-2.8c1.1-1.9,1.6-4.7,1.6-8.3C632.1,53.3,630.1,49.7,626,49.6z"/>
			<path class="st3" d="M670.1,72.7c-1.7,0.9-3.3,1.5-4.6,1.8c-1.3,0.3-2.9,0.5-4.7,0.5c-4.6,0-8.2-1.4-10.5-4.1
				c-2.1-2.4-3.2-5.7-3.2-9.9c0-4.6,1.2-8.2,3.7-10.8c2.3-2.4,5.3-3.6,9-3.6c3.6,0,6.4,1.1,8.5,3.4c2,2.3,3.1,5.6,3.3,9.8h-18.8
				c0,3,0.3,5.4,1,7.1c1.3,3.6,3.9,5.3,7.9,5.3c2.7,0,5.3-1,7.8-3.2L670.1,72.7z M652.7,57.6h13c-0.1-1.5-0.4-2.8-0.7-3.8
				c-0.5-1.4-1.2-2.6-2.3-3.5c-0.9-0.7-2-1.1-3.3-1.1c-1.8,0-3.3,0.7-4.5,2.2C653.7,52.8,653,54.9,652.7,57.6z"/>
		</g>
	</g>
	<g>
		<path class="st3" d="M384.9,189.1v2.2c-0.8-0.5-1.5-0.8-2-1c-0.6-0.2-1.2-0.3-1.9-0.3c-1.5,0-2.6,0.5-3.4,1.4
			c-0.8,0.9-1.2,2.1-1.2,3.7c0,1.6,0.5,2.9,1.4,3.8c0.8,0.8,2,1.3,3.3,1.3c0.7,0,1.3-0.1,1.8-0.3c0.6-0.2,1.2-0.6,2-1.1v2.1
			c-0.8,0.3-1.6,0.5-2.3,0.6c-0.7,0.1-1.4,0.2-2.3,0.2c-2.7,0-4.7-0.6-6.1-1.7c-1.4-1.1-2.1-2.8-2.1-5c0-1.4,0.3-2.6,0.9-3.5
			c1.4-2,4-3,7.6-3C382.2,188.5,383.6,188.7,384.9,189.1z"/>
		<path class="st3" d="M389.2,188.7h9.3v1.4c-0.3-0.1-0.5-0.1-0.8-0.1h-4.4v4.3h4.3c0.4,0,0.7,0,0.9-0.1v1.5c-0.2,0-0.5-0.1-0.9-0.1
			h-4.3v4.3h4.2c0.4,0,0.7,0,0.9-0.1v1.5h-9.3c0.1-0.2,0.1-0.4,0.1-0.6v-11.5C389.3,189.1,389.3,188.9,389.2,188.7z"/>
		<path class="st3" d="M405.3,192.4v8.4c0,0.3,0.1,0.5,0.1,0.6h-2.1c0.1-0.2,0.1-0.4,0.1-0.6v-11.5c0-0.3-0.1-0.5-0.1-0.6h3.6
			c0,0.1,0.2,0.3,0.4,0.5l7.9,8.4v-8.4c0-0.2-0.1-0.5-0.1-0.6h2.1c-0.1,0.1-0.1,0.3-0.1,0.6v11.5c0,0.2,0.1,0.4,0.1,0.6h-3.5
			c0-0.1-0.2-0.3-0.4-0.6L405.3,192.4z"/>
		<path class="st3" d="M420.6,188.7h12.3v1.7c-0.3-0.1-0.7-0.1-0.9-0.1h-3.2v10.5c0,0.3,0.1,0.5,0.1,0.6h-4.3
			c0.1-0.2,0.1-0.4,0.1-0.6v-10.5h-3.1c-0.3,0-0.7,0-1.1,0.1V188.7z"/>
		<path class="st3" d="M440.7,195.7v5.1c0,0.2,0,0.4,0.1,0.6h-4.3c0.1-0.1,0.1-0.4,0.1-0.6v-11.5c0-0.2,0-0.4-0.1-0.6h6.5
			c1.3,0,2.4,0.2,3.2,0.7c1.2,0.7,1.8,1.6,1.8,2.8c0,0.8-0.3,1.5-0.9,2.1c-0.5,0.4-1.3,0.8-2.6,1.2l4.2,5.4c0.2,0.3,0.4,0.5,0.6,0.6
			h-4.9c0-0.2-0.1-0.4-0.2-0.6L440.7,195.7z M440.6,194.7h0.8c0.6,0,1.1-0.1,1.5-0.4c0.6-0.4,0.9-1.1,0.9-1.9c0-0.7-0.2-1.3-0.6-1.7
			c-0.4-0.4-1-0.6-1.7-0.6h-0.8V194.7z"/>
		<path class="st3" d="M460.3,188.5c2.4,0,4.3,0.5,5.7,1.4c1.7,1.1,2.5,2.8,2.5,5.1c0,2.2-0.8,3.9-2.3,5c-1.4,1.1-3.5,1.6-6.1,1.6
			c-1.8,0-3.3-0.2-4.4-0.7c-1.4-0.6-2.4-1.5-3.1-2.7c-0.5-0.9-0.7-2-0.7-3.3c0-1.4,0.4-2.6,1.1-3.7
			C454.4,189.5,456.8,188.5,460.3,188.5z M460.3,189.9c-2.7,0-4,1.7-4,5.1c0,0.9,0.1,1.7,0.2,2.3c0.1,0.6,0.4,1.1,0.7,1.6
			c0.6,0.9,1.7,1.4,3.2,1.4c1.3,0,2.3-0.4,3-1.3c0.7-0.9,1-2.1,1-3.8c0-1.7-0.3-3-0.9-3.9C462.7,190.4,461.7,189.9,460.3,189.9z"/>
		<path class="st3" d="M483.1,188.7h5.9c2.2,0,3.9,0.4,5.3,1.1c1.1,0.6,1.9,1.3,2.3,2.3c0.5,0.9,0.7,1.8,0.7,2.8
			c0,1.6-0.5,2.9-1.4,4c-0.7,0.8-1.5,1.4-2.5,1.8c-1,0.4-2.1,0.6-3.4,0.6h-6.9c0.1-0.2,0.1-0.4,0.1-0.6v-11.5
			C483.2,189.1,483.2,188.9,483.1,188.7z M487.3,200h1.4c1.3,0,2.2-0.3,2.9-1c0.9-0.9,1.4-2.2,1.4-3.9c0-1.7-0.6-3.1-1.8-4
			c-0.8-0.6-1.7-0.8-2.8-0.8h-1.2V200z"/>
		<path class="st3" d="M502,188.7h9.3v1.4c-0.3-0.1-0.5-0.1-0.8-0.1h-4.4v4.3h4.3c0.4,0,0.7,0,0.9-0.1v1.5c-0.2,0-0.5-0.1-0.9-0.1
			h-4.3v4.3h4.2c0.4,0,0.7,0,0.9-0.1v1.5H502c0.1-0.2,0.1-0.4,0.1-0.6v-11.5C502.1,189.1,502.1,188.9,502,188.7z"/>
		<path class="st3" d="M526.1,188.7h9.3v1.4c-0.3-0.1-0.5-0.1-0.8-0.1h-4.4v4.3h4.3c0.4,0,0.7,0,0.9-0.1v1.5c-0.2,0-0.5-0.1-0.9-0.1
			h-4.3v4.3h4.2c0.4,0,0.7,0,0.9-0.1v1.5h-9.3c0.1-0.2,0.1-0.4,0.1-0.6v-11.5C526.2,189.1,526.1,188.9,526.1,188.7z"/>
		<path class="st3" d="M539.3,200.7l0.7-2c0.5,0.3,0.9,0.6,1.2,0.7c0.9,0.5,1.8,0.7,2.8,0.7c0.8,0,1.4-0.2,1.9-0.5
			c0.5-0.3,0.7-0.8,0.7-1.2c0-0.6-0.3-1-0.9-1.4c-0.3-0.2-1.1-0.5-2.4-0.9c-1.4-0.5-2.4-1-2.9-1.5c-0.6-0.6-0.9-1.3-0.9-2.1
			c0-0.8,0.3-1.5,0.8-2.1c1-1.2,2.7-1.8,5.1-1.8c1.4,0,2.8,0.2,4.2,0.7l-0.6,1.9c-1.4-0.8-2.6-1.2-3.6-1.2c-0.6,0-1.1,0.1-1.5,0.4
			c-0.4,0.3-0.6,0.6-0.6,1.1c0,0.4,0.2,0.8,0.6,1c0.4,0.2,1.3,0.6,2.7,1.1c1.5,0.5,2.5,1,3.1,1.6c0.6,0.6,0.8,1.3,0.8,2.2
			c0,0.8-0.3,1.6-0.8,2.3c-1,1.3-2.8,2-5.3,2c-0.9,0-1.7-0.1-2.4-0.2C541.1,201.3,540.3,201,539.3,200.7z"/>
		<path class="st3" d="M553.2,188.7h12.3v1.7c-0.3-0.1-0.7-0.1-0.9-0.1h-3.2v10.5c0,0.3,0.1,0.5,0.1,0.6h-4.3
			c0.1-0.2,0.1-0.4,0.1-0.6v-10.5h-3.1c-0.3,0-0.7,0-1.1,0.1V188.7z"/>
		<path class="st3" d="M582.7,188.7c-0.1,0.2-0.1,0.4-0.1,0.6v7.7c0,1.1-0.4,2-1.1,2.8c-1.1,1.2-3.1,1.8-5.8,1.8
			c-1.6,0-2.9-0.2-3.9-0.7c-1.8-0.8-2.7-2.1-2.7-4v-7.7c0-0.2,0-0.5-0.1-0.6h4.3c-0.1,0.2-0.1,0.4-0.1,0.6v7.8
			c0,0.8,0.2,1.4,0.7,1.9c0.7,0.7,1.7,1,3,1c1.3,0,2.2-0.3,2.9-0.8c0.7-0.6,1-1.3,1-2.4v-7.6c0-0.3-0.1-0.5-0.1-0.6H582.7z"/>
		<path class="st3" d="M587.8,188.7h5.9c2.2,0,3.9,0.4,5.3,1.1c1.1,0.6,1.9,1.3,2.3,2.3c0.4,0.9,0.7,1.8,0.7,2.8
			c0,1.6-0.5,2.9-1.4,4c-0.7,0.8-1.5,1.4-2.5,1.8c-1,0.4-2.1,0.6-3.4,0.6h-6.9c0.1-0.2,0.1-0.4,0.1-0.6v-11.5
			C587.9,189.1,587.9,188.9,587.8,188.7z M592,200h1.4c1.3,0,2.2-0.3,2.9-1c0.9-0.9,1.4-2.2,1.4-3.9c0-1.7-0.6-3.1-1.8-4
			c-0.8-0.6-1.7-0.8-2.8-0.8H592V200z"/>
		<path class="st3" d="M606.8,188.7h4.3c-0.1,0.1-0.1,0.4-0.1,0.6v11.5c0,0.3,0.1,0.5,0.1,0.6h-4.3c0.1-0.2,0.1-0.4,0.1-0.6v-11.5
			C606.9,189.1,606.9,188.9,606.8,188.7z"/>
		<path class="st3" d="M624.2,188.5c2.4,0,4.3,0.5,5.7,1.4c1.7,1.1,2.5,2.8,2.5,5.1c0,2.2-0.8,3.9-2.3,5c-1.4,1.1-3.5,1.6-6.1,1.6
			c-1.8,0-3.3-0.2-4.4-0.7c-1.4-0.6-2.5-1.5-3.1-2.7c-0.5-0.9-0.7-2-0.7-3.3c0-1.4,0.4-2.6,1.1-3.7
			C618.3,189.5,620.7,188.5,624.2,188.5z M624.2,189.9c-2.7,0-4.1,1.7-4.1,5.1c0,0.9,0.1,1.7,0.2,2.3c0.1,0.6,0.4,1.1,0.7,1.6
			c0.6,0.9,1.7,1.4,3.1,1.4c1.3,0,2.3-0.4,3-1.3c0.7-0.9,1-2.1,1-3.8c0-1.7-0.3-3-0.9-3.9C626.6,190.4,625.6,189.9,624.2,189.9z"/>
		<path class="st3" d="M636.2,200.7l0.7-2c0.5,0.3,0.9,0.6,1.2,0.7c0.9,0.5,1.8,0.7,2.8,0.7c0.8,0,1.4-0.2,1.9-0.5
			c0.5-0.3,0.7-0.8,0.7-1.2c0-0.6-0.3-1-0.9-1.4c-0.3-0.2-1.1-0.5-2.4-0.9c-1.4-0.5-2.4-1-2.9-1.5c-0.6-0.6-0.9-1.3-0.9-2.1
			c0-0.8,0.3-1.5,0.8-2.1c1-1.2,2.7-1.8,5.1-1.8c1.4,0,2.8,0.2,4.2,0.7l-0.6,1.9c-1.4-0.8-2.6-1.2-3.6-1.2c-0.6,0-1.1,0.1-1.5,0.4
			c-0.4,0.3-0.6,0.6-0.6,1.1c0,0.4,0.2,0.8,0.6,1c0.4,0.2,1.3,0.6,2.7,1.1c1.5,0.5,2.5,1,3.1,1.6c0.6,0.6,0.8,1.3,0.8,2.2
			c0,0.8-0.3,1.6-0.8,2.3c-1,1.3-2.8,2-5.3,2c-0.9,0-1.7-0.1-2.4-0.2C638,201.3,637.2,201,636.2,200.7z"/>
		<path class="st3" d="M675.1,188.7c-0.1,0.2-0.1,0.4-0.1,0.6v7.7c0,1.1-0.4,2-1.1,2.8c-1.1,1.2-3.1,1.8-5.8,1.8
			c-1.6,0-2.9-0.2-3.9-0.7c-1.8-0.8-2.7-2.1-2.7-4v-7.7c0-0.2,0-0.5-0.1-0.6h4.3c-0.1,0.2-0.1,0.4-0.1,0.6v7.8
			c0,0.8,0.2,1.4,0.7,1.9c0.7,0.7,1.7,1,3,1c1.3,0,2.2-0.3,2.9-0.8c0.7-0.6,1-1.3,1-2.4v-7.6c0-0.3,0-0.5-0.1-0.6H675.1z"/>
		<path class="st3" d="M682.1,192.4v8.4c0,0.3,0.1,0.5,0.1,0.6h-2.1c0.1-0.2,0.1-0.4,0.1-0.6v-11.5c0-0.3-0.1-0.5-0.1-0.6h3.6
			c0,0.1,0.2,0.3,0.4,0.5l7.8,8.4v-8.4c0-0.2,0-0.5-0.1-0.6h2.1c-0.1,0.1-0.1,0.3-0.1,0.6v11.5c0,0.2,0.1,0.4,0.1,0.6h-3.5
			c0-0.1-0.2-0.3-0.4-0.6L682.1,192.4z"/>
		<path class="st3" d="M699.3,188.7h4.3c-0.1,0.1-0.1,0.4-0.1,0.6v11.5c0,0.3,0.1,0.5,0.1,0.6h-4.3c0.1-0.2,0.1-0.4,0.1-0.6v-11.5
			C699.4,189.1,699.4,188.9,699.3,188.7z"/>
		<path class="st3" d="M707,188.7h4.6c0,0.1,0,0.2,0,0.2c0,0.1,0,0.2,0.1,0.4l3.6,8.9l3.8-9c0.1-0.1,0.1-0.3,0.1-0.4
			c0,0,0-0.1,0-0.2h2.2c-0.2,0.2-0.3,0.4-0.4,0.6l-4.8,11.6c-0.1,0.2-0.1,0.4-0.1,0.6h-3.8c0-0.2-0.1-0.4-0.1-0.6l-4.7-11.5
			C707.3,189.2,707.2,189,707,188.7z"/>
		<path class="st3" d="M724.6,188.7h9.3v1.4c-0.3-0.1-0.5-0.1-0.8-0.1h-4.4v4.3h4.3c0.4,0,0.7,0,0.9-0.1v1.5c-0.2,0-0.5-0.1-0.9-0.1
			h-4.3v4.3h4.2c0.4,0,0.7,0,0.9-0.1v1.5h-9.3c0.1-0.2,0.1-0.4,0.1-0.6v-11.5C724.7,189.1,724.6,188.9,724.6,188.7z"/>
		<path class="st3" d="M743,195.7v5.1c0,0.2,0,0.4,0.1,0.6h-4.3c0.1-0.1,0.1-0.4,0.1-0.6v-11.5c0-0.2,0-0.4-0.1-0.6h6.5
			c1.3,0,2.4,0.2,3.2,0.7c1.2,0.7,1.8,1.6,1.8,2.8c0,0.8-0.3,1.5-0.9,2.1c-0.5,0.4-1.3,0.8-2.6,1.2l4.2,5.4c0.2,0.3,0.4,0.5,0.6,0.6
			h-4.9c0-0.2-0.1-0.4-0.2-0.6L743,195.7z M743,194.7h0.8c0.6,0,1.1-0.1,1.5-0.4c0.6-0.4,0.9-1.1,0.9-1.9c0-0.7-0.2-1.3-0.6-1.7
			c-0.4-0.4-1-0.6-1.7-0.6H743V194.7z"/>
		<path class="st3" d="M754.3,200.7l0.7-2c0.5,0.3,0.9,0.6,1.2,0.7c0.9,0.5,1.8,0.7,2.8,0.7c0.8,0,1.4-0.2,1.9-0.5
			c0.5-0.3,0.7-0.8,0.7-1.2c0-0.6-0.3-1-0.9-1.4c-0.3-0.2-1.1-0.5-2.4-0.9c-1.4-0.5-2.4-1-2.9-1.5c-0.6-0.6-0.9-1.3-0.9-2.1
			c0-0.8,0.3-1.5,0.8-2.1c1-1.2,2.7-1.8,5.1-1.8c1.4,0,2.8,0.2,4.2,0.7l-0.6,1.9c-1.4-0.8-2.5-1.2-3.6-1.2c-0.6,0-1.1,0.1-1.5,0.4
			c-0.4,0.3-0.6,0.6-0.6,1.1c0,0.4,0.2,0.8,0.6,1c0.4,0.2,1.3,0.6,2.7,1.1c1.5,0.5,2.5,1,3.1,1.6c0.6,0.6,0.8,1.3,0.8,2.2
			c0,0.8-0.3,1.6-0.8,2.3c-1,1.3-2.8,2-5.3,2c-0.9,0-1.7-0.1-2.4-0.2C756.1,201.3,755.2,201,754.3,200.7z"/>
		<path class="st3" d="M769.8,188.7h4.3c-0.1,0.1-0.1,0.4-0.1,0.6v11.5c0,0.3,0,0.5,0.1,0.6h-4.3c0.1-0.2,0.1-0.4,0.1-0.6v-11.5
			C769.9,189.1,769.9,188.9,769.8,188.7z"/>
		<path class="st3" d="M777.7,188.7h12.3v1.7c-0.3-0.1-0.7-0.1-0.9-0.1h-3.2v10.5c0,0.3,0,0.5,0.1,0.6h-4.3c0.1-0.2,0.1-0.4,0.1-0.6
			v-10.5h-3.1c-0.3,0-0.7,0-1.1,0.1V188.7z"/>
		<path class="st3" d="M794.6,197.8l-1.4,3c-0.1,0.2-0.1,0.3-0.1,0.4c0,0,0,0.1,0,0.2H791c0.2-0.2,0.3-0.4,0.4-0.6l5.2-11.6
			c0.1-0.2,0.1-0.3,0.1-0.4c0,0,0-0.1,0-0.1h3.4c0,0.1,0,0.3,0.1,0.5l5.3,11.6c0.1,0.2,0.3,0.4,0.4,0.6h-4.6c0-0.1,0-0.1,0-0.1
			c0-0.1,0-0.3-0.1-0.5l-1.3-3H794.6z M795.3,196.4h4.1l-2-4.7L795.3,196.4z"/>
		<path class="st3" d="M813.8,195.7v5.1c0,0.2,0,0.4,0.1,0.6h-4.3c0.1-0.1,0.1-0.4,0.1-0.6v-11.5c0-0.2,0-0.4-0.1-0.6h6.5
			c1.3,0,2.4,0.2,3.2,0.7c1.2,0.7,1.8,1.6,1.8,2.8c0,0.8-0.3,1.5-0.9,2.1c-0.5,0.4-1.3,0.8-2.6,1.2l4.2,5.4c0.2,0.3,0.4,0.5,0.6,0.6
			h-4.9c0-0.2-0.1-0.4-0.2-0.6L813.8,195.7z M813.8,194.7h0.8c0.6,0,1.1-0.1,1.5-0.4c0.6-0.4,0.9-1.1,0.9-1.9c0-0.7-0.2-1.3-0.6-1.7
			c-0.4-0.4-1-0.6-1.7-0.6h-0.8V194.7z"/>
		<path class="st3" d="M826.2,188.7h4.3c-0.1,0.1-0.1,0.4-0.1,0.6v11.5c0,0.3,0,0.5,0.1,0.6h-4.3c0.1-0.2,0.1-0.4,0.1-0.6v-11.5
			C826.3,189.1,826.3,188.9,826.2,188.7z"/>
		<path class="st3" d="M843.6,188.5c2.4,0,4.3,0.5,5.7,1.4c1.7,1.1,2.5,2.8,2.5,5.1c0,2.2-0.8,3.9-2.3,5c-1.4,1.1-3.5,1.6-6.1,1.6
			c-1.8,0-3.3-0.2-4.4-0.7c-1.4-0.6-2.4-1.5-3.1-2.7c-0.5-0.9-0.7-2-0.7-3.3c0-1.4,0.4-2.6,1.1-3.7
			C837.7,189.5,840.1,188.5,843.6,188.5z M843.6,189.9c-2.7,0-4,1.7-4,5.1c0,0.9,0.1,1.7,0.2,2.3c0.1,0.6,0.4,1.1,0.7,1.6
			c0.6,0.9,1.7,1.4,3.1,1.4c1.3,0,2.3-0.4,3-1.3c0.7-0.9,1-2.1,1-3.8c0-1.7-0.3-3-0.9-3.9C846,190.4,845,189.9,843.6,189.9z"/>
		<path class="st3" d="M855.6,200.7l0.7-2c0.5,0.3,0.9,0.6,1.2,0.7c0.9,0.5,1.8,0.7,2.8,0.7c0.8,0,1.4-0.2,1.9-0.5
			c0.5-0.3,0.7-0.8,0.7-1.2c0-0.6-0.3-1-0.9-1.4c-0.3-0.2-1.1-0.5-2.4-0.9c-1.4-0.5-2.4-1-2.9-1.5c-0.6-0.6-0.9-1.3-0.9-2.1
			c0-0.8,0.3-1.5,0.8-2.1c1-1.2,2.7-1.8,5.1-1.8c1.4,0,2.8,0.2,4.2,0.7l-0.6,1.9c-1.4-0.8-2.6-1.2-3.6-1.2c-0.6,0-1.1,0.1-1.5,0.4
			c-0.4,0.3-0.6,0.6-0.6,1.1c0,0.4,0.2,0.8,0.6,1c0.4,0.2,1.3,0.6,2.7,1.1c1.5,0.5,2.5,1,3.1,1.6c0.6,0.6,0.8,1.3,0.8,2.2
			c0,0.8-0.3,1.6-0.8,2.3c-1,1.3-2.8,2-5.3,2c-0.9,0-1.7-0.1-2.4-0.2C857.4,201.3,856.6,201,855.6,200.7z"/>
	</g>
	<g>
		<rect x="369.5" y="178.7" class="st1" width="500" height="3"/>
	</g>
	<g>
		<path class="st2" d="M112.6,95.6c-0.7-2.3-1.7-4.4-3.1-6.3c-2.1-2.8-4.6-5.1-7.5-7.1c-3.2-2-6.9-3.8-11-5.2c-4-1.2-8.2-2-12.8-2.3
			l-0.1,57.5h35.1v-32l-0.1-2.2L112.6,95.6z"/>
	</g>
	<g>
		<path class="st2" d="M153.6,81.3c-4-2.4-7.5-3.9-12-5c-4.5-1.1-8.9-1.8-13.8-1.8c-4.9,0-9.2,0.6-13.9,1.6l-3.6,1l0,0.1
			c4.1,1.5,7.3,3.1,9.8,4.7c2.3,1.5,4.3,3.3,6.1,5.2c3.5,3.8,5.2,8.1,5.3,12.9l0,32H166c0,0,0-28.4,0-32.1c0-3.7-1.4-7.7-3.6-10.7
			C160.1,86.2,157.6,83.7,153.6,81.3z"/>
	</g>
	<g>
		<path class="st2" d="M206.3,81.3c-4-2.4-7.5-3.9-12-5c-4.5-1.1-8.9-1.8-13.8-1.8c-4.9,0-9.2,0.6-13.9,1.6l-3.6,1l0,0.1
			c4.1,1.5,7.3,3.1,9.8,4.7c2.3,1.5,4.3,3.3,6.1,5.2c3.5,3.8,5.2,8.1,5.3,12.9l0,32h34.4c0,0,0-28.4,0-32.1c0-3.7-1.4-7.7-3.6-10.7
			C212.9,86.2,210.4,83.7,206.3,81.3z"/>
	</g>
	<g>
		<path class="st2" d="M117.9,52.8c0,8.7-10.7,15.7-24,15.7c-13.3,0-24-7-24-15.7c0-8.7,10.7-15.7,24-15.7
			C107.2,37,117.9,44.1,117.9,52.8z"/>
	</g>
	<path class="st2" d="M281.3,125.2c0-2.9,0-5.8,0-8.5c6-0.3,11.4-2.1,15.4-4.8c0.2-0.1,0.4-0.3,0.6-0.4c3-2.2,5-4.8,5.8-7.8
		c0.3-1,0.4-2,0.3-3c0-0.4-0.1-0.7-0.1-1.1c-0.2-1.2-0.6-2.4-1.1-3.5c-0.4-0.8-0.9-1.5-1.4-2.2c-4-5.1-12-8.5-21.3-8.5
		c-1,0-2,0.1-2.9,0.1c-1.9-2.4-4.2-4.4-7.5-6.4c-3.6-2.1-6.8-3.5-10.7-4.6l33.5,0.1l0.8,0c21.3,0,38.6,11.6,38.6,26
		c0,14.4-17.3,26-38.6,26c-3.9,0-7.7-0.4-11.2-1.1L281.3,125.2"/>
	<g>
		<path class="st2" d="M271.5,100c0-3.7-1.4-7.7-3.6-10.7c-2.3-3.1-4.7-5.6-8.8-7.9c-4-2.4-7.5-3.9-12-5c-2.6-0.6-5.1-1.1-7.6-1.4
			l-6.3-0.4c-4.8,0-9.1,0.6-13.7,1.6l-3.6,1l0,0.1c4.1,1.5,7.3,3.1,9.8,4.7c2.3,1.5,4.3,3.3,6.1,5.2c3.5,3.8,5.2,8.1,5.3,12.9
			l0,63.6h21.3h6h7.2C271.5,163.7,271.5,103.7,271.5,100z"/>
	</g>
</g>
</svg>
