<?xml version="1.0" encoding="utf-8"?>
<!-- Generator: Adobe Illustrator 25.4.1, SVG Export Plug-In . SVG Version: 6.00 Build 0)  -->
<svg version="1.1" id="Capa_1" xmlns="http://www.w3.org/2000/svg" xmlns:xlink="http://www.w3.org/1999/xlink" x="0px" y="0px"
	 viewBox="0 0 393.4 129.5" style="enable-background:new 0 0 393.4 129.5;" xml:space="preserve">
<style type="text/css">
	.st0{fill:#1F2243;}
	.st1{fill:#FFFFFF;}
	.st2{fill:#1C77B1;}
</style>
<g>
	<rect y="32.2" class="st0" width="28.4" height="95.2"/>
	<path class="st0" d="M147.4,69.8v57.7H119V74.6c0-12.6-6-19.5-18.1-19.5c-12.9,0-22.4,10.5-22.4,25.1v47.2H50.1V32.2h28.4v11.7
		c7.1-8.1,17.6-13.8,31.3-13.8C132.8,30.1,147.4,44.8,147.4,69.8z"/>
	<path class="st0" d="M240.1,0.3h28.4v127.1h-28.4v-10.7c-7.9,8.6-18.9,12.7-31.2,12.7c-25.3,0-45.5-20.7-45.5-50.1
		c0-29.3,19.8-49.3,45.6-49.3c12.1,0,23.1,4,31,12.6V0.3z M240.1,79.7c0-15.5-10.2-25.1-24.6-25.1c-14,0-23.6,10.2-23.6,25
		c0,15.3,9.5,25.5,23.6,25.5C229.8,105.1,240.1,95.4,240.1,79.7z"/>
	<path class="st0" d="M286.8,79.7c0-28.8,22.6-49.6,53.4-49.6s53.2,20.8,53.2,49.4c0,28.8-22.4,50-53.4,50
		C309.2,129.5,286.8,108.5,286.8,79.7z M364.7,79.7c0-15.3-10.3-25.3-24.6-25.3c-14.1,0-24.5,10-24.5,25c0,15.5,10.3,25.7,24.6,25.7
		C354.3,105.1,364.7,94.9,364.7,79.7z"/>
	<path class="st2" d="M6.4,0h22.6v22.4C28.9,22.4,7.2,19.9,6.4,0z"/>
</g>
</svg>
