<?xml version="1.0" encoding="utf-8"?>
<!-- Generator: Adobe Illustrator 24.0.0, SVG Export Plug-In . SVG Version: 6.00 Build 0)  -->
<svg version="1.1" id="Layer_1" xmlns="http://www.w3.org/2000/svg" xmlns:xlink="http://www.w3.org/1999/xlink" x="0px" y="0px"
	 viewBox="0 0 612 792" style="enable-background:new 0 0 612 792;" xml:space="preserve">
<style type="text/css">
	.st0{fill:#752270;}
	.st1{fill:#3A4B53;}
	.st2{fill:url(#SVGID_1_);}
	.st3{fill:url(#SVGID_2_);}
	.st4{fill:url(#SVGID_3_);}
	.st5{fill:#B8023B;}
	.st6{fill:#F59B23;}
</style>
<g>
	<path class="st0" d="M227.96,258.14c-21.82-4.74-15.57,2.33-7.94,6.87c7.63,4.54-3.87,12.59,7.3,12.99
		c11.17,0.4,22.03-8.48,23.31-10.66C250.81,261.85,242.54,261.78,227.96,258.14z"/>
	<g>
		<g>
			<path class="st1" d="M155.8,578.7v-42.83h7v42.83H155.8z"/>
			<path class="st1" d="M201.89,578.7h-6.91v-19.92c0-2.5-0.5-4.37-1.51-5.6c-1.01-1.23-2.6-1.85-4.79-1.85
				c-2.91,0-5.04,0.86-6.39,2.58s-2.02,4.6-2.02,8.64v16.14h-6.88v-32.4h5.39l0.97,4.25h0.35c0.98-1.54,2.36-2.73,4.16-3.57
				c1.8-0.84,3.79-1.26,5.98-1.26c7.77,0,11.66,3.96,11.66,11.87V578.7z"/>
			<path class="st1" d="M233.24,569.47c0,3.16-1.15,5.59-3.46,7.28c-2.3,1.69-5.61,2.53-9.9,2.53c-4.32,0-7.78-0.65-10.4-1.96v-5.95
				c3.81,1.76,7.35,2.64,10.63,2.64c4.24,0,6.36-1.28,6.36-3.84c0-0.82-0.23-1.5-0.7-2.05s-1.24-1.11-2.31-1.7
				c-1.07-0.59-2.57-1.25-4.48-1.99c-3.73-1.45-6.25-2.89-7.57-4.34s-1.98-3.32-1.98-5.63c0-2.77,1.12-4.93,3.35-6.46
				c2.24-1.53,5.28-2.3,9.13-2.3c3.81,0,7.41,0.77,10.81,2.31l-2.23,5.19c-3.5-1.45-6.44-2.17-8.82-2.17
				c-3.63,0-5.45,1.04-5.45,3.11c0,1.02,0.47,1.88,1.42,2.58c0.95,0.7,3.01,1.67,6.2,2.9c2.68,1.04,4.62,1.98,5.83,2.84
				c1.21,0.86,2.11,1.85,2.7,2.97S233.24,567.91,233.24,569.47z"/>
			<path class="st1" d="M257.11,579.28c-4.1,0-7.29-1.47-9.55-4.42h-0.41c0.27,2.73,0.41,4.39,0.41,4.98v13.27h-6.88v-46.82h5.57
				c0.16,0.61,0.48,2.05,0.97,4.34h0.35c2.15-3.28,5.37-4.92,9.67-4.92c4.04,0,7.19,1.46,9.45,4.39s3.38,7.04,3.38,12.33
				s-1.15,9.42-3.44,12.39C264.32,577.8,261.16,579.28,257.11,579.28z M255.44,551.33c-2.73,0-4.73,0.8-5.99,2.4
				s-1.89,4.16-1.89,7.68v1.03c0,3.95,0.63,6.8,1.88,8.57c1.25,1.77,3.29,2.65,6.12,2.65c2.38,0,4.22-0.98,5.51-2.93
				s1.93-4.74,1.93-8.35c0-3.63-0.64-6.38-1.92-8.25C259.8,552.27,257.92,551.33,255.44,551.33z"/>
			<path class="st1" d="M277.65,537.71c0-1.23,0.34-2.18,1.01-2.84s1.64-1,2.89-1c1.21,0,2.15,0.33,2.83,1s1.01,1.61,1.01,2.84
				c0,1.17-0.34,2.09-1.01,2.77s-1.62,1.01-2.83,1.01c-1.25,0-2.21-0.34-2.89-1.01S277.65,538.88,277.65,537.71z M284.94,578.7
				h-6.88v-32.4h6.88V578.7z"/>
			<path class="st1" d="M311.22,545.71c1.39,0,2.53,0.1,3.43,0.29l-0.67,6.42c-0.98-0.23-1.99-0.35-3.05-0.35
				c-2.75,0-4.99,0.9-6.69,2.7c-1.71,1.8-2.56,4.13-2.56,7v16.93h-6.88v-32.4h5.39l0.91,5.71h0.35c1.07-1.93,2.48-3.47,4.2-4.6
				S309.23,545.71,311.22,545.71z"/>
			<path class="st1" d="M334.81,579.28c-5.04,0-8.98-1.47-11.82-4.41s-4.26-6.99-4.26-12.14c0-5.29,1.32-9.45,3.96-12.48
				s6.26-4.54,10.87-4.54c4.28,0,7.66,1.3,10.14,3.9s3.72,6.17,3.72,10.72v3.72h-21.59c0.1,3.14,0.95,5.56,2.55,7.25
				s3.86,2.53,6.77,2.53c1.91,0,3.7-0.18,5.35-0.54s3.42-0.96,5.32-1.8v5.6c-1.68,0.8-3.38,1.37-5.1,1.7
				S337.01,579.28,334.81,579.28z M333.55,550.92c-2.19,0-3.94,0.69-5.26,2.08s-2.11,3.41-2.36,6.06h14.71
				c-0.04-2.68-0.68-4.7-1.93-6.08S335.74,550.92,333.55,550.92z"/>
			<path class="st1" d="M409.28,578.7h-11.54l-18.63-32.4h-0.26c0.37,5.72,0.56,9.8,0.56,12.25v20.16h-8.12v-42.83h11.46l18.6,32.08
				h0.21c-0.29-5.57-0.44-9.5-0.44-11.81v-20.27h8.17V578.7z"/>
			<path class="st1" d="M449.12,562.26c0,5.33-1.41,9.5-4.22,12.51s-6.73,4.51-11.75,4.51c-3.14,0-5.92-0.69-8.32-2.07
				s-4.25-3.35-5.54-5.93s-1.93-5.59-1.93-9.02c0-5.35,1.4-9.51,4.19-12.48s6.72-4.45,11.78-4.45c3.14,0,5.92,0.68,8.32,2.05
				s4.25,3.33,5.54,5.89S449.12,558.82,449.12,562.26z M426.48,562.26c0,3.24,0.53,5.69,1.6,7.35s2.8,2.49,5.2,2.49
				c2.38,0,4.1-0.83,5.14-2.48s1.57-4.11,1.57-7.37c0-3.24-0.53-5.67-1.58-7.29s-2.78-2.43-5.19-2.43c-2.38,0-4.1,0.81-5.16,2.42
				S426.48,559,426.48,562.26z"/>
			<path class="st1" d="M483.43,578.7l-2.52-11.46l-3.4-14.47h-0.21l-5.98,25.93h-9.61l-9.32-32.75h8.91l3.78,14.5
				c0.61,2.6,1.22,6.18,1.85,10.75h0.18c0.08-1.48,0.42-3.84,1.03-7.06l0.47-2.49l4.04-15.7h9.84l3.84,15.7
				c0.08,0.43,0.2,1.06,0.37,1.9s0.33,1.73,0.48,2.68s0.3,1.88,0.42,2.78s0.2,1.64,0.22,2.18H488c0.18-1.41,0.49-3.33,0.94-5.79
				s0.77-4.11,0.97-4.97l3.93-14.5h8.76l-9.43,32.75H483.43z"/>
		</g>
	</g>
	<linearGradient id="SVGID_1_" gradientUnits="userSpaceOnUse" x1="318.9495" y1="479.5141" x2="484.411" y2="314.0526">
		<stop  offset="0" style="stop-color:#238C07"/>
		<stop  offset="1" style="stop-color:#78CF07"/>
	</linearGradient>
	<path class="st2" d="M381.91,506.88c-30.18,0-42.58-5.92-44.19-8.72c20.08,9.19,45.88-21.11,48.88-48.9c0-50.62,0-58.03,0-116.84
		c3.32-64.38,57.37-58.81,57.37-58.81s-14.2,0.61-14.2,58.13s0,116.64,0,116.64S429.13,502.49,381.91,506.88z"/>
	<linearGradient id="SVGID_2_" gradientUnits="userSpaceOnUse" x1="162.3558" y1="481.8929" x2="330.1956" y2="314.053">
		<stop  offset="0" style="stop-color:#007ECC"/>
		<stop  offset="0.3133" style="stop-color:#007BCC"/>
		<stop  offset="0.5658" style="stop-color:#0071CC"/>
		<stop  offset="0.7964" style="stop-color:#0060CC"/>
		<stop  offset="1" style="stop-color:#004ACC"/>
	</linearGradient>
	<path class="st3" d="M227.7,506.88c-26.36-0.55-27.42-0.09-40.3,0.05c22.34-1.16,41.99-29.88,44.99-57.68c0-50.62,0-58.03,0-116.84
		c3.32-64.38,57.37-58.81,57.37-58.81s-14.2,0.61-14.2,58.13s0,116.64,0,116.64S274.91,502.49,227.7,506.88z"/>
	<linearGradient id="SVGID_3_" gradientUnits="userSpaceOnUse" x1="247.564" y1="316.2094" x2="409.1577" y2="477.8031">
		<stop  offset="0" style="stop-color:#F59B23"/>
		<stop  offset="0.3852" style="stop-color:#F39923"/>
		<stop  offset="0.5924" style="stop-color:#EE9123"/>
		<stop  offset="0.7573" style="stop-color:#E48323"/>
		<stop  offset="0.8991" style="stop-color:#D67023"/>
		<stop  offset="1" style="stop-color:#C95D23"/>
	</linearGradient>
	<path class="st4" d="M356.55,506.93c30.18,0,22.64,0,22.64,0s-46.87-11.13-51.18-58.11c0-50.62,0-57.54,0-116.35
		c0-58.81-37.91-58.81-37.91-58.81s18.72,0.61,18.72,58.13c0,57.53-0.01,114.44,0,117.02C308.83,451.4,313.53,502.71,356.55,506.93z
		"/>
	<path class="st5" d="M263.92,237.48c5.22-32.34-3.8-22.8-9.41-11.36c-5.61,11.44-16.74-5.1-16.74,11.36
		c0,16.46,5.85,29.81,13.07,29.81C258.06,267.29,259.82,259.12,263.92,237.48z"/>
	<path class="st6" d="M236.51,235.12c-17.93-26.77-17.92-13.28-14.24-1c3.68,12.28-15.25,8.91-4.25,20.55
		c11.01,11.64,30.03,13.53,33.3,12.6C256.42,261.87,248.08,253.48,236.51,235.12z"/>
	<g>
		<path class="st1" d="M266.69,262.84c0.31-0.77,0.86-1.44,1.47-2c0.62-0.57,1.33-1,2.05-1.39c0.73-0.38,1.5-0.67,2.28-0.89
			c0.78-0.22,1.59-0.37,2.41-0.38c0.06,0,0.1,0.04,0.1,0.1c0,0.04-0.03,0.08-0.06,0.09c-1.44,0.73-2.88,1.33-4.26,2.02
			c-1.39,0.69-2.69,1.45-3.85,2.54c-0.04,0.04-0.09,0.04-0.13,0C266.68,262.91,266.68,262.87,266.69,262.84z"/>
		<path class="st1" d="M265.4,262.68c-0.01-0.83,0.25-1.66,0.6-2.41c0.35-0.76,0.84-1.43,1.37-2.07c0.53-0.63,1.13-1.19,1.77-1.7
			c0.64-0.5,1.33-0.95,2.09-1.27c0.05-0.02,0.11,0,0.13,0.05c0.02,0.04,0.01,0.08-0.02,0.11c-1.05,1.23-2.15,2.33-3.17,3.49
			c-1.02,1.17-1.93,2.36-2.59,3.82c-0.02,0.05-0.07,0.07-0.12,0.05C265.42,262.75,265.4,262.71,265.4,262.68z"/>
		<path class="st1" d="M263.06,265.8c0-1.34,1.08-2.42,2.42-2.42c1.34,0,2.42,1.08,2.42,2.42c0,1.34-1.09,2.42-2.42,2.42
			C264.15,268.23,263.06,267.14,263.06,265.8z"/>
		<path class="st1" d="M233.82,284.72c-0.55-0.92,5.8-5.71,14.19-10.7c8.39-4.99,15.63-8.3,16.17-7.38
			c0.54,0.92-5.81,5.71-14.2,10.7C241.6,282.34,234.37,285.64,233.82,284.72z"/>
	</g>
</g>
</svg>
