<?xml version="1.0" encoding="utf-8"?>
<!-- Generator: Adobe Illustrator 25.4.1, SVG Export Plug-In . SVG Version: 6.00 Build 0)  -->
<svg version="1.1" id="Capa_1" xmlns="http://www.w3.org/2000/svg" xmlns:xlink="http://www.w3.org/1999/xlink" x="0px" y="0px"
	 viewBox="0 0 627.54 318.48" style="enable-background:new 0 0 627.54 318.48;" xml:space="preserve">
<style type="text/css">
	.st0{fill:#53575A;}
	.st1{fill:#EA0029;}
	.st2{opacity:0.2;fill:#575756;}
</style>
<g>
	<g>
		<path class="st0" d="M344.38,263.27h-7.51v-4.14h-0.12c-2.42,2.96-5.85,4.85-9.99,4.85c-7.21,0-10.34-5.08-10.34-11.94v-19.21
			h7.92v16.26c0,3.72,0.06,8.75,5.14,8.75c5.73,0,6.98-6.21,6.98-10.11v-14.9h7.92V263.27z"/>
		<path class="st0" d="M351.95,232.83h7.51v4.14h0.12c2.48-3.49,5.85-4.85,9.99-4.85c7.21,0,10.35,5.08,10.35,11.94v19.21h-7.92
			v-16.26c0-3.72-0.06-8.75-5.14-8.75c-5.73,0-6.98,6.21-6.98,10.11v14.9h-7.92V232.83z"/>
		<path class="st0" d="M387.65,219.7h7.92v7.57h-7.92V219.7z M387.65,232.83h7.92v30.44h-7.92V232.83z"/>
		<path class="st0" d="M399.95,232.83h8.51l7.57,22.17h0.12l7.33-22.17h7.92l-11.23,30.44h-8.93L399.95,232.83z"/>
		<path class="st0" d="M460.01,261.56c-2.9,1.6-6.21,2.42-10.46,2.42c-10.05,0-15.9-5.79-15.9-15.78c0-8.81,4.67-16.08,14.13-16.08
			c11.29,0,14.48,7.74,14.48,18.38h-21.04c0.36,4.91,3.78,7.68,8.69,7.68c3.84,0,7.15-1.42,10.11-3.07V261.56z M454.69,245.06
			c-0.24-3.84-2.01-7.15-6.44-7.15s-6.68,3.07-7.04,7.15H454.69z"/>
		<path class="st0" d="M468.05,232.83h7.03v6.92h0.12c0.35-2.84,3.61-7.63,8.33-7.63c0.77,0,1.6,0,2.42,0.24v7.98
			c-0.71-0.41-2.13-0.65-3.55-0.65c-6.44,0-6.44,8.04-6.44,12.41v11.17h-7.92V232.83z"/>
		<path class="st0" d="M508.36,239.21c-2.42-0.83-4.2-1.3-7.09-1.3c-2.13,0-4.67,0.77-4.67,3.37c0,4.85,13.77,1.77,13.77,12.77
			c0,7.09-6.33,9.93-12.77,9.93c-3.01,0-6.09-0.53-8.99-1.3l0.47-6.5c2.48,1.24,5.08,2.01,7.8,2.01c2.01,0,5.2-0.77,5.2-3.72
			c0-5.97-13.77-1.89-13.77-12.89c0-6.56,5.73-9.46,11.94-9.46c3.72,0,6.15,0.59,8.63,1.12L508.36,239.21z"/>
		<path class="st0" d="M516.11,219.7h7.92v7.57h-7.92V219.7z M516.11,232.83h7.92v30.44h-7.92V232.83z"/>
		<path class="st0" d="M552.05,259.84h-0.12c-2.36,2.96-5.61,4.14-9.34,4.14c-9.34,0-12.77-7.69-12.77-16.02
			c0-8.39,3.43-15.84,12.77-15.84c3.96,0,6.74,1.36,9.1,4.26h0.12v-17.44h7.92v44.33h-7.69V259.84z M544.78,257.83
			c5.26,0,6.97-5.56,6.97-9.87c0-4.26-2.01-9.69-7.09-9.69c-5.14,0-6.56,5.62-6.56,9.69C538.1,252.16,539.58,257.83,544.78,257.83z"
			/>
		<path class="st0" d="M568.66,234.42c3.07-1.42,7.21-2.31,10.58-2.31c9.28,0,13.12,3.84,13.12,12.83v3.9
			c0,3.07,0.06,5.38,0.12,7.63c0.06,2.31,0.18,4.43,0.36,6.8h-6.98c-0.3-1.6-0.3-3.61-0.35-4.55h-0.12
			c-1.83,3.37-5.79,5.26-9.4,5.26c-5.38,0-10.64-3.25-10.64-9.04c0-4.55,2.19-7.21,5.2-8.69c3.01-1.48,6.92-1.77,10.23-1.77h4.37
			c0-4.91-2.19-6.56-6.86-6.56c-3.37,0-6.74,1.3-9.4,3.31L568.66,234.42z M577.94,258.19c2.42,0,4.31-1.06,5.56-2.72
			c1.3-1.71,1.66-3.9,1.66-6.27h-3.43c-3.55,0-8.81,0.59-8.81,5.26C572.91,257.06,575.1,258.19,577.94,258.19z"/>
		<path class="st0" d="M619.85,259.84h-0.12c-2.36,2.96-5.61,4.14-9.34,4.14c-9.34,0-12.77-7.69-12.77-16.02
			c0-8.39,3.43-15.84,12.77-15.84c3.96,0,6.74,1.36,9.1,4.26h0.12v-17.44h7.92v44.33h-7.68V259.84z M612.58,257.83
			c5.26,0,6.97-5.56,6.97-9.87c0-4.26-2.01-9.69-7.09-9.69c-5.14,0-6.56,5.62-6.56,9.69C605.9,252.16,607.38,257.83,612.58,257.83z"
			/>
	</g>
	<path class="st0" d="M89.8,288.41c7.84,4.25,18.79,7.52,31.37,7.52c9.64,0,18.79-1.96,18.79-11.11c0-21.24-53.92-7.84-53.92-49.34
		c0-27.45,26.8-34.97,49.67-34.97c10.95,0,21.73,1.63,29.41,4.25l-1.96,23.53c-7.84-3.59-16.67-5.23-25.33-5.23
		c-7.68,0-20.42,0.65-20.42,10.62c0,18.46,53.92,6.05,53.92,47.22c0,29.57-24.84,37.58-50.16,37.58c-10.62,0-23.86-1.63-33.99-4.9
		L89.8,288.41z"/>
	<path class="st0" d="M286.03,273.22c0,31.21-20.26,45.26-50,45.26s-50-14.05-50-45.26v-70.75h30.39v65.69
		c0,15.03,4.09,27.78,19.61,27.78s19.61-12.75,19.61-27.78v-65.69h30.39V273.22z"/>
	<rect y="232.86" class="st1" width="34.2" height="30.39"/>
	<rect x="34.2" y="202.46" class="st0" width="34.2" height="30.39"/>
	<rect x="34.2" y="263.25" class="st0" width="34.2" height="55.2"/>
	<g>
		<path class="st1" d="M358.91,137.63c-3.55-1.8-11.11-4.4-21.93-1.63c-5.82,1.13-30.05,6.39-69.31,29.49
			c-8.45,4.7-12.02,6.57-12.02,6.57l0.19-157.04c0,0,8.08-2.82,14.09-2.25c3.94,0.19,12.59-0.19,19.35,12.02
			c1.81,3.01,7.09,11.48,14.04,22.53L358.91,137.63z"/>
		<path class="st1" d="M494.76,115.9c0,0-13.71,9.2-45.46,22.17c-11.65,4.51-34.88,13.77-55.35,14.71
			c-14.46-0.94-19.35-5.45-21.98-9.02c-0.34-0.47-1.8-2.69-4.06-6.19l-63.96-103.2c4.41,1.17,15.24,2.93,32.83-1.12
			c14.84-3.57,42.64-10.71,83.03-33.25C423.19,5.82,494.76,115.9,494.76,115.9z M449.65,118.27l-9.42-14.29
			c7.69-3.42,14.81-6.8,20.77-9.84l-8.22-13.46c-6.25,3.11-13.54,6.52-21.36,9.91l-10.85-16.46c-9.39,5.15-15.5,6.62-15.5,6.62
			l10.77,16.21c-7.5,2.88-15.16,5.6-22.62,7.82l9.56,13.57c7.33-2.34,14.76-5.04,21.99-7.91l9.7,14.59
			C434.48,125.04,438.01,124.66,449.65,118.27z"/>
		<path class="st2" d="M358.91,137.63c-3.55-1.8-11.11-4.4-21.93-1.63c-5.82,1.13-30.05,6.39-69.31,29.49
			c-8.45,4.7-12.02,6.57-12.02,6.57l0.19-157.04c0,0,8.08-2.82,14.09-2.25c3.94,0.19,12.59-0.19,19.35,12.02
			c1.81,3.01,7.09,11.48,14.04,22.53L358.91,137.63z"/>
	</g>
</g>
</svg>
