<?xml version="1.0" encoding="utf-8"?>
<!-- Generator: Adobe Illustrator 23.0.1, SVG Export Plug-In . SVG Version: 6.00 Build 0)  -->
<svg version="1.1" id="Layer_1" xmlns="http://www.w3.org/2000/svg" xmlns:xlink="http://www.w3.org/1999/xlink" x="0px" y="0px"
	 viewBox="0 0 433.98 128.93" style="enable-background:new 0 0 433.98 128.93;" xml:space="preserve">
<style type="text/css">
	.st0{fill:#FFFFFF;}
	.st1{fill:#00457C;}
</style>
<rect class="st0" width="433.98" height="128.93"/>
<g>
	<path class="st0" d="M103.63,64.56c0,21.54-17.46,39-39,39s-39-17.46-39-39s17.46-39,39-39S103.63,43.01,103.63,64.56"/>
	<path class="st1" d="M41.87,38.88c-3.08,3.3,0.2,12.09,7.53,21.9c1.64-1.89,3.4-3.77,5.28-5.64c3.11-3.11,6.29-5.91,9.42-8.39
		C54.07,38.95,45.05,35.49,41.87,38.88"/>
	<path class="st1" d="M87.58,39.06c-3.32-3.13-12.28,0.26-22.21,7.74c2.88,2.32,5.8,4.95,8.67,7.83c2.1,2.1,4.06,4.23,5.88,6.37
		C87.57,51.09,90.93,42.2,87.58,39.06"/>
	<path class="st1" d="M64.52,82.86c-11.09,8.6-21.5,12.8-26.49,10.31c6.97,6.48,16.3,10.45,26.57,10.45
		c10.12,0,19.35-3.86,26.29-10.17C85.89,95.86,75.54,91.59,64.52,82.86"/>
	<path class="st1" d="M46.31,64.48C37.7,53.36,33.5,42.92,36.03,37.95c-6.5,6.97-10.48,16.33-10.48,26.61
		c0,10.15,3.87,19.39,10.21,26.33C33.3,85.91,37.57,75.53,46.31,64.48"/>
	<path class="st1" d="M103.66,64.56c0-10.14-3.87-19.36-10.19-26.31c2.46,4.99-1.82,15.36-10.56,26.41
		c8.57,11.06,12.77,21.45,10.32,26.45C99.7,84.15,103.66,74.82,103.66,64.56"/>
	<path class="st1" d="M74.55,74c-2.1,2.1-4.23,4.07-6.36,5.87c9.91,7.66,18.79,11.02,21.94,7.66c3.12-3.32-0.26-12.28-7.74-22.21
		C80.06,68.22,77.44,71.13,74.55,74"/>
	<path class="st1" d="M60.81,79.8c-1.88-1.64-3.76-3.42-5.64-5.28c-3.11-3.11-5.91-6.29-8.38-9.43
		c-7.81,10.02-11.26,19.04-7.87,22.22C42.21,90.4,51.01,87.12,60.81,79.8"/>
	<path class="st1" d="M64.71,46.27c11.09-8.59,21.5-12.78,26.49-10.31C84.22,29.48,74.88,25.5,64.6,25.5
		c-10.15,0-19.41,3.88-26.36,10.24C43.21,33.23,53.62,37.5,64.71,46.27"/>
	<path class="st1" d="M64.52,76.88c2.24-1.87,4.52-3.93,6.77-6.15c3.05-3.04,5.79-6.11,8.14-9.1c-1.79-2.15-3.76-4.3-5.88-6.45
		c-2.92-2.95-5.9-5.6-8.79-7.9c-3.15,2.42-6.37,5.22-9.54,8.37c-1.93,1.9-3.72,3.83-5.37,5.73c2.46,3.25,5.36,6.58,8.61,9.86
		C60.47,73.27,62.5,75.15,64.52,76.88 M54.83,60.76l8.63,0.26c0.34-0.02,0.5-0.19,0.54-0.48l-0.21-8.74h1.75l-0.21,8.74
		c0.03,0.28,0.17,0.43,0.53,0.48l8.64-0.26v1.75l-8.64-0.26c-0.32,0-0.53,0.19-0.53,0.49v-0.01v0.01l0.21,8.73h-1.75l0.21-8.73
		c0-0.34-0.21-0.51-0.54-0.49l-8.63,0.26V60.76z"/>
	<path class="st1" d="M223.12,59.72c0,0-0.16-0.48,0.24-0.63c0.75-0.28,1.19-0.59,1.64-1.18c0.45-0.59,0.67-1.18,0.67-1.77
		c0-0.5-0.16-0.75-0.48-0.75c-0.06,0-0.16,0.02-0.3,0.06c-0.11,0.04-0.22,0.06-0.32,0.06c-0.34,0-0.63-0.1-0.85-0.3
		c-0.23-0.2-0.34-0.46-0.34-0.79c0-0.35,0.11-0.64,0.33-0.86c0.22-0.23,0.5-0.34,0.85-0.34c0.54,0,0.98,0.25,1.32,0.75
		c0.34,0.5,0.51,1.08,0.51,1.75c0,0.96-0.29,1.81-0.88,2.54C224.92,58.97,224.12,59.46,223.12,59.72"/>
	<path class="st1" d="M197.68,46.96c-0.55-0.89-1.27-1.58-2.17-2.08c-0.9-0.5-2.35-1.17-4.34-1.99c-2.08-0.87-3.52-1.65-4.31-2.34
		c-0.81-0.69-1.21-1.53-1.21-2.52c0-0.82,0.32-1.58,0.96-2.27c0.64-0.69,1.65-1.04,3.03-1.04c1.44,0,2.71,0.47,3.81,1.41
		c1.1,0.94,1.53,1.76,2.05,3.07l0,0c0.02,0.07,0.26,0.8,1,0.8v0h0V36.1l0,0c-0.44-0.26-0.87-0.49-1.28-0.69
		c-2.94-1.42-5.1-1.42-5.1-1.42l0,0c-0.22-0.01-0.45-0.02-0.68-0.02c-1.75,0-3.2,0.51-4.34,1.53c-1.14,1.02-1.71,2.29-1.71,3.82
		c0,1,0.26,1.95,0.79,2.84c0.53,0.89,1.26,1.61,2.21,2.16c0.94,0.55,2.34,1.2,4.19,1.94c2.08,0.82,3.51,1.6,4.3,2.31
		c0.78,0.73,1.18,1.63,1.18,2.71c0,1.07-0.45,2.03-1.34,2.89c-0.89,0.86-2.15,1.29-3.78,1.29c-1.75,0-3.18-0.54-4.31-1.59
		c-0.09-0.08-0.17-0.16-0.25-0.25c-0.22-0.23-0.42-0.46-0.59-0.71c-0.05-0.07-0.1-0.15-0.15-0.23c-0.77-1.13-1.12-2.28-1.28-2.85
		c-0.3-1.04-0.93-1.12-1.1-1.13h-0.04l-0.02,5.04c0.01,0.01,0.01,0.01,0.02,0.01c0.37,0.29,0.76,0.54,1.16,0.77
		c3.09,1.77,6.51,1.69,6.51,1.69s0.24,0,0.36,0c2.2,0,3.97-0.58,5.29-1.73c1.32-1.15,1.98-2.65,1.98-4.48
		C198.5,48.87,198.23,47.84,197.68,46.96"/>
	<path class="st1" d="M205.19,48c1.9,5.23,6.29,8.08,10.45,6.27c4.21-1.81,4.51-6.91,2.8-12.17c-1.84-5.72-5.95-8.5-10.24-6.64
		C203.99,37.28,203.29,42.79,205.19,48 M222.95,44.83c0,6.9-4.58,11.08-11.31,11.08c-6.84,0-10.84-4.71-10.84-10.71
		c0-6.32,4.42-11.37,11.21-11.37C218.78,33.84,222.95,39.01,222.95,44.83"/>
	<path class="st1" d="M180.39,49.06c-0.14,0-0.68,0.09-0.97,0.95c-0.01,0.03-0.02,0.06-0.03,0.09c-0.03,0.12-0.07,0.22-0.11,0.33
		c-0.18,0.53-0.38,1.01-0.61,1.43c-0.1,0.19-0.21,0.36-0.32,0.53c-0.01,0.02-0.03,0.04-0.04,0.06c-0.19,0.27-0.41,0.56-0.68,0.88
		c-0.48,0.53-0.98,0.9-1.5,1.11c-0.71,0.28-1.12,0.29-1.71,0.32l-1.61-0.02c-1.43-0.16-1.92-0.29-2.53-0.99
		c-0.46-0.53-0.63-1.44-0.63-3.92v-4.68h6.31c0,0-0.3-1.05-1.08-1.05c-0.34,0-4.96-0.3-5.22-0.3l-0.04-7.96c0,0,5.45-0.37,6.11-0.21
		c0.66,0.16,1.24,0.49,1.72,1.1c0.08,0.1,0.15,0.23,0.22,0.35c0.13,0.23,0.3,0.57,0.47,0.98c0.09,0.22,0.17,0.45,0.23,0.68
		c0.01,0.04,0.03,0.09,0.04,0.13c0,0.02,0.01,0.03,0.02,0.06c0.26,0.96,0.96,0.93,0.96,0.93L179,35.81l-0.06-0.61h0
		c-1.13-0.5-4.15-0.57-4.94-0.58c-0.12,0-0.2,0-0.2,0l0.01,0h-9.89c0,0-0.01,0.64,0.84,0.74c0.1,0.01,0.17,0.02,0.25,0.03
		c0.08,0.01,0.16,0.02,0.23,0.03c0.12,0.02,0.23,0.04,0.35,0.07c0.02,0,0.03,0.01,0.04,0.01c0.11,0.04,0.2,0.07,0.27,0.12
		c0.31,0.2,0.52,0.55,0.6,1.06c0.09,0.5,0.13,1.56,0.13,3.15v10.28c0,1.75-0.04,2.84-0.12,3.27c-0.08,0.43-0.28,0.78-0.58,1.06
		c-0.07,0.07-0.17,0.13-0.29,0.18c-0.15,0.06-0.34,0.11-0.56,0.15c-0.02,0-0.05,0.01-0.08,0.01c-0.18,0.03-0.38,0.05-0.61,0.06
		c-0.04,0-0.07,0.01-0.12,0.01c-0.81,0.03-0.8,0.71-0.8,0.72h0.41h16.09l0.45-6.52H180.39z"/>
	<path class="st1" d="M161.48,34.64h-20.25l-0.11,5.05c0,0,0.03,0,0.07-0.01c0.05-0.01,0.13-0.03,0.22-0.07
		c0.19-0.09,0.41-0.27,0.51-0.64c0.29-1.02,0.49-1.68,0.84-2.23c0.4-0.65,0.84-0.9,1.3-1.03c0.46-0.13,5.78,0.14,5.78,0.14
		l0.03,14.27c0,1.75-0.05,2.86-0.15,3.34c-0.1,0.48-0.32,0.83-0.66,1.05c-0.17,0.11-0.41,0.2-0.72,0.25c-0.01,0-0.02,0-0.02,0
		c-0.13,0.02-0.26,0.04-0.4,0.05c-0.07,0.01-0.15,0.01-0.23,0.02c-0.13,0.01-0.25,0.01-0.37,0.01c-0.08,0-0.16,0-0.23,0l0,0
		c-0.8-0.01-0.95,0.68-0.95,0.7l0,0.01h0h10.41h0l0-0.01c-0.01-0.03-0.15-0.71-0.95-0.7l0,0c-0.04,0-0.08,0-0.12,0
		c-0.19,0-0.38-0.01-0.57-0.02c-0.01,0-0.02,0-0.03,0c-0.58-0.05-1-0.16-1.26-0.35c-0.34-0.25-0.55-0.63-0.62-1.14
		c-0.08-0.51-0.12-1.59-0.12-3.22l-0.03-14.23c0,0,5.34-0.3,5.81-0.17c0.47,0.14,0.91,0.38,1.33,0.99c0.31,0.46,0.56,1.15,0.78,2.05
		c0.06,0.26,0.16,0.45,0.27,0.58c0.04,0.06,0.09,0.1,0.13,0.14c0.13,0.12,0.27,0.17,0.35,0.19c0.06,0.02,0.1,0.02,0.1,0.02
		L161.48,34.64z"/>
	<path class="st1" d="M137.89,54.85L137.89,54.85c-0.04,0-0.08,0-0.12,0c-0.18,0-0.36-0.01-0.54-0.02c-0.01,0-0.02,0-0.03,0
		c-0.55-0.04-0.95-0.15-1.19-0.33c-0.32-0.23-0.52-0.59-0.59-1.08c-0.07-0.49-0.11-1.5-0.11-3.05V37.21
		c0.02-0.22,0.04-0.4,0.07-0.53c0.09-0.45,0.3-0.78,0.63-1c0.16-0.11,0.39-0.19,0.68-0.24c0.01,0,0.01,0,0.02,0
		c0.12-0.02,0.25-0.04,0.38-0.05c0.07-0.01,0.14-0.01,0.22-0.01c0.12-0.01,0.24-0.01,0.35-0.01c0.07,0,0.15,0,0.22,0h0
		c0.76,0.01,0.9-0.64,0.9-0.66l0-0.01h0h-9.85h0c0,0,0,0.01,0,0.01c0.01,0.03,0.15,0.67,0.9,0.66h0c0.04,0,0.08,0,0.12,0
		c0.18,0,0.36,0.01,0.54,0.02c0.01,0,0.02,0,0.03,0c0.55,0.04,0.95,0.15,1.19,0.33c0.32,0.23,0.52,0.59,0.59,1.08
		c0.07,0.49,0.11,1.5,0.11,3.04V53c-0.02,0.22-0.04,0.4-0.07,0.53c-0.09,0.45-0.3,0.78-0.63,1c-0.16,0.11-0.39,0.19-0.68,0.24
		c-0.01,0-0.01,0-0.02,0c-0.12,0.02-0.25,0.03-0.38,0.05c-0.07,0.01-0.14,0.01-0.22,0.02c-0.12,0.01-0.24,0.01-0.35,0.01
		c-0.07,0-0.15,0-0.22,0h0c-0.76-0.01-0.9,0.64-0.9,0.66l0,0.01h0h9.85h0l0-0.01C138.78,55.48,138.64,54.84,137.89,54.85"/>
	<path class="st1" d="M274.35,54.82L274.35,54.82c-0.39-0.04-0.68-0.11-0.86-0.21c-0.27-0.16-0.43-0.39-0.48-0.71
		c-0.04-0.24-0.06-0.83-0.07-1.74V50.8h0v-3.46c0-1.16-0.09-2.05-0.27-2.65c-0.18-0.61-0.59-1.12-1.23-1.54
		c-0.64-0.42-1.46-0.63-2.45-0.63c-0.88,0-1.72,0.22-2.52,0.64c-0.8,0.43-1.57,1.07-2.3,1.93v-1.87h-0.21h-1.4h-0.56h-2.08h-0.01
		v0.01c0,0,0.01,0.03,0.01,0.07c0.04,0.18,0.19,0.62,0.63,0.65c0.01,0,0.03,0.01,0.04,0.01h0c0.01,0,0.01,0,0.01,0
		c0.36,0.04,0.64,0.1,0.81,0.2c0.27,0.16,0.43,0.39,0.49,0.7c0.06,0.31,0.08,1.17,0.09,2.59v0.52v3.28c0,0.13,0,0.24,0,0.36h0v0.49
		c-0.01,1.02-0.04,1.65-0.1,1.88c-0.07,0.29-0.24,0.51-0.51,0.65c-0.17,0.09-0.43,0.15-0.77,0.18h0c-0.01,0-0.01,0-0.02,0
		c-0.02,0-0.03,0-0.04,0.01l0,0c-0.52,0.04-0.62,0.68-0.63,0.72v0.01h6.33v-0.01c0-0.03-0.11-0.68-0.63-0.72l0,0
		c-0.01,0-0.01,0-0.02,0c-0.38-0.04-0.67-0.1-0.85-0.21c-0.27-0.16-0.43-0.39-0.49-0.71c-0.04-0.24-0.07-0.79-0.08-1.65v-0.64h0
		c0-0.12,0-0.23,0-0.36v-3.28h0.01v-1.84c0.6-0.88,1.24-1.54,1.91-1.98c0.68-0.44,1.39-0.66,2.13-0.66c0.65,0,1.19,0.16,1.61,0.49
		c0.42,0.33,0.68,0.7,0.78,1.12c0.1,0.42,0.14,1.13,0.14,2.12v3.59v0.45v4.3h1.6h2.66v-0.01C274.98,55.5,274.87,54.86,274.35,54.82"
		/>
	<path class="st1" d="M332.85,49.97c-0.31-0.55-0.72-0.97-1.23-1.28c-0.51-0.31-1.33-0.72-2.45-1.22c-1.18-0.53-1.99-1.01-2.44-1.44
		c-0.46-0.42-0.7-0.68-0.7-1.29c0-0.51,0.18-0.8,0.54-1.23c0.36-0.43,0.93-0.64,1.71-0.64c0.82,0,1.54,0.29,2.16,0.87
		c0.62,0.58,0.86,0.91,1.16,1.71l0,0c0.01,0.04,0.15,0.49,0.56,0.49h0v-2.39l0,0c-0.25-0.16-0.49-0.3-0.73-0.42
		c-1.66-0.88-2.88-0.88-2.88-0.88c-0.12-0.01-0.25-0.01-0.39-0.01c-0.99,0-1.81,0.31-2.45,0.94c-0.65,0.63-0.97,1.41-0.97,2.35
		c0,0.62,0.08,1.34,0.38,1.89c0.3,0.55,0.72,0.99,1.25,1.33c0.53,0.34,1.33,0.74,2.37,1.19c1.18,0.51,1.99,0.98,2.43,1.42
		c0.44,0.45,0.73,0.86,0.73,1.53c0,0.66-0.27,1.08-0.78,1.61c-0.5,0.53-1.22,0.79-2.14,0.79c-0.99,0-1.8-0.33-2.44-0.98
		c-0.05-0.05-0.09-0.1-0.14-0.15c-0.12-0.14-0.24-0.29-0.34-0.43c-0.03-0.04-0.06-0.09-0.09-0.14c-0.43-0.7-0.61-1.24-0.71-1.59
		c-0.17-0.64-0.53-0.69-0.62-0.69h-0.02l-0.01,3.1c0,0,0.01,0.01,0.01,0.01c0.21,0.18,0.43,0.33,0.65,0.47
		c1.75,1.09,3.68,1.04,3.68,1.04s0.13,0,0.2,0c1.25,0,2.24-0.35,2.99-1.06c0.75-0.71,1.12-1.63,1.12-2.76
		C333.3,51.4,333.16,50.51,332.85,49.97"/>
	<path class="st1" d="M258.08,34.82h-3.03h-0.77h-3.12h0l0,0v0.01c0,0.03,0.12,0.65,0.66,0.75c0,0,0.01,0.01,0.02,0.01
		c0.61,0.09,0.95,0.23,1.27,0.44c0.44,0.28,0.72,0.65,0.86,1.12c0.1,0.35,0.16,0.9,0.19,1.64c0,0.01,0,0.01,0,0.02
		c0.01,0.24,0.01,0.51,0.01,0.8v7.06c0,1.61-0.06,2.79-0.17,3.54c-0.11,0.75-0.42,1.48-0.92,2.19c-0.5,0.71-1.27,1.3-2.31,1.77
		c-1.03,0.48-2.05,0.71-3.32,0.71c-1.61,0-2.9-0.35-3.87-1.06c-0.97-0.71-1.56-1.54-1.77-2.48c-0.21-0.95-0.31-2.55-0.31-4.82v-6.53
		c0-0.61,0.01-1.15,0.02-1.6c0-0.03,0-0.06,0-0.09c0.02-0.56,0.05-0.99,0.09-1.29c0.07-0.49,0.25-0.86,0.53-1.1
		c0.15-0.13,0.38-0.22,0.67-0.28c0.06-0.01,0.11-0.02,0.17-0.03c0.03,0,0.05-0.01,0.08-0.01c0.12-0.01,0.26-0.03,0.41-0.03
		c0.09-0.01,0.2-0.01,0.3-0.01c0.03,0,0.06,0,0.09,0h0c0.01,0,0.02,0,0.03,0c0.67-0.01,0.8-0.67,0.81-0.7v-0.01h-3.2h-3.01h-3.25
		v0.01c0.01,0.03,0.14,0.71,0.85,0.7h0c0.04,0,0.07,0,0.11,0c0.04,0,0.07,0,0.11,0c0.05,0,0.11,0,0.16,0.01
		c0.19,0.01,0.37,0.03,0.52,0.05c0.01,0,0.02,0,0.03,0c0.06,0.01,0.12,0.02,0.17,0.03c0.28,0.06,0.51,0.15,0.66,0.27
		c0.3,0.25,0.49,0.63,0.56,1.14c0,0.02,0,0.05,0.01,0.07c0.01,0.11,0.02,0.25,0.03,0.39c0.02,0.3,0.04,0.67,0.05,1.13v-0.24
		c0.01,0.45,0.02,0.98,0.02,1.6v6.45l-0.01,2.13c0,1.67,0.27,3,0.82,4c0.55,0.99,1.46,1.8,2.74,2.43c1.28,0.63,2.84,0.94,4.68,0.94
		c1.56,0,3.07-0.15,4.26-0.64c1.19-0.49,2.12-1.15,2.77-1.97c0.66-0.83,1.05-1.67,1.19-2.52c0.14-0.86,0.21-2.17,0.21-3.93v-6.9
		c0-0.32,0-0.61,0.01-0.87v0c0.02-0.79,0.07-1.35,0.14-1.68c0.1-0.44,0.38-0.83,0.83-1.18c0.34-0.27,0.69-0.54,1.29-0.64l0,0
		c0.52-0.1,0.63-0.73,0.63-0.76V34.82z"/>
	<path class="st1" d="M297.65,43.09h-1.32h-1.84h-1.05h0l0,0v0.01c0,0.03,0.1,0.65,0.58,0.76c0,0,0.01,0.01,0.01,0.01
		c0.18,0.04,0.33,0.1,0.46,0.18c0.24,0.14,0.39,0.35,0.44,0.61c0.01,0.07,0.04,0.14,0.04,0.22c0,0.25-0.14,0.72-0.42,1.42
		c-0.01,0.03-0.03,0.08-0.05,0.12c-0.07,0.18-0.15,0.37-0.25,0.58l-3.04,6.77l-3.38-7.6c-0.41-0.87-0.61-1.41-0.61-1.64
		c0-0.29,0.12-0.48,0.34-0.58c0.14-0.06,0.36-0.11,0.65-0.13l0,0c0.52-0.04,0.62-0.68,0.62-0.71v-0.01h-0.01h-2.64h-0.13h-2.89v0.01
		c0,0.03,0.1,0.63,0.56,0.76l0,0c0.01,0,0.01,0,0.01,0c0.29,0.07,0.52,0.19,0.68,0.35c0.26,0.27,0.6,0.88,1.04,1.85l4.45,10.04h0.89
		l4.07-8.96c0.48-1.07,0.88-1.85,1.2-2.34c0.09-0.14,0.18-0.26,0.26-0.35c0-0.01,0.01-0.02,0.02-0.03c0.22-0.25,0.48-0.43,0.78-0.53
		c0.01,0,0.02-0.02,0.03-0.03c0.4-0.2,0.49-0.75,0.49-0.78V43.09C297.65,43.1,297.65,43.09,297.65,43.09L297.65,43.09z"/>
	<path class="st1" d="M302.7,43.51c2.44-0.87,4.26,0.39,5.45,3.57h-7.86C300.47,45.46,301.19,44.05,302.7,43.51 M307.26,54.98
		c-2.06,0.89-4.22-0.08-5.58-2.18c-0.32-0.5-0.6-1.05-0.82-1.66c-0.42-1.16-0.63-2.35-0.61-3.44h8.1h2.55
		c-0.04-0.2-0.09-0.4-0.15-0.59c-0.79-2.62-2.76-4.64-5.71-4.64c-4.16,0-6.87,3.09-6.87,6.96c0,3.67,2.45,6.56,6.64,6.56
		c2.75,0,4.92-1.15,6.05-3.18h-1.59C308.93,53.77,308.29,54.54,307.26,54.98"/>
	<path class="st1" d="M280.55,43.23h-0.23h-1.49h-0.6h-2.2h-0.02v0.01c0,0.01,0.01,0.04,0.02,0.07c0.04,0.18,0.2,0.62,0.67,0.64
		c0.02,0,0.03,0.01,0.05,0.01l0,0c0.01,0,0.01,0,0.02,0c0.38,0.04,0.67,0.1,0.85,0.2c0.29,0.16,0.46,0.39,0.52,0.7
		c0.06,0.31,0.09,3.11,0.09,3.11v3.28c0,0.13,0,0.24,0,0.36h0v0.49c-0.01,1.02-0.04,1.65-0.1,1.88c-0.07,0.29-0.25,0.51-0.54,0.65
		c-0.18,0.09-0.46,0.15-0.82,0.18h0c-0.01,0-0.01,0-0.02,0c-0.02,0-0.03,0-0.05,0.01l0,0c-0.55,0.04-0.66,0.68-0.67,0.71v0.01h6.7
		v-0.01c0-0.03-0.12-0.68-0.67-0.71l0,0c-0.01,0-0.01,0-0.02,0c-0.41-0.04-0.71-0.1-0.9-0.21c-0.29-0.16-0.46-0.39-0.52-0.71
		c-0.04-0.23-0.07-0.78-0.08-1.65v-0.64h0C280.54,51.49,280.55,43.23,280.55,43.23"/>
	<path class="st1" d="M277.6,36.1c0-0.44,0.16-0.82,0.47-1.13c0.31-0.32,0.69-0.47,1.12-0.47c0.44,0,0.81,0.16,1.12,0.47
		c0.31,0.32,0.46,0.69,0.46,1.13c0,0.45-0.15,0.83-0.46,1.15c-0.31,0.32-0.68,0.47-1.12,0.47c-0.44,0-0.81-0.16-1.12-0.47
		C277.76,36.93,277.6,36.54,277.6,36.1"/>
	<path class="st1" d="M339.42,43.2h-0.23h-1.49h-0.6h-2.2h-0.02v0.01c0,0.01,0.01,0.04,0.02,0.07c0.04,0.18,0.2,0.62,0.67,0.64
		c0.02,0,0.03,0.01,0.05,0.01h0c0.01,0,0.01,0,0.02,0c0.38,0.04,0.67,0.1,0.86,0.2c0.29,0.16,0.46,0.39,0.52,0.7
		c0.06,0.31,0.09,3.11,0.09,3.11v3.28c0,0.13,0,0.24,0,0.36h0v0.49c-0.01,1.02-0.04,1.65-0.1,1.88c-0.07,0.29-0.25,0.51-0.54,0.65
		c-0.18,0.09-0.46,0.15-0.82,0.18h0c-0.01,0-0.01,0-0.02,0c-0.02,0-0.03,0-0.05,0.01l0,0c-0.55,0.04-0.66,0.68-0.67,0.71v0.01h6.7
		v-0.01c0-0.03-0.12-0.68-0.67-0.71l0,0c-0.01,0-0.01,0-0.02,0c-0.41-0.04-0.71-0.1-0.9-0.21c-0.29-0.16-0.46-0.39-0.52-0.71
		c-0.04-0.23-0.07-0.78-0.08-1.65v-0.64h0C339.41,51.47,339.42,43.2,339.42,43.2"/>
	<path class="st1" d="M336.48,36.07c0-0.44,0.16-0.82,0.47-1.13c0.31-0.32,0.69-0.47,1.12-0.47c0.44,0,0.81,0.16,1.12,0.47
		c0.31,0.32,0.46,0.69,0.46,1.13c0,0.45-0.15,0.83-0.46,1.15s-0.68,0.47-1.12,0.47c-0.44,0-0.81-0.16-1.12-0.47
		C336.63,36.91,336.48,36.52,336.48,36.07"/>
	<path class="st1" d="M354.43,52.01c-0.09,0.44-0.25,0.84-0.44,1.21c-0.37,0.7-0.95,1.26-1.77,1.61c-2.56,1.11-5.23-0.58-6.39-3.79
		c-1.17-3.2-0.69-6.47,1.9-7.58c1.13-0.49,2.23-0.45,3.22,0.02c1.32,0.63,2.38,1.93,3.02,3.94c0.22,0.66,0.37,1.32,0.48,1.96
		L354.43,52.01z M358.88,55.54v-0.01c0-0.02-0.04-0.24-0.18-0.43c-0.1-0.14-0.25-0.26-0.48-0.27l0,0c-0.01,0-0.01,0-0.02,0
		c-0.4-0.03-0.7-0.1-0.88-0.21c-0.28-0.15-0.45-0.39-0.51-0.7c-0.01-0.06-0.02-0.14-0.03-0.25c-0.03-0.29-0.04-0.75-0.05-1.37v-0.63
		h0c0-0.12,0.01-17.04,0.01-17.04h-0.1h-0.13h-1.46h-0.58h-1.95h-0.21h-0.02v0.01l0,0c0,0.01,0.01,0.03,0.01,0.07
		c0.04,0.17,0.2,0.61,0.66,0.63c0.02,0,0.03,0.01,0.05,0.01l0,0c0.01,0,0.01,0,0.02,0c0.37,0.04,0.66,0.1,0.84,0.2
		c0.14,0.07,0.24,0.17,0.33,0.28c0.08,0.11,0.14,0.24,0.17,0.38c0,0,0,0,0,0c0,0.07,0,0.13,0.01,0.2c0.03,0.35,0.05,1.19,0.05,2.52
		v4.97c-1.12-0.97-2.62-1.56-4.42-1.56c-4.17,0-6.88,3.1-6.88,6.98c0,3.68,2.46,6.57,6.66,6.57c1.89,0,3.5-0.55,4.69-1.54l0.16,1.18
		H358.88z"/>
	<path class="st1" d="M385.55,52.01c-0.09,0.44-0.25,0.84-0.44,1.21c-0.37,0.7-0.95,1.26-1.77,1.61c-2.56,1.11-5.23-0.58-6.39-3.79
		c-1.17-3.2-0.69-6.47,1.9-7.58c1.13-0.49,2.23-0.45,3.22,0.02c1.32,0.63,2.38,1.93,3.02,3.94c0.22,0.66,0.37,1.32,0.48,1.96
		L385.55,52.01z M390,55.54v-0.01c0-0.02-0.04-0.24-0.18-0.43c-0.1-0.14-0.25-0.26-0.48-0.27l0,0c-0.01,0-0.01,0-0.02,0
		c-0.4-0.03-0.7-0.1-0.88-0.21c-0.28-0.15-0.45-0.39-0.51-0.7c-0.01-0.06-0.02-0.14-0.03-0.25c-0.03-0.29-0.04-0.75-0.05-1.37v-0.63
		h0c0-0.12,0.01-17.04,0.01-17.04h-0.1h-0.13h-1.46h-0.58h-1.95h-0.21h-0.02v0.01v0c0,0.01,0.01,0.03,0.02,0.07
		c0.04,0.17,0.2,0.61,0.66,0.63c0.02,0,0.03,0.01,0.05,0.01l0,0c0.01,0,0.01,0,0.02,0c0.37,0.04,0.66,0.1,0.84,0.2
		c0.14,0.07,0.24,0.17,0.33,0.28c0.08,0.11,0.14,0.24,0.17,0.38c0,0,0,0,0,0c0,0.07,0,0.13,0.01,0.2c0.04,0.35,0.05,1.19,0.05,2.52
		v4.97c-1.12-0.97-2.62-1.56-4.42-1.56c-4.17,0-6.88,3.1-6.88,6.98c0,3.68,2.46,6.57,6.66,6.57c1.89,0,3.5-0.55,4.69-1.54l0.16,1.18
		H390z"/>
	<path class="st1" d="M323.39,44.4L323.39,44.4c0-0.01,0-0.01,0-0.02c0-0.01-0.01-0.02-0.01-0.03c-0.01-0.08-0.02-0.25-0.06-0.38
		c-0.02-0.07-0.04-0.12-0.07-0.18c-0.1-0.23-0.24-0.45-0.45-0.68c-0.39-0.42-0.92-0.63-1.59-0.63c-0.74,0-1.51,0.31-2.29,0.92
		c-0.6,0.47-1.07,1.03-1.41,1.68c0-1.08,0-1.86,0-1.86h-0.23h-1.49h-0.6h-2.2H313v0.01c0,0.01,0.01,0.04,0.02,0.07
		c0.04,0.18,0.2,0.62,0.67,0.65c0.02,0,0.03,0.01,0.05,0.01h0c0.01,0,0.01,0,0.02,0c0.38,0.04,0.67,0.1,0.85,0.2
		c0.29,0.16,0.46,0.39,0.52,0.7c0.06,0.31,0.09,3.1,0.09,3.1v3.28c0,0.12,0,0.24,0,0.36h0v0.49c-0.01,1.02-0.04,1.65-0.1,1.88
		c-0.07,0.29-0.25,0.51-0.54,0.65c-0.18,0.09-0.46,0.15-0.82,0.18h0c-0.01,0-0.01,0-0.02,0c-0.02,0-0.03,0.01-0.05,0.01l0,0
		c-0.55,0.04-0.66,0.68-0.66,0.71v0.01h6.7v-0.01c0-0.03-0.12-0.68-0.67-0.72l0,0c-0.01,0-0.01,0-0.02,0
		c-0.41-0.03-0.71-0.1-0.9-0.21c-0.29-0.16-0.46-0.39-0.52-0.71c-0.04-0.23-0.07-0.78-0.08-1.65v-0.64h-0.01
		c0-0.06,0-2.59,0.01-4.86l0.11-0.41c0.17-0.64,0.56-1.26,1.17-1.85c0,0,0.01-0.01,0.02-0.01c0.13-0.12,0.24-0.23,0.36-0.32
		c0.06-0.05,0.13-0.1,0.2-0.15c0.05-0.03,0.09-0.07,0.14-0.1c0.07-0.04,0.14-0.09,0.21-0.12c0.06-0.03,0.12-0.05,0.17-0.08
		c0.05-0.02,0.1-0.05,0.15-0.06c0.1-0.03,0.21-0.05,0.3-0.05c0.41,0,0.57,0.44,0.6,0.85c0.01,0.12,0.06,0.24,0.11,0.34v0
		c0,0.01,0.01,0.01,0.01,0.01c0.03,0.07,0.07,0.13,0.11,0.19c0,0.01,0.01,0.02,0.01,0.02v0c0.21,0.33,0.57,0.57,1,0.57
		c0.36,0,0.67-0.17,0.89-0.42c0,0,0.01,0,0.01-0.01c0.03-0.03,0.04-0.07,0.07-0.11c0.05-0.07,0.11-0.14,0.14-0.22
		C323.36,44.7,323.39,44.55,323.39,44.4"/>
	<path class="st1" d="M367.92,53.79c-0.89,0.66-2.27,1.59-3.86,1.1c-1.5-0.46-1.85-2-1.92-2.66c-0.06-0.53,0.07-1.33,0.75-2.09
		c0.72-0.8,1.79-0.97,3.01-1.28c0.74-0.18,1.56-0.69,2.02-1.15V53.79z M371.73,54.77L371.73,54.77c-0.41-0.04-0.71-0.11-0.9-0.22
		c-0.28-0.17-0.51-0.61-0.56-0.95c-0.04-0.26-0.02-6.7-0.02-6.7c0-1.22-0.1-2.15-0.29-2.79c-0.19-0.64-0.62-1.18-1.3-1.62
		c-0.67-0.44-1.53-0.66-2.58-0.66c-0.92,0-1.99,0.3-2.84,0.75c-0.84,0.45-1.95,1.46-2.23,1.9c-0.21,0.33-0.31,0.72-0.28,1.03
		c0.07,0.74,0.6,1.12,1.3,1.12c0.57,0,0.99-0.39,1.15-0.9c0.01-0.04,0.02-0.08,0.03-0.13c0-0.01,0-0.03,0-0.04l0,0
		c0.04-0.26,0.08-0.49-0.1-1.23c-0.15-0.59,0.6-1.22,0.91-1.38c0.48-0.2,0.87-0.3,1.39-0.3c0.69,0,1.25,0.17,1.7,0.51
		c0.44,0.34,0.56,0.92,0.66,1.37c0.09,0.4,0.14,1.35,0.15,2.22c-0.25,0.29-1.39,1.47-3.15,1.7c-2.79,0.38-3.77,1.66-3.77,1.66v0
		c-0.58,0.61-0.93,1.43-0.93,2.33c0,1.5,0.96,2.79,2.32,3.23l0.03,0.02c1.29,0.46,3.03,0.25,4.47-0.5c0.69-0.36,0.96-0.62,1.04-0.7
		l0.28,1.04h4.19v-0.01C372.39,55.49,372.28,54.81,371.73,54.77"/>
	<path class="st1" d="M161.49,79.44c-0.31-0.55-0.72-0.97-1.23-1.28c-0.51-0.31-1.33-0.72-2.45-1.22c-1.18-0.53-1.99-1.01-2.44-1.44
		c-0.46-0.42-0.7-0.68-0.7-1.29c0-0.51,0.18-0.8,0.54-1.23s0.93-0.64,1.71-0.64c0.82,0,1.54,0.29,2.16,0.87
		c0.62,0.58,0.86,0.91,1.16,1.71l0,0c0.01,0.04,0.15,0.49,0.56,0.49h0v-2.39v0c-0.25-0.16-0.49-0.3-0.73-0.42
		c-1.66-0.88-2.88-0.88-2.88-0.88c-0.13-0.01-0.25-0.01-0.39-0.01c-0.99,0-1.81,0.31-2.45,0.94c-0.65,0.63-0.97,1.41-0.97,2.35
		c0,0.62,0.08,1.34,0.38,1.89c0.3,0.55,0.72,0.99,1.25,1.33c0.53,0.34,1.33,0.74,2.37,1.19c1.18,0.51,1.99,0.98,2.43,1.42
		c0.44,0.45,0.73,0.86,0.73,1.53c0,0.66-0.27,1.08-0.78,1.61c-0.5,0.53-1.22,0.79-2.14,0.79c-0.99,0-1.8-0.33-2.44-0.98
		c-0.05-0.05-0.09-0.1-0.14-0.15c-0.12-0.14-0.24-0.29-0.34-0.43c-0.03-0.04-0.06-0.09-0.09-0.14c-0.43-0.7-0.61-1.24-0.71-1.59
		c-0.17-0.64-0.53-0.69-0.62-0.69h-0.02l-0.01,3.1c0,0,0.01,0.01,0.01,0.01c0.21,0.18,0.43,0.33,0.65,0.47
		c1.75,1.09,3.68,1.04,3.68,1.04s0.13,0,0.2,0c1.25,0,2.24-0.35,2.99-1.06c0.75-0.71,1.12-1.63,1.12-2.76
		C161.94,80.87,161.8,79.99,161.49,79.44"/>
	<path class="st1" d="M142.88,72.94c2.44-0.87,4.26,0.39,5.45,3.57h-7.86C140.65,74.89,141.37,73.47,142.88,72.94 M147.44,84.41
		c-2.06,0.89-4.22-0.08-5.58-2.18c-0.32-0.5-0.6-1.05-0.82-1.66c-0.42-1.16-0.63-2.35-0.61-3.44h8.1h2.55
		c-0.04-0.2-0.09-0.4-0.15-0.59c-0.79-2.62-2.76-4.64-5.71-4.64c-4.16,0-6.87,3.09-6.87,6.96c0,3.67,2.45,6.55,6.64,6.55
		c2.75,0,4.92-1.15,6.05-3.18h-1.59C149.11,83.2,148.47,83.96,147.44,84.41"/>
	<path class="st1" d="M164.11,73.38L164.11,73.38c0.39,0.04,0.68,0.11,0.86,0.21c0.27,0.16,0.43,0.4,0.48,0.71
		c0.04,0.24,0.06,0.83,0.07,1.74v1.35h0v3.22c0,1.16,0.09,2.05,0.27,2.65c0.18,0.61,0.59,1.12,1.23,1.54
		c0.64,0.42,1.46,0.63,2.45,0.63c0.88,0,1.72-0.22,2.52-0.64c0.8-0.43,1.57-1.07,2.3-1.93l0.21,2.11h1.41h0.56h2.08h0.01v-0.01
		c0,0-0.01-0.03-0.01-0.07c-0.04-0.18-0.19-0.62-0.63-0.65c-0.01,0-0.03-0.01-0.04-0.01h0c-0.01,0-0.01,0-0.02,0
		c-0.36-0.04-0.63-0.1-0.81-0.2c-0.27-0.16-0.43-0.39-0.49-0.7c-0.06-0.31-0.08-1.17-0.09-2.59v-0.52v-3.28c0-0.13,0-0.24,0-0.36h0
		V76.1c0.01-1.02,0.04-1.65,0.1-1.88c0.07-0.29,0.24-0.51,0.51-0.65c0.17-0.09,0.43-0.15,0.77-0.18h0c0.01,0,0.01,0,0.02,0
		c0.02,0,0.03,0,0.04-0.01l0,0c0.52-0.04,0.63-0.68,0.63-0.72v-0.01h-6.33v0.01c0,0.03,0.11,0.68,0.63,0.72l0,0
		c0.01,0,0.01,0,0.02,0c0.38,0.04,0.67,0.1,0.85,0.21c0.27,0.16,0.43,0.4,0.49,0.71c0.04,0.24,0.07,0.79,0.08,1.65v0.64h0
		c0,0.12,0,0.23,0,0.36v3.28h-0.01v1.6c-0.6,0.88-1.23,1.54-1.91,1.98c-0.68,0.44-1.39,0.66-2.13,0.66c-0.65,0-1.19-0.16-1.61-0.49
		c-0.42-0.33-0.68-0.7-0.78-1.12c-0.1-0.42-0.14-1.13-0.14-2.12V77.4v-0.45v-4.3h-1.59h-2.66v0.01
		C163.48,72.7,163.59,73.34,164.11,73.38"/>
	<path class="st1" d="M280.51,73.38L280.51,73.38c0.39,0.04,0.68,0.11,0.86,0.21c0.27,0.16,0.43,0.4,0.48,0.71
		c0.04,0.24,0.06,0.83,0.07,1.74v1.35h0v3.22c0,1.16,0.09,2.05,0.27,2.65c0.18,0.61,0.59,1.12,1.23,1.54
		c0.64,0.42,1.46,0.63,2.45,0.63c0.88,0,1.72-0.22,2.52-0.64c0.8-0.43,1.57-1.07,2.3-1.93l0.21,2.11h1.41h0.56h2.08h0.01v-0.01
		c0,0-0.01-0.03-0.01-0.07c-0.04-0.18-0.19-0.62-0.63-0.65c-0.01,0-0.03-0.01-0.04-0.01h0c-0.01,0-0.01,0-0.02,0
		c-0.36-0.04-0.63-0.1-0.81-0.2c-0.27-0.16-0.43-0.39-0.49-0.7c-0.06-0.31-0.08-1.17-0.09-2.59v-0.52v-3.28c0-0.13,0-0.24,0-0.36h0
		V76.1c0.01-1.02,0.04-1.65,0.1-1.88c0.07-0.29,0.24-0.51,0.51-0.65c0.17-0.09,0.43-0.15,0.77-0.18h0c0.01,0,0.01,0,0.02,0
		c0.02,0,0.03,0,0.04-0.01l0,0c0.52-0.04,0.62-0.68,0.63-0.72v-0.01h-6.33v0.01c0,0.03,0.11,0.68,0.63,0.72l0,0
		c0.01,0,0.01,0,0.02,0c0.38,0.04,0.67,0.1,0.85,0.21c0.27,0.16,0.43,0.4,0.49,0.71c0.04,0.24,0.07,0.79,0.08,1.65v0.64h0
		c0,0.12,0,0.23,0,0.36v3.28h-0.01v1.6c-0.6,0.88-1.24,1.54-1.91,1.98c-0.68,0.44-1.39,0.66-2.13,0.66c-0.65,0-1.19-0.16-1.61-0.49
		c-0.42-0.33-0.68-0.7-0.78-1.12c-0.1-0.42-0.14-1.13-0.14-2.12V77.4v-0.45v-4.3h-1.59h-2.66v0.01
		C279.88,72.7,279.98,73.34,280.51,73.38"/>
	<path class="st1" d="M184.24,72.65h-0.23h-1.49h-0.6h-2.2h-0.02v0.01c0,0.01,0.01,0.04,0.02,0.07c0.04,0.18,0.2,0.62,0.67,0.64
		c0.02,0,0.03,0.01,0.05,0.01l0,0c0.01,0,0.01,0,0.02,0c0.38,0.04,0.67,0.1,0.85,0.2c0.29,0.16,0.46,0.39,0.52,0.7
		c0.06,0.31,0.09,3.11,0.09,3.11v3.28c0,0.13,0,0.24,0,0.36h0v0.49c-0.01,1.02-0.04,1.65-0.1,1.88c-0.07,0.29-0.25,0.51-0.54,0.65
		c-0.18,0.09-0.46,0.15-0.82,0.18h0c-0.01,0-0.01,0-0.02,0c-0.02,0-0.03,0-0.05,0.01l0,0c-0.55,0.04-0.66,0.68-0.67,0.71v0.01h6.7
		v-0.01c0-0.03-0.12-0.68-0.67-0.71l0,0c-0.01,0-0.01,0-0.02,0c-0.41-0.04-0.71-0.1-0.9-0.21c-0.29-0.16-0.46-0.39-0.52-0.71
		c-0.04-0.23-0.07-0.78-0.08-1.65v-0.64h-0.01C184.23,80.91,184.24,72.65,184.24,72.65"/>
	<path class="st1" d="M181.29,65.52c0-0.44,0.16-0.82,0.47-1.13c0.31-0.32,0.69-0.47,1.12-0.47s0.81,0.16,1.12,0.47
		s0.46,0.69,0.46,1.13c0,0.45-0.15,0.83-0.46,1.15s-0.68,0.47-1.12,0.47s-0.81-0.16-1.12-0.47
		C181.45,66.35,181.29,65.97,181.29,65.52"/>
	<path class="st1" d="M347.84,85.06v-0.01c0-0.02-0.04-0.24-0.18-0.43c-0.1-0.14-0.25-0.26-0.48-0.27l0,0c-0.01,0-0.01,0-0.02,0
		c-0.4-0.03-0.7-0.1-0.88-0.21c-0.28-0.15-0.45-0.39-0.51-0.7c-0.01-0.06-0.02-0.14-0.03-0.25c-0.03-0.29-0.04-0.75-0.05-1.37V81.2
		h0c0-0.12,0.01-17.04,0.01-17.04h-0.1h-0.13H344h-0.58h-1.95h-0.21h-0.02v0.01v0c0,0.01,0.01,0.03,0.02,0.07
		c0.04,0.17,0.2,0.61,0.66,0.63c0.02,0,0.03,0.01,0.05,0.01l0,0c0.01,0,0.01,0,0.02,0c0.37,0.04,0.66,0.1,0.84,0.2
		c0.14,0.07,0.25,0.17,0.33,0.28c0.08,0.11,0.14,0.24,0.17,0.38c0,0,0,0,0,0.01c0,0.06,0,0.13,0.01,0.2
		c0.03,0.35,0.05,1.19,0.05,2.52L343.43,83c-0.01,0.1-0.02,0.38-0.03,0.44c-0.06,0.31-0.23,0.54-0.51,0.7
		c-0.19,0.1-0.48,0.17-0.88,0.21c-0.01,0-0.01,0-0.02,0l0,0c-0.23,0.02-0.38,0.14-0.48,0.27c-0.14,0.19-0.18,0.41-0.18,0.43v0.01
		h2.12h2.27H347.84z"/>
	<path class="st1" d="M394.98,73.86L394.98,73.86c0-0.01,0-0.01,0-0.02c0-0.01-0.01-0.02-0.01-0.03c-0.01-0.08-0.02-0.25-0.06-0.38
		c-0.02-0.07-0.04-0.12-0.07-0.18c-0.1-0.23-0.24-0.45-0.45-0.68c-0.39-0.42-0.92-0.63-1.59-0.63c-0.74,0-1.51,0.31-2.29,0.92
		c-0.6,0.47-1.07,1.03-1.41,1.68c0-1.08,0-1.86,0-1.86h-0.23h-1.49h-0.6h-2.2h-0.02v0.01c0,0.01,0.01,0.04,0.02,0.07
		c0.04,0.18,0.2,0.62,0.67,0.65c0.02,0,0.03,0.01,0.05,0.01h0c0.01,0,0.01,0,0.02,0c0.38,0.04,0.67,0.1,0.85,0.2
		c0.29,0.16,0.46,0.39,0.52,0.7c0.06,0.31,0.04,8.88-0.02,9.11c-0.07,0.29-0.25,0.51-0.54,0.65c-0.18,0.09-0.46,0.15-0.82,0.18h0h0
		c-0.01,0-0.01,0-0.02,0c-0.02,0-0.03,0.01-0.05,0.01l0,0c-0.55,0.04-0.66,0.68-0.66,0.71v0.01h6.7V85
		c-0.01-0.03-0.12-0.68-0.67-0.72l0,0c-0.01,0-0.01,0-0.02,0c-0.41-0.03-0.71-0.1-0.9-0.21c-0.29-0.16-0.46-0.39-0.52-0.71
		c-0.04-0.23-0.09-4.88-0.08-7.15l0.11-0.41c0.17-0.64,0.56-1.26,1.17-1.85c0,0,0.01-0.01,0.02-0.01c0.13-0.12,0.24-0.23,0.36-0.32
		c0.06-0.05,0.13-0.1,0.2-0.15c0.05-0.03,0.09-0.07,0.14-0.1c0.07-0.04,0.14-0.09,0.21-0.12c0.06-0.03,0.12-0.05,0.17-0.08
		c0.05-0.02,0.1-0.05,0.15-0.06c0.1-0.03,0.21-0.05,0.3-0.05c0.41,0,0.57,0.44,0.6,0.85c0.01,0.12,0.06,0.24,0.11,0.34
		c0,0.01,0.01,0.01,0.01,0.02c0.03,0.07,0.07,0.13,0.11,0.19c0,0.01,0.01,0.02,0.01,0.02c0.21,0.33,0.57,0.57,1,0.57
		c0.36,0,0.67-0.17,0.89-0.42c0,0,0.01,0,0.01-0.01c0.03-0.03,0.04-0.07,0.07-0.11c0.05-0.07,0.11-0.14,0.14-0.22
		C394.95,74.16,394.98,74.01,394.98,73.86"/>
	<path class="st1" d="M321.72,81.45c-0.09,0.44-0.25,0.84-0.44,1.21c-0.37,0.7-0.95,1.26-1.77,1.61c-2.56,1.11-5.23-0.58-6.39-3.79
		c-1.17-3.2-0.69-6.47,1.9-7.58c1.13-0.49,2.23-0.45,3.22,0.02c1.32,0.63,2.38,1.93,3.02,3.94c0.22,0.66,0.37,1.32,0.48,1.96
		L321.72,81.45z M326.17,84.97v-0.01c0-0.02-0.04-0.24-0.18-0.43c-0.1-0.14-0.25-0.26-0.48-0.27l0,0c-0.01,0-0.01,0-0.02,0
		c-0.4-0.03-0.7-0.1-0.88-0.21c-0.28-0.16-0.45-0.39-0.51-0.7c-0.01-0.06-0.02-0.14-0.03-0.25c-0.03-0.29-0.04-0.75-0.05-1.37v-0.63
		h0c0-0.12,0.01-17.04,0.01-17.04h-0.1h-0.13h-1.46h-0.58h-1.95h-0.21h-0.02v0.01l0,0c0,0.01,0.01,0.03,0.01,0.07
		c0.04,0.17,0.2,0.61,0.66,0.63c0.02,0,0.03,0.01,0.05,0.01l0,0c0.01,0,0.01,0,0.02,0c0.37,0.04,0.66,0.1,0.84,0.2
		c0.14,0.08,0.24,0.17,0.33,0.28c0.08,0.11,0.14,0.24,0.17,0.38c0,0,0,0,0,0.01c0,0.06,0,0.13,0.01,0.2
		c0.03,0.35,0.05,1.19,0.05,2.52v4.97c-1.12-0.97-2.62-1.56-4.42-1.56c-4.17,0-6.88,3.1-6.88,6.98c0,3.68,2.46,6.57,6.66,6.57
		c1.89,0,3.5-0.55,4.69-1.54l0.16,1.18H326.17z"/>
	<path class="st1" d="M203.59,83.38c-0.89,0.66-2.27,1.59-3.86,1.1c-1.5-0.46-1.85-2-1.92-2.66c-0.06-0.53,0.07-1.33,0.75-2.09
		c0.72-0.8,1.79-0.97,3.01-1.28c0.74-0.18,1.56-0.69,2.02-1.15V83.38z M207.4,84.36L207.4,84.36c-0.41-0.04-0.71-0.11-0.9-0.22
		c-0.28-0.17-0.51-0.61-0.56-0.95c-0.04-0.26-0.02-6.7-0.02-6.7c0-1.22-0.1-2.15-0.29-2.79c-0.19-0.64-0.62-1.18-1.3-1.62
		c-0.67-0.44-1.53-0.66-2.58-0.66c-0.92,0-1.99,0.3-2.84,0.75c-0.84,0.45-1.95,1.46-2.23,1.9c-0.21,0.33-0.31,0.72-0.28,1.03
		c0.07,0.74,0.6,1.12,1.3,1.12c0.57,0,0.99-0.39,1.15-0.9c0.01-0.04,0.02-0.08,0.03-0.13c0-0.01,0-0.03,0-0.04l0,0
		c0.04-0.26,0.08-0.49-0.1-1.23c-0.15-0.59,0.6-1.22,0.91-1.38c0.48-0.2,0.88-0.3,1.39-0.3c0.69,0,1.25,0.17,1.7,0.51
		c0.44,0.34,0.56,0.92,0.66,1.37c0.09,0.4,0.14,1.35,0.15,2.22c-0.25,0.29-1.4,1.46-3.15,1.7c-2.79,0.38-3.77,1.66-3.77,1.66v0
		c-0.58,0.61-0.93,1.43-0.93,2.33c0,1.5,0.96,2.79,2.32,3.23l0.03,0.02c1.29,0.46,3.03,0.25,4.47-0.5c0.69-0.36,0.96-0.62,1.04-0.7
		l0.22,1.04h4.25v-0.01C208.06,85.08,207.95,84.4,207.4,84.36"/>
	<path class="st1" d="M304.63,83.22c-0.89,0.66-2.27,1.59-3.86,1.1c-1.5-0.46-1.85-2-1.92-2.66c-0.06-0.53,0.07-1.33,0.75-2.09
		c0.72-0.8,1.79-0.97,3.01-1.28c0.74-0.18,1.56-0.69,2.02-1.15V83.22z M308.44,84.2L308.44,84.2c-0.41-0.04-0.71-0.11-0.9-0.22
		c-0.28-0.17-0.51-0.61-0.56-0.95c-0.04-0.26-0.02-6.7-0.02-6.7c0-1.22-0.1-2.15-0.29-2.79c-0.19-0.64-0.62-1.18-1.3-1.62
		c-0.67-0.44-1.53-0.66-2.58-0.66c-0.92,0-1.99,0.3-2.84,0.75c-0.84,0.45-1.95,1.46-2.23,1.9c-0.21,0.33-0.31,0.72-0.28,1.03
		c0.07,0.74,0.6,1.12,1.3,1.12c0.57,0,0.99-0.39,1.15-0.9c0.01-0.04,0.02-0.08,0.03-0.13c0-0.01,0-0.03,0-0.04l0,0
		c0.04-0.26,0.08-0.49-0.1-1.23c-0.15-0.59,0.6-1.22,0.91-1.38c0.48-0.2,0.88-0.3,1.39-0.3c0.69,0,1.25,0.17,1.7,0.51
		c0.44,0.34,0.56,0.92,0.66,1.37c0.09,0.4,0.14,1.35,0.15,2.22c-0.25,0.29-1.4,1.47-3.15,1.7c-2.79,0.38-3.77,1.66-3.77,1.66v0
		c-0.58,0.61-0.93,1.43-0.93,2.33c0,1.5,0.96,2.79,2.32,3.23l0.03,0.02c1.29,0.46,3.03,0.25,4.47-0.5c0.69-0.36,0.96-0.62,1.04-0.7
		l0.25,1.04h4.22v-0.01C309.1,84.92,308.99,84.25,308.44,84.2"/>
	<path class="st1" d="M335.7,83.22c-0.89,0.66-2.27,1.59-3.86,1.1c-1.5-0.46-1.85-2-1.92-2.66c-0.06-0.53,0.07-1.33,0.75-2.09
		c0.72-0.8,1.79-0.97,3.01-1.28c0.74-0.18,1.56-0.69,2.02-1.15V83.22z M339.51,84.2L339.51,84.2c-0.41-0.04-0.71-0.11-0.9-0.22
		c-0.28-0.17-0.51-0.61-0.56-0.95c-0.04-0.26-0.02-6.7-0.02-6.7c0-1.22-0.1-2.15-0.29-2.79c-0.19-0.64-0.62-1.18-1.3-1.62
		c-0.67-0.44-1.53-0.66-2.58-0.66c-0.92,0-1.99,0.3-2.84,0.75c-0.84,0.45-1.95,1.46-2.23,1.9c-0.21,0.33-0.31,0.72-0.28,1.03
		c0.07,0.74,0.6,1.12,1.3,1.12c0.57,0,0.99-0.39,1.15-0.9c0.01-0.04,0.02-0.08,0.03-0.13c0-0.01,0-0.03,0-0.04l0,0
		c0.04-0.26,0.08-0.49-0.1-1.23c-0.15-0.59,0.6-1.22,0.91-1.38c0.48-0.2,0.88-0.3,1.39-0.3c0.69,0,1.25,0.17,1.7,0.51
		c0.44,0.34,0.56,0.92,0.66,1.37c0.09,0.4,0.14,1.35,0.15,2.22c-0.25,0.29-1.4,1.47-3.15,1.7c-2.79,0.38-3.77,1.66-3.77,1.66v0
		c-0.58,0.61-0.93,1.43-0.93,2.33c0,1.5,0.96,2.79,2.32,3.23l0.03,0.02c1.29,0.46,3.03,0.25,4.47-0.5c0.69-0.36,0.96-0.62,1.04-0.7
		l0.24,1.04h4.24v-0.01C340.17,84.92,340.06,84.25,339.51,84.2"/>
	<path class="st1" d="M357.21,83.22c-0.89,0.66-2.27,1.59-3.86,1.1c-1.5-0.46-1.85-2-1.92-2.66c-0.06-0.53,0.07-1.33,0.75-2.09
		c0.72-0.8,1.79-0.97,3.01-1.28c0.74-0.18,1.56-0.69,2.02-1.15V83.22z M361.02,84.2L361.02,84.2c-0.41-0.04-0.71-0.11-0.9-0.22
		c-0.28-0.17-0.51-0.61-0.56-0.95c-0.04-0.26-0.02-6.7-0.02-6.7c0-1.22-0.1-2.15-0.29-2.79c-0.19-0.64-0.62-1.18-1.3-1.62
		c-0.67-0.44-1.53-0.66-2.58-0.66c-0.92,0-1.99,0.3-2.84,0.75c-0.84,0.45-1.95,1.46-2.23,1.9c-0.21,0.33-0.31,0.72-0.28,1.03
		c0.07,0.74,0.6,1.12,1.3,1.12c0.57,0,0.99-0.39,1.15-0.9c0.01-0.04,0.02-0.08,0.03-0.13c0-0.01,0-0.03,0-0.04l0,0
		c0.04-0.26,0.08-0.49-0.1-1.23c-0.15-0.59,0.6-1.22,0.91-1.38c0.48-0.2,0.88-0.3,1.39-0.3c0.69,0,1.25,0.17,1.7,0.51
		c0.44,0.34,0.56,0.92,0.66,1.37c0.09,0.4,0.14,1.35,0.15,2.22c-0.25,0.29-1.4,1.47-3.15,1.7c-2.79,0.38-3.77,1.66-3.77,1.66v0
		c-0.58,0.61-0.93,1.43-0.93,2.33c0,1.5,0.96,2.79,2.32,3.23l0.03,0.02c1.29,0.46,3.03,0.25,4.47-0.5c0.69-0.36,0.96-0.62,1.04-0.7
		l0.24,1.04h4.23v-0.01C361.68,84.92,361.57,84.25,361.02,84.2"/>
	<path class="st1" d="M378.96,83.22c-0.89,0.66-2.27,1.59-3.86,1.1c-1.5-0.46-1.85-2-1.92-2.66c-0.06-0.53,0.07-1.33,0.75-2.09
		c0.72-0.8,1.79-0.97,3.01-1.28c0.74-0.18,1.56-0.69,2.02-1.15V83.22z M382.77,84.2L382.77,84.2c-0.41-0.04-0.71-0.11-0.9-0.22
		c-0.28-0.17-0.51-0.61-0.56-0.95c-0.04-0.26-0.02-6.7-0.02-6.7c0-1.22-0.1-2.15-0.29-2.79c-0.19-0.64-0.62-1.18-1.3-1.62
		c-0.67-0.44-1.53-0.66-2.58-0.66c-0.92,0-1.99,0.3-2.84,0.75c-0.84,0.45-1.95,1.46-2.23,1.9c-0.21,0.33-0.31,0.72-0.28,1.03
		c0.07,0.74,0.6,1.12,1.3,1.12c0.57,0,0.99-0.39,1.15-0.9c0.01-0.04,0.02-0.08,0.03-0.13c0-0.01,0-0.03,0-0.04l0,0
		c0.04-0.26,0.08-0.49-0.1-1.23c-0.15-0.59,0.6-1.22,0.91-1.38c0.48-0.2,0.88-0.3,1.39-0.3c0.69,0,1.25,0.17,1.7,0.51
		c0.44,0.34,0.56,0.92,0.66,1.37c0.09,0.4,0.14,1.35,0.15,2.22c-0.25,0.29-1.4,1.47-3.15,1.7c-2.79,0.38-3.77,1.66-3.77,1.66v0
		c-0.58,0.61-0.93,1.43-0.93,2.33c0,1.5,0.96,2.79,2.32,3.23l0.03,0.02c1.29,0.46,3.03,0.25,4.47-0.5c0.69-0.36,0.96-0.62,1.04-0.7
		l0.27,1.04h4.21v-0.01C383.43,84.92,383.32,84.25,382.77,84.2"/>
	<path class="st1" d="M404.2,83.22c-0.89,0.66-2.27,1.59-3.86,1.1c-1.5-0.46-1.85-2-1.92-2.66c-0.06-0.53,0.07-1.33,0.75-2.09
		c0.72-0.8,1.79-0.97,3.01-1.28c0.74-0.18,1.56-0.69,2.02-1.15V83.22z M408,84.2L408,84.2c-0.41-0.04-0.71-0.11-0.9-0.22
		c-0.28-0.17-0.51-0.61-0.56-0.95c-0.04-0.26-0.02-6.7-0.02-6.7c0-1.22-0.1-2.15-0.29-2.79c-0.19-0.64-0.62-1.18-1.3-1.62
		c-0.67-0.44-1.53-0.66-2.58-0.66c-0.92,0-1.99,0.3-2.84,0.75c-0.84,0.45-1.95,1.46-2.23,1.9c-0.21,0.33-0.31,0.72-0.28,1.03
		c0.07,0.74,0.6,1.12,1.3,1.12c0.57,0,0.99-0.39,1.15-0.9c0.01-0.04,0.02-0.08,0.03-0.13c0-0.01,0-0.03,0-0.04l0,0
		c0.04-0.26,0.08-0.49-0.1-1.23c-0.15-0.59,0.6-1.22,0.91-1.38c0.48-0.2,0.88-0.3,1.39-0.3c0.69,0,1.25,0.17,1.7,0.51
		c0.44,0.34,0.56,0.92,0.66,1.37c0.09,0.4,0.14,1.35,0.15,2.22c-0.25,0.29-1.4,1.47-3.15,1.7c-2.79,0.38-3.77,1.66-3.77,1.66v0
		c-0.58,0.61-0.93,1.43-0.93,2.33c0,1.5,0.96,2.79,2.32,3.23l0.03,0.02c1.29,0.46,3.03,0.25,4.47-0.5c0.69-0.36,0.96-0.62,1.04-0.7
		l0.24,1.04h4.23v-0.01C408.67,84.92,408.56,84.25,408,84.2"/>
	<path class="st1" d="M135.14,63.91h-3.04h-3.27v0.01v0c0.01,0.03,0.1,0.5,0.54,0.65c0.09,0.03,0.19,0.06,0.31,0.05l0,0h0.01
		c1.07,0.19,1.72,0.46,1.94,0.81c0.33,0.53,0.49,2.06,0.49,4.59v10.36c0,3.8-0.38,6.52-1.14,8.18c-0.79,1.7-2.34,3.06-4.62,4.06
		c-0.77,0.28-1.47,0.45-2.03,0.55c-0.46,0.07-0.87,0.12-1.2,0.15c-0.12,0.01-0.19,0.01-0.19,0.01l0.01,0.01
		c-0.36,0.04-0.57,0.05-0.57,0.05s0.19,1.03,1.51,0.72c0.39-0.09,0.69-0.19,0.94-0.29c0.56-0.17,1.09-0.35,1.58-0.53
		c0.01,0,0.01,0.01,0.02,0c0.06-0.02,0.11-0.05,0.17-0.07c0.25-0.1,0.48-0.2,0.72-0.3c0.15-0.07,0.3-0.13,0.45-0.2
		c0.19-0.09,0.37-0.17,0.54-0.26c2.28-1.12,3.93-2.47,4.96-4.04c1.24-1.91,1.86-4.59,1.86-8.04V70.02c0-2.53,0.14-4.05,0.41-4.55
		c0.21-0.38,0.77-0.66,1.69-0.83c0.06,0,0.13,0,0.2-0.01c0.03,0,0.06,0,0.09,0h0c0.01,0,0.02,0,0.03,0c0.14,0,0.26-0.04,0.36-0.09
		c0.35-0.17,0.45-0.55,0.46-0.61c0,0,0-0.01,0-0.01v-0.01H135.14z"/>
	<path class="st1" d="M192.33,73.44h2.25v-0.75h-1.55c-0.1-0.01-0.2-0.01-0.29-0.03c-0.31-0.06-0.54-0.22-0.7-0.51
		c-0.1-0.18-0.09-1.21-0.13-1.6c0-0.01,0-0.01,0-0.02v0c0-0.02-0.01-0.03-0.01-0.05c-0.02-0.47-0.47-0.63-0.64-0.67
		c-0.04-0.01-0.07-0.01-0.07-0.02h-0.01v0.02c0,2.85-3.37,2.87-3.37,2.87v0.01c0,0.01,0.01,0.04,0.02,0.07
		c0.04,0.18,0.2,0.62,0.67,0.65c0.02,0,0.03,0.01,0.05,0.01h0c0.01,0,0.01,0,0.02,0c0.38,0.04,0.67,0.1,0.85,0.2
		c0.29,0.16,0.46,0.39,0.52,0.7c0.06,0.31,0.09,0.53,0.09,0.72c0,0.19-0.02,7.72-0.03,8.02c0,0.02-0.01,0.04-0.01,0.06
		c0,0.01,0,0.02,0,0.03c0.01,1.23,1.02,2.23,2.25,2.23h2.29v-0.01c0-0.03-0.12-0.65-0.64-0.71c-0.01,0-0.02-0.01-0.03-0.01h0
		c-0.01,0-0.01,0-0.02,0c-0.41-0.04-0.71-0.1-0.9-0.21c-0.29-0.16-0.46-0.39-0.52-0.71c-0.04-0.23-0.07-0.78-0.08-1.65
		C192.32,82.09,192.32,75.1,192.33,73.44"/>
	<path class="st1" d="M277.26,75.47h-1.46h-2.12h-0.48h-2.8v0.01c0,0.03,0.12,0.61,0.73,0.6h0c0.03,0,0.06,0,0.09,0
		c0.03,0,0.06,0,0.09,0c0.05,0,0.1,0,0.14,0.01c0.16,0.01,0.32,0.02,0.45,0.04c0.01,0,0.01,0,0.02,0c0.05,0.01,0.1,0.02,0.14,0.03
		c0.24,0.05,0.44,0.13,0.57,0.24c0.26,0.21,0.42,0.54,0.48,0.98c0,0.02,0,0.04,0.01,0.06c0.01,0.1,0.02,0.22,0.03,0.34
		c0.02,0.26,0.06,1.61,0.06,2.14v0.46l0,0.33c-0.57,1.49-1.52,2.51-3.13,3.2c-4.17,1.81-8.65-1.21-10.54-6.44
		c-1.54-4.21-1.55-8.14,0.79-10.63c0.43-0.42,1.1-1.1,1.63-1.42c1.27-0.78,2.39-1.28,4.35-1.21c1.92,0.07,3.27,0.65,4.61,1.91
		c1.18,1.11,2.22,3.11,2.58,4.02c0.36,0.91,0.98,0.82,1.02,0.83h0.01v-0.02l0,0v-3.54c-0.2-0.58-1.47-2.16-3.3-3.05
		c-0.01-0.01-0.02-0.01-0.03-0.02c-0.01,0-0.02-0.01-0.03-0.01c-0.16-0.08-0.32-0.14-0.49-0.21c-0.19-0.08-0.39-0.15-0.59-0.22
		c-0.11-0.04-0.23-0.08-0.34-0.11c-0.26-0.08-0.53-0.14-0.8-0.2c-0.11-0.02-0.23-0.05-0.34-0.07c-0.33-0.06-0.66-0.12-1.01-0.15
		c-0.01,0-0.02,0-0.03,0c-0.45-0.05-0.84-0.07-1.12-0.07c-0.43,0-0.85,0.02-1.27,0.06c-0.81,0.07-1.58,0.22-2.31,0.43
		c0,0-0.01,0-0.01,0c-0.19,0.06-0.38,0.13-0.57,0.2c-1.5,0.52-2.85,1.33-3.88,2.42c-0.11,0.12-0.23,0.23-0.34,0.35v0
		c-1.89,2.04-2.95,4.81-2.95,7.92c0,5.99,4.01,10.71,10.84,10.71c4.41,0,7.89-1.81,9.77-5c0,0,0-1.44,0.02-1.83
		c0.03-0.5,0.04-0.95,0.09-1.21c0.07-0.39,0.22-0.73,0.46-0.94c0.13-0.11,0.33-0.19,0.58-0.24c0.05-0.01,0.1-0.02,0.15-0.03
		c0.02,0,0.04-0.01,0.07-0.01c0.01,0,0.03,0,0.04,0c0.1-0.01,0.2-0.02,0.31-0.03c0.08,0,0.17-0.01,0.26-0.01c0.03,0,0.05,0,0.08,0
		l0,0c0.01,0,0.01,0,0.02,0c0.58-0.01,0.69-0.58,0.7-0.61v-0.01H277.26z"/>
	<path class="st1" d="M367.15,64.6c-0.29-0.3-0.63-0.45-1.03-0.45c-0.43,0-0.78,0.16-1.07,0.48c-0.29,0.32-0.43,0.68-0.43,1.08
		c0,0.38,0.14,0.72,0.41,1c0.28,0.29,0.62,0.43,1.02,0.43c0.42,0,0.79-0.15,1.08-0.45c0.3-0.3,0.45-0.66,0.45-1.08
		C367.58,65.24,367.43,64.9,367.15,64.6"/>
	<path class="st1" d="M367.34,72.72h-0.23h-0.84h-0.65h-0.6h-2.2h-0.02v0.01c0,0.01,0.01,0.04,0.02,0.07
		c0.04,0.18,0.2,0.62,0.67,0.64c0.02,0,0.03,0.01,0.05,0.01l0,0c0.01,0,0.01,0,0.02,0c0.38,0.04,0.67,0.1,0.85,0.2
		c0.07,0.04,0.13,0.08,0.18,0.13c0.16,0.15,0.25,0.36,0.3,0.59c0.02,0.1,0.03,0.86,0.04,1.92l0,0v8.87c0,3.1-0.24,4.72-0.6,5.53
		c-0.73,1.64-1.52,2.56-2.75,3.37c-0.79,0.52-1.96,0.84-2.13,0.89c-0.01,0-0.02,0-0.02,0s0,0.01,0.01,0.03
		c0.03,0.08,0.16,0.32,0.63,0.3c0.76-0.03,2.11-0.64,2.51-0.92c1.11-0.78,2.36-1.8,2.92-2.59c0.98-1.35,1.83-3,1.84-6.23
		C367.35,85.51,367.34,72.72,367.34,72.72"/>
	<path class="st1" d="M237.67,72.94c2.44-0.87,4.26,0.39,5.45,3.57h-7.86C235.44,74.89,236.17,73.47,237.67,72.94 M242.23,84.41
		c-2.06,0.89-4.22-0.08-5.58-2.18c-0.32-0.5-0.6-1.05-0.82-1.66c-0.42-1.16-0.63-2.35-0.61-3.44h8.1h2.55
		c-0.04-0.2-0.09-0.4-0.15-0.59c-0.79-2.62-2.76-4.64-5.71-4.64c-4.16,0-6.87,3.09-6.87,6.96c0,3.67,2.45,6.55,6.64,6.55
		c2.75,0,4.92-1.15,6.05-3.18h-1.59C243.91,83.2,243.26,83.96,242.23,84.41"/>
	<path class="st1" d="M228.33,81.78c-0.09,0.44-0.25,0.84-0.44,1.21c-0.37,0.7-0.95,1.26-1.77,1.61c-2.56,1.11-5.23-0.58-6.39-3.79
		c-1.17-3.2-0.69-6.47,1.9-7.58c1.13-0.49,2.23-0.45,3.22,0.02c1.32,0.63,2.38,1.93,3.02,3.94c0.22,0.66,0.37,1.32,0.48,1.96
		L228.33,81.78z M232.78,85.3v-0.01c0-0.02-0.04-0.24-0.18-0.43c-0.1-0.14-0.25-0.26-0.48-0.27l0,0c-0.01,0-0.01,0-0.02,0
		c-0.4-0.03-0.7-0.1-0.88-0.21c-0.28-0.15-0.45-0.39-0.51-0.7c-0.01-0.06-0.02-0.14-0.03-0.25c-0.03-0.29-0.04-0.75-0.05-1.37v-0.63
		h0c0-0.12,0.01-17.04,0.01-17.04h-0.1h-0.13h-1.46h-0.58h-1.95h-0.21h-0.02v0.01v0c0,0.01,0.01,0.03,0.02,0.07
		c0.04,0.17,0.2,0.61,0.66,0.63c0.02,0,0.03,0.01,0.05,0.01l0,0c0.01,0,0.01,0,0.02,0c0.37,0.04,0.66,0.1,0.84,0.2
		c0.14,0.07,0.24,0.17,0.33,0.28c0.08,0.11,0.14,0.24,0.17,0.38c0,0,0,0,0,0.01c0,0.06,0,0.13,0.01,0.2
		c0.04,0.35,0.05,1.19,0.05,2.52v4.97c-1.12-0.97-2.62-1.56-4.42-1.56c-4.17,0-6.88,3.1-6.88,6.98c0,3.68,2.46,6.57,6.66,6.57
		c1.89,0,3.5-0.55,4.69-1.54l0.16,1.18H232.78z"/>
</g>
</svg>
