<?xml version="1.0" encoding="utf-8"?>
<!-- Generator: Adobe Illustrator 25.3.1, SVG Export Plug-In . SVG Version: 6.00 Build 0)  -->
<svg version="1.1" id="Capa_1" xmlns="http://www.w3.org/2000/svg" xmlns:xlink="http://www.w3.org/1999/xlink" x="0px" y="0px"
	 viewBox="0 0 792 322.7" style="enable-background:new 0 0 792 322.7;" xml:space="preserve">
<style type="text/css">
	.st0{fill:#001E61;}
	.st1{fill:#CE0E2D;}
</style>
<g id="Layer_2">
	<path class="st0" d="M323,63.6l5.3-0.4l0.5,0.5v18.6c0,4.2,2.3,6.4,5.7,6.4s5.6-2.2,5.6-6.4V69.8c0-2.1-0.1-4.1-0.4-6.2l5.6-0.3
		v19.5c0,6.8-5,10.2-11.1,10.2s-10.7-3.4-10.7-10.2v-12C323.5,68.4,323.3,66,323,63.6z"/>
	<path class="st0" d="M361.9,92.5V78.8c0-2.2-0.3-4.4-0.8-6.6l4.9-1c0.4,1,0.7,2,0.9,3.1c1.8-1.9,4.2-3,6.8-3.1
		c3.6,0,5.7,2.3,5.7,6.4v14.9h-5.3V78.6c0-2.6-1-3.8-3.1-3.8c-1.5,0.1-2.9,0.6-4,1.6v16.1H361.9z"/>
	<path class="st0" d="M397.6,67.9c-1.6,0-3-1.3-3-2.9c0,0,0-0.1,0-0.1c0-2,1.7-3.6,3.6-3.6c1.5-0.1,2.8,1.1,2.9,2.7
		c0,0.1,0,0.2,0,0.3C401.1,66.3,399.6,67.9,397.6,67.9C397.6,67.9,397.6,67.9,397.6,67.9z M395.2,78.8c0-2.3-0.1-4.7-0.5-7l5.2-0.6
		l0.6,0.6v20.8h-5.2V78.8z"/>
	<path class="st0" d="M427.3,92.6h-5.7l-6.8-20.9l5.5-0.5l2.8,10.5c0.8,2.3,1.4,4.7,1.8,7.1l0,0c0.5-2.4,1.1-4.8,1.9-7.1l2.8-10.5
		l4,0.3l0.3,0.6L427.3,92.6z"/>
	<path class="st0" d="M463.9,82.6h-11.8c0.4,4.5,2.8,6.6,6.3,6.6c1.8,0,3.6-0.6,5.2-1.5l0.3,3.5c-2.1,1.2-4.5,1.9-6.9,1.8
		c-6.2,0-10.4-3.8-10.4-10.6c0-7,4.4-11.2,9.9-11.2c5,0,8,3.5,8,8.5c0,0.7,0,1.6,0,2.3L463.9,82.6z M452.1,80.7l7.3-0.3
		c0-0.5,0-0.9,0-1.5c0-2.6-1-4.5-3.1-4.5C454,74.3,452.3,76.7,452.1,80.7z"/>
	<path class="st0" d="M480.4,92.5V78.8c0-2.2-0.3-4.4-0.8-6.6l4.9-1c0.6,1.4,0.9,2.9,1.1,4.4c1.5-2.6,3.3-4.4,5.6-4.4
		c0.7,0,1.4,0.2,2,0.6l-0.5,4.9c-0.8-0.2-1.6-0.3-2.4-0.3c-1.7,0-3.4,0.6-4.7,1.7v14.5H480.4z"/>
	<path class="st0" d="M519.8,76.4c-1.7-1-3.7-1.6-5.7-1.7c-2.1,0-3.3,0.9-3.3,2.3c0,3.8,10,3.2,10,9.8c0,3.7-3.3,6.1-8.4,6.1
		c-2.4,0-4.7-0.5-6.9-1.5l0.4-4c2,1.2,4.3,1.9,6.6,2c2.1,0,3.2-1,3.2-2.2c0-3.8-10-3.2-10-9.7c0-3.7,3.3-6.2,8.4-6.2
		c2.1,0,4.1,0.4,6,1.2L519.8,76.4z"/>
	<path class="st0" d="M539.5,67.9c-1.6,0-3-1.3-3-2.9c0,0,0-0.1,0-0.1c0-2,1.7-3.6,3.7-3.6c1.5-0.1,2.8,1.1,2.9,2.7
		c0,0.1,0,0.2,0,0.3C543,66.3,541.5,67.9,539.5,67.9C539.5,67.9,539.5,67.9,539.5,67.9z M537.1,78.8c0-2.3-0.1-4.7-0.5-7l5.2-0.6
		l0.6,0.6v20.8h-5.2V78.8z"/>
	<path class="st0" d="M575.6,60.7l0.6,0.6v25.5c0,1.9,0.4,3.8,1,5.7l-4.5,0.4c-0.4-0.9-0.8-1.9-1.1-2.8h-0.1
		c-1.3,1.8-3.5,2.9-5.7,2.8c-4.8,0-8.1-3.8-8.1-10.2c0-7.5,4.6-11.5,10.7-11.5c0.9,0,1.8,0.1,2.6,0.3v-3.2c0-2.3-0.1-4.7-0.5-7
		L575.6,60.7z M567.9,89.8c1.2,0,2.3-0.5,3.1-1.3V74.3c-0.7-0.1-1.4-0.2-2-0.2c-3.7,0-5.9,2.7-5.9,8C563,86.7,564.8,89.8,567.9,89.8
		z"/>
	<path class="st0" d="M608.9,92.5l-4.4,0.4c-0.5-0.9-0.9-1.9-1.1-2.9h-0.1c-1.5,1.9-3.8,3-6.2,2.9c-3.3,0-5.5-1.9-5.5-5
		c0-4.8,5-6.8,11.4-7.1v-2c0-2.4-1.3-3.7-3.9-3.7c-2.2,0.1-4.4,0.7-6.3,1.9l-0.3-4.1c2.5-1,5.2-1.6,7.9-1.6c5.2,0,7.8,2.5,7.8,6.9
		c0,2.9-0.1,6.2-0.1,8.6C608,88.8,608.3,90.7,608.9,92.5z M599.4,89.8c1.3,0,2.5-0.6,3.5-1.4v-5.7c-3.4,0.3-6.2,1.7-6.2,4.3
		c-0.1,1.4,1,2.7,2.4,2.8C599.2,89.8,599.3,89.8,599.4,89.8L599.4,89.8z"/>
	<path class="st0" d="M639.8,60.7l0.6,0.6v25.5c0,1.9,0.4,3.8,1,5.7l-4.5,0.4c-0.4-0.9-0.8-1.9-1.1-2.8h-0.1
		c-1.3,1.9-3.5,2.9-5.7,2.8c-4.8,0-8.1-3.8-8.1-10.2c0-7.5,4.6-11.5,10.7-11.5c0.9,0,1.8,0.1,2.6,0.3v-3.2c0-2.3-0.1-4.7-0.5-7
		L639.8,60.7z M632,89.8c1.2,0,2.3-0.5,3.1-1.3V74.3c-0.7-0.1-1.3-0.2-2-0.2c-3.7,0-5.9,2.7-5.9,8C627.2,86.7,629,89.8,632,89.8z"/>
	<path class="st0" d="M678.6,180.3c0,5-4.2,9-9.2,9c-5,0-9-4.2-9-9.2c0-5,4.1-9,9.1-9C674.6,171.2,678.6,175.3,678.6,180.3z
		 M669.6,170.3c-5.5-0.1-10,4.4-10.1,9.9c-0.1,5.5,4.4,10,9.9,10.1c5.5,0.1,10-4.4,10.1-9.9c0,0,0-0.1,0-0.1
		C679.5,174.8,675.1,170.3,669.6,170.3L669.6,170.3z"/>
	<path class="st0" d="M369.1,189.2h-45v-57.7c0-6.4-0.3-12.7-1-19.1l13.7-1.1l1.6,1.6v65.9l30.8-0.8L369.1,189.2z"/>
	<path class="st0" d="M422.9,189.2l-11.7,1.1c-1.4-2.4-2.4-5-3-7.7h-0.3c-3,4.1-9.2,7.7-16.6,7.7c-8.8,0-14.6-5-14.6-13.4
		c0-12.7,13.4-18.1,30.2-18.7v-5.4c0-6.5-3.4-9.9-10.4-9.9c-5.9,0.2-11.7,1.8-16.8,4.9l-0.8-10.9c6.7-2.7,13.9-4.2,21.1-4.3
		c13.8,0,20.9,6.7,20.9,18.4c0,7.8-0.3,16.4-0.3,23C420.5,179.1,421.3,184.3,422.9,189.2z M397.6,181.9c3.4-0.1,6.7-1.5,9.3-3.8
		v-15.1c-9,0.8-16.5,4.5-16.5,11.5C390.4,178.6,392.9,181.9,397.6,181.9z"/>
	<path class="st0" d="M464.2,190.3c-7,0-16-1.4-20.9-4.1l1-12.2c5.8,3.5,14.7,5.1,20.1,5.1c7.9,0,12.3-3.6,12.3-9.4
		c0-8-8.2-11.5-16.4-15.6s-16.6-9.4-16.6-21.1c0-13.8,11.6-21.7,27.9-21.7c6.6,0,13.6,1.3,17.8,3.1l-1.8,12.4
		c-5-2.8-10.6-4.3-16.3-4.3c-8.4,0-12.9,3.7-12.9,9.5c0,7.7,8.4,10.9,16.4,15.1s16.6,9.6,16.6,21.8
		C491.4,182.6,480.2,190.3,464.2,190.3z"/>
	<path class="st0" d="M545,189.2l-11.7,1.1c-1.4-2.4-2.4-5-3-7.7h-0.3c-3,4.1-9.3,7.7-16.6,7.7c-8.8,0-14.6-5-14.6-13.4
		c0-12.7,13.4-18.1,30.2-18.7v-5.4c0-6.5-3.3-9.9-10.4-9.9c-5.9,0.2-11.7,1.8-16.8,4.9l-0.8-10.9c6.7-2.7,13.8-4.2,21-4.3
		c13.8,0,20.9,6.7,20.9,18.4c0,7.8-0.3,16.4-0.3,23C542.5,179.1,543.3,184.3,545,189.2z M519.7,181.9c3.4-0.1,6.7-1.5,9.3-3.8v-15.1
		c-9,0.8-16.5,4.5-16.5,11.5C512.4,178.6,515,181.9,519.7,181.9L519.7,181.9z"/>
	<path class="st0" d="M554.7,189.2v-64.4c0-6.2-0.4-12.4-1.3-18.5l13.7-1.7l1.6,1.6v83L554.7,189.2z"/>
	<path class="st0" d="M581.9,189.2v-64.4c0-6.2-0.4-12.4-1.3-18.5l13.7-1.7l1.6,1.6v83L581.9,189.2z"/>
	<path class="st0" d="M652,162.9h-31.3c1.1,12,7.5,17.4,16.7,17.4c4.9-0.1,9.7-1.5,13.8-4l0.9,9.3c-3.3,2.2-9.8,4.8-18.4,4.8
		c-16.5,0-27.5-10-27.5-28.1c0-18.5,11.7-29.7,26.2-29.7c13.3,0,21.4,9.2,21.4,22.5c0,1.8,0,4.1-0.1,6.1L652,162.9z M620.6,157.7
		L640,157c0.1-1.2,0.1-2.4,0.1-4c0-6.9-2.8-12-8.4-12C625.5,140.9,621,147.1,620.6,157.7L620.6,157.7z"/>
	<path class="st0" d="M666.3,185.8v-8.2c0-0.9,0-1.7-0.1-2.6h3.3c2.7,0,4.2,1.3,4.2,3.4c0.1,1.3-0.8,2.5-2,3l2.5,4.5l-2.3,0.1
		c-0.7-1.3-1.3-2.7-2-4h-1.6v3.9L666.3,185.8z M668.3,176.5v4h1c1.6,0,2.3-0.7,2.3-2s-0.6-2-2.3-2H668.3z"/>
	<path class="st0" d="M356.4,212.8l3.6,32.5h-6l-1.3-12c-0.6-5-1-10.2-1.3-14.6h-0.1c-1,4.9-2.2,9.7-3.6,14.6l-3.4,12h-6.8l-3.3-12
		c-1.7-5.8-2.7-10-3.6-14.6h-0.1c-0.3,5.2-0.9,10.1-1.3,14.6l-1.3,12h-5.1l3.6-32.8l7.9-0.3l4,13.4c1.2,4.7,2.2,9.4,3,14.1h0.1
		c0.7-4.8,1.7-9.5,3-14.1l3.9-13l7.3-0.4L356.4,212.8z"/>
	<path class="st0" d="M385.3,234.1H372c0.5,5.1,3.2,7.4,7.1,7.4c2.1,0,4.1-0.6,5.9-1.7l0.4,4c-2.4,1.4-5.1,2.1-7.8,2
		c-7,0-11.7-4.3-11.7-12c0-7.9,5-12.6,11.2-12.6c5.7,0,9.1,3.9,9.1,9.6c0,0.8,0,1.8,0,2.6L385.3,234.1z M381,210.5
		c-2,3-4.6,5.7-7.6,7.8l-2.2-0.5c1.6-2.8,3-5.7,4-8.8l5.4,0.5L381,210.5z M371.9,232l8.3-0.3c0-0.5,0-1,0-1.7c0-2.9-1.2-5.1-3.6-5.1
		C374,224.8,372.1,227.4,371.9,232z"/>
	<path class="st0" d="M400.6,236.3l-4.8,9h-4.8l-0.3-0.7l6.9-11.2l-6.9-11.7l6-0.6l5.3,9.8l4.9-9.8l4.8,0.4l0.3,0.7l-7,11.3l7,11.8
		h-6.3L400.6,236.3z"/>
	<path class="st0" d="M421.4,217.5c-1.8,0.1-3.4-1.4-3.4-3.2c0-0.1,0-0.1,0-0.2c0.1-2.2,1.9-4,4.1-4c1.7-0.1,3.2,1.3,3.3,3.1
		c0,0.1,0,0.2,0,0.3C425.4,215.7,423.6,217.5,421.4,217.5C421.4,217.5,421.4,217.5,421.4,217.5z M418.7,229.8c0-2.6-0.2-5.3-0.6-7.9
		l5.9-0.7l0.7,0.7v23.5h-6V229.8z"/>
	<path class="st0" d="M449.4,227.6c-1.6-1.2-3.6-1.9-5.6-2c-3.5,0-5.9,2.7-5.9,7.6c0,5.2,2.5,8.4,6.8,8.4c1.9-0.1,3.7-0.6,5.3-1.6
		l0.4,3.9c-2.1,1.4-4.6,2.1-7.2,2c-6.8-0.1-11.4-4.6-11.4-12.1c0-7.7,4.9-12.6,11.8-12.6c2.5-0.1,4.9,0.6,7.1,1.8L449.4,227.6z"/>
	<path class="st0" d="M465.7,245.8c-6.1,0-10.6-4.3-10.6-12c0-8.1,5-12.6,11.3-12.6s10.7,4.7,10.7,12.2
		C477,241.7,471.7,245.8,465.7,245.8z M466,242.3c3.2,0,4.8-3.2,4.8-8.6c0-5.5-1.4-8.9-4.8-8.9c-3,0-4.9,2.9-4.9,8.6
		C461.2,238.8,462.6,242.3,466,242.3L466,242.3z"/>
	<polygon class="st1" points="219.3,60.6 191.4,60.6 205.3,84.7 168.2,149 196.1,149 233.2,84.7 	"/>
	<polygon class="st1" points="112.5,181.1 126.4,205.3 140.4,181.2 214.6,181.2 200.7,157.1 126.4,157.1 	"/>
	<polygon class="st0" points="288.8,181.2 302.8,157.1 275,157.1 237.8,92.7 223.9,116.9 261,181.2 	"/>
	<polygon class="st1" points="270.1,213.5 284,189.4 256.2,189.4 219.1,125.1 205.1,149.2 242.3,213.5 	"/>
	<polygon class="st0" points="182.1,60.6 154.3,60.6 168.2,84.7 131.1,149 158.9,149 196.1,84.7 	"/>
	<polygon class="st0" points="131.1,213.5 145,237.6 158.9,213.5 233.2,213.5 219.2,189.4 145,189.4 	"/>
</g>
</svg>
