<?xml version="1.0" encoding="utf-8"?>
<!-- Generator: Adobe Illustrator 25.4.1, SVG Export Plug-In . SVG Version: 6.00 Build 0)  -->
<svg version="1.1" id="Layer_1" xmlns="http://www.w3.org/2000/svg" xmlns:xlink="http://www.w3.org/1999/xlink" x="0px" y="0px"
	 viewBox="0 0 516.6 162.2" style="enable-background:new 0 0 516.6 162.2;" xml:space="preserve">
<style type="text/css">
	.st0{fill:#FFFFFF;}
	.st1{fill:#001E61;}
	.st2{fill:#CE0E2D;}
</style>
<g>
	<g>
		<path class="st1" d="M198.9,133.4c2.1,2,3.2,4.3,3.5,6.9h-4c-0.4-1.9-1.3-3.5-2.7-4.6c-1.3-1.1-3.2-1.7-5.6-1.7
			c-2.9,0-5.3,1-7.1,3.1c-1.8,2.1-2.7,5.3-2.7,9.6c0,3.5,0.8,6.4,2.4,8.6c1.6,2.2,4,3.3,7.3,3.3c3,0,5.2-1.2,6.8-3.5
			c0.8-1.2,1.4-2.8,1.8-4.8h4c-0.4,3.2-1.5,5.8-3.5,8c-2.4,2.6-5.6,3.9-9.6,3.9c-3.5,0-6.4-1.1-8.7-3.2c-3.1-2.8-4.7-7.2-4.7-13
			c0-4.5,1.2-8.1,3.5-11c2.5-3.1,6-4.6,10.4-4.6C193.9,130.4,196.8,131.4,198.9,133.4z"/>
		<path class="st1" d="M212.5,139.4V154c0,1.1,0.2,2,0.5,2.8c0.6,1.3,1.8,2,3.6,2c2.5,0,4.2-1.2,5.1-3.5c0.5-1.2,0.7-2.9,0.7-5.1
			v-10.8h3.7v22h-3.5l0-3.3c-0.5,0.8-1.1,1.5-1.8,2.1c-1.4,1.2-3.1,1.7-5,1.7c-3.1,0-5.2-1.1-6.3-3.1c-0.6-1.1-0.9-2.6-0.9-4.5v-15
			H212.5z"/>
		<path class="st1" d="M247.1,140c1.5,0.7,2.6,1.7,3.3,2.9c0.7,1.1,1.2,2.4,1.5,3.9c0.2,1,0.3,2.6,0.3,4.9h-16
			c0.1,2.2,0.6,4,1.6,5.4c1,1.4,2.5,2,4.5,2c1.9,0,3.5-0.6,4.6-1.9c0.6-0.7,1.1-1.6,1.4-2.6h3.6c-0.1,0.8-0.4,1.7-1,2.7
			c-0.5,1-1.1,1.8-1.8,2.4c-1.1,1.1-2.5,1.8-4.1,2.2c-0.9,0.2-1.9,0.3-3,0.3c-2.7,0-5-1-6.9-3c-1.9-2-2.8-4.8-2.8-8.4
			c0-3.5,1-6.4,2.9-8.6c1.9-2.2,4.4-3.3,7.5-3.3C244.2,138.9,245.7,139.3,247.1,140z M248.4,148.7c-0.2-1.6-0.5-2.9-1-3.8
			c-1-1.8-2.7-2.7-5-2.7c-1.7,0-3.1,0.6-4.2,1.8c-1.1,1.2-1.7,2.8-1.8,4.7H248.4z"/>
		<path class="st1" d="M258.3,139.4h3.5v3.8c0.3-0.7,1-1.6,2.1-2.7c1.1-1.1,2.4-1.6,3.9-1.6c0.1,0,0.2,0,0.4,0c0.2,0,0.4,0,0.8,0.1
			v3.9c-0.2,0-0.4-0.1-0.6-0.1c-0.2,0-0.4,0-0.6,0c-1.9,0-3.3,0.6-4.3,1.8c-1,1.2-1.5,2.6-1.5,4.1v12.7h-3.7V139.4z"/>
		<path class="st1" d="M273.6,139.4h3.5v3.1c1-1.3,2.1-2.2,3.3-2.8c1.2-0.6,2.5-0.8,3.9-0.8c3.1,0,5.2,1.1,6.3,3.3
			c0.6,1.2,0.9,2.9,0.9,5.1v14.1h-3.8v-13.9c0-1.3-0.2-2.4-0.6-3.3c-0.7-1.4-1.9-2.1-3.6-2.1c-0.9,0-1.6,0.1-2.2,0.3
			c-1,0.3-1.9,0.9-2.7,1.8c-0.6,0.7-1,1.5-1.2,2.3c-0.2,0.8-0.3,1.9-0.3,3.3v11.5h-3.7V139.4z"/>
		<path class="st1" d="M310.1,148.1c0.9-0.1,1.4-0.5,1.7-1.1c0.2-0.3,0.2-0.8,0.2-1.4c0-1.3-0.4-2.2-1.3-2.8
			c-0.9-0.6-2.2-0.9-3.8-0.9c-1.9,0-3.3,0.5-4.1,1.6c-0.5,0.6-0.7,1.4-0.9,2.6h-3.5c0.1-2.7,0.9-4.6,2.6-5.7
			c1.7-1.1,3.7-1.6,5.9-1.6c2.6,0,4.7,0.5,6.3,1.5c1.6,1,2.4,2.5,2.4,4.6v12.7c0,0.4,0.1,0.7,0.2,0.9c0.2,0.2,0.5,0.3,1,0.3
			c0.2,0,0.4,0,0.6,0c0.2,0,0.4,0,0.7-0.1v2.7c-0.6,0.2-1,0.3-1.3,0.3c-0.3,0-0.7,0.1-1.2,0.1c-1.3,0-2.2-0.4-2.8-1.4
			c-0.3-0.5-0.5-1.2-0.6-2c-0.8,1-1.8,1.8-3.2,2.6c-1.4,0.7-3,1.1-4.7,1.1c-2,0-3.7-0.6-5-1.9c-1.3-1.2-1.9-2.8-1.9-4.7
			c0-2,0.6-3.6,1.9-4.7c1.3-1.1,2.9-1.8,5-2.1L310.1,148.1z M302.3,158.1c0.8,0.6,1.7,0.9,2.8,0.9c1.3,0,2.6-0.3,3.8-0.9
			c2.1-1,3.1-2.6,3.1-4.9v-3c-0.4,0.3-1,0.5-1.7,0.7c-0.7,0.2-1.4,0.3-2.1,0.4l-2.2,0.3c-1.3,0.2-2.4,0.5-3,0.8
			c-1.1,0.6-1.7,1.7-1.7,3.1C301.1,156.7,301.5,157.5,302.3,158.1z"/>
		<path class="st1" d="M324.9,139.4l5.9,17.9l6.1-17.9h4.1l-8.3,22h-3.9l-8.1-22H324.9z"/>
		<path class="st1" d="M357.2,148.1c0.9-0.1,1.4-0.5,1.7-1.1c0.2-0.3,0.2-0.8,0.2-1.4c0-1.3-0.4-2.2-1.3-2.8
			c-0.9-0.6-2.2-0.9-3.8-0.9c-1.9,0-3.3,0.5-4.1,1.6c-0.5,0.6-0.7,1.4-0.9,2.6h-3.5c0.1-2.7,0.9-4.6,2.6-5.7
			c1.7-1.1,3.7-1.6,5.9-1.6c2.6,0,4.7,0.5,6.3,1.5c1.6,1,2.4,2.5,2.4,4.6v12.7c0,0.4,0.1,0.7,0.2,0.9c0.2,0.2,0.5,0.3,1,0.3
			c0.2,0,0.4,0,0.6,0c0.2,0,0.4,0,0.7-0.1v2.7c-0.6,0.2-1,0.3-1.3,0.3c-0.3,0-0.7,0.1-1.2,0.1c-1.3,0-2.2-0.4-2.8-1.4
			c-0.3-0.5-0.5-1.2-0.6-2c-0.8,1-1.8,1.8-3.2,2.6c-1.4,0.7-3,1.1-4.7,1.1c-2,0-3.7-0.6-5-1.9c-1.3-1.2-1.9-2.8-1.9-4.7
			c0-2,0.6-3.6,1.9-4.7c1.3-1.1,2.9-1.8,5-2.1L357.2,148.1z M349.4,158.1c0.8,0.6,1.7,0.9,2.8,0.9c1.3,0,2.6-0.3,3.8-0.9
			c2.1-1,3.1-2.6,3.1-4.9v-3c-0.4,0.3-1,0.5-1.7,0.7c-0.7,0.2-1.4,0.3-2.1,0.4l-2.2,0.3c-1.3,0.2-2.4,0.5-3,0.8
			c-1.1,0.6-1.7,1.7-1.7,3.1C348.2,156.7,348.6,157.5,349.4,158.1z"/>
		<path class="st1" d="M384.7,140.6c1.6,1.2,2.5,3.3,2.8,6.2h-3.6c-0.2-1.4-0.7-2.5-1.5-3.4c-0.8-0.9-2-1.3-3.8-1.3
			c-2.4,0-4,1.2-5.1,3.5c-0.7,1.5-1,3.3-1,5.5c0,2.2,0.5,4.1,1.4,5.6c0.9,1.5,2.4,2.3,4.4,2.3c1.5,0,2.8-0.5,3.7-1.4
			c0.9-0.9,1.5-2.2,1.9-3.8h3.6c-0.4,2.9-1.4,5.1-3.1,6.4c-1.6,1.4-3.8,2-6.3,2c-2.9,0-5.2-1.1-6.9-3.2c-1.7-2.1-2.6-4.7-2.6-7.9
			c0-3.9,0.9-6.9,2.8-9c1.9-2.2,4.3-3.2,7.2-3.2C381.1,138.8,383.1,139.4,384.7,140.6z"/>
		<path class="st1" d="M404.3,148.1c0.9-0.1,1.4-0.5,1.7-1.1c0.2-0.3,0.2-0.8,0.2-1.4c0-1.3-0.4-2.2-1.3-2.8
			c-0.9-0.6-2.2-0.9-3.8-0.9c-1.9,0-3.3,0.5-4.1,1.6c-0.5,0.6-0.7,1.4-0.9,2.6h-3.5c0.1-2.7,0.9-4.6,2.6-5.7
			c1.7-1.1,3.7-1.6,5.9-1.6c2.6,0,4.7,0.5,6.3,1.5c1.6,1,2.4,2.5,2.4,4.6v12.7c0,0.4,0.1,0.7,0.2,0.9c0.2,0.2,0.5,0.3,1,0.3
			c0.2,0,0.4,0,0.6,0c0.2,0,0.4,0,0.7-0.1v2.7c-0.6,0.2-1,0.3-1.3,0.3c-0.3,0-0.7,0.1-1.2,0.1c-1.3,0-2.2-0.4-2.8-1.4
			c-0.3-0.5-0.5-1.2-0.6-2c-0.8,1-1.8,1.8-3.2,2.6c-1.4,0.7-3,1.1-4.7,1.1c-2,0-3.7-0.6-5-1.9c-1.3-1.2-1.9-2.8-1.9-4.7
			c0-2,0.6-3.6,1.9-4.7c1.3-1.1,2.9-1.8,5-2.1L404.3,148.1z M396.5,158.1c0.8,0.6,1.7,0.9,2.8,0.9c1.3,0,2.6-0.3,3.8-0.9
			c2.1-1,3.1-2.6,3.1-4.9v-3c-0.5,0.3-1,0.5-1.7,0.7c-0.7,0.2-1.4,0.3-2.1,0.4l-2.2,0.3c-1.3,0.2-2.4,0.5-3,0.8
			c-1.1,0.6-1.7,1.7-1.7,3.1C395.3,156.7,395.7,157.5,396.5,158.1z"/>
	</g>
	<g>
		<g>
			<polygon class="st2" points="133.1,130.1 144.9,109.6 121.4,109.6 90,54.8 78.3,75.3 109.6,130.1 			"/>
			<polygon class="st2" points="90,0 66.6,0 78.3,20.5 47,75.4 70.5,75.4 101.8,20.5 			"/>
			<polygon class="st2" points="0,102.7 11.7,123.3 23.4,102.8 86.1,102.8 74.4,82.2 11.7,82.2 			"/>
			<polygon class="st1" points="148.8,102.7 160.5,82.2 137,82.2 105.7,27.4 94,47.9 125.3,102.7 			"/>
			<polygon class="st1" points="58.7,0 35.2,0 47,20.5 15.6,75.3 39.1,75.3 70.5,20.5 			"/>
			<polygon class="st1" points="15.6,130.1 27.4,150.7 39.1,130.1 101.8,130.1 90,109.6 27.4,109.6 			"/>
		</g>
		<g>
			<g>
				<path class="st1" d="M502.6,98.3h4c0.6,0,1.8,0,2.6,0.6c0.9,0.5,1.3,1.4,1.3,2.3c0,0.8-0.3,1.5-0.8,2c-0.5,0.5-1,0.6-1.3,0.7
					c1.1,0.3,1.6,0.8,1.7,2.2c0.2,1.3,0.3,2.3,0.7,3.6h-1.7c-0.3-0.7-0.4-2.1-0.5-3c-0.2-1.7-0.6-2.1-2.5-2.1h-2v5.1h-1.6V98.3
					 M504.1,103.2h2.4c0.2,0,1.1,0,1.5-0.2c0.2-0.2,0.8-0.6,0.8-1.5c0-1.8-1.6-1.8-2.3-1.8h-2.4V103.2z"/>
				<path class="st1" d="M515.8,104c0,5.1-4.1,9.2-9.1,9.2c-5,0-9.1-4.1-9.1-9.2c0-5.1,4.1-9.2,9.1-9.2
					C511.7,94.8,515.8,99,515.8,104z M506.7,94c-5.5,0-9.9,4.5-9.9,10c0,5.5,4.4,10,9.9,10c5.5,0,9.9-4.5,9.9-10
					C516.6,98.5,512.1,94,506.7,94z"/>
				<path class="st1" d="M177.6,42.1h9.4v63.7h37.6v8h-47V42.1z"/>
				<path class="st1" d="M277,113.6c-1.5,0.9-3.4,1.4-6.1,1.4c-4.4,0-7.2-2.4-7.2-8c-4.7,5.5-10.9,8-18.1,8c-9.4,0-17-4.2-17-14.6
					c0-11.7,8.7-14.3,17.4-16c9.4-1.8,17.3-1.2,17.3-7.6c0-7.4-6.1-8.6-11.5-8.6c-7.2,0-12.4,2.2-12.8,9.8h-8.4
					c0.5-12.8,10.3-17.4,21.8-17.4c9.2,0,19.3,2.1,19.3,14.3v26.7c0,4,0,5.8,2.7,5.8c0.7,0,1.5-0.1,2.6-0.5V113.6z M263.3,87
					c-3.3,2.4-9.6,2.5-15.3,3.5c-5.5,1-10.3,3-10.3,9.3c0,5.6,4.8,7.6,9.9,7.6c11.1,0,15.7-7,15.7-11.8V87z"/>
				<path class="st1" d="M337.6,63.1c-1.1-10.3-7.8-14.7-17.6-14.7c-7.9,0-15.9,2.9-15.9,12.3c0,8.8,11.3,10.1,22.8,12.8
					c11.3,2.6,22.7,6.6,22.7,20.7c0,15.3-14.8,21.4-27.8,21.4c-15.9,0-29.3-7.8-29.3-25.3h9c0,12.1,9.9,17.3,20.7,17.3
					c8.5,0,18-2.7,18-13.1c0-9.8-11.4-11.6-22.7-14.1c-11.4-2.5-22.8-5.8-22.8-19c0-14.6,12.8-21,25.8-21c14.6,0,25.6,6.9,26.2,22.7
					H337.6z"/>
				<path class="st1" d="M401.9,113.6c-1.5,0.9-3.4,1.4-6.1,1.4c-4.4,0-7.1-2.4-7.1-8c-4.7,5.5-10.9,8-18.1,8c-9.3,0-17-4.2-17-14.6
					c0-11.7,8.7-14.3,17.4-16c9.3-1.8,17.3-1.2,17.3-7.6c0-7.4-6.1-8.6-11.5-8.6c-7.2,0-12.4,2.2-12.8,9.8h-8.5
					c0.5-12.8,10.4-17.4,21.8-17.4c9.2,0,19.3,2.1,19.3,14.3v26.7c0,4,0,5.8,2.7,5.8c0.7,0,1.5-0.1,2.6-0.5V113.6z M388.2,87
					c-3.3,2.4-9.7,2.5-15.3,3.5c-5.6,1-10.3,3-10.3,9.3c0,5.6,4.8,7.6,9.9,7.6c11.2,0,15.8-7,15.8-11.8V87z"/>
				<path class="st1" d="M408.4,42.1h8.4v71.7h-8.4V42.1z"/>
				<path class="st1" d="M427.5,42.1h8.5v71.7h-8.5V42.1z"/>
				<path class="st1" d="M489.5,97.3c-2.3,11.4-10.5,17.7-22,17.7c-16.4,0-24.2-11.4-24.7-27.3c0-15.6,10.1-27,24.2-27
					c18.2,0,23.8,17.2,23.3,29.7h-38.5c-0.3,9,4.8,17.1,16,17.1c7,0,11.8-3.4,13.3-10.1H489.5z M481.3,82.9
					c-0.4-8.1-6.5-14.7-14.8-14.7c-8.8,0-14.1,6.7-14.7,14.7H481.3z"/>
			</g>
		</g>
		<g>
			<path class="st1" d="M181.6,0.7v18.5c0,2.2,0.4,4,1.2,5.4c1.2,2.2,3.3,3.3,6.1,3.3c3.5,0,5.8-1.2,7.1-3.5c0.7-1.3,1-3,1-5.1V0.7
				h4.1v16.8c0,3.7-0.5,6.5-1.5,8.5c-1.8,3.6-5.3,5.4-10.3,5.4c-5.1,0-8.5-1.8-10.3-5.4c-1-2-1.5-4.8-1.5-8.5V0.7H181.6z"/>
			<path class="st1" d="M215.2,8.8h3.5v3.1c1-1.3,2.1-2.2,3.3-2.7c1.2-0.6,2.4-0.8,3.8-0.8c3.1,0,5.2,1.1,6.3,3.2
				c0.6,1.2,0.9,2.9,0.9,5.1v14h-3.7V16.8c0-1.3-0.2-2.4-0.6-3.2c-0.7-1.4-1.8-2-3.5-2c-0.9,0-1.6,0.1-2.1,0.3
				c-1,0.3-1.9,0.9-2.6,1.8c-0.6,0.7-1,1.5-1.2,2.2c-0.2,0.8-0.3,1.9-0.3,3.3v11.4h-3.7V8.8z"/>
			<path class="st1" d="M246.7,0.7h3.7v4.1h-3.7V0.7z M246.7,8.9h3.7v21.7h-3.7V8.9z"/>
			<path class="st1" d="M266,8.8l5.8,17.7l6.1-17.7h4l-8.2,21.8h-3.9l-8-21.8H266z"/>
			<path class="st1" d="M306.8,9.4c1.4,0.7,2.5,1.7,3.3,2.8c0.7,1.1,1.2,2.4,1.5,3.8c0.2,1,0.3,2.6,0.3,4.8h-15.8
				c0.1,2.2,0.6,4,1.6,5.3c1,1.3,2.5,2,4.5,2c1.9,0,3.4-0.6,4.5-1.9c0.6-0.7,1.1-1.6,1.3-2.6h3.6c-0.1,0.8-0.4,1.7-0.9,2.7
				c-0.5,1-1.1,1.8-1.8,2.4c-1.1,1.1-2.5,1.8-4.1,2.2c-0.9,0.2-1.9,0.3-3,0.3c-2.7,0-5-1-6.8-3c-1.9-2-2.8-4.7-2.8-8.3
				c0-3.5,0.9-6.3,2.8-8.5c1.9-2.2,4.4-3.3,7.4-3.3C303.9,8.3,305.4,8.7,306.8,9.4z M308.2,17.9c-0.2-1.6-0.5-2.9-1-3.8
				c-1-1.8-2.7-2.6-5-2.6c-1.7,0-3.1,0.6-4.2,1.8c-1.1,1.2-1.7,2.8-1.8,4.6H308.2z"/>
			<path class="st1" d="M325,8.8h3.5v3.8c0.3-0.7,1-1.6,2.1-2.7c1.1-1.1,2.4-1.6,3.8-1.6c0.1,0,0.2,0,0.3,0c0.2,0,0.4,0,0.8,0.1v3.9
				c-0.2,0-0.4-0.1-0.6-0.1c-0.2,0-0.4,0-0.6,0c-1.8,0-3.3,0.6-4.2,1.8c-1,1.2-1.5,2.6-1.5,4.1v12.5H325V8.8z"/>
			<path class="st1" d="M349.3,23.7c0.1,1.2,0.4,2.2,0.9,2.8c0.9,1.2,2.6,1.8,4.9,1.8c1.4,0,2.6-0.3,3.7-0.9
				c1.1-0.6,1.6-1.5,1.6-2.7c0-0.9-0.4-1.6-1.3-2.1c-0.5-0.3-1.6-0.6-3.2-1l-3-0.7c-1.9-0.5-3.3-1-4.2-1.5c-1.6-1-2.4-2.4-2.4-4.1
				c0-2.1,0.8-3.7,2.3-5c1.5-1.3,3.5-1.9,6.1-1.9c3.3,0,5.7,1,7.2,2.9c0.9,1.2,1.4,2.5,1.3,3.9h-3.5c-0.1-0.8-0.4-1.6-0.9-2.2
				c-0.9-1-2.4-1.4-4.5-1.4c-1.4,0-2.5,0.3-3.2,0.8c-0.7,0.5-1.1,1.2-1.1,2.1c0,0.9,0.5,1.7,1.4,2.3c0.6,0.3,1.4,0.6,2.4,0.9
				l2.5,0.6c2.7,0.6,4.5,1.3,5.4,1.9c1.4,0.9,2.1,2.4,2.1,4.4c0,1.9-0.7,3.6-2.2,5c-1.5,1.4-3.8,2.1-6.8,2.1c-3.3,0-5.6-0.7-7-2.2
				c-1.4-1.5-2.1-3.3-2.2-5.5H349.3z"/>
			<path class="st1" d="M376.2,0.7h3.7v4.1h-3.7V0.7z M376.2,8.9h3.7v21.7h-3.7V8.9z"/>
			<path class="st1" d="M405.8,9.5c0.6,0.4,1.4,1.1,2.2,2.1v-11h3.5v30h-3.3v-3c-0.9,1.3-1.9,2.3-3,2.9c-1.2,0.6-2.5,0.9-4,0.9
				c-2.4,0-4.5-1-6.3-3.1c-1.8-2-2.7-4.8-2.7-8.1c0-3.2,0.8-5.9,2.4-8.2c1.6-2.3,3.9-3.5,6.9-3.5C403.3,8.4,404.6,8.8,405.8,9.5z
				 M397.6,25.8c1,1.6,2.6,2.4,4.7,2.4c1.7,0,3.1-0.7,4.2-2.2c1.1-1.5,1.6-3.5,1.6-6.3c0-2.8-0.6-4.8-1.7-6.1c-1.1-1.3-2.5-2-4.1-2
				c-1.8,0-3.3,0.7-4.5,2.1c-1.1,1.4-1.7,3.5-1.7,6.2C396.1,22.3,396.6,24.2,397.6,25.8z"/>
			<path class="st1" d="M437,17.4c0.8-0.1,1.4-0.5,1.7-1.1c0.2-0.3,0.2-0.8,0.2-1.4c0-1.3-0.4-2.2-1.3-2.7c-0.9-0.6-2.2-0.8-3.8-0.8
				c-1.9,0-3.3,0.5-4.1,1.6c-0.4,0.6-0.7,1.4-0.9,2.6h-3.4c0.1-2.7,0.9-4.6,2.6-5.6c1.7-1.1,3.6-1.6,5.8-1.6c2.6,0,4.6,0.5,6.2,1.5
				c1.6,1,2.4,2.5,2.4,4.6v12.5c0,0.4,0.1,0.7,0.2,0.9c0.2,0.2,0.5,0.3,1,0.3c0.2,0,0.3,0,0.6,0c0.2,0,0.4,0,0.7-0.1v2.7
				c-0.6,0.2-1,0.3-1.3,0.3c-0.3,0-0.7,0.1-1.2,0.1c-1.3,0-2.2-0.4-2.7-1.3c-0.3-0.5-0.5-1.1-0.6-2c-0.7,1-1.8,1.8-3.2,2.5
				c-1.4,0.7-2.9,1.1-4.6,1.1c-2,0-3.7-0.6-5-1.8c-1.3-1.2-1.9-2.8-1.9-4.6c0-2,0.6-3.6,1.9-4.7c1.3-1.1,2.9-1.8,5-2.1L437,17.4z
				 M429.3,27.3c0.8,0.6,1.7,0.9,2.7,0.9c1.3,0,2.5-0.3,3.7-0.9c2-1,3-2.6,3-4.9v-2.9c-0.4,0.3-1,0.5-1.7,0.7
				c-0.7,0.2-1.4,0.3-2.1,0.4l-2.2,0.3c-1.3,0.2-2.3,0.5-3,0.8c-1.1,0.6-1.7,1.7-1.7,3C428.1,25.8,428.5,26.7,429.3,27.3z"/>
			<path class="st1" d="M468.7,9.5c0.6,0.4,1.4,1.1,2.2,2.1v-11h3.5v30h-3.3v-3c-0.9,1.3-1.9,2.3-3,2.9c-1.2,0.6-2.5,0.9-4,0.9
				c-2.4,0-4.5-1-6.3-3.1c-1.8-2-2.7-4.8-2.7-8.1c0-3.2,0.8-5.9,2.4-8.2c1.6-2.3,3.9-3.5,6.9-3.5C466.2,8.4,467.6,8.8,468.7,9.5z
				 M460.6,25.8c1,1.6,2.6,2.4,4.7,2.4c1.7,0,3.1-0.7,4.2-2.2c1.1-1.5,1.6-3.5,1.6-6.3c0-2.8-0.6-4.8-1.7-6.1c-1.1-1.3-2.5-2-4.1-2
				c-1.8,0-3.3,0.7-4.5,2.1c-1.1,1.4-1.7,3.5-1.7,6.2C459.1,22.3,459.6,24.2,460.6,25.8z"/>
		</g>
	</g>
</g>
</svg>
