<?xml version="1.0" encoding="utf-8"?>
<!-- Generator: Adobe Illustrator 22.1.0, SVG Export Plug-In . SVG Version: 6.00 Build 0)  -->
<svg version="1.1" id="Capa_1" xmlns="http://www.w3.org/2000/svg" xmlns:xlink="http://www.w3.org/1999/xlink" x="0px" y="0px"
	 viewBox="0 0 1100 619" style="enable-background:new 0 0 1100 619;" xml:space="preserve">
<style type="text/css">
	.st0{fill:#006AB0;}
	.st1{fill-rule:evenodd;clip-rule:evenodd;fill:#006AB0;}
	.st2{fill-rule:evenodd;clip-rule:evenodd;fill:#00A688;}
</style>
<g>
	<path class="st0" d="M873.7,333.5c-9.5,0-17.2-8-17.2-17.7s7.7-17.7,17.2-17.7c9.5,0,17.2,8,17.2,17.7S883.3,333.5,873.7,333.5
		 M873.7,300.7c-8.1,0-14.7,6.8-14.7,15.1c0,8.3,6.6,15.1,14.7,15.1c8.1,0,14.7-6.8,14.7-15.1C888.4,307.5,881.8,300.7,873.7,300.7"
		/>
	<path class="st0" d="M873.4,315.8c-0.1-1.2-0.1-2.7-0.1-3.8h0c-0.3,1-0.7,2.1-1.1,3.4l-1.6,4.3h-0.9l-1.4-4.2
		c-0.4-1.3-0.8-2.4-1-3.5h0c0,1.1-0.1,2.6-0.2,3.9l-0.2,3.8h-1.1l0.6-8.9h1.5l1.5,4.3c0.4,1.1,0.7,2.1,0.9,3h0
		c0.2-0.9,0.5-1.9,0.9-3l1.6-4.3h1.5l0.6,8.9h-1.1L873.4,315.8z"/>
	<path class="st0" d="M876.5,310.9c0.6-0.1,1.4-0.2,2.2-0.2c1.2,0,2,0.2,2.6,0.7c0.4,0.4,0.7,1,0.7,1.7c0,1.2-0.7,1.9-1.7,2.3v0
		c0.7,0.2,1.1,0.9,1.3,1.8c0.3,1.2,0.5,2.1,0.7,2.4h-1.2c-0.1-0.2-0.3-1-0.6-2.1c-0.3-1.2-0.7-1.7-1.8-1.7h-1.1v3.8h-1.1V310.9z
		 M877.7,315h1.2c1.2,0,2-0.7,2-1.7c0-1.1-0.8-1.6-2-1.7c-0.6,0-1,0.1-1.1,0.1V315z"/>
	<path class="st1" d="M425.9,349.1H274.5c-20.3,0-36.7-16.8-36.7-37.4v-53.1l-72.6,52.7v68.8c0-0.4,0,0,0,0
		c0,23.9,18.9,43.8,42.4,43.8h284.5c23.6,0,42.5-19.8,42.5-43.8V43.3L462.2,96v215.7C462.2,332.3,445.8,349.1,425.9,349.1"/>
	<path class="st1" d="M556.7,380.1V42.9l72.6,74.8v193.7c0,20.6,16.3,37.4,36.3,37.4h188l72.9,75.2H598.8
		C575.6,423.9,556.7,404.1,556.7,380.1"/>
	<path class="st2" d="M717.2,244.3v-35.9l-72.6-74.8v161.9c0,21,16.3,37.8,36.3,37.8h157.5l-73-75.1h-34.8
		C723,258.2,717.2,251.8,717.2,244.3"/>
	<path class="st2" d="M325.9,244.6v-49.7l-72.6,52.7v48.2c0,20.6,16.3,37.4,36.3,37.4h121.2c20,0,36.3-16.8,36.3-37.4V106.7
		l-72.6,52.7v85.2c0,7.5-6.2,13.9-13.8,13.9h-21.1C332.1,258.5,325.9,252.1,325.9,244.6"/>
	<polygon class="st1" points="27,428.3 73.7,428.3 73.7,540.4 177.6,540.4 177.6,578.7 27,578.7 	"/>
	<path class="st1" d="M327.8,578.7h-36.5v-16h-1.9c-3.1,6.8-7.9,11.7-14.6,14.5c-6.7,2.8-16.6,4.3-29.7,4.3c-12,0-21.5-1-28.5-3.1
		c-7.1-2.1-12.9-5.5-17.6-10.3c-4.7-5-7.8-10.5-9.2-16.5c-1.5-6-2.2-16.3-2.2-30.8v-48.8h38.7v48.8c0,7.8,0.3,13.3,1,16.6
		c0.7,3.3,2.2,6,4.3,8.2c2.2,2.2,5.1,3.7,8.7,4.5c3.6,0.9,9.1,1.3,16.5,1.3c12.6,0,21.1-2,25.6-5.9c2.8-2.5,4.6-5.7,5.5-9.6
		c0.9-4,1.4-10.9,1.4-20.9v-43h38.7V578.7z"/>
	<path class="st1" d="M444.8,535.8h39.5c-0.4,8.9-1.3,15.7-2.6,20.4c-1.4,4.6-3.7,8.8-7.1,12.2c-5,5.2-11.7,8.7-20.1,10.4
		c-8.4,1.7-22.8,2.6-43.1,2.6c-16,0-27.9-0.7-35.9-2.1c-8-1.4-14.5-4-19.8-7.7c-4.9-3.6-8.4-8.9-10.4-15.7
		c-1.9-6.8-2.9-17.3-2.9-31.4c0-12.9,0.9-22.6,2.7-29.1c1.8-6.5,4.9-11.7,9.5-15.5c5-4.1,11.6-6.9,19.9-8.5
		c8.3-1.5,21.1-2.3,38.7-2.3c17.2,0,30.1,0.8,38.8,2.4c8.8,1.6,15.6,4.5,20.5,8.5c4.1,3.4,7,7.7,8.7,12.7c1.7,5,2.7,12.5,3.1,22.5
		h-39.5c-0.7-6.1-3.3-10.3-7.9-12.6c-4.5-2.3-12.6-3.4-23.9-3.4c-11.5,0-19.5,1.1-24,3.3c-2.8,1.5-4.9,4-6.1,7.6
		c-1.2,3.6-1.8,8.9-1.8,15.8c0,6.8,0.7,11.9,1.9,15.1c1.3,3.2,3.5,5.5,6.8,7c4.8,2.2,12.8,3.3,23.7,3.3c11.4,0,19.2-1,23.5-3.2
		C441.4,546,443.9,541.9,444.8,535.8"/>
	<path class="st1" d="M596.3,544.6h38.6c-1.1,11.6-4.5,19.9-10.3,25c-5,4.5-12,7.6-21.2,9.3c-9.1,1.7-22.8,2.6-41.1,2.6
		c-15,0-26.6-0.8-34.6-2.2c-8.1-1.5-14.5-4.1-19.2-7.8c-5-3.9-8.4-9.1-10.2-15.6c-1.9-6.5-2.8-16.5-2.8-30c0-10.2,0.4-17.7,1.1-22.9
		c0.7-5.1,2.1-9.7,4.1-13.8c4.1-8.5,11.6-14.1,22.4-16.6c9.3-2.2,23.7-3.3,43.2-3.3c17.2,0,29.4,0.6,36.5,1.9
		c12.5,2.2,21.2,7,25.9,14.5c4.7,7.4,7.1,20,7.1,37.6c0,1.7-0.1,5.3-0.2,10.8H534.3c0,5.4,0.3,9.3,1,11.7c0.7,2.3,2,4.3,4,5.8
		c3.9,2.9,12.6,4.4,26.1,4.4c8.7,0,15.1-0.3,19.4-1.1c4.3-0.7,7.3-1.8,8.8-3.5C594.9,550.1,595.8,547.8,596.3,544.6 M596.8,512.2
		c-0.1-4.2-0.4-7.1-0.8-8.7c-0.4-1.6-1.2-3-2.3-4.2c-3.4-3.5-12.3-5.3-26.9-5.3c-13,0-21.7,1.2-25.9,3.5c-4.2,2.3-6.4,7.2-6.7,14.7
		H596.8z"/>
	<path class="st1" d="M650.3,471.9h36.5V488h1.9c3.7-6.9,8.5-11.7,14.6-14.6c6.1-2.9,14.6-4.3,25.5-4.3c15.6,0,26.5,3.2,32.6,9.5
		c6.1,6.3,9.2,17.5,9.2,33.6c0,0.9-0.1,3.3-0.2,7.1h-36.5c0-6.2-0.6-10.6-1.9-13.1c-2.5-4.7-8.7-7-18.5-7c-9.2,0-15.7,2.5-19.6,7.7
		c-2,2.6-3.3,5.8-3.9,9.5c-0.7,3.8-1,9.8-1,17.9v44.3h-38.7V471.9z"/>
	<path class="st1" d="M781.1,471.9h36.5v16.3h2c3.5-7,8.6-11.9,15.3-14.8c6.6-2.9,16.2-4.3,28.7-4.3c12.4,0,22.2,1,29.3,3.1
		c7.1,2,12.9,5.5,17.5,10.4c4.7,5,7.8,10.5,9.3,16.6c1.4,6,2.2,16.3,2.2,31v48.5H883v-48.5c0-8.6-0.3-14.4-0.9-17.4
		c-0.6-3.1-1.9-5.6-4-7.8c-3.8-3.8-12.4-5.7-26-5.7c-13.4,0-22.3,2.3-26.6,7c-2.4,2.6-3.9,5.8-4.6,9.5c-0.7,3.8-1.1,10.5-1.1,20.3
		v42.6h-38.7V471.9z"/>
	<path class="st1" d="M978,505.4h-38.6c0.5-8.3,2.2-14.6,5.1-18.8c4.6-6.8,11.8-11.5,21.6-13.9c9.7-2.4,26.2-3.6,49.3-3.6
		c17.1,0,28.7,0.7,34.9,2c6.2,1.3,11.5,4.2,15.8,8.7c3.4,3.5,5.8,7.8,7,12.7c1.2,4.9,1.8,12.3,1.8,22v64.2h-37.2v-14.6h-1.8
		c-2.8,6.2-7.4,10.6-13.6,13.4c-3.3,1.5-7.9,2.5-13.8,3c-5.9,0.6-15.3,0.8-28.2,0.8c-10.5,0-18.4-0.7-24.1-2
		c-5.6-1.3-10.1-3.7-13.6-7c-5-4.9-7.5-13-7.5-24.2c0-12.4,3-21.3,8.9-26.9c4.7-4.3,10.9-7.2,18.6-8.5c7.7-1.3,21.9-2,42.5-2
		c8.9,0,15.3,0.5,19.1,1.6c3.8,1,7.2,3.3,10.2,6.8h1.7v-5.6c0-8.4-1.5-13.6-4.5-15.8c-3-2.1-10.4-3.2-22.1-3.2
		c-13.9,0-22.5,0.5-25.8,1.7C980.6,497.5,978.7,500.5,978,505.4 M1003.9,533.7c-13,0-21.1,0.8-24.3,2.4c-3.8,1.9-5.7,4.8-5.7,8.7
		c0,4.4,1.9,7.3,5.5,8.8c3.7,1.5,10.8,2.3,21.2,2.3c13.5,0,22.7-0.8,27.6-2.5c4.9-1.7,7.3-4.9,7.3-9.6c0-4.2-2.1-7.2-6.3-8.8
		C1027.3,534.3,1018.9,533.8,1003.9,533.7"/>
	<path class="st0" d="M873.7,332.7c-9.5,0-17.2-8-17.2-17.7c0-9.8,7.7-17.7,17.2-17.7c9.5,0,17.2,8,17.2,17.7
		C891,324.7,883.3,332.7,873.7,332.7 M873.7,299.8c-8.1,0-14.7,6.8-14.7,15.1c0,8.3,6.6,15.1,14.7,15.1c8.1,0,14.7-6.8,14.7-15.1
		C888.4,306.6,881.8,299.8,873.7,299.8"/>
</g>
</svg>
