<?xml version="1.0" encoding="utf-8"?>
<!-- Generator: Adobe Illustrator 23.0.1, SVG Export Plug-In . SVG Version: 6.00 Build 0)  -->
<svg version="1.1" id="Layer_1" xmlns="http://www.w3.org/2000/svg" xmlns:xlink="http://www.w3.org/1999/xlink" x="0px" y="0px"
	 viewBox="0 0 385 143" style="enable-background:new 0 0 385 143;" xml:space="preserve">
<style type="text/css">
	.st0{clip-path:url(#SVGID_2_);fill:none;stroke:#BD1822;stroke-miterlimit:10;}
	.st1{clip-path:url(#SVGID_2_);fill:#9B9A9B;}
	.st2{clip-path:url(#SVGID_2_);fill:#2B2422;}
	.st3{clip-path:url(#SVGID_2_);fill:#12100B;}
	.st4{clip-path:url(#SVGID_2_);fill:#BD1822;}
	.st5{clip-path:url(#SVGID_4_);fill:url(#SVGID_5_);}
	.st6{fill:none;stroke:#000000;}
</style>
<g>
	<defs>
		<rect id="SVGID_1_" width="385" height="143"/>
	</defs>
	<clipPath id="SVGID_2_">
		<use xlink:href="#SVGID_1_"  style="overflow:visible;"/>
	</clipPath>
	<path class="st0" d="M124.95,48.4c-9.39-22.21-31.38-37.79-57.01-37.79c-34.17,0-61.87,27.7-61.87,61.87
		c0,34.17,27.7,61.87,61.87,61.87c24.71,0,46.03-14.48,55.95-35.42"/>
	<path class="st1" d="M116.29,53.53h12.48c2.28,0,4.24,0.32,5.87,0.97c1.63,0.65,2.97,1.53,4.02,2.65c1.04,1.12,1.81,2.43,2.31,3.93
		c0.49,1.5,0.74,3.13,0.74,4.87c0,1.64-0.21,3.17-0.63,4.62c-0.42,1.44-1.05,2.72-1.91,3.82c-0.85,1.1-1.95,1.98-3.28,2.62
		c-1.33,0.65-2.91,0.99-4.73,1.03l11.57,16.76h-5.42L124.21,74.5v-0.23h4.62c2.66,0,4.67-0.72,6.04-2.17
		c1.37-1.44,2.05-3.48,2.05-6.1c0-2.96-0.71-5.16-2.14-6.58c-1.43-1.42-3.64-2.14-6.64-2.14h-7.41V94.8h-4.45V53.53z"/>
	<polygon class="st1" points="152.25,94.8 152.25,53.53 173,53.53 173,57.29 156.7,57.29 156.7,71.2 173,71.2 173,74.96 
		156.7,74.96 156.7,91.03 173,91.03 173,94.8 	"/>
	<path class="st1" d="M206.46,68.69c-0.04-1.37-0.25-2.77-0.63-4.19c-0.38-1.43-0.94-2.73-1.68-3.91c-0.74-1.18-1.69-2.14-2.85-2.88
		c-1.16-0.74-2.56-1.11-4.19-1.11c-6.42,0-9.63,5.85-9.63,17.56c0,5.55,0.85,9.86,2.56,12.94c1.71,3.08,4.07,4.62,7.07,4.62
		c2.96,0,5.2-0.96,6.7-2.88c1.5-1.92,2.35-4.68,2.54-8.29h4.45c0,2.13-0.29,4.09-0.85,5.9c-0.57,1.81-1.43,3.38-2.59,4.73
		c-1.16,1.35-2.61,2.4-4.36,3.16c-1.75,0.76-3.82,1.14-6.21,1.14c-2.32,0-4.36-0.53-6.13-1.6c-1.77-1.06-3.24-2.55-4.42-4.45
		c-1.18-1.9-2.06-4.15-2.65-6.75c-0.59-2.6-0.88-5.44-0.88-8.52c0-3.08,0.29-5.92,0.88-8.52c0.59-2.6,1.48-4.85,2.68-6.76
		c1.2-1.9,2.69-3.38,4.48-4.45c1.79-1.06,3.88-1.6,6.27-1.6c2.28,0,4.27,0.43,5.98,1.28c1.71,0.85,3.14,2.01,4.3,3.48
		c1.16,1.46,2.03,3.15,2.62,5.07c0.59,1.92,0.88,3.93,0.88,6.01H206.46z"/>
	<path class="st2" d="M232.37,94.8V78.71c0-3.47-1.36-5.19-4.09-5.16c-1.81,0-3.14,0.54-4,1.63c-0.86,1.09-1.29,2.41-1.29,3.96V94.8
		h-3.18V71.15H223v3.27h0.09c0.31-1.17,0.96-2.08,1.93-2.73c0.97-0.64,2.29-0.97,3.96-0.97c0.52,0,1.05,0.05,1.59,0.15
		c0.54,0.1,1.07,0.28,1.57,0.54c0.5,0.26,0.97,0.61,1.4,1.05c0.43,0.44,0.8,1.01,1.12,1.7h0.09c0.77-1.23,1.64-2.11,2.6-2.65
		c0.96-0.53,2.2-0.79,3.72-0.79c1,0,1.94,0.13,2.8,0.39c0.86,0.26,1.6,0.67,2.24,1.23c0.63,0.56,1.12,1.3,1.48,2.24
		c0.36,0.93,0.54,2.06,0.54,3.38V94.8h-3.18V78.71c0-3.47-1.36-5.19-4.09-5.16c-1.81,0-3.14,0.54-4,1.63
		c-0.86,1.09-1.29,2.41-1.29,3.96V94.8H232.37z"/>
	<path class="st2" d="M272.83,71.15V94.8h-3.18v-3.27h-0.09c-0.32,1.18-0.96,2.08-1.94,2.73c-0.97,0.65-2.29,0.97-3.96,0.97
		c-1.29,0-2.39-0.19-3.29-0.58c-0.9-0.39-1.64-0.9-2.21-1.55c-0.57-0.64-1-1.4-1.27-2.26c-0.27-0.86-0.41-1.78-0.41-2.75V71.15h3.18
		v16c0,1.72,0.37,3.03,1.12,3.91c0.74,0.89,1.83,1.33,3.27,1.33c0.89,0,1.68-0.15,2.39-0.45c0.7-0.3,1.29-0.71,1.76-1.23
		c0.47-0.52,0.83-1.12,1.08-1.81c0.24-0.69,0.37-1.4,0.37-2.15V71.15H272.83z M261.96,68.65l4.77-6.02h3.31l-5.89,6.02H261.96z"/>
	<path class="st2" d="M292.74,78.03c-0.12-1.43-0.57-2.54-1.36-3.31c-0.79-0.77-1.91-1.16-3.38-1.16c-1.21,0-2.21,0.3-3.01,0.9
		c-0.8,0.6-1.2,1.53-1.2,2.79c0,0.92,0.31,1.62,0.92,2.11c0.62,0.49,1.38,0.89,2.3,1.2c0.92,0.32,1.92,0.61,3.01,0.88
		c1.09,0.27,2.09,0.66,3.01,1.16c0.92,0.5,1.68,1.18,2.3,2.02c0.62,0.84,0.92,2,0.92,3.46c0,1.09-0.19,2.07-0.58,2.95
		c-0.39,0.88-0.94,1.62-1.66,2.24c-0.72,0.62-1.58,1.1-2.6,1.44c-1.02,0.34-2.17,0.52-3.46,0.52c-1.21,0-2.3-0.16-3.29-0.47
		c-0.99-0.32-1.84-0.79-2.56-1.42c-0.72-0.63-1.28-1.4-1.68-2.32c-0.4-0.92-0.6-1.96-0.6-3.14h3.18c0,0.75,0.13,1.4,0.39,1.96
		c0.26,0.56,0.6,1.02,1.03,1.4c0.43,0.37,0.92,0.66,1.48,0.86c0.56,0.2,1.14,0.3,1.74,0.3c1.61,0,2.88-0.31,3.83-0.92
		c0.95-0.62,1.42-1.6,1.42-2.95c0-1.06-0.31-1.86-0.92-2.41c-0.62-0.54-1.38-0.98-2.3-1.31c-0.92-0.33-1.92-0.62-3.01-0.86
		c-1.09-0.24-2.09-0.6-3.01-1.08c-0.92-0.47-1.68-1.14-2.3-2c-0.62-0.86-0.92-2.06-0.92-3.61c0-0.97,0.18-1.86,0.54-2.67
		c0.36-0.8,0.86-1.49,1.51-2.06c0.64-0.57,1.41-1.02,2.3-1.33c0.89-0.32,1.88-0.47,2.97-0.47c2.61,0,4.61,0.62,6,1.87
		c1.39,1.25,2.11,3.06,2.17,5.44H292.74z"/>
	<path class="st2" d="M304.14,63.84h3.18v3.87h-3.18V63.84z M304.14,71.15h3.18V94.8h-3.18V71.15z"/>
	<path class="st2" d="M328.22,79.57c-0.06-0.72-0.18-1.44-0.37-2.17c-0.19-0.73-0.46-1.38-0.82-1.93c-0.36-0.56-0.83-1.02-1.4-1.38
		c-0.57-0.36-1.25-0.54-2.02-0.54c-1.78,0-3.1,0.81-3.96,2.43c-0.86,1.62-1.29,3.95-1.29,6.99c0,3.18,0.49,5.55,1.46,7.09
		c0.97,1.55,2.24,2.32,3.78,2.32c0.8,0,1.49-0.15,2.06-0.45c0.57-0.3,1.05-0.72,1.42-1.25c0.37-0.53,0.67-1.15,0.88-1.85
		c0.21-0.7,0.38-1.46,0.49-2.26h3.14c-0.11,1.29-0.34,2.47-0.69,3.53c-0.34,1.06-0.84,1.97-1.48,2.73
		c-0.65,0.76-1.46,1.35-2.45,1.76c-0.99,0.42-2.17,0.62-3.55,0.62c-2.81,0-4.89-1.06-6.23-3.18c-1.35-2.12-2.02-5.15-2.02-9.07
		c0-1.86,0.16-3.55,0.5-5.05c0.33-1.5,0.84-2.79,1.53-3.87c0.69-1.08,1.56-1.9,2.62-2.47c1.06-0.57,2.32-0.86,3.78-0.86
		c1.32,0,2.46,0.23,3.44,0.69c0.97,0.46,1.78,1.09,2.41,1.89c0.63,0.8,1.1,1.74,1.42,2.82c0.32,1.08,0.49,2.23,0.52,3.46H328.22z"/>
	<path class="st2" d="M354.96,94.8h-2.84v-3.31h-0.08c-0.63,1.49-1.44,2.49-2.43,2.99c-0.99,0.5-2.21,0.75-3.68,0.75
		c-1.46,0-2.72-0.32-3.78-0.97c-1.06-0.65-1.94-1.53-2.62-2.65c-0.69-1.12-1.2-2.42-1.53-3.91c-0.33-1.49-0.49-3.07-0.49-4.73
		c0-1.66,0.16-3.24,0.49-4.73c0.33-1.49,0.85-2.79,1.55-3.91c0.7-1.12,1.6-2,2.69-2.64c1.09-0.65,2.39-0.97,3.91-0.97
		c1.17,0,2.31,0.29,3.4,0.88c1.09,0.59,1.92,1.53,2.49,2.82h0.08v-3.27h2.84V94.8z M340.69,82.97c0,2.95,0.47,5.26,1.4,6.92
		c0.93,1.66,2.34,2.49,4.24,2.49c0.89,0,1.68-0.17,2.39-0.49c0.7-0.33,1.3-0.87,1.78-1.61c0.49-0.74,0.85-1.71,1.1-2.9
		c0.24-1.19,0.37-2.66,0.37-4.41c0-1.75-0.12-3.22-0.37-4.41c-0.24-1.19-0.61-2.16-1.1-2.9c-0.49-0.75-1.08-1.28-1.78-1.61
		c-0.7-0.33-1.5-0.5-2.39-0.5c-1.95,0-3.38,0.77-4.28,2.3C341.14,77.39,340.69,79.76,340.69,82.97"/>
	<path class="st3" d="M133.33,112.6c0-1.35-0.55-2.89-2.21-2.89c-1.35,0-2.73,0.68-2.73,5.77c0,1.82,0.03,5.46,2.65,5.46
		c1.87,0,2.29-1.98,2.29-3.48h2.19c0,2.21-1.09,5.2-4.58,5.2c-3.41,0-4.84-2.37-4.84-7.15c0-3.48,0.68-7.52,4.97-7.52
		c3.8,0,4.45,2.99,4.45,4.6H133.33z"/>
	<path class="st3" d="M140.25,115.59c0,2.13,0,5.36,2.68,5.36c2.08,0,2.37-2.18,2.37-3.22h2.18c0,1.48-0.88,4.94-4.68,4.94
		c-3.41,0-4.84-2.37-4.84-7.15c0-3.48,0.68-7.51,4.97-7.51c4.26,0,4.65,3.72,4.65,6.71v0.88H140.25z M145.29,113.88v-0.75
		c0-1.56-0.49-3.41-2.42-3.41c-2.29,0-2.55,2.81-2.55,3.64v0.52H145.29z"/>
	<path class="st3" d="M150.62,108.36h2.08V110h0.05c0.57-1.27,2.03-2,3.38-2c3.67,0,3.67,2.78,3.67,4.42v9.88h-2.18v-9.62
		c0-1.07-0.08-2.81-2.05-2.81c-1.17,0-2.76,0.78-2.76,2.81v9.62h-2.18V108.36z"/>
	<path class="st3" d="M163.96,104.31h2.18v4.06h2.42v1.72h-2.42v8.94c0,1.12,0.29,1.56,1.43,1.56c0.47,0,0.73-0.05,0.96-0.08v1.79
		c-0.29,0.05-0.86,0.16-1.77,0.16c-2.26,0-2.81-0.94-2.81-2.76v-9.62h-2.03v-1.72h2.03V104.31z"/>
	<path class="st3" d="M170.69,108.36h2.19v2.08h0.05c0.62-1.33,1.46-2.44,3.02-2.44c0.44,0,0.75,0.05,0.96,0.16v2.13
		c-0.21-0.03-0.47-0.1-1.17-0.1c-1.09,0-2.86,0.99-2.86,3.3v8.82h-2.19V108.36z"/>
	<path class="st3" d="M183.38,108c4.03,0,5.02,3.41,5.02,7.33c0,3.93-1.01,7.33-5.02,7.33c-4.03,0-5.02-3.41-5.02-7.33
		C178.36,111.41,179.37,108,183.38,108 M186.11,115.33c0-3.02-0.44-5.62-2.78-5.62c-2.21,0-2.68,2.6-2.68,5.62
		c0,3.02,0.44,5.62,2.68,5.62C185.64,120.95,186.11,118.35,186.11,115.33"/>
	<path class="st3" d="M198.54,119.42h-0.08c-0.54,2.03-1.71,3.2-3.48,3.2c-2.57,0-4.21-2.18-4.21-7.15c0-3.95,0.99-6.89,4.16-6.89
		c2.03,0,3.02,1.46,3.54,3.02h0.08v-7.85h0.52v18.56h-0.52V119.42z M194.92,109.04c-2.86,0-3.64,2.83-3.64,6.32
		c0,3.54,0.73,6.79,3.75,6.79c2.08,0,3.51-2.13,3.51-6.55C198.54,111.09,197.11,109.04,194.92,109.04"/>
	<path class="st3" d="M202.51,115.31c0,4,0.86,6.84,3.77,6.84c2.52,0,3.33-2.6,3.41-4.21h0.52c-0.13,2.65-1.61,4.68-3.93,4.68
		c-3.02,0-4.29-2.52-4.29-7.41c0-4.11,1.33-6.63,4.29-6.63c3.09,0,4.03,2.76,4.03,5.8v0.94H202.51z M209.79,114.84v-0.91
		c0-2.05-0.62-4.89-3.51-4.89c-2.86,0-3.72,2.73-3.77,5.8H209.79z"/>
	<path class="st4" d="M215.04,115.59c0,2.13,0,5.36,2.68,5.36c2.08,0,2.37-2.18,2.37-3.22h2.18c0,1.48-0.88,4.94-4.68,4.94
		c-3.41,0-4.84-2.37-4.84-7.15c0-3.48,0.68-7.51,4.97-7.51c4.26,0,4.65,3.72,4.65,6.71v0.88H215.04z M220.09,113.88v-0.75
		c0-1.56-0.49-3.41-2.42-3.41c-2.29,0-2.55,2.81-2.55,3.64v0.52H220.09z"/>
	<path class="st4" d="M231.4,112.45c0-1.77-0.47-2.73-2.05-2.73c-0.7,0-2.26,0.18-2.26,2.13c0,1.64,1.72,1.95,3.43,2.52
		c1.69,0.57,3.4,1.17,3.4,3.93c0,2.94-1.9,4.37-4.5,4.37c-4.73,0-4.78-3.51-4.78-4.94h2.18c0,1.69,0.47,3.22,2.6,3.22
		c0.7,0,2.31-0.34,2.31-2.31c0-1.87-1.72-2.26-3.41-2.83c-1.69-0.57-3.43-1.07-3.43-3.95c0-2.6,2.03-3.85,4.45-3.85
		c4.06,0,4.21,2.81,4.24,4.45H231.4z"/>
	<path class="st4" d="M237.3,104.31h2.18v4.06h2.42v1.72h-2.42v8.94c0,1.12,0.29,1.56,1.43,1.56c0.47,0,0.73-0.05,0.96-0.08v1.79
		c-0.29,0.05-0.86,0.16-1.77,0.16c-2.26,0-2.81-0.94-2.81-2.76v-9.62h-2.03v-1.72h2.03V104.31z"/>
	<path class="st4" d="M253.21,122.3h-2.08v-1.64h-0.05c-0.57,1.27-2.03,2-3.38,2c-3.67,0-3.67-2.78-3.67-4.42v-9.88h2.18v9.62
		c0,1.07,0.08,2.81,2.05,2.81c1.17,0,2.76-0.78,2.76-2.81v-9.62h2.18V122.3z"/>
	<path class="st4" d="M265.9,122.3h-2.08v-1.72h-0.05c-0.29,1.04-1.51,2.08-3.02,2.08c-3.3,0-4.55-2.94-4.55-7.33
		c0-2.91,0.47-7.33,4.39-7.33c1.25,0,2.57,0.75,3.07,1.95h0.05v-6.21h2.18V122.3z M261.04,120.79c2.42,0,2.81-2.29,2.81-5.46
		c0-2.71-0.47-5.46-2.81-5.46c-2.03,0-2.55,2.13-2.55,5.46C258.49,118.66,259.01,120.79,261.04,120.79"/>
	<path class="st4" d="M269.54,103.74h2.18v2.5h-2.18V103.74z M269.54,108.36h2.18v13.94h-2.18V108.36z"/>
	<path class="st4" d="M279.71,108c4.03,0,5.02,3.41,5.02,7.33c0,3.93-1.01,7.33-5.02,7.33c-4.03,0-5.02-3.41-5.02-7.33
		C274.69,111.41,275.7,108,279.71,108 M282.44,115.33c0-3.02-0.44-5.62-2.78-5.62c-2.21,0-2.68,2.6-2.68,5.62
		c0,3.02,0.44,5.62,2.68,5.62C281.97,120.95,282.44,118.35,282.44,115.33"/>
	<path class="st4" d="M293.54,112.45c0-1.77-0.47-2.73-2.05-2.73c-0.7,0-2.26,0.18-2.26,2.13c0,1.64,1.71,1.95,3.43,2.52
		c1.69,0.57,3.41,1.17,3.41,3.93c0,2.94-1.9,4.37-4.5,4.37c-4.73,0-4.79-3.51-4.79-4.94h2.18c0,1.69,0.47,3.22,2.6,3.22
		c0.7,0,2.31-0.34,2.31-2.31c0-1.87-1.72-2.26-3.41-2.83c-1.69-0.57-3.43-1.07-3.43-3.95c0-2.6,2.03-3.85,4.45-3.85
		c4.06,0,4.21,2.81,4.24,4.45H293.54z"/>
	<path class="st3" d="M298.79,108.88h0.52v2.16h0.05c0.39-1.3,1.51-2.47,3.2-2.47c2.31,0,2.81,1.77,2.91,2.63h0.05
		c0.29-1.12,1.3-2.63,3.17-2.63c2.24,0,3.15,1.59,3.15,3.51v10.22h-0.52v-10.22c0-2.31-1.38-3.04-2.5-3.04
		c-2.08,0-3.25,1.87-3.25,4.45v8.82h-0.52v-10.12c0-1.69-0.62-3.15-2.47-3.15c-1.77,0-3.28,1.46-3.28,4.91v8.35h-0.52V108.88z"/>
	<path class="st3" d="M322.71,122.3h-0.52v-2.42h-0.05c-0.23,1.2-1.51,2.73-3.43,2.73c-2.57,0-3.46-1.72-3.46-4.08v-9.65h0.52v9.59
		c0,2.96,1.33,3.67,2.94,3.67c1.14,0,3.48-0.88,3.48-4.71v-8.55h0.52V122.3z"/>
	<path class="st3" d="M325.34,118.5v-0.42h0.52v0.49c0,1.87,0.68,3.56,3.17,3.56c2.31,0,3.15-1.74,3.15-3.2
		c0-4.32-6.58-2.39-6.58-7.15c0-0.88,0.47-1.79,0.83-2.18c0.73-0.78,1.59-1.04,2.6-1.04c2.63,0,3.33,1.95,3.33,3.64v0.36h-0.52
		v-0.44c0-1.82-0.81-3.09-2.83-3.09c-1.82,0-2.89,1.2-2.89,2.86c0,4.13,6.58,2.31,6.58,7.02c0,1.95-1.25,3.69-3.61,3.69
		C326.58,122.61,325.34,121.24,325.34,118.5"/>
	<path class="st3" d="M335.42,103.74h0.52v2.55h-0.52V103.74z M335.42,108.88h0.52v13.42h-0.52V108.88z"/>
	<path class="st3" d="M346.55,112.6c-0.05-1.79-1.17-3.56-3.28-3.56c-2.13,0-3.77,1.51-3.77,6.55c0,4.99,1.64,6.55,3.77,6.55
		c2.52,0,3.33-2.6,3.41-4.21h0.52c-0.13,2.65-1.61,4.68-3.93,4.68c-3.02,0-4.29-2.52-4.29-7.41c0-4.11,1.33-6.63,4.29-6.63
		c2.29,0,3.8,1.92,3.8,4.03H346.55z"/>
	<path class="st3" d="M352.24,115.2c0.88-0.18,2-0.42,2.73-0.68c0.75-0.26,1.04-0.73,1.04-2.26c0-1.17-0.13-1.69-0.52-2.21
		c-0.44-0.6-1.3-1.01-2.26-1.01c-3.09,0-3.15,2.55-3.15,3.56h-0.52v-0.44c0-1.77,1.07-3.59,3.67-3.59c1.77,0,3.3,1.01,3.3,3.22v8.81
		c0,1.01,0.34,1.25,0.78,1.22c0.13,0,0.34-0.03,0.52-0.05v0.47c-0.29,0.05-0.47,0.05-0.62,0.05c-0.68,0-1.2-0.26-1.2-1.74v-0.52
		h-0.05c-0.6,1.56-1.82,2.57-3.51,2.57c-2.18,0-3.41-1.48-3.41-3.82C349.05,116.66,350.29,115.59,352.24,115.2 M356.02,114.34
		c-0.42,0.49-1.25,0.78-3.51,1.22c-2.13,0.42-2.94,1.46-2.94,3.28c0,2.26,1.3,3.3,2.96,3.3c1.4,0,3.48-1.2,3.48-4.76V114.34z"/>
	<rect x="359.99" y="103.74" class="st3" width="0.52" height="18.56"/>
	<path class="st3" d="M364.07,115.31c0,4,0.86,6.84,3.77,6.84c2.52,0,3.33-2.6,3.41-4.21h0.52c-0.13,2.65-1.61,4.68-3.93,4.68
		c-3.02,0-4.29-2.52-4.29-7.41c0-4.11,1.33-6.63,4.29-6.63c3.09,0,4.03,2.76,4.03,5.8v0.94H364.07z M371.36,114.84v-0.91
		c0-2.05-0.62-4.89-3.51-4.89c-2.86,0-3.72,2.73-3.77,5.8H371.36z"/>
	<path class="st3" d="M374.01,118.5v-0.42h0.52v0.49c0,1.87,0.68,3.56,3.17,3.56c2.31,0,3.15-1.74,3.15-3.2
		c0-4.32-6.58-2.39-6.58-7.15c0-0.88,0.47-1.79,0.83-2.18c0.73-0.78,1.59-1.04,2.6-1.04c2.63,0,3.33,1.95,3.33,3.64v0.36h-0.52
		v-0.44c0-1.82-0.81-3.09-2.83-3.09c-1.82,0-2.89,1.2-2.89,2.86c0,4.13,6.58,2.31,6.58,7.02c0,1.95-1.25,3.69-3.61,3.69
		C375.25,122.61,374.01,121.24,374.01,118.5"/>
</g>
<g>
	<defs>
		<path id="SVGID_3_" d="M46.72,72.47c0-11.71,9.5-21.21,21.22-21.21c11.71,0,21.21,9.5,21.21,21.21c0,11.71-9.5,21.21-21.21,21.21
			C56.22,93.69,46.72,84.19,46.72,72.47 M37.49,72.47c0,16.82,13.63,30.46,30.45,30.46c16.81,0,30.44-13.64,30.44-30.46
			c0-16.81-13.64-30.44-30.44-30.44C51.12,42.03,37.49,55.66,37.49,72.47"/>
	</defs>
	<clipPath id="SVGID_4_">
		<use xlink:href="#SVGID_3_"  style="overflow:visible;"/>
	</clipPath>
	
		<radialGradient id="SVGID_5_" cx="-1.280780e-03" cy="142.9997" r="1" gradientTransform="matrix(30.4502 0 0 -30.4502 67.9748 4426.8481)" gradientUnits="userSpaceOnUse">
		<stop  offset="0" style="stop-color:#E20E18"/>
		<stop  offset="0.3718" style="stop-color:#E00F18"/>
		<stop  offset="0.5481" style="stop-color:#D81218"/>
		<stop  offset="0.6832" style="stop-color:#CA1518"/>
		<stop  offset="0.7974" style="stop-color:#B71817"/>
		<stop  offset="0.8972" style="stop-color:#9F1915"/>
		<stop  offset="0.9835" style="stop-color:#851913"/>
		<stop  offset="1" style="stop-color:#851913"/>
	</radialGradient>
	<rect x="37.49" y="42.03" class="st5" width="60.89" height="60.9"/>
</g>
<g>
	<g>
		<path class="st6" d="M379.6,60.9c0,5.85-4.75,10.6-10.6,10.6c-5.85,0-10.6-4.74-10.6-10.6c0-5.85,4.74-10.6,10.6-10.6
			C374.85,50.31,379.6,55.05,379.6,60.9z"/>
	</g>
	<g>
		<path d="M365.94,64.9v-8.59h3.81c0.77,0,1.35,0.08,1.75,0.23c0.4,0.15,0.72,0.43,0.96,0.82c0.24,0.39,0.36,0.82,0.36,1.29
			c0,0.61-0.2,1.12-0.59,1.54c-0.39,0.42-1,0.68-1.83,0.8c0.3,0.14,0.53,0.29,0.69,0.43c0.33,0.3,0.65,0.69,0.94,1.14l1.49,2.34
			h-1.43l-1.14-1.79c-0.33-0.52-0.61-0.91-0.82-1.18c-0.21-0.27-0.41-0.46-0.58-0.57c-0.17-0.11-0.34-0.19-0.52-0.23
			c-0.13-0.03-0.34-0.04-0.63-0.04h-1.32v3.81H365.94z M367.08,60.1h2.44c0.52,0,0.93-0.05,1.22-0.16c0.29-0.11,0.52-0.28,0.67-0.52
			c0.15-0.24,0.23-0.49,0.23-0.77c0-0.41-0.15-0.74-0.44-1c-0.3-0.26-0.76-0.39-1.4-0.39h-2.72V60.1z"/>
	</g>
</g>
</svg>
