<?xml version="1.0" encoding="UTF-8" standalone="no"?>
<!DOCTYPE svg PUBLIC "-//W3C//DTD SVG 1.1//EN" "http://www.w3.org/Graphics/SVG/1.1/DTD/svg11.dtd">
<svg width="100%" height="100%" viewBox="0 0 1300 591" version="1.1" xmlns="http://www.w3.org/2000/svg" xmlns:xlink="http://www.w3.org/1999/xlink" xml:space="preserve" xmlns:serif="http://www.serif.com/" style="fill-rule:evenodd;clip-rule:evenodd;stroke-linejoin:round;stroke-miterlimit:2;">
    <g transform="matrix(4.16667,0,0,4.16667,0,0)">
        <g transform="matrix(1.46745,0,0,1.46745,-73.2083,-32.5904)">
            <path d="M64,42.85L61.55,42.85L61.55,50.23C61.55,50.87 61.6,51.72 61.21,52.27C60.86,52.75 60.02,52.93 59.45,52.93C58.76,52.93 57.99,52.75 57.62,52.11C57.33,51.61 57.35,50.8 57.35,50.23L57.35,42.85L54.26,42.85L54.26,50.23C54.26,51.72 54.31,53.13 55.52,54.18C56.5,55.03 57.97,55.23 59.25,55.23C60.58,55.23 62.02,54.93 63,53.95C64.01,52.95 63.99,51.57 63.99,50.23L63.99,42.85L64,42.85Z" style="fill:rgb(43,37,35);fill-rule:nonzero;"/>
            <path d="M78.04,42.85L75.84,42.85L75.84,50.01L75.8,50.01L71.73,42.85L68.66,42.85L68.66,55.04L70.86,55.04L70.86,46.85L70.93,46.85L75.61,55.04L78.04,55.04L78.04,42.85Z" style="fill:rgb(43,37,35);fill-rule:nonzero;"/>
            <rect x="82.93" y="42.85" width="2.84" height="12.19" style="fill:rgb(43,37,35);"/>
            <path d="M100.13,42.85L97.73,42.85L95.21,51.56L92.76,42.85L89.72,42.85L93.38,55.04L96.45,55.04L100.13,42.85Z" style="fill:rgb(43,37,35);fill-rule:nonzero;"/>
            <path d="M112.55,45.22L112.55,42.85L103.85,42.85L103.85,55.04L112.55,55.04L112.55,52.68L106.69,52.68L106.69,49.98L111.31,49.98L111.31,47.69L106.69,47.69L106.69,45.22L112.55,45.22Z" style="fill:rgb(43,37,35);fill-rule:nonzero;"/>
            <path d="M119.54,45.02L121.03,45.02C121.56,45.02 122.38,44.95 122.86,45.25C123.27,45.5 123.55,46.01 123.55,46.49C123.55,47.02 123.3,47.59 122.84,47.88C122.32,48.18 121.68,48.13 121.1,48.13L119.54,48.13L119.54,45.02ZM119.52,50.23L121.62,50.23L123.49,55.05L126.65,55.05L124.39,49.66C125.7,49.18 126.5,47.9 126.5,46.51C126.5,45.32 125.95,44.13 124.95,43.47C124.01,42.87 122.91,42.85 121.82,42.85L116.68,42.85L116.68,55.04L119.52,55.04L119.52,50.23Z" style="fill:rgb(43,37,35);fill-rule:nonzero;"/>
            <path d="M139.45,45.54C138.7,43.43 136.96,42.68 134.83,42.68C133.71,42.68 132.66,42.93 131.77,43.68C130.9,44.41 130.46,45.4 130.46,46.54C130.46,49.21 132.59,49.85 134.76,50.29C135.51,50.45 136.89,50.65 136.89,51.66C136.89,52.67 135.81,52.98 134.99,52.98C133.73,52.98 132.8,52.53 132.45,51.26L129.82,51.86C130.37,54.24 132.45,55.24 134.74,55.24C135.97,55.24 137.3,55.01 138.28,54.24C139.22,53.51 139.79,52.37 139.79,51.18C139.79,49.97 139.18,48.96 138.19,48.3C137.34,47.73 136,47.48 135.01,47.27C134.32,47.15 133.25,46.93 133.25,46.04C133.25,45.1 134.17,44.9 134.94,44.9C136.02,44.9 136.68,45.31 137.04,46.34L139.45,45.54Z" style="fill:rgb(43,37,35);fill-rule:nonzero;"/>
            <rect x="144.07" y="42.85" width="2.84" height="12.19" style="fill:rgb(43,37,35);"/>
            <path d="M154.64,45.09L155.62,45.09C156.63,45.09 157.36,45.21 158.02,46.07C158.61,46.83 158.89,47.86 158.89,48.82C158.89,49.73 158.69,50.67 158.22,51.45C157.56,52.52 156.8,52.75 155.61,52.75L154.65,52.75L154.65,45.09L154.64,45.09ZM151.8,42.85L151.8,55.04L155.82,55.04C157.54,55.04 159.04,54.69 160.24,53.35C161.32,52.12 161.82,50.54 161.82,48.91C161.82,47.15 161.25,45.46 159.94,44.22C158.61,42.96 157.1,42.85 155.34,42.85L151.8,42.85Z" style="fill:rgb(43,37,35);fill-rule:nonzero;"/>
            <path d="M168.66,50.3L169.96,46.02L171.26,50.3L168.66,50.3ZM171.92,42.85L168.61,42.85L164.7,55.04L167.21,55.04L167.97,52.53L171.92,52.53L172.67,55.04L175.75,55.04L171.92,42.85Z" style="fill:rgb(43,37,35);fill-rule:nonzero;"/>
            <path d="M182.37,45.09L183.35,45.09C184.36,45.09 185.09,45.21 185.75,46.07C186.34,46.83 186.62,47.86 186.62,48.82C186.62,49.73 186.42,50.67 185.95,51.45C185.29,52.52 184.53,52.75 183.34,52.75L182.38,52.75L182.38,45.09L182.37,45.09ZM179.52,42.85L179.52,55.04L183.54,55.04C185.26,55.04 186.76,54.69 187.97,53.35C189.05,52.12 189.55,50.54 189.55,48.91C189.55,47.15 188.98,45.46 187.67,44.22C186.34,42.96 184.83,42.85 183.07,42.85L179.52,42.85Z" style="fill:rgb(43,37,35);fill-rule:nonzero;"/>
            <path d="M157.66,66.42L158.64,66.42C159.65,66.42 160.38,66.54 161.04,67.4C161.63,68.16 161.91,69.19 161.91,70.15C161.91,71.06 161.71,72 161.23,72.78C160.57,73.85 159.81,74.08 158.62,74.08L157.66,74.08L157.66,66.42ZM154.82,64.18L154.82,76.37L158.84,76.37C160.56,76.37 162.06,76.01 163.27,74.68C164.35,73.45 164.85,71.87 164.85,70.24C164.85,68.48 164.28,66.79 162.97,65.55C161.64,64.29 160.13,64.18 158.37,64.18L154.82,64.18Z" style="fill:rgb(43,37,35);fill-rule:nonzero;"/>
            <path d="M177.78,66.54L177.78,64.18L169.07,64.18L169.07,76.37L177.78,76.37L177.78,74.01L171.92,74.01L171.92,71.31L176.54,71.31L176.54,69.01L171.92,69.01L171.92,66.54L177.78,66.54Z" style="fill:rgb(43,37,35);fill-rule:nonzero;"/>
            <path d="M184.64,73.95L184.64,64.18L181.8,64.18L181.8,76.37L189.55,76.37L189.55,73.95L184.64,73.95Z" style="fill:rgb(43,37,35);fill-rule:nonzero;"/>
            <path d="M135.48,85.51L133.28,85.51L133.28,92.67L133.24,92.67L129.17,85.51L126.1,85.51L126.1,97.7L128.3,97.7L128.3,89.51L128.37,89.51L133.05,97.7L135.48,97.7L135.48,85.51Z" style="fill:rgb(43,37,35);fill-rule:nonzero;"/>
            <path d="M145.03,87.66C145.92,87.66 146.43,88.03 146.79,88.85C147.15,89.67 147.24,90.72 147.24,91.6C147.24,92.4 147.15,93.41 146.87,94.16C146.55,95.07 146.02,95.55 145.04,95.55C143.03,95.55 142.8,93.12 142.8,91.59C142.8,90.83 142.91,89.78 143.19,89.05C143.51,88.15 144.05,87.66 145.03,87.66M145.03,97.88C146.68,97.88 148.12,97.2 149.06,95.82C149.84,94.66 150.22,92.97 150.22,91.59C150.22,90.12 149.78,88.39 148.9,87.2C147.92,85.87 146.64,85.33 145.03,85.33C141.42,85.33 139.8,88.35 139.8,91.59C139.8,93.12 140.19,94.7 141.08,95.96C142.04,97.31 143.37,97.88 145.03,97.88" style="fill:rgb(43,37,35);fill-rule:nonzero;"/>
            <path d="M157.43,87.68L158.92,87.68C159.45,87.68 160.27,87.61 160.75,87.91C161.16,88.16 161.44,88.67 161.44,89.15C161.44,89.68 161.19,90.25 160.73,90.54C160.21,90.84 159.57,90.79 158.99,90.79L157.43,90.79L157.43,87.68ZM157.42,92.88L159.51,92.88L161.38,97.7L164.54,97.7L162.28,92.32C163.6,91.84 164.4,90.56 164.4,89.17C164.4,87.98 163.85,86.79 162.85,86.13C161.91,85.53 160.81,85.51 159.72,85.51L154.58,85.51L154.58,97.7L157.42,97.7L157.42,92.88Z" style="fill:rgb(43,37,35);fill-rule:nonzero;"/>
            <path d="M176.88,85.51L167.88,85.51L167.88,87.92L170.97,87.92L170.97,97.7L173.82,97.7L173.82,87.92L176.88,87.92L176.88,85.51Z" style="fill:rgb(43,37,35);fill-rule:nonzero;"/>
            <path d="M189.55,87.87L189.55,85.51L180.84,85.51L180.84,97.7L189.55,97.7L189.55,95.33L183.68,95.33L183.68,92.63L188.3,92.63L188.3,90.34L183.68,90.34L183.68,87.87L189.55,87.87Z" style="fill:rgb(43,37,35);fill-rule:nonzero;"/>
            <rect x="201" y="42" width="57" height="57" style="fill:rgb(46,49,132);"/>
            <path d="M239.94,62.48L239.94,82.83L238.8,84.3L238.8,63.63L239.94,62.48ZM221.09,56.25L221.09,76.92L219.94,78.07L219.94,57.72L221.09,56.25ZM228.07,61.07L228.07,76.63L222.07,76.63L222.07,55.45L240.52,55.45C240.59,55.45 242.18,55.51 243.75,56.27C245.83,57.29 246.88,59.04 246.88,61.46L246.88,76.64L240.92,76.64L240.92,61.07C240.92,60.91 240.8,60.79 240.64,60.79L228.33,60.79C228.19,60.79 228.07,60.91 228.07,61.07M227.42,77.62L226.16,78.77L220.64,78.77L221.79,77.62L227.42,77.62ZM232.45,62.93L233.69,61.78L239.24,61.78L238.1,62.93L232.45,62.93ZM227.63,78.77L228.96,77.55C228.97,77.54 228.98,77.53 228.99,77.51C229.03,77.46 229.05,77.41 229.05,77.33L229.05,61.78L232.23,61.78L230.91,63.01C230.84,63.07 230.81,63.15 230.83,63.24L230.83,78.77L227.63,78.77ZM212.99,63.92L218.95,63.92L218.95,79.48C218.95,79.64 219.07,79.76 219.23,79.76L231.54,79.76C231.69,79.76 231.82,79.64 231.82,79.48L231.82,63.92L237.81,63.92L237.81,85.1L219.35,85.1C219.28,85.1 217.69,85.04 216.12,84.27C214.04,83.25 212.99,81.51 212.99,79.09L212.99,63.92ZM218.95,61.54L218.95,62.93L213.71,62.93L215.34,61.54L218.95,61.54ZM240.93,79.16L240.93,77.62L246.17,77.62L244.37,79.16L240.93,79.16ZM244.18,55.37C242.39,54.5 240.62,54.45 240.55,54.45L221.36,54.45C221.26,54.45 221.18,54.51 221.12,54.59L219,57.3C218.96,57.35 218.94,57.42 218.94,57.47L218.94,60.54L215.07,60.54C215,60.54 214.94,60.56 214.89,60.6L212.12,62.97C212.04,63.01 211.99,63.1 211.99,63.2L211.99,79.1C211.99,82.63 214,84.35 215.69,85.17C217.48,86.04 219.25,86.09 219.33,86.09L238.51,86.09C238.6,86.09 238.69,86.04 238.74,85.97L240.87,83.25C240.91,83.2 240.93,83.14 240.93,83.08L240.93,80.14L244.63,80.14C244.7,80.14 244.76,80.12 244.81,80.07L247.78,77.55C247.81,77.53 247.83,77.49 247.85,77.46C247.86,77.42 247.88,77.38 247.88,77.34L247.88,61.46C247.88,57.92 245.87,56.2 244.18,55.37" style="fill:white;fill-rule:nonzero;"/>
        </g>
    </g>
</svg>
