<?xml version="1.0" encoding="utf-8"?>
<!-- Generator: Adobe Illustrator 25.4.1, SVG Export Plug-In . SVG Version: 6.00 Build 0)  -->
<svg version="1.1" id="Capa_1" xmlns="http://www.w3.org/2000/svg" xmlns:xlink="http://www.w3.org/1999/xlink" x="0px" y="0px"
	 viewBox="0 0 448.2 114.9" style="enable-background:new 0 0 448.2 114.9;" xml:space="preserve">
<style type="text/css">
	.st0{fill:#FFFFFF;}
	.st1{fill:#B0003C;}
	.st2{fill:#00BEB4;}
	.st3{fill:#FFC400;}
</style>
<g>
	<path class="st1" d="M175.4,0c-16.1,0.1-24.6,7.5-29,14.3l-42.3,99h25.3l10.3-25.2h47.8l10.3,25.2h26L175.4,0z M148.6,66.2l15-36.5
		l15,36.5H148.6z"/>
	<path class="st1" d="M48.9,114.9C18.6,114.9,0,98,0,64.7V0.1h24.9v63.9c0,18.4,9.2,27.9,24.4,27.9s24.4-9.2,24.4-27.1V0.1h24.9
		v63.8C98.5,98.1,79.3,114.9,48.9,114.9"/>
	<path class="st2" d="M0,0.1l0,56.6C0,7.4,24.9,0.1,24.9,0.1H0z"/>
	<path class="st1" d="M448.2,22.2V0h-0.8h-8.3h-55.2c-15.4,0-20.1,16.3-21.3,22.6c0,0-0.4,2.2-0.4,4.9v85.8h86V91.1h-61.3V67.3h53.3
		V45.2h-53.3v-23h52.3v0H448.2z"/>
	<path class="st1" d="M313.2,0.2v69.7L266.9,8.5v0l0,0l-2.3-3c-2.2-2.4-6.2-5.2-12.2-5.3h-14.6v113.1h24.4V41.4l54.4,71.9h21V0.2
		H313.2z"/>
	<path class="st3" d="M337.6,113.3l0-57.3c0,50-21,57.3-21,57.3H337.6z"/>
</g>
</svg>
