<?xml version="1.0" encoding="utf-8"?>
<!-- Generator: Adobe Illustrator 25.4.1, SVG Export Plug-In . SVG Version: 6.00 Build 0)  -->
<svg version="1.1" id="Layer_1" xmlns="http://www.w3.org/2000/svg" xmlns:xlink="http://www.w3.org/1999/xlink" x="0px" y="0px"
	 viewBox="0 0 654.59 196.94" style="enable-background:new 0 0 654.59 196.94;" xml:space="preserve">
<style type="text/css">
	.st0{fill:#F47B20;}
</style>
<g>
	<g id="XMLID_1_">
		<g id="XMLID_13_">
			<path class="st0" d="M635.19,139.17c-10.42,0-17.83-7.79-17.83-18.11c0-10.9,8.24-18.12,17.83-18.12
				c9.49,0,17.72,7.23,17.72,18.12C652.91,131.95,644.68,139.17,635.19,139.17 M635.19,106.09c-7.86,0-13.95,6.15-13.95,14.97
				c0,8.24,5.32,14.96,13.95,14.96c7.75,0,13.85-6.1,13.85-14.96C649.04,112.24,642.93,106.09,635.19,106.09 M631.6,131.42h-3.29
				v-20.05h7.6c4.84,0,7.31,1.7,7.31,5.76c0,3.64-2.23,5.14-5.22,5.47l5.62,8.82h-3.73l-5.18-8.58h-3.09V131.42z M635.28,120.04
				c2.47,0,4.65-0.25,4.65-3.15c0-2.42-2.37-2.72-4.36-2.72h-3.96v5.86H635.28z"/>
		</g>
		<g id="XMLID_12_">
			<path class="st0" d="M58.87,133.36c41.04,0,59.77-21.18,59.77-56.86V0H77.83V76.5c0,18.06-4.24,26.99-18.51,26.99
				c-14.49,0-18.5-8.93-18.5-26.99V0H0v78.5C0,115.29,17.84,133.36,58.87,133.36"/>
		</g>
		<g id="XMLID_9_">
			<path class="st0" d="M425.94,109.5h37.03l5.35,21.62h41.7L479.25,0h-66.46l-33.67,131.12h41.25L425.94,109.5z M441.99,31.45h7.16
				l9.59,49.72h-27.86L441.99,31.45z"/>
		</g>
		<g id="XMLID_8_">
			<polygon class="st0" points="328.91,0 288.1,0 288.1,131.12 360.62,131.12 367.77,102.81 328.91,102.81 			"/>
		</g>
		<g id="XMLID_5_">
			<path class="st0" d="M570.1,95h13.37c33.91,0,51.75-22.3,51.75-50.4c0-26.76-7.13-44.6-48.61-44.6h-56.42v131.12h40.13L570.1,95z
				 M570.1,28.33h13.37c12.5,0,14.5,5.8,14.5,18.51c0,13.83-5.77,19.85-14.5,19.85H570.1V28.33z"/>
		</g>
		<g id="XMLID_2_">
			<path class="st0" d="M267.67,60c0-51.3-19.18-60-68.91-60h-53.51v131.12h47.94C239.58,131.12,267.67,107.94,267.67,60
				 M185.39,28.99h18.73c17.41,0,23.86,9.14,23.86,34.35c0,22.06-6.24,39.68-31.21,39.68h-11.38V28.99z"/>
		</g>
	</g>
	<g>
		<path class="st0" d="M14.43,187.01v-17.73h4.28v17.52c0,6.83-3.44,10.14-9.43,10.14c-5.87,0-9.05-3.44-9.05-9.98v-17.69H4.5v17.69
			c0,4.48,1.59,7,4.95,7C12.92,193.97,14.43,191.37,14.43,187.01z"/>
		<path class="st0" d="M27.85,196.53v-20.96h3.98v2.31c1.47-1.22,3.6-2.52,5.99-2.52c3.48,0,5.37,2.26,5.37,5.74v15.42h-3.98v-14.88
			c0-2.14-1.01-3.31-2.77-3.31c-1.72,0-3.44,1.09-4.61,2.1v16.1H27.85z"/>
		<path class="st0" d="M52.12,168.74c0-1.13,0.88-2.1,2.31-2.1c1.42,0,2.26,1.01,2.26,2.1s-0.84,2.1-2.26,2.1
			C53,170.83,52.12,169.83,52.12,168.74z M52.41,196.53v-20.96h3.98v20.96H52.41z"/>
		<path class="st0" d="M74.08,196.53h-5.91l-5.37-20.96h4.02l4.53,18.57h0.08l4.65-18.57h3.6L74.08,196.53z"/>
		<path class="st0" d="M98.56,193.13l0.75,2.6c-1.22,0.5-2.93,1.01-5.16,1.01c-6.04,0-9.72-3.98-9.72-10.61
			c0-6.58,3.56-10.77,8.63-10.77c5.11,0,7.29,3.94,7.25,8.22c0,0.96-0.17,2.18-0.33,3.06H88.46c0.13,4.74,2.35,7.17,6.41,7.17
			C96.34,193.8,97.59,193.51,98.56,193.13z M96.67,184.5c0-0.33,0.04-0.71,0.04-1.09c-0.04-2.93-1.05-5.2-3.69-5.2
			c-2.6,0-4.4,2.47-4.57,6.29H96.67z"/>
		<path class="st0" d="M111.76,175.57v2.64c1.22-1.34,3.35-2.81,5.91-2.81l-0.38,3.69c-2.18-0.08-4.07,0.42-5.53,1.59v15.84h-3.98
			v-20.96H111.76z"/>
		<path class="st0" d="M133.81,176.45l-0.8,2.43c-1.17-0.46-2.35-0.75-3.77-0.75c-1.97,0-3.44,0.92-3.44,2.68
			c0,3.81,8.72,4.44,8.72,10.19c0,3.61-2.89,5.74-7.13,5.74c-2.1,0-3.86-0.46-5.37-1.09l0.75-2.6c1.3,0.5,2.85,0.92,4.49,0.92
			c1.84,0,3.27-0.92,3.27-2.64c0-3.86-8.8-4.44-8.8-10.27c0-3.56,2.89-5.7,7.21-5.7C130.96,175.36,132.64,175.82,133.81,176.45z"/>
		<path class="st0" d="M141.02,168.74c0-1.13,0.88-2.1,2.31-2.1c1.42,0,2.26,1.01,2.26,2.1s-0.84,2.1-2.26,2.1
			C141.9,170.83,141.02,169.83,141.02,168.74z M141.31,196.53v-20.96h3.98v20.96H141.31z"/>
		<path class="st0" d="M169.19,165.09v24.35c0,3.27,0.71,4.28,2.68,4.99l-0.67,2.35c-2.81-0.25-4.44-1.68-5.2-3.44h-0.08
			c-0.92,1.51-2.77,3.4-5.58,3.4c-4.44,0-7.29-4.19-7.29-10.35c0-6.71,3.1-11.02,8.26-11.02c1.72,0,3.1,0.63,3.9,1.34v-11.61H169.19
			z M165.21,191.16v-11.95c-0.75-0.63-1.89-1.17-3.35-1.17c-3.06,0-4.82,3.14-4.82,8.22c0,4.4,1.51,7.63,4.23,7.63
			C163.15,193.88,164.41,192.5,165.21,191.16z"/>
		<path class="st0" d="M177.87,179.51l-0.92-2.64c1.68-0.71,4.32-1.51,6.75-1.51c4.57,0,7.04,2.14,7.04,6.29
			c0,2.35-0.25,4.86-0.25,7.75c0,3.1,0.8,4.4,2.81,5.03l-0.63,2.31c-2.68-0.08-4.78-1.76-5.41-3.9h-0.13
			c-0.96,1.93-2.93,3.9-5.95,3.9c-2.89,0-5.03-1.8-5.03-4.7c0-4.11,4.36-5.99,8.34-6.62l2.31-0.34v-2.77c0-2.81-1.09-4.02-3.81-4.02
			C181.09,178.29,179.25,178.88,177.87,179.51z M186.79,187.56c0-0.04,0-0.5,0-0.54c-3.81,0.33-6.66,1.89-6.66,4.61
			c0,1.51,0.96,2.35,2.31,2.35C184.78,193.97,186.75,190.95,186.79,187.56z"/>
		<path class="st0" d="M214.42,165.09v24.35c0,3.27,0.71,4.28,2.68,4.99l-0.67,2.35c-2.81-0.25-4.44-1.68-5.2-3.44h-0.08
			c-0.92,1.51-2.77,3.4-5.58,3.4c-4.44,0-7.29-4.19-7.29-10.35c0-6.71,3.1-11.02,8.26-11.02c1.72,0,3.1,0.63,3.9,1.34v-11.61H214.42
			z M210.44,191.16v-11.95c-0.75-0.63-1.89-1.17-3.35-1.17c-3.06,0-4.82,3.14-4.82,8.22c0,4.4,1.51,7.63,4.23,7.63
			C208.38,193.88,209.64,192.5,210.44,191.16z"/>
		<path class="st0" d="M249.5,165.09v24.35c0,3.27,0.71,4.28,2.68,4.99l-0.67,2.35c-2.81-0.25-4.44-1.68-5.2-3.44h-0.08
			c-0.92,1.51-2.77,3.4-5.58,3.4c-4.44,0-7.29-4.19-7.29-10.35c0-6.71,3.1-11.02,8.26-11.02c1.72,0,3.1,0.63,3.9,1.34v-11.61H249.5z
			 M245.52,191.16v-11.95c-0.75-0.63-1.89-1.17-3.35-1.17c-3.06,0-4.82,3.14-4.82,8.22c0,4.4,1.51,7.63,4.23,7.63
			C243.47,193.88,244.72,192.5,245.52,191.16z"/>
		<path class="st0" d="M271.3,193.13l0.75,2.6c-1.22,0.5-2.93,1.01-5.16,1.01c-6.04,0-9.72-3.98-9.72-10.61
			c0-6.58,3.56-10.77,8.63-10.77c5.11,0,7.29,3.94,7.25,8.22c0,0.96-0.17,2.18-0.33,3.06H261.2c0.13,4.74,2.35,7.17,6.41,7.17
			C269.08,193.8,270.33,193.51,271.3,193.13z M269.41,184.5c0-0.33,0.04-0.71,0.04-1.09c-0.04-2.93-1.05-5.2-3.69-5.2
			c-2.6,0-4.4,2.47-4.57,6.29H269.41z"/>
		<path class="st0" d="M291.67,196.53v-31.44h3.98v31.44H291.67z"/>
		<path class="st0" d="M304.24,179.51l-0.92-2.64c1.68-0.71,4.32-1.51,6.75-1.51c4.57,0,7.04,2.14,7.04,6.29
			c0,2.35-0.25,4.86-0.25,7.75c0,3.1,0.8,4.4,2.81,5.03l-0.63,2.31c-2.68-0.08-4.78-1.76-5.41-3.9h-0.13
			c-0.96,1.93-2.93,3.9-5.95,3.9c-2.89,0-5.03-1.8-5.03-4.7c0-4.11,4.36-5.99,8.34-6.62l2.31-0.34v-2.77c0-2.81-1.09-4.02-3.81-4.02
			C307.47,178.29,305.63,178.88,304.24,179.51z M313.17,187.56c0-0.04,0-0.5,0-0.54c-3.81,0.33-6.66,1.89-6.66,4.61
			c0,1.51,0.96,2.35,2.31,2.35C311.16,193.97,313.13,190.95,313.17,187.56z"/>
		<path class="st0" d="M336.23,176.45l-0.8,2.43c-1.17-0.46-2.35-0.75-3.77-0.75c-1.97,0-3.44,0.92-3.44,2.68
			c0,3.81,8.72,4.44,8.72,10.19c0,3.61-2.89,5.74-7.12,5.74c-2.1,0-3.86-0.46-5.37-1.09l0.75-2.6c1.3,0.5,2.85,0.92,4.49,0.92
			c1.84,0,3.27-0.92,3.27-2.64c0-3.86-8.8-4.44-8.8-10.27c0-3.56,2.89-5.7,7.21-5.7C333.38,175.36,335.05,175.82,336.23,176.45z"/>
		<path class="st0" d="M365.06,169.28l7.13,27.25h-4.36l-2.14-8.26h-8.09l-2.1,8.26h-4.02l7.08-27.25H365.06z M361.54,172.09
			l-3.27,13.25h6.67l-3.27-13.25H361.54z"/>
		<path class="st0" d="M378.1,196.53v-20.96h3.98v2.31c1.51-1.22,3.52-2.52,5.78-2.52c2.35,0,3.9,1.05,4.65,2.81
			c1.51-1.3,3.9-2.81,6.29-2.81c3.44,0,5.24,2.22,5.24,5.66v15.51h-3.98v-14.88c0-2.14-0.92-3.31-2.68-3.31
			c-1.51,0-3.31,1.09-4.32,1.97v16.22h-3.98v-14.88c0-2.14-0.92-3.31-2.68-3.31c-1.59,0-3.19,1.13-4.32,2.1v16.1H378.1z"/>
		<path class="st0" d="M411.59,186.13c0-6.58,3.56-10.77,8.63-10.77c5.11,0,7.29,3.94,7.25,8.22c0,0.96-0.17,2.18-0.34,3.06h-11.53
			c0.13,4.74,2.35,7.17,6.41,7.17c1.47,0,2.72-0.29,3.69-0.67l0.75,2.6c-1.22,0.5-2.93,1.01-5.16,1.01
			C415.28,196.74,411.59,192.75,411.59,186.13z M423.83,184.5c0-0.33,0.04-0.71,0.04-1.09c-0.04-2.93-1.05-5.2-3.69-5.2
			c-2.6,0-4.4,2.47-4.57,6.29H423.83z M421.65,171.96h-2.47l1.34-5.11h4.74L421.65,171.96z"/>
		<path class="st0" d="M438.92,175.57v2.64c1.21-1.34,3.35-2.81,5.91-2.81l-0.38,3.69c-2.18-0.08-4.07,0.42-5.53,1.59v15.84h-3.98
			v-20.96H438.92z"/>
		<path class="st0" d="M450.79,168.74c0-1.13,0.88-2.1,2.3-2.1c1.43,0,2.26,1.01,2.26,2.1s-0.84,2.1-2.26,2.1
			C451.67,170.83,450.79,169.83,450.79,168.74z M451.08,196.53v-20.96h3.98v20.96H451.08z"/>
		<path class="st0" d="M472.79,178.33c-3.4,0-5.99,2.77-5.99,7.84c0,4.7,2.43,7.54,6.33,7.54c1.22,0,2.39-0.25,3.27-0.59l0.84,2.56
			c-1.13,0.59-2.93,1.05-4.86,1.05c-5.53,0-9.56-3.77-9.56-10.48c0-6.62,3.73-10.9,9.56-10.9c2.01,0,3.65,0.5,4.65,1.05l-0.92,2.6
			C475.26,178.67,474.17,178.33,472.79,178.33z"/>
		<path class="st0" d="M483.31,179.51l-0.92-2.64c1.68-0.71,4.32-1.51,6.75-1.51c4.57,0,7.04,2.14,7.04,6.29
			c0,2.35-0.25,4.86-0.25,7.75c0,3.1,0.8,4.4,2.81,5.03l-0.63,2.31c-2.68-0.08-4.78-1.76-5.41-3.9h-0.13
			c-0.96,1.93-2.93,3.9-5.95,3.9c-2.89,0-5.03-1.8-5.03-4.7c0-4.11,4.36-5.99,8.34-6.62l2.31-0.34v-2.77c0-2.81-1.09-4.02-3.81-4.02
			C486.54,178.29,484.7,178.88,483.31,179.51z M492.24,187.56c0-0.04,0-0.5,0-0.54c-3.81,0.33-6.67,1.89-6.67,4.61
			c0,1.51,0.96,2.35,2.31,2.35C490.23,193.97,492.2,190.95,492.24,187.56z"/>
		<path class="st0" d="M515.3,176.45l-0.8,2.43c-1.17-0.46-2.35-0.75-3.77-0.75c-1.97,0-3.44,0.92-3.44,2.68
			c0,3.81,8.72,4.44,8.72,10.19c0,3.61-2.89,5.74-7.13,5.74c-2.1,0-3.86-0.46-5.37-1.09l0.75-2.6c1.3,0.5,2.85,0.92,4.49,0.92
			c1.84,0,3.27-0.92,3.27-2.64c0-3.86-8.8-4.44-8.8-10.27c0-3.56,2.89-5.7,7.21-5.7C512.45,175.36,514.12,175.82,515.3,176.45z"/>
		<path class="st0" d="M538.35,186v10.52h-4.28V169.7c2.22-0.46,4.32-0.84,7-0.84c5.66,0,8.89,3.31,8.89,8.42
			c0,5.41-3.56,8.93-8.72,8.93C540.11,186.21,539.23,186.13,538.35,186z M538.35,183.24c0.71,0.08,1.59,0.13,2.6,0.13
			c2.98,0,4.7-2.31,4.7-5.91c0-3.69-1.8-5.62-4.65-5.62c-1.09,0-1.76,0.13-2.64,0.33V183.24z"/>
		<path class="st0" d="M567.69,175.57h3.98v13.83c0,3.27,0.59,4.28,2.64,5.03l-0.63,2.35c-2.98-0.25-4.53-1.8-5.2-3.4h-0.12
			c-1.09,1.51-2.98,3.35-5.99,3.35c-3.6,0-5.7-2.47-5.7-6.5v-14.67h3.98v14.63c0,2.43,0.96,3.69,2.81,3.69
			c1.8,0,3.31-1.26,4.23-2.72V175.57z"/>
		<path class="st0" d="M593.72,193.13l0.75,2.6c-1.22,0.5-2.93,1.01-5.16,1.01c-6.04,0-9.72-3.98-9.72-10.61
			c0-6.58,3.56-10.77,8.63-10.77c5.11,0,7.29,3.94,7.25,8.22c0,0.96-0.17,2.18-0.34,3.06h-11.53c0.13,4.74,2.35,7.17,6.41,7.17
			C591.5,193.8,592.76,193.51,593.72,193.13z M591.84,184.5c0-0.33,0.04-0.71,0.04-1.09c-0.04-2.93-1.05-5.2-3.69-5.2
			c-2.6,0-4.4,2.47-4.57,6.29H591.84z"/>
		<path class="st0" d="M606.8,165.09v12.78c1.17-1.05,3.1-2.52,5.41-2.52c4.82,0,6.75,4.57,6.75,10.44c0,6.58-3.19,10.98-7.92,10.98
			c-1.93,0-3.65-1.01-4.82-2.14l-0.84,1.89h-2.56v-31.44H606.8z M614.97,185.79c0-4.4-1.01-7.46-3.81-7.46
			c-1.68,0-3.31,1.09-4.36,2.1v12.07c1.05,0.92,2.31,1.55,3.77,1.55C613.51,194.05,614.97,190.2,614.97,185.79z"/>
		<path class="st0" d="M626.59,196.53v-31.44h3.98v31.44H626.59z"/>
		<path class="st0" d="M639.16,179.51l-0.92-2.64c1.68-0.71,4.32-1.51,6.75-1.51c4.57,0,7.04,2.14,7.04,6.29
			c0,2.35-0.25,4.86-0.25,7.75c0,3.1,0.8,4.4,2.81,5.03l-0.63,2.31c-2.68-0.08-4.78-1.76-5.41-3.9h-0.13
			c-0.96,1.93-2.93,3.9-5.95,3.9c-2.89,0-5.03-1.8-5.03-4.7c0-4.11,4.36-5.99,8.34-6.62l2.31-0.34v-2.77c0-2.81-1.09-4.02-3.81-4.02
			C642.39,178.29,640.54,178.88,639.16,179.51z M648.09,187.56c0-0.04,0-0.5,0-0.54c-3.81,0.33-6.67,1.89-6.67,4.61
			c0,1.51,0.96,2.35,2.31,2.35C646.08,193.97,648.05,190.95,648.09,187.56z"/>
	</g>
</g>
</svg>
