<?xml version="1.0" encoding="utf-8"?>
<!-- Generator: Adobe Illustrator 25.4.1, SVG Export Plug-In . SVG Version: 6.00 Build 0)  -->
<svg version="1.1" id="Layer_1" xmlns="http://www.w3.org/2000/svg" xmlns:xlink="http://www.w3.org/1999/xlink" x="0px" y="0px"
	 viewBox="0 0 736 255" style="enable-background:new 0 0 736 255;" xml:space="preserve">
<style type="text/css">
	.st0{fill:#BB9B69;}
</style>
<g>
	<g>
		<path class="st0" d="M80.74,144.55c-3.59,0.3-4.04,0.65-4.04,4.89v17.19c0,6.03-0.7,10.32-4.79,13.81
			c-1.89,1.64-3.84,2.54-5.53,3.04l-0.7-1.7c2.69-1.25,4.19-3.19,4.69-6.23c0.45-2.64,0.55-5.73,0.55-9.62v-16.5
			c0-4.24-0.45-4.59-4.34-4.89v-1.64h14.16V144.55z"/>
		<path class="st0" d="M110.1,167.18c-0.3,1.99-1.29,6.63-1.74,8.12H83.43v-1.59c4.34-0.35,4.78-0.7,4.78-4.89v-19.38
			c0-4.39-0.45-4.59-4.08-4.89v-1.64h22.97c0.05,0.99,0.3,4.48,0.5,7.38l-1.69,0.25c-0.45-1.9-1.05-3.34-1.84-4.29
			c-0.8-0.95-2.14-1.3-5.23-1.3h-2.89c-1.75,0-1.9,0.1-1.9,1.7v10.81h3.84c4.28,0,4.79-0.3,5.43-3.74h1.7v9.87h-1.7
			c-0.65-3.59-1.15-3.79-5.43-3.79h-3.84v8.87c0,2.39,0.25,3.54,1.2,4.09c0.9,0.5,2.64,0.55,4.68,0.55c3.04,0,4.69-0.35,5.83-1.64
			c0.95-1.05,1.84-2.69,2.69-4.79L110.1,167.18z"/>
		<path class="st0" d="M146.79,144.5c-2.69,0.15-3.79,0.85-4.04,3.09c-0.2,1.5-0.4,3.84-0.4,8.33v19.89h-2.1l-20.93-25.33h-0.1
			v11.71c0,4.44,0.2,6.68,0.35,8.18c0.25,2.34,1.2,3.14,4.79,3.34v1.59H112.3v-1.59c2.79-0.2,3.99-0.95,4.23-3.19
			c0.15-1.65,0.4-3.89,0.4-8.33v-10.61c0-3.39-0.05-4.09-1-5.23c-1-1.25-2.04-1.64-4.29-1.85v-1.59h8.57l19.69,22.97h0.15v-9.97
			c0-4.49-0.25-6.83-0.35-8.27c-0.3-2.14-1.34-2.94-4.93-3.14v-1.59h12.01V144.5z"/>
		<path class="st0" d="M172.86,175.31c-2.79-3.44-6.88-8.93-10.77-14.16c-1.09-1.45-1.74-1.69-2.54-1.6v9.17
			c0,4.29,0.5,4.64,4.39,4.99v1.59h-14.16v-1.59c3.64-0.35,4.14-0.7,4.14-4.99v-19.19c0-4.39-0.45-4.68-4.29-4.98v-1.64h14.01v1.64
			c-3.64,0.3-4.09,0.65-4.09,4.98v8.53c1.1-0.3,2.24-1.05,3.69-2.49c3.14-3.09,5.63-5.93,7.47-8.33c1.3-1.65,1.25-2.3-1.1-2.59
			l-0.94-0.1v-1.64h12.56v1.64c-3.28,0.3-5.03,0.85-7.97,3.53c-2.54,2.39-5.18,5.18-7.77,7.88c3.33,4.78,7.72,10.22,10.86,14.06
			c2.29,2.69,3.53,3.39,5.68,3.69v1.59H172.86z"/>
		<path class="st0" d="M184.13,175.31v-1.59c3.84-0.35,4.29-0.65,4.29-4.89v-19.38c0-4.24-0.45-4.59-4.29-4.89v-1.64h14.31v1.64
			c-3.84,0.3-4.24,0.65-4.24,4.89v19.38c0,4.19,0.4,4.54,4.24,4.89v1.59H184.13z"/>
		<path class="st0" d="M236.37,144.5c-2.69,0.15-3.79,0.85-4.04,3.09c-0.2,1.5-0.4,3.84-0.4,8.33v19.89h-2.09l-20.93-25.33h-0.1
			v11.71c0,4.44,0.2,6.68,0.35,8.18c0.25,2.34,1.19,3.14,4.79,3.34v1.59h-12.06v-1.59c2.79-0.2,3.99-0.95,4.24-3.19
			c0.15-1.65,0.4-3.89,0.4-8.33v-10.61c0-3.39-0.05-4.09-0.99-5.23c-1-1.25-2.05-1.64-4.29-1.85v-1.59h8.57l19.69,22.97h0.15v-9.97
			c0-4.49-0.25-6.83-0.35-8.27c-0.3-2.14-1.35-2.94-4.93-3.14v-1.59h12.01V144.5z"/>
		<path class="st0" d="M257.16,150.84c-1-3.14-2.69-6.73-6.83-6.73c-3.14,0-5.09,2.29-5.09,5.08c0,3.09,2.05,4.74,6.28,6.82
			c4.73,2.4,8.72,4.99,8.72,10.17c0,5.53-4.68,9.87-11.76,9.87c-1.89,0-3.59-0.3-4.93-0.75c-1.35-0.4-2.24-0.75-2.84-1.05
			c-0.45-1.19-1.1-5.39-1.45-8.18l1.69-0.5c0.9,3.14,3.59,8.52,8.47,8.52c3.34,0,5.39-2.2,5.39-5.54c0-3.19-2.39-5.03-6.13-6.97
			c-4.43-2.29-8.52-4.94-8.52-10.02c0-5.18,4.13-9.42,10.96-9.42c2.89,0,5.43,0.85,6.73,1.25c0.2,1.84,0.5,3.94,0.9,7.07
			L257.16,150.84z"/>
	</g>
	<g>
		<g>
			<path class="st0" d="M307.86,161.65c-2.99,0.45-3.19,0.7-3.19,3.64v4.23c0,1.75,0.05,3.34,0.35,4.69
				c-3.09,0.75-7.17,1.84-11.16,1.84c-10.96,0-18.29-6.83-18.29-16.7c0-11.56,9.27-17.19,19.04-17.19c4.14,0,7.98,1.1,9.57,1.45
				c0.15,1.74,0.4,4.48,0.8,7.77l-1.4,0.3c-1.2-6.08-4.98-7.73-9.72-7.73c-7.63,0-13.21,5.58-13.21,14.8
				c0,7.18,4.23,15.55,13.85,15.55c1.7,0,3.24-0.35,4.34-0.9c1-0.55,1.59-1.15,1.59-3.24v-4.24c0-3.59-0.34-3.89-5.23-4.29v-1.35
				h12.66V161.65z"/>
		</g>
		<path class="st0" d="M334.65,175.61h-1.16c-4.03,0-5.64-1.11-7.14-3.27c-1.1-1.61-2.51-3.97-3.22-5.23
			c-0.9-1.51-1.46-1.86-3.42-1.86h-1.11v4.68c0,3.48,0.3,3.77,3.57,4.03v1.36h-11.16v-1.36c3.32-0.25,3.62-0.5,3.62-4.03v-12.52
			c0-3.67-0.3-3.82-3.47-4.07v-1.36h11.06c2.57,0,4.43,0.3,5.93,1.21c1.46,0.9,2.57,2.51,2.57,4.82c0,3.27-2.36,5.13-4.78,6.03
			c0.6,1.01,2.16,3.62,3.32,5.23c1.26,1.81,1.9,2.62,2.76,3.52c0.86,0.9,1.86,1.35,2.77,1.66L334.65,175.61z M320.67,163.69
			c1.41,0,2.61-0.2,3.67-0.8c1.31-0.8,1.96-2.46,1.96-4.23c0-3.67-2.46-5.13-5.38-5.13c-2.11,0-2.31,0.45-2.31,1.96v8.19H320.67z
			 M352.1,175.31v-1.36l0.96-0.1c1.51-0.2,1.81-0.6,1.1-2.41l-1.41-3.77h-8.25c-0.4,1-0.81,2.16-1.16,3.52
			c-0.61,2.01-0.1,2.41,1.36,2.61l1.21,0.15v1.36h-9.11v-1.36c2.31-0.25,3.27-0.6,4.78-4.27l7.39-18l1.51-0.41l7.8,19.26
			c1.16,2.97,2.06,3.26,4.38,3.42v1.36H352.1z M348.68,156.9h-0.1l-3.32,8.8h6.69L348.68,156.9z M377.49,151.98
			c4.33,0,8.05,0.85,10.56,3.17c1.8,1.66,3.11,4.37,3.11,7.69c0,8.6-6.94,12.47-15.18,12.47h-10.06v-1.36
			c3.37-0.25,3.67-0.55,3.67-4.07v-12.37c0-3.71-0.3-3.92-3.37-4.17v-1.36H377.49z M373.67,169.68c0,3.22,0.81,3.97,3.68,3.97
			c5.98,0,9.1-3.97,9.1-10.11c0-7.34-4.02-9.96-9.55-9.96c-1.46,0-2.46,0.25-2.76,0.66c-0.31,0.3-0.46,0.95-0.46,2.31V169.68z
			 M421.24,153.33c-2.41,0.2-3.31,0.6-3.47,2.36c-0.15,1.16-0.25,2.82-0.25,6.19v2.77c0,3.37-0.7,6.58-2.76,8.64
			c-1.66,1.71-4.18,2.67-6.84,2.67c-2.36,0-4.58-0.46-6.34-1.81c-2.06-1.61-3.22-4.22-3.22-8.45v-8.3c0-3.52-0.3-3.77-3.52-4.07
			v-1.36h11.01v1.36c-3.16,0.3-3.42,0.55-3.42,4.07v7.19c0,5.78,2.26,8.9,6.53,8.9c4.53,0,6.64-3.42,6.64-9.3v-2.31
			c0-3.47-0.1-5.03-0.25-6.19c-0.2-1.76-1.06-2.21-3.92-2.36v-1.36h9.8V153.33z M436.08,175.31v-1.36l0.95-0.1
			c1.51-0.2,1.81-0.6,1.11-2.41l-1.41-3.77h-8.25c-0.4,1-0.8,2.16-1.15,3.52c-0.6,2.01-0.1,2.41,1.36,2.61l1.21,0.15v1.36h-9.1
			v-1.36c2.31-0.25,3.27-0.6,4.78-4.27l7.39-18l1.51-0.41l7.8,19.26c1.15,2.97,2.06,3.26,4.37,3.42v1.36H436.08z M432.66,156.9h-0.1
			l-3.32,8.8h6.69L432.66,156.9z M467.16,158.41c-0.45-1.96-0.86-3.06-1.31-3.72c-0.65-0.81-1.76-1.11-3.97-1.11h-2.22v16.14
			c0,3.67,0.3,3.92,3.93,4.17v1.41h-11.87v-1.41c3.52-0.25,3.82-0.5,3.82-4.12v-16.19h-1.56c-3.12,0-3.87,0.35-4.53,1.26
			c-0.5,0.76-0.86,1.71-1.26,3.57h-1.41c0.15-2.91,0.4-5.53,0.45-7.29h1.06c0.56,0.8,1,0.91,1.96,0.86h14.98
			c1.01,0,1.31-0.2,1.86-0.86h1.06c0,1.56,0.2,5.03,0.45,7.19L467.16,158.41z M492.95,169.12c-0.25,1.51-1,5.18-1.31,6.18h-19.41
			v-1.36c3.56-0.3,3.82-0.6,3.82-4.17v-12.27c0-3.67-0.25-3.92-3.47-4.12v-1.41h18.1c0.05,1,0.2,3.47,0.4,5.78l-1.35,0.1
			c-0.45-1.55-0.85-2.41-1.36-3.06c-0.65-0.81-1.46-1.16-4.17-1.16h-2.66c-1.31,0-1.41,0.05-1.41,1.41v7.24h3.67
			c3.02,0,3.27-0.3,3.73-2.76h1.41v7.59h-1.41c-0.46-2.57-0.71-2.92-3.73-2.92h-3.67v5.78c0,1.92,0.25,2.82,0.86,3.22
			c0.6,0.4,1.81,0.5,3.87,0.5c2.56,0,3.87-0.3,4.77-1.26c0.6-0.71,1.26-1.76,1.91-3.57L492.95,169.12z M525.19,150.22
			c-0.85-3.17-2.21-6.64-6.58-6.64c-3.87,0-5.59,2.77-5.59,5.48c0,3.67,2.41,5.43,6.39,7.44c3.97,2.06,8.7,4.37,8.7,10.06
			c0,5.28-4.48,9.5-11.16,9.5c-2.06,0-3.72-0.4-4.93-0.75c-1.26-0.4-2.01-0.81-2.52-1.06c-0.35-1.06-1-5.38-1.36-7.79l1.51-0.36
			c0.75,3.07,3.02,8.15,8.25,8.15c3.82,0,6.03-2.36,6.03-6.04c0-3.72-2.76-5.48-6.53-7.49c-3.22-1.77-8.29-4.22-8.29-9.91
			c0-4.83,3.87-8.95,10.36-8.95c2.31,0,4.43,0.55,6.33,1.15c0.2,1.76,0.45,3.77,0.85,6.95L525.19,150.22z M555.81,168.62
			c-0.4,1.71-1.35,5.03-2.06,6.34c-1.01,0.25-4.78,1.01-7.24,1.01c-9.15,0-13.47-5.83-13.47-12.07c0-7.54,6.24-12.57,14.28-12.57
			c3.17,0,5.79,0.7,7.09,1.06c0.31,2.01,0.4,3.87,0.7,6.18l-1.46,0.25c-1.01-4.38-3.52-5.88-7.19-5.88c-5.08,0-8.7,4.32-8.7,10.36
			c0,6.53,4.03,11.01,8.9,11.01c3.62,0,5.88-2.02,7.74-6.04L555.81,168.62z M575.57,175.31v-1.36c3.22-0.3,3.52-0.55,3.52-4.17
			v-5.83h-11.82v5.83c0,3.67,0.3,3.92,3.37,4.17v1.36h-11.01v-1.36c3.26-0.25,3.57-0.5,3.57-4.17v-12.22c0-3.72-0.31-3.92-3.67-4.22
			v-1.36h11.17v1.36c-3.12,0.3-3.42,0.46-3.42,4.22v4.43h11.82v-4.48c0-3.67-0.3-3.92-3.42-4.17v-1.36h11.01v1.31
			c-3.22,0.35-3.52,0.56-3.52,4.22v12.27c0,3.62,0.3,3.87,3.52,4.17v1.36H575.57z M616,163.39c0,8.35-6.38,12.57-12.47,12.57
			c-8.04,0-12.62-5.94-12.62-11.87c0-8.9,7.04-12.77,12.67-12.77C610.93,151.32,616,156.55,616,163.39z M595.64,162.94
			c0,6.74,3.47,11.46,8.4,11.46c3.82,0,7.24-2.77,7.24-10.01c0-5.73-3.01-11.46-8.25-11.46
			C599.21,152.93,595.64,156.3,595.64,162.94z M646.33,163.39c0,8.35-6.38,12.57-12.47,12.57c-8.04,0-12.62-5.94-12.62-11.87
			c0-8.9,7.04-12.77,12.67-12.77C641.25,151.32,646.33,156.55,646.33,163.39z M625.97,162.94c0,6.74,3.47,11.46,8.4,11.46
			c3.82,0,7.24-2.77,7.24-10.01c0-5.73-3.01-11.46-8.24-11.46C629.53,152.93,625.97,156.3,625.97,162.94z M670.32,168.77
			c-0.3,1.51-1.06,5.43-1.36,6.54h-18.8v-1.36c3.52-0.25,3.77-0.5,3.77-4.12v-12.47c0-3.62-0.3-3.77-3.52-4.02v-1.36h11.31v1.36
			c-3.42,0.25-3.72,0.4-3.72,4.02v12.97c0,1.76,0.25,2.67,0.9,3.02c0.75,0.3,1.96,0.4,3.67,0.4c2.31-0.05,3.62-0.35,4.47-1.31
			c0.71-0.81,1.16-1.91,1.86-3.82L670.32,168.77z"/>
	</g>
	<g>
		<g>
			<path class="st0" d="M324.15,125.19c-4.21,0-7.2-3.15-7.2-7.31c0-4.4,3.33-7.32,7.2-7.32c3.83,0,7.16,2.91,7.16,7.32
				C331.31,122.28,327.98,125.19,324.15,125.19 M324.15,111.83c-3.17,0-5.64,2.49-5.64,6.05c0,3.32,2.15,6.04,5.64,6.04
				c3.13,0,5.59-2.46,5.59-6.04C329.73,114.32,327.27,111.83,324.15,111.83 M322.7,122.07h-1.33v-8.1h3.07
				c1.95,0,2.95,0.68,2.95,2.32c0,1.47-0.9,2.07-2.11,2.21l2.27,3.56h-1.51l-2.1-3.46h-1.25V122.07z M324.18,117.46
				c1,0,1.88-0.09,1.88-1.27c0-0.98-0.96-1.09-1.76-1.09h-1.6v2.36H324.18z"/>
			<path class="st0" d="M90.95,122.85c16.57,0,24.14-8.55,24.14-22.97V68.99H98.61v30.89c0,7.3-1.71,10.9-7.48,10.9
				c-5.85,0-7.48-3.6-7.48-10.9V68.99H67.18v31.71C67.18,115.55,74.38,122.85,90.95,122.85"/>
		</g>
		<path class="st0" d="M239.64,113.21h14.96l2.16,8.74h16.84l-12.43-52.96h-26.84l-13.6,52.96h16.66L239.64,113.21z M246.12,81.69
			h2.89l3.86,20.08h-11.25L246.12,81.69z"/>
		<polygon class="st0" points="200.45,68.99 183.97,68.99 183.97,121.95 213.26,121.95 216.14,110.51 200.45,110.51 		"/>
		<g>
			<path class="st0" d="M297.86,107.36h5.4c13.7,0,20.9-9.01,20.9-20.36c0-10.81-2.88-18.01-19.64-18.01h-22.78v52.96h16.21
				L297.86,107.36z M297.86,80.42h5.4c5.05,0,5.86,2.34,5.86,7.48c0,5.59-2.33,8.02-5.86,8.02h-5.4V80.42z"/>
			<path class="st0" d="M175.28,93.22c0-20.72-7.75-24.23-27.83-24.23h-21.62v52.96h19.37C163.94,121.95,175.28,112.58,175.28,93.22
				 M142.05,80.7h7.57c7.03,0,9.64,3.69,9.64,13.88c0,8.91-2.52,16.02-12.6,16.02h-4.6V80.7z"/>
		</g>
	</g>
</g>
</svg>
