<?xml version="1.0" encoding="utf-8"?>
<!-- Generator: Adobe Illustrator 25.4.1, SVG Export Plug-In . SVG Version: 6.00 Build 0)  -->
<svg version="1.1" id="Capa_1" xmlns="http://www.w3.org/2000/svg" xmlns:xlink="http://www.w3.org/1999/xlink" x="0px" y="0px"
	 viewBox="0 0 419.4 226.1" style="enable-background:new 0 0 419.4 226.1;" xml:space="preserve">
<style type="text/css">
	.st0{fill:#258A7C;}
	.st1{fill:#FFFFFF;}
</style>
<g>
	<g>
		<path class="st0" d="M14.3,168.4h4l-7.9,39.9H26l-0.7,3.6H5.8L14.3,168.4z"/>
		<path class="st0" d="M38,180.8h4l-6,31.1h-4L38,180.8z M39.9,169.1h4.7l-1.1,5.7h-4.7L39.9,169.1z"/>
		<path class="st0" d="M61.4,180.2c3.2,0,5.9,0.7,7.7,1.6h0.1c0,0,0.4-2.2,0.9-5.2l1.9-9.8h4l-8.7,45h-3.5c0.1-0.5,0.4-4.1,0.4-4.1
			h-0.1c-2.7,2.7-6.3,4.7-10.7,4.7c-5.1,0-8.7-2.5-6.2-15.1C50,183,54.8,180.2,61.4,180.2z M68.5,185c-1.7-0.7-4.3-1.2-6.5-1.2
			c-4.7,0-8.4,1.7-10.7,13.6c-2,10.3,0.1,11.6,3.1,11.6c3.7,0,7.8-2.5,10.6-5.5L68.5,185z"/>
		<path class="st0" d="M93.3,180c7.7,0,10.6,4.3,9.5,9.7c-1.2,6.4-3.5,7.5-9.4,7.5c-4.7,0-9.2-0.9-10.9-1.5l-0.2,1.2
			c-1.9,10,0.8,11.9,6.1,11.9c4.2,0,7.3-0.9,9.5-1.6l0.1,3.2c-1.1,0.4-4.6,1.9-10.4,1.9c-8.3,0-11.5-4.2-9.3-16
			C80.6,184.7,84.6,180,93.3,180z M93,194.1c4.2,0,5.2-1.2,5.9-4.6c0.7-3.7-1.2-6.1-5.7-6.1c-5.3,0-8.2,2.9-9.9,9.2
			C85,193,89.1,194.1,93,194.1z"/>
		<path class="st0" d="M112.6,180.8h3.5c-0.1,0.9-0.6,4.2-0.6,4.2h0.1c2.6-2.6,5.9-4.7,9.6-4.7c1.2,0,2.6,0.1,3.1,0.3l-1.4,3.8
			c-0.7-0.1-1.6-0.2-2.6-0.2c-3.6,0-6.8,2.3-9.4,5.1l-4.4,22.6h-4L112.6,180.8z"/>
		<path class="st0" d="M143.4,180.2c3.6,0,7.5,0.8,11.2,2.1l-4.2,22.8c-0.7,3.4-0.2,4.6,3.7,3.5l0.1,2.9c-1,0.4-2.3,0.6-3.8,0.6
			c-3.3,0-3.9-2.1-4-4.6h-0.1c-2.9,2.7-6.7,4.9-11.3,4.9c-4.8,0-8.4-2.5-6-15.2C131.7,183,137,180.2,143.4,180.2z M132.9,197.3
			c-1.9,9.9-0.1,11.7,2.9,11.7c4.1,0,8-2.6,10.8-5.5l3.6-18.5c-1.7-0.7-4.6-1.2-6.6-1.2C139.3,183.7,135.2,185.4,132.9,197.3z"/>
		<path class="st0" d="M179.4,183.9h-4.6l0.6-3.1h4.5l2-8.4l3.7-0.4l-1.7,8.7h8.6l-1.1,3.1h-8.1l-4.2,21.3c-0.7,3.4,0.4,3.7,2.7,3.7
			c1.6,0,4.2-0.6,4.6-0.6l0.1,3.2c-1.1,0.4-3.4,0.9-5.7,0.9c-4.1,0-6.9-0.9-5.7-7L179.4,183.9z"/>
		<path class="st0" d="M203.1,180.8l-4.3,22c-0.9,4.9,1,6.1,3.6,6.1c3.9,0,7.9-2.6,10.7-5.5l4.4-22.6h4l-6,31.1h-3.6
			c0.2-0.9,0.5-4.1,0.5-4.1h-0.1c-2.6,2.6-6.1,4.7-11,4.7c-3.2,0-7.9-1.6-6.5-9.2l4.4-22.4H203.1z"/>
		<path class="st0" d="M241.7,180.8h4.7l1.2-6.2c1.3-6.9,4.6-8.2,9.4-8.2c2.4,0,5,0.3,6.4,0.6l-1.2,3.2c-1.3-0.1-3.2-0.4-5.2-0.4
			c-2.9,0-4.7,0.7-5.6,5.3l-1.1,5.6h8.7l-1.1,3.1h-8.3l-5.8,30.7c-1.5,7.6-3.5,9.4-8.9,10.7c-1,0.2-2.2,0.5-3.6,0.7l-0.3-3.2
			c1.4-0.4,3.1-0.7,3.9-1c3.1-0.9,3.9-2.5,4.9-7.2l5.9-30.7h-4.6L241.7,180.8z"/>
		<path class="st0" d="M267.9,180.8l-4.3,22c-0.9,4.9,1,6.1,3.6,6.1c3.9,0,7.9-2.6,10.7-5.5l4.4-22.6h4l-6,31.1h-3.6
			c0.2-0.9,0.5-4.1,0.5-4.1H277c-2.6,2.6-6.1,4.7-11,4.7c-3.2,0-7.9-1.6-6.5-9.2l4.4-22.4H267.9z"/>
		<path class="st0" d="M296.2,183.9h-4.6l0.6-3.1h4.5l2-8.4l3.7-0.4l-1.7,8.7h8.6l-1.1,3.1h-8.1l-4.2,21.3c-0.7,3.4,0.4,3.7,2.7,3.7
			c1.6,0,4.2-0.6,4.6-0.6l0.1,3.2c-1.1,0.4-3.4,0.9-5.7,0.9c-4.1,0-6.9-0.9-5.7-7L296.2,183.9z"/>
		<path class="st0" d="M319.8,180.8l-4.3,22c-0.9,4.9,1,6.1,3.6,6.1c3.9,0,7.9-2.6,10.7-5.5l4.4-22.6h4l-6,31.1h-3.6
			c0.2-0.9,0.5-4.1,0.5-4.1h-0.1c-2.6,2.6-6.1,4.7-11,4.7c-3.2,0-7.9-1.6-6.5-9.2l4.4-22.4H319.8z"/>
		<path class="st0" d="M348,180.8h3.5c-0.1,0.9-0.6,4.2-0.6,4.2h0.1c2.6-2.6,5.9-4.7,9.6-4.7c1.2,0,2.6,0.1,3.1,0.3l-1.4,3.8
			c-0.7-0.1-1.6-0.2-2.6-0.2c-3.6,0-6.8,2.3-9.4,5.1l-4.4,22.6h-4L348,180.8z"/>
		<path class="st0" d="M364.5,196.9c2.1-11,6-16.8,15.2-16.8s11.2,5.8,9.2,16.8c-2.2,11-5.9,15.7-15,15.7
			C364.5,212.6,362.3,207.9,364.5,196.9z M384.8,196.9c1.8-9.3,0.3-13.3-5.6-13.3c-5.9,0-8.9,4-10.7,13.3
			c-1.9,9.3-0.1,12.2,5.8,12.2C380.1,209.1,382.9,206.2,384.8,196.9z"/>
		<path class="st0" d="M394.7,206.1h5.1l-1.1,5.8h-5.1L394.7,206.1z"/>
	</g>
	<path class="st0" d="M392.3,0.1h-84l-16.8,38.6l73.5,0.6c8,0,4.7,9.9,0.8,9.8c-12.3-0.4-48.4,0.9-48.4,0.9
		c-42.9,3.5-46.1,45.6-46.1,45.6l30-0.1l-23,54.7h108.4c-5.8-1.2-10.6-0.5-7.2-13.1c0.2-0.9,25-62,25-62s7.1-16,11.4-27.8
		c1.3-3.6,3.8-6.7,3.7-16.5C419.3,10.9,398.6,0.1,392.3,0.1 M352.7,98.2c0,0-9.1,16.1-20.5,8.4c-11.4-7.8-4.8-18.1-4.4-18.8
		c1.3-2.1,4.4-5.8,7.5-6.7c4.2-1.3,26.4-0.1,26.4-0.1L352.7,98.2z"/>
	<path class="st0" d="M21.2,52.3C32.9,25.1,43.7,0.4,43.7,0.4h51.5c0,0-21.3,56.1-30.1,73.9c-6.4,13.1-5.8,20.2-0.4,26.7
		c2,2.4,14.2,14.4,27.5,0.8L133.8,0h53.1l-40,96.4c0,0-2.4,13.3,13.4,11l-5.7,14.8l-11.9,28.1c0,0-35.7,0.2-39.7-0.9
		c-3-0.8-9.4-3-14.9-17.8c-1.8-4.7-3.1-12.2-0.1-20l-8.5,11.1c0,0-20.2,28.5-47.9,27.5c-14.3-0.4-38.1-14.6-29.6-49.3
		C5.3,86.8,14,69.3,21.2,52.3"/>
	<path class="st0" d="M211.3,0l-43.7,107.7c0,0-9.3,19.1-2.1,30.2c7.2,10.9,19.3,12.5,19.3,12.5h85.7l17.1-42.7h-50.7
		c0,0-11.1-0.7-7.8-13.1l38.8-94.5L211.3,0"/>
</g>
</svg>
