<svg id="Capa_1" data-name="Capa 1" xmlns="http://www.w3.org/2000/svg" viewBox="0 0 1336 1080"><defs><style>.cls-1{fill:#e84626;}.cls-2{fill:#f39212;}.cls-3{fill:#fff;}.cls-4{fill:#575756;}</style></defs><polygon class="cls-1" points="738.95 598.68 1014.97 499.14 1014.97 285.71 738.95 98.86 738.95 598.68"/><polygon class="cls-2" points="323.03 290.16 738.95 290.16 738.95 598.68 323.03 500.85 323.03 290.16"/><polygon class="cls-3" points="928.78 508.04 928.78 329.83 895.94 329.83 895.94 439.63 817.96 329.83 790.25 329.83 790.25 508.04 824.8 508.04 824.8 399.27 900.73 508.04 928.78 508.04"/><rect class="cls-3" x="738.95" y="329.83" width="35.91" height="178.2"/><polygon class="cls-3" points="684.37 329.83 631.89 435.18 579.41 329.83 545.7 329.83 545.7 508.04 579.41 508.04 579.41 398.24 620.42 485.8 631.89 485.8 643.36 485.8 684.37 398.24 684.37 508.04 718.08 508.04 718.08 329.83 684.37 329.83"/><path class="cls-3" d="M460.53,479.55C442.14,480,425,465.07,425,446.67V329.83H391.09V456.69a32.21,32.21,0,0,0,.65,6.5c2.56,12.36,14.68,48.61,68.79,48.61s66.22-36.25,68.78-48.61a31.5,31.5,0,0,0,.65-6.5V329.83H496.1V446.67C496.1,465.07,478.91,480,460.53,479.55Z"/><polygon class="cls-2" points="738.95 618.52 323.03 511.8 323.03 518.18 738.95 651.81 738.95 618.52"/><polygon class="cls-2" points="738.95 697.87 738.95 671.42 323.03 524.57 323.03 532.78 738.95 697.87"/><polygon class="cls-1" points="738.95 618.52 1014.97 511.8 1014.97 520.69 738.95 651.81 738.95 618.52"/><polygon class="cls-1" points="738.95 671.42 1014.97 526.16 1014.97 532.66 738.95 697.87 738.95 671.42"/><path class="cls-4" d="M112.23,786.56v40.93a24.29,24.29,0,0,1-3,12.26,20.06,20.06,0,0,1-8.7,8.09,30.21,30.21,0,0,1-13.61,2.84q-11.76,0-18.3-6.23t-6.53-17.14V786.56H72.47v40q0,7.83,3.64,11.55t11.16,3.72q14.63,0,14.62-15.36V786.56Z"/><path class="cls-4" d="M181.11,849.81H168.43l-31.1-50.4H137l.22,2.81q.6,8.06.6,14.71v32.88h-9.39V786.56H141l31,50.14h.26c-.06-.66-.17-3.08-.35-7.24s-.26-7.42-.26-9.76V786.56h9.48Z"/><path class="cls-4" d="M197.81,849.81V786.56h10.34v63.25Z"/><path class="cls-4" d="M260.89,786.56h10.73l-22.15,63.25H238.56L216.5,786.56h10.64l13.2,39.33c.69,1.87,1.42,4.29,2.2,7.24s1.29,5.16,1.52,6.6q.56-3.29,1.73-7.61c.78-2.89,1.41-5,1.9-6.41Z"/><path class="cls-4" d="M315.75,849.81H280V786.56h35.78v8.74H290.31v17.22h23.84v8.65H290.31V841h25.44Z"/><path class="cls-4" d="M339.76,824.54v25.27H329.42V786.56h17.87q12.24,0,18.12,4.59T371.3,805q0,11.81-12.29,16.83l17.87,28H365.11L350,824.54Zm0-8.56h7.18q7.23,0,10.47-2.68t3.24-8c0-3.58-1.16-6.15-3.5-7.71s-5.86-2.33-10.56-2.33h-6.83Z"/><path class="cls-4" d="M422.52,832.63q0,8.45-6.1,13.24t-16.83,4.81q-10.72,0-17.56-3.33v-9.78a48.18,48.18,0,0,0,9.19,3.2,38.91,38.91,0,0,0,9.06,1.17q6.15,0,9.07-2.34a7.64,7.64,0,0,0,2.92-6.27,7.88,7.88,0,0,0-2.69-6c-1.78-1.64-5.48-3.59-11.07-5.84q-8.65-3.5-12.2-8a16.9,16.9,0,0,1-3.55-10.82q0-7.9,5.63-12.46t15.09-4.54a44.44,44.44,0,0,1,18.09,4l-3.29,8.44q-8.43-3.55-15-3.55-5,0-7.62,2.19a7.16,7.16,0,0,0-2.59,5.77,8.17,8.17,0,0,0,1,4.22,10.66,10.66,0,0,0,3.42,3.31,57.47,57.47,0,0,0,8.57,4.11,46.69,46.69,0,0,1,10.21,5.41,16,16,0,0,1,4.76,5.66A17.07,17.07,0,0,1,422.52,832.63Z"/><path class="cls-4" d="M434.76,849.81V786.56H445.1v63.25Z"/><path class="cls-4" d="M513.25,817.58q0,15.66-8.7,23.95t-25.05,8.28H461.8V786.56h19.56q15.11,0,23.49,8.13T513.25,817.58Zm-10.91.35q0-22.73-21.24-22.72h-9v45.91h7.36Q502.35,841.12,502.34,817.93Z"/><path class="cls-4" d="M566.07,849.81l-6.32-17.56H535.57l-6.19,17.56h-10.9l23.67-63.51h11.24l23.67,63.51Zm-9-26.48-5.93-17.21q-.65-1.74-1.79-5.46c-.77-2.48-1.3-4.29-1.58-5.45a97,97,0,0,1-3.42,11.64l-5.71,16.48Z"/><path class="cls-4" d="M636.85,817.58q0,15.66-8.7,23.95t-25,8.28H585.41V786.56H605q15.1,0,23.5,8.13T636.85,817.58Zm-10.9.35q0-22.73-21.24-22.72h-9v45.91h7.35Q625.95,841.12,626,817.93Z"/><path class="cls-4" d="M700.79,849.81,682.45,797h-.35q.74,11.76.74,22.06v30.76h-9.39V786.56H688l17.57,50.32h.26l18.08-50.32h14.62v63.25h-9.95V818.53q0-4.71.24-12.29t.41-9.17h-.34l-19,52.74Z"/><path class="cls-4" d="M791,849.81H755.22V786.56H791v8.74H765.56v17.22H789.4v8.65H765.56V841H791Z"/><path class="cls-4" d="M851.27,849.81h-11.9l-15.84-25.87-16,25.87H796.49l21-32.79-19.65-30.46h11.51L824,810.48l14.62-23.92h11.16L830,817.19Z"/><path class="cls-4" d="M859.79,849.81V786.56h10.34v63.25Z"/><path class="cls-4" d="M913.74,794.52q-8.91,0-14,6.32t-5.1,17.43q0,11.64,4.91,17.61t14.21,6a37.63,37.63,0,0,0,7.79-.8c2.51-.53,5.12-1.22,7.83-2v8.86a47.38,47.38,0,0,1-16.88,2.82q-13.87,0-21.32-8.42t-7.45-24.07a38.93,38.93,0,0,1,3.62-17.27,25.73,25.73,0,0,1,10.44-11.33,31.57,31.57,0,0,1,16.06-3.94,39.85,39.85,0,0,1,17.91,4.07L928,798.33a55.72,55.72,0,0,0-6.77-2.66A24.27,24.27,0,0,0,913.74,794.52Z"/><path class="cls-4" d="M982.23,849.81l-6.32-17.56H951.72l-6.18,17.56H934.63L958.3,786.3h11.25l23.66,63.51Zm-9.05-26.48-5.92-17.21q-.66-1.74-1.8-5.46c-.76-2.48-1.29-4.29-1.58-5.45a97,97,0,0,1-3.42,11.64l-5.71,16.48Z"/><path class="cls-4" d="M1054.26,849.81h-12.68l-31.1-50.4h-.35l.22,2.81q.6,8.06.6,14.71v32.88h-9.39V786.56h12.55l31,50.14h.26c-.06-.66-.17-3.08-.35-7.24s-.26-7.42-.26-9.76V786.56h9.48Z"/><path class="cls-4" d="M1110.2,849.81l-6.32-17.56H1079.7l-6.19,17.56h-10.9l23.66-63.51h11.25l23.67,63.51Zm-9-26.48-5.93-17.21q-.64-1.74-1.8-5.46c-.76-2.48-1.29-4.29-1.57-5.45a97,97,0,0,1-3.42,11.64l-5.71,16.48Z"/><path class="cls-4" d="M1204,817.58q0,15.66-8.7,23.95t-25,8.28h-17.7V786.56h19.56q15.09,0,23.49,8.13T1204,817.58Zm-10.91.35q0-22.73-21.24-22.72h-9v45.91h7.36Q1193.1,841.12,1193.09,817.93Z"/><path class="cls-4" d="M1253.36,849.81h-35.78V786.56h35.78v8.74h-25.44v17.22h23.84v8.65h-23.84V841h25.44Z"/><path class="cls-4" d="M68.65,956.14V892.88H79v63.26Z"/><path class="cls-4" d="M148.38,956.14H135.7l-31.1-50.41h-.35l.22,2.82q.6,8,.6,14.71v32.88H95.69V892.88h12.54l31,50.15h.26c-.06-.67-.17-3.08-.34-7.25s-.26-7.42-.26-9.76V892.88h9.47Z"/><path class="cls-4" d="M217.78,956.14H205.1L174,905.73h-.34l.21,2.82q.62,8,.61,14.71v32.88h-9.39V892.88h12.55l31,50.15h.26c-.06-.67-.18-3.08-.35-7.25s-.26-7.42-.26-9.76V892.88h9.48Z"/><path class="cls-4" d="M290.63,924.42q0,15.45-7.72,24T261,957q-14.33,0-22-8.5t-7.68-24.16q0-15.66,7.72-24.06t22-8.39q14.1,0,21.8,8.52T290.63,924.42Zm-48.28,0q0,11.69,4.71,17.72t14,6q9.21,0,13.91-6t4.69-17.79q0-11.62-4.65-17.65t-13.86-6q-9.31,0-14,6T242.35,924.42Z"/><path class="cls-4" d="M340.25,892.88H351l-22.15,63.26h-10.9l-22.06-63.26h10.64l13.19,39.33c.7,1.88,1.43,4.29,2.21,7.25s1.28,5.15,1.52,6.6c.37-2.2.95-4.73,1.73-7.62s1.41-5,1.9-6.4Z"/><path class="cls-4" d="M398.57,956.14l-6.31-17.57H368.07l-6.18,17.57H351l23.67-63.52H385.9l23.66,63.52Zm-9-26.48-5.92-17.22q-.66-1.73-1.8-5.45t-1.58-5.45a98.12,98.12,0,0,1-3.42,11.64l-5.71,16.48Z"/><path class="cls-4" d="M444.82,900.85q-8.91,0-14,6.31T425.7,924.6q0,11.64,4.91,17.61t14.21,6a37.56,37.56,0,0,0,7.79-.8c2.51-.54,5.12-1.22,7.83-2.06v8.87A47.55,47.55,0,0,1,443.57,957q-13.89,0-21.33-8.41t-7.44-24.08a38.85,38.85,0,0,1,3.61-17.26,25.83,25.83,0,0,1,10.45-11.34A31.66,31.66,0,0,1,444.91,892,39.84,39.84,0,0,1,462.82,896l-3.72,8.61a56.07,56.07,0,0,0-6.77-2.66A24.52,24.52,0,0,0,444.82,900.85Z"/><path class="cls-4" d="M474.07,956.14V892.88h10.34v63.26Z"/><path class="cls-4" d="M557.27,924.42q0,15.45-7.73,24T527.67,957q-14.31,0-22-8.5T498,924.34q0-15.66,7.73-24.06t22-8.39q14.1,0,21.8,8.52T557.27,924.42Zm-48.29,0q0,11.69,4.72,17.72t14,6q9.23,0,13.91-6t4.7-17.79q0-11.62-4.65-17.65t-13.87-6q-9.3,0-14,6T509,924.42Zm12.2-36.6v-1.08c1.65-2,3.34-4.27,5.09-6.75s3.12-4.6,4.13-6.36h11.81v.91a89.08,89.08,0,0,1-6.73,6.82,94.16,94.16,0,0,1-7.55,6.46Z"/><path class="cls-4" d="M623.55,956.14H610.87l-31.11-50.41h-.34l.21,2.82q.61,8,.61,14.71v32.88h-9.39V892.88H583.4l31,50.15h.26c-.06-.67-.18-3.08-.35-7.25s-.26-7.42-.26-9.76V892.88h9.48Z"/><path class="cls-4" d="M699,956.14H663.26V892.88H699v8.74H673.6v17.22h23.84v8.66H673.6v19.85H699Z"/><path class="cls-4" d="M765.41,956.14H752.73l-31.1-50.41h-.35l.22,2.82q.6,8,.6,14.71v32.88h-9.39V892.88h12.55l31,50.15h.26c-.06-.67-.17-3.08-.35-7.25s-.26-7.42-.26-9.76V892.88h9.48Z"/><path class="cls-4" d="M857.82,956.14H845.14L814,905.73h-.35l.22,2.82q.6,8,.6,14.71v32.88h-9.39V892.88h12.55l31,50.15H849c-.06-.67-.17-3.08-.35-7.25s-.26-7.42-.26-9.76V892.88h9.48Z"/><path class="cls-4" d="M910.3,956.14H874.52V892.88H910.3v8.74H884.86v17.22H908.7v8.66H884.86v19.85H910.3Z"/><path class="cls-4" d="M949.84,921.83h23.28v31.75a67.43,67.43,0,0,1-11,2.64,77.49,77.49,0,0,1-11.36.78q-14.35,0-22.15-8.5t-7.78-24q0-15.27,8.78-23.9T953.82,892a47.22,47.22,0,0,1,18.78,3.8L969,904.39a36.56,36.56,0,0,0-15.4-3.54q-10.12,0-16,6.36t-5.88,17.39q0,11.6,5.3,17.63t15.25,6A50.51,50.51,0,0,0,963,947V930.7H949.84Z"/><path class="cls-4" d="M1044.46,924.42q0,15.45-7.72,24T1014.87,957q-14.32,0-22-8.5t-7.68-24.16q0-15.66,7.72-24.06t22-8.39q14.11,0,21.81,8.52T1044.46,924.42Zm-48.28,0q0,11.69,4.71,17.72t14,6q9.21,0,13.91-6t4.69-17.79q0-11.62-4.65-17.65t-13.87-6q-9.3,0-14,6T996.18,924.42Z"/><path class="cls-4" d="M1085,900.85q-8.93,0-14,6.31t-5.11,17.44q0,11.64,4.91,17.61t14.22,6a37.54,37.54,0,0,0,7.78-.8c2.51-.54,5.12-1.22,7.83-2.06v8.87A47.55,47.55,0,0,1,1083.7,957q-13.89,0-21.33-8.41t-7.44-24.08a38.85,38.85,0,0,1,3.61-17.26A25.83,25.83,0,0,1,1069,895.91a31.66,31.66,0,0,1,16-3.93A39.84,39.84,0,0,1,1103,896l-3.72,8.61a56.07,56.07,0,0,0-6.77-2.66A24.51,24.51,0,0,0,1085,900.85Z"/><path class="cls-4" d="M1114.2,956.14V892.88h10.34v63.26Z"/><path class="cls-4" d="M1197.4,924.42q0,15.45-7.72,24T1167.81,957q-14.32,0-22-8.5t-7.68-24.16q0-15.66,7.72-24.06t22-8.39q14.1,0,21.81,8.52T1197.4,924.42Zm-48.28,0q0,11.69,4.71,17.72t14,6q9.21,0,13.9-6t4.7-17.79q0-11.62-4.65-17.65t-13.87-6q-9.3,0-14,6T1149.12,924.42Z"/><path class="cls-4" d="M1247.45,939q0,8.43-6.1,13.24t-16.83,4.8q-10.73,0-17.56-3.33v-9.78a46.84,46.84,0,0,0,9.19,3.2,39,39,0,0,0,9.07,1.17q6.13,0,9.06-2.33a7.62,7.62,0,0,0,2.92-6.28,7.85,7.85,0,0,0-2.68-6q-2.68-2.46-11.08-5.84-8.65-3.51-12.2-8a17,17,0,0,1-3.55-10.81q0-7.92,5.63-12.46t15.1-4.54a44.27,44.27,0,0,1,18.08,4l-3.29,8.43q-8.43-3.54-15-3.54c-3.35,0-5.89.72-7.62,2.18a7.18,7.18,0,0,0-2.59,5.78,8,8,0,0,0,1,4.21,10.61,10.61,0,0,0,3.41,3.31,58,58,0,0,0,8.57,4.11,47.33,47.33,0,0,1,10.21,5.41,16,16,0,0,1,4.76,5.67A17,17,0,0,1,1247.45,939Z"/><path class="cls-4" d="M1257.1,950.73a6.66,6.66,0,0,1,1.65-4.85,7.52,7.52,0,0,1,9.56.07,6.73,6.73,0,0,1,1.64,4.78,6.88,6.88,0,0,1-1.66,4.87,6.25,6.25,0,0,1-4.79,1.79,6.16,6.16,0,0,1-4.75-1.77A6.93,6.93,0,0,1,1257.1,950.73Z"/></svg>