<?xml version="1.0" encoding="utf-8"?>
<!-- Generator: Adobe Illustrator 22.0.0, SVG Export Plug-In . SVG Version: 6.00 Build 0)  -->
<svg version="1.1" xmlns="http://www.w3.org/2000/svg" xmlns:xlink="http://www.w3.org/1999/xlink" x="0px" y="0px"
	 viewBox="0 0 2000 2000" style="enable-background:new 0 0 2000 2000;" xml:space="preserve">
<style type="text/css">
	.st0{fill:#0012A3;}
	.st1{fill:#DBA43E;}
	.st2{fill:#EFC870;}
	.st3{fill:#E2AC40;}
	.st4{fill:#EFC770;}
	.st5{fill:#F9C343;}
	.st6{fill:#FFFFFF;}
	.st7{fill:#FFBF34;}
	.st8{fill:#F9F9F9;}
	.st9{fill:#2D2E6A;}
	.st10{fill:#FDFDFD;}
	.st11{fill:#79BCD4;}
	.st12{fill:#27495F;}
	.st13{fill:#060221;}
	.st14{fill:none;stroke:#2C4269;stroke-width:2;stroke-miterlimit:10;}
</style>
<g id="LOGO">
	<g id="SHIELD">
		<path class="st0" d="M1000.2,1492.3c0,0,89.4-49.1,99.4-55.8H903.3L1000.2,1492.3z"/>
		<path class="st0" d="M1238.1,1329.3c0,0-242.8-22.2-470.8,0c0,0-89.7-88.5-91.7-226.5l-3-482.5l657.5,1.3v430.6
			C1330.1,1052.1,1340.6,1225.8,1238.1,1329.3z"/>
	</g>
	<g id="LAZO_1_">
		<g id="Capa_4">
			<path class="st1" d="M682.7,1374.8l-36.9,5.2c-0.3,0-0.4,0.3-0.2,0.5l28.9,43.4c0.1,0.1,0.1,0.2,0,0.3l-26.6,52.6
				c-0.1,0.2,0.1,0.5,0.3,0.5l114.3-9.4c0.4,0,0.4-0.6,0-0.7l-67.9-14c-0.1,0-0.1,0-0.2,0c-0.7,0.2-5.5,1.6-9.1,1.1
				c-4.1-0.6-4.6-6.5-0.6-7.7c0.2-0.1,0.5-0.1,0.7-0.1c0,0,0,0,0.1,0l-0.9-71.6c0-0.2-0.2-0.4-0.4-0.3L682.7,1374.8z"/>
			<path class="st2" d="M764.9,1467.8c0,0,1.1-10.5,0-22.1c0,0-67.2,5.5-70.3,7.6"/>
		</g>
		<g id="Capa_7">
			<path class="st3" d="M1319.2,1375.6l41.1,4.2l-29.3,41.5l28.7,52.3l-120.2-9.2l71.5-11.2c0,0,10.5,2.5,11.5-2.1
				c0,0,1.1-4.5-3.5-4.6s0,0,0,0L1319.2,1375.6z"/>
			<path class="st4" d="M1238.7,1445.4c0,0-0.8,13.7,0.8,19l71.5-11.2L1238.7,1445.4z"/>
		</g>
		<path class="st5" d="M685.6,1446.6c0,0-1.8-94.8,0-99.8c0,0,222.9-44.6,632.5-0.5c0,0,1.8,2.4,1,100.3
			C1319.1,1446.6,1024.9,1397.9,685.6,1446.6z"/>
	</g>
	<g id="DESTELLOS">
		<g id="DESTELLO">
			<path class="st6" d="M1067.2,825.5v45.1h-34.1C1033.1,870.6,1067.2,870.8,1067.2,825.5z"/>
			<path class="st6" d="M1067.2,825.5v45.1h34.1C1101.3,870.6,1067.2,870.8,1067.2,825.5z"/>
			<path class="st6" d="M1067.2,915.8v-45.1h34.1C1101.3,870.6,1067.2,870.5,1067.2,915.8z"/>
			<path class="st6" d="M1067.2,915.8v-45.1h-34.1C1033.1,870.6,1067.2,870.5,1067.2,915.8z"/>
		</g>
		<g id="Capa_9">
			<path class="st6" d="M1067.2,941.5v45.1h-34.1C1033.1,986.6,1067.2,986.8,1067.2,941.5z"/>
			<path class="st6" d="M1067.2,941.5v45.1h34.1C1101.3,986.6,1067.2,986.8,1067.2,941.5z"/>
			<path class="st6" d="M1067.2,1031.8v-45.1h34.1C1101.3,986.6,1067.2,986.5,1067.2,1031.8z"/>
			<path class="st6" d="M1067.2,1031.8v-45.1h-34.1C1033.1,986.6,1067.2,986.5,1067.2,1031.8z"/>
		</g>
		<g id="Capa_10">
			<path class="st6" d="M1067.2,1065.5v45.1h-34.1C1033.1,1110.6,1067.2,1110.8,1067.2,1065.5z"/>
			<path class="st6" d="M1067.2,1065.5v45.1h34.1C1101.3,1110.6,1067.2,1110.8,1067.2,1065.5z"/>
			<path class="st6" d="M1067.2,1155.8v-45.1h34.1C1101.3,1110.6,1067.2,1110.5,1067.2,1155.8z"/>
			<path class="st6" d="M1067.2,1155.8v-45.1h-34.1C1033.1,1110.6,1067.2,1110.5,1067.2,1155.8z"/>
		</g>
		<g id="Capa_11">
			<path class="st6" d="M1067.2,1184.5v45.1h-34.1C1033.1,1229.6,1067.2,1229.8,1067.2,1184.5z"/>
			<path class="st6" d="M1067.2,1184.5v45.1h34.1C1101.3,1229.6,1067.2,1229.8,1067.2,1184.5z"/>
			<path class="st6" d="M1067.2,1274.8v-45.1h34.1C1101.3,1229.6,1067.2,1229.5,1067.2,1274.8z"/>
			<path class="st6" d="M1067.2,1274.8v-45.1h-34.1C1033.1,1229.6,1067.2,1229.5,1067.2,1274.8z"/>
		</g>
		<g id="Capa_12">
			<path class="st6" d="M1193.2,941.5v45.1h-34.1C1159.1,986.6,1193.2,986.8,1193.2,941.5z"/>
			<path class="st6" d="M1193.2,941.5v45.1h34.1C1227.3,986.6,1193.2,986.8,1193.2,941.5z"/>
			<path class="st6" d="M1193.2,1031.8v-45.1h34.1C1227.3,986.6,1193.2,986.5,1193.2,1031.8z"/>
			<path class="st6" d="M1193.2,1031.8v-45.1h-34.1C1159.1,986.6,1193.2,986.5,1193.2,1031.8z"/>
		</g>
		<g id="Capa_13">
			<path class="st6" d="M1193.2,1065.5v45.1h-34.1C1159.1,1110.6,1193.2,1110.8,1193.2,1065.5z"/>
			<path class="st6" d="M1193.2,1065.5v45.1h34.1C1227.3,1110.6,1193.2,1110.8,1193.2,1065.5z"/>
			<path class="st6" d="M1193.2,1155.8v-45.1h34.1C1227.3,1110.6,1193.2,1110.5,1193.2,1155.8z"/>
			<path class="st6" d="M1193.2,1155.8v-45.1h-34.1C1159.1,1110.6,1193.2,1110.5,1193.2,1155.8z"/>
		</g>
		<g id="Capa_8">
			<path class="st6" d="M1193.2,825.5v45.1h-34.1C1159.1,870.6,1193.2,870.8,1193.2,825.5z"/>
			<path class="st6" d="M1193.2,825.5v45.1h34.1C1227.3,870.6,1193.2,870.8,1193.2,825.5z"/>
			<path class="st6" d="M1193.2,915.8v-45.1h34.1C1227.3,870.6,1193.2,870.5,1193.2,915.8z"/>
			<path class="st6" d="M1193.2,915.8v-45.1h-34.1C1159.1,870.6,1193.2,870.5,1193.2,915.8z"/>
		</g>
	</g>
	<g id="CORONA">
		<path class="st7" d="M1131.5,677.5v95.8c0,0-22-1.5-80.5,4.3c0,0-7.6-3.8-1.5-8.8c0,0,2.7,0.8,2.3,0.1c0,0,3.3-3.1-0.9-4.3
			c0,0-2.2-3-1.4-4.2l-1.3-1.4c0,0-1.3-1.4-0.3-4c0,0-0.5-4.1-3.5-3.4c0,0-6.5-0.1-3.1-5.6c0,0,0.6-5.5-1.5-6.5c0,0-2.8-0.6-1.6-5.1
			c0,0-12.8-22.8-29.1-37.6c0,0,3.5-0.2,10.2,4.7c0,0,4.8,1.3,6,1c0,0,3.5,1.5,3.8,5.8c0,0,13.2,8.2,14.5,4.5c0,0,8.3,3,0.2,10.2
			c0,0-0.5,8.3,11.2,6.3c0,0,1.7-2,3.8-0.5c0,0,13.5,11.2,12.2-2.7c0,0-4.2-5.3-3.5-8.2c0,0-4.3-6-9.7,2.3c0,0-13.5-8-0.5-14.5
			c0,0,6.2-0.5,1.5-8c0,0-4.7-5.5,0.8-10.3c0,0,4.2-0.8,9.7,4.5c0,0,7,11.7,8.8,9.3c0,0,16.8-10.3,15.5,10.3c0,0-1.7-1.2-11.5,1.7
			c0,0-3.2,6.2,6.7,10c0,0,9.8,2.8,11.5-0.5c0,0,14.7,14.5,19.3,7.5c0,0,9.2-7,4-13.5c0,0-4.3-12.2-11.8,0.3c0,0-18.5-10.8,1.7-20
			c0,0,6.3,0.3,7.5,2.2c0,0,2.7-5.2,2.7-7.5C1123.6,691.8,1122.5,677.8,1131.5,677.5z"/>
		<path class="st7" d="M1131.5,677.5v95.8c0,0,22-1.5,80.5,4.3c0,0,7.6-3.8,1.5-8.8c0,0-2.7,0.8-2.3,0.1c0,0-3.3-3.1,0.9-4.3
			c0,0,2.2-3,1.4-4.2l1.3-1.4c0,0,1.3-1.4,0.3-4c0,0,0.5-4.1,3.5-3.4c0,0,6.5-0.1,3.1-5.6c0,0-0.6-5.5,1.5-6.5c0,0,2.8-0.6,1.6-5.1
			c0,0,12.8-22.8,29.1-37.6c0,0-3.5-0.2-10.2,4.7c0,0-4.8,1.3-6,1c0,0-3.5,1.5-3.8,5.8c0,0-13.2,8.2-14.5,4.5c0,0-8.3,3-0.2,10.2
			c0,0,0.5,8.3-11.2,6.3c0,0-1.7-2-3.8-0.5c0,0-13.5,11.2-12.2-2.7c0,0,4.2-5.3,3.5-8.2c0,0,4.3-6,9.7,2.3c0,0,13.5-8,0.5-14.5
			c0,0-6.2-0.5-1.5-8c0,0,4.7-5.5-0.8-10.3c0,0-4.2-0.8-9.7,4.5c0,0-7,11.7-8.8,9.3c0,0-16.8-10.3-15.5,10.3c0,0,1.7-1.2,11.5,1.7
			c0,0,3.2,6.2-6.7,10c0,0-9.8,2.8-11.5-0.5c0,0-14.7,14.5-19.3,7.5c0,0-9.2-7-4-13.5c0,0,4.3-12.2,11.8,0.3c0,0,18.5-10.8-1.7-20
			c0,0-6.3,0.3-7.5,2.2c0,0-2.7-5.2-2.7-7.5C1139.3,691.8,1140.5,677.8,1131.5,677.5z"/>
	</g>
	<g>
		<path d="M423.5,315.6l20.3,1.1v63.1c0,9.4,0.6,16,1.9,19.7c1.3,3.9,4,7.6,8.3,11.2c-3.8-0.6-7.2-2-10.3-4.3
			c-3-2.2-5.1-4.8-6.1-7.9c-1-3-1.5-7.9-1.5-14.8v-43.4c0-7.4-1-12.8-3-16.4c-2-3.5-5.2-5.7-9.6-6.6V315.6z M518.8,316.7v95.8h-8.5
			c0.6-2,0.9-4.9,1-8.8c-10.1,6.6-20.6,9.9-31.6,9.9c-6.5,0-12.1-1.4-17-4.3c-4.8-2.8-8.1-6.5-9.8-11c-1.8-4.5-2.6-10.9-2.6-19.2
			v-62.4c6.4,0,13.4-0.4,21.1-1.1v1.6c-3.3,0.5-6,1.8-8.1,3.9c-2.2,2.2-3.6,4.6-4.2,7.3c-0.7,2.8-1.1,7.1-1.1,13l-0.1,1.9V378
			c0,7.7,0.6,13.3,1.7,16.7c1.1,3.6,3.6,6.5,7.5,8.9c3.9,2.4,8.8,3.5,14.6,3.5c9.3,0,19.2-3.4,29.6-10.3v-53.1c0-6.8-0.3-11.8-1-15
			c-0.6-3-1.9-5.5-3.9-7.5c-1.9-1.9-4.5-3.2-7.7-4.1v-1.6c0.4,0,1.2,0,2.5,0.1c1.3,0.1,2.8,0.2,4.3,0.4
			C510.4,316.3,514.8,316.5,518.8,316.7z M530.5,412.4h-5.2v-95.8c4.5-0.1,8-0.3,10.4-0.5l10.3-0.6v1.6c-3.1,0.5-5.8,2-8,4.3
			c-2.1,2.2-3.5,5-4.2,8.4c-0.6,3.1-0.9,9-0.9,17.7v40c0,15,4.4,23.1,13.1,24.3v1.6C537.9,412.8,532.8,412.4,530.5,412.4z"/>
		<path d="M571.3,316.7l104.7,89.4v7.5h-1.8l-82.3-70v42.2c0,9.2,1.2,15.6,3.5,19.2c2.4,3.6,6.1,5.9,11.2,7v1.6
			c-9.1-0.7-15.4-1.1-18.6-1.1c-3.7,0-9.3,0.4-16.7,1.1v-1.6c5.2-1.2,8.8-3.7,10.6-7.4c1.9-3.7,2.8-10.2,2.8-19.6l-0.1-47.4
			l-6.5-5.5c-9.1-7.8-16.7-12.7-23-14.7v-1.6L571.3,316.7z M675.9,397.2l-94.4-80.5h10.7l76.4,65.1V344c0-6.3-0.4-11.1-1.3-14.5
			c-0.8-3.2-2.6-5.9-5.2-8.1c-2.6-2.1-5.9-3.5-10-4.2v-1.6c0.1,0,1.1,0.1,3.2,0.3c7.9,0.5,13.3,0.8,16.2,0.8c2.6,0,8.8-0.4,18.6-1.1
			v1.6c-3.1,0.4-5.9,1.7-8.3,3.9c-2.3,2.1-3.9,4.6-4.7,7.6c-0.8,3.1-1.3,7.4-1.3,13V397.2z"/>
		<path d="M723,316.7v95.8c-4.4,0-11,0.4-19.9,1.1v-1.6c4.7-1.2,7.9-3.8,9.7-7.9c1.8-4,2.7-11.2,2.7-21.7v-40.6
			c0-7.9-0.9-13.7-2.8-17.4c-1.9-3.6-5.1-6-9.6-7.1v-1.6C710.5,316.2,717.1,316.5,723,316.7z M729.8,412.4v-95.8
			c7.5,0,14.2-0.4,20-1.1v1.6c-3.6,0.7-6.5,2.6-8.9,5.8c-2.4,3.3-3.6,10.2-3.6,20.6V387c0,9.3,1.3,15.6,3.8,18.8
			c2.5,3.2,5.5,5.2,8.7,6.1v1.6C744.1,412.8,737.4,412.4,729.8,412.4z"/>
		<path d="M777.4,316.7l47.8,91.2l-3.2,6.5h-1.5l-40.7-77.3c-6.1-11.6-12.6-18.3-19.5-19.9v-1.6L777.4,316.7z M805.9,342.2
			l22.6,42.8l21.2-44.4c3-6.2,4.5-10.8,4.5-13.9c0-4.8-2.4-7.9-7.1-9.4v-1.6c-0.1,0,1.6,0.2,5.1,0.5c4.7,0.4,8.3,0.6,11,0.6
			c2.1,0,6.6-0.4,13.5-1.1v1.6c-4,1.7-7.2,4-9.7,6.8c-2.5,2.9-5.8,8.7-9.9,17.3l-28.5,59.4l-43.8-84c5.5,0,12.1-0.4,19.7-1.1v1.6
			c-3.5,1-5.3,3.1-5.3,6.5C799.2,327.4,801.5,333.6,805.9,342.2z"/>
		<path d="M901.7,316.7h3v95.8h-6c-2.1,0-6.6,0.4-13.4,1.1v-1.6c3.3-0.8,5.8-2.4,7.5-4.6c1.8-2.3,2.9-4.9,3.5-7.9
			c0.7-3.1,1-9.8,1-20v-38.1c0-8.8-1.2-14.8-3.5-18.1c-2.4-3.3-5.2-5.3-8.4-6v-1.6C889,315.8,894.4,316.2,901.7,316.7z M947.6,412.4
			h-36.3v-95.8h26.4c5,0,14.4-0.4,28.2-1.1c-0.1,1.8-0.2,3.2-0.2,4.1c0,1.2,0.2,4,0.5,8.4c0.2,3,0.3,4.6,0.3,4.8v2.3h-1.5
			c-2.2-5.2-4.7-8.6-7.5-10.1c-2.8-1.5-8-2.2-15.7-2.2h-14.4c-2.3,0-4.4,0.2-6.4,0.5c-1.1,2.1-1.7,7-1.9,14.7l-0.2,6.2v14.8h19.6
			c7.4,0,12.3-0.6,14.7-1.9c2.4-1.3,4.4-4.3,5.8-9.1h2c-0.5,5.5-0.7,10.2-0.7,14.2c0,2.5,0.2,5.9,0.5,10c0.1,1.2,0.3,3.6,0.5,7.2h-2
			c-0.5-5.3-2.2-9-4.8-11c-2.7-2-7-3-12.8-3h-22.8v19.8c0,7.6,0.4,14.3,1.3,20.1c2.5,0.4,5.3,0.5,8.2,0.5H942c7.5,0,13.2-0.8,17-2.5
			c4-1.8,7.9-5.7,11.8-11.7h1.8c-0.7,2.8-1.7,6-3,9.6c-1.6,4.7-2.8,8.8-3.5,12.3C959.2,412.8,953,412.4,947.6,412.4z"/>
		<path d="M1003.6,316.7v95.8h-3.9c-1.5,0-3.9,0.2-7.2,0.5c-2.8,0.4-6.1,0.5-9.8,0.5v-1.6c3.9-0.4,7.1-2.3,9.6-5.7
			c2.5-3.4,3.8-9.9,3.8-19.6v-46.7c0-13.2-4.5-20.7-13.4-22.6v-1.6C986.6,316,993.6,316.4,1003.6,316.7z M1012.9,412.4h-2.6v-95.8
			c3.6,0,7.5-0.2,11.6-0.5c4.7-0.4,8.6-0.6,11.5-0.6c8.3,0,14.5,2.5,18.5,7.6c4.1,5,6.1,11.2,6.1,18.6c0,12.5-5.3,20.6-15.9,24.1
			c5.3,0.7,9.7,2.3,13.3,4.7c3.8,2.6,9.6,7.8,17.4,15.6c11.8,12,21.4,18,28.9,18c1.5,0,3.1-0.5,4.6-1.5l0.4,1.6
			c-2.4,3.1-5.8,4.7-10.1,4.7c-4.6,0-9.4-1.7-14.4-5.2c-4.7-3.3-11.8-9.7-21.2-19.3c-11.3-11.6-22.2-17.4-32.9-17.4
			c6.6,2.1,15.5,9,26.8,20.8c7.9,8.2,14.3,14.2,19.1,18c4.8,3.8,9.5,5.6,13.9,5.6v0.8c-2.1,0.7-4.1,1.1-6.1,1.1
			c-5.9,0-11-1.5-15.3-4.5c-2.3-1.6-5.2-4.1-8.8-7.5c-3.5-3.4-7.8-7.7-12.8-13c-7.3-7.8-12.7-13-16.2-15.8c-3.8-2.8-7.4-4.8-11-6
			v21.5c0,14.5,4.4,22.4,13.1,23.6v1.6C1023.6,412.8,1017.6,412.4,1012.9,412.4z M1017.8,341.6v19.7c3.6,0.9,7.5,1.4,11.6,1.4
			c13.6,0,20.4-7.1,20.4-21.3c0-13.3-6.8-19.9-20.3-19.9c-4.4,0-7.8,0.9-10.2,2.6C1018.4,326.6,1017.8,332.4,1017.8,341.6z
			 M1059,361.3c3.9-6.2,5.9-13.1,5.9-20.6c0-6.8-2.3-13.7-6.8-20.6c10.4,4.4,15.6,11.4,15.6,20.9
			C1073.7,350.5,1068.8,357.3,1059,361.3z"/>
		<path d="M1114.4,380.9h2.1c0.4,7.8,3.5,14.1,9.4,19.2c5.7,5,12.2,7.5,19.6,7.5c5.7,0,10.3-1.6,13.9-4.8c3.6-3.2,5.4-7.1,5.4-11.5
			c0-4.7-1.7-8.4-5.2-11c-3.3-2.5-9.9-5.4-19.7-8.6c-7.9-2.6-13.5-4.8-16.8-6.5c-3.9-2-6.9-4.7-9.1-8.1c-2.4-3.5-3.5-7.3-3.5-11.6
			c0-4.8,1.6-9.5,4.8-14.1c-0.7,2.4-1.1,4.4-1.1,6.2c0,4.7,1.1,8.9,3.4,12.4c2.3,3.7,5.1,6.5,8.5,8.4c3.4,1.9,9.1,4.1,17,6.6
			c10.4,3.1,17.8,6.6,22.4,10.4c4.4,3.7,6.6,8.7,6.6,14.9c0,6.1-2.3,11.7-6.9,16.6c-4.7,5-11.6,7.5-20.9,7.5c-3.8,0-9-0.7-15.6-2.1
			c-5.8-1.2-10.2-1.8-13.1-1.9l-0.6-0.7c0.1-1,0.1-2.4,0.1-4c0-1.9-0.2-4.9-0.5-9c-0.3-4.1-0.5-7.1-0.5-9.1
			C1114,385,1114.2,382.8,1114.4,380.9z M1178.5,342.9h-1.9c-0.1-7-2.8-12.2-8.4-15.6c-5.4-3.3-11.9-5-19.6-5
			c-6.1,0-11.1,1.3-15.1,3.9c-4,2.6-6,5.7-6,9.4c0,3.9,1.6,6.9,4.7,9.2c3.3,2.4,9.7,5.3,19.4,8.6c9,3.1,15.2,5.6,18.8,7.5
			c3.8,2.1,7,5.1,9.5,9.1c2.5,4.1,3.8,8.6,3.8,13.5c0,7.6-2.8,13.5-8.4,17.8c2.1-2.8,3.1-6.8,3.1-12c0-4.8-1.1-9.1-3.4-12.9
			c-2.4-3.8-5.3-6.8-8.7-9.1c-3.5-2.3-9.2-4.8-17.2-7.4c-11.9-3.9-19.7-7.3-23.3-10.1c-3.6-2.8-5.5-7.3-5.5-13.3
			c0-6.9,2.8-12.3,8.4-16.3c5.6-3.8,13.5-5.7,23.7-5.7c7,0,15.5,1.2,25.5,3.6v0.6l0.2,3.5c0,1.8,0.1,4,0.2,6.5
			c0.2,3.1,0.3,5.8,0.3,8.2C1178.7,338.7,1178.7,340.6,1178.5,342.9z"/>
		<path d="M1217.2,316.7v95.8c-4.4,0-11,0.4-19.9,1.1v-1.6c4.7-1.2,7.9-3.8,9.7-7.9c1.8-4,2.7-11.2,2.7-21.7v-40.6
			c0-7.9-0.9-13.7-2.8-17.4c-1.9-3.6-5.1-6-9.6-7.1v-1.6C1204.7,316.2,1211.4,316.5,1217.2,316.7z M1224.1,412.4v-95.8
			c7.5,0,14.2-0.4,20-1.1v1.6c-3.6,0.7-6.5,2.6-8.9,5.8c-2.4,3.3-3.6,10.2-3.6,20.6V387c0,9.3,1.3,15.6,3.8,18.8
			c2.5,3.2,5.5,5.2,8.7,6.1v1.6C1238.4,412.8,1231.7,412.4,1224.1,412.4z"/>
		<path d="M1278.5,316.7v95.8c-4.3,0-11.1,0.4-20.3,1.1v-1.6c4.7-1.3,8-4,9.9-8.2c1.9-4,2.8-12.3,2.8-24.9v-37.5
			c0-7.7-0.9-13.3-2.8-16.8c-1.9-3.5-5.2-5.9-9.9-7.3v-1.6C1266.1,316.2,1272.9,316.5,1278.5,316.7z M1290.5,412.4h-5.5v-95.8
			c8.4-0.2,14.2-0.4,17.5-0.6c5-0.3,8.5-0.5,10.4-0.5c9.1,0,16.8,2.1,23.3,6.3c6.4,4.2,11.1,9.8,14.4,16.6
			c3.1,6.7,4.7,15.3,4.7,25.6c0,15.7-3.8,27.9-11.4,36.5c-7.6,8.6-18,12.9-31,12.9c-6.1,0-12.9-0.3-20.5-1
			C1292,412.4,1291.4,412.4,1290.5,412.4z M1293.9,325.1c-1,2.7-1.5,12.3-1.5,28.6v22.2c0,13.3,0.9,23,2.6,29.1
			c4.7,1.5,10,2.2,16,2.2c11.2,0,20-3.5,26.4-10.6c6.5-7.1,9.7-17.7,9.7-31.5c0-13.6-3.2-24.1-9.6-31.6
			c-6.4-7.5-15.9-11.3-28.3-11.3C1302.8,322.1,1297.7,323.1,1293.9,325.1z M1346.8,405.3c10.1-7.7,15.1-21,15.1-40
			c0-18.5-4.1-31.6-12.4-39.2c6.9,4.5,12.1,10.1,15.6,16.6c3.5,6.5,5.3,14,5.3,22.4C1370.4,382.5,1362.6,395.9,1346.8,405.3z"/>
		<path d="M1447.1,390.4l-8.1-16.9h-34.3l-8.6,16.9l-0.5,1.2c-0.1,0.1-0.5,0.9-1.4,2.6c-1.3,2.5-1.9,5.1-1.9,7.8
			c0,4.6,2.5,7.9,7.6,9.8v1.6c-1,0-2.8-0.2-5.4-0.5c-3.6-0.4-6.8-0.6-9.6-0.6c-2.6,0-5.8,0.2-9.6,0.6c-2.6,0.3-4.3,0.5-5.2,0.5v-1.6
			c6.7-3.4,12.7-10.4,18.2-21l30.2-58.7c-2.3-4.7-5.5-8.3-9.5-10.8c-4-2.5-8.7-3.9-14.1-4.2v-1.6h3.2c2.8,0,6.8,0.2,11.7,0.5
			c5.2,0.4,8.6,0.5,10.2,0.5l45.9,95.8c-5.9,0.1-12.9,0.5-21.2,1.1v-1.6c4.6-0.8,6.9-3.3,6.9-7.5
			C1451.7,401.3,1450.1,396.7,1447.1,390.4z M1408.3,366.7h27.4l-13.2-27.6L1408.3,366.7z M1473.2,412.4l-45.9-95.8h8.9
			c1.2,3.1,2.9,7.1,5.1,11.9c2.4,5.1,3.8,8.2,4.1,9.2c0.3,0.5,0.6,1.2,0.8,1.9l21.4,44.2c7.5,15.4,15.4,24.7,23.8,28v1.6
			C1483.1,412.8,1477.1,412.4,1473.2,412.4z"/>
		<path d="M1519.2,316.7v95.8c-4.3,0-11.1,0.4-20.3,1.1v-1.6c4.7-1.3,8-4,9.9-8.2c1.9-4,2.8-12.3,2.8-24.9v-37.5
			c0-7.7-0.9-13.3-2.8-16.8c-1.9-3.5-5.2-5.9-9.9-7.3v-1.6C1506.9,316.2,1513.6,316.5,1519.2,316.7z M1531.2,412.4h-5.5v-95.8
			c8.4-0.2,14.2-0.4,17.5-0.6c5-0.3,8.5-0.5,10.4-0.5c9.1,0,16.8,2.1,23.3,6.3c6.4,4.2,11.1,9.8,14.4,16.6
			c3.1,6.7,4.7,15.3,4.7,25.6c0,15.7-3.8,27.9-11.4,36.5c-7.6,8.6-18,12.9-31,12.9c-6.1,0-12.9-0.3-20.5-1
			C1532.8,412.4,1532.1,412.4,1531.2,412.4z M1534.7,325.1c-1,2.7-1.5,12.3-1.5,28.6v22.2c0,13.3,0.9,23,2.6,29.1
			c4.7,1.5,10,2.2,16,2.2c11.2,0,20-3.5,26.4-10.6c6.5-7.1,9.7-17.7,9.7-31.5c0-13.6-3.2-24.1-9.6-31.6
			c-6.4-7.5-15.9-11.3-28.3-11.3C1543.6,322.1,1538.4,323.1,1534.7,325.1z M1587.6,405.3c10.1-7.7,15.1-21,15.1-40
			c0-18.5-4.1-31.6-12.4-39.2c6.9,4.5,12.1,10.1,15.6,16.6c3.5,6.5,5.3,14,5.3,22.4C1611.2,382.5,1603.3,395.9,1587.6,405.3z"/>
		<path d="M333.1,474.8v95.8c-4.4,0-11,0.4-19.9,1.1V570c4.7-1.2,7.9-3.8,9.7-7.9c1.8-4,2.7-11.2,2.7-21.7v-40.6
			c0-7.9-0.9-13.7-2.8-17.4c-1.9-3.6-5.1-6-9.6-7.1v-1.6C320.6,474.3,327.2,474.7,333.1,474.8z M339.9,570.6v-95.8
			c7.5,0,14.2-0.4,20-1.1v1.6c-3.6,0.7-6.5,2.6-8.9,5.8c-2.4,3.3-3.6,10.2-3.6,20.6v43.3c0,9.3,1.3,15.6,3.8,18.8
			c2.5,3.2,5.5,5.2,8.7,6.1v1.6C354.2,570.9,347.5,570.6,339.9,570.6z"/>
		<path d="M388.8,474.8l104.7,89.4v7.5h-1.8l-82.3-70v42.2c0,9.2,1.2,15.6,3.5,19.2c2.4,3.6,6.1,5.9,11.2,7v1.6
			c-9.1-0.7-15.4-1.1-18.6-1.1c-3.7,0-9.3,0.4-16.7,1.1V570c5.2-1.2,8.8-3.7,10.6-7.4c1.9-3.7,2.8-10.2,2.8-19.6l-0.1-47.4l-6.5-5.5
			c-9.1-7.8-16.7-12.7-23-14.7v-1.6L388.8,474.8z M493.5,555.3l-94.4-80.5h10.7l76.4,65.1v-37.7c0-6.3-0.4-11.1-1.3-14.5
			c-0.8-3.2-2.6-5.9-5.2-8.1c-2.6-2.1-5.9-3.5-10-4.2v-1.6c0.1,0,1.1,0.1,3.2,0.3c7.9,0.5,13.3,0.8,16.2,0.8c2.6,0,8.8-0.4,18.6-1.1
			v1.6c-3.1,0.4-5.9,1.7-8.3,3.9c-2.3,2.1-3.9,4.6-4.7,7.6c-0.8,3.1-1.3,7.4-1.3,13V555.3z"/>
		<path d="M536.2,474.8h30v95.8h-2.7c-3.9,0-9.8,0.4-17.6,1.1V570c5-1.3,8.5-3.8,10.4-7.7c1.8-3.8,2.7-10.2,2.7-19.1v-62.1h-23.2
			c-5.9,0-10,1.2-12.4,3.6c-2.4,2.4-4.5,7-6.1,13.7h-2.1c-0.1-0.8-0.1-1.6-0.1-2.5c0-1.2,0.1-2.8,0.4-4.6c0.7-6.5,1.1-12.4,1.1-17.6
			c3.2,0.4,7.2,0.7,12,0.8L536.2,474.8z M575.2,570.6h-2.4v-95.8h32.7c6,0,11.9-0.4,17.7-1.1c0,1.2-0.1,3.2-0.3,6.3
			c-0.2,2.8-0.3,6.3-0.3,10.4c0,2.7-0.2,5.4-0.5,8.1h-2.2c-0.1-5-1.4-9.1-3.7-12.4c-2.4-3.3-7.5-5-15.4-5h-20.6v65.1
			c0,7.5,1.1,13.1,3.2,16.8c2.1,3.8,5.4,6.1,9.8,7v1.6C582.7,570.9,576.6,570.6,575.2,570.6z"/>
		<path d="M649.5,474.8h3v95.8h-6c-2.1,0-6.6,0.4-13.4,1.1V570c3.3-0.8,5.8-2.4,7.5-4.6c1.8-2.3,2.9-4.9,3.5-7.9c0.7-3.1,1-9.8,1-20
			v-38.1c0-8.8-1.2-14.8-3.5-18.1c-2.4-3.3-5.2-5.3-8.4-6v-1.6C636.7,474,642.2,474.3,649.5,474.8z M695.3,570.6H659v-95.8h26.4
			c5,0,14.4-0.4,28.2-1.1c-0.1,1.8-0.2,3.2-0.2,4.1c0,1.2,0.2,4,0.5,8.4c0.2,3,0.3,4.6,0.3,4.8v2.3h-1.5c-2.2-5.2-4.7-8.6-7.5-10.1
			c-2.8-1.5-8-2.2-15.7-2.2H675c-2.3,0-4.4,0.2-6.4,0.5c-1.1,2.1-1.7,7-1.9,14.7l-0.2,6.2v14.8h19.6c7.4,0,12.3-0.6,14.7-1.9
			c2.4-1.3,4.4-4.3,5.8-9.1h2c-0.5,5.5-0.7,10.2-0.7,14.2c0,2.5,0.2,5.9,0.5,10c0.1,1.2,0.3,3.6,0.5,7.2h-2c-0.5-5.3-2.2-9-4.8-11
			c-2.7-2-7-3-12.8-3h-22.8v19.8c0,7.6,0.4,14.3,1.3,20.1c2.5,0.4,5.3,0.5,8.2,0.5h13.8c7.5,0,13.2-0.8,17-2.5
			c4-1.8,7.9-5.7,11.8-11.7h1.8c-0.7,2.8-1.7,6-3,9.6c-1.6,4.7-2.8,8.8-3.5,12.3C707,570.9,700.8,570.6,695.3,570.6z"/>
		<path d="M751.4,474.8v95.8h-3.9c-1.5,0-3.9,0.2-7.2,0.5c-2.8,0.4-6.1,0.5-9.8,0.5V570c3.9-0.4,7.1-2.3,9.6-5.7
			c2.5-3.4,3.8-9.9,3.8-19.6V498c0-13.2-4.5-20.7-13.4-22.6v-1.6C734.4,474.2,741.3,474.5,751.4,474.8z M760.7,570.6H758v-95.8
			c3.6,0,7.5-0.2,11.6-0.5c4.7-0.4,8.6-0.6,11.5-0.6c8.3,0,14.5,2.5,18.5,7.6c4.1,5,6.1,11.2,6.1,18.6c0,12.5-5.3,20.6-15.9,24.1
			c5.3,0.7,9.7,2.3,13.3,4.7c3.8,2.6,9.6,7.8,17.4,15.6c11.8,12,21.4,18,28.9,18c1.5,0,3.1-0.5,4.6-1.5l0.4,1.6
			c-2.4,3.1-5.8,4.7-10.1,4.7c-4.6,0-9.4-1.7-14.4-5.2c-4.7-3.3-11.8-9.7-21.2-19.3c-11.3-11.6-22.2-17.4-32.9-17.4
			c6.6,2.1,15.5,9,26.8,20.8c7.9,8.2,14.3,14.2,19.1,18c4.8,3.8,9.5,5.6,13.9,5.6v0.8c-2.1,0.7-4.1,1.1-6.1,1.1
			c-5.9,0-11-1.5-15.3-4.5c-2.3-1.6-5.2-4.1-8.8-7.5c-3.5-3.4-7.8-7.7-12.8-13c-7.3-7.8-12.7-13-16.2-15.8c-3.8-2.8-7.4-4.8-11-6
			v21.5c0,14.5,4.4,22.4,13.1,23.6v1.6C771.4,570.9,765.4,570.6,760.7,570.6z M765.6,499.8v19.7c3.6,0.9,7.5,1.4,11.6,1.4
			c13.6,0,20.4-7.1,20.4-21.3c0-13.3-6.8-19.9-20.3-19.9c-4.4,0-7.8,0.9-10.2,2.6C766.1,484.8,765.6,490.6,765.6,499.8z
			 M806.7,519.4c3.9-6.2,5.9-13.1,5.9-20.6c0-6.8-2.3-13.7-6.8-20.6c10.4,4.4,15.6,11.4,15.6,20.9
			C821.4,508.7,816.5,515.5,806.7,519.4z"/>
		<path d="M859.2,474.8l104.7,89.4v7.5h-1.8l-82.3-70v42.2c0,9.2,1.2,15.6,3.5,19.2c2.4,3.6,6.1,5.9,11.2,7v1.6
			c-9.1-0.7-15.4-1.1-18.6-1.1c-3.7,0-9.3,0.4-16.7,1.1V570c5.2-1.2,8.8-3.7,10.6-7.4c1.9-3.7,2.8-10.2,2.8-19.6l-0.1-47.4l-6.5-5.5
			c-9.1-7.8-16.7-12.7-23-14.7v-1.6L859.2,474.8z M963.9,555.3l-94.4-80.5h10.7l76.4,65.1v-37.7c0-6.3-0.4-11.1-1.3-14.5
			c-0.8-3.2-2.6-5.9-5.2-8.1c-2.6-2.1-5.9-3.5-10-4.2v-1.6c0.1,0,1.1,0.1,3.2,0.3c7.9,0.5,13.3,0.8,16.2,0.8c2.6,0,8.8-0.4,18.6-1.1
			v1.6c-3.1,0.4-5.9,1.7-8.3,3.9c-2.3,2.1-3.9,4.6-4.7,7.6c-0.8,3.1-1.3,7.4-1.3,13V555.3z"/>
		<path d="M1055,548.6l-8.1-16.9h-34.3l-8.6,16.9l-0.5,1.2c-0.1,0.1-0.5,0.9-1.4,2.6c-1.3,2.5-1.9,5.1-1.9,7.8
			c0,4.6,2.5,7.9,7.6,9.8v1.6c-1,0-2.8-0.2-5.4-0.5c-3.6-0.4-6.8-0.6-9.6-0.6c-2.6,0-5.8,0.2-9.6,0.6c-2.6,0.3-4.3,0.5-5.2,0.5V570
			c6.7-3.4,12.7-10.4,18.2-21l30.2-58.7c-2.3-4.7-5.5-8.3-9.5-10.8c-4-2.5-8.7-3.9-14.1-4.2v-1.6h3.2c2.8,0,6.8,0.2,11.7,0.5
			c5.2,0.4,8.6,0.5,10.2,0.5l45.9,95.8c-5.9,0.1-12.9,0.5-21.2,1.1V570c4.6-0.8,6.9-3.3,6.9-7.5
			C1059.6,559.5,1058.1,554.8,1055,548.6z M1016.2,524.9h27.4l-13.2-27.6L1016.2,524.9z M1081.1,570.6l-45.9-95.8h8.9
			c1.2,3.1,2.9,7.1,5.1,11.9c2.4,5.1,3.8,8.2,4.1,9.2c0.3,0.5,0.6,1.2,0.8,1.9l21.4,44.2c7.5,15.4,15.4,24.7,23.8,28v1.6
			C1091,570.9,1085,570.6,1081.1,570.6z"/>
		<path d="M1118.9,487.6c-6.9,8.9-10.4,20.7-10.4,35.5c0,17.3,4.3,30.3,12.8,39.1c-6.5-2.7-11.6-7.7-15.4-14.8
			c-3.8-7.1-5.7-15.1-5.7-24c0-6.1,1-11.8,3-16.9c1.9-5.1,4.1-9.1,6.7-11.9C1112.3,491.9,1115.3,489.6,1118.9,487.6z M1194.5,550.9
			h1.8l-2.9,15.4c-5.6,2.2-11.1,3.8-16.3,4.8c-5.2,1-10.2,1.5-15.1,1.5c-14.7,0-26.1-4.3-34.4-12.8c-8.3-8.5-12.4-20.8-12.4-37
			c0-16.1,4.5-28.4,13.4-37c8.8-8.5,20.5-12.7,35.1-12.7c10.5,0,21.2,1.9,32,5.7c-0.5,7.6-0.7,12.1-0.7,13.5c0,1.3,0,2.5,0.1,3.7
			v2.2c0,3.1-0.2,6.1-0.5,9h-1.5c-3.8-18.3-14.2-27.4-31.4-27.4c-11.6,0-20.9,3.8-27.8,11.4c-6.9,7.5-10.4,18.4-10.4,32.5
			c0,12.4,3.2,22.5,9.5,30.3c6.3,7.8,15.8,11.6,28.5,11.6c7,0,13.4-1.4,19.3-4.2C1186.4,558.7,1191,555.2,1194.5,550.9z"/>
		<path d="M1229.4,474.8v95.8c-4.4,0-11,0.4-19.9,1.1V570c4.7-1.2,7.9-3.8,9.7-7.9c1.8-4,2.7-11.2,2.7-21.7v-40.6
			c0-7.9-0.9-13.7-2.8-17.4c-1.9-3.6-5.1-6-9.6-7.1v-1.6C1216.9,474.3,1223.5,474.7,1229.4,474.8z M1236.2,570.6v-95.8
			c7.5,0,14.2-0.4,20-1.1v1.6c-3.6,0.7-6.5,2.6-8.9,5.8c-2.4,3.3-3.6,10.2-3.6,20.6v43.3c0,9.3,1.3,15.6,3.8,18.8
			c2.5,3.2,5.5,5.2,8.7,6.1v1.6C1250.5,570.9,1243.8,570.6,1236.2,570.6z"/>
		<path d="M1288.3,483.4c-6.7,10.3-10,23.5-10,39.5c0,14.5,3.2,27.1,9.5,37.8c-12.2-8.1-18.4-21-18.4-38.7
			C1269.4,503.7,1275.7,490.9,1288.3,483.4z M1364.8,522.2c0,11.1-1.7,20.6-5.1,28.3c-3.3,7.6-8,13.3-14.1,16.9
			c-5.9,3.7-12.9,5.5-20.8,5.5c-12.6,0-22.4-4.5-29.3-13.5c-6.9-9-10.4-21.4-10.4-37.3c0-16.4,3.5-29,10.5-37.8
			c7-8.7,16.7-13,28.9-13c12.4,0,22.2,4.3,29.4,13C1361.2,493,1364.8,505.6,1364.8,522.2z M1356.2,522.3c0-29-10.5-43.5-31.6-43.5
			c-20.7,0-31,14.9-31,44.6c0,28,10.4,42,31.3,42C1345.8,565.4,1356.2,551,1356.2,522.3z M1361.5,561.2c6.6-9,9.9-22.5,9.9-40.5
			c0-15.9-3.3-28.3-9.8-37.3c12.5,7.5,18.7,20.2,18.7,38.2C1380.3,539.5,1374,552.7,1361.5,561.2z"/>
		<path d="M1391.1,474.8l104.7,89.4v7.5h-1.8l-82.3-70v42.2c0,9.2,1.2,15.6,3.5,19.2c2.4,3.6,6.1,5.9,11.2,7v1.6
			c-9.1-0.7-15.4-1.1-18.6-1.1c-3.7,0-9.3,0.4-16.7,1.1V570c5.2-1.2,8.8-3.7,10.6-7.4c1.9-3.7,2.8-10.2,2.8-19.6l-0.1-47.4l-6.5-5.5
			c-9.1-7.8-16.7-12.7-23-14.7v-1.6L1391.1,474.8z M1495.8,555.3l-94.4-80.5h10.7l76.4,65.1v-37.7c0-6.3-0.4-11.1-1.3-14.5
			c-0.8-3.2-2.6-5.9-5.2-8.1c-2.6-2.1-5.9-3.5-10-4.2v-1.6c0.1,0,1.1,0.1,3.2,0.3c7.9,0.5,13.3,0.8,16.2,0.8c2.6,0,8.8-0.4,18.6-1.1
			v1.6c-3.1,0.4-5.9,1.7-8.3,3.9c-2.3,2.1-3.9,4.6-4.7,7.6c-0.8,3.1-1.3,7.4-1.3,13V555.3z"/>
		<path d="M1586.9,548.6l-8.1-16.9h-34.3l-8.6,16.9l-0.5,1.2c-0.1,0.1-0.5,0.9-1.4,2.6c-1.3,2.5-1.9,5.1-1.9,7.8
			c0,4.6,2.5,7.9,7.6,9.8v1.6c-1,0-2.8-0.2-5.4-0.5c-3.6-0.4-6.8-0.6-9.6-0.6c-2.6,0-5.8,0.2-9.6,0.6c-2.6,0.3-4.3,0.5-5.2,0.5V570
			c6.7-3.4,12.7-10.4,18.2-21l30.2-58.7c-2.3-4.7-5.5-8.3-9.5-10.8c-4-2.5-8.7-3.9-14.1-4.2v-1.6h3.2c2.8,0,6.8,0.2,11.7,0.5
			c5.2,0.4,8.6,0.5,10.2,0.5l45.9,95.8c-5.9,0.1-12.9,0.5-21.2,1.1V570c4.6-0.8,6.9-3.3,6.9-7.5
			C1591.4,559.5,1589.9,554.8,1586.9,548.6z M1548.1,524.9h27.4l-13.2-27.6L1548.1,524.9z M1613,570.6l-45.9-95.8h8.9
			c1.2,3.1,2.9,7.1,5.1,11.9c2.4,5.1,3.8,8.2,4.1,9.2c0.3,0.5,0.6,1.2,0.8,1.9l21.4,44.2c7.5,15.4,15.4,24.7,23.8,28v1.6
			C1622.9,570.9,1616.8,570.6,1613,570.6z"/>
		<path d="M1639.8,473.7l19.2,1.1v95.8h-5.6c-3.5,0-8,0.4-13.5,1.1V570c4.5-1.8,7.5-4.6,9.2-8.4c1.6-3.9,2.5-10.2,2.5-18.9v-43.4
			c0-9.3-1.2-15.4-3.6-18.4c-2.5-3-5.1-4.9-8-5.5V473.7z M1707.5,570.6h-42.1v-95.8c4.1-0.1,8.7-0.4,13.8-0.7
			c4.7-0.2,6.9-0.4,6.5-0.4v1.6c-4.7,1.2-8,3.6-9.9,7.2c-1.9,3.7-2.9,9.2-2.9,16.4v39.5c0,5.9,0.3,11.2,0.9,15.9
			c0.5,4.9,1.2,7.7,1.9,8.4c0.7,0.7,2.4,1.1,5.3,1.1h19.1c6.7,0,12.3-1.1,16.7-3.2c4.4-2.1,8.3-6.3,11.6-12.5h1.8
			c-0.4,2.9-1.8,7.5-4.1,13.8c-1.5,4-2.5,7.2-2.9,9.6C1718.4,570.9,1713.2,570.6,1707.5,570.6z"/>
	</g>
	<g id="ESPADA">
		<path class="st8" d="M825.2,856.1c0,0-8-0.7-20.3,13.3c0,0-10.6,3.6-18.8-9.9c0,0,7.3-18,42.3-24.5c0,0,3.3-42.8,3-91.3
			c0,0-23-24.8,11.5-33c0,0,32.8,7,13,34.5l0.8,88.8c0,0,28,4.3,40.3,23.3c0,0-0.7,11.7-13.3,12.3c0,0-19-22.3-27.7-11.7
			c0,0-1.7,13.3,0.7,15c0,0,6.7,5,2.3,14v346.7c0,0-4.7,24.7-5,30c0,0-3.3,8.7-8.3,17.3c0,0-17.7-4.3-19-52c0,0-0.3-2.7-2.3-5
			c0,0-1.7-278.7,0.7-330.3c0,0,2.5-3.3,2.8-6.7c0,0-2.5-16.8,0.3-21.5L825.2,856.1z"/>
		<path class="st9" d="M852,1266.1c0,0-2.9-5,4.4-31.4c0,0,1-1.8,0-6.3V886c0,0,2.6-5.2,0.4-9.3c0,0-4.6-6.3-3.9-8.1l1.7-11.1
			l1,14.8c0,0,6.3,5,3.6,12.3l-0.8,349.1C858.3,1233.8,853.3,1267.2,852,1266.1z"/>
		<path class="st10" d="M823.4,855.2c0,0-8-0.7-20.3,13.3c0,0-10.6,3.6-18.8-9.9c0,0,7.3-18,42.3-24.5c0,0,3.3-42.8,3-91.3
			c0,0-23-24.8,11.5-33c0,0,32.8,7,13,34.5l0.8,88.8c0,0,28,4.3,40.3,23.3c0,0-0.7,11.7-13.3,12.3c0,0-19-22.3-27.7-11.7
			c0,0-1.7,13.3,0.7,15c0,0,6.7,5,2.3,14v346.7c0,0-4.7,24.7-5,30c0,0-3.3,8.7-8.3,17.3c0,0-17.7-4.3-19-52c0,0-0.3-2.7-2.3-5
			c0,0-1.7-278.7,0.7-330.3c0,0,2.5-3.3,2.8-6.7c0,0-2.5-16.8,0.3-21.5L823.4,855.2z"/>
		<path class="st9" d="M830.8,1237.8l1.8-0.2c0,0,0.2,9.8,2.5,11.8c0,0,2.1,4.5,0.8,10.3c0,0,1.2,10.6,15.1,9l-5.5,11.4
			c0,0-11-4-13.7-18.9C831.9,1261.3,830.8,1239.3,830.8,1237.8z"/>
		<path class="st9" d="M830.4,894.1c0,0-2.8-1-3.3,1.9v324.5c0,0.8-0.6,1.5-1.4,1.5c-0.6,0.1-1.1,0-1.1-0.3
			c-0.1-0.6,1.6,8.2,2.4,7.8s4.1-1,4.1-2.8S830.4,894.1,830.4,894.1z"/>
		<path class="st9" d="M855.1,860c0,0-5.3-3.7-4-6c0,0,3.2-6.1,16.9-0.6c0,0,8.1,2.9,10.2,9.3c0,0-5.1-2.8-8.3-4.1
			C869.8,858.7,858.5,851.3,855.1,860z"/>
		<path class="st9" d="M787.8,862.1c0,0,2.3-5,4.6-6c0,0,3.8,2.3,3.8,7.5c0,0,8.2,5,10.3,0c0,0,9.7-13,19.7-11.7
			c0,0,11.7,0.3,13.8,3.7c0,0,2.9,3,4.8,0.3c0,0,3-1.7,2.5,1.5c0,0-12.2,5.3-14.2,17.5c0,0-4.5,6.5-3.2-5.2c0,0,1.2-5.7,3.5-6.7
			c0,0-4.3-6.1-7-6.5l-2.1-0.5c0,0-12.7,3.8-19.9,13C804.5,869.1,791.9,870.6,787.8,862.1"/>
		<path class="st11" d="M838.3,894.3c0,0,4.4,2.2,5.3,1c0.8-1.2,0,363.8,0,363.8s-0.1,10.4,6.3,7c0,0-2.5,6.6-4,6.4
			c0,0-4.9,0.8-8.6-9.3c0,0,2.8-2.4,3.1-6.9c0,0-0.4-18.3-1.6-19.4L838.3,894.3z"/>
		<path class="st12" d="M830.8,879.5c0,0,1.4-0.1,1.6-0.9s-0.5,10.3,9,10.6c9.6,0.4,12-4.3,12-4.3l6.2,0.2l-0.8,6.2
			c0,0-7.1-1.8-7.7-0.6c0,0-5.6,7.8-12.9,3.5c0,0-3.4-1.4-3.5-2.1c0,0-1.8,2.1-2.5,2.1l0.3,341.8l0,1.5l-1.8,0.2l0-1.4L830.1,897
			v-4.7c0,0,2.6-2.3,2.3-3.4C832.3,889,828.7,884.1,830.8,879.5z"/>
		<path class="st9" d="M855.8,745.3c19.8-27.5-13-34.5-13-34.5c-34.5,8.3-11.5,33-11.5,33c0.3,48.5-3,91.3-3,91.3
			c-3.8,0.7-7.2,1.5-10.3,2.5c0.7,0.1,1.3,0.1,2,0.2c1.9-0.8,3.9-1.3,6-1.5c1.6-0.4,3.3-0.6,4.9-0.7c3.8-3.1,8.7-5.1,13.7-5.1
			c4.6,0,8.7,1.4,12.1,3.9c0.5,0,1,0.1,1.5,0.1c0,0,0,0,0,0c-1-0.2-1.6-0.3-1.6-0.3L855.8,745.3z M846.9,824
			c-1.8-1.4-6.4-0.8-6.4-0.8c-3.1-1.3-3.9-9.5-3.9-9.5c-1-11.8,10.8-5.2,10.8-5.2c5.5,5.6-1.3,8.1-1.3,8.1c-1.4,2.1,4.7,4.8,4.7,4.8
			C853.2,826.7,846.9,824,846.9,824z M836.5,745.8c-2.4-1.7-3.5-4.7-2.9-7.7c0.2-0.8,0.1-1.9-0.3-3.2c0-0.2-0.1-0.3-0.2-0.5
			c-0.8-1.7-6.3-13.3,2.9-14.4c0,0,4.2-1.3,5.8,2.4c0,0,0.8,1.3,1.5-1.3c0.2-0.6,0.5-1.1,1-1.4c2.3-1.5,8.8-4.7,12.3,3.5
			c0.1,0.1,0.1,0.3,0.1,0.4c0.4,1.6,2.2,10.5-2.6,18C850.1,748.2,843.6,750.8,836.5,745.8z"/>
		<g id="Capa_19">
			<path class="st13" d="M886.3,847.7c0,0-5.8-4.5-13.3-7.6c-4-1.6-6.6-2.7-10.1-3.7c-3-0.9-7.3-1.4-7.3-1.4l-0.1-10.1
				c0,0-0.4,3.1-6.4,3.3c0,0-12.5-1.9-15.5,5.3l-4.3,2.3c0,0-5.2,0.9-10.7,2.5c-5.3,1.5-11,3.7-13.1,5.2c0,0-7.8,4.7-6.9,9.4
				c0,0,18.5-11,48.9-9.7c11,0.5,23.5,2.5,37.3,7.2C884.7,850.4,887.5,850.5,886.3,847.7z M843.6,841.3c-2.9,0-5.3-2.4-5.3-5.3
				c0-2.9,2.4-5.3,5.3-5.3s5.3,2.4,5.3,5.3C848.8,838.9,846.5,841.3,843.6,841.3z"/>
		</g>
		<path class="st14" d="M825.2,856.1c0,0-8-0.7-20.3,13.3c0,0-10.6,3.6-18.8-9.9c0,0,7.3-18,42.3-24.5c0,0,3.3-42.8,3-91.3
			c0,0-23-24.8,11.5-33c0,0,32.8,7,13,34.5l0.8,88.8c0,0,28,4.3,40.3,23.3c0,0-0.7,11.7-13.3,12.3c0,0-19-22.3-27.7-11.7
			c0,0-1.7,13.3,0.7,15c0,0,6.7,5,2.3,14v346.7c0,0-4.7,24.7-5,30c0,0-3.3,8.7-8.3,17.3c0,0-17.7-4.3-19-52c0,0-0.3-2.7-2.3-5
			c0,0-1.7-278.7,0.7-330.3c0,0,2.5-3.3,2.8-6.7c0,0-2.5-16.8,0.3-21.5L825.2,856.1z"/>
	</g>
</g>
<g id="Capa_18">
	<g>
		<g>
			<path d="M727.5,1385.2c2.3,0,6.1-0.3,11.4-0.9c7.4-0.8,12.4-1.4,14.8-1.7c1.4-8.3,1.9-13.8,1.7-16.5c-0.1-1.3-0.7-2.3-1.7-3.1
				c-1-0.8-2.5-1.1-4.5-0.9c-1.3,0.1-1.9-0.1-2-0.6c-0.1-0.5,0.3-0.7,1-0.8c0.3,0,0.7-0.1,1.2-0.1c3.5-0.2,8.3-0.6,14.4-1.2
				c2.4-0.3,3.6-0.4,6.1-0.7c0.8-0.1,1.1,0.1,1.2,0.6c0,0.5-0.3,0.8-1,0.9c-2,0.4-3.5,0.8-4.3,1.2c-0.9,0.5-1.6,1.3-2.2,2.4
				s-1,2.3-1.2,3.5c-0.2,1.2-0.9,5.9-2,14.1c-1.1,8.2-1.8,13.3-1.9,15.3c-0.2,2-0.2,3.6,0,4.8c0.1,1.1,0.6,2,1.6,2.8
				c1,0.8,2,1.1,3.2,1.1c1.3,0,2,0.2,2,0.6c0.1,0.6-0.4,0.9-1.3,1c-2.9,0.2-4.3,0.3-7.2,0.5c-4.7,0.6-7,0.9-11.6,1.5
				c-0.7,0.1-1.1-0.1-1.2-0.6c0-0.4,0.2-0.6,0.8-0.7c2.5-0.5,4.1-1.3,5.1-2.6c0.9-1.2,1.7-4.7,2.5-10.5c0.5-3.9,0.7-5.9,1.2-9.9
				c-3.4,0.2-7.8,0.6-13.3,1.2c-5.1,0.6-7.7,0.9-12.7,1.5c-0.1,1.8-0.4,4.4-0.9,7.9c-0.6,4.1-0.8,7-0.6,8.5c0.4,3.6,2.7,5.3,6.8,5
				c1-0.1,1.5,0.1,1.5,0.5c0,0.4-0.2,0.7-0.7,0.7c-4,0.4-5.9,0.6-9.9,1.1c-4.5,0.6-6.8,0.9-11.3,1.5c-0.8,0.1-1.2-0.1-1.2-0.6
				c0-0.4,0.6-0.8,1.8-1.2c1.6-0.5,2.7-1.1,3.4-1.8c0.7-0.7,1.3-1.9,1.9-3.5c0.6-1.7,1.1-5,1.8-9.9c0.6-4.9,1.2-10,1.7-15.3
				c0.5-5.3,0.7-8.6,0.6-10c-0.2-2-0.8-3.3-1.8-4c-1-0.7-2.5-1-4.5-0.9c-0.7,0-1-0.1-1.1-0.5c-0.1-0.5,0.3-0.8,1-0.8
				c5-0.5,7.5-0.8,12.4-1.3c2.9-0.4,4.4-0.6,7.3-1c1.1-0.1,1.7,0.1,1.8,0.7c0.1,0.5-0.3,0.7-1,0.8c-1.5,0.2-2.7,0.6-3.9,1.2
				c-1.1,0.6-1.9,1.4-2.4,2.4c-0.5,1-0.9,3.3-1.4,6.9C728.3,1378.4,728,1380.7,727.5,1385.2z"/>
			<path d="M786.3,1372.9c3.3-0.3,6,0.7,8.1,3c2.1,2.3,3.3,5.2,3.6,8.6c0.4,4.8-0.9,9.3-3.9,13.8c-3,4.4-6.8,6.8-11.5,7.3
				c-3.4,0.3-6-0.7-7.8-3.1c-1.8-2.4-2.8-4.9-3.1-7.7c-0.4-3.6,0.2-7.3,1.8-10.9c1.6-3.6,3.6-6.3,5.9-8.1
				C781.9,1374.1,784.2,1373.1,786.3,1372.9z M787.1,1374.4c-1.4,0.1-2.9,1.1-4.4,2.8c-1.5,1.7-2.9,4.7-4.1,9s-1.7,8.2-1.3,11.8
				c0.2,1.8,0.7,3.2,1.7,4.4c0.9,1.2,2.1,1.7,3.5,1.6c1.5-0.1,3.1-1.2,4.8-3.2c1.6-2,3-5,4.2-8.9c1.2-4,1.6-7.7,1.3-11.1
				c-0.2-2.3-0.8-4-1.7-5C790.1,1374.7,788.8,1374.3,787.1,1374.4z"/>
			<path d="M804.8,1403.3c2.7-9.6,4.5-16.5,5.3-20.6c0.9-4.1,1.3-6.5,1.2-7.4c0-0.4-0.1-0.7-0.3-0.9c-0.2-0.2-0.4-0.3-0.7-0.3
				c-1.1,0.1-3.2,2.5-6,7.3c-0.5,0.9-1,1.4-1.3,1.4c-0.5,0-0.8-0.1-0.8-0.5c-0.1-0.6,1.1-2.6,3.5-6.1c2.4-3.5,4.6-5.3,6.6-5.4
				c1.1-0.1,1.9,0.1,2.5,0.7c0.6,0.5,0.9,1.4,1,2.5c0.1,1.8-0.5,5.3-1.9,10.5c0.3-0.5,1-1.8,1.9-3.8c3.6-7.5,7.3-11.4,10.8-11.7
				c1.6-0.1,2.8,0.3,3.6,1.3c0.8,1,1.2,2.1,1.3,3.5c0.1,1.4-0.3,4.6-1.2,9.5c2.8-6.2,5.2-10.3,7.2-12.2c2-2,3.9-3,5.8-3.1
				c1.4-0.1,2.5,0.2,3.4,1c0.9,0.8,1.4,1.8,1.5,3.1c0.2,2.5-1.3,9.1-4.4,19.8c-0.8,2.9-1.2,4.6-1.2,5.1c0,0.3,0.1,0.6,0.3,0.7
				c0.2,0.2,0.4,0.2,0.7,0.2c0.6,0,1.9-0.9,3.8-2.7c1.9-1.7,3.3-3.3,4.2-4.7c0.5-0.7,0.9-1.1,1.3-1.1c0.4,0,0.6,0.1,0.6,0.4
				c0.1,0.9-1.5,2.9-4.5,6c-3.1,3.1-5.7,4.7-7.9,4.9c-0.8,0.1-1.5-0.2-2-0.7c-0.6-0.6-0.9-1.3-1-2.2c-0.1-1.3,0.3-3.4,1.2-6.5
				c2.9-10.1,4.4-16.4,4.2-19.2c0-0.7-0.2-1.2-0.5-1.5c-0.3-0.3-0.6-0.5-1.1-0.4c-2.3,0.2-4.9,3.2-7.9,9.2c-3,6-5.7,13.3-8.1,22.1
				c-0.9,0.2-1.7,0.3-2.7,0.4c-0.6,0-1.2,0-1.8,0c4-14.3,5.9-22.9,5.7-25.9c-0.1-1.4-0.3-2.5-0.7-3.2c-0.4-0.7-0.9-1-1.6-1
				c-1.8,0.1-4.2,3.1-7.2,9c-3,5.9-5.7,13.2-8.1,22c-0.6,0.2-1.1,0.2-1.4,0.3c-0.2,0-0.5,0-0.9,0
				C806.4,1403.3,805.6,1403.3,804.8,1403.3z"/>
			<path d="M862.8,1396.4c0,0.4,0.1,0.7,0.3,0.9c0.2,0.2,0.5,0.3,0.8,0.3c0.8,0,1.8-0.5,3.1-1.5c1.3-0.9,2.5-2.1,3.7-3.4
				c0.5-0.6,0.9-0.9,1.2-0.9c0.4,0,0.7,0.2,0.7,0.6c0,0.9-1.1,2.2-3.5,4.2c-2.4,1.9-4.6,2.9-6.8,3.1c-1.4,0.1-2.4-0.1-3.1-0.6
				c-0.7-0.5-1.1-1.1-1.2-1.9c-0.1-1.1,1-5.1,3.4-11.8c3-8.5,4.5-13.4,4.4-14.5c0-0.4-0.1-0.8-0.3-1c-0.2-0.2-0.4-0.3-0.8-0.3
				c-1.1,0.1-2.7,1.3-5,3.7c-0.9,0.9-1.5,1.4-1.9,1.4c-0.3,0-0.5-0.2-0.6-0.6c0-0.6,1.2-2,3.7-4.2c2.5-2.1,4.8-3.3,6.8-3.4
				c0.8,0,1.6,0.2,2.2,0.8c0.6,0.6,1,1.2,1,2c0,0.9-0.1,1.8-0.3,2.6c-0.3,0.9-2,5.5-4.8,13.6C863.8,1392.2,862.8,1396,862.8,1396.4z
				 M872.2,1348.5c0.8,0,1.5,0.2,2.1,0.7c0.6,0.5,0.9,1.2,1,2c0,0.8-0.2,1.5-0.8,2.1c-0.5,0.6-1.2,0.9-2,1c-0.8,0-1.5-0.2-2.2-0.7
				c-0.6-0.5-0.9-1.2-1-2c0-0.8,0.2-1.5,0.8-2.1C870.7,1348.9,871.4,1348.6,872.2,1348.5z"/>
			<path d="M889.6,1378.7c2.4-4.5,4.8-7.8,7-10.1c2.2-2.3,4.3-3.5,6.3-3.5c1.2,0,2.1,0.3,2.7,1.1c0.7,0.8,1,1.8,1.1,2.9
				c0.1,1.4-0.1,2.9-0.4,4.4c-0.4,1.5-1.3,4.5-2.7,9.1c-1.9,6.2-2.9,9.8-2.8,10.9c0,0.8,0.4,1.2,1.1,1.2c0.6,0,1.6-0.6,2.9-1.8
				c1.3-1.1,2.3-2.3,2.9-3.3c0.6-1.1,1.1-1.7,1.5-1.7c0.4,0,0.6,0.2,0.7,0.7c0,1-1.2,2.8-3.6,5.3c-2.4,2.5-4.8,3.9-7.1,4
				c-2.3,0.1-3.4-0.8-3.5-2.7c-0.1-2,1.5-7.7,4.7-17.3c1.3-3.7,1.9-6.4,1.8-8.3c0-0.6-0.1-1-0.4-1.3c-0.2-0.3-0.6-0.4-1-0.4
				c-0.7,0-2.1,1-4.1,3c-2,2-4.2,5.4-6.5,10.3c-2.4,4.9-4.3,9.4-5.7,13.5c-0.9,2.5-1.5,3.8-1.8,3.8c-2.4,0.1-3.6-0.1-3.7-0.8
				c0-0.1,0.1-0.2,0.1-0.4c2.1-7.3,3.2-11,5.3-18.3c1.4-4.5,2.1-7.6,2-9.3c0-0.7-0.4-1.1-1.1-1.1c-0.6,0-1.6,0.7-2.9,2
				s-2.4,2.5-3.1,3.6c-0.6,0.9-1.1,1.3-1.5,1.3c-0.4,0-0.6-0.2-0.6-0.6c0-0.8,1.2-2.5,3.8-5.2c2.6-2.7,5.1-4.1,7.6-4.2
				c0.8,0,1.4,0.2,1.9,0.8c0.5,0.5,0.7,1.1,0.7,1.7C891.1,1369.1,890.6,1372.6,889.6,1378.7z"/>
			<path d="M920,1383c-0.7,3.4-1,6-0.9,7.7c0,1.1,0.4,2,1,2.8c0.6,0.8,1.5,1.2,2.5,1.2c1.5,0,3-0.7,4.6-2c1.6-1.3,3-2.8,4.1-4.6
				c0.5-0.9,1-1.3,1.5-1.3c0.5,0,0.7,0.2,0.7,0.6c0,1.2-1.3,3-3.9,5.4c-2.7,2.4-5.5,3.7-8.4,3.8c-2.3,0.1-4.1-0.7-5.4-2.3
				c-1.4-1.6-2.1-3.5-2.2-5.7c-0.2-4.7,1.8-10,5.9-15.8c4.1-5.9,8.3-8.8,12.4-9c1.4,0,2.7,0.4,3.7,1.4c1,1,1.5,2.1,1.5,3.3
				c0.1,2.4-1.2,4.9-3.8,7.5C930.5,1378.7,926.1,1381,920,1383z M920.5,1381.3c3.7-1.8,6.7-3.9,9.2-6.6c2.4-2.6,3.6-5,3.6-7.1
				c0-0.5-0.2-0.9-0.6-1.4c-0.4-0.4-0.9-0.7-1.5-0.6c-1.6,0-3.4,1.2-5.5,3.4C923.7,1371.2,921.9,1375.3,920.5,1381.3z"/>
			<path d="M941,1395.8c3.2-9.5,5.4-16.2,6.5-20.2c1.1-4,1.7-6.5,1.6-7.3c0-0.4-0.1-0.7-0.2-0.9c-0.2-0.2-0.4-0.3-0.7-0.3
				c-1.1,0-3.3,2.3-6.5,7c-0.6,0.9-1.1,1.4-1.4,1.4c-0.5,0-0.7-0.2-0.8-0.5c0-0.6,1.3-2.5,3.8-5.8c2.6-3.3,4.9-5,6.9-5
				c1.1,0,1.9,0.2,2.5,0.8c0.5,0.6,0.8,1.4,0.9,2.6c0,1.8-0.8,5.2-2.5,10.4c0.4-0.5,1.1-1.8,2.2-3.7c4.1-7.3,7.9-10.9,11.4-11
				c1.6,0,2.8,0.5,3.5,1.5c0.7,1,1.1,2.2,1.1,3.5c0,1.4-0.6,4.6-1.7,9.4c3.1-6,5.8-9.9,7.9-11.8c2.1-1.8,4.1-2.8,6-2.8
				c1.4,0,2.5,0.4,3.3,1.2c0.8,0.8,1.3,1.9,1.3,3.1c0,2.5-1.9,9-5.5,19.5c-1,2.8-1.5,4.5-1.5,5c0,0.3,0.1,0.6,0.2,0.8
				c0.2,0.2,0.4,0.2,0.7,0.2c0.6,0,1.9-0.8,3.9-2.5c2-1.6,3.4-3.1,4.4-4.4c0.5-0.7,1-1,1.4-1c0.4,0,0.6,0.1,0.6,0.4
				c0,0.9-1.6,2.8-4.9,5.8c-3.3,2.9-6,4.4-8.2,4.4c-0.8,0-1.4-0.3-2-0.9c-0.5-0.6-0.8-1.3-0.8-2.2c0-1.3,0.5-3.4,1.6-6.4
				c3.5-9.9,5.3-16.2,5.3-18.9c0-0.7-0.1-1.2-0.4-1.5c-0.2-0.3-0.6-0.5-1.1-0.5c-2.3,0-5.1,2.9-8.5,8.7c-3.3,5.8-6.5,13-9.4,21.6
				c-0.9,0.1-1.8,0.2-2.7,0.2c-0.6,0-1.2,0-1.8-0.1c4.8-14,7.2-22.5,7.2-25.5c0-1.4-0.2-2.5-0.5-3.2c-0.3-0.7-0.8-1.1-1.5-1
				c-1.8,0-4.4,2.9-7.7,8.6c-3.3,5.7-6.4,12.8-9.4,21.4c-0.6,0.1-1.1,0.2-1.4,0.2c-0.2,0-0.5,0-0.9,0
				C942.5,1395.8,941.7,1395.8,941,1395.8z"/>
			<path d="M1016.6,1389.6c-1.8,0.9-3.2,1.9-4.4,3.1c-1.2,1.2-2,1.8-2.3,1.8c-0.3,0-0.5-0.1-0.5-0.4c0-0.1,0.1-0.2,0.1-0.3
				c0.7-1.2,1.6-3.1,2.5-5.9c2.9-8.2,4.7-12.3,5.6-12.3c0.4,0,0.6,0.2,0.6,0.6c0,0.4-0.1,0.9-0.3,1.5c-0.4,1.1-0.6,2.2-0.6,3.4
				c0,3.5,1.3,6.5,3.8,9c2.6,2.5,5.6,3.7,9,3.8c2.6,0,4.8-0.7,6.4-2.2c1.6-1.5,2.4-3.3,2.5-5.4c0-2.2-0.6-4.3-1.8-6.3
				c-1.3-2-4.2-5.4-8.7-10.1c-2.6-2.7-4.2-4.9-4.9-6.4c-0.7-1.6-1.1-3.2-1-4.9c0-3.8,1.5-6.9,4.3-9.2c2.8-2.3,6.3-3.5,10.4-3.4
				c4.4,0.1,7.9,1.8,10.5,5.2c0.6,0.8,1,1.2,1.2,1.2c0.6,0,1.2-0.8,2-2.3c0.4-0.7,0.7-1.1,1.1-1c0.4,0,0.6,0.2,0.6,0.7
				c0,0.3-0.1,0.7-0.2,1.1c-0.5,1.3-1.1,3.8-2,7.3c-0.9,3.4-1.5,5.4-1.7,6c-0.2,0.6-0.5,0.9-0.9,0.9c-0.4,0-0.6-0.3-0.6-0.9
				c0-0.2,0-0.4,0.1-0.7c0.1-0.9,0.2-1.7,0.2-2.6c0.1-3.7-0.8-6.8-2.7-9.4c-1.8-2.6-4.4-3.9-7.7-4c-2.2,0-4.2,0.6-5.8,2
				c-1.7,1.3-2.5,3.1-2.5,5.3c0,1.3,0.2,2.6,0.7,3.7c0.5,1.2,1,2.2,1.7,3.1c0.7,0.9,2.3,2.7,4.8,5.3c3.7,3.9,6.2,6.9,7.5,9
				c1.3,2.1,1.9,4.2,1.9,6.4c-0.1,3.5-1.4,6.6-4.1,9.3c-2.7,2.7-6.2,3.9-10.6,3.9C1025,1395.3,1020.4,1393.4,1016.6,1389.6z"/>
			<path d="M1073.4,1364.3c1.3,0,2.4,0.5,3.4,1.4c1,0.9,1.5,2,1.4,3.3c0,0.9-0.3,1.6-0.8,2c-0.5,0.5-1.1,0.7-1.7,0.7
				c-0.7,0-1.2-0.2-1.5-0.7c-0.3-0.4-0.7-1.2-0.9-2.3c-0.3-1.1-0.5-1.9-0.8-2.1c-0.3-0.2-0.7-0.4-1.1-0.4c-1.4,0-3.2,1-5.3,3.1
				c-2.1,2.1-3.8,5.1-5.3,9c-1.4,3.8-2.2,7.1-2.2,9.8c-0.1,2,0.3,3.5,0.9,4.5c0.7,1,1.6,1.6,3,1.6c1.5,0,3.1-0.6,4.8-2
				c1.8-1.4,3.2-2.9,4.4-4.5c0.6-0.8,1.1-1.2,1.5-1.2c0.4,0,0.6,0.2,0.6,0.7c0,0.8-1.4,2.6-4.2,5.2c-2.8,2.6-5.9,3.9-9.4,3.8
				c-2.3-0.1-4.1-0.8-5.5-2.2s-2-3.2-1.9-5.5c0.1-3.9,1.4-7.8,3.9-11.8c2.5-4,5.3-7.1,8.4-9.3
				C1068,1365.3,1070.8,1364.2,1073.4,1364.3z"/>
			<path d="M1084.8,1393.9c0,0.4,0.1,0.7,0.2,0.9c0.2,0.2,0.4,0.3,0.8,0.3c0.8,0,1.8-0.4,3.2-1.2c1.4-0.8,2.7-1.8,4-3.1
				c0.6-0.5,1-0.8,1.3-0.8c0.4,0,0.7,0.2,0.6,0.6c0,0.9-1.3,2.1-3.9,3.8c-2.6,1.7-4.9,2.5-7,2.4c-1.4,0-2.4-0.4-3.1-0.9
				c-0.7-0.6-1-1.2-1-2c0-1.1,1.5-4.9,4.5-11.5c3.8-8.2,5.7-12.9,5.8-14c0-0.4-0.1-0.8-0.2-1c-0.2-0.2-0.4-0.3-0.8-0.3
				c-1.1,0-2.8,1-5.3,3.2c-1,0.9-1.6,1.3-2,1.3c-0.3,0-0.5-0.2-0.5-0.6c0-0.6,1.4-1.9,4.1-3.8c2.7-1.9,5.1-2.8,7.1-2.7
				c0.8,0,1.6,0.4,2.2,1c0.6,0.7,0.9,1.3,0.8,2c0,0.9-0.2,1.7-0.6,2.6c-0.3,0.8-2.5,5.2-6.1,13
				C1086.2,1389.8,1084.8,1393.4,1084.8,1393.9z M1098.7,1347.1c0.8,0,1.5,0.3,2,0.9c0.6,0.6,0.8,1.3,0.8,2.1c0,0.8-0.4,1.5-1,2
				c-0.6,0.5-1.3,0.8-2.1,0.8c-0.8,0-1.5-0.3-2.1-0.9c-0.6-0.6-0.8-1.3-0.8-2.1c0-0.8,0.4-1.5,1-2
				C1097.2,1347.3,1097.9,1347.1,1098.7,1347.1z"/>
			<path d="M1106.6,1384c-0.9,3.3-1.5,5.9-1.5,7.6c0,1.1,0.2,2,0.8,2.9c0.6,0.9,1.4,1.3,2.4,1.4c1.5,0.1,3.1-0.5,4.8-1.6
				c1.7-1.1,3.2-2.5,4.4-4.2c0.6-0.8,1.2-1.2,1.6-1.2c0.5,0,0.7,0.3,0.7,0.7c-0.1,1.2-1.5,2.9-4.4,5.1c-2.8,2.2-5.7,3.2-8.7,3.1
				c-2.3-0.1-4-1-5.2-2.7c-1.2-1.7-1.8-3.7-1.7-5.8c0.2-4.7,2.6-9.8,7.1-15.3c4.6-5.5,8.9-8.1,13.1-7.9c1.4,0.1,2.6,0.6,3.5,1.7
				c0.9,1.1,1.3,2.2,1.3,3.4c-0.1,2.4-1.6,4.8-4.4,7.2C1117.5,1380.6,1112.9,1382.5,1106.6,1384z M1107.2,1382.4
				c3.8-1.5,7-3.4,9.7-5.8c2.6-2.4,4-4.7,4.1-6.8c0-0.5-0.1-0.9-0.5-1.4c-0.3-0.5-0.8-0.7-1.4-0.8c-1.6-0.1-3.5,0.9-5.7,3
				C1111.2,1372.6,1109.1,1376.5,1107.2,1382.4z"/>
			<path d="M1139.4,1380.2c2.9-4.2,5.6-7.3,8-9.3c2.5-2,4.7-3,6.7-2.8c1.2,0.1,2,0.5,2.6,1.4c0.6,0.9,0.8,1.9,0.7,3
				c-0.1,1.4-0.4,2.8-0.9,4.3c-0.5,1.5-1.7,4.4-3.7,8.8c-2.6,5.9-3.9,9.4-4,10.5c-0.1,0.8,0.3,1.2,1,1.3c0.6,0,1.7-0.4,3.1-1.4
				c1.4-1,2.5-2,3.2-3c0.7-1,1.3-1.6,1.7-1.5c0.4,0,0.6,0.3,0.6,0.8c-0.1,1-1.5,2.6-4.1,4.9c-2.7,2.3-5.2,3.3-7.5,3.2
				c-2.3-0.1-3.3-1.2-3.2-3c0.1-2,2.3-7.5,6.5-16.7c1.6-3.5,2.5-6.2,2.7-8c0-0.6,0-1-0.2-1.3c-0.2-0.3-0.5-0.5-1-0.5
				c-0.7,0-2.2,0.8-4.4,2.5c-2.2,1.7-4.7,4.9-7.6,9.6c-2.9,4.6-5.3,8.9-7.1,12.8c-1.2,2.4-1.9,3.6-2.2,3.6c-2.4-0.1-3.6-0.5-3.6-1.2
				c0.1-0.1,0.1-0.2,0.1-0.4c2.9-7.1,4.3-10.6,7.3-17.6c1.9-4.3,2.9-7.3,3-9c0-0.7-0.3-1.1-1-1.2c-0.6,0-1.7,0.5-3.1,1.6
				s-2.6,2.2-3.5,3.3c-0.7,0.8-1.2,1.2-1.6,1.2c-0.4,0-0.5-0.2-0.5-0.6c0-0.8,1.5-2.4,4.3-4.8c2.8-2.4,5.5-3.5,8-3.4
				c0.8,0,1.4,0.4,1.8,1c0.4,0.6,0.6,1.2,0.5,1.8C1141.9,1370.8,1141,1374.3,1139.4,1380.2z"/>
			<path d="M1177.9,1372.1c-0.3,0.7-1.1,2.6-2.4,5.7c-4.5,10-6.7,16.1-6.9,18.4c-0.1,1.5,0.4,2.3,1.5,2.3c1.8,0.1,4.7-1.7,8.6-5.6
				c0.5-0.5,0.9-0.7,1.3-0.7c0.4,0,0.7,0.2,0.6,0.6c0,0.6-1.7,2.3-5,4.9c-3.3,2.7-6.5,3.9-9.8,3.6c-1.1-0.1-2-0.5-2.5-1.1
				c-0.5-0.7-0.8-1.4-0.7-2.1c0.1-1.7,0.8-3.9,2.1-6.6c0.1-0.2,2.8-6.7,8.3-19.4c-1.4-0.1-2.1-0.2-3.5-0.3c-1,0-1.5,0-2.5-0.1
				c-0.3,0-0.5-0.2-0.5-0.6c0.1-0.7,0.2-1.1,0.3-1.2c0.2-0.1,0.8-0.2,2-0.2c1.2,0,2.9,0.1,5,0.2c0.8-2,1.7-4.2,2.8-6.8
				c0.7-1.6,1.1-2.5,1.8-4.1c0.1-0.2,0.2-0.3,0.5-0.3c0.9,0.1,1.8,0.3,2.6,0.6c0.8,0.3,1.3,0.6,1.2,0.9c-0.1,0.1-0.1,0.2-0.1,0.3
				c-1.7,4-2.5,6-4.2,10c1.8,0.2,2.8,0.3,4.6,0.5c1.5,0.2,2.3,0.3,2.4,0.3c0.1,0,0.1,0.1,0.1,0.3c-0.1,1.1-0.3,1.6-0.7,1.6
				c-1.1-0.2-1.6-0.3-2.7-0.4C1180.4,1372.4,1179.5,1372.3,1177.9,1372.1z"/>
			<path d="M1189.6,1400.1c0,0.4,0,0.7,0.2,1c0.2,0.2,0.4,0.3,0.8,0.4c0.8,0.1,1.9-0.3,3.3-1c1.4-0.7,2.8-1.7,4.2-2.9
				c0.6-0.5,1-0.8,1.4-0.7c0.4,0,0.6,0.3,0.6,0.6c-0.1,0.9-1.4,2.1-4.1,3.6c-2.6,1.6-5,2.3-7.1,2.1c-1.4-0.1-2.4-0.5-3-1.1
				c-0.7-0.6-1-1.3-0.9-2c0.1-1.1,1.8-4.9,5-11.2c4.1-8,6.3-12.6,6.4-13.7c0-0.4,0-0.8-0.2-1c-0.1-0.2-0.4-0.3-0.7-0.4
				c-1.1-0.1-2.9,0.9-5.4,3c-1,0.8-1.7,1.2-2,1.2c-0.3,0-0.5-0.2-0.5-0.6c0.1-0.6,1.5-1.8,4.2-3.6c2.8-1.8,5.2-2.5,7.2-2.4
				c0.8,0.1,1.5,0.4,2.1,1.1c0.6,0.7,0.8,1.4,0.7,2.1c-0.1,0.9-0.3,1.7-0.7,2.6c-0.4,0.8-2.8,5.1-6.7,12.7
				C1191.2,1396.1,1189.6,1399.7,1189.6,1400.1z M1205.6,1354c0.8,0.1,1.5,0.4,2,1c0.5,0.6,0.8,1.3,0.7,2.1c-0.1,0.8-0.4,1.5-1,2
				c-0.6,0.5-1.3,0.7-2.1,0.7c-0.8-0.1-1.5-0.4-2-1c-0.5-0.6-0.8-1.3-0.7-2.1c0.1-0.8,0.4-1.5,1.1-2
				C1204.1,1354.2,1204.8,1354,1205.6,1354z"/>
			<path d="M1237.3,1375.7c-0.9,1.4-2.7,5.4-5.4,11.7c-1.7,4-2.6,5.9-4.3,9.9c-0.9,1.8-1.4,3.3-1.5,4.7c-0.1,0.8,0.3,1.3,1.1,1.4
				c0.6,0.1,1.4-0.3,2.6-0.9c1.2-0.7,2.3-1.6,3.5-2.7c0.8-0.7,1.3-1.1,1.6-1.1c0.4,0,0.6,0.3,0.6,0.7c-0.1,0.7-1.6,2-4.5,4
				c-2.9,2-5.4,2.9-7.5,2.7c-1.4-0.1-2-1.2-1.9-3.1c0.1-1.3,0.4-3,0.8-5.1c-4.3,4.8-8.5,6.9-12.7,6.6c-1.8-0.2-3.1-0.9-3.8-2.3
				c-0.7-1.4-1-2.9-0.9-4.5c0.4-4.7,3.3-9.9,8.6-15.6c5.3-5.7,10.2-8.3,14.4-7.9c1.1,0.1,2,0.6,2.6,1.4c0.6,0.8,0.9,2,0.9,3.6
				c0.6-1.1,1.4-2.5,2.6-4.2c0.8,0.2,1.6,0.4,2.2,0.6C1236.8,1375.6,1237.2,1375.7,1237.3,1375.7z M1225.8,1375.9
				c-1.4-0.1-3.3,0.7-5.6,2.6c-2.3,1.8-4.4,4.7-6.4,8.5c-2,3.8-3.1,7.1-3.3,9.7c-0.1,1.6,0,2.8,0.5,3.6c0.5,0.8,1.3,1.3,2.4,1.4
				c2.9,0.3,6-2.1,9.4-7c3.4-4.9,5.4-9.5,5.8-13.7c0.1-1.4-0.1-2.5-0.6-3.5S1226.7,1375.9,1225.8,1375.9z"/>
			<path d="M1239.7,1407.6c4.4-9,7.5-15.4,9.1-19.2c1.6-3.8,2.5-6.2,2.6-7c0-0.4,0-0.7-0.1-1c-0.1-0.2-0.4-0.4-0.7-0.4
				c-1.1-0.1-3.6,1.9-7.3,6.1c-0.7,0.8-1.2,1.2-1.5,1.2c-0.5-0.1-0.7-0.2-0.7-0.6c0.1-0.6,1.6-2.4,4.6-5.3c3-2.9,5.5-4.3,7.5-4.1
				c1.1,0.1,1.9,0.5,2.3,1.1c0.5,0.6,0.6,1.5,0.5,2.7c-0.2,1.8-1.5,5.1-3.8,10c0.4-0.5,1.3-1.6,2.6-3.4c5-6.7,9.3-9.8,12.8-9.4
				c1.6,0.2,2.7,0.8,3.3,1.9c0.6,1.1,0.8,2.3,0.7,3.7c-0.2,1.4-1.2,4.4-2.9,9.1c3.9-5.6,7-9.1,9.4-10.7c2.3-1.5,4.4-2.2,6.3-2
				c1.4,0.2,2.4,0.7,3.1,1.6c0.7,0.9,1,2,0.9,3.3c-0.3,2.5-3,8.7-8,18.6c-1.4,2.7-2.1,4.3-2.2,4.8c0,0.3,0,0.6,0.1,0.8
				c0.1,0.2,0.4,0.3,0.7,0.3c0.6,0.1,2-0.6,4.2-1.9c2.2-1.4,3.8-2.6,5-3.8c0.6-0.6,1.1-0.9,1.5-0.8c0.4,0,0.6,0.2,0.5,0.5
				c-0.1,0.9-2,2.6-5.6,5.1c-3.6,2.5-6.5,3.6-8.7,3.3c-0.8-0.1-1.4-0.5-1.9-1.1c-0.5-0.6-0.6-1.4-0.5-2.3c0.2-1.3,1-3.3,2.4-6.2
				c4.8-9.3,7.4-15.3,7.7-18c0.1-0.7,0-1.2-0.2-1.6c-0.2-0.4-0.5-0.6-1-0.6c-2.3-0.3-5.5,2.2-9.5,7.5c-4.1,5.3-8.1,12-12.1,20.2
				c-0.9,0-1.8-0.1-2.7-0.2c-0.6-0.1-1.2-0.2-1.7-0.3c6.6-13.3,10.1-21.4,10.4-24.4c0.2-1.4,0.1-2.5-0.1-3.2
				c-0.2-0.7-0.7-1.2-1.4-1.2c-1.8-0.2-4.7,2.3-8.7,7.5c-4,5.2-8,11.9-12.1,20c-0.6,0-1.1,0-1.5,0c-0.2,0-0.5-0.1-0.9-0.1
				C1241.2,1407.8,1240.4,1407.6,1239.7,1407.6z"/>
		</g>
	</g>
</g>
<g id="GUÃAS">
</g>
</svg>
