<?xml version="1.0" encoding="utf-8"?>
<!-- Generator: Adobe Illustrator 25.4.1, SVG Export Plug-In . SVG Version: 6.00 Build 0)  -->
<svg version="1.1" id="Capa_1" xmlns="http://www.w3.org/2000/svg" xmlns:xlink="http://www.w3.org/1999/xlink" x="0px" y="0px"
	 viewBox="0 0 1612.04 223.04" style="enable-background:new 0 0 1612.04 223.04;" xml:space="preserve">
<style type="text/css">
	.st0{fill:#666666;}
	.st1{fill:#D6D6D6;}
	.st2{fill:#006600;}
	.st3{fill:#003300;}
	.st4{fill:#669966;}
	.st5{opacity:0.8;}
	.st6{fill:#868686;}
	.st7{fill:url(#SVGID_1_);}
	.st8{fill:#999999;}
</style>
<g>
	<path class="st0" d="M34.69,9.87h61.12c0,0,4.21-2.33,2.87-4.33c-6.92,0-75.88,0-75.88,0s-0.03,0.26-0.11,1
		C28.94,6.2,34.71,7.22,34.69,9.87z"/>
	<g>
		<path class="st1" d="M319.37,17.37l-8,39.33c0,0,1,6.33,4.67,6.33s21.67,0,21.67,0s7-1,8.33-3.33l-51.34,96.72
			c0,0-42.27-147.63-43.44-151.22c-1.16-3.59-7.84-5-7.84-5l-72.38,15.83l33.33,99.33c0,0-2.06,24.27-4,32.33
			c-3,8-16.67,19.33-58,19c-41.33-0.33-46.15-20-44.82-29c1.19-8.03,16.82-110.15,20.19-132.17c0.21-5.83-8.37-5.33-8.37-5.33
			L22.7,16.37l-22.67,139c0,0-3.67,67,73.67,67c72.84,0,179,0.67,179,0.67l99.67-41.67c0,0,22.33,9.33,34.33-13.67
			c0,0,6.67,9.67,15.33-0.67c0,0,19,12.33,23.33,14.67c0,0,11.67,2.33,12-2s17.67-118.67,17.67-118.67h51.16
			c0,0,3.33,1.18,4.42-5.92c1.08-7.11,3.94-22.58,5.76-37.74c1.82-15.17-7.01-16-7.01-16L319.37,17.37z"/>
		<g>
			<path d="M134.89,173.04c-41.84,0-46.13-32.4-46.17-32.74c-0.03-0.26-0.03-0.53,0.01-0.79L108.47,6.2H22.69l1-6h88.25
				c0.87,0,1.7,0.38,2.27,1.04c0.57,0.66,0.82,1.54,0.7,2.4L94.73,139.96c0.56,3.48,5.98,28.75,43.83,27
				c41.06-1.9,55.59-28.63,55.73-28.9c0.12-0.22,0.26-0.43,0.43-0.61c0.46-1.17,2.25-11.49,4.49-38.74l5.98,4.75
				c-2.64,32.15-4.67,36.68-5.89,37.96c-2.44,4.23-18.83,29.62-60.46,31.55C137.48,173.01,136.17,173.04,134.89,173.04z
				 M196.93,136.45c-0.39,0-0.74,0.08-1.04,0.19c0.43-0.16,0.9-0.22,1.38-0.17C197.15,136.46,197.04,136.45,196.93,136.45z"/>
		</g>
		<path class="st2" d="M22.69,5.54l-22.67,139c0,0-3.67,67,73.67,67s170.67,0,170.67,0l-40-107c0,0-2.06,24.27-4,32.33
			c-3,8-25.67,35.67-67,35.33s-45.16-30.33-43.83-39.33c1.33-9,19.83-127.33,19.83-127.33H22.69z"/>
		<path class="st3" d="M202,108.04l26.69,95.17H79.19c0,0-45.5-5-63-22.75c0,0-2.23-1.09-2.5,0c-1.23,5.03,11.67,31.08,60.75,31.08
			c55.92,0,169.92,2.67,169.92,2.67L202,108.04z"/>
		<path class="st4" d="M22.69,6.54c0,0,12.5-0.83,12,3.67s-23.5,146.5-23.5,146.5s-11.18-9.24-11.18-9.74
			C0,146.46,22.69,6.54,22.69,6.54z"/>
		<path class="st1" d="M171.03,5.2l73.33,209h8.33l99.67-43.67c0,0,22.33,9.33,34.33-13.67c0,0,6.67,9.67,15.33-0.67
			c0,0,19,12.33,23.33,14.67c0,0,2.67,2.33,3-2c0.33-4.33,17.67-118.67,17.67-118.67h56.67l6.67-43.67h-184l-7,40.33
			c0,0,0,5.33,3.67,5.33c3.67,0,15.67,0,15.67,0s7-1,8.33-3.33l-59.67,106l-44-149.67H171.03z"/>
		<g class="st5">
			<path class="st6" d="M242.36,5.2l-3.04,10.92l41.29,140.44c0.68,2.31,2.68,4,5.08,4.27c0.23,0.03,0.45,0.04,0.68,0.04
				c2.15,0,4.16-1.15,5.23-3.06l59.67-106c1.62-2.88-1.66-16.03-11.06-12.28c-9.4,3.75-15.63,6.67-15.63,6.67l5.3-30.56l-4.51-9.11
				l7.83,6h167l9.17-6l-7.54,9.61l-4.28,28.06h-51.51c-2.97,0-5.49,2.17-5.93,5.1c-1.56,10.27-13.71,90.51-16.94,113.26
				c-5.71-3.54-14.12-8.96-17.86-11.39c-0.62-0.4-8.51-9.03-22.27-3.3c-12,5-17.04,18.54-20.16,18.54c-4.64,0,0.32-28.87,0.32-28.87
				c-0.5-6.33-5.5-8.67-10.83-2c-8.81,10.06-28.9,34.33-29.67,34.67l-72.42,34.58h-2.82L179.49,11.2h54.87L242.36,5.2 M242.36,5.2
				h-71.33l73.33,209h8.33l99.67-43.67c0,0,4.48,1.87,10.51,1.87c7.43,0,17.2-2.84,23.82-15.54c0,0,2.83,4.1,7.2,4.1
				c2.34,0,5.11-1.17,8.13-4.77c0,0,19,12.33,23.33,14.67c0,0,0.72,0.63,1.45,0.63c0.68,0,1.39-0.54,1.55-2.63
				c0.33-4.33,17.67-118.67,17.67-118.67h56.67l6.67-43.67h-184l-7,40.33c0,0,0,5.33,3.67,5.33c3.67,0,15.67,0,15.67,0
				s7-1,8.33-3.33l-59.67,106L242.36,5.2L242.36,5.2z"/>
		</g>
		<linearGradient id="SVGID_1_" gradientUnits="userSpaceOnUse" x1="910.694" y1="92.2051" x2="910.694" y2="110.19">
			<stop  offset="0" style="stop-color:#99CC98"/>
			<stop  offset="0.6109" style="stop-color:#006600"/>
			<stop  offset="1" style="stop-color:#003300"/>
		</linearGradient>
		<path class="st7" d="M1275.69,105.19c0,2.76-2.24,5-5,5h-720c-2.76,0-5-2.24-5-5v-7.98c0-2.76,2.24-5,5-5h720c2.76,0,5,2.24,5,5
			V105.19z"/>
		<path class="st3" d="M98.94,5.54L83.19,115.95c0,0-2.25,19.75,7.5,29.25l17.6-134.98c0,0,1.65-4.8-2.85-4.74
			C100.94,5.54,98.94,5.54,98.94,5.54z"/>
		<g>
			<path d="M557.33,0h11.09l-10.64,50.98c-0.87,4.22-1.3,7.35-1.3,9.39c0,4.45,1.75,8.03,5.26,10.75s7.92,4.07,13.24,4.07
				c4.22,0,8.16-0.97,11.8-2.91c3.64-1.94,6.52-4.8,8.63-8.57c2.11-3.77,4.02-9.79,5.71-18.05L610.69,0h11.09l-10.13,48.66
				c-1.74,8.3-4.02,14.87-6.85,19.72c-2.83,4.85-6.75,8.73-11.77,11.66c-5.02,2.92-10.84,4.38-17.48,4.38
				c-6.26,0-11.68-1.04-16.27-3.11c-4.58-2.07-8.02-4.94-10.3-8.6c-2.28-3.66-3.42-7.81-3.42-12.45c0-2.9,0.77-7.9,2.32-14.99
				L557.33,0z"/>
			<path d="M623.05,82.94l12.56-60.09h9.28l-2.21,10.47c4.04-4.11,7.81-7.11,11.32-9c3.51-1.89,7.09-2.83,10.75-2.83
				c4.87,0,8.68,1.32,11.46,3.96c2.77,2.64,4.16,6.17,4.16,10.58c0,2.23-0.49,5.73-1.47,10.52l-7.64,36.38h-10.24l7.98-38.08
				c0.79-3.7,1.19-6.43,1.19-8.2c0-2-0.69-3.62-2.06-4.87c-1.38-1.24-3.37-1.87-5.97-1.87c-5.24,0-9.91,1.89-14,5.66
				c-4.09,3.77-7.1,10.24-9.02,19.41l-5.83,27.95H623.05z"/>
			<path d="M688.25,82.94l12.56-60.09h10.24l-12.56,60.09H688.25z M703.19,11.6L705.62,0h10.18l-2.43,11.6H703.19z"/>
			<path d="M730.71,82.94l-9.84-60.09h9.96l5.15,33.1c0.57,3.62,1.26,9.52,2.09,17.71c1.96-4.26,4.47-9.15,7.52-14.65l20.09-36.15
				h10.81l-34.4,60.09H730.71z"/>
			<path d="M818.78,62.52l9.96,1.02c-1.43,4.94-4.72,9.64-9.87,14.09c-5.15,4.45-11.29,6.68-18.42,6.68
				c-4.45,0-8.53-1.03-12.25-3.08c-3.72-2.06-6.54-5.04-8.49-8.97c-1.94-3.92-2.91-8.39-2.91-13.41c0-6.56,1.52-12.93,4.55-19.1
				c3.04-6.17,6.97-10.75,11.8-13.75c4.83-3,10.05-4.5,15.67-4.5c7.17,0,12.89,2.23,17.17,6.68c4.28,4.45,6.42,10.52,6.42,18.22
				c0,2.94-0.27,5.96-0.79,9.05h-44.24c-0.15,1.17-0.23,2.23-0.23,3.17c0,5.62,1.29,9.91,3.88,12.87c2.58,2.96,5.74,4.44,9.48,4.44
				c3.51,0,6.96-1.15,10.35-3.45C814.25,70.18,816.89,66.86,818.78,62.52z M789.02,47.64h33.72c0.04-1.06,0.06-1.81,0.06-2.26
				c0-5.13-1.28-9.06-3.85-11.8c-2.56-2.73-5.87-4.1-9.9-4.1c-4.38,0-8.37,1.51-11.97,4.53C793.48,37.02,790.79,41.57,789.02,47.64z
				"/>
			<path d="M840.25,82.94l12.56-60.09h9.05l-2.55,12.28c3.09-4.64,6.12-8.07,9.08-10.3c2.96-2.23,5.99-3.34,9.08-3.34
				c2.04,0,4.54,0.74,7.53,2.21l-4.19,9.51c-1.77-1.28-3.72-1.92-5.83-1.92c-3.58,0-7.26,2-11.03,6c-3.77,4-6.73,11.18-8.88,21.56
				l-5.09,24.1H840.25z"/>
			<path d="M880.95,62.41l10.24-0.62c0,2.94,0.45,5.45,1.36,7.52c0.91,2.07,2.57,3.77,5.01,5.09c2.43,1.32,5.27,1.98,8.51,1.98
				c4.53,0,7.92-0.91,10.18-2.72c2.26-1.81,3.4-3.94,3.4-6.39c0-1.77-0.68-3.45-2.04-5.04c-1.4-1.58-4.8-3.54-10.21-5.86
				c-5.41-2.32-8.87-3.95-10.38-4.89c-2.53-1.55-4.43-3.37-5.71-5.46c-1.28-2.09-1.92-4.5-1.92-7.21c0-4.75,1.89-8.83,5.66-12.22
				c3.77-3.39,9.05-5.09,15.84-5.09c7.54,0,13.29,1.75,17.23,5.23c3.94,3.49,5.99,8.08,6.14,13.78l-10.01,0.68
				c-0.15-3.62-1.43-6.49-3.85-8.6c-2.41-2.11-5.83-3.17-10.24-3.17c-3.55,0-6.3,0.81-8.26,2.43c-1.96,1.62-2.94,3.38-2.94,5.26
				c0,1.89,0.85,3.55,2.55,4.98c1.13,0.98,4.05,2.49,8.77,4.53c7.84,3.4,12.79,6.07,14.82,8.03c3.24,3.13,4.87,6.94,4.87,11.43
				c0,2.98-0.92,5.9-2.74,8.77c-1.83,2.87-4.62,5.16-8.37,6.87c-3.75,1.72-8.18,2.57-13.27,2.57c-6.94,0-12.84-1.72-17.71-5.15
				C882.99,75.72,880.69,70.14,880.95,62.41z"/>
			<path d="M938.69,82.94l12.56-60.09h10.24l-12.56,60.09H938.69z M953.63,11.6L956.06,0h10.18l-2.43,11.6H953.63z"/>
			<path d="M1006.5,74.23c-5.85,6.71-11.96,10.07-18.33,10.07c-5.7,0-10.44-2.1-14.23-6.31c-3.79-4.21-5.69-10.31-5.69-18.3
				c0-7.32,1.5-14,4.5-20.06c3-6.05,6.75-10.59,11.26-13.61c4.51-3.02,9.02-4.53,13.55-4.53c7.47,0,13.11,3.6,16.92,10.81L1021.26,0
				h10.18l-17.31,82.94h-9.45L1006.5,74.23z M978.43,57.77c0,4.19,0.41,7.49,1.24,9.9c0.83,2.41,2.24,4.42,4.24,6.03
				c2,1.6,4.39,2.4,7.19,2.4c4.64,0,8.84-2.41,12.62-7.24c5.05-6.41,7.58-14.33,7.58-23.76c0-4.75-1.24-8.47-3.73-11.15
				c-2.49-2.68-5.62-4.02-9.39-4.02c-2.45,0-4.69,0.55-6.7,1.64c-2.02,1.09-4.02,2.95-6,5.57c-1.98,2.62-3.65,5.95-5.01,9.99
				C979.11,51.17,978.43,54.71,978.43,57.77z"/>
			<path d="M1072.1,75.48c-3.55,3.06-6.96,5.29-10.24,6.7c-3.28,1.41-6.79,2.12-10.52,2.12c-5.54,0-10.01-1.63-13.41-4.89
				c-3.39-3.26-5.09-7.44-5.09-12.53c0-3.36,0.76-6.33,2.29-8.91c1.53-2.58,3.55-4.66,6.08-6.22c2.53-1.56,5.62-2.69,9.28-3.37
				c2.3-0.45,6.67-0.81,13.1-1.07c6.43-0.26,11.04-0.94,13.83-2.04c0.79-2.79,1.19-5.11,1.19-6.96c0-2.38-0.87-4.24-2.6-5.6
				c-2.38-1.89-5.85-2.83-10.41-2.83c-4.3,0-7.82,0.95-10.55,2.86c-2.74,1.91-4.72,4.61-5.97,8.12l-10.35-0.91
				c2.11-5.96,5.46-10.52,10.04-13.69c4.58-3.17,10.36-4.75,17.34-4.75c7.43,0,13.31,1.77,17.65,5.32c3.32,2.64,4.98,6.07,4.98,10.3
				c0,3.21-0.47,6.92-1.42,11.15l-3.34,14.94c-1.06,4.75-1.58,8.62-1.58,11.6c0,1.89,0.42,4.6,1.25,8.15h-10.35
				C1072.72,80.98,1072.32,78.49,1072.1,75.48z M1075.89,52.5c-1.43,0.57-2.97,1-4.61,1.3c-1.64,0.3-4.38,0.62-8.23,0.96
				c-5.96,0.53-10.17,1.2-12.62,2.01c-2.45,0.81-4.3,2.1-5.54,3.88c-1.25,1.77-1.87,3.73-1.87,5.88c0,2.87,0.99,5.22,2.97,7.07
				c1.98,1.85,4.8,2.77,8.46,2.77c3.39,0,6.66-0.9,9.79-2.69c3.13-1.79,5.6-4.29,7.41-7.5C1073.46,62.99,1074.87,58.43,1075.89,52.5
				z"/>
			<path d="M1137.7,74.23c-5.85,6.71-11.96,10.07-18.33,10.07c-5.7,0-10.44-2.1-14.23-6.31c-3.79-4.21-5.69-10.31-5.69-18.3
				c0-7.32,1.5-14,4.5-20.06c3-6.05,6.75-10.59,11.26-13.61c4.51-3.02,9.02-4.53,13.55-4.53c7.47,0,13.11,3.6,16.92,10.81L1152.47,0
				h10.18l-17.31,82.94h-9.45L1137.7,74.23z M1109.64,57.77c0,4.19,0.41,7.49,1.24,9.9c0.83,2.41,2.24,4.42,4.24,6.03
				c2,1.6,4.39,2.4,7.19,2.4c4.64,0,8.84-2.41,12.62-7.24c5.05-6.41,7.58-14.33,7.58-23.76c0-4.75-1.24-8.47-3.73-11.15
				c-2.49-2.68-5.62-4.02-9.39-4.02c-2.45,0-4.69,0.55-6.7,1.64c-2.02,1.09-4.02,2.95-6,5.57c-1.98,2.62-3.65,5.95-5.01,9.99
				C1110.32,51.17,1109.64,54.71,1109.64,57.77z"/>
		</g>
		<g>
			<path d="M578.72,199.83c-5.85,6.71-11.96,10.07-18.33,10.07c-5.7,0-10.44-2.1-14.23-6.31c-3.79-4.21-5.69-10.31-5.69-18.3
				c0-7.32,1.5-14,4.5-20.06c3-6.05,6.75-10.59,11.26-13.61c4.51-3.02,9.02-4.53,13.55-4.53c7.47,0,13.11,3.6,16.92,10.81
				l6.79-32.31h10.18l-17.31,82.94h-9.45L578.72,199.83z M550.66,183.36c0,4.19,0.41,7.49,1.24,9.9c0.83,2.41,2.24,4.42,4.24,6.03
				c2,1.6,4.39,2.4,7.19,2.4c4.64,0,8.84-2.41,12.62-7.24c5.05-6.41,7.58-14.33,7.58-23.76c0-4.75-1.24-8.47-3.73-11.15
				c-2.49-2.68-5.62-4.02-9.39-4.02c-2.45,0-4.69,0.55-6.7,1.64c-2.02,1.09-4.02,2.95-6,5.57c-1.98,2.62-3.65,5.95-5.01,9.99
				S550.66,180.31,550.66,183.36z"/>
			<path d="M647.59,188.11l9.96,1.02c-1.43,4.94-4.72,9.64-9.87,14.09c-5.15,4.45-11.29,6.68-18.42,6.68
				c-4.45,0-8.53-1.03-12.25-3.08c-3.72-2.06-6.54-5.04-8.49-8.97c-1.94-3.92-2.91-8.39-2.91-13.41c0-6.56,1.52-12.93,4.55-19.1
				c3.04-6.17,6.97-10.75,11.8-13.75c4.83-3,10.05-4.5,15.67-4.5c7.17,0,12.89,2.23,17.17,6.68c4.28,4.45,6.42,10.52,6.42,18.22
				c0,2.94-0.26,5.96-0.79,9.05h-44.24c-0.15,1.17-0.23,2.23-0.23,3.17c0,5.62,1.29,9.91,3.88,12.87c2.58,2.96,5.74,4.44,9.48,4.44
				c3.51,0,6.96-1.15,10.35-3.45C643.07,195.77,645.71,192.45,647.59,188.11z M617.83,173.23h33.72c0.04-1.05,0.06-1.81,0.06-2.26
				c0-5.13-1.28-9.06-3.85-11.8c-2.57-2.73-5.87-4.1-9.9-4.1c-4.38,0-8.36,1.51-11.97,4.53
				C622.29,162.62,619.61,167.16,617.83,173.23z"/>
			<path d="M667.92,208.54l17.31-82.94h10.24l-17.31,82.94H667.92z"/>
			<path d="M754.75,208.54L738.8,125.6h10.69l9.62,49.45c1.77,8.98,2.92,16.22,3.45,21.73c3.47-7.09,6.32-12.71,8.54-16.86
				l29.59-54.32h11.43l-45.49,82.94H754.75z"/>
			<path d="M842.58,201.07c-3.55,3.06-6.96,5.29-10.24,6.7c-3.28,1.42-6.79,2.12-10.52,2.12c-5.54,0-10.01-1.63-13.41-4.89
				c-3.39-3.26-5.09-7.44-5.09-12.53c0-3.36,0.76-6.33,2.29-8.91c1.53-2.58,3.55-4.66,6.08-6.22c2.53-1.57,5.62-2.69,9.28-3.37
				c2.3-0.45,6.67-0.81,13.1-1.08c6.43-0.26,11.04-0.94,13.83-2.04c0.79-2.79,1.19-5.11,1.19-6.96c0-2.38-0.87-4.24-2.6-5.6
				c-2.38-1.89-5.85-2.83-10.41-2.83c-4.3,0-7.82,0.95-10.55,2.86c-2.74,1.91-4.72,4.61-5.97,8.12l-10.35-0.9
				c2.11-5.96,5.46-10.52,10.04-13.69c4.58-3.17,10.36-4.75,17.34-4.75c7.43,0,13.31,1.77,17.65,5.32c3.32,2.64,4.98,6.07,4.98,10.3
				c0,3.21-0.47,6.92-1.42,11.15l-3.34,14.94c-1.06,4.75-1.58,8.62-1.58,11.6c0,1.89,0.42,4.6,1.25,8.15h-10.35
				C843.2,206.58,842.81,204.09,842.58,201.07z M846.37,178.1c-1.43,0.57-2.97,1-4.61,1.3c-1.64,0.3-4.38,0.62-8.23,0.96
				c-5.96,0.53-10.17,1.2-12.62,2.01c-2.45,0.81-4.3,2.1-5.54,3.88c-1.25,1.77-1.87,3.73-1.87,5.88c0,2.87,0.99,5.22,2.97,7.07
				c1.98,1.85,4.8,2.77,8.46,2.77c3.39,0,6.66-0.9,9.79-2.69c3.13-1.79,5.6-4.29,7.41-7.5S845.36,184.02,846.37,178.1z"/>
			<path d="M866.53,208.54l17.31-82.94h10.24l-17.31,82.94H866.53z"/>
			<path d="M893.09,208.54l17.31-82.94h10.24l-17.31,82.94H893.09z"/>
			<path d="M964.57,188.11l9.96,1.02c-1.43,4.94-4.72,9.64-9.87,14.09c-5.15,4.45-11.29,6.68-18.42,6.68
				c-4.45,0-8.53-1.03-12.25-3.08c-3.71-2.06-6.54-5.04-8.49-8.97c-1.94-3.92-2.91-8.39-2.91-13.41c0-6.56,1.52-12.93,4.55-19.1
				c3.04-6.17,6.97-10.75,11.8-13.75c4.83-3,10.05-4.5,15.67-4.5c7.17,0,12.89,2.23,17.17,6.68c4.28,4.45,6.42,10.52,6.42,18.22
				c0,2.94-0.26,5.96-0.79,9.05h-44.24c-0.15,1.17-0.23,2.23-0.23,3.17c0,5.62,1.29,9.91,3.88,12.87c2.58,2.96,5.74,4.44,9.48,4.44
				c3.51,0,6.96-1.15,10.35-3.45C960.04,195.77,962.68,192.45,964.57,188.11z M934.81,173.23h33.72c0.04-1.05,0.06-1.81,0.06-2.26
				c0-5.13-1.28-9.06-3.85-11.8s-5.87-4.1-9.9-4.1c-4.38,0-8.37,1.51-11.97,4.53C939.27,162.62,936.58,167.16,934.81,173.23z"/>
			<path d="M1059.2,199.83c-5.85,6.71-11.96,10.07-18.33,10.07c-5.7,0-10.44-2.1-14.23-6.31c-3.79-4.21-5.69-10.31-5.69-18.3
				c0-7.32,1.5-14,4.5-20.06c3-6.05,6.75-10.59,11.26-13.61c4.51-3.02,9.02-4.53,13.55-4.53c7.47,0,13.11,3.6,16.92,10.81
				l6.79-32.31h10.18l-17.31,82.94h-9.45L1059.2,199.83z M1031.14,183.36c0,4.19,0.41,7.49,1.24,9.9c0.83,2.41,2.24,4.42,4.24,6.03
				c2,1.6,4.39,2.4,7.19,2.4c4.64,0,8.84-2.41,12.62-7.24c5.05-6.41,7.58-14.33,7.58-23.76c0-4.75-1.24-8.47-3.73-11.15
				c-2.49-2.68-5.62-4.02-9.39-4.02c-2.45,0-4.69,0.55-6.7,1.64c-2.02,1.09-4.02,2.95-6,5.57c-1.98,2.62-3.65,5.95-5.01,9.99
				C1031.82,176.76,1031.14,180.31,1031.14,183.36z"/>
			<path d="M1128.08,188.11l9.96,1.02c-1.43,4.94-4.72,9.64-9.87,14.09c-5.15,4.45-11.29,6.68-18.42,6.68
				c-4.45,0-8.53-1.03-12.25-3.08c-3.71-2.06-6.54-5.04-8.49-8.97c-1.94-3.92-2.91-8.39-2.91-13.41c0-6.56,1.52-12.93,4.55-19.1
				c3.04-6.17,6.97-10.75,11.8-13.75c4.83-3,10.05-4.5,15.67-4.5c7.17,0,12.89,2.23,17.17,6.68c4.28,4.45,6.42,10.52,6.42,18.22
				c0,2.94-0.26,5.96-0.79,9.05h-44.24c-0.15,1.17-0.23,2.23-0.23,3.17c0,5.62,1.29,9.91,3.88,12.87c2.58,2.96,5.74,4.44,9.48,4.44
				c3.51,0,6.96-1.15,10.35-3.45C1123.55,195.77,1126.19,192.45,1128.08,188.11z M1098.32,173.23h33.72
				c0.04-1.05,0.06-1.81,0.06-2.26c0-5.13-1.28-9.06-3.85-11.8s-5.87-4.1-9.9-4.1c-4.38,0-8.37,1.51-11.97,4.53
				C1102.78,162.62,1100.09,167.16,1098.32,173.23z"/>
			<path d="M1204.66,208.54l15.33-73.49h-27.21l1.98-9.45h65.29l-1.98,9.45h-26.99l-15.33,73.49H1204.66z"/>
			<path d="M1253,208.54l17.31-82.94h10.24l-17.31,82.94H1253z"/>
			<path d="M1320.86,201.07c-3.55,3.06-6.96,5.29-10.24,6.7c-3.28,1.42-6.79,2.12-10.52,2.12c-5.54,0-10.01-1.63-13.41-4.89
				c-3.39-3.26-5.09-7.44-5.09-12.53c0-3.36,0.76-6.33,2.29-8.91c1.53-2.58,3.55-4.66,6.08-6.22c2.53-1.57,5.62-2.69,9.28-3.37
				c2.3-0.45,6.67-0.81,13.1-1.08c6.43-0.26,11.04-0.94,13.83-2.04c0.79-2.79,1.19-5.11,1.19-6.96c0-2.38-0.87-4.24-2.6-5.6
				c-2.38-1.89-5.85-2.83-10.41-2.83c-4.3,0-7.82,0.95-10.55,2.86c-2.74,1.91-4.72,4.61-5.97,8.12l-10.35-0.9
				c2.11-5.96,5.46-10.52,10.04-13.69c4.58-3.17,10.36-4.75,17.34-4.75c7.43,0,13.31,1.77,17.65,5.32c3.32,2.64,4.98,6.07,4.98,10.3
				c0,3.21-0.47,6.92-1.42,11.15l-3.34,14.94c-1.06,4.75-1.58,8.62-1.58,11.6c0,1.89,0.42,4.6,1.25,8.15h-10.35
				C1321.48,206.58,1321.08,204.09,1320.86,201.07z M1324.65,178.1c-1.43,0.57-2.97,1-4.61,1.3c-1.64,0.3-4.38,0.62-8.23,0.96
				c-5.96,0.53-10.17,1.2-12.62,2.01c-2.45,0.81-4.3,2.1-5.54,3.88c-1.25,1.77-1.87,3.73-1.87,5.88c0,2.87,0.99,5.22,2.97,7.07
				c1.98,1.85,4.8,2.77,8.46,2.77c3.39,0,6.66-0.9,9.79-2.69c3.13-1.79,5.6-4.29,7.41-7.5S1323.63,184.02,1324.65,178.1z"/>
			<path d="M1341.58,208.54l26.14-30.5l-14.99-29.59h11.32l5.09,10.69c1.89,4,3.58,7.83,5.09,11.49l17.31-22.18h12.5l-25.23,30.38
				l15.16,29.7h-11.32l-6-12.22c-1.28-2.6-2.73-5.83-4.36-9.67l-17.88,21.89H1341.58z"/>
			<path d="M1445.82,186.64l10.24,1.07c-2.57,7.51-6.21,13.08-10.95,16.72c-4.73,3.64-10.12,5.46-16.15,5.46
				c-6.53,0-11.82-2.11-15.87-6.34c-4.06-4.22-6.08-10.13-6.08-17.71c0-6.56,1.3-13.01,3.9-19.35c2.6-6.34,6.33-11.15,11.17-14.46
				c4.85-3.3,10.38-4.95,16.61-4.95c6.45,0,11.56,1.82,15.33,5.46c3.77,3.64,5.66,8.46,5.66,14.46l-10.07,0.68
				c-0.04-3.81-1.14-6.79-3.31-8.94s-5.03-3.23-8.57-3.23c-4.11,0-7.68,1.3-10.69,3.9c-3.02,2.6-5.38,6.55-7.1,11.85
				c-1.72,5.3-2.57,10.4-2.57,15.3c0,5.13,1.13,8.98,3.39,11.54c2.26,2.57,5.05,3.85,8.37,3.85c3.32,0,6.5-1.26,9.53-3.79
				C1441.7,195.66,1444.08,191.81,1445.82,186.64z"/>
			<path d="M1503.6,201.07c-3.55,3.06-6.96,5.29-10.24,6.7c-3.28,1.42-6.79,2.12-10.52,2.12c-5.54,0-10.01-1.63-13.41-4.89
				c-3.39-3.26-5.09-7.44-5.09-12.53c0-3.36,0.76-6.33,2.29-8.91c1.53-2.58,3.55-4.66,6.08-6.22c2.53-1.57,5.62-2.69,9.28-3.37
				c2.3-0.45,6.67-0.81,13.1-1.08c6.43-0.26,11.04-0.94,13.83-2.04c0.79-2.79,1.19-5.11,1.19-6.96c0-2.38-0.87-4.24-2.6-5.6
				c-2.38-1.89-5.85-2.83-10.41-2.83c-4.3,0-7.82,0.95-10.55,2.86c-2.74,1.91-4.72,4.61-5.97,8.12l-10.35-0.9
				c2.11-5.96,5.46-10.52,10.04-13.69c4.58-3.17,10.36-4.75,17.34-4.75c7.43,0,13.31,1.77,17.65,5.32c3.32,2.64,4.98,6.07,4.98,10.3
				c0,3.21-0.47,6.92-1.42,11.15l-3.34,14.94c-1.06,4.75-1.58,8.62-1.58,11.6c0,1.89,0.42,4.6,1.25,8.15h-10.35
				C1504.23,206.58,1503.83,204.09,1503.6,201.07z M1507.39,178.1c-1.43,0.57-2.97,1-4.61,1.3c-1.64,0.3-4.38,0.62-8.23,0.96
				c-5.96,0.53-10.17,1.2-12.62,2.01c-2.45,0.81-4.3,2.1-5.54,3.88c-1.25,1.77-1.87,3.73-1.87,5.88c0,2.87,0.99,5.22,2.97,7.07
				c1.98,1.85,4.8,2.77,8.46,2.77c3.39,0,6.66-0.9,9.79-2.69c3.13-1.79,5.6-4.29,7.41-7.5S1506.38,184.02,1507.39,178.1z"/>
			<path d="M1527.56,208.54l17.31-82.94h10.24l-17.31,82.94H1527.56z"/>
			<path d="M1595.41,201.07c-3.55,3.06-6.96,5.29-10.24,6.7c-3.28,1.42-6.79,2.12-10.52,2.12c-5.54,0-10.01-1.63-13.41-4.89
				c-3.39-3.26-5.09-7.44-5.09-12.53c0-3.36,0.76-6.33,2.29-8.91c1.53-2.58,3.55-4.66,6.08-6.22c2.53-1.57,5.62-2.69,9.28-3.37
				c2.3-0.45,6.67-0.81,13.1-1.08c6.43-0.26,11.04-0.94,13.83-2.04c0.79-2.79,1.19-5.11,1.19-6.96c0-2.38-0.87-4.24-2.6-5.6
				c-2.38-1.89-5.85-2.83-10.41-2.83c-4.3,0-7.82,0.95-10.55,2.86c-2.74,1.91-4.72,4.61-5.97,8.12l-10.35-0.9
				c2.11-5.96,5.46-10.52,10.04-13.69c4.58-3.17,10.36-4.75,17.34-4.75c7.43,0,13.31,1.77,17.65,5.32c3.32,2.64,4.98,6.07,4.98,10.3
				c0,3.21-0.47,6.92-1.42,11.15l-3.34,14.94c-1.06,4.75-1.58,8.62-1.58,11.6c0,1.89,0.42,4.6,1.25,8.15h-10.35
				C1596.03,206.58,1595.64,204.09,1595.41,201.07z M1599.2,178.1c-1.43,0.57-2.97,1-4.61,1.3c-1.64,0.3-4.38,0.62-8.23,0.96
				c-5.96,0.53-10.17,1.2-12.62,2.01c-2.45,0.81-4.3,2.1-5.54,3.88c-1.25,1.77-1.87,3.73-1.87,5.88c0,2.87,0.99,5.22,2.97,7.07
				c1.98,1.85,4.8,2.77,8.46,2.77c3.39,0,6.66-0.9,9.79-2.69c3.13-1.79,5.6-4.29,7.41-7.5S1598.18,184.02,1599.2,178.1z"/>
		</g>
		<polygon class="st0" points="91.69,137.54 107.59,5.54 109.36,5.54 		"/>
		<path class="st8" d="M104.36,173.04c0,0,34.67,13.83,78.67-7.51c24.15-11.71,27.13-24.66,25.67-35.33
			c-1.2-8.78-5.12-16.5-5.12-16.5s-0.77,6.64-2.32,18.5c-3.19,9.26-10.21,20.29-25.39,28.92
			C144.14,176.85,108.36,173.88,104.36,173.04z"/>
		<g>
			<path d="M242.36,5.2l44,149.67l59.67-106c-1.33,2.33-8.33,3.33-8.33,3.33s-12,0-15.67,0s-3.67-5.33-3.67-5.33l7-40.33h184
				l-6.67,43.67h-56.67c0,0-17.33,114.33-17.67,118.67c-0.16,2.09-0.86,2.63-1.55,2.63c-0.74,0-1.45-0.63-1.45-0.63
				c-4.33-2.33-23.33-14.67-23.33-14.67c-3.02,3.6-5.79,4.77-8.13,4.77c-4.37,0-7.2-4.1-7.2-4.1c-6.62,12.7-16.4,15.54-23.82,15.54
				c-6.03,0-10.51-1.87-10.51-1.87l-99.67,43.67h-8.33l-73.33-209H242.36 M242.36,0.2h-71.33c-1.62,0-3.14,0.79-4.08,2.11
				c-0.94,1.32-1.18,3.02-0.64,4.55l73.33,209c0.7,2,2.59,3.34,4.72,3.34h8.33c0.69,0,1.37-0.14,2.01-0.42l97.88-42.88
				c2.19,0.66,5.87,1.51,10.29,1.51c7.45,0,17.4-2.4,25.04-12.98c1.65,0.89,3.66,1.55,5.99,1.55c3.08,0,6.02-1.14,8.79-3.39
				c5.52,3.56,16.18,10.39,19.93,12.48c0.86,0.62,2.34,1.43,4.2,1.43c2.76,0,6.12-1.9,6.53-7.24c0.29-3.39,10.08-68.49,16.98-114.05
				h52.37c2.47,0,4.57-1.8,4.94-4.25l6.67-43.67c0.22-1.44-0.2-2.91-1.15-4.01c-0.95-1.11-2.34-1.74-3.79-1.74h-184
				c-2.43,0-4.51,1.75-4.93,4.14l-7,40.33c-0.05,0.28-0.07,0.57-0.07,0.86c0,5.13,2.98,10.33,8.67,10.33h13.57l-47.78,84.89
				L247.16,3.79C246.53,1.67,244.58,0.2,242.36,0.2L242.36,0.2z"/>
		</g>
		<polygon class="st0" points="330.86,176.7 362.53,136.7 361.53,148.04 346.19,170.04 		"/>
	</g>
</g>
</svg>
