<?xml version="1.0" encoding="utf-8"?>
<!-- Generator: Adobe Illustrator 25.4.1, SVG Export Plug-In . SVG Version: 6.00 Build 0)  -->
<svg version="1.1" id="Capa_1" xmlns="http://www.w3.org/2000/svg" xmlns:xlink="http://www.w3.org/1999/xlink" x="0px" y="0px"
	 viewBox="0 0 805.23 218.92" style="enable-background:new 0 0 805.23 218.92;" xml:space="preserve">
<style type="text/css">
	.st0{fill:#FF8300;}
	.st1{fill:#6F7271;}
</style>
<g>
	<path class="st0" d="M218.92,29.18c0-8.06-3.26-15.35-8.55-20.64C205.09,3.27,197.79,0,189.73,0c-8.76,0-93.41,0-102.16,0
		c-8.06,0-15.36,3.27-20.64,8.55c-5.28,5.29-8.54,12.58-8.54,20.64c0,8.76,0,102.17,0,102.17s-20.44,0-29.19,0
		c-8.06,0-15.36,3.26-20.64,8.55C3.27,145.18,0,152.47,0,160.54c0,8.76,0,20.43,0,29.19c0,8.06,3.27,15.36,8.56,20.64
		c5.28,5.28,12.58,8.55,20.64,8.55c8.76,0,20.43,0,29.19,0c8.06,0,15.35-3.27,20.63-8.55c5.28-5.29,8.55-12.58,8.55-20.64
		c0-8.76,0-29.19,0-29.19s93.4,0,102.16,0c8.06,0,15.36-3.27,20.64-8.55c5.28-5.29,8.55-12.58,8.55-20.65
		C218.92,122.59,218.92,37.95,218.92,29.18z M58.39,189.73H29.19v-29.19h29.19V189.73z M189.73,131.34H87.57V29.18h102.16V131.34z"
		/>
	<g>
		<path class="st1" d="M754.24,160.54c0,0-15.76,0-24.52,0c-8.06,0-15.36-3.27-20.65-8.55c-5.28-5.29-8.55-12.58-8.55-20.64
			c0-8.76,0-131.35,0-131.35h29.19v43.79h43.78v29.18h-43.78v58.38h43.78v9.92L754.24,160.54z"/>
		<path class="st1" d="M350.27,141.27v19.27h29.18V43.79h-29.18v87.56h-58.38V43.79H262.7c0,0,0,78.8,0,87.56
			c0,8.06,3.27,15.35,8.55,20.64c5.28,5.28,12.58,8.55,20.64,8.55c8.76,0,39.11,0,39.11,0L350.27,141.27z"/>
		<path class="st1" d="M637.48,160.54c0,0-30.36,0-39.11,0c-8.06,0-15.36-3.27-20.64-8.55c-5.29-5.29-8.55-12.58-8.55-20.64
			c0-8.76,0-49.62,0-58.38c0-8.06,3.26-15.35,8.55-20.64c5.28-5.28,12.58-8.55,20.64-8.55c8.76,0,49.62,0,58.38,0
			c8.06,0,15.36,3.27,20.64,8.54c5.28,5.29,8.55,12.58,8.55,20.64c0,8.76,0,87.57,0,87.57h-29.18v-19.27L637.48,160.54z
			 M656.75,72.97h-58.38v58.38h58.38V72.97z"/>
		<rect x="525.4" y="43.78" class="st1" width="29.18" height="116.76"/>
		<rect x="525.4" class="st1" width="29.18" height="29.18"/>
		<path class="st1" d="M442.51,43.79c0,0,30.36,0,39.11,0c8.06,0,15.36,3.27,20.64,8.55c5.28,5.29,8.55,12.58,8.55,20.64
			c0,8.76,0,87.57,0,87.57h-29.19V72.97h-58.38v87.57h-29.19V43.79h29.19v19.26L442.51,43.79z"/>
	</g>
	<g>
		<path class="st1" d="M788.39,3.07v2.18h-4.21v10.98h-2.61V5.25h-4.21V3.07H788.39z M802.62,16.23l-0.48-7.74
			c-0.05-1.02-0.05-2.27-0.1-3.68h-0.15c-0.34,1.16-0.73,2.71-1.11,3.92l-2.37,7.3h-2.71l-2.37-7.5c-0.24-1.02-0.63-2.56-0.92-3.72
			h-0.15c0,1.21-0.05,2.47-0.1,3.68l-0.48,7.74h-2.52l0.97-13.16h3.92l2.27,6.43c0.29,1.02,0.53,1.98,0.87,3.34h0.05
			c0.34-1.21,0.63-2.32,0.92-3.29l2.27-6.48h3.77l1.02,13.16H802.62z"/>
	</g>
</g>
</svg>
