<?xml version="1.0" encoding="utf-8"?>
<!-- Generator: Adobe Illustrator 16.0.0, SVG Export Plug-In . SVG Version: 6.00 Build 0)  -->
<!DOCTYPE svg PUBLIC "-//W3C//DTD SVG 1.1//EN" "http://www.w3.org/Graphics/SVG/1.1/DTD/svg11.dtd">
<svg version="1.1" id="Layer_1" xmlns="http://www.w3.org/2000/svg" xmlns:xlink="http://www.w3.org/1999/xlink" x="0px" y="0px"
	 width="389.898px" height="223.232px" viewBox="0 0 389.898 223.232" enable-background="new 0 0 389.898 223.232"
	 xml:space="preserve">
<g>
	<path fill="#0D52A0" d="M91.437,70.777c21.75,0,39.562,17.132,39.562,37.742c0,20.858-17.813,37.744-39.562,37.744
		c-21.774,0-39.328-16.886-39.328-37.744C52.109,87.909,69.663,70.777,91.437,70.777L91.437,70.777L91.437,70.777L91.437,70.777z
		 M91.67,94.113c-7.165,0-12.85,6.215-12.85,13.907c0,7.446,5.685,13.66,12.85,13.66c7.177,0,12.875-6.213,12.875-13.66
		C104.545,100.328,98.847,94.113,91.67,94.113L91.67,94.113z"/>
	<path fill="#0D52A0" d="M187.325,115.466l16.327,28.058l-27.447,0.255l-12.617-24.332v24.077l-24.234,0.255l-0.244-71.262h33.375
		c15.588,0,28.455,10.176,28.455,23.086C200.939,103.803,195.241,111.253,187.325,115.466L187.325,115.466L187.325,115.466
		L187.325,115.466z M168.041,103.552c3.959,0.251,7.173-2.484,7.173-5.954c0-3.237-3.214-6.223-7.173-5.959h-3.954v11.913H168.041
		L168.041,103.552z"/>
	<polygon fill="#0D52A0" points="209.261,72.016 270.099,72.016 270.099,93.37 253.034,93.37 253.034,143.779 225.583,143.779 
		225.583,93.121 209.019,93.121 209.261,72.016 	"/>
	<g>
		<path fill="#0D52A0" d="M26.295,35.167h4.869v19.931c0,2.838,0.456,4.814,1.365,5.917c0.908,1.108,2.452,1.657,4.636,1.657
			c2.083,0,3.55-0.562,4.411-1.687c0.864-1.125,1.295-3.086,1.295-5.887V35.167h4.874v19.886c0,2.128-0.127,3.753-0.38,4.89
			c-0.255,1.13-0.673,2.116-1.259,2.946c-1.018,1.434-2.25,2.5-3.709,3.2c-1.451,0.693-3.165,1.043-5.132,1.043
			c-2.155,0-3.977-0.34-5.452-1.013c-1.475-0.673-2.753-1.739-3.835-3.188c-0.6-0.833-1.025-1.766-1.293-2.797
			c-0.262-1.035-0.388-2.729-0.388-5.082V35.167z"/>
		<path fill="#0D52A0" d="M57.676,66.508h-4.575v-23.68h4.389v2.694c0.95-1.066,2.003-1.844,3.154-2.335
			c1.144-0.497,2.459-0.746,3.936-0.746c3.324,0,5.878,0.914,7.648,2.732c1.788,1.822,2.673,4.432,2.673,7.834v13.5h-4.599V53.932
			c0-2.507-0.496-4.367-1.5-5.583c-0.999-1.211-2.542-1.819-4.64-1.819c-2.28,0-3.927,0.712-4.952,2.14
			c-1.024,1.431-1.533,3.79-1.533,7.073V66.508z"/>
		<path fill="#0D52A0" d="M84.779,40.05h-4.524v-4.883h4.524V40.05z M80.254,66.508v-23.68h4.524v23.68H80.254z"/>
		<path fill="#0D52A0" d="M100.718,66.508h-3.441l-9.653-23.68h4.918l6.67,17.283l6.866-17.283h4.821L100.718,66.508z"/>
		<path fill="#0D52A0" d="M117.041,56.24c0.384,1.978,1.344,3.583,2.875,4.806c1.529,1.234,3.35,1.844,5.462,1.844
			c1.502,0,2.88-0.334,4.119-1.011c1.241-0.673,2.23-1.63,2.964-2.866h5.156c-1.172,2.627-2.814,4.638-4.912,6.026
			c-2.099,1.395-4.546,2.094-7.328,2.094c-1.883,0-3.596-0.31-5.158-0.928c-1.548-0.615-2.959-1.545-4.223-2.777
			c-1.189-1.166-2.114-2.516-2.784-4.059c-0.666-1.541-0.999-3.117-0.999-4.724c0-1.667,0.299-3.221,0.914-4.674
			c0.606-1.449,1.499-2.77,2.688-3.959c1.258-1.293,2.686-2.262,4.273-2.917c1.587-0.651,3.316-0.975,5.197-0.975
			c2.229,0,4.306,0.479,6.223,1.451c1.917,0.969,3.491,2.314,4.742,4.056c0.737,1.076,1.284,2.252,1.638,3.536
			c0.359,1.288,0.539,2.753,0.539,4.407v0.668H117.041z M133.411,52.406c-0.575-1.955-1.559-3.465-2.955-4.529
			c-1.399-1.069-3.08-1.603-5.037-1.603c-1.999,0-3.736,0.549-5.208,1.643c-1.466,1.1-2.479,2.592-3.032,4.488H133.411z"/>
		<path fill="#0D52A0" d="M147.011,66.508h-4.571v-23.68h4.292v2.733c0.755-1.049,1.624-1.824,2.604-2.335
			c0.974-0.509,2.111-0.771,3.406-0.785v4.456c-2.049,0.143-3.514,0.705-4.401,1.689c-0.887,0.982-1.329,2.561-1.329,4.749V66.508z"
			/>
		<path fill="#0D52A0" d="M154.309,58.844h4.294c0,1.244,0.377,2.278,1.123,3.087c0.742,0.811,1.676,1.215,2.805,1.215
			c1.057,0,1.93-0.3,2.615-0.914c0.688-0.61,1.032-1.383,1.032-2.335c0-0.831-0.245-1.536-0.724-2.107
			c-0.488-0.574-1.268-1.067-2.349-1.464c-0.369-0.145-0.891-0.332-1.567-0.558c-1.805-0.635-2.95-1.135-3.443-1.506
			c-0.909-0.677-1.574-1.444-2.009-2.297c-0.432-0.853-0.647-1.841-0.647-2.961c0-1.92,0.722-3.558,2.157-4.904
			c1.442-1.353,3.205-2.025,5.278-2.025c2.175,0,3.895,0.595,5.173,1.777c1.274,1.183,1.977,2.845,2.101,4.981h-4.386
			c-0.08-0.875-0.383-1.559-0.926-2.044c-0.534-0.488-1.259-0.731-2.165-0.731c-0.819,0-1.497,0.26-2.046,0.787
			c-0.544,0.522-0.819,1.174-0.819,1.949c0,1.315,1.233,2.4,3.695,3.246c0.697,0.245,1.237,0.44,1.638,0.585
			c1.943,0.729,3.321,1.642,4.148,2.733c0.819,1.091,1.229,2.545,1.229,4.369c0,2.123-0.77,3.89-2.302,5.293
			c-1.542,1.407-3.485,2.114-5.821,2.114c-2.352,0-4.259-0.743-5.707-2.221C155.242,63.435,154.448,61.413,154.309,58.844z"/>
		<path fill="#0D52A0" d="M178.993,40.05h-4.526v-4.883h4.526V40.05z M174.467,66.508v-23.68h4.526v23.68H174.467z"/>
		<path fill="#0D52A0" d="M204.972,66.508v-2.906c-1.173,1.132-2.474,1.988-3.916,2.569c-1.437,0.581-2.971,0.87-4.605,0.87
			c-3.822,0-6.99-1.187-9.515-3.561c-2.523-2.377-3.788-5.346-3.788-8.924c0-1.66,0.318-3.239,0.951-4.733
			c0.629-1.492,1.53-2.806,2.697-3.94c1.28-1.248,2.677-2.168,4.189-2.767c1.516-0.591,3.247-0.893,5.19-0.893
			c1.721,0,3.32,0.287,4.788,0.862c1.471,0.578,2.819,1.439,4.058,2.604V35.167h4.566v31.341H204.972z M187.882,54.519
			c0,2.393,0.854,4.403,2.555,6.027c1.697,1.622,3.78,2.434,6.247,2.434c2.246,0,4.227-0.817,5.943-2.449
			c1.713-1.626,2.576-3.529,2.576-5.711c0-2.325-0.854-4.317-2.556-5.974c-1.699-1.66-3.718-2.488-6.062-2.488
			c-2.394,0-4.451,0.787-6.148,2.366C188.736,50.307,187.882,52.24,187.882,54.519z"/>
		<path fill="#0D52A0" d="M235.427,66.508v-2.906c-1.17,1.132-2.476,1.988-3.913,2.569c-1.438,0.581-2.977,0.87-4.611,0.87
			c-3.813,0-6.989-1.187-9.509-3.561c-2.528-2.377-3.789-5.346-3.789-8.924c0-1.66,0.32-3.239,0.947-4.733
			c0.627-1.492,1.529-2.806,2.702-3.94c1.277-1.248,2.673-2.168,4.196-2.767c1.512-0.591,3.241-0.893,5.176-0.893
			c1.743,0,3.341,0.287,4.806,0.862c1.462,0.578,2.795,1.439,3.995,2.604v-2.862h4.618v23.68H235.427z M218.336,54.519
			c0,2.393,0.859,4.403,2.557,6.027c1.697,1.622,3.783,2.434,6.242,2.434c2.251,0,4.235-0.817,5.945-2.449
			c1.72-1.626,2.577-3.529,2.577-5.711c0-2.325-0.847-4.317-2.551-5.974c-1.703-1.66-3.721-2.488-6.061-2.488
			c-2.403,0-4.456,0.787-6.153,2.366C219.195,50.307,218.336,52.24,218.336,54.519z"/>
		<path fill="#0D52A0" d="M265.885,66.508v-2.906c-1.17,1.132-2.477,1.988-3.911,2.569c-1.442,0.581-2.98,0.87-4.612,0.87
			c-3.814,0-6.987-1.187-9.513-3.561c-2.526-2.377-3.788-5.346-3.788-8.924c0-1.66,0.32-3.239,0.946-4.733
			c0.632-1.492,1.532-2.806,2.702-3.94c1.284-1.248,2.673-2.168,4.193-2.767c1.513-0.591,3.241-0.893,5.186-0.893
			c1.721,0,3.319,0.287,4.787,0.862c1.472,0.578,2.821,1.439,4.049,2.604V35.167h4.576v31.341H265.885z M248.797,54.519
			c0,2.393,0.848,4.403,2.549,6.027c1.699,1.622,3.786,2.434,6.25,2.434c2.246,0,4.232-0.817,5.942-2.449
			c1.716-1.626,2.575-3.529,2.575-5.711c0-2.325-0.853-4.317-2.549-5.974c-1.703-1.66-3.723-2.488-6.06-2.488
			c-2.411,0-4.46,0.787-6.159,2.366C249.645,50.307,248.797,52.24,248.797,54.519z"/>
	</g>
	<g>
		<path fill="#575756" d="M137.047,163.914V147.8h3.21l3.813,11.409c0.351,1.06,0.609,1.856,0.769,2.386
			c0.183-0.587,0.469-1.448,0.856-2.583l3.858-11.212h2.868v16.113h-2.053v-13.487l-4.684,13.487h-1.924l-4.659-13.719v13.719
			H137.047z"/>
		<path fill="#575756" d="M163.601,160.155l2.043,0.251c-0.321,1.196-0.917,2.12-1.792,2.78c-0.87,0.66-1.985,0.988-3.341,0.988
			c-1.706,0-3.059-0.522-4.06-1.576c-1.001-1.05-1.5-2.526-1.5-4.422c0-1.965,0.506-3.487,1.516-4.571
			c1.013-1.085,2.324-1.629,3.937-1.629c1.56,0,2.834,0.531,3.823,1.595c0.989,1.063,1.485,2.557,1.485,4.483
			c0,0.118-0.005,0.296-0.012,0.53h-8.705c0.073,1.281,0.437,2.263,1.087,2.942c0.653,0.684,1.467,1.023,2.44,1.023
			c0.726,0,1.344-0.189,1.857-0.571C162.894,161.598,163.3,160.991,163.601,160.155z M157.106,156.956h6.516
			c-0.086-0.981-0.336-1.72-0.746-2.209c-0.631-0.761-1.446-1.142-2.453-1.142c-0.907,0-1.672,0.303-2.291,0.911
			C157.514,155.125,157.171,155.937,157.106,156.956z M159.237,150.791l1.461-3.076h2.594l-2.417,3.076H159.237z"/>
		<path fill="#575756" d="M166.81,163.914l4.266-6.067l-3.946-5.604h2.471l1.793,2.735c0.336,0.521,0.606,0.956,0.814,1.31
			c0.321-0.486,0.619-0.915,0.891-1.288l1.966-2.757h2.364l-4.035,5.496l4.341,6.176h-2.429l-2.394-3.627l-0.639-0.979l-3.066,4.605
			H166.81z"/>
		<path fill="#575756" d="M179.395,150.077V147.8h1.977v2.276H179.395z M179.395,163.914v-11.672h1.977v11.672H179.395z"/>
		<path fill="#575756" d="M192,159.638l1.945,0.251c-0.213,1.343-0.757,2.393-1.633,3.151c-0.875,0.757-1.949,1.134-3.226,1.134
			c-1.597,0-2.88-0.519-3.853-1.562c-0.97-1.047-1.455-2.542-1.455-4.49c0-1.261,0.208-2.362,0.626-3.31
			c0.418-0.945,1.053-1.652,1.907-2.125c0.853-0.473,1.782-0.711,2.787-0.711c1.267,0,2.304,0.319,3.109,0.962
			c0.806,0.644,1.322,1.554,1.55,2.733l-1.923,0.296c-0.184-0.785-0.507-1.374-0.972-1.771c-0.466-0.395-1.028-0.592-1.687-0.592
			c-0.998,0-1.807,0.356-2.429,1.07c-0.624,0.714-0.935,1.847-0.935,3.393c0,1.566,0.299,2.705,0.9,3.416
			c0.602,0.71,1.385,1.066,2.353,1.066c0.776,0,1.423-0.238,1.945-0.714C191.532,161.361,191.861,160.626,192,159.638z"/>
		<path fill="#575756" d="M194.901,158.078c0-2.162,0.601-3.763,1.802-4.803c1.005-0.866,2.229-1.299,3.671-1.299
			c1.604,0,2.916,0.527,3.934,1.577c1.021,1.055,1.528,2.506,1.528,4.357c0,1.503-0.227,2.686-0.675,3.546
			c-0.452,0.859-1.108,1.528-1.968,2.005c-0.862,0.476-1.801,0.713-2.819,0.713c-1.633,0-2.955-0.522-3.961-1.569
			C195.404,161.558,194.901,160.048,194.901,158.078z M196.934,158.078c0,1.495,0.327,2.613,0.979,3.357
			c0.651,0.745,1.472,1.115,2.462,1.115c0.98,0,1.8-0.374,2.45-1.121c0.653-0.748,0.978-1.887,0.978-3.42
			c0-1.44-0.326-2.535-0.981-3.279c-0.656-0.744-1.473-1.115-2.446-1.115c-0.99,0-1.811,0.371-2.462,1.111
			C197.26,155.463,196.934,156.583,196.934,158.078z"/>
	</g>
	<rect x="52.109" y="156.211" fill="#575756" width="81.891" height="1.306"/>
	<rect x="208.021" y="156.211" fill="#575756" width="47.692" height="1.306"/>
	<g>
		<path fill-rule="evenodd" clip-rule="evenodd" fill="#878787" d="M279.993,92.7c0.49,0.557,0.638,1.298,0.263,2.091
			c-0.717,0.45-1.615,0.615-2.101,0.655c-1.147,1.36-3.696,1.145-5.492,2.481c-1.152,0.875-1.639,3.033-3.261,2.88
			c-0.411-0.038-0.719-0.476-1.052-0.656c-0.083-0.822,0.148-1.327,0.394-1.832c-0.459-1.312-2.191-1.576-1.574-3.263
			c0.32-0.858,2.731-2.091,4.322-2.224c0.516-0.044,0.996,0.133,1.565,0.133C275.501,92.939,278.213,91.809,279.993,92.7z
			 M274.238,93.875c-0.882,0.06-1.837-0.108-2.614,0c-0.866,0.123-3.142,0.971-3.273,1.701c-0.278,1.48,2.654,1.854,1.308,3.92
			c0.965-0.134,0.907-1.071,1.441-1.704c1.05-1.196,2.86-1.271,4.578-2.084c0.7-0.331,1.265-0.96,1.831-1.183
			c0.548-0.203,1.544,0.118,1.688-0.784C277.585,92.992,275.312,93.81,274.238,93.875z"/>
		<path fill-rule="evenodd" clip-rule="evenodd" fill="#878787" d="M281.69,101.202c-0.156-0.54-0.484-0.911-0.789-1.306
			c-1.766-0.099-5.016,0.208-5.224-1.577c-0.259-2.119,4.829-2.484,6.8-3.002c2.466-0.652,3.747-2.408,6.537-2.617
			c1.365-0.101,3.226,0.3,5.36,0.132c1.941-0.155,5.52-0.86,5.628,1.694c0.009,0.324-0.696,1.886-1.179,2.355
			c-0.746,0.72-2.066,0.843-2.492,1.703c-0.296,0.622-0.081,1.594-0.517,2.223c-0.623,0.921-2.208,1.053-3.008,1.832
			c-0.677,0.656-0.784,1.78-1.305,2.484c-1.245,1.697-3.348,1.618-4.846,2.879c-0.894,0.755-1.646,3.763-3.525,2.746
			C281.592,109.921,280.657,103.961,281.69,101.202z M295.947,93.742c-1.96,0.14-3.935-0.031-6.15,0
			c-2.057,0.034-3.612,1.326-5.622,2.097c-1.157,0.447-2.505,0.439-3.668,0.791c-0.778,0.227-1.437,0.72-2.087,0.907
			c-0.493,0.142-1.379-0.068-1.563,0.656c0.722,0.938,2.733,0.569,4.317,0.653c3.963,1.855-0.368,8.263,2.879,10.857
			c0.836-0.668,0.917-1.648,1.696-2.356c1.007-0.922,2.572-0.983,3.654-1.834c1.368-1.067,1.42-2.439,2.487-3.919
			c0.809-0.475,1.975-0.591,2.613-1.312c0.594-0.661,0.476-1.712,0.917-2.489c0.846-1.45,3.308-1.496,3.272-3.392
			C298.078,93.308,296.91,93.675,295.947,93.742z"/>
		<g>
			<path fill-rule="evenodd" clip-rule="evenodd" fill="#878787" d="M279.197,93.742c-0.145,0.902-1.141,0.581-1.688,0.784
				c-0.566,0.222-1.131,0.852-1.831,1.183c-1.718,0.812-3.528,0.888-4.578,2.084c-0.534,0.633-0.477,1.57-1.441,1.704
				c1.347-2.066-1.586-2.44-1.308-3.92c0.132-0.73,2.407-1.578,3.273-1.701c0.777-0.108,1.732,0.06,2.614,0
				C275.312,93.81,277.585,92.992,279.197,93.742z"/>
			<path fill="#878787" d="M267.89,100.62l1.039-1.598c0.363-0.557,0.29-0.686-0.388-1.332c-0.528-0.501-1.25-1.189-1.046-2.274
				c0.297-1.648,3.969-2.397,4.004-2.405c0.482-0.064,1.004-0.045,1.551-0.019c0.375,0.019,0.759,0.038,1.129,0.012
				c0.266-0.013,0.6-0.081,0.979-0.153c1.308-0.25,3.199-0.459,4.406,0.103l0.597,0.278l-0.104,0.649
				c-0.213,1.312-1.4,1.39-1.909,1.424c-0.114,0.007-0.285,0.019-0.342,0.035c-0.156,0.063-0.394,0.246-0.646,0.436
				c-0.319,0.241-0.682,0.517-1.11,0.719c-0.675,0.318-1.332,0.525-1.968,0.722c-0.976,0.306-1.818,0.568-2.328,1.149
				c-0.094,0.111-0.179,0.298-0.267,0.499c-0.224,0.5-0.599,1.34-1.709,1.492L267.89,100.62z M272.248,94.708
				c-0.176,0-0.345,0.006-0.506,0.027c-0.797,0.115-2.344,0.785-2.579,1.12c0.015,0.027,0.247,0.261,0.578,0.576
				c0.212,0.202,0.482,0.46,0.709,0.783c0.844-0.948,1.998-1.308,3.112-1.657c0.578-0.182,1.178-0.369,1.743-0.635
				c0.232-0.11,0.472-0.282,0.707-0.459c-0.182,0.031-0.358,0.065-0.531,0.099c-0.465,0.088-0.875,0.164-1.192,0.18
				c-0.416,0.032-0.88,0.011-1.323-0.009C272.722,94.718,272.479,94.708,272.248,94.708z"/>
		</g>
		<g>
			<path fill-rule="evenodd" clip-rule="evenodd" fill="#878787" d="M298.693,94.401c0.035,1.896-2.427,1.942-3.272,3.392
				c-0.441,0.777-0.323,1.828-0.917,2.489c-0.639,0.721-1.805,0.837-2.613,1.312c-1.067,1.48-1.119,2.852-2.487,3.919
				c-1.082,0.851-2.647,0.912-3.654,1.834c-0.779,0.708-0.86,1.688-1.696,2.356c-3.247-2.595,1.084-9.002-2.879-10.857
				c-1.584-0.083-3.596,0.285-4.317-0.653c0.185-0.725,1.07-0.514,1.563-0.656c0.65-0.187,1.309-0.68,2.087-0.907
				c1.163-0.352,2.511-0.344,3.668-0.791c2.01-0.771,3.565-2.063,5.622-2.097c2.216-0.031,4.19,0.14,6.15,0
				C296.91,93.675,298.078,93.308,298.693,94.401z"/>
			<path fill="#878787" d="M284.053,110.817l-0.544-0.434c-1.917-1.531-1.704-4.002-1.518-6.181c0.197-2.31,0.254-3.787-1.041-4.495
				c-0.118-0.003-0.24-0.006-0.36-0.006l-1.383,0.019c-1.181,0-2.366-0.12-3.039-1l-0.258-0.334l0.104-0.408
				c0.285-1.132,1.392-1.211,1.862-1.246c0.107-0.008,0.254-0.019,0.302-0.033c0.265-0.074,0.527-0.217,0.805-0.358
				c0.373-0.19,0.797-0.406,1.277-0.549c0.569-0.171,1.166-0.262,1.741-0.35c0.67-0.103,1.305-0.201,1.858-0.415
				c0.639-0.246,1.229-0.547,1.804-0.837c1.25-0.636,2.543-1.292,4.119-1.32l0.58-0.003c0.691,0,1.36,0.018,2.015,0.032
				c1.208,0.03,2.357,0.058,3.509-0.025c0.146-0.009,0.297-0.028,0.449-0.047c0.301-0.034,0.61-0.068,0.907-0.068
				c1.012,0,1.755,0.407,2.208,1.213l0.106,0.19l0.006,0.222c0.03,1.623-1.21,2.333-2.114,2.85
				c-0.537,0.305-1.042,0.594-1.276,0.996c-0.122,0.217-0.191,0.535-0.267,0.87c-0.126,0.57-0.269,1.22-0.755,1.762
				c-0.54,0.609-1.284,0.877-1.942,1.113c-0.248,0.088-0.498,0.174-0.725,0.285c-0.313,0.47-0.531,0.943-0.744,1.402
				c-0.399,0.867-0.812,1.763-1.801,2.534c-0.621,0.491-1.323,0.744-2,0.99c-0.618,0.224-1.203,0.436-1.603,0.802
				c-0.262,0.237-0.426,0.547-0.617,0.904c-0.257,0.482-0.548,1.03-1.123,1.49L284.053,110.817z M280.59,97.962
				c0.213,0,0.425,0.004,0.63,0.014l0.323,0.081c2.617,1.226,2.386,3.919,2.182,6.293c-0.131,1.531-0.256,2.994,0.308,4.005
				c0.049-0.088,0.099-0.182,0.151-0.279c0.232-0.437,0.496-0.934,0.98-1.373c0.652-0.598,1.465-0.894,2.183-1.152
				c0.571-0.207,1.114-0.404,1.519-0.723c0.659-0.515,0.94-1.123,1.295-1.894c0.258-0.558,0.549-1.19,1.024-1.849l0.266-0.242
				c0.377-0.219,0.782-0.366,1.173-0.505c0.504-0.182,0.98-0.353,1.229-0.633c0.185-0.207,0.265-0.563,0.354-0.978
				c0.093-0.425,0.2-0.908,0.458-1.363c0.474-0.812,1.241-1.252,1.919-1.64c0.769-0.438,1.131-0.681,1.219-1.074
				c-0.197-0.18-0.734-0.156-1.263-0.092c-0.182,0.021-0.36,0.041-0.531,0.053c-1.2,0.087-2.408,0.058-3.672,0.03
				c-0.64-0.014-1.296-0.031-1.974-0.031l-0.555,0.002c-1.173,0.021-2.184,0.534-3.356,1.131c-0.627,0.315-1.271,0.642-1.965,0.909
				c-0.73,0.283-1.488,0.399-2.223,0.512c-0.539,0.081-1.048,0.16-1.505,0.299c-0.357,0.104-0.678,0.274-0.986,0.431
				c-0.054,0.028-0.109,0.055-0.161,0.082L280.59,97.962z"/>
		</g>
		<path fill-rule="evenodd" clip-rule="evenodd" fill="#878787" d="M230.558,109.444"/>
		<path fill-rule="evenodd" clip-rule="evenodd" fill="#878787" d="M242.321,101.729c1.215,0.19,2.278,0.781,3.271,0.781
			c1.045,0,2.001-0.72,3.007-0.781c3.139-0.204,6.076,3.103,9.677,2.085c2.287-0.64,4.301-3.407,7.46-2.085
			c0.255,0.84,1.057,1.41,0.788,2.488c-0.312,1.22-3.337,1.95-4.19,3.13c-2.015,2.816,0.477,6.121,4.706,5.36
			c1.8-0.318,2.409-2.129,2.88-4.314c1.776,0.193,2.195,1.729,3.138,2.75c2.213,0.064,6.312,1.44,4.312,4.048
			c-0.308,0.411-1.201,0.615-1.96,1.183c-1.522,1.121-2.811,1.566-5.099,2.09c-1.264,0.285-4.058,2.533-4.836,3.532
			c-0.319,0.418-0.388,1.05-0.656,1.441c-0.551,0.405-1.516,0.395-1.832,1.043c-0.192,1.179,0.935,1.662,0.524,2.617
			c-1.308-0.242-1.976-1.394-3.267-1.706c-2.093-0.486-4.239,0.476-6.149,1.441c-1.68,1.247-1.753,5.152,0.922,5.364
			c1.873,0.146,4.084-2.583,4.966,0.527c0.475,1.668-0.072,2.684,1.18,3.659c0.438,0.348,1.43,0.68,2.223,0.649
			c1.267-0.034,1.98-1.258,3.392-1.162c1.033,0.048,1.727,1.233,2.485,1.424c0.812,0.214,1.488-0.075,2.23,0.14
			c1.459,0.408,4.064,2.246,5.229,3.264c1.033,0.909,1.811,2.586,3.005,3.14c1.991,0.918,3.877,0.207,5.233,1.703
			c0.231,1.523-1.434,2.145-1.961,3.527c-0.473,1.225-0.046,2.56-0.521,3.664c-0.406,0.945-1.484,1.207-2.09,1.828
			c-0.14,1.255-0.653,2.142-1.19,3.009c-1.008,0.812-2.787,0.9-3.394,2.355c-0.525,1.28-0.148,2.382-1.05,3.012
			c-0.48,0.33-1.237,0.206-1.829,0.523c-1.9,1.009-1.88,3.908-2.614,5.622c-0.598,1.402-1.893,1.934-1.96,3.663
			c-0.039,1.067,0.6,2.043,0.526,3.273c-2.665-0.775-3.42-2.118-3.526-5.234c-0.09-2.491,0.099-6.074,0.386-8.504
			c0.287-2.42,1.136-4.396,0.788-6.668c-0.239-1.543-1.075-3.913-1.706-5.626c-0.385-1.067-0.853-2.111-1.308-2.879
			c-0.422-0.714-1.496-1.614-1.565-2.358c-0.209-2.025,2.218-3.42,1.303-5.489c-0.454-1.037-1.864-1.125-2.871-1.703
			c-1.01-0.564-1.912-1.964-3.536-2.739c-1.261-0.602-3.766-0.815-4.578-1.573c-1.284-1.21-0.258-3.124-1.964-4.317
			c-1.098-0.37-2.195-0.452-3.399-0.129c-0.723-2.165,0.087-4.894-0.917-7.586c-0.611-1.645-1.856-3.055-2.35-4.711
			c-1.016-3.365,0.174-8.193-3.663-8.626c-1.078-0.124-2.483,0.319-3.402,0.656"/>
		<path fill-rule="evenodd" clip-rule="evenodd" fill="#878787" d="M366.444,117.159c-0.266,0.643,0.655,1.353,0.78,2.216
			c0.235,1.591-0.587,3.27-1.312,4.71c-0.723,1.452-1.42,2.798-2.082,3.929c-0.864-0.097-1.479-0.213-2.485-0.393
			c-0.888,2.747,0.842,7.943-3.144,8.371c-0.16,2.539-1.112,4.293-2.621,5.492c0.278,1.207,1.754,1.23,1.573,2.872
			c-1.005,1.17-3.089,0.392-3.929-0.125c-1.033-0.64-2.678-2.475-3.263-3.929c-0.592-1.466,0-3.087-0.785-4.575
			c-3.596-0.146-1.676,5.221-3.395,6.93c-1.976,0.141-4.175-0.018-5.364-1.173c-0.71-0.683-1.478-2.185-1.57-3.141
			c-0.096-0.863,0.344-1.954,0.129-2.878c-0.23-0.965-1.013-2.009-1.968-2.097c-2.375-0.204-2.572,3.075-4.966,3.541
			c-1.091,0.204-1.987-0.51-2.746,0.646c0.112,1.421,0.958,2.522,0.785,4.19c-0.278,2.632-3.449,3.757-4.058,6.278
			c-0.412,1.74,0.829,4.707-0.129,6.535c-0.983,1.888-3.559,2.614-4.838,4.056c-1.794,2.025-3.337,6.192-5.362,6.016
			c-2.361-0.203-1.148-4.567-1.574-5.754c-0.425-1.176-1.688-1.611-2.215-2.354c-1.456-2.036-0.36-4.586-1.445-7.061
			c-0.447-1.026-1.341-1.669-1.697-2.617c-0.414-1.091,0.093-2.261-0.265-4.047c-0.78-4.019-8.549-1.356-11.382-3.539
			c-1.196-0.921-2.081-3.358-1.828-5.626c0.442-3.863,3.403-7.429,6.675-7.973c0.319-0.058,0.818,0.051,1.301,0
			c3.642-0.357,8.834-2.817,8.113,1.571c0.81,1.295,2.578,0.499,4.578,0.391c1.608-0.082,3.764,0.492,3.919-1.041
			c0.272-2.641-4.843-1.979-7.579-2.886c-0.537-0.173-1.488-1.271-2.226-1.434c-1.22-0.28-2.928,0.244-3.927,0.517
			c-1.765,0.492-3.436,2.097-4.967,1.968c-1.106-0.092-1.977-1.377-1.956-1.968c0.053-2.04,2.84-1.092,3.398-3.001
			c-2.6-1.275-0.91-3.402,1.963-3.402c0.906-0.592,1.315-1.435,2.616-1.57c1.504-0.154,2.851,1.067,4.18,0.781
			c0.996-0.221,2.658-2.114,3.005-3.001c0.374-0.938,0.258-1.991-0.129-2.752c-1.466,0.621-2.413,1.779-3.003,3.269
			c-3.524,2.07-6.953-0.437-5.492-3.269c0.345-0.674,1.615-1.146,2.877-1.958c0.664-0.437,1.149-1.114,1.697-1.441
			c0.528-0.315,1.164-0.405,1.573-0.66c1.06-0.649,2.084-1.876,2.871-1.958c0.873-0.083,1.611,0.842,2.355,1.042
			c1.726,0.471,4.381-0.43,4.843,1.056c0.441,1.459-1.033,1.948-1.318,3.008c1.407,0.676,2.365-1.132,3.933-1.831
			c1.166-0.532,3.065-0.875,4.574-1.045c1.04-0.119,2.029,0.064,3.008-0.272c1.269-0.419,2.329-1.434,3.658-1.556
			c0.815-0.086,1.488,0.221,2.229,0.122c1.247-0.16,2.011-1.23,3.267-1.829c1.039-0.492,2.742-0.812,4.062-0.916
			c1.576-0.125,4.303,0.027,5.224,1.174c0.432,0.535,0.204,1.461,0.53,1.963c0.649,1.01,1.482,0.426,2.872,0.525
			c0.517,0.033,1.159,0.452,1.706,0.517L366.444,117.159z M356.104,106.962c-3.182-0.12-7.457-0.396-6.798-3.534
			c-2.113-0.646-3.572-0.847-5.492-0.524c-1.9,0.31-3.304,1.927-5.104,2.485c-0.834,0.262-1.805-0.084-2.746,0
			c-1.125,0.095-2.282,1.091-3.134,1.435c-2.108,0.849-5.575,0.302-7.981,1.441c-0.945,0.447-2.644,2.253-3.923,2.087
			c-0.703-0.082-1.43-0.972-1.44-1.566c-0.011-1.081,1.466-1.536,1.173-2.479c-1.275-0.452-2.576,0.058-3.79-0.262
			c-0.708-0.19-1.246-0.957-1.96-0.922c-0.81,0.048-1.418,1.117-2.081,1.578c-1.203,0.796-3.14,1.372-4.062,2.474
			c-1.529,0.155-2.603,1.089-2.097,2.882c3.118,3.429,4.756-3.865,7.716-3.272c1.087,0.216,1.635,1.758,1.312,3.528
			c-0.256,1.396-2.686,4.265-4.317,4.451c-1.283,0.14-3.086-0.941-3.8-0.907c-1.048,0.023-1.314,1.189-2.343,1.56
			c-1.076,0.4-1.824-0.109-2.616,0.655c0.459,0.836,1.194,0.575,1.307,1.571c0.276,2.352-3.298,1.988-3.271,3.667
			c2.023,0.669,4.015-1.767,5.626-2.233c0.93-0.262,3.147-0.286,4.314,0.133c0.852,0.303,1.524,0.911,2.354,1.18
			c0.913,0.292,1.886,0.537,2.878,0.655c1.886,0.224,5.466,1.054,5.359,3.535c-0.102,2.402-3.143,1.876-5.491,2.083
			c-2.828,0.252-4.731,0.626-5.625-1.172c-0.187-0.47-0.027-1.282-0.262-1.7c-1.292,0.106-2.894,0.194-4.445,0.517
			c-1.499,0.32-3.128,0.405-4.317,0.789c-2.493,0.812-5.011,5.418-4.318,8.63c0.147,0.662,0.774,2.239,1.571,2.749
			c1.671,1.063,5.14,0.812,6.937,0.391c2.754,0.433,4.703,2.173,4.835,4.97c0.034,0.67-0.285,1.329-0.132,2.101
			c0.218,1.07,1.205,1.757,1.701,2.736c0.357,0.714,0.722,1.688,0.783,2.617c0.058,0.802-0.375,1.611-0.255,2.488
			c0.271,2.011,2.766,3.003,3.266,4.445c0.517,1.488-0.401,3.674,0.522,4.836c1.78-1.063,2.224-3.229,3.919-5.227
			c1.255-1.47,4.463-2.492,5.109-4.449c0.581-1.765-0.599-4.093-0.137-5.755c0.718-2.528,3.79-3.897,4.055-6.146
			c0.159-1.338-1.009-2.371-0.788-3.929c0.357-2.42,3.997-1.288,5.099-2.739c0.387-0.504,0.17-1.506,1.06-2.093
			c0.673-0.456,2.533-0.708,3.525-0.395c0.9,0.278,2.246,1.562,2.48,2.219c0.429,1.244-0.274,2.403-0.129,4.19
			c0.945,1.574,2.675,2.38,4.969,2.617c0.197-3.463,0.673-6.814,3.277-6.93c3.423-0.163,2.079,3.153,2.746,5.485
			c0.422,1.492,2.934,3.97,4.578,3.665c-0.771-0.633-1.455-1.337-1.706-2.482c1.11-1.554,3.089-2.233,2.617-5.366
			c0.394-0.778,1.335-1.023,2.229-1.302c2.28-2.066-1.452-9.387,4.177-7.845c1.04-1.591,2.675-4.208,3.016-6.42
			c0.155-1.024-1.315-2.213-1.187-3.263"/>
		<path fill-rule="evenodd" clip-rule="evenodd" fill="#878787" d="M294.12,106.962c0.422,0,0.703,0.163,0.778,0.514
			c-0.542-0.064-0.571,0.384-1.173,0.264C293.772,107.401,294.113,107.347,294.12,106.962z"/>
		<path fill-rule="evenodd" clip-rule="evenodd" fill="#878787" d="M296.729,107.347c0.302,0.146,0.658,0.217,0.914,0.393
			C297.414,108.055,296.673,107.773,296.729,107.347z"/>
		<path fill-rule="evenodd" clip-rule="evenodd" fill="#878787" d="M369.033,131.013c-2.229,0.325-4.551,1.723-6.937,1.046
			c-0.488-2.002,1.54-2.542,3.004-3.005C366.24,127.162,370.335,128.389,369.033,131.013z M363.936,130.887
			c1.598-0.055,2.607-0.704,4.059-0.921C366.943,128.827,365.063,130.479,363.936,130.887z"/>
		<g>
			<path fill-rule="evenodd" clip-rule="evenodd" fill="#878787" d="M367.994,129.966c-1.451,0.217-2.461,0.866-4.059,0.921
				C365.063,130.479,366.943,128.827,367.994,129.966z"/>
			<path fill="#878787" d="M361.196,131.42l2.593-0.941c0.263-0.095,0.595-0.282,0.949-0.476c0.73-0.407,1.562-0.866,2.341-0.866
				c0.493,0,0.908,0.18,1.234,0.532l0.558,0.603l-0.812,0.122c-0.581,0.089-1.085,0.248-1.618,0.415
				c-0.74,0.234-1.509,0.479-2.487,0.513L361.196,131.42z"/>
		</g>
		<path fill-rule="evenodd" clip-rule="evenodd" fill="#878787" d="M366.054,137.433c-1.146,0.734-2.128,1.622-3.929,1.699
			c-0.881-0.721-0.33-2.07-0.133-3.141C363.483,135.312,365.921,135.598,366.054,137.433z M363.038,137.433
			c0.445,0,0.69-0.184,0.915-0.401c-0.178,0.007-0.282-0.058-0.392-0.122C363.551,137.247,363.056,137.093,363.038,137.433z"/>
		<g>
			<path fill-rule="evenodd" clip-rule="evenodd" fill="#878787" d="M363.562,136.91c0.109,0.064,0.214,0.129,0.392,0.122
				c-0.225,0.218-0.47,0.401-0.915,0.401C363.056,137.093,363.551,137.247,363.562,136.91z"/>
			<path fill="#878787" d="M363.038,137.868h-0.456l0.021-0.455c0.021-0.438,0.37-0.585,0.529-0.643l0.021-0.608l0.632,0.373
				c0.092,0.056,0.109,0.062,0.144,0.062h1.072l-0.747,0.747C363.99,137.602,363.637,137.868,363.038,137.868z"/>
		</g>
		<path fill-rule="evenodd" clip-rule="evenodd" fill="#878787" d="M363.831,139.911c1.145-1.93,6.036-0.058,5.747,1.706
			c-0.133,0.833-2.091,1.391-3.134,1.04C365.274,142.27,364.412,140.666,363.831,139.911z M367.882,141.355
			c-0.404-0.469-1.414-1.029-2.23-0.658C366.444,140.811,366.868,141.886,367.882,141.355z"/>
		<g>
			<path fill-rule="evenodd" clip-rule="evenodd" fill="#878787" d="M365.651,140.697c0.816-0.371,1.826,0.189,2.23,0.658
				C366.868,141.886,366.444,140.811,365.651,140.697z"/>
			<path fill="#878787" d="M367.349,141.936c-0.493,0-0.851-0.258-1.163-0.489c-0.218-0.156-0.404-0.293-0.595-0.319l-1.468-0.21
				l1.349-0.615c0.928-0.429,2.223,0.17,2.739,0.771l0.361,0.414l-0.486,0.255C367.838,141.872,367.589,141.936,367.349,141.936z"/>
		</g>
		<path fill-rule="evenodd" clip-rule="evenodd" fill="#878787" d="M363.953,144.622c-0.592,0.979-0.289,2.077,0,3.134
			c-0.392,0.696-1.299,0.888-2.22,1.057c-1.275-1.232-2.148-3.494-1.958-5.761C361.237,141.705,363.327,142.991,363.953,144.622z
			 M360.941,144.356c0.604,0.877,0.633,2.343,1.573,2.883c-0.7-0.935-0.143-2.352-0.652-3.402
			C361.336,143.789,360.951,143.887,360.941,144.356z"/>
		<g>
			<path fill-rule="evenodd" clip-rule="evenodd" fill="#878787" d="M361.862,143.836c0.51,1.051-0.048,2.468,0.652,3.402
				c-0.94-0.54-0.969-2.006-1.573-2.883C360.951,143.887,361.336,143.789,361.862,143.836z"/>
			<path fill="#878787" d="M364.129,148.667l-1.828-1.051c-0.721-0.411-0.996-1.213-1.241-1.92
				c-0.142-0.411-0.274-0.802-0.476-1.091l-0.081-0.116l0.004-0.142c0.006-0.242,0.165-1.062,1.396-0.942l0.246,0.021l0.105,0.221
				c0.278,0.571,0.289,1.184,0.295,1.777c0.01,0.599,0.021,1.162,0.316,1.554L364.129,148.667z"/>
		</g>
		<path fill-rule="evenodd" clip-rule="evenodd" fill="#878787" d="M349.276,148.789c-2.101,0.204-3.519-2.369-1.18-2.746
			c0.844-0.137,2.022,0.146,2.61,0.395c1.595,0.656,2.199,2.66,3.406,3.263c0.962,0.493,3.093,0.118,4.051,0.526
			c0.711,0.31,1.788,2.186,1.306,3.004c-0.864,1.503-2.635-0.427-4.056-0.646c-0.757-0.118-1.502,0.201-2.086,0.129
			C350.949,152.412,350.851,150.611,349.276,148.789z M353.984,151.14c-1.584-0.815-2.073-3.419-4.185-3.267
			C351.367,148.632,351.792,152.249,353.984,151.14z M358.035,152.323c0.099-0.404-0.133-0.476-0.133-0.788c-0.479,0-0.951,0-1.43,0
			C356.736,152.055,357.243,152.33,358.035,152.323z"/>
		<g>
			<path fill-rule="evenodd" clip-rule="evenodd" fill="#878787" d="M349.8,147.874c2.111-0.152,2.601,2.451,4.185,3.267
				C351.792,152.249,351.367,148.632,349.8,147.874z"/>
			<path fill="#878787" d="M353.206,151.783c-1.108,0-1.751-1.05-2.315-1.978c-0.39-0.644-0.795-1.306-1.277-1.54l-1.47-0.707
				l1.625-0.118c1.513-0.106,2.314,0.965,3.022,1.903c0.438,0.581,0.85,1.132,1.39,1.41l0.758,0.391l-0.758,0.384
				C353.845,151.698,353.515,151.783,353.206,151.783z M351.468,149.081c0.056,0.089,0.109,0.18,0.167,0.27
				c0.405,0.669,0.793,1.304,1.268,1.501c-0.295-0.301-0.554-0.648-0.809-0.984C351.884,149.583,351.68,149.316,351.468,149.081z"/>
		</g>
		<g>
			<path fill-rule="evenodd" clip-rule="evenodd" fill="#878787" d="M356.473,151.535c0.479,0,0.95,0,1.43,0
				c0,0.312,0.231,0.384,0.133,0.788C357.243,152.33,356.736,152.055,356.473,151.535z"/>
			<path fill="#878787" d="M358.008,152.758c-1.155,0-1.686-0.558-1.923-1.026l-0.326-0.633h2.579v0.436
				c0,0.031,0.007,0.051,0.041,0.126c0.067,0.152,0.173,0.384,0.081,0.765l-0.081,0.329L358.008,152.758z"/>
		</g>
		<path fill-rule="evenodd" clip-rule="evenodd" fill="#878787" d="M341.297,157.164c0.811-1.659,2.583-1.849,4.445-2.753
			c1.124-0.548,2.279-1.181,3.143-1.306c0.915-0.133,1.843,0.307,2.744,0.258c0.598-0.023,1.134-0.427,1.699-0.391
			c1.522,0.102,4.244,2.791,4.707,4.324c0.275,0.921,0.045,2.552,0.391,3.652c0.565,1.815,2.139,3.583,2.227,5.099
			c0.068,1.385-0.851,3.875-1.703,4.191c-0.595,0.214-1.359,0.115-1.183,0.136c-1.879-0.13-3.885-1.491-4.966-2.623
			c-1.224-1.285-1.495-3.053-4.442-2.88c-1.822,0.115-3.263,1.452-4.839,1.05c-1.018-0.251-3.682-3.412-3.271-5.492
			C340.508,159.128,342.03,158.859,341.297,157.164z M358.035,163.437c-0.57-1.186-1.014-2.63-1.176-3.925
			c-0.089-0.653,0.074-1.451-0.136-2.09c-0.375-1.189-2.407-2.894-3.141-3.012c-1.356-0.228-2.61,0.836-3.661,0
			c-2.383,1.01-5.172,1.625-7.321,2.886c0.892,2.066-1.063,2.637-1.179,3.789c-0.011,0.146,0.293,1.268,0.395,1.435
			c0.221,0.377,1.723,2.012,2.1,2.09c0.895,0.197,2.02-0.566,2.869-0.781c0.867-0.221,2.121-0.563,3.015-0.392
			c3.664,0.69,4.231,6.418,8.755,5.363C359.83,166.965,358.711,164.848,358.035,163.437z"/>
		<g>
			<path fill-rule="evenodd" clip-rule="evenodd" fill="#878787" d="M358.555,168.8c-4.523,1.055-5.091-4.673-8.755-5.363
				c-0.894-0.172-2.147,0.171-3.015,0.392c-0.85,0.215-1.975,0.979-2.869,0.781c-0.377-0.078-1.879-1.713-2.1-2.09
				c-0.102-0.167-0.405-1.288-0.395-1.435c0.115-1.152,2.07-1.723,1.179-3.789c2.149-1.261,4.938-1.876,7.321-2.886
				c1.051,0.836,2.305-0.228,3.661,0c0.733,0.118,2.766,1.822,3.141,3.012c0.21,0.639,0.047,1.437,0.136,2.09
				c0.162,1.295,0.605,2.739,1.176,3.925C358.711,164.848,359.83,166.965,358.555,168.8z"/>
			<path fill="#878787" d="M357.498,169.366c-2.104,0-3.3-1.473-4.455-2.896c-0.977-1.203-1.896-2.338-3.321-2.604
				c-0.785-0.152-1.859,0.137-2.692,0.347l-0.136,0.037c-0.255,0.064-0.551,0.187-0.863,0.319c-0.69,0.293-1.522,0.622-2.21,0.467
				c-0.611-0.13-2.208-2.006-2.378-2.298c-0.133-0.212-0.476-1.421-0.452-1.689c0.054-0.557,0.395-0.966,0.725-1.363
				c0.509-0.614,0.95-1.146,0.489-2.22l-0.154-0.35l0.33-0.197c1.37-0.802,2.991-1.35,4.559-1.88
				c0.945-0.319,1.919-0.651,2.814-1.029l0.237-0.102l0.204,0.162c0.411,0.326,0.979,0.228,1.661,0.071
				c0.558-0.129,1.162-0.269,1.799-0.159c0.894,0.144,3.059,1.948,3.483,3.308c0.146,0.448,0.14,0.928,0.133,1.39
				c-0.007,0.269-0.014,0.53,0.021,0.775c0.152,1.22,0.577,2.637,1.139,3.792l0.092,0.194c0.696,1.451,1.754,3.644,0.391,5.608
				l-0.095,0.136l-0.164,0.037C358.256,169.318,357.865,169.366,357.498,169.366z M349.256,162.955c0.221,0,0.433,0.018,0.63,0.056
				c1.732,0.325,2.8,1.641,3.833,2.911c1.236,1.52,2.443,2.906,4.571,2.492c0.928-1.516,0.075-3.29-0.555-4.596l-0.092-0.192
				c-0.604-1.256-1.049-2.733-1.216-4.06c-0.038-0.278-0.034-0.588-0.027-0.9c0.007-0.411,0.013-0.799-0.088-1.108
				c-0.337-1.063-2.236-2.627-2.798-2.718c-0.506-0.086-0.979,0.036-1.462,0.148c-0.754,0.177-1.573,0.278-2.182-0.084
				c-0.859,0.35-1.771,0.658-2.654,0.958c-1.403,0.476-2.853,0.965-4.078,1.631c0.418,1.336-0.256,2.146-0.755,2.746
				c-0.269,0.323-0.5,0.606-0.527,0.892c0.018,0.129,0.262,1.019,0.337,1.172c0.193,0.329,1.52,1.747,1.843,1.89
				c0.039,0.008,0.111,0.014,0.189,0.014c0.433,0,0.958-0.222,1.466-0.435c0.346-0.146,0.673-0.285,0.988-0.364l0.137-0.038
				C347.539,163.186,348.439,162.955,349.256,162.955z"/>
		</g>
		<path fill-rule="evenodd" clip-rule="evenodd" fill="#878787" d="M233.304,111.405c1.592-0.888,4.889-2.78,6.799-2.229
			c2.462,0.721,1.41,4.687,2.219,7.45c0.639,2.192,2.658,4.714,2.879,6.812c0.225,2.09-0.353,3.191,0,4.972
			c0.442,2.196,2.607,1.477,4.316,1.567c0.938,1.301,0.668,2.893,1.701,4.059c1.246,1.387,4.472,1.063,6.41,2.613
			c1.715,1.359,2.115,2.651,4.317,3.005c0.609,2.104-1.75,3.103-1.311,5.618c0.117,0.673,0.881,1.281,1.438,2.104
			c1.176,1.71,1.823,4.467,2.484,6.923c0.192,0.68,0.599,1.2,0.655,1.962c0.11,1.522-0.741,4.327-0.919,5.894
			c-0.049,0.429,0.156,0.877,0.141,1.435c-0.091,2.171-0.557,5.204-0.529,7.453c0.062,3.963,2.842,7.587,6.406,6.017
			c0.476-1.696-0.836-2.896-0.652-4.45c0.12-1.066,1.48-1.95,1.834-2.871c0.729-1.903,0.576-4.143,2.09-5.105
			c2.483,0,3.231-1.733,3.398-4.051c1.927-1.353,4.217-2.321,4.579-5.238c2.377-0.595,1.704-3.222,2.493-5.485
			c0.507-1.485,2.801-2.698,1.827-5.234c-1.328-1.243-3.722-1.432-5.76-1.965c-3.056-2.929-6.059-6.536-10.981-6.536
			c-0.929-0.529-1.132-1.403-2.479-1.434c-1.989-0.048-3.843,2.345-5.107,0.255c-0.513-0.84-0.135-1.614-0.39-2.481
			c-0.86-2.913-4.086-2.954-6.279-1.438c-2.468-2.196,1.908-5.088,4.967-4.579c2.06,0.341,2.362,2.121,3.661,2.481
			c1.304-0.536,1.631-2.5,0.782-3.789c2.5-1.351,3.264-4.433,6.147-5.493c0.945-0.344,2.002-0.242,2.879-0.524
			c2.013-0.656,3.059-2.443,4.973-3.144c2.049-3.419-1.269-5.785-4.582-5.88c-0.604-0.986-2.39-3.298-4.186-2.749
			c-1.66,0.513-0.586,3.518-2.484,4.188c-1.524,0.549-3.992-0.191-4.189-1.704c-0.354-2.934,4.375-3.03,4.851-5.493
			c0.561-2.961-1.933-4.281-4.581-4.057c-2.671,0.241-4.335,2.734-6.935,2.622c-0.397-0.016-1.108-0.248-1.567-0.394
			c-1.916-0.624-3.633-2.095-6.402-1.835c-0.826,0.08-1.522,0.588-2.358,0.654c-1.112,0.094-2.141-0.443-3.399-0.654
			c-0.626-0.099-1.336,0.08-1.965,0 M296.729,106.17c-2.294-0.452-4.373-0.421-4.184,1.438c0.14,1.37,2.255,1.658,3.402,0.785
			c1.293,0.536,2.506,1.061,3.663,0.136C299.671,107.272,298.232,106.463,296.729,106.17z"/>
		<g>
			<path fill-rule="evenodd" clip-rule="evenodd" fill="#878787" d="M356.104,106.962c-3.182-0.12-7.457-0.396-6.798-3.534
				c-2.113-0.646-3.572-0.847-5.492-0.524c-1.9,0.31-3.304,1.927-5.104,2.485c-0.834,0.262-1.805-0.084-2.746,0
				c-1.125,0.095-2.282,1.091-3.134,1.435c-2.108,0.849-5.575,0.302-7.981,1.441c-0.945,0.447-2.644,2.253-3.923,2.087
				c-0.703-0.082-1.43-0.972-1.44-1.566c-0.011-1.081,1.466-1.536,1.173-2.479c-1.275-0.452-2.576,0.058-3.79-0.262
				c-0.708-0.19-1.246-0.957-1.96-0.922c-0.81,0.048-1.418,1.117-2.081,1.578c-1.203,0.796-3.14,1.372-4.062,2.474
				c-1.529,0.155-2.603,1.089-2.097,2.882c3.118,3.429,4.756-3.865,7.716-3.272c1.087,0.216,1.635,1.758,1.312,3.528
				c-0.256,1.396-2.686,4.265-4.317,4.451c-1.283,0.14-3.086-0.941-3.8-0.907c-1.048,0.023-1.314,1.189-2.343,1.56
				c-1.076,0.4-1.824-0.109-2.616,0.655c0.459,0.836,1.194,0.575,1.307,1.571c0.276,2.352-3.298,1.988-3.271,3.667
				c2.023,0.669,4.015-1.767,5.626-2.233c0.93-0.262,3.147-0.286,4.314,0.133c0.852,0.303,1.524,0.911,2.354,1.18
				c0.913,0.292,1.886,0.537,2.878,0.655c1.886,0.224,5.466,1.054,5.359,3.535c-0.102,2.402-3.143,1.876-5.491,2.083
				c-2.828,0.252-4.731,0.626-5.625-1.172c-0.187-0.47-0.027-1.282-0.262-1.7c-1.292,0.106-2.894,0.194-4.445,0.517
				c-1.499,0.32-3.128,0.405-4.317,0.789c-2.493,0.812-5.011,5.418-4.318,8.63c0.147,0.662,0.774,2.239,1.571,2.749
				c1.671,1.063,5.14,0.812,6.937,0.391c2.754,0.433,4.703,2.173,4.835,4.97c0.034,0.67-0.285,1.329-0.132,2.101
				c0.218,1.07,1.205,1.757,1.701,2.736c0.357,0.714,0.722,1.688,0.783,2.617c0.058,0.802-0.375,1.611-0.255,2.488
				c0.271,2.011,2.766,3.003,3.266,4.445c0.517,1.488-0.401,3.674,0.522,4.836c1.78-1.063,2.224-3.229,3.919-5.227
				c1.255-1.47,4.463-2.492,5.109-4.449c0.581-1.765-0.599-4.093-0.137-5.755c0.718-2.528,3.79-3.897,4.055-6.146
				c0.159-1.338-1.009-2.371-0.788-3.929c0.357-2.42,3.997-1.288,5.099-2.739c0.387-0.504,0.17-1.506,1.06-2.093
				c0.673-0.456,2.533-0.708,3.525-0.395c0.9,0.278,2.246,1.562,2.48,2.219c0.429,1.244-0.274,2.403-0.129,4.19
				c0.945,1.574,2.675,2.38,4.969,2.617c0.197-3.463,0.673-6.814,3.277-6.93c3.423-0.163,2.079,3.153,2.746,5.485
				c0.422,1.492,2.934,3.97,4.578,3.665c-0.771-0.633-1.455-1.337-1.706-2.482c1.11-1.554,3.089-2.233,2.617-5.366
				c0.394-0.778,1.335-1.023,2.229-1.302c2.28-2.066-1.452-9.387,4.177-7.845c1.04-1.591,2.675-4.208,3.016-6.42
				c0.155-1.024-1.315-2.213-1.187-3.263L356.104,106.962z"/>
			<path fill="#878787" d="M315.75,164.196l-0.474-0.596c-0.729-0.913-0.649-2.138-0.581-3.215c0.042-0.683,0.087-1.39-0.084-1.876
				c-0.141-0.411-0.642-0.873-1.171-1.363c-0.862-0.798-1.937-1.79-2.133-3.252c-0.085-0.619,0.03-1.173,0.133-1.659
				c0.07-0.326,0.135-0.636,0.116-0.883c-0.045-0.667-0.299-1.5-0.694-2.291c-0.156-0.31-0.397-0.609-0.654-0.925
				c-0.444-0.555-0.948-1.18-1.121-2.025c-0.123-0.608-0.03-1.146,0.044-1.577c0.042-0.252,0.08-0.47,0.071-0.653
				c-0.104-2.199-1.536-3.697-3.942-4.126c-1.003,0.218-2.239,0.347-3.352,0.347c-1.777,0-3.148-0.303-4.075-0.894
				c-1.182-0.751-1.843-2.787-1.954-3.29c-0.758-3.521,1.852-8.657,4.898-9.646c0.773-0.251,1.652-0.377,2.586-0.51
				c0.602-0.088,1.223-0.176,1.818-0.302c1.38-0.289,2.753-0.395,3.963-0.486l1.15-0.093l0.274,0.486
				c0.225,0.405,0.244,0.871,0.262,1.282c0.007,0.172,0.017,0.435,0.047,0.52c0.257,0.506,0.672,0.839,1.945,0.839
				c0.597,0,1.275-0.068,2.031-0.14l0.765-0.071c0.488-0.043,1.003-0.054,1.518-0.068c2.353-0.058,3.144-0.237,3.182-1.186
				c0.085-1.975-3.811-2.538-4.594-2.633c-0.945-0.113-1.94-0.341-3.04-0.69c-0.52-0.17-0.953-0.425-1.375-0.673
				c-0.343-0.204-0.669-0.398-1.005-0.517c-0.477-0.17-1.278-0.272-2.151-0.272c-0.791,0-1.366,0.082-1.638,0.16
				c-0.436,0.125-0.999,0.5-1.595,0.897c-1.041,0.694-2.22,1.483-3.541,1.483c-0.342,0-0.679-0.055-0.998-0.16l-0.586-0.197
				l-0.011-0.615c-0.021-1.322,1.138-1.866,1.983-2.264c1.062-0.504,1.362-0.734,1.294-1.315c-0.052-0.167-0.146-0.224-0.216-0.269
				c-0.271-0.167-0.679-0.418-0.988-0.986l-0.319-0.581l0.477-0.461c0.709-0.684,1.428-0.701,2.005-0.717
				c0.323-0.007,0.604-0.014,0.912-0.129c0.272-0.099,0.486-0.323,0.733-0.584c0.401-0.425,0.952-1.01,1.894-1.03
				c0.001,0,0.002,0,0.002,0c0.501,0,1,0.18,1.63,0.411c0.619,0.228,1.391,0.51,1.947,0.51c1.295-0.139,3.491-2.606,3.7-3.75
				c0.248-1.361-0.129-2.42-0.625-2.519c-0.795-0.155-1.639,0.858-2.482,1.85c-0.99,1.159-2.011,2.359-3.413,2.359
				c-0.795,0-1.566-0.404-2.293-1.206l-0.139-0.154l-0.056-0.197c-0.364-1.285-0.036-2.147,0.302-2.646
				c0.457-0.671,1.23-1.121,2.203-1.291c0.699-0.696,1.661-1.167,2.596-1.623c0.509-0.248,1.009-0.487,1.415-0.757
				c0.145-0.101,0.336-0.302,0.54-0.516c0.491-0.513,1.104-1.155,1.973-1.203c0.004,0,0.006,0,0.01,0
				c0.75,0,1.248,0.341,1.648,0.618c0.213,0.147,0.418,0.286,0.575,0.329c0.363,0.095,0.91,0.09,1.459,0.06
				c0.256-0.012,0.512-0.023,0.771-0.023c0.398,0,0.999,0.026,1.629,0.248l0.41,0.146l0.13,0.416
				c0.299,0.961-0.307,1.628-0.704,2.069c-0.262,0.289-0.436,0.492-0.432,0.661c0.021,0.202,0.436,0.681,0.673,0.708
				c0.004,0,0.004,0,0.007,0c0.604,0,1.513-0.674,2.172-1.167c0.476-0.355,0.884-0.661,1.271-0.842
				c1.445-0.686,3.128-0.813,4.756-0.937c1.25-0.096,2.427-0.186,3.27-0.527c0.266-0.105,0.558-0.284,0.874-0.473
				c0.74-0.439,1.58-0.94,2.512-1.019c0.438-0.041,0.903,0,1.345,0.045c0.452,0.045,0.933,0.083,1.215-0.007
				c0.699-0.217,1.355-0.635,2.052-1.078c0.96-0.608,1.948-1.236,3.175-1.438c1.979-0.33,3.416-0.204,5.888,0.551l0.761,0.235
				l-0.163,0.777c-0.14,0.653,0.041,0.976,0.183,1.163c0.892,1.138,4.079,1.257,5.796,1.322l0.373,0.014l9.27,10.509l-0.051,0.391
				c-0.027,0.225,0.269,0.721,0.482,1.082c0.388,0.646,0.825,1.383,0.7,2.206c-0.347,2.26-1.862,4.802-3.144,6.763l-0.351,0.531
				l-0.608-0.167c-0.438-0.122-0.815-0.183-1.121-0.183c-0.503,0-0.666,0.166-0.718,0.221c-0.448,0.452-0.425,1.784-0.404,2.957
				c0.031,1.761,0.064,3.582-1.122,4.656l-0.503,0.238c-0.574,0.18-1.125,0.351-1.406,0.636c0.261,2.512-0.941,3.704-1.918,4.669
				c-0.23,0.225-0.448,0.441-0.646,0.67c0.238,0.649,0.68,1.111,1.299,1.614l1.451,1.187l-1.842,0.344
				c-2.149,0.397-5.068-2.492-5.577-4.279c-0.225-0.792-0.249-1.621-0.27-2.42c-0.054-2.009-0.183-2.44-1.404-2.44l-0.193,0.007
				c-1.498,0.064-2.205,1.835-2.45,6.111l-0.051,0.91l-0.908-0.096c-2.691-0.281-4.581-1.301-5.621-3.035l-0.105-0.172l-0.017-0.205
				c-0.075-0.914,0.044-1.661,0.148-2.317c0.109-0.69,0.188-1.186,0.025-1.659c-0.127-0.347-1.225-1.458-1.918-1.672
				c-0.208-0.068-0.506-0.103-0.847-0.103c-0.89,0-1.691,0.225-1.93,0.385c-0.266,0.177-0.334,0.412-0.433,0.846
				c-0.077,0.338-0.169,0.718-0.425,1.058c-0.676,0.888-1.842,1.077-2.868,1.248c-1.485,0.244-1.965,0.425-2.06,1.087
				c-0.085,0.585,0.118,1.098,0.354,1.689c0.251,0.639,0.536,1.363,0.436,2.216c-0.17,1.438-1.18,2.506-2.158,3.535
				c-0.803,0.846-1.632,1.719-1.921,2.746c-0.17,0.605-0.034,1.444,0.112,2.331c0.188,1.149,0.381,2.335,0.01,3.457
				c-0.486,1.476-1.998,2.438-3.331,3.286c-0.784,0.5-1.525,0.972-1.94,1.455c-0.636,0.751-1.091,1.54-1.529,2.305
				c-0.697,1.21-1.354,2.355-2.605,3.104L315.75,164.196z M305.203,137.981l0.167,0.026c3.293,0.517,5.427,2.736,5.568,5.789
				c0.021,0.373-0.04,0.723-0.093,1.033c-0.06,0.346-0.11,0.646-0.053,0.935c0.087,0.431,0.404,0.825,0.771,1.277
				c0.286,0.356,0.613,0.762,0.854,1.237c0.291,0.585,0.793,1.744,0.875,2.949c0.035,0.49-0.063,0.956-0.149,1.363
				c-0.079,0.385-0.157,0.745-0.112,1.067c0.113,0.844,0.831,1.509,1.591,2.21c0.662,0.615,1.349,1.247,1.635,2.07
				c0.284,0.818,0.228,1.702,0.175,2.555c-0.023,0.357-0.046,0.721-0.038,1.047c0.394-0.466,0.726-1.047,1.107-1.705
				c0.454-0.797,0.971-1.693,1.713-2.567c0.584-0.684,1.434-1.224,2.331-1.794c1.143-0.728,2.321-1.479,2.613-2.366
				c0.238-0.714,0.086-1.645-0.073-2.626c-0.171-1.037-0.348-2.107-0.072-3.087c0.407-1.44,1.432-2.519,2.332-3.47
				c0.818-0.864,1.594-1.679,1.695-2.543c0.052-0.418-0.125-0.859-0.326-1.369c-0.271-0.684-0.608-1.537-0.459-2.58
				c0.299-2.028,2.148-2.335,3.498-2.556c0.744-0.122,1.512-0.251,1.767-0.589c0.038-0.054,0.086-0.258,0.116-0.395
				c0.122-0.532,0.312-1.338,1.159-1.899c0.687-0.465,1.953-0.676,2.898-0.676c0.531,0,0.99,0.061,1.367,0.18
				c1.102,0.34,2.691,1.784,3.039,2.757c0.309,0.894,0.176,1.713,0.05,2.508c-0.084,0.53-0.17,1.078-0.142,1.696
				c0.655,0.976,1.743,1.601,3.299,1.899c0.197-2.731,0.778-6.658,4.049-6.804l0.274-0.007c3.029,0,3.097,2.488,3.145,4.133
				c0.018,0.694,0.038,1.406,0.204,1.991c0.149,0.523,0.632,1.2,1.228,1.781c-0.015-0.058-0.031-0.115-0.041-0.173l-0.085-0.378
				l0.228-0.315c0.333-0.467,0.717-0.847,1.088-1.211c0.961-0.954,1.659-1.645,1.376-3.52l-0.041-0.276l0.127-0.248
				c0.525-1.04,1.627-1.394,2.531-1.672c0.486-0.618,0.462-1.992,0.438-3.216c-0.027-1.591-0.055-3.232,0.904-4.207
				c0.652-0.67,1.618-0.891,2.91-0.644c1.104-1.729,2.283-3.813,2.551-5.566c0.032-0.204-0.261-0.694-0.472-1.051
				c-0.316-0.522-0.662-1.107-0.725-1.75l-8.297-9.412c-2.766-0.117-5.502-0.407-6.725-1.975c-0.402-0.513-0.603-1.107-0.606-1.781
				c-1.78-0.487-2.892-0.553-4.407-0.298c-0.881,0.145-1.68,0.651-2.526,1.189c-0.764,0.484-1.55,0.985-2.467,1.268
				c-0.527,0.166-1.207,0.152-1.906,0.08c-0.337-0.033-0.677-0.074-1.024-0.043c-0.533,0.045-1.192,0.437-1.773,0.782
				c-0.397,0.238-0.775,0.459-1.107,0.592c-1.092,0.441-2.403,0.54-3.79,0.647c-1.468,0.113-2.987,0.23-4.144,0.775
				c-0.23,0.109-0.608,0.391-0.975,0.665c-0.952,0.71-2.033,1.516-3.151,1.516l-0.282-0.016c-1.189-0.14-2.181-1.435-2.2-2.411
				c-0.007-0.852,0.483-1.411,0.854-1.825c-0.258-0.005-0.551,0.008-0.83,0.023c-0.733,0.034-1.434,0.031-1.992-0.119
				c-0.452-0.119-0.805-0.364-1.117-0.578c-0.203-0.14-0.455-0.313-0.571-0.313c-0.184,0.011-0.562,0.409-0.813,0.67
				c-0.254,0.266-0.517,0.54-0.821,0.75c-0.5,0.332-1.074,0.613-1.628,0.884c-0.882,0.428-1.795,0.874-2.264,1.435l-0.227,0.271
				l-0.353,0.038c-0.612,0.061-1.066,0.269-1.28,0.584c-0.164,0.243-0.204,0.575-0.115,0.997c0.249,0.248,0.567,0.486,0.861,0.486
				c0.599,0,1.39-0.928,2.087-1.748c1.102-1.292,2.41-2.78,4.149-2.428c1.58,0.314,2.419,2.221,1.998,4.537
				c-0.308,1.678-2.982,4.92-5.075,5.158c-0.966,0.109-2.036-0.285-2.883-0.594c-0.351-0.129-0.83-0.303-0.984-0.31
				c-0.197,0.007-0.328,0.116-0.679,0.486c-0.331,0.354-0.743,0.789-1.399,1.026c-0.445,0.167-0.844,0.211-1.186,0.228
				c0.208,0.238,0.388,0.578,0.445,1.082c0.067,0.567-0.024,1.03-0.21,1.41c0.487-0.309,0.965-0.571,1.458-0.714
				c0.51-0.142,1.279-0.225,2.113-0.225c0.635,0,1.828,0.048,2.736,0.375c0.492,0.176,0.906,0.422,1.306,0.655
				c0.354,0.211,0.69,0.409,1.022,0.517c0.991,0.316,1.88,0.521,2.715,0.619c3.934,0.469,6.224,2.124,6.125,4.432
				c-0.114,2.735-2.868,2.804-4.878,2.854c-0.479,0.011-0.955,0.021-1.407,0.061l-0.751,0.072c-0.819,0.078-1.553,0.146-2.198,0.146
				c-1.211,0-2.709-0.211-3.533-1.869c-0.169-0.421-0.187-0.812-0.199-1.159c-1.111,0.088-2.351,0.19-3.549,0.442
				c-0.633,0.132-1.291,0.228-1.931,0.319c-0.858,0.125-1.668,0.241-2.298,0.445c-2.027,0.66-4.344,4.786-3.733,7.617
				c0.146,0.656,0.724,1.903,1.188,2.198c0.626,0.398,1.74,0.619,3.141,0.619c1.051,0,2.222-0.129,3.129-0.339L305.203,137.981z"/>
		</g>
		<path fill-rule="evenodd" clip-rule="evenodd" fill="#878787" d="M299.61,108.529c-1.157,0.924-2.37,0.399-3.663-0.136
			c-1.147,0.873-3.263,0.585-3.402-0.785c-0.189-1.859,1.89-1.89,4.184-1.438C298.232,106.463,299.671,107.272,299.61,108.529z
			 M293.726,107.74c0.602,0.12,0.631-0.329,1.173-0.264c-0.075-0.351-0.356-0.514-0.778-0.514
			C294.113,107.347,293.772,107.401,293.726,107.74z M297.643,107.74c-0.256-0.176-0.612-0.247-0.914-0.393
			C296.673,107.773,297.414,108.055,297.643,107.74z"/>
		<path fill-rule="evenodd" clip-rule="evenodd" fill="#878787" d="M240.493,100.674c0.629,0.08,1.339-0.099,1.965,0
			c1.259,0.211,2.287,0.748,3.399,0.654c0.836-0.066,1.532-0.574,2.358-0.654c2.77-0.259,4.486,1.212,6.402,1.835
			c0.459,0.146,1.17,0.378,1.567,0.394c2.6,0.113,4.264-2.381,6.935-2.622c2.648-0.224,5.142,1.095,4.581,4.057
			c-0.476,2.462-5.204,2.559-4.851,5.493c0.197,1.512,2.665,2.253,4.189,1.704c1.898-0.67,0.824-3.675,2.484-4.188
			c1.796-0.55,3.582,1.762,4.186,2.749c3.313,0.095,6.631,2.461,4.582,5.88c-1.914,0.701-2.96,2.488-4.973,3.144
			c-0.877,0.282-1.934,0.18-2.879,0.524c-2.884,1.06-3.647,4.142-6.147,5.493c0.849,1.288,0.521,3.252-0.782,3.789
			c-1.299-0.36-1.602-2.14-3.661-2.481c-3.059-0.509-7.435,2.382-4.967,4.579c2.193-1.517,5.419-1.476,6.279,1.438
			c0.255,0.867-0.123,1.642,0.39,2.481c1.265,2.09,3.118-0.303,5.107-0.255c1.348,0.03,1.551,0.904,2.479,1.434
			c4.923,0,7.926,3.607,10.981,6.536c2.038,0.533,4.432,0.722,5.76,1.965c0.974,2.536-1.32,3.749-1.827,5.234
			c-0.789,2.264-0.116,4.891-2.493,5.485c-0.362,2.917-2.652,3.886-4.579,5.238c-0.167,2.317-0.915,4.051-3.398,4.051
			c-1.514,0.963-1.36,3.202-2.09,5.105c-0.354,0.921-1.714,1.805-1.834,2.871c-0.184,1.554,1.128,2.754,0.652,4.45
			c-3.564,1.57-6.345-2.054-6.406-6.017c-0.027-2.249,0.438-5.282,0.529-7.453c0.016-0.558-0.189-1.006-0.141-1.435
			c0.178-1.566,1.029-4.371,0.919-5.894c-0.057-0.762-0.463-1.282-0.655-1.962c-0.661-2.456-1.309-5.213-2.484-6.923
			c-0.557-0.822-1.32-1.431-1.438-2.104c-0.439-2.516,1.92-3.515,1.311-5.618c-2.202-0.354-2.603-1.646-4.317-3.005
			c-1.938-1.55-5.164-1.227-6.41-2.613c-1.033-1.166-0.763-2.758-1.701-4.059c-1.709-0.091-3.874,0.629-4.316-1.567
			c-0.353-1.781,0.225-2.882,0-4.972c-0.221-2.097-2.24-4.619-2.879-6.812c-0.809-2.763,0.243-6.729-2.219-7.45
			c-1.91-0.551-5.207,1.342-6.799,2.229L240.493,100.674z M236.567,108.529c0.919-0.337,2.324-0.78,3.402-0.656
			c3.837,0.433,2.647,5.261,3.663,8.626c0.493,1.656,1.738,3.066,2.35,4.711c1.004,2.692,0.194,5.421,0.917,7.586
			c1.204-0.323,2.302-0.241,3.399,0.129c1.706,1.193,0.68,3.107,1.964,4.317c0.812,0.758,3.317,0.972,4.578,1.573
			c1.624,0.775,2.526,2.175,3.536,2.739c1.007,0.578,2.417,0.666,2.871,1.703c0.915,2.069-1.512,3.464-1.303,5.489
			c0.069,0.744,1.144,1.645,1.565,2.358c0.455,0.768,0.923,1.812,1.308,2.879c0.631,1.713,1.467,4.083,1.706,5.626
			c0.348,2.272-0.501,4.248-0.788,6.668c-0.287,2.43-0.476,6.013-0.386,8.504c0.106,3.116,0.861,4.459,3.526,5.234
			c0.073-1.23-0.565-2.206-0.526-3.273c0.067-1.729,1.362-2.261,1.96-3.663c0.734-1.714,0.714-4.613,2.614-5.622
			c0.592-0.317,1.349-0.193,1.829-0.523c0.901-0.63,0.524-1.731,1.05-3.012c0.606-1.455,2.386-1.543,3.394-2.355
			c0.537-0.867,1.051-1.754,1.19-3.009c0.605-0.621,1.684-0.883,2.09-1.828c0.476-1.104,0.049-2.439,0.521-3.664
			c0.527-1.383,2.192-2.004,1.961-3.527c-1.356-1.496-3.242-0.785-5.233-1.703c-1.194-0.554-1.972-2.23-3.005-3.14
			c-1.165-1.018-3.771-2.855-5.229-3.264c-0.742-0.215-1.418,0.074-2.23-0.14c-0.759-0.19-1.452-1.376-2.485-1.424
			c-1.411-0.096-2.125,1.128-3.392,1.162c-0.793,0.03-1.785-0.302-2.223-0.649c-1.252-0.976-0.705-1.991-1.18-3.659
			c-0.882-3.11-3.093-0.382-4.966-0.527c-2.675-0.212-2.602-4.117-0.922-5.364c1.91-0.965,4.057-1.927,6.149-1.441
			c1.291,0.312,1.959,1.464,3.267,1.706c0.41-0.956-0.717-1.438-0.524-2.617c0.316-0.649,1.281-0.639,1.832-1.043
			c0.269-0.391,0.337-1.023,0.656-1.441c0.778-0.999,3.572-3.247,4.836-3.532c2.288-0.524,3.576-0.969,5.099-2.09
			c0.759-0.567,1.652-0.771,1.96-1.183c2-2.608-2.099-3.984-4.312-4.048c-0.942-1.021-1.361-2.557-3.138-2.75
			c-0.471,2.185-1.08,3.996-2.88,4.314c-4.229,0.761-6.721-2.543-4.706-5.36c0.854-1.18,3.878-1.911,4.19-3.13
			c0.269-1.078-0.533-1.648-0.788-2.488c-3.159-1.322-5.173,1.446-7.46,2.085c-3.601,1.017-6.538-2.29-9.677-2.085
			c-1.006,0.061-1.962,0.781-3.007,0.781c-0.993,0-2.057-0.591-3.271-0.781L236.567,108.529z"/>
	</g>
	<path fill="#575756" d="M259.465,83.879c0,0,16.651-17.853,42.087-18.673c32.844-1.061,72.89,20.129,72.89,70.449
		c0,58.626-66.819,88.89-109.796,54.459c0,0,30.548,22.99,65.723,6.465c35.176-16.528,39.474-45.826,40.05-60.924
		c0.57-15.099-8.777-67.347-68.019-68.522C302.399,67.133,278.438,67.084,259.465,83.879z"/>
</g>
</svg>
