<?xml version="1.0" encoding="utf-8"?>
<!-- Generator: Adobe Illustrator 25.4.1, SVG Export Plug-In . SVG Version: 6.00 Build 0)  -->
<svg version="1.1" id="Capa_1" xmlns="http://www.w3.org/2000/svg" xmlns:xlink="http://www.w3.org/1999/xlink" x="0px" y="0px"
	 viewBox="0 0 756.06 179.49" style="enable-background:new 0 0 756.06 179.49;" xml:space="preserve">
<style type="text/css">
	.st0{fill:#0F6FB7;}
</style>
<g>
	<path class="st0" d="M71.25,106.94V2.99h44.52v103.96c0,16.09-1.17,28.16-3.38,36.21c-2.34,8.05-6.1,14.93-11.55,20.64
		c-4.67,4.92-10.9,8.82-18.29,11.55c-7.66,2.72-15.83,4.15-24.66,4.15c-8.82,0-17.01-1.44-24.52-4.15
		c-7.53-2.73-13.63-6.62-18.18-11.55c-5.58-5.71-9.47-12.72-11.81-20.9C1.17,134.72,0,122.77,0,106.94V2.99h44.78v103.96
		c0,9.73,0.9,16.48,2.98,20.37c1.95,3.76,5.32,5.71,10.12,5.71c4.8,0,8.17-1.95,10.26-5.85C70.21,123.29,71.25,116.54,71.25,106.94
		L71.25,106.94z"/>
	<polygon class="st0" points="151.56,174.81 151.56,2.99 171.15,2.99 235.13,78.13 235.13,2.99 279.52,2.99 279.52,174.81 
		259.41,174.81 196.07,100.31 196.07,174.81 151.56,174.81 	"/>
	<polygon class="st0" points="357.6,174.81 313.09,174.81 313.09,2.99 357.6,2.99 357.6,174.81 	"/>
	<polygon class="st0" points="461.66,46.33 461.66,174.81 416.89,174.81 416.89,46.33 382.1,46.33 386.64,2.99 491.77,2.99 
		496.57,46.33 461.66,46.33 	"/>
	<polygon class="st0" points="623.52,127.44 611.58,174.81 516.06,174.81 516.06,2.99 611.06,2.99 618.46,48.54 560.57,48.54 
		560.57,66.06 599.38,66.06 599.38,111.48 560.57,111.48 560.57,127.44 623.52,127.44 	"/>
	<path class="st0" d="M752.69,174.81c-3.38,1.04-7.02,1.82-10.64,2.21c-3.76,0.52-7.92,0.78-12.34,0.78
		c-27.12,0-49.05-8.05-65.79-24.27c-16.73-16.35-25.18-37.38-25.18-63.33c0-26.21,8.7-47.76,26.08-64.76
		C682.21,8.43,704.41,0,731.26,0c3.13,0,6.36,0.26,9.87,0.65c3.37,0.39,7.01,1.04,10.77,1.82l2.34,50.88
		c-4.02-1.82-8.04-3.12-11.93-4.02c-4.02-0.78-7.79-1.3-11.55-1.3c-13.5,0-24.4,3.89-32.97,11.42
		c-8.43,7.65-12.71,17.26-12.71,29.07c0,11.68,4.15,21.41,12.59,29.33c8.43,7.78,18.95,11.81,31.53,11.81
		c4.55,0,9.09-0.65,13.63-1.81c4.41-1.17,8.83-2.86,13.24-5.2L752.69,174.81z"/>
</g>
</svg>
