<?xml version="1.0" encoding="utf-8"?>
<!-- Generator: Adobe Illustrator 25.4.1, SVG Export Plug-In . SVG Version: 6.00 Build 0)  -->
<svg version="1.1" id="Capa_1" xmlns="http://www.w3.org/2000/svg" xmlns:xlink="http://www.w3.org/1999/xlink" x="0px" y="0px"
	 viewBox="0 0 353.97 344.79" style="enable-background:new 0 0 353.97 344.79;" xml:space="preserve">
<style type="text/css">
	.st0{fill:#888B8D;}
	.st1{fill:#00567D;}
	.st2{fill:#FFFFFF;}
	.st3{fill:#003B4A;}
</style>
<g>
	<g>
		<g>
			<path class="st0" d="M25.35,262.77c0,5.61,0,11.86-10.26,11.86c-9.81,0-10.53-5.34-10.53-11.67v-14.32
				c0-3.15-1.46-3.01-4.56-3.38v-0.77l8.53-1.05v19.52c0,3.33,0,9.89,6.61,9.89c7.52,0,7.52-5.24,7.52-9.53v-19.88h2.7V262.77z"/>
			<path class="st0" d="M33.28,248.81c0-3.65-0.64-3.97-4.56-4.61v-0.78h9.12l14.32,24.9h0.09v-24.9h2.37v30.69h-3.46l-15.41-26.76
				h-0.09v26.76h-2.37V248.81z"/>
			<path class="st0" d="M63.1,248.63c0-3.15-1.41-3.01-4.56-3.38v-0.77l8.53-1.05v30.69H63.1V248.63z"/>
			<path class="st0" d="M73.59,248.81c-1.33-3.6-1.55-4.06-4.97-4.61v-0.78h7.52l9.16,25.49l9.44-25.49h2.7l-11.54,31.19h-2.64
				L73.59,248.81z"/>
			<path class="st0" d="M101.9,248.22c0-2.6-0.65-3.47-4.61-4.01v-0.78h21.53l0.23,5.56h-1.41c-0.46-2.37-0.42-3.78-4.2-3.78h-4.79
				c-2.6,0-2.78,0.55-2.78,3.01v8.98h5.79c3.78,0,4.1-1.64,4.47-3.79h1.05v9.44h-1.05c-0.45-2.64-0.6-3.87-4.47-3.87h-5.79v10.72
				c0,2.64,0.41,2.64,3.74,2.64h4.92c3.1,0,3.33-0.96,3.97-4.42h1.41l-0.32,6.2H101.9V248.22z"/>
			<path class="st0" d="M126.34,248.27c0-3.2-0.73-3.29-4.6-4.06v-0.78h12.9c5.57,0,10.17,1.32,10.17,7.89
				c0,5.2-3.88,6.88-7.89,7.43l9.21,15.37h-4.46l-9.08-15.09h-2.28v15.09h-3.96V248.27z M130.31,257.25h1.23c3.24,0,8.8,0,8.8-6.39
				c0-4.33-3.23-5.65-6.79-5.65c-3.05,0-3.23,0.37-3.23,3.06V257.25z"/>
			<path class="st0" d="M165.78,246.85c-1.41-0.64-4.34-1.87-7.53-1.87c-3.27,0-5.51,1.78-5.51,4.56c0,7.2,15.05,6.3,15.05,16.28
				c0,6.29-5.21,8.8-11.08,8.8c-3.19,0-6.52-0.73-7.3-0.92v-3.14c1.69,0.82,4.84,2.01,7.93,2.01c4.02,0,6.38-1.91,6.38-5.79
				c0-7.71-14.63-6.57-14.63-16.14c0-4.98,3.88-7.71,9.95-7.71c2.95,0,5.42,0.45,6.74,0.72V246.85z"/>
			<path class="st0" d="M173.85,248.63c0-3.15-1.41-3.01-4.56-3.38v-0.77l8.53-1.05v30.69h-3.97V248.63z"/>
			<path class="st0" d="M186.39,248.63c0-3.47-0.59-3.65-4.56-4.42v-0.78h9.67c9.67,0,16.74,1.87,16.74,15.37
				c0,13.5-7.39,15.32-16.92,15.32h-4.92V248.63z M190.35,268.97c0,2.23,0,3.37,2.41,3.37c7.35,0,10.99-4.01,10.99-13.54
				c0-7.84-2.14-13.59-10.3-13.59c-2.74,0-3.1,0.45-3.1,3.42V268.97z"/>
			<path class="st0" d="M220.13,248.81c0.32-0.82,0.68-1.73,0.68-2.46c0-1.19-1.23-1.6-3.51-2.15v-0.78h7.85l11.76,30.69h-4.42
				l-3.83-10.17h-11.49l-3.6,10.17h-2.87L220.13,248.81z M217.8,262.17h10.35l-5.15-13.9L217.8,262.17z"/>
			<path class="st0" d="M241.33,248.63c0-3.47-0.59-3.65-4.56-4.42v-0.78h9.67c9.66,0,16.74,1.87,16.74,15.37
				c0,13.5-7.39,15.32-16.92,15.32h-4.92V248.63z M245.3,268.97c0,2.23,0,3.37,2.41,3.37c7.34,0,10.99-4.01,10.99-13.54
				c0-7.84-2.15-13.59-10.31-13.59c-2.73,0-3.09,0.45-3.09,3.42V268.97z"/>
			<path class="st0" d="M283.6,248.63c0-3.47-0.6-3.65-4.56-4.42v-0.78h9.67c9.66,0,16.73,1.87,16.73,15.37
				c0,13.5-7.39,15.32-16.92,15.32h-4.92V248.63z M287.56,268.97c0,2.23,0,3.37,2.42,3.37c7.34,0,10.98-4.01,10.98-13.54
				c0-7.84-2.14-13.59-10.3-13.59c-2.73,0-3.1,0.45-3.1,3.42V268.97z"/>
			<path class="st0" d="M312.37,248.22c0-2.6-0.65-3.47-4.61-4.01v-0.78h21.52l0.23,5.56h-1.41c-0.46-2.37-0.41-3.78-4.19-3.78
				h-4.79c-2.6,0-2.77,0.55-2.77,3.01v8.98h5.78c3.79,0,4.1-1.64,4.47-3.79h1.05v9.44h-1.05c-0.46-2.64-0.59-3.87-4.47-3.87h-5.78
				v10.72c0,2.64,0.4,2.64,3.73,2.64H325c3.1,0,3.34-0.96,3.96-4.42h1.41l-0.32,6.2h-17.68V248.22z"/>
			<path class="st0" d="M336.86,248.63c0-3.15-1.42-3.01-4.56-3.38v-0.77l8.52-1.05v24.9c0,3.73,0,4.01,3.73,4.01h4.06
				c3.42,0,3.56-1.91,3.92-4.97h1.41l-0.22,6.75h-16.87V248.63z"/>
		</g>
		<g>
			<path class="st0" d="M7.9,299.11c0-4.82-1.11-6.01-7.9-7.03v-1.35h19.12c9.56,0,21.5,0,21.5,13.83
				c0,13.75-12.64,13.75-22.29,13.75h-3.56v25.6H7.9V299.11z M14.77,315.23h3.4c7.35,0,14.7-0.47,14.7-10.67
				c0-7.83-4.35-10.75-11.38-10.75c-6.31,0-6.72,0.71-6.72,5.3V315.23z"/>
			<path class="st0" d="M50.41,299.03c0-4.51-1.1-6.01-7.98-6.95v-1.35h37.31l0.39,9.64h-2.45c-0.79-4.11-0.71-6.56-7.28-6.56h-8.29
				c-4.51,0-4.82,0.95-4.82,5.22v15.57h10.05c6.55,0,7.11-2.84,7.74-6.56h1.82v16.35h-1.82c-0.79-4.58-1.03-6.72-7.74-6.72H57.29
				v18.57c0,4.58,0.71,4.58,6.48,4.58h8.54c5.38,0,5.77-1.66,6.88-7.67h2.45l-0.55,10.75H50.41V299.03z"/>
			<path class="st0" d="M92.86,299.74c0-6-1.03-6.32-7.9-7.66v-1.35h16.75c16.75,0,29.01,3.25,29.01,26.64
				c0,23.39-12.81,26.55-29.33,26.55h-8.53V299.74z M99.73,334.99c0,3.87,0,5.85,4.18,5.85c12.73,0,19.05-6.96,19.05-23.47
				c0-13.59-3.71-23.56-17.86-23.56c-4.74,0-5.37,0.79-5.37,5.93V334.99z"/>
			<path class="st0" d="M142.57,299.11c0-5.54-1.26-5.69-7.98-7.03v-1.35h22.36c9.65,0,17.63,2.29,17.63,13.68
				c0,9.01-6.72,11.93-13.68,12.88l15.97,26.63h-7.74l-15.73-26.16h-3.96v26.16h-6.87V299.11z M149.44,314.68h2.14
				c5.6,0,15.25,0,15.25-11.07c0-7.51-5.61-9.8-11.78-9.8c-5.29,0-5.61,0.64-5.61,5.3V314.68z"/>
			<path class="st0" d="M186.67,299.03c0-4.51-1.11-6.01-7.98-6.95v-1.35h37.3l0.39,9.64h-2.44c-0.79-4.11-0.72-6.56-7.27-6.56h-8.3
				c-4.5,0-4.82,0.95-4.82,5.22v15.57h10.04c6.56,0,7.11-2.84,7.74-6.56h1.83v16.35h-1.83c-0.79-4.58-1.02-6.72-7.74-6.72h-10.04
				v18.57c0,4.58,0.71,4.58,6.48,4.58h8.54c5.37,0,5.77-1.66,6.88-7.67h2.44l-0.55,10.75h-30.66V299.03z"/>
			<path class="st0" d="M264.99,342.5c-2.29,0.55-9.4,2.29-16.6,2.29c-16.2,0-23.47-10.91-23.47-29.56
				c0-15.09,4.89-25.37,21.5-25.37c11.85,0,17.62,5.3,18.1,11.86h-7.75c-0.39-3.09-2.21-8.3-10.51-8.3
				c-12.33,0-13.6,12.56-13.6,21.18c0,13.28,4.2,26.64,19.37,26.64c2.6,0,3.86-0.16,6.08-0.71v-16.83c0-6.24-1.11-6.88-7.99-7.98
				v-1.34h14.86V342.5z"/>
			<path class="st0" d="M287.59,300.06c0.56-1.43,1.18-3.01,1.18-4.27c0-2.05-2.13-2.77-6.08-3.71v-1.35h13.59l20.39,53.19h-7.66
				l-6.63-17.62h-19.92l-6.24,17.62h-4.98L287.59,300.06z M283.56,323.22h17.94l-8.92-24.1L283.56,323.22z"/>
			<path class="st0" d="M324.34,299.74c0-5.45-2.45-5.22-7.9-5.85v-1.34l14.78-1.82v43.15c0,6.48,0,6.96,6.48,6.96h7.03
				c5.92,0,6.16-3.32,6.8-8.62h2.44l-0.39,11.7h-29.25V299.74z"/>
		</g>
	</g>
	<g>
		<path class="st1" d="M181.21,0C137.08,0,98.14,11.34,74.92,28.63l51.53,152.19c15.72-6.85,34.51-10.87,54.76-10.87
			c20.25,0,39.05,4.02,54.77,10.87l51.53-152.19C264.29,11.34,225.35,0,181.21,0z"/>
		<polygon class="st0" points="74.58,14.11 67.15,5.66 66.39,16.88 67.67,17.62 69.78,20.87 139.79,227.39 144.32,225.85 
			74.3,19.33 74.01,15.47 		"/>
		<path class="st2" d="M140.5,55.73c0.01-0.51,0.3-1.22,0.67-1.58l18.65-18.44c0.36-0.36,0.96-0.36,1.33-0.01l35.75,33.92
			c0.37,0.35,0.38,0.93,0.01,1.3l-7.01,6.98c-0.36,0.36-0.96,0.37-1.33,0.02l-27.22-25.87c-0.37-0.35-0.97-0.34-1.33,0.01
			l-10.94,10.81c-0.36,0.36-0.36,0.94,0.01,1.29l7.03,6.69c0.37,0.35,0.36,0.92-0.01,1.27l-7.23,6.69c-0.38,0.35-0.99,0.34-1.36,0
			l-6.39-5.99c-0.37-0.35-0.67-1.05-0.67-1.56L140.5,55.73z"/>
		<path class="st2" d="M222.16,112.38c0.01,0.51-0.29,1.22-0.65,1.59l-18.45,18.62c-0.36,0.36-0.96,0.38-1.33,0.03l-36.09-33.54
			c-0.37-0.35-0.39-0.93-0.03-1.29l6.94-7.07c0.36-0.37,0.95-0.38,1.33-0.03l27.49,25.6c0.37,0.35,0.97,0.33,1.33-0.03l10.81-10.92
			c0.36-0.36,0.35-0.94-0.02-1.29l-7.08-6.62c-0.37-0.35-0.37-0.92-0.01-1.27l7.16-6.76c0.37-0.35,0.98-0.36,1.36-0.01l6.46,5.92
			c0.37,0.34,0.68,1.05,0.69,1.56L222.16,112.38z"/>
		<path class="st2" d="M186.03,90.82c-0.36,0.36-0.36,0.94,0.01,1.3l7.17,6.84c0.37,0.36,0.97,0.35,1.33-0.01l26.87-26.72
			c0.36-0.36,0.66-1.08,0.66-1.59l0.06-13.92c0-0.51-0.3-1.22-0.67-1.56l-20.21-19.02c-0.37-0.35-0.97-0.34-1.34,0.02L185.9,50.13
			c-0.36,0.36-0.35,0.94,0.02,1.29l7.26,6.73c0.37,0.35,0.97,0.33,1.33-0.02l5.68-5.7c0.36-0.36,0.96-0.37,1.33-0.02L212.69,63
			c0.37,0.35,0.38,0.93,0.01,1.29L186.03,90.82z"/>
		<path class="st2" d="M176.31,77.13c0.36-0.36,0.36-0.94-0.01-1.3l-7.16-6.83c-0.37-0.36-0.97-0.35-1.33,0.01l-26.84,26.75
			c-0.36,0.36-0.66,1.07-0.66,1.59l-0.03,13.92c0,0.51,0.3,1.22,0.67,1.56l20.22,18.99c0.37,0.35,0.97,0.34,1.33-0.02l13.99-14
			c0.36-0.36,0.35-0.94-0.02-1.29l-7.25-6.72c-0.38-0.35-0.97-0.33-1.34,0.03l-5.66,5.7c-0.36,0.36-0.96,0.37-1.33,0.02
			l-11.19-10.58c-0.37-0.35-0.38-0.93-0.02-1.3L176.31,77.13z"/>
		<path class="st3" d="M193.2,204.91c9.54-10.3,24.62-19.21,42.77-24.09c-12.57-5.48-27.1-9.14-42.77-10.4V204.91z"/>
		<path class="st1" d="M193.2,204.91c14.31,0,28.07,1.2,40.94,3.4l-8.22-24.26C212.26,189.16,200.92,196.58,193.2,204.91z"/>
	</g>
</g>
</svg>
