<?xml version="1.0" encoding="utf-8"?>
<!-- Generator: Adobe Illustrator 25.4.1, SVG Export Plug-In . SVG Version: 6.00 Build 0)  -->
<svg version="1.1" id="Capa_1" xmlns="http://www.w3.org/2000/svg" xmlns:xlink="http://www.w3.org/1999/xlink" x="0px" y="0px"
	 viewBox="0 0 873.38 237.52" style="enable-background:new 0 0 873.38 237.52;" xml:space="preserve">
<style type="text/css">
	.st0{fill:#B4B3A5;}
	.st1{fill-rule:evenodd;clip-rule:evenodd;fill:#653727;}
	.st2{fill-rule:evenodd;clip-rule:evenodd;fill:#FFFFFF;}
	.st3{fill-rule:evenodd;clip-rule:evenodd;fill:#D77710;}
	.st4{fill-rule:evenodd;clip-rule:evenodd;fill:#FEFFFF;}
	.st5{fill-rule:evenodd;clip-rule:evenodd;fill:#1D2346;}
	.st6{fill:#FFFFFF;}
</style>
<g>
	<g>
		<g>
			<g>
				<path class="st0" d="M156.92,237.52c-0.6,0-1.21-0.13-1.77-0.39c-24.77-11.42-49.12-36.82-65.59-68.3
					c-0.67-0.04-1.34-0.17-2.01-0.4c-1.38,0.7-2.92,1.08-4.51,1.08c-4.2,0-7.98-2.48-9.41-6.17c-0.21-0.53-0.44-1.32-0.54-2.29
					c-2.45-2.07-3.47-5.09-2.67-8.27c0.81-3.23,3.36-5.9,6.53-7.17c-1.58-2.19-3.74-4.55-5.07-5.4c-1-0.65-1.8-1.35-2.45-2.09
					c-0.07,0.93-0.41,2.04-1.28,3.19c-0.25,0.34-0.56,0.64-0.9,0.88c-1.79,1.3-3.5,2.76-5.3,4.32c-3.03,2.61-6.16,5.29-10.12,7.6
					c-1.12,6.69-5.91,8.14-9.84,8.14h0c-0.56,0-1.17-0.03-1.83-0.09c-0.22-0.02-0.43-0.06-0.64-0.11c-2.89-0.74-5.13-2.48-6.33-4.8
					c-4.83-1.23-6.94-5.17-6.82-8.71c0.08-2.48,1.26-5.03,3.42-6.89c0.16-1.31,0.68-2.58,1.55-3.68c2.83-3.59,8.92-4.67,13.33-2.3
					c0.84-1.91,0.83-3.95,0.83-6.32c-0.01-2.74-0.01-5.85,1.64-8.68c0.14-0.24,0.31-0.47,0.49-0.68c1.78-2,4.4-3.24,7.1-4.33
					c-4.51-1.51-9.37-4.08-14.07-9.56l-1.05,0c-4.9,0-10.13,0.09-16.27,0.27c-2.42,3.65-5.88,4.27-7.96,4.27
					c-1.74,0-3.57-0.4-5.59-1.23c-0.1-0.04-0.2-0.09-0.3-0.14c-2.22-1.12-3.76-2.92-4.43-5.05c-4.23-2.46-5.54-6.64-4.88-9.99
					c0.49-2.49,1.96-4.51,4.02-5.8c0.33-1.24,0.98-2.39,1.9-3.35c1.86-1.94,4.72-3.06,7.85-3.06c3.14,0,5.95,1.15,7.73,3.15
					c0.02,0.02,0.04,0.05,0.06,0.07c0.46-0.22,0.9-0.45,1.32-0.68c-0.98-1.08-1.91-2.19-2.82-3.28c-0.39-0.46-0.77-0.92-1.16-1.39
					c-0.83,0.2-1.68,0.3-2.54,0.3l0,0c-2.85,0-5.56-1.11-7.42-3.05c-1.8-1.87-2.73-4.42-2.62-7.18c0.01-0.15,0.02-0.31,0.04-0.46
					c0.22-1.46,0.64-2.74,1.25-3.84c-0.88-2.82-0.58-5.68,0.89-8.06c2-3.24,6.06-4.97,9.8-4.32c1.47-1.01,3.14-1.54,4.89-1.54
					c3.64,0,7.11,2.32,8.84,5.92c1.02-0.93,2.26-1.57,3.5-2.04c-0.05-1.91-0.01-4.06,0.28-5.11c0.03-0.09,0.06-0.18,0.09-0.27
					c-0.13-0.31-0.24-0.65-0.34-1.03c-0.32-1.25-0.05-2.58,0.73-3.61c0.17-0.23,0.36-0.43,0.57-0.63c-0.58-0.73-0.91-1.66-0.9-2.64
					l0.01-1.1c0-0.24,0.02-0.48,0.07-0.71c-1.23-0.85-1.96-2.32-1.81-3.9l0.15-1.55c0.11-1.15,0.69-2.2,1.6-2.91
					c0.91-0.71,2.06-1.02,3.2-0.86c0.54,0.08,1.07,0.16,1.6,0.25c0.38-1.04,1.15-1.91,2.17-2.39l1.68-0.79
					c1.74-0.82,3.81-0.36,5.05,1.11c1.36,1.63,2.74,2.83,4.18,3.63c0.7-0.44,1.54-0.87,2.52-1.33c-0.08-1.14,0.31-2.3,1.14-3.18
					c0.49-0.52,1.79-1.9,3.91-1.9c1.22,0,2.1,0.48,2.48,0.68c0.19,0.08,0.37,0.17,0.55,0.28c1.71-1.73,4.61-2.25,6.61-1.02
					c0.2,0.12,0.38,0.26,0.56,0.41c1.85,1.61,3.49,3.51,4.84,5.61C107.15,10.42,133.18,0,158.17,0c24.63,0,49.26,9.99,77.28,31.39
					c1.13-0.48,2.5-0.61,3.73-0.33c0.99-2.12,3.14-3.58,5.61-3.58c0.65,0,1.28,0.1,1.87,0.29c0.96-2.19,3.15-3.73,5.68-3.73
					c2.51,0,4.67,1.51,5.65,3.67c0.73-0.31,1.54-0.48,2.38-0.48c2.9,0,5.35,2.02,6.02,4.73c0.49-0.13,1-0.19,1.53-0.19
					c3.42,0,6.21,2.8,6.21,6.25c0,2.91-1.99,5.37-4.67,6.06c-0.19,0.48-0.21,0.8-0.21,0.95c0.02,0.56-0.08,1.12-0.27,1.63v0.09
					c0.12,0.22,0.23,0.46,0.33,0.69c0.11-0.01,0.21-0.01,0.32-0.02c1.75-0.09,3.41-0.12,4.61,0.1c1.58,0.29,2.87,1.46,3.31,3.01
					c0.3,1.04,0.33,3.2,0.28,5.11c1.24,0.47,2.48,1.11,3.5,2.04c1.73-3.6,5.19-5.92,8.84-5.92c1.75,0,3.42,0.53,4.89,1.54
					c3.74-0.67,7.8,1.08,9.8,4.32c1.47,2.38,1.77,5.24,0.89,8.06c0.61,1.1,1.03,2.38,1.24,3.84c0.02,0.15,0.04,0.31,0.04,0.46
					c0.11,2.76-0.82,5.31-2.62,7.18c-2.42,2.52-6.39,3.6-9.96,2.75c-0.39,0.46-0.78,0.93-1.17,1.39c-0.91,1.09-1.83,2.19-2.82,3.27
					c0.42,0.24,0.87,0.47,1.32,0.68c0.02-0.02,0.04-0.05,0.06-0.07c1.78-2,4.59-3.15,7.73-3.15c3.13,0,5.99,1.11,7.85,3.06
					c0.92,0.96,1.56,2.11,1.9,3.35c2.07,1.28,3.53,3.31,4.02,5.8c0.66,3.34-0.64,7.53-4.87,9.99c-0.68,2.13-2.21,3.93-4.43,5.05
					c-0.1,0.05-0.2,0.09-0.3,0.14c-2.02,0.82-3.85,1.23-5.59,1.23c-2.07,0-5.54-0.62-7.96-4.27c-6.14-0.18-11.37-0.27-16.27-0.27
					l-1.05,0c-4.7,5.48-9.56,8.05-14.07,9.56c2.71,1.08,5.32,2.32,7.1,4.33c0.19,0.21,0.35,0.44,0.49,0.68
					c1.65,2.83,1.64,5.93,1.64,8.68c-0.01,2.36-0.01,4.4,0.83,6.32c4.42-2.37,10.5-1.29,13.33,2.3c0.86,1.1,1.39,2.37,1.55,3.68
					c2.16,1.86,3.33,4.42,3.42,6.89c0.12,3.54-1.99,7.48-6.82,8.71c-1.2,2.32-3.44,4.06-6.33,4.8c-0.21,0.05-0.42,0.09-0.64,0.11
					c-0.66,0.07-1.26,0.09-1.83,0.09c-3.93,0-8.72-1.44-9.84-8.14c-3.96-2.31-7.09-4.99-10.12-7.6c-1.81-1.55-3.51-3.02-5.3-4.32
					c-0.34-0.25-0.65-0.55-0.9-0.89c-0.87-1.16-1.2-2.26-1.27-3.19c-0.65,0.73-1.45,1.43-2.43,2.06c-1.35,0.86-3.51,3.22-5.1,5.42
					c3.17,1.27,5.72,3.93,6.53,7.17c0.8,3.18-0.21,6.21-2.67,8.27c-0.1,0.97-0.33,1.75-0.54,2.29c-1.43,3.69-5.21,6.17-9.41,6.17
					c-1.59,0-3.13-0.38-4.51-1.08c-0.33,0.11-0.67,0.2-1,0.26c-19.79,38.33-48,60.82-66.42,68.49
					C158.02,237.41,157.47,237.52,156.92,237.52z M91.85,159.83c0.38,0,0.77,0.05,1.14,0.16c1.14,0.32,2.11,1.1,2.64,2.16
					c15.27,30.42,38.09,55.12,61.36,66.5c18.73-8.53,44.55-31.88,61.62-66.12c0.89-1.8,2.91-2.71,4.83-2.21
					c0.94-0.5,1.39-1.14,0.96-3.41c-0.3-1.6,0.33-3.23,1.64-4.19c0.33-0.24,0.69-0.43,1.06-0.57c-0.64-0.76-1-1.73-1-2.75
					c0.03-6.43,8.43-14.68,10.98-16.31c1.19-0.77,1.37-1.39,0.4-5.74c-1.04-4.64-2.98-13.27,8.51-17.13
					c1.53-0.45,2.96-0.76,4.43-1.09c4.1-0.91,8.05-1.79,11.95-4.67c-0.84-0.17-1.69-0.4-2.55-0.68c-3.54,1.23-7.1,1.15-10.48-0.23
					c-2.81,0.86-5.84,0.99-8.98,0.37c-2.15-0.42-3.63-2.43-3.39-4.61l0.1-0.84c0.15-1.32,0.91-2.5,2.05-3.18
					c0.38-0.22,0.78-0.38,1.2-0.48c-0.32-0.14-0.63-0.31-0.92-0.53c-1.13-0.86-1.75-2.23-1.66-3.65c0.24-3.64,0.39-7.24,0.45-10.7
					c0.03-1.96,1.41-3.64,3.33-4.07h0c-1.27-1.81-2.34-3.56-2.97-5.28l-0.24-0.8c-0.1-0.34-0.23-0.95-0.24-1.3l-0.11-2.72
					c-0.07-1.49,0.64-2.85,1.79-3.66c-0.18-1.05-0.25-2.04-0.25-2.94c-1.23-0.65-2.1-1.89-2.24-3.34l-0.25-2.4
					c-0.07-0.64,0.02-1.29,0.24-1.9c0.24-0.66,0.53-1.29,0.87-1.9c-1.01-0.65-1.73-1.73-1.9-3l-0.1-0.84
					c-0.09-0.64-0.03-1.28,0.17-1.88c-0.34-0.49-0.57-1.05-0.68-1.65c-0.36-0.32-0.65-0.69-0.88-1.1c-0.52-0.15-1.01-0.4-1.45-0.74
					c-27.71-21.79-51.57-31.94-75.09-31.94c-24.12,0-49.68,10.78-80.36,33.89c-0.25,1.28-1.06,2.33-2.16,2.92
					c-0.16,0.16-0.32,0.32-0.48,0.49c1.1,1.21,1.42,2.99,0.74,4.54c-0.03,0.06-0.05,0.12-0.08,0.17c0.04,0.09,0.08,0.17,0.12,0.26
					c0.3,0.69,0.41,1.44,0.33,2.18l-0.24,2.26c-0.14,1.36-0.92,2.52-2.03,3.19c0.07,1.59-0.08,3.18-0.45,4.75
					c1.06,0.82,1.69,2.12,1.63,3.53c-0.04,0.99-0.09,1.99-0.12,2.97c-0.02,0.52-0.13,1.03-0.33,1.51c-0.71,1.7-1.83,3.44-3.11,5.24
					c0.03,0,0.05,0.01,0.08,0.02c1.92,0.4,3.31,2.06,3.36,4.02c0.09,3.35,0.28,6.75,0.54,10.1c0.12,1.45-0.52,2.86-1.69,3.73
					c-0.3,0.22-0.62,0.4-0.95,0.53c0.48,0.09,0.95,0.26,1.38,0.51c1.14,0.67,1.9,1.83,2.06,3.14l0.1,0.82
					c0.28,2.21-1.2,4.25-3.38,4.68c-3.14,0.62-6.16,0.49-8.97-0.37c-3.38,1.38-6.94,1.46-10.48,0.23c-0.86,0.28-1.71,0.51-2.55,0.68
					c3.9,2.89,7.85,3.76,11.95,4.67c1.47,0.33,2.89,0.65,4.25,1.04c11.67,3.92,9.73,12.55,8.69,17.19
					c-0.98,4.35-0.79,4.97,0.42,5.76c2.52,1.61,10.93,9.86,10.96,16.29c0,1.02-0.36,1.99-1,2.75c0.37,0.14,0.73,0.33,1.06,0.57
					c1.31,0.97,1.95,2.6,1.64,4.19c-0.42,2.2-0.01,2.87,0.86,3.36C90.56,159.98,91.2,159.83,91.85,159.83z M270.24,153.68
					c0.09,0,0.83,0.17,1.93,0.1c0.29-0.1,0.65-0.28,0.67-0.53c0.05-0.46-0.37-1.44-1.69-2.08c-1.96-0.94-2.88-3.21-2.14-5.25
					c-0.13,0.03-0.26,0.05-0.4,0.06c-1.22,0.12-2.41-0.28-3.3-1.11c-5.77-5.34-5.75-11.24-5.74-15.55c0-1.58,0.01-3.08-0.31-4.01
					c-1.06-0.83-3.45-1.75-5.25-2.44c-2.29-0.88-4.62-1.78-6.53-3.07c-0.49,0.28-0.92,0.62-1.11,1.02c-0.63,1.27,0.24,4.2,0.94,6.19
					c0.55,0.16,1.26,0.32,1.75,0.43c2.28,0.52,4.24,0.96,5.54,2.66c0.08,0.1,0.15,0.21,0.22,0.32c1.24,1.97,1.19,3.69,0.94,4.79
					c-0.25,1.09-0.78,1.94-1.39,2.6c0.92,0.76,1.82,1.54,2.71,2.3c3.27,2.81,6.36,5.46,10.36,7.52c0.7,0.36,1.29,0.91,1.69,1.59
					c0.63,1.05,0.74,2.1,0.84,3.03c0.05,0.42,0.13,1.2,0.26,1.43C270.22,153.69,270.23,153.68,270.24,153.68z M41.34,153.78
					c0.22,0.02,0.44,0.02,0.64,0.02h0c0.87,0,1.29-0.15,1.38-0.2c0.05-0.14,0.14-0.92,0.18-1.35c0.1-0.93,0.21-1.98,0.84-3.03
					c0.4-0.68,0.99-1.23,1.69-1.59c4-2.06,7.09-4.72,10.36-7.52c0.89-0.76,1.79-1.53,2.71-2.3c-0.6-0.67-1.13-1.51-1.39-2.6
					c-0.26-1.1-0.3-2.82,0.94-4.79c0.07-0.11,0.14-0.22,0.22-0.32c1.3-1.7,3.26-2.14,5.54-2.66c0.5-0.11,1.21-0.27,1.75-0.43
					c0.7-1.99,1.57-4.92,0.94-6.19c-0.2-0.39-0.62-0.73-1.11-1.02c-1.91,1.29-4.24,2.19-6.53,3.07c-1.8,0.69-4.19,1.61-5.25,2.44
					c-0.32,0.92-0.32,2.43-0.31,4.01c0.01,4.31,0.02,10.21-5.74,15.55c-0.89,0.83-2.09,1.23-3.3,1.11c-0.13-0.01-0.27-0.03-0.4-0.06
					c0.74,2.04-0.18,4.31-2.14,5.25c-1.32,0.64-1.74,1.61-1.69,2.08C40.69,153.5,41.05,153.68,41.34,153.78z M296.37,99.95
					c0.16,0.24,0.29,0.51,0.39,0.79c0.54,1.44,0.97,1.44,1.38,1.44c0.39,0,1.07-0.09,2.13-0.5c0.12-0.13,0.07-0.39-0.15-0.66
					c-0.28-0.34-0.67-0.51-1.16-0.51C298.07,100.6,297.15,100.39,296.37,99.95z M14.7,100.53c-0.67,0-1.05,0.17-1.32,0.5
					c-0.24,0.29-0.28,0.57-0.27,0.65c1.07,0.41,1.83,0.51,2.25,0.51c0.41,0,0.83,0,1.38-1.44c0.08-0.23,0.19-0.44,0.31-0.65
					c-0.69,0.35-1.48,0.5-2.29,0.44C14.74,100.53,14.72,100.53,14.7,100.53z M277.95,97.67c4.51,0.04,9.37,0.15,14.99,0.33
					c0.69,0.02,1.36,0.21,1.94,0.54c-0.07-0.1-0.13-0.21-0.18-0.32c-0.45-0.88-0.59-1.86-0.43-2.79
					c-5.54,0.77-10.92,0.39-15.45-1.06C278.69,95.52,278.4,96.62,277.95,97.67z M19.28,95.44c0.2,0.92,0.08,1.91-0.36,2.78
					c-0.04,0.08-0.08,0.15-0.12,0.23c0.54-0.27,1.14-0.43,1.77-0.45c5.62-0.18,10.48-0.29,14.99-0.33
					c-0.45-1.05-0.74-2.15-0.87-3.29C30.16,95.83,24.8,96.21,19.28,95.44z M44.97,88.95c-0.41,0.63-0.72,1.22-0.9,1.77
					c-0.56,1.85-0.03,2.71,0.15,2.99c0.66,1.07,2.12,1.71,2.61,1.79c-0.02-0.01,0.2,0,0.42,0c0.15,0,0.3,0,0.44-0.01
					c-0.3-0.24-0.57-0.5-0.83-0.79C45.91,93.64,44.84,91.8,44.97,88.95z M265.81,95.49c0.35,0.01,0.72,0.01,1.1-0.01
					c0.25-0.06,1.71-0.7,2.37-1.77c0.18-0.28,0.71-1.15,0.12-3.08c-0.18-0.54-0.49-1.13-0.9-1.75c0.12,2.98-0.92,4.77-1.86,5.82
					C266.39,94.99,266.11,95.25,265.81,95.49z M272.12,75.62c0.12,0.24,0.24,0.47,0.36,0.7c1.08,2.11,2.31,4.5,3.1,5.12
					c0.27,0.21,0.51,0.45,0.72,0.72c0.18,0.22,0.38,0.46,0.62,0.7c-0.98-1.66-1.81-3.47-2.5-5.46
					C274.07,76.93,273.24,76.32,272.12,75.62z M39.09,77.41c-0.69,1.98-1.52,3.8-2.49,5.45c0.24-0.24,0.44-0.47,0.62-0.7
					c0.21-0.27,0.45-0.51,0.72-0.72c0.79-0.62,2.02-3.01,3.1-5.12c0.12-0.23,0.24-0.46,0.36-0.69
					C40.27,76.32,39.44,76.93,39.09,77.41z M283.56,75.18c0.2,0.43,0.39,0.84,0.57,1.24c0.27,0.59,0.52,1.14,0.79,1.67
					c0.62-0.71,1.24-1.45,1.87-2.2c1.1-1.31,2.21-2.64,3.4-3.92c1.44-1.54,3.79-1.79,5.52-0.58c0.72,0.51,2.1,0.44,2.6-0.09
					c0.06-0.07,0.24-0.25,0.26-0.78c-0.09-0.48-0.2-0.69-0.24-0.75c-0.01,0.03-0.28-0.07-0.82-0.07c-0.87,0-2.04,0.19-3.49,0.57
					c-1.86,0.48-3.79-0.35-4.73-2c-0.03,0.04-0.06,0.08-0.09,0.12C287.48,70.67,285.62,72.91,283.56,75.18z M20.23,70.62
					c1.14,0,2.27,0.46,3.09,1.34c1.19,1.28,2.3,2.6,3.4,3.91c0.63,0.76,1.25,1.5,1.87,2.21c0.26-0.52,0.52-1.08,0.79-1.67
					c0.18-0.4,0.37-0.81,0.57-1.24c-2.07-2.28-3.93-4.52-5.65-6.79c-0.03-0.04-0.06-0.08-0.08-0.12c-0.94,1.65-2.88,2.48-4.73,2
					c-2.38-0.62-4.19-0.53-4.35-0.46c0.01,0.02-0.1,0.22-0.19,0.71c0.02,0.52,0.2,0.71,0.26,0.78c0.51,0.52,1.88,0.59,2.61,0.09
					C18.54,70.87,19.38,70.62,20.23,70.62z M261.25,51.17c-0.32,0.46-0.73,0.86-1.22,1.17c-1.36,0.86-2.08,1.86-1.7,4.39
					c0.02,0.11,0.03,0.23,0.04,0.34c0.11,0.27,0.38,0.57,0.77,0.91c0.88-1.59,2.41-2.69,4.31-3.07c-0.48-0.32-0.93-0.73-1.31-1.26
					C261.62,52.91,261.32,52.06,261.25,51.17z M50.02,54.93c1.91,0.39,3.42,1.46,4.3,2.99c0.43-0.38,0.72-0.73,0.85-1.04
					c0.32-2.27-0.24-3.1-0.42-3.37c-0.06-0.08-0.11-0.17-0.16-0.26c-0.08-0.07-0.16-0.14-0.23-0.21c-0.49-0.49-1.22-0.95-2.16-1.36
					c-0.13,0.71-0.41,1.38-0.84,1.98C50.96,54.19,50.5,54.61,50.02,54.93z M44.15,55.92c0.01,0.28,0.02,0.56,0.03,0.84
					c0.29-0.24,0.64-0.52,1.04-0.8C44.87,55.95,44.51,55.93,44.15,55.92z M268.29,55.95c0.4,0.28,0.75,0.56,1.04,0.8
					c0.01-0.28,0.02-0.56,0.03-0.84C268.99,55.93,268.63,55.95,268.29,55.95z M252.5,39.31l-0.4,0.61c-0.26,0.4-0.59,0.75-0.97,1.04
					l2.96,0c-0.44-0.27-0.84-0.64-1.17-1.08L252.5,39.31z"/>
			</g>
			<g>
				<g>
					<path class="st1" d="M245.58,47.7l-7.2,1.58c-5.86,18.84,2.41,24.55,6.49,36.62c-0.25,8.16-8.64,4.72-11.49,3.87
						c1.74,6.86,10.06,12.73,15.64,8.41c-2.91-2.84-4.01-6.01-1.89-8.84c0.53,2.17,2.88,3.17,4.67,2.33
						c6.91-4.67-6.79-15.79-9.29-22.55C239.12,58.01,239.63,51.56,245.58,47.7z"/>
				</g>
				<g>
					<path class="st1" d="M250.07,47.7h-3.66c-15.96,15.8,7.56,29.96,8.26,39.77c0.73,6.02-6.52,5.96-7.59,3.76
						c-1.8,4.83,4.04,9.58,12.33,7.39c-2.68-3.06-4.01-5.56-1.89-8.39c0.77,1.49,2.36,2.71,4.2,1.77
						c6.55-5.2-8.94-15.63-13.75-22.66C240.68,61.22,243.66,51.89,250.07,47.7z"/>
				</g>
				<g>
					<path class="st1" d="M254.71,47.81l-3.54-0.34c-19.84,17.58,10.9,28.51,13.11,41.24c0.59,5.49-5.63,4.61-6.53,3.08
						c-1.25,2.32,0.71,8.35,9.38,7.92c2.03-0.19,8.55-3.03,6.32-10.31C269.36,76.95,232.47,61.77,254.71,47.81z"/>
				</g>
				<g>
					<path class="st1" d="M257.27,48.15l-1.77-0.34c-6.46,4.36-9.37,10.54-4.49,17.01c4.77,5.49,12.81,11.06,18.77,17.58
						c-2.21-8.48-11.27-17.08-15-21.26C252.49,57.75,252.85,51.92,257.27,48.15z"/>
				</g>
				<g>
					<path class="st1" d="M265.53,50.41c0.31-2.29-1.85-3.45-4.84-3.04c-4.52,1.66-7.37,4.42-6.54,9.99
						c0.32,4.83,11.45,8.95,19.05,12.77c0.51-0.58,0.55-1.28,0.24-1.86c-3.61-3.25-8.96-3.7-10.87-7.34c0.12-1.1,0.84-1.97,2.5-1.94
						c1.46,0.57,2.21,2.04,4.02,2.39c3.15,0.84,4.82-0.1,4.35-2.41c0.15-1.8,0.28-6.4,0.03-7.27
						C270.71,51.19,264.76,52.71,265.53,50.41z"/>
				</g>
				<g>
					<path class="st2" d="M264.82,53c-1.3-0.22-2.48-0.3-3.78-0.22c0.2,1.24,1.26,2.03,3.66,2.37L264.82,53z"/>
				</g>
				<g>
					<path class="st1" d="M274.15,58.97c1.07,1.16,1.44,2.65-0.32,3.81c-4.08,0.93-5.56-1.52-8.33-1.94
						c-0.87-0.39-1.61,0.99-0.32,1.73c2.35-1.33,3.59,1.92,6.65,3.33c1.88,1.59,5.8,1.31,6.81-0.85
						C280.63,61.63,278.46,59.98,274.15,58.97z"/>
				</g>
				<g>
					<path class="st1" d="M278.28,75.64c-1.71-3.42-9.68-6.58-20.42-12.17c9.29,7.56,11.25,18.28,15.11,21.29
						c3.76,4.8,10.48,6.02,19.6,5.41C285.36,87.51,280.77,83.12,278.28,75.64z"/>
				</g>
				<g>
					<path class="st1" d="M290.8,61.67c-0.92-1.45,0.3-2.9,2.52-4.35c-4.78-4.43-11.75,3.3-7.48,8.52
						c-2.31,3.05-4.81,5.92-7.44,8.67c2.12,3.37,2.7,6.85,6,10.11c3.31-2.84,5.8-6.48,8.88-9.77c3.61,2.53,9.73,0.77,9.52-4.7
						c-0.71-4.78-4.11-5.46-9.83-3.97c2.19-1.68,4.78-2.46,8.24-0.53C304.86,58.38,294.93,53.44,290.8,61.67z"/>
				</g>
				<g>
					<path class="st1" d="M294.1,91.19c-8.38,1.27-17-0.25-22.09-5.86c6.91,10.19-0.52,18.69-12.26,13.91
						c-3.75,1.76-7.11,1.44-10.2-0.29c-3.1,1.38-6.53,1.49-10.29,0.34l-13.43,47.77l-6.95,15.02c1.78,0.79,3.06,3.31,5.85,2.31
						c3.78-1.72,4.5-4.7,3.81-8.27c2.38,1.26,1.05,5.52-1.77,7.81c4.84,4.23,14.17-2.09,6.61-8.98c1.41,0.51,3.04,2.05,3.3,3.56
						c5.87-3.14,0.06-11.23-6.36-9.09c0.02-4.02,6.49-11.15,9.03-12.76c8.86-5.73-6.3-17.63,7.98-22.43
						c6.85-1.97,15.48-1.91,23.51-12.33c7.14-0.06,14.5,0.09,21.96,0.34c1.54,4.1,4.65,5.19,9.33,3.27
						c4.87-2.45,2.03-9.71-3.77-9.18c1.83-2.06,6.9,1.35,6.92,4.77c7.24-2.99,4.06-12.38-4.87-9.33c0.21-1.12,2.78-1.69,4.94-1.14
						C305.61,84.94,293.3,84.52,294.1,91.19z"/>
				</g>
				<g>
					<path class="st1" d="M262.74,122.81c-3.02-3.4-11.88-4.48-14.41-7.88c-8.2,2.42-7.11,7.97-4.48,14.94
						c1.05,1.57,6.58,1.74,7.39,2.8c2.19,3.48-4.72,3.15-2.49,6.12c5.43,3.94,9.85,9.05,16.75,12.61c0.72,1.21-0.86,7.38,7.45,6.57
						c5.74-1.47,5.26-8.07,0.04-10.59c3.78,1,4.88,2.54,4.78,6.02c8.05-0.56,6.32-10.8-2.71-10.24c0.86-1.18,2.36-0.91,4.42-0.05
						c0.95-3.94-7.06-7.21-11.29-1.32C261.03,135.15,265.53,127.59,262.74,122.81z"/>
				</g>
				<g>
					<rect x="239.94" y="46.07" class="st3" width="24.81" height="2.7"/>
				</g>
				<g>
					<path class="st3" d="M244.79,31.71c1.09,0,1.98,0.91,1.98,2.03c0,0.82-0.48,1.53-1.16,1.85l2.96,2.02l3.48-5.3
						c-0.95-0.15-1.68-0.99-1.68-2c0-1.12,0.89-2.03,1.98-2.03s1.98,0.91,1.98,2.03c0,1.04-0.77,1.9-1.75,2.01l3.75,5.05l3.1-2.1
						c-0.61-0.35-1.02-1.01-1.02-1.77c0-1.12,0.89-2.03,1.98-2.03c1.09,0,1.98,0.91,1.98,2.03c0,1.12-0.89,2.03-1.98,2.03l-0.01,0
						l2.65,4l3.62,0.04c-0.42-0.37-0.68-0.92-0.68-1.53c0-1.12,0.89-2.02,1.98-2.02s1.98,0.91,1.98,2.02c0,1.12-0.89,2.03-1.98,2.03
						c-0.31,0-0.61-0.07-0.87-0.21c-1.4,1.92-2.08,3.7-2.03,5.32l-28.68,0.04l8.66-9.46c-0.07,0.01-0.14,0.01-0.21,0.01
						c-1.09,0-1.98-0.91-1.98-2.03C242.81,32.61,243.7,31.71,244.79,31.71z"/>
				</g>
				<g>
					<path class="st3" d="M237.84,39.19c1.09,0,1.98-0.91,1.98-2.03c0-1.12-0.89-2.03-1.98-2.03c-1.09,0-1.98,0.91-1.98,2.03
						C235.86,38.28,236.75,39.19,237.84,39.19z"/>
				</g>
				<g>
					<path class="st1" d="M67.93,47.7l7.2,1.58c5.86,18.84-2.41,24.55-6.49,36.62c0.25,8.16,8.64,4.72,11.49,3.87
						c-1.74,6.86-10.06,12.73-15.64,8.41c2.91-2.84,4.01-6.01,1.89-8.84c-0.53,2.17-2.88,3.17-4.67,2.33
						c-6.91-4.67,6.79-15.79,9.29-22.55C74.38,58.01,73.88,51.56,67.93,47.7z"/>
				</g>
				<g>
					<path class="st1" d="M63.43,47.7h3.66c15.96,15.8-7.56,29.96-8.26,39.77c-0.73,6.02,6.52,5.96,7.59,3.76
						c1.8,4.83-4.04,9.58-12.33,7.39c2.68-3.06,4.01-5.56,1.89-8.39c-0.77,1.49-2.36,2.71-4.2,1.77
						c-6.55-5.2,8.94-15.63,13.75-22.66C72.82,61.22,69.84,51.89,63.43,47.7z"/>
				</g>
				<g>
					<path class="st1" d="M58.8,47.81l3.54-0.34c19.84,17.58-10.9,28.51-13.11,41.24c-0.6,5.49,5.63,4.61,6.53,3.08
						c1.25,2.32-0.71,8.35-9.38,7.92c-2.03-0.19-8.55-3.03-6.32-10.31C44.15,76.95,81.03,61.77,58.8,47.81z"/>
				</g>
				<g>
					<path class="st1" d="M56.24,48.15l1.77-0.34c6.46,4.36,9.37,10.54,4.49,17.01c-4.77,5.49-12.81,11.06-18.77,17.58
						c2.21-8.48,11.27-17.08,15-21.26C61.02,57.75,60.66,51.92,56.24,48.15z"/>
				</g>
				<g>
					<path class="st1" d="M47.97,50.41c-0.31-2.29,1.85-3.45,4.84-3.04c4.52,1.66,7.37,4.42,6.54,9.99
						c-0.32,4.83-11.45,8.95-19.05,12.77c-0.51-0.58-0.55-1.28-0.24-1.86c3.61-3.25,8.96-3.7,10.87-7.34
						c-0.12-1.1-0.84-1.97-2.5-1.94c-1.46,0.57-2.21,2.04-4.02,2.39c-3.15,0.84-4.82-0.1-4.35-2.41c-0.15-1.8-0.28-6.4-0.03-7.27
						C42.79,51.19,48.75,52.71,47.97,50.41z"/>
				</g>
				<g>
					<path class="st2" d="M48.68,53c1.3-0.22,2.48-0.3,3.78-0.22c-0.2,1.24-1.26,2.03-3.66,2.37L48.68,53z"/>
				</g>
				<g>
					<path class="st1" d="M39.35,58.97c-1.07,1.16-1.44,2.65,0.32,3.81c4.08,0.93,5.56-1.52,8.33-1.94
						c0.87-0.39,1.61,0.99,0.31,1.73c-2.35-1.33-3.58,1.92-6.65,3.33c-1.88,1.59-5.8,1.31-6.81-0.85
						C32.88,61.63,35.04,59.98,39.35,58.97z"/>
				</g>
				<g>
					<path class="st1" d="M35.22,75.64c1.71-3.42,9.68-6.58,20.42-12.17c-9.29,7.56-11.25,18.28-15.11,21.29
						c-3.76,4.8-10.48,6.02-19.6,5.41C28.14,87.51,32.74,83.12,35.22,75.64z"/>
				</g>
				<g>
					<path class="st1" d="M22.71,61.67c0.92-1.45-0.3-2.9-2.52-4.35c4.79-4.43,11.75,3.3,7.48,8.52c2.31,3.05,4.81,5.92,7.44,8.67
						c-2.12,3.37-2.7,6.85-6,10.11c-3.31-2.84-5.8-6.48-8.88-9.77c-3.61,2.53-9.73,0.77-9.52-4.7c0.71-4.78,4.11-5.46,9.83-3.97
						c-2.2-1.68-4.78-2.46-8.24-0.53C8.64,58.38,18.57,53.44,22.71,61.67z"/>
				</g>
				<g>
					<path class="st1" d="M19.4,91.19c8.38,1.27,17-0.25,22.09-5.86c-6.91,10.19,0.52,18.69,12.26,13.91
						c3.75,1.76,7.11,1.44,10.2-0.29c3.1,1.38,6.53,1.49,10.29,0.34l13.43,47.77l6.95,15.02c-1.78,0.79-3.06,3.31-5.85,2.31
						c-3.78-1.72-4.5-4.7-3.81-8.27c-2.38,1.26-1.05,5.52,1.77,7.81c-4.84,4.23-14.17-2.09-6.61-8.98c-1.41,0.51-3.04,2.05-3.3,3.56
						c-5.87-3.14-0.06-11.23,6.36-9.09c-0.02-4.02-6.49-11.15-9.02-12.76c-8.86-5.73,6.3-17.63-7.98-22.43
						c-6.85-1.97-15.48-1.91-23.51-12.33c-7.14-0.06-14.5,0.09-21.96,0.34c-1.54,4.1-4.65,5.19-9.33,3.27
						c-4.87-2.45-2.03-9.71,3.77-9.18c-1.83-2.06-6.9,1.35-6.92,4.77c-7.24-2.99-4.06-12.38,4.87-9.33
						c-0.21-1.12-2.78-1.69-4.94-1.14C7.9,84.94,20.21,84.52,19.4,91.19z"/>
				</g>
				<g>
					<path class="st1" d="M50.77,122.81c3.02-3.4,11.87-4.48,14.41-7.88c8.2,2.42,7.11,7.97,4.48,14.94
						c-1.05,1.57-6.58,1.74-7.39,2.8c-2.19,3.48,4.72,3.15,2.49,6.12c-5.43,3.94-9.85,9.05-16.75,12.61
						c-0.72,1.21,0.86,7.38-7.45,6.57c-5.74-1.47-5.26-8.07-0.05-10.59c-3.78,1-4.88,2.54-4.78,6.02
						c-8.05-0.56-6.32-10.8,2.71-10.24c-0.86-1.18-2.36-0.91-4.42-0.05c-0.95-3.94,7.06-7.21,11.29-1.32
						C52.48,135.15,47.98,127.59,50.77,122.81z"/>
				</g>
				<g>
					<path class="st3" d="M61.29,34.42c1.81,1.4,3.78,2.47,5.08,2.4c-0.72,1.44-1.38,2.41-1.41,3.19c-0.02-1.22-0.9-1.95-2.63-2.18
						c-0.68,0.16-1.47,0.99-2.24,1.85c-0.11-0.79-0.16-1.87-1.3-2.07c-1.18,0.29-2.05,1.38-3.65,1.24
						C53.92,37.94,55.98,36.46,61.29,34.42z"/>
				</g>
				<g>
					<path class="st3" d="M38.74,35.52c4.24,0.6,8.42,1.65,12.49,3.56c-2.59-1.84-4.59-3.9-6.32-6.06l1.68-0.79
						c4.26,5.1,9.58,7.63,16.58,5.79c-0.63,1.61-0.68,3.46-1.31,5.19c-1.54-1.21-5.65-1.68-8.47-3.39
						c-1.94,1.36-3.52,3.28-4.95,5.46l-0.1-3.38c-1.49,1.1-1.9,2.45-2.02,3.88c-1.32-1.96-3.46-2.9-5.98-3.38l0.01-1.1
						c2.5-0.06,4.86,0.17,7.02-0.54c-2.52-2.3-5.58-3.19-8.79-3.68L38.74,35.52z"/>
				</g>
				<g>
					<path class="st3" d="M67.46,31.9c-0.68-1.02,0.92-2.01,1.54-1.62c2.24,1.95,4.3,4.6,5.72,7.73c-1.65-0.17-3.66,0.1-4.49,1.1
						l-1.08-1.47C70.65,36.22,70.08,34.5,67.46,31.9z"/>
				</g>
				<g>
					<path class="st3" d="M60.75,31.53c0.87-0.92,0.91-0.52,1.71-0.19c2.68,3.38,5.01,6.09,8.1,7.98c1.23,0.76,3.05,0.01,4.8-0.76
						c-5.48,5.16-7.65,10.06-8.16,9.7c-1.18-0.83-2.15-1.23-2.9-2.76c2.46-1.18,3.64-2.61,3.28-3.79c-3.13,3.2-6.61,6.15-9.71,9.85
						l-1.81,0.09l5.48-6.95c-1.97,0.3-4.06,1.53-6.2,3.18c-4.76-2.71-9.53-1.64-14.29,2.02c-0.32-0.32-0.93-0.47-1.25-1.72
						c0.77-1.02,7.61-3.11,12.38-5.9l-0.11-1.66c1.82-0.27,3.47,0.04,4.76,1.62l0.7,1.56c2.32,0.06,4.14-0.03,4.88-0.47
						c0.57-0.46,1.06-1.09,1.45-1.88l-0.01-2.24c0.99,0.51,2.03,0.81,3.19,0.64L60.75,31.53z"/>
				</g>
				<g>
					<path class="st3" d="M73.94,42.59l-0.32-1.17c-2.18,1.78-3.51,3.87-4.5,6.14c0.9-0.18,2.14,0.37,3.73,1.66L73.94,42.59z"/>
				</g>
				<g>
					<path class="st4" d="M73.92,39.99c62.37-47.49,106.66-47.89,165.61,0c17.46,111.4-47.71,178.76-82.61,193.3
						C108.29,210.88,57.45,130.96,73.92,39.99z"/>
				</g>
				<g>
					<path class="st2" d="M83.26,43.55c20.1-13.9,41.49-26.15,68.21-31.62c1.87-0.38,3.47,1.49,3.47,3.31v95.15
						c0,1.82-1.56,3.31-3.47,3.31H83.26c-1.91,0-3.28-1.5-3.47-3.31c-1.93-18.33-2.48-37.75,0-59.57
						C79.99,49,81.71,44.61,83.26,43.55z"/>
				</g>
				<g>
					<path class="st5" d="M79.51,106.69c2.24-1.65,5.39-6.09,9.22-4.7c4.46,0.81,7.85,5.39,10.38,5.11
						c3.96-0.45,7.82-4.78,11.57-4.82c2.82-0.31,7.57,4.4,11.99,4.7c3.54,0.2,7.19-5.01,11.7-4.91c3.46-0.17,6.28,5.49,11.88,5.22
						c2.79-0.59,5.15-3.44,8.69-3.83c0.02,5.48,0.91,8.91-1.82,9.98c-4.34,0.37-67.38,0.83-72.25-0.19
						C81.78,113.52,79.22,111.79,79.51,106.69z"/>
				</g>
				<g>
					<path class="st5" d="M105.11,29.72c13.95-7.85,29.03-14.25,46.36-17.8c1.86-0.38,3.47,1.49,3.47,3.31v15.34
						c-3.35-0.45-6.29-4-8.58-3.91c-4.73-0.34-6.71,3.88-11.04,4.92c-4.58,0.89-11.07-5.53-13.62-4.64
						c-3.23,0.32-6.66,3.86-9.96,4.72C109.39,32.2,107.45,31.25,105.11,29.72z"/>
				</g>
				<g>
					<path class="st5" d="M83.26,43.55c2.24-1.65,5.17-3.53,6.65-4.49c3.55,2.7,6.79,4.76,9.2,5c3.96-0.45,7.82-4.98,11.57-5.02
						c2.82-0.31,7.57,4.6,11.99,4.91c3.54,0.2,7.08-5.01,11.59-4.91c3.46-0.17,6.39,5.28,11.99,5.01c2.79-0.59,5.15-3.23,8.69-3.62
						v15.2c-3.15,1.16-5.44,4.36-8.8,4.4c-4.32,0.47-8.85-5.6-12-5.03c-4.32-0.38-7.63,4.94-11.47,4.9
						c-3.75,0.17-8.79-5.19-11.9-5.02c-4.64-0.46-8.1,5.43-11.67,5.08c-4.8-0.53-8.58-5.38-12-5.02c-2.69,0.23-5.16,2.72-8.06,3.46
						c0.21-2.49,0.46-5.02,0.75-7.58C79.99,49,81.75,44.66,83.26,43.55z"/>
				</g>
				<g>
					<path class="st5" d="M78.11,75.37c2.24-1.65,6.78-6.39,10.61-5c4.46,0.81,7.85,5.39,10.38,5.11c3.96-0.45,7.82-4.78,11.57-4.82
						c2.82-0.31,7.57,4.4,11.99,4.7c3.54,0.2,7.19-5.01,11.7-4.91c3.46-0.17,6.28,5.49,11.88,5.22c2.79-0.59,5.15-3.44,8.69-3.83
						v15.4c-3.15,1.16-5.44,4.37-8.8,4.4c-4.32,0.47-8.85-5.6-12-5.03c-4.32-0.38-7.63,4.94-11.47,4.9
						c-3.75,0.17-8.79-5.19-11.9-5.02c-4.64-0.45-8.1,5.43-11.67,5.08c-4.8-0.53-8.58-5.38-12-5.02c-2.69,0.23-5.91,2.72-8.81,3.46
						c-0.22-2.49-0.18-5.33-0.32-7.78L78.11,75.37z"/>
				</g>
				<g>
					<path class="st3" d="M230.76,43.55c-20.1-13.9-41.49-26.15-68.21-31.62c-1.86-0.38-3.47,1.49-3.47,3.31v95.15
						c0,1.82,1.56,3.31,3.47,3.31h68.21c1.91,0,3.28-1.5,3.47-3.31c1.93-18.33,2.48-37.75,0-59.57
						C234.02,49,232.3,44.61,230.76,43.55z"/>
				</g>
				<g>
					<polygon class="st1" points="179.96,30.15 189.46,32.18 179.96,34.99 					"/>
				</g>
				<g>
					<path class="st1" d="M173.3,35.77h14.31l4.14,12.03c-7.53-3.39-15.06-4.16-22.59,0L173.3,35.77z"/>
				</g>
				<g>
					<path class="st1" d="M164.57,49.05h31.43c2.7,9.64,3.36,18.59,0.82,27.81c-11.64-7.42-22.74-8.41-33.07,0
						C161.65,67.8,161.87,58.95,164.57,49.05z"/>
				</g>
				<g>
					<polygon class="st2" points="178.98,59.05 177.18,51.24 184.06,51.24 182.09,58.74 193.39,57.02 193.39,63.42 182.26,61.08 
						183.89,69.05 176.69,69.05 178.65,60.93 167.36,63.74 167.36,56.24 					"/>
				</g>
				<g>
					<path class="st1" d="M168.83,75.92h22.27c5.78,15.83,6.38,24.48-8.51,28.75l-1.34-17.97l11.18,0.07l0-1.97l-24.29,0.04
						l-0.11,1.69l10.82,0.02l-1.5,18.12C170.43,100.82,159.44,100.84,168.83,75.92z"/>
				</g>
				<g>
					<polygon class="st1" points="215.16,62.49 213.36,54.68 220.24,54.68 218.28,62.18 229.57,60.46 229.57,66.86 218.44,64.52 
						220.08,72.49 212.87,72.49 214.84,64.36 203.54,67.18 203.54,59.68 					"/>
				</g>
				<g>
					<polygon class="st1" points="215.16,90.16 213.36,82.34 220.24,82.34 218.28,89.84 229.57,88.12 229.57,94.53 218.44,92.19 
						220.08,100.15 212.87,100.15 214.84,92.03 203.54,94.84 203.54,87.34 					"/>
				</g>
				<g>
					<path class="st2" d="M162.54,117.81h65.43c1.83,0,3.63,1.46,3.33,3.18c-5.35,31.09-29.08,75.54-68.51,101.64
						c-1.5,1-4.15-2.44-4.14-4.19l0.55-97.45C159.22,119.24,160.71,117.81,162.54,117.81z"/>
				</g>
				<g>
					<path class="st5" d="M162.54,117.81h65.43c1.83,0,3.63,1.46,3.33,3.18c-0.31,2.72-1.37,7.41-2.3,9.85
						c-5.57-1.58-9.26,4.94-13.73,4.53c-5.14-0.77-8.66-5.41-12.11-5.36c-4.76,0.42-7.82,5.82-11.73,5.53
						c-4.19-0.21-8.48-5.1-11.93-5.21c-4.33,0.09-7.6,5.06-11.93,5.45c-1.68-0.07-4.14-1.08-8.44-4.87l0.08-9.92
						C159.22,119.24,160.71,117.81,162.54,117.81z"/>
				</g>
				<g>
					<path class="st5" d="M168.08,143.15c2.26,0.12,6.29,3.01,11.11,4.72c3.9,0.22,6.63-4.84,11.71-4.93
						c4.55-0.1,8.25,5.08,12.37,5.09c3.69,0.3,7.7-4.69,11.7-5.11c2.84,0.56,6.32,1.68,8.46,4.01c-0.39,3.43-5.24,12.89-5.6,12.86
						c-6.32-1.48-10.04,4.14-14.13,4.29c-4.76,0.42-8.14-4.55-12.05-4.84c-4.19-0.21-8.38,4.86-11.82,4.75
						c-4.33,0.09-7.6-5.11-11.93-4.71c-5.83,0.34-4.67,3.39-9.08,3.67l-0.03-15.71C158.8,145.49,166.25,143.15,168.08,143.15z"/>
				</g>
				<g>
					<path class="st5" d="M167.72,174.17c2.98-0.31,7,2.41,11.56,4.81c3.9,0.22,6.54-4.33,11.62-4.41c4.55-0.1,8.25,5.08,12.37,5.09
						c1.04,0.08,3.87-1.74,3.18-0.78l-9.66,13.33c-0.82-0.44-2.22-1.64-4.96-1.67c-4.19-0.21-8.2,5.12-11.64,5
						c-4.33,0.09-7.96-5.02-12.29-4.63c-5.83,0.16-4.67,2.84-9.08,3.67l-0.48-15.19C160.31,178.3,165.13,174.35,167.72,174.17z"/>
				</g>
				<g>
					<path class="st5" d="M158.6,210.2c1.79-1.46,7.52-5.48,9.71-4.65c2.72,0.16,6.37,3.43,10.31,4.82
						c-5.22,4.98-10.74,9.1-16.41,12.37C157.88,221.86,158.58,218.55,158.6,210.2z"/>
				</g>
				<g>
					<path class="st3" d="M151.49,117.81H86.05c-1.83,0-3.63,1.46-3.33,3.18c5.35,31.09,29.08,75.54,68.51,101.64
						c1.51,1,4.35-1.67,4.34-3.42l-0.75-98.22C154.8,119.24,153.32,117.81,151.49,117.81z"/>
				</g>
				<g>
					<path class="st2" d="M85.41,133.71l60.96,7.65h8.72l0.01,5.38l-8.71,0.01l-51.87,9.8C91.21,150.04,88.21,142.29,85.41,133.71z"
						/>
				</g>
				<g>
					<path class="st1" d="M154.88,132.29v7.32h-8.48C145.92,135.62,147.53,132.15,154.88,132.29z"/>
				</g>
				<g>
					<path class="st1" d="M146,148.86h9.29v71.47c-0.47,0.96-1.75,1.7-3.23,2.67c-9.66-6.29-18.36-13.64-26.4-21.46l2.74-3.1
						l10.25-3.32l4.94-0.41L146,148.86z"/>
				</g>
				<g>
					<path class="st6" d="M140.22,207.05c-3.24,0-6.09-1.25-8.31-3.65l-0.52-0.56l0.46-0.61c1.94-2.54,4.44-3.89,7.42-4.01
						c3.49-0.17,7.05,1.45,9.97,3.52c1.22-1.01,2.25-2.19,2.99-3.46l1.57,0.91c-0.78,1.34-1.84,2.58-3.09,3.67
						c1.02,0.84,1.94,1.72,2.7,2.57l-1.35,1.21c-0.82-0.91-1.77-1.81-2.82-2.64c-2.27,1.59-4.94,2.67-7.55,2.96
						C141.18,207.02,140.7,207.05,140.22,207.05z M133.79,202.73c2.59,2.41,5.57,2.67,7.69,2.44c2.13-0.23,4.3-1.07,6.2-2.29
						c-2.61-1.74-5.57-2.97-8.34-2.85C137.17,200.12,135.31,201.02,133.79,202.73z"/>
				</g>
			</g>
		</g>
		<g>
			<path d="M373.04,76.9h-9.18v-7.13c-4.67,4.96-10.24,7.44-16.7,7.44c-4.8,0-8.61-1.29-11.43-3.86c-2.82-2.58-4.22-6.13-4.22-10.68
				v-27.7c0-1.67-0.21-2.74-0.63-3.19c-0.42-0.45-1.39-0.68-2.93-0.68v-0.47h12.87v0.47c-1.36,0-2.32,0.2-2.88,0.61
				c-0.56,0.41-0.84,1.38-0.84,2.91v25.41c0,5.32,1.3,9.11,3.91,11.39c2.61,2.27,5.58,3.41,8.91,3.41c5.24,0,9.88-2.25,13.94-6.75
				V36.76c0-2.74-0.25-4.37-0.76-4.88c-0.5-0.51-1.29-0.77-2.37-0.77h-0.46v-0.47h12.77v0.47c-1.58,0.08-2.57,0.34-2.98,0.75
				c-0.41,0.42-0.61,1.21-0.61,2.39v37.66c0,1.49,0.08,2.46,0.23,2.92c0.15,0.46,0.47,0.84,0.94,1.15c0.47,0.3,1.28,0.45,2.42,0.45
				V76.9z"/>
			<path d="M418.19,30.64h9.38v0.47c-1.43,0.04-2.41,0.33-2.96,0.86c-0.55,0.53-0.82,1.66-0.82,3.38v42.12l-38.67-39.29v34.21
				c0,1.09,0.09,1.89,0.26,2.42c0.18,0.52,0.43,0.88,0.76,1.07c0.33,0.19,1.15,0.38,2.47,0.56v0.47h-9.31v-0.47
				c1.67,0,2.7-0.28,3.11-0.85c0.41-0.57,0.61-1.91,0.61-4.05V40.24c0-2.74-0.4-4.98-1.2-6.72c-0.8-1.74-2.65-2.54-5.55-2.42v-0.47
				h9.12l36.34,36.92V34.91c0-1.76-0.33-2.83-0.99-3.22c-0.66-0.39-1.5-0.58-2.53-0.58V30.64z"/>
			<path d="M445.08,30.64v0.47c-0.64-0.06-1.34,0.03-2.12,0.28c-0.78,0.25-1.24,0.62-1.38,1.1c-0.14,0.48-0.21,1.62-0.21,3.42v35.5
				c0,1.93,0.08,3.1,0.25,3.53c0.16,0.43,0.48,0.78,0.95,1.07c0.47,0.28,1.31,0.42,2.52,0.42v0.47h-12.93v-0.47
				c1.62,0,2.63-0.3,3.03-0.89c0.39-0.6,0.59-1.95,0.59-4.06V36.32c0-2.2-0.22-3.64-0.66-4.32c-0.44-0.68-1.43-0.98-2.96-0.89v-0.47
				H445.08z"/>
			<path d="M471.03,77.62h-0.63l-17.26-40.73c-1.23-2.87-2.24-4.55-3.03-5.04c-0.79-0.49-1.6-0.74-2.44-0.74v-0.47h11.19v0.47
				c-0.99-0.06-1.48,0.3-1.48,1.1c0,0.31,0.07,0.65,0.2,1.01l15.05,35.61l14.92-35.59c0.2-0.48,0.3-0.86,0.3-1.15
				c0-0.71-0.57-1.03-1.7-0.97v-0.47h7.27v0.47c-0.5,0-1.04,0.07-1.6,0.2c-0.56,0.14-1.14,0.68-1.73,1.62
				c-0.59,0.94-0.9,1.44-0.92,1.51L471.03,77.62z"/>
			<path d="M496.36,31.17v-0.53h30.48v6.38h-0.49c-0.66-2.37-1.21-3.76-1.66-4.18c-0.45-0.42-1.55-0.63-3.31-0.63h-15.99v20.76
				h14.84c1.47,0,2.4-0.13,2.8-0.39c0.39-0.26,0.6-0.64,0.62-1.15h0.49v4.37h-0.49c-0.11-0.61-0.37-1.02-0.77-1.22
				c-0.41-0.21-1.16-0.31-2.25-0.31h-15.24v14.29c0,2.16,0.21,3.71,0.62,4.66c0.42,0.95,1.08,1.55,1.99,1.79
				c0.91,0.24,2.28,0.36,4.12,0.36h8.55c2.72,0,4.45-0.09,5.21-0.27c0.76-0.18,1.4-0.53,1.92-1.06c0.53-0.53,0.93-1.69,1.22-3.48
				h0.49v6.34h-33.14v-0.47c1.12-0.06,1.97-0.27,2.55-0.61c0.58-0.34,0.87-1.24,0.87-2.68V35.78c0-1.69-0.15-2.89-0.46-3.58
				C499.01,31.51,498.03,31.17,496.36,31.17z"/>
			<path d="M532.89,31.11v-0.47h13.76c3.49,0,6.01,0.07,7.57,0.22c1.56,0.15,3.15,0.63,4.79,1.46c1.63,0.83,2.87,1.95,3.7,3.36
				c0.83,1.41,1.25,3.15,1.25,5.2c0,2.35-0.74,4.58-2.22,6.71c-1.48,2.13-3.57,3.92-6.27,5.39l3.42,5.02
				c0.75,1.26,2.73,4.01,5.94,8.25c3.22,4.25,5.7,6.84,7.46,7.77c1.75,0.93,3.46,1.4,5.1,1.4c1.62,0,3.49-0.6,5.59-1.79l0.2,0.63
				c-2.63,2.05-6.05,3.08-10.26,3.08c-2.81,0-5.22-0.79-7.23-2.38s-5.53-5.93-10.53-13.05c-0.04-0.04-0.07-0.08-0.07-0.13
				l-4.87-7.16l-4.32,0.13h-3.92v17.69c0,1.42,0.2,2.44,0.59,3.06c0.39,0.62,1.34,0.92,2.84,0.92v0.47h-12.51v-0.47
				c1.56-0.06,2.53-0.38,2.91-0.94c0.38-0.56,0.58-1.72,0.58-3.45V35.28c0-1.19-0.16-2.18-0.49-2.97
				C535.56,31.53,534.56,31.13,532.89,31.11z M541.98,31.86v21.7h5.08c4,0,6.97-0.9,8.9-2.7c1.93-1.8,2.9-4.17,2.9-7.1
				c0-2.85-0.95-5.54-2.85-8.09c-1.9-2.54-5.25-3.82-10.04-3.82H541.98z"/>
			<path d="M609.51,31.23l2.3,5.78l-0.39,0.06c0-0.02-0.61-0.64-1.83-1.85c-1.22-1.21-2.61-2.15-4.18-2.81
				c-1.57-0.66-3.34-0.99-5.32-0.99c-3.31,0-5.94,0.91-7.88,2.72c-1.94,1.81-2.91,3.99-2.91,6.55c0,1.7,0.46,3.18,1.37,4.44
				c0.91,1.27,2.81,2.45,5.71,3.54c4.98,1.6,8.38,2.81,10.22,3.61c1.83,0.81,3.6,2.17,5.3,4.09c1.7,1.92,2.55,4.39,2.55,7.4
				c0,1.26-0.15,2.45-0.46,3.59c-0.31,1.14-0.8,2.24-1.48,3.29c-0.68,1.06-1.5,2.02-2.45,2.89c-0.95,0.87-1.93,1.53-2.91,1.98
				c-0.99,0.45-2.55,0.79-4.67,1.02c-2.13,0.23-3.53,0.34-4.21,0.34h-12.93V63.46h0.49c0.04,4.46,1.14,7.57,3.29,9.33
				c2.15,1.76,5.5,2.64,10.04,2.64c4.12,0,7.26-0.93,9.4-2.8c2.14-1.86,3.21-4.1,3.21-6.72c0-1.59-0.37-2.95-1.12-4.07
				c-0.75-1.12-1.79-2.1-3.13-2.95c-1.34-0.85-3.87-1.88-7.6-3.1c-3.71-1.24-6.31-2.33-7.82-3.26c-1.5-0.93-2.76-2.33-3.77-4.21
				c-1.01-1.87-1.52-3.78-1.52-5.73c0-3.58,1.29-6.58,3.87-9.01c2.58-2.43,5.96-3.64,10.15-3.64c1.62,0,3.38,0.18,5.27,0.53
				c1.89,0.36,2.94,0.59,3.16,0.69C609.34,31.21,609.42,31.23,609.51,31.23z"/>
			<path d="M631.17,30.64v0.47c-0.64-0.06-1.34,0.03-2.12,0.28c-0.78,0.25-1.24,0.62-1.38,1.1c-0.14,0.48-0.21,1.62-0.21,3.42v35.5
				c0,1.93,0.08,3.1,0.25,3.53c0.16,0.43,0.48,0.78,0.95,1.07c0.47,0.28,1.31,0.42,2.52,0.42v0.47h-12.93v-0.47
				c1.62,0,2.63-0.3,3.03-0.89c0.39-0.6,0.59-1.95,0.59-4.06V36.32c0-2.2-0.22-3.64-0.66-4.32c-0.44-0.68-1.43-0.98-2.96-0.89v-0.47
				H631.17z"/>
			<path d="M636.01,31.11v-0.47h22.25c5.66,0,10.13,0.42,13.41,1.27c3.28,0.85,6.14,2.18,8.57,4c2.43,1.82,4.37,4.15,5.79,6.99
				c1.43,2.84,2.14,6,2.14,9.5c0,3.37-0.74,6.68-2.22,9.94c-1.48,3.26-3.5,6.06-6.04,8.42c-2.54,2.36-5.23,3.97-8.05,4.84
				c-2.82,0.87-7.18,1.3-13.08,1.3h-22.78v-0.47h0.59c1.18,0,1.96-0.45,2.34-1.37c0.37-0.91,0.56-2.56,0.56-4.94V36.44
				c0-2.51-0.22-4.03-0.67-4.55C638.37,31.37,637.43,31.11,636.01,31.11z M652.53,31.61h-7.44v35.9c0,2.26,0.4,3.94,1.2,5.04
				c0.8,1.1,2.17,1.9,4.1,2.39c1.93,0.49,4.53,0.74,7.8,0.74c9.08,0,15.46-2.22,19.14-6.67c3.68-4.45,5.51-9.3,5.51-14.56
				c0-6.18-2.52-11.53-7.55-16.05C670.25,33.87,662.67,31.61,652.53,31.61z"/>
			<path d="M714.35,55.6h-14.23l-7.34,17.46c-0.5,1.26-0.76,2.03-0.76,2.32c0,0.69,0.54,1.04,1.61,1.04v0.47h-7.21v-0.47
				c0.96,0,1.78-0.22,2.43-0.68c0.66-0.45,1.38-1.62,2.17-3.5l17.57-42.3h0.87l17.28,40.85c0,0.21,0.44,1.2,1.33,2.97
				c0.89,1.77,2.24,2.66,4.05,2.66v0.47h-11.32v-0.47c1.03,0,1.55-0.39,1.55-1.16c0-0.52-0.25-1.36-0.76-2.51
				c-0.09-0.08-0.16-0.22-0.23-0.41c-0.04-0.21-0.08-0.31-0.1-0.31L714.35,55.6z M700.58,54.32h13.11l-6.55-15.77L700.58,54.32z"/>
			<path d="M735.04,31.11v-0.47h22.25c5.66,0,10.13,0.42,13.41,1.27c3.28,0.85,6.14,2.18,8.57,4c2.43,1.82,4.37,4.15,5.79,6.99
				c1.43,2.84,2.14,6,2.14,9.5c0,3.37-0.74,6.68-2.22,9.94c-1.48,3.26-3.5,6.06-6.04,8.42c-2.54,2.36-5.23,3.97-8.05,4.84
				c-2.82,0.87-7.18,1.3-13.08,1.3h-22.78v-0.47h0.59c1.18,0,1.96-0.45,2.34-1.37c0.37-0.91,0.56-2.56,0.56-4.94V36.44
				c0-2.51-0.22-4.03-0.67-4.55C737.4,31.37,736.46,31.11,735.04,31.11z M751.56,31.61h-7.44v35.9c0,2.26,0.4,3.94,1.2,5.04
				c0.8,1.1,2.17,1.9,4.1,2.39c1.93,0.49,4.53,0.74,7.8,0.74c9.08,0,15.46-2.22,19.14-6.67c3.68-4.45,5.51-9.3,5.51-14.56
				c0-6.18-2.52-11.53-7.55-16.05C769.28,33.87,761.7,31.61,751.56,31.61z"/>
			<path d="M358.47,107.94l2.96,7.42l-0.51,0.08c0-0.03-0.78-0.82-2.35-2.38c-1.56-1.56-3.35-2.76-5.37-3.61
				c-2.02-0.85-4.29-1.27-6.83-1.27c-4.26,0-7.63,1.16-10.12,3.49c-2.49,2.33-3.74,5.13-3.74,8.41c0,2.18,0.58,4.08,1.75,5.71
				c1.17,1.63,3.61,3.14,7.33,4.55c6.39,2.06,10.77,3.6,13.12,4.64c2.36,1.03,4.63,2.79,6.81,5.26c2.19,2.47,3.28,5.64,3.28,9.51
				c0,1.61-0.2,3.15-0.59,4.61c-0.39,1.46-1.03,2.87-1.9,4.23c-0.87,1.36-1.92,2.59-3.15,3.71c-1.23,1.12-2.47,1.96-3.74,2.54
				c-1.27,0.58-3.27,1.01-6,1.31c-2.73,0.3-4.54,0.44-5.41,0.44H327.4v-17.27h0.63c0.06,5.73,1.47,9.72,4.23,11.98
				c2.76,2.26,7.06,3.39,12.89,3.39c5.3,0,9.32-1.2,12.07-3.59c2.75-2.39,4.12-5.27,4.12-8.63c0-2.04-0.48-3.78-1.44-5.22
				c-0.96-1.44-2.3-2.7-4.02-3.79c-1.72-1.09-4.97-2.42-9.76-3.99c-4.76-1.6-8.11-2.99-10.04-4.19c-1.93-1.2-3.55-3-4.84-5.4
				c-1.3-2.4-1.95-4.86-1.95-7.36c0-4.59,1.66-8.45,4.97-11.57c3.31-3.12,7.66-4.68,13.04-4.68c2.09,0,4.34,0.23,6.76,0.69
				c2.42,0.46,3.78,0.75,4.06,0.89C358.25,107.91,358.36,107.94,358.47,107.94z"/>
			<path d="M403,139.24h-18.27l-9.43,22.43c-0.65,1.61-0.97,2.61-0.97,2.99c0,0.89,0.69,1.33,2.07,1.33v0.61h-9.26v-0.61
				c1.24,0,2.28-0.29,3.13-0.87c0.84-0.58,1.77-2.08,2.79-4.5l22.57-54.33h1.12l22.2,52.47c0,0.27,0.57,1.54,1.71,3.82
				c1.14,2.27,2.87,3.41,5.21,3.41v0.61h-14.54v-0.61c1.32,0,1.99-0.5,1.99-1.49c0-0.67-0.32-1.75-0.97-3.23
				c-0.11-0.11-0.21-0.28-0.3-0.52c-0.06-0.27-0.1-0.4-0.13-0.4L403,139.24z M385.32,137.59h16.84l-8.41-20.25L385.32,137.59z"/>
			<path d="M480.73,107.17h12.05v0.61c-1.83,0.05-3.1,0.42-3.8,1.11c-0.7,0.69-1.06,2.13-1.06,4.34v54.09l-49.67-50.47v43.94
				c0,1.4,0.11,2.43,0.34,3.1c0.23,0.67,0.55,1.13,0.97,1.37c0.42,0.24,1.48,0.48,3.17,0.73v0.61h-11.96v-0.61
				c2.14,0,3.47-0.36,3.99-1.09c0.52-0.73,0.78-2.46,0.78-5.2v-40.19c0-3.52-0.51-6.4-1.54-8.63c-1.03-2.23-3.4-3.27-7.12-3.1v-0.61
				h11.71l46.67,47.42v-41.94c0-2.26-0.42-3.64-1.27-4.13c-0.85-0.5-1.93-0.75-3.25-0.75V107.17z"/>
			<path d="M548.07,105.12l-2.96,7.18h-0.63c0.11-0.43,0.17-1.01,0.17-1.73c0-0.62-0.23-1.01-0.7-1.19
				c-0.46-0.17-1.2-0.26-2.22-0.26h-16.24v50.83c0,2.1,0.18,3.53,0.53,4.29c0.35,0.77,0.83,1.25,1.44,1.45
				c0.61,0.2,1.58,0.3,2.94,0.3v0.61h-16.87v-0.61c2.11-0.13,3.44-0.52,3.97-1.17c0.54-0.64,0.8-1.99,0.8-4.03v-51.68h-15.56
				c-1.57,0-2.6,0.09-3.08,0.26c-0.48,0.18-0.72,0.61-0.72,1.31c0,0.35,0.11,0.89,0.34,1.61h-0.63l-2.96-7.18h0.63
				c0.51,0.97,1.01,1.55,1.5,1.75c0.49,0.2,1.55,0.3,3.19,0.3h41.32c1.63,0,2.81-0.1,3.52-0.3s1.24-0.79,1.58-1.75H548.07z"/>
			<path d="M577.16,139.24h-18.27l-9.43,22.43c-0.65,1.61-0.97,2.61-0.97,2.99c0,0.89,0.69,1.33,2.07,1.33v0.61h-9.26v-0.61
				c1.24,0,2.28-0.29,3.13-0.87c0.84-0.58,1.77-2.08,2.79-4.5l22.57-54.33h1.12l22.2,52.47c0,0.27,0.57,1.54,1.71,3.82
				c1.14,2.27,2.87,3.41,5.21,3.41v0.61h-14.54v-0.61c1.32,0,1.99-0.5,1.99-1.49c0-0.67-0.32-1.75-0.97-3.23
				c-0.11-0.11-0.21-0.28-0.3-0.52c-0.06-0.27-0.1-0.4-0.13-0.4L577.16,139.24z M559.49,137.59h16.84l-8.41-20.25L559.49,137.59z"/>
			<path d="M654.89,107.17h12.05v0.61c-1.83,0.05-3.1,0.42-3.8,1.11c-0.7,0.69-1.06,2.13-1.06,4.34v54.09l-49.67-50.47v43.94
				c0,1.4,0.11,2.43,0.34,3.1c0.23,0.67,0.55,1.13,0.97,1.37c0.42,0.24,1.48,0.48,3.17,0.73v0.61h-11.96v-0.61
				c2.14,0,3.47-0.36,4-1.09c0.52-0.73,0.78-2.46,0.78-5.2v-40.19c0-3.52-0.51-6.4-1.54-8.63c-1.03-2.23-3.4-3.27-7.12-3.1v-0.61
				h11.71l46.67,47.42v-41.94c0-2.26-0.42-3.64-1.27-4.13c-0.85-0.5-1.93-0.75-3.26-0.75V107.17z"/>
			<path d="M673.15,107.78v-0.61h28.58c7.27,0,13.01,0.54,17.23,1.63c4.21,1.09,7.88,2.8,11.01,5.14c3.13,2.34,5.61,5.33,7.44,8.98
				c1.83,3.64,2.75,7.71,2.75,12.2c0,4.33-0.95,8.59-2.85,12.77c-1.9,4.18-4.49,7.79-7.76,10.81c-3.27,3.03-6.71,5.1-10.34,6.21
				c-3.62,1.12-9.22,1.67-16.8,1.67h-29.25v-0.61h0.76c1.52,0,2.52-0.58,3-1.75c0.48-1.17,0.72-3.28,0.72-6.35v-43.25
				c0-3.22-0.29-5.17-0.87-5.84C676.19,108.12,674.98,107.78,673.15,107.78z M694.37,108.42h-9.55v46.11c0,2.9,0.51,5.06,1.54,6.47
				c1.03,1.41,2.78,2.43,5.26,3.07c2.48,0.63,5.82,0.95,10.02,0.95c11.67,0,19.86-2.86,24.58-8.57c4.72-5.71,7.08-11.95,7.08-18.7
				c0-7.93-3.23-14.8-9.7-20.61C717.14,111.33,707.39,108.42,694.37,108.42z"/>
			<path d="M746.33,107.86v-0.69h39.14v8.19h-0.63c-0.85-3.04-1.56-4.83-2.13-5.37c-0.58-0.54-1.99-0.81-4.25-0.81h-20.54v26.66
				h19.07c1.89,0,3.09-0.17,3.59-0.5c0.51-0.34,0.78-0.83,0.8-1.47H782v5.61h-0.63c-0.14-0.78-0.47-1.3-0.99-1.57
				c-0.52-0.27-1.49-0.4-2.9-0.4h-19.57v18.35c0,2.77,0.27,4.77,0.8,5.99c0.54,1.22,1.39,1.99,2.55,2.3
				c1.17,0.31,2.93,0.46,5.3,0.46h10.98c3.49,0,5.72-0.11,6.69-0.34c0.97-0.23,1.79-0.68,2.47-1.36c0.68-0.68,1.2-2.17,1.56-4.47
				h0.63v8.15h-42.57v-0.61c1.44-0.08,2.53-0.34,3.28-0.79c0.75-0.44,1.12-1.59,1.12-3.45v-47.97c0-2.18-0.2-3.71-0.59-4.59
				C749.74,108.3,748.47,107.86,746.33,107.86z"/>
			<path d="M793.25,107.78v-0.61h17.67c4.48,0,7.72,0.09,9.72,0.28c2,0.19,4.05,0.81,6.15,1.88c2.1,1.06,3.68,2.5,4.76,4.32
				c1.07,1.82,1.61,4.04,1.61,6.68c0,3.01-0.95,5.89-2.85,8.62c-1.9,2.73-4.59,5.04-8.05,6.92l4.4,6.45
				c0.96,1.61,3.5,5.15,7.63,10.6c4.13,5.45,7.32,8.78,9.58,9.98c2.25,1.2,4.44,1.8,6.55,1.8c2.09,0,4.48-0.77,7.19-2.3l0.25,0.81
				c-3.38,2.64-7.77,3.95-13.18,3.95c-3.6,0-6.7-1.02-9.29-3.05c-2.59-2.04-7.1-7.62-13.53-16.76c-0.06-0.05-0.08-0.11-0.08-0.16
				l-6.26-9.19l-5.55,0.16h-5.04v22.72c0,1.83,0.25,3.13,0.75,3.93s1.72,1.19,3.64,1.19v0.61h-16.06v-0.61
				c2-0.08,3.25-0.48,3.74-1.21c0.49-0.73,0.74-2.2,0.74-4.43v-47.2c0-1.53-0.21-2.8-0.63-3.81
				C796.67,108.32,795.39,107.81,793.25,107.78z M804.92,108.75v27.87h6.52c5.14,0,8.95-1.16,11.44-3.47
				c2.49-2.31,3.73-5.35,3.73-9.12c0-3.66-1.22-7.12-3.66-10.39c-2.44-3.27-6.74-4.9-12.9-4.9H804.92z"/>
		</g>
		<path d="M851.03,100.42c0.89,0.37,1.68,0.89,2.35,1.55c0.67,0.67,1.19,1.44,1.55,2.32c0.36,0.88,0.54,1.8,0.54,2.76
			c0,0.92-0.19,1.82-0.56,2.7c-0.37,0.88-0.92,1.68-1.63,2.39c-0.68,0.67-1.44,1.17-2.3,1.52c-0.86,0.35-1.79,0.52-2.81,0.52
			c-0.94,0-1.84-0.18-2.7-0.53c-0.86-0.36-1.64-0.87-2.34-1.55c-0.7-0.68-1.23-1.45-1.59-2.31c-0.36-0.86-0.54-1.78-0.54-2.75
			c0-0.96,0.18-1.87,0.54-2.73c0.36-0.86,0.88-1.64,1.57-2.34c0.68-0.68,1.46-1.2,2.35-1.56c0.89-0.36,1.82-0.54,2.79-0.54
			C849.21,99.87,850.14,100.05,851.03,100.42z M845.82,101.17c-0.78,0.33-1.47,0.79-2.08,1.39c-0.6,0.61-1.07,1.3-1.38,2.06
			c-0.32,0.76-0.48,1.57-0.48,2.42c0,1.75,0.63,3.25,1.88,4.48c1.24,1.22,2.73,1.83,4.47,1.83c0.87,0,1.68-0.15,2.44-0.46
			c0.75-0.31,1.43-0.76,2.04-1.38c0.62-0.63,1.09-1.32,1.4-2.09c0.32-0.76,0.47-1.56,0.47-2.4s-0.16-1.65-0.48-2.44
			c-0.32-0.79-0.78-1.48-1.37-2.06c-0.59-0.58-1.28-1.04-2.06-1.37c-0.78-0.33-1.59-0.49-2.41-0.49
			C847.41,100.68,846.6,100.84,845.82,101.17z M848.45,102.83c1.05,0,1.86,0.19,2.42,0.56c0.56,0.38,0.84,0.87,0.84,1.48
			c0,0.53-0.24,0.95-0.72,1.27c-0.48,0.32-1.22,0.57-2.24,0.75c0.65,0.19,1.13,0.46,1.47,0.78c0.33,0.33,0.57,0.78,0.73,1.37
			c0.06,0.21,0.1,0.4,0.12,0.58c0.02,0.18,0.05,0.34,0.09,0.49c0.03,0.15,0.09,0.26,0.16,0.34s0.19,0.13,0.36,0.13
			c0.46,0,0.7-0.45,0.7-1.35h0.44v0.13c0,1.21-0.55,1.81-1.65,1.81c-0.65,0-1.08-0.22-1.31-0.67c-0.09-0.18-0.14-0.36-0.17-0.55
			c-0.03-0.19-0.04-0.38-0.05-0.56c-0.01-0.19-0.01-0.36-0.02-0.53c-0.01-0.17-0.03-0.33-0.07-0.48c-0.27-0.9-0.98-1.35-2.13-1.35
			h-0.34v2.52c0,0.38,0.09,0.63,0.27,0.77c0.18,0.14,0.52,0.22,1.01,0.25v0.42h-3.97v-0.42c0.49-0.01,0.83-0.09,1.02-0.24
			c0.19-0.15,0.29-0.41,0.29-0.78v-5.25c0-0.39-0.1-0.65-0.29-0.78c-0.19-0.13-0.53-0.21-1.02-0.24v-0.44H848.45z M847.5,106.64
			c0.11,0,0.2,0,0.25,0c0.8,0,1.41-0.16,1.81-0.47c0.41-0.31,0.61-0.75,0.61-1.3c0-0.47-0.17-0.86-0.52-1.18
			c-0.34-0.31-0.85-0.47-1.51-0.47c-0.72,0-1.08,0.24-1.08,0.73v2.67C847.24,106.63,847.39,106.64,847.5,106.64z"/>
		<path d="M868.95,188.92c0.89,0.37,1.68,0.89,2.35,1.55c0.67,0.67,1.19,1.44,1.55,2.32c0.36,0.88,0.54,1.8,0.54,2.76
			c0,0.92-0.19,1.82-0.56,2.7c-0.37,0.88-0.92,1.68-1.63,2.39c-0.68,0.67-1.44,1.17-2.3,1.52c-0.86,0.35-1.79,0.52-2.81,0.52
			c-0.94,0-1.84-0.18-2.7-0.53c-0.86-0.36-1.64-0.87-2.34-1.55c-0.7-0.68-1.23-1.45-1.59-2.31c-0.36-0.86-0.54-1.78-0.54-2.75
			c0-0.96,0.18-1.87,0.54-2.73c0.36-0.86,0.88-1.64,1.57-2.34c0.68-0.68,1.46-1.2,2.35-1.56c0.89-0.36,1.82-0.54,2.79-0.54
			C867.13,188.37,868.05,188.55,868.95,188.92z M863.73,189.67c-0.78,0.33-1.47,0.79-2.08,1.39c-0.6,0.61-1.07,1.3-1.38,2.06
			c-0.32,0.76-0.48,1.57-0.48,2.42c0,1.75,0.63,3.25,1.88,4.48c1.24,1.22,2.73,1.83,4.47,1.83c0.87,0,1.68-0.15,2.44-0.46
			c0.75-0.31,1.43-0.76,2.04-1.38c0.62-0.63,1.09-1.32,1.4-2.09c0.32-0.76,0.47-1.56,0.47-2.4s-0.16-1.65-0.48-2.44
			c-0.32-0.79-0.78-1.48-1.37-2.06c-0.59-0.58-1.28-1.04-2.06-1.37c-0.78-0.33-1.59-0.49-2.41-0.49
			C865.33,189.18,864.52,189.34,863.73,189.67z M866.36,191.33c1.05,0,1.86,0.19,2.42,0.56s0.84,0.87,0.84,1.48
			c0,0.53-0.24,0.95-0.72,1.27c-0.48,0.32-1.22,0.57-2.24,0.75c0.65,0.19,1.13,0.46,1.47,0.78c0.33,0.33,0.57,0.78,0.73,1.37
			c0.06,0.21,0.1,0.4,0.12,0.58c0.02,0.18,0.05,0.34,0.09,0.49c0.03,0.15,0.09,0.26,0.16,0.34c0.07,0.08,0.19,0.13,0.36,0.13
			c0.46,0,0.7-0.45,0.7-1.35h0.44v0.13c0,1.21-0.55,1.81-1.65,1.81c-0.65,0-1.08-0.22-1.31-0.67c-0.09-0.18-0.14-0.36-0.17-0.55
			s-0.04-0.38-0.05-0.56s-0.01-0.36-0.02-0.53c-0.01-0.17-0.03-0.33-0.07-0.48c-0.27-0.9-0.98-1.35-2.13-1.35h-0.34v2.52
			c0,0.38,0.09,0.63,0.27,0.77c0.18,0.14,0.52,0.22,1.01,0.25v0.42h-3.97v-0.42c0.49-0.01,0.83-0.09,1.02-0.24
			c0.19-0.15,0.29-0.41,0.29-0.78v-5.25c0-0.39-0.1-0.65-0.29-0.78c-0.19-0.13-0.53-0.21-1.02-0.24v-0.44H866.36z M865.41,195.14
			c0.11,0,0.2,0,0.25,0c0.8,0,1.41-0.16,1.81-0.47c0.41-0.31,0.61-0.75,0.61-1.3c0-0.47-0.17-0.86-0.52-1.18
			c-0.34-0.31-0.85-0.47-1.51-0.47c-0.72,0-1.08,0.24-1.08,0.73v2.67C865.16,195.13,865.3,195.14,865.41,195.14z"/>
		<path d="M290.37,16.18c0.89,0.37,1.68,0.89,2.35,1.55c0.67,0.67,1.19,1.44,1.55,2.32c0.36,0.88,0.54,1.8,0.54,2.76
			c0,0.92-0.19,1.82-0.56,2.7c-0.37,0.88-0.92,1.68-1.63,2.39c-0.68,0.67-1.44,1.17-2.3,1.52c-0.86,0.35-1.79,0.52-2.81,0.52
			c-0.94,0-1.84-0.18-2.7-0.53c-0.86-0.36-1.64-0.87-2.34-1.55c-0.7-0.68-1.23-1.45-1.59-2.31c-0.36-0.86-0.54-1.78-0.54-2.75
			c0-0.96,0.18-1.87,0.54-2.73c0.36-0.86,0.88-1.64,1.57-2.34c0.68-0.68,1.46-1.2,2.35-1.56c0.89-0.36,1.82-0.54,2.79-0.54
			C288.55,15.63,289.47,15.81,290.37,16.18z M285.16,16.93c-0.78,0.33-1.47,0.79-2.08,1.39c-0.6,0.61-1.07,1.3-1.38,2.06
			s-0.48,1.57-0.48,2.42c0,1.75,0.63,3.25,1.88,4.48c1.24,1.22,2.73,1.83,4.47,1.83c0.87,0,1.68-0.15,2.44-0.46
			c0.75-0.31,1.43-0.76,2.04-1.38c0.62-0.63,1.09-1.32,1.4-2.09c0.32-0.76,0.47-1.56,0.47-2.4c0-0.83-0.16-1.65-0.48-2.44
			s-0.78-1.48-1.37-2.06c-0.59-0.58-1.28-1.04-2.06-1.37c-0.78-0.33-1.59-0.49-2.41-0.49C286.75,16.44,285.94,16.61,285.16,16.93z
			 M287.78,18.59c1.05,0,1.86,0.19,2.42,0.56c0.56,0.38,0.84,0.87,0.84,1.48c0,0.53-0.24,0.95-0.72,1.27
			c-0.48,0.32-1.22,0.57-2.24,0.75c0.65,0.19,1.13,0.46,1.47,0.78s0.57,0.78,0.73,1.37c0.06,0.21,0.1,0.4,0.12,0.58
			c0.02,0.18,0.05,0.34,0.09,0.49c0.03,0.15,0.09,0.26,0.16,0.34s0.19,0.13,0.36,0.13c0.46,0,0.7-0.45,0.7-1.35h0.44v0.13
			c0,1.21-0.55,1.81-1.65,1.81c-0.65,0-1.08-0.22-1.31-0.67c-0.09-0.18-0.14-0.36-0.17-0.55s-0.04-0.38-0.05-0.56
			c-0.01-0.19-0.01-0.36-0.02-0.53c-0.01-0.17-0.03-0.33-0.07-0.48c-0.27-0.9-0.98-1.35-2.13-1.35h-0.34v2.52
			c0,0.38,0.09,0.63,0.27,0.77c0.18,0.14,0.52,0.22,1.01,0.25v0.42h-3.97v-0.42c0.49-0.01,0.83-0.09,1.02-0.24s0.29-0.41,0.29-0.78
			v-5.25c0-0.39-0.1-0.65-0.29-0.78s-0.53-0.21-1.02-0.24v-0.44H287.78z M286.83,22.4c0.11,0,0.2,0,0.25,0
			c0.8,0,1.41-0.16,1.81-0.47c0.41-0.31,0.61-0.75,0.61-1.3c0-0.47-0.17-0.86-0.52-1.18c-0.34-0.31-0.85-0.47-1.51-0.47
			c-0.72,0-1.08,0.24-1.08,0.73v2.67C286.58,22.4,286.72,22.4,286.83,22.4z"/>
	</g>
	<g>
		<path d="M326.98,196.28c0.13,0,0.24,0.02,0.33,0.06c0.09,0.04,0.16,0.14,0.22,0.29l5.21,15.84c0.1,0.31,0.2,0.47,0.27,0.47
			c0.1,0,0.21-0.14,0.31-0.43l5.14-15.56c0.05-0.21,0.12-0.37,0.21-0.49c0.09-0.12,0.24-0.18,0.45-0.18h5.06
			c0.37,0,0.55,0.17,0.55,0.51c0,0.21-0.06,0.34-0.18,0.41c-0.12,0.06-0.27,0.11-0.45,0.14c-0.18,0.03-0.39,0.05-0.61,0.06
			c-0.22,0.01-0.45,0.07-0.69,0.18c-0.29,0.13-0.46,0.29-0.53,0.49c-0.07,0.19-0.1,0.55-0.1,1.07v0.93l0.43,17.06
			c0.03,0.7,0.07,1.21,0.14,1.52c0.06,0.31,0.31,0.56,0.73,0.74c0.23,0.1,0.47,0.16,0.71,0.17c0.23,0.01,0.44,0.03,0.61,0.04
			c0.17,0.01,0.31,0.06,0.41,0.14c0.1,0.08,0.16,0.23,0.16,0.47c0,0.16-0.07,0.29-0.22,0.41s-0.35,0.18-0.61,0.18
			c-0.42,0-0.92-0.05-1.51-0.14c-0.59-0.09-1.27-0.14-2.06-0.14c-0.86,0-1.61,0.05-2.25,0.14c-0.64,0.09-1.14,0.14-1.51,0.14
			c-0.52,0-0.78-0.21-0.78-0.63c0-0.39,0.2-0.59,0.59-0.59c0.5,0,0.88-0.04,1.16-0.12c0.27-0.08,0.48-0.21,0.63-0.41
			c0.14-0.2,0.23-0.45,0.26-0.76c0.03-0.31,0.04-0.7,0.04-1.17v-0.9l-0.27-14.41c0-0.29-0.07-0.43-0.2-0.43
			c-0.08,0-0.16,0.13-0.24,0.39l-5.76,17.64c-0.13,0.39-0.34,0.59-0.63,0.59c-0.34,0-0.55-0.16-0.63-0.47l-5.84-17.72
			c-0.13-0.34-0.22-0.51-0.27-0.51c-0.13,0-0.21,0.25-0.23,0.74l-0.67,11.92c-0.03,0.44-0.05,0.84-0.06,1.21
			c-0.01,0.36-0.02,0.69-0.02,0.97c0,1.22,0.1,2.11,0.31,2.67c0.21,0.56,0.69,0.84,1.45,0.84c0.08,0,0.16-0.01,0.24-0.02
			s0.17-0.02,0.27-0.02c0.5,0,0.74,0.2,0.74,0.59c0,0.42-0.33,0.63-0.98,0.63c-0.29,0-0.66-0.03-1.12-0.08s-0.99-0.08-1.59-0.08
			c-0.52,0-0.99,0.03-1.39,0.08c-0.41,0.05-0.75,0.08-1.04,0.08c-0.63,0-0.94-0.21-0.94-0.63c0-0.39,0.18-0.59,0.55-0.59
			c0.16,0,0.29,0.01,0.41,0.02c0.12,0.01,0.22,0.02,0.29,0.02c0.34,0,0.61-0.11,0.82-0.33c0.21-0.22,0.37-0.58,0.47-1.07
			c0.1-0.49,0.18-1.14,0.24-1.93c0.05-0.79,0.1-1.77,0.16-2.94l0.67-13.31c0-0.05,0.01-0.14,0.02-0.27c0.01-0.13,0.02-0.3,0.02-0.51
			c0-0.6-0.05-1.01-0.16-1.25c-0.1-0.23-0.34-0.42-0.71-0.55c-0.24-0.08-0.46-0.12-0.67-0.14c-0.21-0.01-0.39-0.03-0.55-0.04
			c-0.16-0.01-0.28-0.05-0.37-0.12c-0.09-0.06-0.14-0.2-0.14-0.41c0-0.34,0.18-0.51,0.55-0.51H326.98z"/>
		<path d="M352.03,217.88c0,0.47,0.04,0.82,0.14,1.06c0.09,0.23,0.26,0.42,0.49,0.55c0.21,0.1,0.41,0.17,0.61,0.2
			c0.2,0.03,0.37,0.06,0.51,0.1c0.14,0.04,0.26,0.1,0.35,0.18c0.09,0.08,0.14,0.21,0.14,0.39c0,0.42-0.23,0.63-0.71,0.63
			c-0.39,0-0.86-0.05-1.41-0.14c-0.55-0.09-1.13-0.14-1.75-0.14c-0.67,0-1.24,0.05-1.71,0.14c-0.47,0.09-0.85,0.14-1.13,0.14
			c-0.39,0-0.59-0.22-0.59-0.67c0-0.18,0.03-0.31,0.1-0.39c0.06-0.08,0.16-0.13,0.27-0.16c0.12-0.03,0.24-0.04,0.37-0.06
			c0.13-0.01,0.27-0.06,0.43-0.14c0.29-0.16,0.46-0.35,0.53-0.57c0.07-0.22,0.1-0.59,0.1-1.12v-9.25c0-0.71-0.09-1.18-0.26-1.41
			c-0.17-0.23-0.35-0.38-0.55-0.45c-0.2-0.07-0.38-0.1-0.55-0.12c-0.17-0.01-0.26-0.15-0.26-0.41c0-0.29,0.18-0.52,0.53-0.71
			c0.35-0.18,0.85-0.46,1.5-0.82c0.39-0.24,0.72-0.47,0.99-0.71c0.27-0.24,0.5-0.44,0.68-0.63c0.18-0.18,0.33-0.33,0.44-0.45
			c0.12-0.12,0.23-0.18,0.33-0.18c0.26,0,0.39,0.27,0.39,0.82V217.88z M351.79,196.71c0.34,0.44,0.51,0.94,0.51,1.49
			s-0.17,1.05-0.51,1.49c-0.34,0.44-0.74,0.67-1.21,0.67c-0.47,0-0.88-0.22-1.22-0.67c-0.34-0.44-0.51-0.94-0.51-1.49
			s0.17-1.04,0.51-1.49c0.34-0.44,0.74-0.67,1.22-0.67C351.05,196.04,351.45,196.27,351.79,196.71z"/>
		<path d="M370.26,212.86c0,1.2,0.07,2.25,0.22,3.16c0.14,0.9,0.4,1.66,0.78,2.27c0.38,0.61,0.89,1.08,1.55,1.39
			c0.65,0.31,1.5,0.47,2.55,0.47c2.09,0,3.62-0.69,4.59-2.08c0.47-0.71,0.75-1.54,0.84-2.51c0.09-0.97,0.14-2.13,0.14-3.49v-9.49
			c0-1.49-0.03-2.63-0.1-3.43c-0.07-0.8-0.27-1.34-0.61-1.63c-0.18-0.13-0.39-0.21-0.63-0.24c-0.24-0.03-0.46-0.05-0.69-0.08
			c-0.22-0.03-0.41-0.07-0.57-0.14c-0.16-0.07-0.24-0.2-0.24-0.41c0-0.37,0.22-0.55,0.67-0.55c0.24,0,0.57,0.02,1,0.06
			c0.43,0.04,0.99,0.06,1.67,0.06c0.71,0,1.28-0.02,1.73-0.06c0.44-0.04,0.77-0.06,0.98-0.06c0.55,0,0.82,0.18,0.82,0.55
			c0,0.24-0.09,0.39-0.27,0.45c-0.18,0.07-0.47,0.1-0.86,0.1c-0.42,0-0.74,0.09-0.96,0.27c-0.22,0.18-0.39,0.48-0.51,0.88
			c-0.12,0.41-0.19,0.95-0.22,1.63c-0.03,0.68-0.04,1.5-0.04,2.47v9.64c0,1.36-0.05,2.56-0.14,3.61c-0.09,1.05-0.4,2.01-0.92,2.9
			c-0.55,0.94-1.36,1.67-2.43,2.18c-1.07,0.51-2.37,0.76-3.88,0.76c-1.67,0-3.07-0.22-4.19-0.67c-1.12-0.44-2.03-1.16-2.7-2.16
			c-0.52-0.76-0.84-1.61-0.96-2.57c-0.12-0.95-0.18-2.03-0.18-3.23v-13.76c0-0.65-0.04-1.08-0.12-1.29
			c-0.08-0.21-0.33-0.38-0.74-0.51c-0.26-0.08-0.5-0.12-0.73-0.14c-0.22-0.01-0.41-0.03-0.57-0.04c-0.16-0.01-0.28-0.05-0.37-0.12
			c-0.09-0.07-0.14-0.2-0.14-0.41c0-0.37,0.2-0.55,0.59-0.55c0.21,0,0.63,0.05,1.25,0.16s1.5,0.16,2.63,0.16
			c1.12,0,2-0.05,2.63-0.16s1.04-0.16,1.25-0.16c0.39,0,0.59,0.18,0.59,0.55c0,0.21-0.05,0.35-0.16,0.43
			c-0.11,0.08-0.24,0.12-0.41,0.14c-0.17,0.01-0.37,0.02-0.61,0.02c-0.21,0-0.43,0.04-0.67,0.12c-0.39,0.13-0.63,0.31-0.73,0.53
			c-0.09,0.22-0.14,0.65-0.14,1.27V212.86z"/>
		<path d="M391.3,205.22c0,0.34,0.04,0.51,0.12,0.51c0.08,0,0.18-0.08,0.31-0.23l0.43-0.51c0.55-0.68,1.18-1.2,1.89-1.57
			c0.72-0.37,1.47-0.55,2.25-0.55c1.62,0,2.87,0.56,3.77,1.67c0.9,1.11,1.35,2.75,1.35,4.92v8.43c0,0.81,0.2,1.35,0.59,1.61
			c0.18,0.1,0.37,0.17,0.57,0.2c0.2,0.03,0.37,0.05,0.53,0.08c0.16,0.03,0.28,0.08,0.37,0.16c0.09,0.08,0.14,0.22,0.14,0.43
			c0,0.42-0.24,0.63-0.71,0.63c-0.37,0-0.81-0.05-1.33-0.14c-0.52-0.09-1.12-0.14-1.79-0.14c-0.67,0-1.25,0.05-1.73,0.14
			c-0.48,0.09-0.85,0.14-1.11,0.14c-0.42,0-0.63-0.22-0.63-0.67c0-0.18,0.03-0.31,0.1-0.39c0.07-0.08,0.16-0.13,0.27-0.16
			c0.12-0.03,0.25-0.04,0.39-0.06s0.29-0.06,0.45-0.14c0.31-0.16,0.5-0.36,0.55-0.61c0.05-0.25,0.08-0.61,0.08-1.08v-7.92
			c0-1.57-0.29-2.75-0.87-3.55c-0.58-0.8-1.41-1.2-2.48-1.2c-1,0-1.81,0.34-2.45,1.02c-0.63,0.68-0.95,1.72-0.95,3.14v8.51
			c0,0.44,0.03,0.79,0.1,1.04c0.07,0.25,0.23,0.44,0.49,0.57c0.23,0.13,0.44,0.2,0.63,0.22c0.18,0.01,0.35,0.03,0.49,0.06
			c0.14,0.03,0.26,0.08,0.33,0.16c0.08,0.08,0.12,0.24,0.12,0.47c0,0.39-0.23,0.59-0.71,0.59c-0.37,0-0.81-0.05-1.33-0.14
			c-0.52-0.09-1.1-0.14-1.75-0.14c-0.67,0-1.24,0.05-1.71,0.14c-0.47,0.09-0.85,0.14-1.13,0.14c-0.42,0-0.63-0.22-0.63-0.67
			c0-0.18,0.03-0.31,0.1-0.39c0.07-0.08,0.15-0.13,0.26-0.16c0.1-0.03,0.23-0.04,0.37-0.06c0.14-0.01,0.29-0.06,0.45-0.14
			c0.29-0.13,0.47-0.31,0.55-0.55c0.08-0.24,0.12-0.61,0.12-1.14v-9.25c0-0.71-0.09-1.18-0.26-1.41c-0.17-0.23-0.36-0.38-0.57-0.43
			c-0.21-0.05-0.4-0.09-0.57-0.1c-0.17-0.01-0.26-0.15-0.26-0.41c0-0.26,0.17-0.49,0.51-0.69c0.34-0.2,0.84-0.49,1.49-0.88
			c0.76-0.44,1.29-0.88,1.6-1.29c0.31-0.42,0.59-0.63,0.82-0.63c0.08,0,0.15,0.07,0.23,0.2c0.08,0.13,0.12,0.34,0.12,0.63V205.22z"
			/>
		<path d="M409.97,217.88c0,0.47,0.04,0.82,0.14,1.06c0.09,0.23,0.26,0.42,0.49,0.55c0.21,0.1,0.41,0.17,0.61,0.2
			c0.2,0.03,0.37,0.06,0.51,0.1c0.14,0.04,0.26,0.1,0.35,0.18c0.09,0.08,0.14,0.21,0.14,0.39c0,0.42-0.23,0.63-0.71,0.63
			c-0.39,0-0.86-0.05-1.41-0.14c-0.55-0.09-1.13-0.14-1.75-0.14c-0.67,0-1.24,0.05-1.71,0.14s-0.85,0.14-1.13,0.14
			c-0.39,0-0.59-0.22-0.59-0.67c0-0.18,0.03-0.31,0.1-0.39c0.06-0.08,0.16-0.13,0.27-0.16c0.12-0.03,0.24-0.04,0.37-0.06
			c0.13-0.01,0.27-0.06,0.43-0.14c0.29-0.16,0.46-0.35,0.53-0.57c0.07-0.22,0.1-0.59,0.1-1.12v-9.25c0-0.71-0.09-1.18-0.26-1.41
			c-0.17-0.23-0.35-0.38-0.55-0.45c-0.2-0.07-0.38-0.1-0.55-0.12c-0.17-0.01-0.26-0.15-0.26-0.41c0-0.29,0.18-0.52,0.53-0.71
			c0.35-0.18,0.85-0.46,1.5-0.82c0.39-0.24,0.72-0.47,0.99-0.71c0.27-0.24,0.5-0.44,0.68-0.63c0.18-0.18,0.33-0.33,0.44-0.45
			c0.12-0.12,0.23-0.18,0.33-0.18c0.26,0,0.39,0.27,0.39,0.82V217.88z M409.73,196.71c0.34,0.44,0.51,0.94,0.51,1.49
			s-0.17,1.05-0.51,1.49c-0.34,0.44-0.74,0.67-1.21,0.67c-0.47,0-0.88-0.22-1.22-0.67c-0.34-0.44-0.51-0.94-0.51-1.49
			s0.17-1.04,0.51-1.49c0.34-0.44,0.74-0.67,1.22-0.67C408.99,196.04,409.39,196.27,409.73,196.71z"/>
		<path d="M420.67,215.45c0.03,0.16,0.1,0.23,0.23,0.23c0.08,0,0.14-0.08,0.2-0.23l2.43-7.29c0.18-0.55,0.31-1.02,0.37-1.41
			c0.07-0.39,0.1-0.68,0.1-0.86c0-0.42-0.12-0.7-0.37-0.84c-0.25-0.14-0.52-0.25-0.8-0.31c-0.29-0.07-0.56-0.12-0.8-0.18
			c-0.25-0.05-0.37-0.21-0.37-0.47c0-0.24,0.05-0.38,0.14-0.43c0.09-0.05,0.27-0.08,0.53-0.08c0.21,0,0.57,0.03,1.1,0.08
			c0.52,0.05,1.19,0.08,2,0.08c0.68,0,1.2-0.02,1.55-0.06c0.35-0.04,0.58-0.06,0.69-0.06c0.23,0,0.39,0.03,0.45,0.08
			c0.07,0.05,0.1,0.18,0.1,0.39c0,0.37-0.13,0.55-0.39,0.55c-0.26,0-0.55,0.07-0.86,0.2c-0.44,0.18-0.8,0.51-1.08,0.98
			c-0.27,0.47-0.59,1.19-0.96,2.15l-4.55,12.48c-0.21,0.57-0.46,0.86-0.74,0.86c-0.24,0-0.38-0.08-0.43-0.23
			c-0.05-0.16-0.13-0.38-0.24-0.67l-4.27-13.14c-0.26-0.81-0.54-1.39-0.84-1.74c-0.3-0.35-0.58-0.59-0.84-0.72
			c-0.26-0.13-0.48-0.22-0.65-0.27c-0.17-0.05-0.25-0.2-0.25-0.43c0-0.34,0.18-0.51,0.55-0.51c0.18,0,0.52,0.04,1.02,0.12
			c0.5,0.08,1.18,0.12,2.04,0.12c1.1,0,1.93-0.03,2.51-0.1c0.57-0.06,0.93-0.1,1.06-0.1c0.31,0,0.47,0.14,0.47,0.43
			c0,0.23-0.1,0.39-0.29,0.45c-0.2,0.07-0.41,0.12-0.65,0.18c-0.23,0.05-0.45,0.13-0.65,0.24c-0.2,0.1-0.29,0.3-0.29,0.59
			c0,0.18,0.03,0.48,0.1,0.88c0.07,0.41,0.19,0.91,0.37,1.51L420.67,215.45z"/>
		<path d="M431.96,209.77c-0.21,0-0.34,0.04-0.39,0.12c-0.05,0.08-0.08,0.25-0.08,0.51v0.94c0,2.43,0.52,4.35,1.55,5.76
			c1.03,1.41,2.37,2.12,4.02,2.12c0.73,0,1.37-0.12,1.9-0.35c0.54-0.24,0.98-0.5,1.33-0.78c0.35-0.29,0.63-0.55,0.82-0.78
			c0.2-0.24,0.33-0.35,0.41-0.35c0.21,0,0.31,0.14,0.31,0.43c0,0.29-0.16,0.67-0.47,1.14c-0.31,0.47-0.76,0.93-1.35,1.39
			c-0.59,0.46-1.29,0.86-2.1,1.2c-0.81,0.34-1.73,0.51-2.74,0.51c-1.07,0-2.05-0.22-2.92-0.65c-0.88-0.43-1.63-1.05-2.25-1.86
			c-0.63-0.81-1.11-1.79-1.45-2.94c-0.34-1.15-0.51-2.44-0.51-3.88s0.19-2.74,0.57-3.9c0.38-1.16,0.91-2.15,1.59-2.96
			c0.68-0.81,1.48-1.44,2.41-1.88c0.93-0.44,1.94-0.67,3.04-0.67c0.94,0,1.8,0.16,2.59,0.49s1.45,0.76,2,1.31
			c0.55,0.55,0.97,1.19,1.27,1.92c0.3,0.73,0.45,1.52,0.45,2.35c0,0.34-0.1,0.56-0.31,0.67c-0.21,0.1-0.55,0.16-1.02,0.16H431.96z
			 M437.62,208.12c0.59-0.29,0.88-0.86,0.88-1.73c0-0.65-0.27-1.25-0.8-1.8c-0.54-0.55-1.22-0.82-2.06-0.82
			c-0.92,0-1.71,0.35-2.39,1.06c-0.68,0.71-1.12,1.59-1.33,2.67l-0.12,0.63v0.08c0,0.24,0.16,0.35,0.47,0.35h2.55
			C436.1,208.55,437.04,208.41,437.62,208.12z"/>
		<path d="M448.94,205.1c0,0.24,0.04,0.35,0.12,0.35c0.05,0,0.17-0.09,0.35-0.27l0.78-0.86c0.84-0.99,1.72-1.49,2.67-1.49
			c0.71,0,1.31,0.26,1.8,0.78c0.5,0.52,0.74,1.18,0.74,1.96c0,0.57-0.18,1.04-0.53,1.41c-0.35,0.37-0.78,0.55-1.27,0.55
			c-0.39,0-0.73-0.1-1.02-0.29c-0.29-0.2-0.55-0.41-0.78-0.65c-0.24-0.24-0.46-0.45-0.67-0.65c-0.21-0.2-0.42-0.29-0.63-0.29
			c-0.97,0-1.45,1.23-1.45,3.69v8.51c0,0.44,0.05,0.78,0.16,1c0.1,0.22,0.31,0.4,0.63,0.53c0.31,0.16,0.6,0.26,0.86,0.29
			c0.26,0.04,0.48,0.08,0.65,0.12c0.17,0.04,0.31,0.1,0.41,0.18c0.1,0.08,0.16,0.22,0.16,0.43c0,0.16-0.07,0.29-0.21,0.41
			c-0.14,0.12-0.36,0.18-0.65,0.18c-0.52,0-1.09-0.05-1.7-0.14s-1.25-0.14-1.92-0.14c-0.62,0-1.2,0.04-1.73,0.12
			c-0.53,0.08-1.01,0.12-1.43,0.12c-0.47,0-0.71-0.21-0.71-0.63c0-0.18,0.04-0.31,0.12-0.37c0.08-0.06,0.18-0.12,0.31-0.16
			c0.13-0.04,0.29-0.07,0.47-0.1c0.18-0.03,0.38-0.09,0.59-0.2c0.37-0.18,0.58-0.37,0.65-0.57c0.07-0.2,0.1-0.48,0.1-0.84v-10.04
			c0-0.47-0.09-0.78-0.26-0.94c-0.17-0.16-0.35-0.26-0.55-0.31c-0.2-0.05-0.38-0.1-0.55-0.14s-0.26-0.18-0.26-0.41
			c0-0.29,0.17-0.5,0.51-0.65c0.34-0.14,0.78-0.4,1.33-0.76c0.75-0.52,1.3-1,1.65-1.43c0.35-0.43,0.64-0.65,0.87-0.65
			c0.26,0,0.39,0.27,0.39,0.82V205.1z"/>
		<path d="M465.2,203.37c0.6,0.34,0.9,0.85,0.9,1.53c0,0.92-0.04,1.59-0.12,2.02c-0.08,0.43-0.25,0.65-0.51,0.65
			c-0.29,0-0.46-0.18-0.51-0.55c-0.05-0.37-0.23-0.82-0.55-1.37c-0.65-1.12-1.52-1.68-2.59-1.68c-0.76,0-1.37,0.21-1.82,0.64
			c-0.46,0.43-0.69,0.98-0.69,1.66c0,0.44,0.09,0.81,0.27,1.11c0.18,0.3,0.44,0.58,0.78,0.84c0.34,0.26,0.75,0.51,1.23,0.76
			c0.48,0.25,1.03,0.53,1.63,0.84c1.28,0.68,2.22,1.44,2.82,2.28c0.6,0.85,0.9,1.91,0.9,3.18c0,0.99-0.15,1.87-0.45,2.65
			c-0.3,0.78-0.73,1.44-1.27,1.97s-1.2,0.94-1.94,1.23c-0.74,0.29-1.56,0.43-2.45,0.43c-0.89,0-1.69-0.1-2.39-0.29
			c-0.71-0.2-1.24-0.41-1.61-0.65c-0.24-0.13-0.38-0.3-0.43-0.51c-0.05-0.21-0.08-0.5-0.08-0.86v-0.98c0-1.07,0.03-1.85,0.08-2.33
			c0.05-0.48,0.22-0.73,0.51-0.73c0.18,0,0.31,0.07,0.39,0.2s0.15,0.32,0.22,0.57c0.06,0.25,0.14,0.55,0.23,0.9
			c0.09,0.35,0.24,0.75,0.45,1.2c0.73,1.59,1.78,2.39,3.14,2.39c0.84,0,1.52-0.29,2.06-0.86s0.8-1.35,0.8-2.31
			c0-0.5-0.09-0.93-0.25-1.31c-0.17-0.38-0.42-0.72-0.74-1.02c-0.33-0.3-0.73-0.59-1.2-0.86c-0.47-0.27-0.99-0.57-1.57-0.88
			c-0.65-0.34-1.23-0.67-1.73-1c-0.5-0.33-0.92-0.68-1.25-1.06c-0.34-0.38-0.6-0.81-0.76-1.29c-0.17-0.48-0.26-1.05-0.26-1.7
			c0-1.62,0.5-2.91,1.51-3.86c1.01-0.95,2.29-1.43,3.86-1.43C463.48,202.86,464.6,203.03,465.2,203.37z"/>
		<path d="M474.06,217.88c0,0.47,0.04,0.82,0.14,1.06c0.09,0.23,0.26,0.42,0.49,0.55c0.21,0.1,0.41,0.17,0.61,0.2
			c0.2,0.03,0.37,0.06,0.51,0.1c0.14,0.04,0.26,0.1,0.35,0.18c0.09,0.08,0.14,0.21,0.14,0.39c0,0.42-0.23,0.63-0.71,0.63
			c-0.39,0-0.86-0.05-1.41-0.14c-0.55-0.09-1.13-0.14-1.75-0.14c-0.67,0-1.24,0.05-1.71,0.14s-0.85,0.14-1.13,0.14
			c-0.39,0-0.59-0.22-0.59-0.67c0-0.18,0.03-0.31,0.1-0.39c0.06-0.08,0.16-0.13,0.27-0.16c0.12-0.03,0.24-0.04,0.37-0.06
			c0.13-0.01,0.27-0.06,0.43-0.14c0.29-0.16,0.46-0.35,0.53-0.57c0.07-0.22,0.1-0.59,0.1-1.12v-9.25c0-0.71-0.09-1.18-0.26-1.41
			c-0.17-0.23-0.35-0.38-0.55-0.45c-0.2-0.07-0.38-0.1-0.55-0.12c-0.17-0.01-0.26-0.15-0.26-0.41c0-0.29,0.18-0.52,0.53-0.71
			c0.35-0.18,0.85-0.46,1.5-0.82c0.39-0.24,0.72-0.47,0.99-0.71c0.27-0.24,0.5-0.44,0.68-0.63c0.18-0.18,0.33-0.33,0.44-0.45
			c0.12-0.12,0.23-0.18,0.33-0.18c0.26,0,0.39,0.27,0.39,0.82V217.88z M473.83,196.71c0.34,0.44,0.51,0.94,0.51,1.49
			s-0.17,1.05-0.51,1.49c-0.34,0.44-0.74,0.67-1.21,0.67c-0.47,0-0.88-0.22-1.22-0.67c-0.34-0.44-0.51-0.94-0.51-1.49
			s0.17-1.04,0.51-1.49c0.34-0.44,0.74-0.67,1.22-0.67C473.08,196.04,473.49,196.27,473.83,196.71z"/>
		<path d="M492.37,217.29c0,1.05,0.18,1.57,0.55,1.57c0.26,0,0.49-0.12,0.69-0.37c0.2-0.25,0.36-0.37,0.49-0.37
			c0.05,0,0.12,0.06,0.2,0.18c0.08,0.12,0.12,0.28,0.12,0.49c0,0.44-0.09,0.73-0.27,0.84s-0.42,0.23-0.71,0.33
			c-0.96,0.34-1.72,0.68-2.28,1.02c-0.56,0.34-0.94,0.51-1.14,0.51c-0.13,0-0.24-0.09-0.33-0.26c-0.09-0.17-0.16-0.37-0.21-0.59
			c-0.05-0.22-0.1-0.42-0.15-0.59c-0.05-0.17-0.12-0.26-0.19-0.26c-0.05,0-0.18,0.09-0.39,0.27c-0.21,0.18-0.49,0.39-0.84,0.61
			c-0.35,0.22-0.78,0.42-1.27,0.61c-0.5,0.18-1.07,0.27-1.73,0.27c-0.99,0-1.92-0.22-2.78-0.65c-0.86-0.43-1.63-1.04-2.29-1.82
			c-0.67-0.78-1.19-1.73-1.57-2.84c-0.38-1.11-0.57-2.36-0.57-3.74c0-1.41,0.21-2.71,0.65-3.9c0.43-1.19,1.01-2.21,1.72-3.06
			s1.56-1.51,2.53-1.98c0.97-0.47,2-0.71,3.1-0.71c0.52,0,1.02,0.05,1.49,0.14c0.47,0.09,0.85,0.19,1.14,0.29l0.51,0.2h0.08
			c0.16,0,0.23-0.2,0.23-0.59v-5.17c0-0.34-0.09-0.59-0.27-0.74c-0.18-0.16-0.38-0.28-0.59-0.37c-0.21-0.09-0.41-0.18-0.59-0.25
			c-0.18-0.08-0.27-0.2-0.27-0.35c0-0.29,0.18-0.48,0.53-0.57c0.35-0.09,0.78-0.23,1.27-0.41c0.9-0.34,1.57-0.66,1.99-0.96
			c0.43-0.3,0.7-0.45,0.83-0.45c0.21,0,0.34,0.07,0.39,0.2c0.05,0.13,0.08,0.31,0.08,0.55c0,0.37-0.02,0.77-0.06,1.22
			c-0.04,0.44-0.06,0.93-0.06,1.45V217.29z M489.06,207.4c-0.04-0.72-0.16-1.34-0.35-1.85c-0.2-0.51-0.49-0.9-0.88-1.18
			c-0.39-0.27-0.94-0.41-1.65-0.41c-0.68,0-1.31,0.2-1.9,0.59c-0.59,0.39-1.11,0.95-1.57,1.67c-0.46,0.72-0.82,1.61-1.08,2.65
			c-0.26,1.05-0.39,2.21-0.39,3.5c0,2.33,0.5,4.15,1.49,5.44c0.99,1.3,2.35,1.94,4.08,1.94c0.55,0,0.98-0.07,1.29-0.22
			c0.31-0.14,0.55-0.36,0.71-0.65c0.16-0.29,0.25-0.63,0.27-1.02c0.03-0.39,0.04-0.85,0.04-1.38v-6.64
			C489.11,208.94,489.1,208.12,489.06,207.4z"/>
		<path d="M507.23,216.43c0,0.84,0.05,1.46,0.16,1.88c0.1,0.42,0.38,0.63,0.82,0.63c0.29,0,0.55-0.13,0.78-0.39
			c0.24-0.26,0.47-0.39,0.71-0.39c0.31,0,0.47,0.2,0.47,0.59c0,0.21-0.12,0.46-0.35,0.76c-0.23,0.3-0.52,0.59-0.84,0.88
			c-0.33,0.29-0.68,0.53-1.06,0.74c-0.38,0.21-0.73,0.31-1.04,0.31c-0.68,0-1.25-0.22-1.69-0.67c-0.45-0.44-0.81-1.11-1.1-2h-0.24
			l-0.83,0.71c-0.68,0.57-1.33,1.07-1.93,1.47s-1.27,0.61-2.01,0.61c-0.84,0-1.51-0.28-2.03-0.84c-0.51-0.56-0.77-1.34-0.77-2.33
			c0-0.86,0.14-1.62,0.43-2.27c0.29-0.65,0.71-1.25,1.26-1.78c0.55-0.54,1.21-1.04,1.99-1.51c0.77-0.47,1.63-0.94,2.58-1.41
			l0.98-0.51c0.21-0.1,0.33-0.22,0.37-0.33c0.04-0.12,0.06-0.32,0.06-0.61v-2.78c0-1.1-0.09-1.89-0.26-2.39s-0.6-0.74-1.28-0.74
			c-0.68,0-1.22,0.23-1.61,0.69c-0.39,0.46-0.77,1.1-1.14,1.94c-0.29,0.65-0.61,1.21-0.96,1.67c-0.35,0.46-0.92,0.69-1.71,0.69
			c-0.21,0-0.39-0.07-0.53-0.2c-0.15-0.13-0.22-0.3-0.22-0.51c0-0.57,0.18-1.19,0.53-1.84c0.35-0.65,0.85-1.25,1.5-1.78
			c0.64-0.54,1.4-0.98,2.28-1.33c0.88-0.35,1.83-0.53,2.85-0.53c0.84,0,1.51,0.1,2.03,0.29c0.51,0.2,0.9,0.48,1.16,0.86
			c0.26,0.38,0.43,0.85,0.51,1.41c0.08,0.56,0.12,1.21,0.12,1.94V216.43z M503.78,212c-0.08,0-0.21,0.05-0.39,0.16l-1.29,0.63
			c-1.54,0.78-2.31,2.09-2.31,3.92c0,0.76,0.14,1.33,0.41,1.72c0.27,0.39,0.63,0.59,1.08,0.59c0.31,0,0.63-0.09,0.94-0.26
			c0.31-0.17,0.6-0.4,0.86-0.71c0.26-0.3,0.48-0.66,0.65-1.08c0.17-0.42,0.25-0.89,0.25-1.41v-3.1
			C503.97,212.16,503.91,212,503.78,212z"/>
		<path d="M525.69,217.29c0,1.05,0.18,1.57,0.55,1.57c0.26,0,0.49-0.12,0.69-0.37c0.2-0.25,0.36-0.37,0.49-0.37
			c0.05,0,0.12,0.06,0.2,0.18c0.08,0.12,0.12,0.28,0.12,0.49c0,0.44-0.09,0.73-0.27,0.84s-0.42,0.23-0.71,0.33
			c-0.96,0.34-1.72,0.68-2.28,1.02c-0.56,0.34-0.94,0.51-1.14,0.51c-0.13,0-0.24-0.09-0.33-0.26c-0.09-0.17-0.16-0.37-0.21-0.59
			c-0.05-0.22-0.1-0.42-0.15-0.59c-0.05-0.17-0.12-0.26-0.19-0.26c-0.05,0-0.18,0.09-0.39,0.27c-0.21,0.18-0.49,0.39-0.84,0.61
			c-0.35,0.22-0.78,0.42-1.27,0.61c-0.5,0.18-1.07,0.27-1.73,0.27c-0.99,0-1.92-0.22-2.78-0.65c-0.86-0.43-1.63-1.04-2.29-1.82
			c-0.67-0.78-1.19-1.73-1.57-2.84c-0.38-1.11-0.57-2.36-0.57-3.74c0-1.41,0.21-2.71,0.65-3.9c0.43-1.19,1.01-2.21,1.72-3.06
			c0.72-0.85,1.56-1.51,2.53-1.98c0.97-0.47,2-0.71,3.1-0.71c0.52,0,1.02,0.05,1.49,0.14c0.47,0.09,0.85,0.19,1.14,0.29l0.51,0.2
			h0.08c0.16,0,0.23-0.2,0.23-0.59v-5.17c0-0.34-0.09-0.59-0.27-0.74c-0.18-0.16-0.38-0.28-0.59-0.37
			c-0.21-0.09-0.41-0.18-0.59-0.25c-0.18-0.08-0.27-0.2-0.27-0.35c0-0.29,0.18-0.48,0.53-0.57c0.35-0.09,0.78-0.23,1.27-0.41
			c0.9-0.34,1.57-0.66,1.99-0.96c0.43-0.3,0.7-0.45,0.83-0.45c0.21,0,0.34,0.07,0.39,0.2c0.05,0.13,0.08,0.31,0.08,0.55
			c0,0.37-0.02,0.77-0.06,1.22c-0.04,0.44-0.06,0.93-0.06,1.45V217.29z M522.38,207.4c-0.04-0.72-0.16-1.34-0.35-1.85
			c-0.2-0.51-0.49-0.9-0.88-1.18c-0.39-0.27-0.94-0.41-1.65-0.41c-0.68,0-1.31,0.2-1.9,0.59c-0.59,0.39-1.11,0.95-1.57,1.67
			c-0.46,0.72-0.82,1.61-1.08,2.65c-0.26,1.05-0.39,2.21-0.39,3.5c0,2.33,0.5,4.15,1.49,5.44c0.99,1.3,2.35,1.94,4.08,1.94
			c0.55,0,0.98-0.07,1.29-0.22c0.31-0.14,0.55-0.36,0.71-0.65c0.16-0.29,0.25-0.63,0.27-1.02c0.03-0.39,0.04-0.85,0.04-1.38v-6.64
			C522.44,208.94,522.42,208.12,522.38,207.4z"/>
		<path d="M533.9,217.64c0.35,0.39,0.53,0.89,0.53,1.49c0,0.6-0.18,1.1-0.53,1.49c-0.35,0.39-0.75,0.59-1.2,0.59
			c-0.45,0-0.84-0.2-1.2-0.59c-0.35-0.39-0.53-0.89-0.53-1.49c0-0.6,0.18-1.1,0.53-1.49c0.35-0.39,0.75-0.59,1.2-0.59
			C533.15,217.06,533.55,217.25,533.9,217.64z"/>
		<path d="M552.7,196.28c0.13,0,0.24,0.02,0.33,0.06c0.09,0.04,0.16,0.14,0.22,0.29l5.21,15.84c0.1,0.31,0.2,0.47,0.27,0.47
			c0.1,0,0.21-0.14,0.31-0.43l5.14-15.56c0.05-0.21,0.12-0.37,0.21-0.49c0.09-0.12,0.24-0.18,0.45-0.18h5.06
			c0.37,0,0.55,0.17,0.55,0.51c0,0.21-0.06,0.34-0.18,0.41c-0.12,0.06-0.27,0.11-0.45,0.14c-0.18,0.03-0.39,0.05-0.61,0.06
			c-0.22,0.01-0.45,0.07-0.69,0.18c-0.29,0.13-0.46,0.29-0.53,0.49c-0.07,0.19-0.1,0.55-0.1,1.07v0.93l0.43,17.06
			c0.03,0.7,0.07,1.21,0.14,1.52c0.06,0.31,0.31,0.56,0.73,0.74c0.23,0.1,0.47,0.16,0.71,0.17c0.23,0.01,0.44,0.03,0.61,0.04
			c0.17,0.01,0.31,0.06,0.41,0.14c0.1,0.08,0.16,0.23,0.16,0.47c0,0.16-0.07,0.29-0.22,0.41s-0.35,0.18-0.61,0.18
			c-0.42,0-0.92-0.05-1.51-0.14c-0.59-0.09-1.27-0.14-2.06-0.14c-0.86,0-1.61,0.05-2.25,0.14c-0.64,0.09-1.14,0.14-1.51,0.14
			c-0.52,0-0.78-0.21-0.78-0.63c0-0.39,0.2-0.59,0.59-0.59c0.5,0,0.88-0.04,1.16-0.12c0.27-0.08,0.48-0.21,0.63-0.41
			c0.14-0.2,0.23-0.45,0.26-0.76c0.03-0.31,0.04-0.7,0.04-1.17v-0.9l-0.27-14.41c0-0.29-0.07-0.43-0.2-0.43
			c-0.08,0-0.16,0.13-0.24,0.39l-5.76,17.64c-0.13,0.39-0.34,0.59-0.63,0.59c-0.34,0-0.55-0.16-0.63-0.47l-5.84-17.72
			c-0.13-0.34-0.22-0.51-0.27-0.51c-0.13,0-0.21,0.25-0.23,0.74l-0.67,11.92c-0.03,0.44-0.05,0.84-0.06,1.21
			c-0.01,0.36-0.02,0.69-0.02,0.97c0,1.22,0.1,2.11,0.31,2.67c0.21,0.56,0.69,0.84,1.45,0.84c0.08,0,0.16-0.01,0.24-0.02
			c0.08-0.01,0.17-0.02,0.27-0.02c0.5,0,0.74,0.2,0.74,0.59c0,0.42-0.33,0.63-0.98,0.63c-0.29,0-0.66-0.03-1.12-0.08
			s-0.99-0.08-1.59-0.08c-0.52,0-0.99,0.03-1.39,0.08c-0.41,0.05-0.75,0.08-1.04,0.08c-0.63,0-0.94-0.21-0.94-0.63
			c0-0.39,0.18-0.59,0.55-0.59c0.16,0,0.29,0.01,0.41,0.02s0.22,0.02,0.29,0.02c0.34,0,0.61-0.11,0.82-0.33
			c0.21-0.22,0.37-0.58,0.47-1.07c0.1-0.49,0.18-1.14,0.24-1.93c0.05-0.79,0.1-1.77,0.16-2.94l0.67-13.31
			c0-0.05,0.01-0.14,0.02-0.27c0.01-0.13,0.02-0.3,0.02-0.51c0-0.6-0.05-1.01-0.16-1.25c-0.1-0.23-0.34-0.42-0.71-0.55
			c-0.24-0.08-0.46-0.12-0.67-0.14c-0.21-0.01-0.39-0.03-0.55-0.04c-0.16-0.01-0.28-0.05-0.37-0.12c-0.09-0.06-0.14-0.2-0.14-0.41
			c0-0.34,0.18-0.51,0.55-0.51H552.7z"/>
		<path d="M577.75,217.88c0,0.47,0.04,0.82,0.14,1.06c0.09,0.23,0.26,0.42,0.49,0.55c0.21,0.1,0.41,0.17,0.61,0.2
			c0.2,0.03,0.37,0.06,0.51,0.1c0.14,0.04,0.26,0.1,0.35,0.18c0.09,0.08,0.14,0.21,0.14,0.39c0,0.42-0.23,0.63-0.71,0.63
			c-0.39,0-0.86-0.05-1.41-0.14s-1.13-0.14-1.75-0.14c-0.67,0-1.24,0.05-1.71,0.14c-0.47,0.09-0.85,0.14-1.13,0.14
			c-0.39,0-0.59-0.22-0.59-0.67c0-0.18,0.03-0.31,0.1-0.39c0.06-0.08,0.16-0.13,0.27-0.16c0.12-0.03,0.24-0.04,0.37-0.06
			c0.13-0.01,0.27-0.06,0.43-0.14c0.29-0.16,0.46-0.35,0.53-0.57c0.07-0.22,0.1-0.59,0.1-1.12v-9.25c0-0.71-0.09-1.18-0.26-1.41
			c-0.17-0.23-0.35-0.38-0.55-0.45c-0.2-0.07-0.38-0.1-0.55-0.12c-0.17-0.01-0.26-0.15-0.26-0.41c0-0.29,0.18-0.52,0.53-0.71
			c0.35-0.18,0.85-0.46,1.5-0.82c0.39-0.24,0.72-0.47,0.99-0.71c0.27-0.24,0.5-0.44,0.68-0.63c0.18-0.18,0.33-0.33,0.45-0.45
			c0.12-0.12,0.23-0.18,0.33-0.18c0.26,0,0.39,0.27,0.39,0.82V217.88z M577.51,196.71c0.34,0.44,0.51,0.94,0.51,1.49
			s-0.17,1.05-0.51,1.49c-0.34,0.44-0.74,0.67-1.21,0.67c-0.47,0-0.88-0.22-1.22-0.67c-0.34-0.44-0.51-0.94-0.51-1.49
			s0.17-1.04,0.51-1.49c0.34-0.44,0.74-0.67,1.22-0.67C576.77,196.04,577.17,196.27,577.51,196.71z"/>
		<path d="M605.43,200.83c0,0.65-0.14,0.98-0.43,0.98c-0.18,0-0.32-0.09-0.41-0.27c-0.09-0.18-0.19-0.42-0.29-0.71
			c-0.1-0.29-0.25-0.61-0.43-0.96c-0.18-0.35-0.44-0.69-0.78-1c-1.07-0.99-2.67-1.49-4.78-1.49c-0.52,0-0.93,0.04-1.21,0.12
			c-0.29,0.08-0.5,0.21-0.65,0.39c-0.14,0.18-0.23,0.43-0.27,0.73c-0.04,0.3-0.06,0.69-0.06,1.16v6.47c0,0.34,0.03,0.56,0.08,0.65
			c0.05,0.09,0.26,0.14,0.63,0.14h1.76c0.81,0,1.52-0.07,2.12-0.22c0.6-0.14,0.99-0.31,1.18-0.49c0.26-0.26,0.44-0.53,0.55-0.8
			c0.1-0.27,0.18-0.53,0.24-0.76c0.05-0.24,0.11-0.43,0.18-0.59c0.07-0.16,0.2-0.24,0.41-0.24c0.31,0,0.47,0.18,0.47,0.55
			c0,0.5-0.03,1.07-0.1,1.73c-0.07,0.65-0.1,1.37-0.1,2.16c0,0.92,0.02,1.65,0.06,2.21c0.04,0.56,0.06,0.94,0.06,1.12
			c0,0.47-0.16,0.71-0.47,0.71c-0.16,0-0.28-0.07-0.37-0.22c-0.09-0.14-0.17-0.34-0.24-0.59c-0.07-0.25-0.15-0.54-0.26-0.86
			c-0.1-0.33-0.26-0.69-0.47-1.08c-0.31-0.6-0.73-0.97-1.25-1.1c-0.52-0.13-1.2-0.2-2.04-0.2h-1.73c-0.29,0-0.48,0.05-0.57,0.14
			c-0.09,0.09-0.14,0.28-0.14,0.57v8.13c0,0.55,0.04,0.99,0.12,1.32c0.08,0.33,0.22,0.58,0.43,0.75c0.21,0.17,0.5,0.29,0.86,0.36
			c0.37,0.07,0.84,0.1,1.41,0.1c0.6,0,1.14-0.03,1.63-0.08c0.48-0.05,0.92-0.16,1.31-0.31c0.39-0.16,0.74-0.38,1.06-0.69
			c0.31-0.3,0.63-0.69,0.94-1.16c0.47-0.73,0.82-1.37,1.06-1.9c0.24-0.53,0.51-0.8,0.82-0.8c0.08,0,0.16,0.05,0.26,0.14
			c0.09,0.09,0.14,0.16,0.14,0.22c-0.03,0.26-0.05,0.5-0.08,0.71l-0.43,3.8c-0.03,0.3-0.05,0.52-0.08,0.68
			c-0.03,0.16-0.08,0.29-0.16,0.39s-0.19,0.16-0.33,0.19c-0.14,0.03-0.36,0.04-0.65,0.04c-0.81,0-2.04-0.05-3.7-0.15
			s-3.76-0.15-6.29-0.15c-1.18,0-2.07,0.03-2.69,0.09c-0.61,0.06-1,0.09-1.16,0.09c-0.58,0-0.86-0.21-0.86-0.63
			c0-0.34,0.16-0.51,0.47-0.51c0.31,0,0.72-0.04,1.22-0.12c0.57-0.08,0.91-0.31,1.02-0.71c0.1-0.39,0.16-0.97,0.16-1.73v-17.95
			c0-0.6-0.03-1.02-0.1-1.26c-0.07-0.23-0.28-0.42-0.65-0.55c-0.21-0.08-0.42-0.12-0.63-0.12c-0.21,0-0.39-0.01-0.55-0.04
			c-0.16-0.03-0.28-0.07-0.37-0.14c-0.09-0.07-0.14-0.2-0.14-0.41c0-0.37,0.22-0.55,0.67-0.55c0.16,0,0.72,0.03,1.69,0.08
			c0.97,0.05,2.35,0.08,4.16,0.08c2.3,0,4.09-0.03,5.37-0.08c1.28-0.05,2.05-0.08,2.31-0.08c0.52,0,0.84,0.09,0.94,0.27
			c0.1,0.18,0.16,0.48,0.16,0.9v0.16V200.83z"/>
		<path d="M617.3,203.37c0.6,0.34,0.9,0.85,0.9,1.53c0,0.92-0.04,1.59-0.12,2.02c-0.08,0.43-0.25,0.65-0.51,0.65
			c-0.29,0-0.46-0.18-0.51-0.55c-0.05-0.37-0.23-0.82-0.55-1.37c-0.65-1.12-1.52-1.68-2.59-1.68c-0.76,0-1.37,0.21-1.82,0.64
			c-0.46,0.43-0.69,0.98-0.69,1.66c0,0.44,0.09,0.81,0.27,1.11c0.18,0.3,0.44,0.58,0.78,0.84c0.34,0.26,0.75,0.51,1.23,0.76
			c0.48,0.25,1.03,0.53,1.63,0.84c1.28,0.68,2.22,1.44,2.82,2.28c0.6,0.85,0.9,1.91,0.9,3.18c0,0.99-0.15,1.87-0.45,2.65
			c-0.3,0.78-0.73,1.44-1.27,1.97s-1.2,0.94-1.94,1.23c-0.74,0.29-1.56,0.43-2.45,0.43c-0.89,0-1.69-0.1-2.39-0.29
			c-0.71-0.2-1.24-0.41-1.61-0.65c-0.24-0.13-0.38-0.3-0.43-0.51c-0.05-0.21-0.08-0.5-0.08-0.86v-0.98c0-1.07,0.03-1.85,0.08-2.33
			c0.05-0.48,0.22-0.73,0.51-0.73c0.18,0,0.31,0.07,0.39,0.2c0.08,0.13,0.15,0.32,0.22,0.57c0.06,0.25,0.14,0.55,0.23,0.9
			c0.09,0.35,0.24,0.75,0.45,1.2c0.73,1.59,1.78,2.39,3.14,2.39c0.84,0,1.52-0.29,2.06-0.86c0.54-0.57,0.8-1.35,0.8-2.31
			c0-0.5-0.09-0.93-0.25-1.31c-0.17-0.38-0.42-0.72-0.74-1.02c-0.33-0.3-0.73-0.59-1.2-0.86c-0.47-0.27-0.99-0.57-1.57-0.88
			c-0.65-0.34-1.23-0.67-1.73-1c-0.5-0.33-0.92-0.68-1.25-1.06c-0.34-0.38-0.6-0.81-0.76-1.29c-0.17-0.48-0.26-1.05-0.26-1.7
			c0-1.62,0.5-2.91,1.51-3.86c1.01-0.95,2.29-1.43,3.86-1.43C615.58,202.86,616.7,203.03,617.3,203.37z"/>
		<path d="M626.2,205.49c0,0.18,0.04,0.27,0.12,0.27c0.08,0,0.18-0.06,0.31-0.2l0.39-0.47c0.68-0.78,1.37-1.35,2.08-1.7
			c0.71-0.35,1.48-0.53,2.31-0.53c0.86,0,1.69,0.21,2.47,0.63c0.78,0.42,1.46,1.01,2.04,1.76c0.57,0.76,1.03,1.69,1.37,2.78
			c0.34,1.1,0.51,2.31,0.51,3.65c0,1.46-0.2,2.8-0.59,4c-0.39,1.2-0.94,2.24-1.65,3.12c-0.71,0.88-1.55,1.56-2.52,2.04
			c-0.97,0.48-2.05,0.73-3.22,0.73c-1.23,0-2.37-0.3-3.42-0.9l-0.16,0.12l-0.04,5.57c0,0.47,0.04,0.82,0.12,1.06
			c0.08,0.23,0.27,0.42,0.59,0.55c0.26,0.13,0.52,0.21,0.76,0.24c0.25,0.03,0.46,0.05,0.63,0.08c0.17,0.03,0.31,0.08,0.41,0.16
			c0.1,0.08,0.16,0.24,0.16,0.47c0,0.37-0.27,0.55-0.82,0.55c-0.52,0-1.08-0.04-1.66-0.12c-0.59-0.08-1.21-0.12-1.88-0.12
			s-1.27,0.04-1.79,0.12c-0.52,0.08-0.96,0.12-1.33,0.12c-0.47,0-0.71-0.21-0.71-0.63c0-0.37,0.14-0.55,0.43-0.55
			c0.29,0,0.63-0.08,1.02-0.23c0.34-0.13,0.57-0.31,0.69-0.55c0.12-0.24,0.18-0.62,0.18-1.14v-17.72c0-0.71-0.09-1.18-0.27-1.41
			c-0.18-0.23-0.39-0.38-0.61-0.45c-0.22-0.07-0.43-0.1-0.61-0.12c-0.18-0.01-0.27-0.15-0.27-0.41c0-0.31,0.2-0.54,0.61-0.69
			c0.4-0.14,0.91-0.43,1.51-0.84c0.76-0.52,1.31-0.98,1.65-1.37c0.34-0.39,0.61-0.59,0.82-0.59c0.26,0,0.39,0.27,0.39,0.82V205.49z
			 M627.07,219.56c0.55,0.61,1.33,0.91,2.32,0.91c0.76,0,1.46-0.18,2.09-0.55c0.63-0.37,1.17-0.89,1.63-1.56
			c0.46-0.67,0.81-1.47,1.06-2.4c0.25-0.93,0.38-1.95,0.38-3.05c0-2.34-0.49-4.15-1.48-5.44c-0.98-1.29-2.22-1.93-3.72-1.93
			c-1.1,0-1.9,0.32-2.38,0.97c-0.49,0.64-0.73,1.62-0.73,2.94v7.33C626.24,218.02,626.52,218.96,627.07,219.56z"/>
		<path d="M651.02,216.43c0,0.84,0.05,1.46,0.16,1.88c0.1,0.42,0.38,0.63,0.82,0.63c0.29,0,0.55-0.13,0.78-0.39
			c0.24-0.26,0.47-0.39,0.71-0.39c0.31,0,0.47,0.2,0.47,0.59c0,0.21-0.12,0.46-0.35,0.76c-0.23,0.3-0.52,0.59-0.84,0.88
			c-0.33,0.29-0.68,0.53-1.06,0.74c-0.38,0.21-0.73,0.31-1.04,0.31c-0.68,0-1.25-0.22-1.69-0.67c-0.45-0.44-0.81-1.11-1.1-2h-0.24
			l-0.83,0.71c-0.68,0.57-1.33,1.07-1.93,1.47c-0.6,0.4-1.27,0.61-2.01,0.61c-0.84,0-1.51-0.28-2.03-0.84
			c-0.51-0.56-0.77-1.34-0.77-2.33c0-0.86,0.14-1.62,0.43-2.27c0.29-0.65,0.71-1.25,1.26-1.78c0.55-0.54,1.21-1.04,1.99-1.51
			c0.77-0.47,1.63-0.94,2.58-1.41l0.98-0.51c0.21-0.1,0.33-0.22,0.37-0.33c0.04-0.12,0.06-0.32,0.06-0.61v-2.78
			c0-1.1-0.09-1.89-0.26-2.39c-0.17-0.5-0.6-0.74-1.28-0.74c-0.68,0-1.22,0.23-1.61,0.69c-0.39,0.46-0.77,1.1-1.14,1.94
			c-0.29,0.65-0.61,1.21-0.96,1.67c-0.35,0.46-0.92,0.69-1.71,0.69c-0.21,0-0.39-0.07-0.53-0.2c-0.15-0.13-0.22-0.3-0.22-0.51
			c0-0.57,0.18-1.19,0.53-1.84c0.35-0.65,0.85-1.25,1.5-1.78c0.64-0.54,1.4-0.98,2.28-1.33c0.88-0.35,1.83-0.53,2.85-0.53
			c0.84,0,1.51,0.1,2.03,0.29c0.51,0.2,0.9,0.48,1.16,0.86c0.26,0.38,0.43,0.85,0.51,1.41c0.08,0.56,0.12,1.21,0.12,1.94V216.43z
			 M647.57,212c-0.08,0-0.21,0.05-0.39,0.16l-1.29,0.63c-1.54,0.78-2.31,2.09-2.31,3.92c0,0.76,0.14,1.33,0.41,1.72
			c0.27,0.39,0.63,0.59,1.08,0.59c0.31,0,0.63-0.09,0.94-0.26s0.6-0.4,0.86-0.71c0.26-0.3,0.48-0.66,0.65-1.08
			c0.17-0.42,0.25-0.89,0.25-1.41v-3.1C647.76,212.16,647.7,212,647.57,212z"/>
		<path d="M664.5,203.08c0.55,0.14,1.03,0.32,1.43,0.55c0.4,0.23,0.73,0.48,0.98,0.77c0.25,0.29,0.37,0.6,0.37,0.94
			c0,0.99-0.1,1.77-0.29,2.33c-0.2,0.56-0.45,0.84-0.76,0.84c-0.37,0-0.72-0.38-1.06-1.14c-0.24-0.5-0.44-0.96-0.63-1.39
			c-0.18-0.43-0.38-0.79-0.59-1.08c-0.21-0.29-0.44-0.52-0.69-0.69c-0.25-0.17-0.56-0.25-0.92-0.25c-0.47,0-0.95,0.18-1.45,0.53
			c-0.5,0.35-0.94,0.86-1.33,1.52c-0.39,0.66-0.71,1.46-0.96,2.4s-0.37,2-0.37,3.2c0,1.22,0.14,2.31,0.41,3.28
			c0.27,0.96,0.65,1.78,1.14,2.44c0.48,0.66,1.05,1.17,1.7,1.52c0.65,0.35,1.37,0.53,2.16,0.53c0.5,0,0.95-0.08,1.35-0.26
			c0.4-0.17,0.74-0.36,1.02-0.57c0.27-0.21,0.5-0.4,0.67-0.57c0.17-0.17,0.29-0.26,0.37-0.26c0.34,0,0.51,0.17,0.51,0.51
			c0,0.23-0.14,0.54-0.41,0.92c-0.27,0.38-0.65,0.74-1.14,1.1c-0.48,0.35-1.07,0.66-1.74,0.92c-0.68,0.26-1.41,0.39-2.2,0.39
			c-1.04,0-2.01-0.22-2.9-0.65c-0.89-0.43-1.66-1.04-2.31-1.84c-0.65-0.8-1.16-1.76-1.53-2.9c-0.37-1.14-0.55-2.41-0.55-3.82
			c0-1.46,0.2-2.78,0.61-3.94c0.4-1.16,0.96-2.16,1.67-2.98c0.71-0.82,1.54-1.46,2.51-1.9c0.97-0.44,2.03-0.67,3.17-0.67
			C663.37,202.86,663.95,202.94,664.5,203.08z"/>
		<path d="M674.26,217.88c0,0.47,0.04,0.82,0.14,1.06c0.09,0.23,0.26,0.42,0.49,0.55c0.21,0.1,0.41,0.17,0.61,0.2
			c0.2,0.03,0.37,0.06,0.51,0.1c0.14,0.04,0.26,0.1,0.35,0.18c0.09,0.08,0.14,0.21,0.14,0.39c0,0.42-0.23,0.63-0.71,0.63
			c-0.39,0-0.86-0.05-1.41-0.14c-0.55-0.09-1.13-0.14-1.75-0.14c-0.67,0-1.24,0.05-1.71,0.14c-0.47,0.09-0.85,0.14-1.13,0.14
			c-0.39,0-0.59-0.22-0.59-0.67c0-0.18,0.03-0.31,0.1-0.39c0.06-0.08,0.16-0.13,0.27-0.16c0.12-0.03,0.24-0.04,0.37-0.06
			c0.13-0.01,0.27-0.06,0.43-0.14c0.29-0.16,0.46-0.35,0.53-0.57c0.07-0.22,0.1-0.59,0.1-1.12v-9.25c0-0.71-0.09-1.18-0.26-1.41
			c-0.17-0.23-0.35-0.38-0.55-0.45c-0.2-0.07-0.38-0.1-0.55-0.12c-0.17-0.01-0.26-0.15-0.26-0.41c0-0.29,0.18-0.52,0.53-0.71
			c0.35-0.18,0.85-0.46,1.5-0.82c0.39-0.24,0.72-0.47,0.99-0.71c0.27-0.24,0.5-0.44,0.68-0.63c0.18-0.18,0.33-0.33,0.45-0.45
			c0.12-0.12,0.23-0.18,0.33-0.18c0.26,0,0.39,0.27,0.39,0.82V217.88z M674.03,196.71c0.34,0.44,0.51,0.94,0.51,1.49
			s-0.17,1.05-0.51,1.49c-0.34,0.44-0.74,0.67-1.21,0.67c-0.47,0-0.88-0.22-1.22-0.67c-0.34-0.44-0.51-0.94-0.51-1.49
			s0.17-1.04,0.51-1.49c0.34-0.44,0.74-0.67,1.22-0.67C673.28,196.04,673.69,196.27,674.03,196.71z"/>
		<path d="M678.46,208.35c0.39-1.15,0.95-2.13,1.68-2.94s1.61-1.44,2.63-1.88c1.02-0.44,2.16-0.67,3.41-0.67
			c1.2,0,2.3,0.23,3.29,0.69c0.99,0.46,1.84,1.1,2.53,1.92c0.69,0.82,1.23,1.81,1.61,2.96c0.38,1.15,0.57,2.43,0.57,3.84
			c0,1.39-0.2,2.65-0.59,3.8c-0.39,1.15-0.95,2.13-1.67,2.94c-0.72,0.81-1.6,1.44-2.65,1.88c-1.05,0.44-2.22,0.67-3.53,0.67
			c-1.18,0-2.25-0.23-3.22-0.69c-0.97-0.46-1.8-1.1-2.49-1.92c-0.69-0.82-1.23-1.81-1.61-2.96c-0.38-1.15-0.57-2.42-0.57-3.8
			C677.87,210.78,678.06,209.5,678.46,208.35z M682.57,205.96c-0.81,1.33-1.21,3.23-1.21,5.68c0,2.77,0.44,4.93,1.31,6.49
			c0.87,1.56,2.02,2.33,3.43,2.33c1.44,0,2.57-0.67,3.39-2.02c0.82-1.35,1.23-3.23,1.23-5.66c0-2.77-0.44-4.93-1.31-6.49
			s-2.01-2.33-3.39-2.33C684.53,203.96,683.38,204.63,682.57,205.96z"/>
		<path d="M700.62,217.64c0.35,0.39,0.53,0.89,0.53,1.49c0,0.6-0.18,1.1-0.53,1.49c-0.35,0.39-0.75,0.59-1.2,0.59
			c-0.44,0-0.84-0.2-1.2-0.59c-0.35-0.39-0.53-0.89-0.53-1.49c0-0.6,0.18-1.1,0.53-1.49c0.35-0.39,0.75-0.59,1.2-0.59
			C699.87,217.06,700.27,217.25,700.62,217.64z"/>
		<path d="M719.42,196.28c0.13,0,0.24,0.02,0.33,0.06c0.09,0.04,0.16,0.14,0.22,0.29l5.21,15.84c0.1,0.31,0.2,0.47,0.27,0.47
			c0.1,0,0.21-0.14,0.31-0.43l5.14-15.56c0.05-0.21,0.12-0.37,0.21-0.49c0.09-0.12,0.24-0.18,0.45-0.18h5.06
			c0.37,0,0.55,0.17,0.55,0.51c0,0.21-0.06,0.34-0.18,0.41c-0.12,0.06-0.27,0.11-0.45,0.14c-0.18,0.03-0.39,0.05-0.61,0.06
			c-0.22,0.01-0.45,0.07-0.69,0.18c-0.29,0.13-0.46,0.29-0.53,0.49c-0.07,0.19-0.1,0.55-0.1,1.07v0.93l0.43,17.06
			c0.03,0.7,0.07,1.21,0.14,1.52c0.06,0.31,0.31,0.56,0.73,0.74c0.23,0.1,0.47,0.16,0.71,0.17c0.23,0.01,0.44,0.03,0.61,0.04
			c0.17,0.01,0.31,0.06,0.41,0.14c0.1,0.08,0.16,0.23,0.16,0.47c0,0.16-0.07,0.29-0.22,0.41s-0.35,0.18-0.61,0.18
			c-0.42,0-0.92-0.05-1.51-0.14c-0.59-0.09-1.27-0.14-2.06-0.14c-0.86,0-1.61,0.05-2.25,0.14c-0.64,0.09-1.14,0.14-1.51,0.14
			c-0.52,0-0.78-0.21-0.78-0.63c0-0.39,0.2-0.59,0.59-0.59c0.5,0,0.88-0.04,1.16-0.12c0.27-0.08,0.48-0.21,0.63-0.41
			c0.14-0.2,0.23-0.45,0.26-0.76c0.03-0.31,0.04-0.7,0.04-1.17v-0.9l-0.27-14.41c0-0.29-0.07-0.43-0.2-0.43
			c-0.08,0-0.16,0.13-0.24,0.39l-5.76,17.64c-0.13,0.39-0.34,0.59-0.63,0.59c-0.34,0-0.55-0.16-0.63-0.47l-5.84-17.72
			c-0.13-0.34-0.22-0.51-0.27-0.51c-0.13,0-0.21,0.25-0.23,0.74l-0.67,11.92c-0.03,0.44-0.05,0.84-0.06,1.21
			c-0.01,0.36-0.02,0.69-0.02,0.97c0,1.22,0.1,2.11,0.31,2.67s0.69,0.84,1.45,0.84c0.08,0,0.16-0.01,0.24-0.02
			c0.08-0.01,0.17-0.02,0.27-0.02c0.5,0,0.74,0.2,0.74,0.59c0,0.42-0.33,0.63-0.98,0.63c-0.29,0-0.66-0.03-1.12-0.08
			s-0.99-0.08-1.59-0.08c-0.52,0-0.99,0.03-1.39,0.08c-0.41,0.05-0.75,0.08-1.04,0.08c-0.63,0-0.94-0.21-0.94-0.63
			c0-0.39,0.18-0.59,0.55-0.59c0.16,0,0.29,0.01,0.41,0.02s0.22,0.02,0.29,0.02c0.34,0,0.61-0.11,0.82-0.33
			c0.21-0.22,0.37-0.58,0.47-1.07c0.1-0.49,0.18-1.14,0.24-1.93c0.05-0.79,0.1-1.77,0.16-2.94l0.67-13.31
			c0-0.05,0.01-0.14,0.02-0.27c0.01-0.13,0.02-0.3,0.02-0.51c0-0.6-0.05-1.01-0.16-1.25c-0.1-0.23-0.34-0.42-0.71-0.55
			c-0.24-0.08-0.46-0.12-0.67-0.14c-0.21-0.01-0.39-0.03-0.55-0.04c-0.16-0.01-0.28-0.05-0.37-0.12c-0.09-0.06-0.14-0.2-0.14-0.41
			c0-0.34,0.18-0.51,0.55-0.51H719.42z"/>
		<path d="M744.47,217.88c0,0.47,0.04,0.82,0.14,1.06c0.09,0.23,0.26,0.42,0.49,0.55c0.21,0.1,0.41,0.17,0.61,0.2
			c0.2,0.03,0.37,0.06,0.51,0.1c0.14,0.04,0.26,0.1,0.35,0.18c0.09,0.08,0.14,0.21,0.14,0.39c0,0.42-0.23,0.63-0.71,0.63
			c-0.39,0-0.86-0.05-1.41-0.14s-1.13-0.14-1.75-0.14c-0.67,0-1.24,0.05-1.71,0.14c-0.47,0.09-0.85,0.14-1.13,0.14
			c-0.39,0-0.59-0.22-0.59-0.67c0-0.18,0.03-0.31,0.1-0.39c0.06-0.08,0.16-0.13,0.27-0.16c0.12-0.03,0.24-0.04,0.37-0.06
			c0.13-0.01,0.27-0.06,0.43-0.14c0.29-0.16,0.46-0.35,0.53-0.57c0.07-0.22,0.1-0.59,0.1-1.12v-9.25c0-0.71-0.09-1.18-0.26-1.41
			c-0.17-0.23-0.35-0.38-0.55-0.45c-0.2-0.07-0.38-0.1-0.55-0.12c-0.17-0.01-0.26-0.15-0.26-0.41c0-0.29,0.18-0.52,0.53-0.71
			c0.35-0.18,0.85-0.46,1.5-0.82c0.39-0.24,0.72-0.47,0.99-0.71c0.27-0.24,0.5-0.44,0.68-0.63c0.18-0.18,0.33-0.33,0.44-0.45
			c0.12-0.12,0.23-0.18,0.33-0.18c0.26,0,0.39,0.27,0.39,0.82V217.88z M744.24,196.71c0.34,0.44,0.51,0.94,0.51,1.49
			s-0.17,1.05-0.51,1.49c-0.34,0.44-0.74,0.67-1.21,0.67c-0.47,0-0.88-0.22-1.22-0.67c-0.34-0.44-0.51-0.94-0.51-1.49
			s0.17-1.04,0.51-1.49c0.34-0.44,0.74-0.67,1.22-0.67C743.49,196.04,743.9,196.27,744.24,196.71z"/>
		<path d="M774.11,200.67c-0.03,0.44-0.07,0.74-0.14,0.88c-0.07,0.14-0.2,0.22-0.41,0.22c-0.18,0-0.32-0.07-0.41-0.2
			c-0.09-0.13-0.17-0.31-0.23-0.55c-0.07-0.24-0.14-0.51-0.22-0.82c-0.08-0.31-0.17-0.67-0.27-1.06c-0.37-0.84-0.86-1.37-1.49-1.59
			c-0.63-0.22-1.54-0.33-2.74-0.33h-0.63c-0.16,0-0.28,0.07-0.37,0.22c-0.09,0.14-0.14,0.28-0.14,0.41v19.28
			c0,0.42,0.01,0.76,0.02,1.02c0.01,0.26,0.05,0.48,0.12,0.65c0.06,0.17,0.17,0.31,0.31,0.41c0.14,0.1,0.35,0.2,0.61,0.27
			c0.24,0.08,0.46,0.12,0.67,0.14c0.21,0.01,0.39,0.03,0.55,0.06c0.16,0.03,0.28,0.08,0.37,0.16c0.09,0.08,0.14,0.22,0.14,0.43
			c0,0.37-0.27,0.55-0.82,0.55c-0.42,0-0.93-0.05-1.55-0.14c-0.61-0.09-1.34-0.14-2.18-0.14c-0.81,0-1.53,0.05-2.16,0.14
			c-0.63,0.09-1.15,0.14-1.57,0.14c-0.55,0-0.82-0.21-0.82-0.63c0-0.18,0.05-0.31,0.16-0.39c0.1-0.08,0.23-0.13,0.39-0.16
			c0.16-0.03,0.34-0.04,0.55-0.04s0.42-0.04,0.63-0.12c0.5-0.16,0.8-0.38,0.9-0.67c0.1-0.29,0.16-0.85,0.16-1.69v-19.16
			c0-0.16-0.05-0.32-0.14-0.49s-0.22-0.26-0.37-0.26h-1.1c-0.81,0-1.48,0.16-2,0.47c-0.52,0.31-1.03,0.78-1.53,1.41
			c-0.47,0.78-0.83,1.4-1.08,1.84c-0.25,0.44-0.53,0.67-0.84,0.67h-0.08c-0.1,0-0.19-0.03-0.26-0.08c-0.07-0.05-0.1-0.21-0.1-0.47
			c0-0.03,0.01-0.1,0.04-0.24c0.03-0.13,0.06-0.27,0.12-0.43l0.98-3.94c0.13-0.59,0.23-1.06,0.29-1.43
			c0.06-0.37,0.23-0.55,0.49-0.55c0.1,0,0.19,0.07,0.25,0.2c0.07,0.13,0.13,0.28,0.2,0.45c0.07,0.17,0.12,0.33,0.18,0.47
			c0.05,0.14,0.14,0.21,0.27,0.21c0.23,0.23,0.85,0.35,1.84,0.35c0.37,0,0.78-0.01,1.25-0.02c0.47-0.01,0.99-0.02,1.57-0.02h4.82
			c0.65,0,1.23,0.01,1.74,0.04c0.51,0.02,0.95,0.04,1.31,0.04c0.63,0,1.04-0.06,1.25-0.19c0.18-0.1,0.33-0.25,0.45-0.43
			c0.12-0.18,0.22-0.36,0.29-0.53c0.08-0.17,0.16-0.31,0.24-0.43c0.08-0.12,0.17-0.18,0.27-0.18c0.16,0,0.27,0.09,0.33,0.26
			c0.06,0.17,0.1,0.32,0.1,0.45v0.43L774.11,200.67z"/>
		<path d="M779.32,217.88c0,0.47,0.04,0.82,0.14,1.06c0.09,0.23,0.26,0.42,0.49,0.55c0.21,0.1,0.41,0.17,0.61,0.2
			c0.2,0.03,0.37,0.06,0.51,0.1c0.14,0.04,0.26,0.1,0.35,0.18c0.09,0.08,0.14,0.21,0.14,0.39c0,0.42-0.23,0.63-0.71,0.63
			c-0.39,0-0.86-0.05-1.41-0.14s-1.13-0.14-1.75-0.14c-0.67,0-1.24,0.05-1.71,0.14c-0.47,0.09-0.85,0.14-1.13,0.14
			c-0.39,0-0.59-0.22-0.59-0.67c0-0.18,0.03-0.31,0.1-0.39c0.06-0.08,0.16-0.13,0.27-0.16c0.12-0.03,0.24-0.04,0.37-0.06
			c0.13-0.01,0.27-0.06,0.43-0.14c0.29-0.16,0.46-0.35,0.53-0.57c0.07-0.22,0.1-0.59,0.1-1.12v-9.25c0-0.71-0.09-1.18-0.26-1.41
			c-0.17-0.23-0.35-0.38-0.55-0.45c-0.2-0.07-0.38-0.1-0.55-0.12c-0.17-0.01-0.26-0.15-0.26-0.41c0-0.29,0.18-0.52,0.53-0.71
			c0.35-0.18,0.85-0.46,1.5-0.82c0.39-0.24,0.72-0.47,0.99-0.71c0.27-0.24,0.5-0.44,0.68-0.63c0.18-0.18,0.33-0.33,0.44-0.45
			c0.12-0.12,0.23-0.18,0.33-0.18c0.26,0,0.39,0.27,0.39,0.82V217.88z M779.09,196.71c0.34,0.44,0.51,0.94,0.51,1.49
			s-0.17,1.05-0.51,1.49c-0.34,0.44-0.74,0.67-1.21,0.67c-0.47,0-0.88-0.22-1.22-0.67c-0.34-0.44-0.51-0.94-0.51-1.49
			s0.17-1.04,0.51-1.49c0.34-0.44,0.74-0.67,1.22-0.67C778.34,196.04,778.75,196.27,779.09,196.71z"/>
		<path d="M786.85,209.77c-0.21,0-0.34,0.04-0.39,0.12c-0.05,0.08-0.08,0.25-0.08,0.51v0.94c0,2.43,0.52,4.35,1.55,5.76
			c1.03,1.41,2.37,2.12,4.02,2.12c0.73,0,1.37-0.12,1.9-0.35c0.54-0.24,0.98-0.5,1.33-0.78c0.35-0.29,0.63-0.55,0.82-0.78
			c0.2-0.24,0.33-0.35,0.41-0.35c0.21,0,0.31,0.14,0.31,0.43c0,0.29-0.16,0.67-0.47,1.14c-0.31,0.47-0.76,0.93-1.35,1.39
			c-0.59,0.46-1.29,0.86-2.1,1.2c-0.81,0.34-1.73,0.51-2.74,0.51c-1.07,0-2.05-0.22-2.92-0.65c-0.88-0.43-1.63-1.05-2.25-1.86
			c-0.63-0.81-1.11-1.79-1.45-2.94c-0.34-1.15-0.51-2.44-0.51-3.88s0.19-2.74,0.57-3.9c0.38-1.16,0.91-2.15,1.59-2.96
			c0.68-0.81,1.48-1.44,2.41-1.88c0.93-0.44,1.94-0.67,3.04-0.67c0.94,0,1.8,0.16,2.59,0.49c0.78,0.33,1.45,0.76,2,1.31
			c0.55,0.55,0.97,1.19,1.27,1.92c0.3,0.73,0.45,1.52,0.45,2.35c0,0.34-0.1,0.56-0.31,0.67c-0.21,0.1-0.55,0.16-1.02,0.16H786.85z
			 M792.51,208.12c0.59-0.29,0.88-0.86,0.88-1.73c0-0.65-0.27-1.25-0.8-1.8c-0.54-0.55-1.22-0.82-2.06-0.82
			c-0.92,0-1.71,0.35-2.39,1.06s-1.12,1.59-1.33,2.67l-0.12,0.63v0.08c0,0.24,0.16,0.35,0.47,0.35h2.55
			C790.99,208.55,791.92,208.41,792.51,208.12z"/>
		<path d="M803.7,205.22c0,0.34,0.04,0.51,0.12,0.51c0.05,0,0.14-0.08,0.27-0.23l0.39-0.51c0.5-0.68,1.08-1.2,1.74-1.57
			c0.67-0.37,1.36-0.55,2.09-0.55c1.07,0,1.94,0.29,2.62,0.86c0.68,0.58,1.28,1.32,1.8,2.23h0.2c1.28-2.06,2.88-3.1,4.81-3.1
			c1.33,0,2.41,0.52,3.25,1.57c0.84,1.05,1.25,2.44,1.25,4.19v9.25c0,0.47,0.04,0.82,0.12,1.06c0.08,0.23,0.24,0.42,0.47,0.55
			c0.21,0.1,0.41,0.17,0.61,0.2c0.2,0.03,0.37,0.06,0.51,0.1c0.14,0.04,0.26,0.1,0.35,0.18c0.09,0.08,0.14,0.21,0.14,0.39
			c0,0.42-0.24,0.63-0.71,0.63c-0.39,0-0.85-0.05-1.37-0.14c-0.52-0.09-1.1-0.14-1.75-0.14c-0.67,0-1.24,0.05-1.71,0.14
			s-0.85,0.14-1.13,0.14c-0.42,0-0.63-0.22-0.63-0.67c0-0.18,0.03-0.31,0.1-0.37c0.06-0.06,0.15-0.11,0.25-0.14
			c0.1-0.03,0.23-0.05,0.37-0.08c0.14-0.03,0.29-0.08,0.45-0.16c0.29-0.13,0.47-0.32,0.55-0.57c0.08-0.25,0.12-0.62,0.12-1.12v-6.55
			c0-2.01-0.19-3.54-0.57-4.59c-0.38-1.04-1.16-1.57-2.35-1.57c-0.89,0-1.62,0.34-2.17,1.02c-0.55,0.68-0.83,1.72-0.83,3.14v8.55
			c0,0.47,0.03,0.82,0.1,1.06c0.07,0.23,0.22,0.42,0.45,0.55c0.21,0.1,0.41,0.17,0.61,0.2c0.2,0.03,0.37,0.06,0.51,0.1
			c0.14,0.04,0.26,0.1,0.35,0.18c0.09,0.08,0.14,0.21,0.14,0.39c0,0.42-0.24,0.63-0.71,0.63c-0.39,0-0.86-0.05-1.39-0.14
			c-0.53-0.09-1.11-0.14-1.73-0.14c-0.67,0-1.24,0.05-1.71,0.14c-0.47,0.09-0.85,0.14-1.13,0.14c-0.42,0-0.63-0.22-0.63-0.67
			c0-0.18,0.03-0.31,0.1-0.39c0.06-0.08,0.16-0.13,0.27-0.16c0.12-0.03,0.24-0.04,0.37-0.06c0.13-0.01,0.27-0.06,0.43-0.14
			c0.29-0.16,0.48-0.35,0.57-0.57c0.09-0.22,0.14-0.59,0.14-1.12v-6.55c0-2.04-0.2-3.57-0.61-4.61c-0.41-1.03-1.19-1.55-2.35-1.55
			c-0.92,0-1.66,0.34-2.21,1.02c-0.55,0.68-0.83,1.72-0.83,3.14v8.55c0,0.47,0.04,0.82,0.12,1.06c0.08,0.23,0.23,0.42,0.47,0.55
			c0.21,0.1,0.41,0.17,0.61,0.2c0.2,0.03,0.37,0.06,0.51,0.1c0.14,0.04,0.26,0.1,0.35,0.18c0.09,0.08,0.14,0.21,0.14,0.39
			c0,0.42-0.24,0.63-0.71,0.63c-0.39,0-0.85-0.05-1.37-0.14c-0.52-0.09-1.1-0.14-1.75-0.14c-0.67,0-1.24,0.05-1.71,0.14
			c-0.47,0.09-0.85,0.14-1.13,0.14c-0.42,0-0.63-0.22-0.63-0.67c0-0.18,0.03-0.31,0.1-0.37c0.06-0.06,0.15-0.11,0.25-0.14
			c0.1-0.03,0.23-0.05,0.37-0.08c0.14-0.03,0.29-0.08,0.45-0.16c0.29-0.13,0.47-0.32,0.55-0.57c0.08-0.25,0.12-0.62,0.12-1.12v-9.25
			c0-0.68-0.09-1.14-0.27-1.39c-0.18-0.25-0.38-0.4-0.59-0.45c-0.21-0.05-0.41-0.09-0.59-0.12c-0.18-0.03-0.27-0.16-0.27-0.39
			c0-0.34,0.19-0.59,0.57-0.74c0.38-0.16,0.83-0.38,1.35-0.67c0.44-0.26,0.82-0.52,1.12-0.78c0.3-0.26,0.55-0.49,0.74-0.69
			c0.2-0.2,0.36-0.35,0.49-0.47c0.13-0.12,0.24-0.18,0.31-0.18c0.08,0,0.14,0.08,0.2,0.23c0.05,0.16,0.08,0.35,0.08,0.59V205.22z"/>
		<path d="M830.95,205.49c0,0.18,0.04,0.27,0.12,0.27c0.08,0,0.18-0.06,0.31-0.2l0.39-0.47c0.68-0.78,1.37-1.35,2.08-1.7
			c0.71-0.35,1.48-0.53,2.31-0.53c0.86,0,1.69,0.21,2.47,0.63c0.78,0.42,1.46,1.01,2.04,1.76c0.57,0.76,1.03,1.69,1.37,2.78
			c0.34,1.1,0.51,2.31,0.51,3.65c0,1.46-0.2,2.8-0.59,4c-0.39,1.2-0.94,2.24-1.65,3.12c-0.71,0.88-1.55,1.56-2.52,2.04
			c-0.97,0.48-2.05,0.73-3.22,0.73c-1.23,0-2.37-0.3-3.42-0.9l-0.16,0.12l-0.04,5.57c0,0.47,0.04,0.82,0.12,1.06
			c0.08,0.23,0.27,0.42,0.59,0.55c0.26,0.13,0.52,0.21,0.76,0.24c0.25,0.03,0.46,0.05,0.63,0.08c0.17,0.03,0.31,0.08,0.41,0.16
			c0.1,0.08,0.16,0.24,0.16,0.47c0,0.37-0.27,0.55-0.82,0.55c-0.52,0-1.08-0.04-1.66-0.12s-1.21-0.12-1.88-0.12
			s-1.27,0.04-1.79,0.12c-0.52,0.08-0.96,0.12-1.33,0.12c-0.47,0-0.71-0.21-0.71-0.63c0-0.37,0.14-0.55,0.43-0.55
			c0.29,0,0.63-0.08,1.02-0.23c0.34-0.13,0.57-0.31,0.69-0.55c0.12-0.24,0.18-0.62,0.18-1.14v-17.72c0-0.71-0.09-1.18-0.27-1.41
			c-0.18-0.23-0.39-0.38-0.61-0.45c-0.22-0.07-0.43-0.1-0.61-0.12c-0.18-0.01-0.27-0.15-0.27-0.41c0-0.31,0.2-0.54,0.61-0.69
			c0.4-0.14,0.91-0.43,1.51-0.84c0.76-0.52,1.31-0.98,1.65-1.37c0.34-0.39,0.61-0.59,0.82-0.59c0.26,0,0.39,0.27,0.39,0.82V205.49z
			 M831.81,219.56c0.55,0.61,1.33,0.91,2.32,0.91c0.76,0,1.46-0.18,2.09-0.55c0.63-0.37,1.17-0.89,1.63-1.56
			c0.46-0.67,0.81-1.47,1.06-2.4c0.25-0.93,0.38-1.95,0.38-3.05c0-2.34-0.49-4.15-1.48-5.44c-0.98-1.29-2.22-1.93-3.72-1.93
			c-1.1,0-1.9,0.32-2.38,0.97c-0.49,0.64-0.73,1.62-0.73,2.94v7.33C830.99,218.02,831.26,218.96,831.81,219.56z"/>
		<path d="M845.18,208.35c0.39-1.15,0.95-2.13,1.69-2.94c0.73-0.81,1.61-1.44,2.63-1.88c1.02-0.44,2.16-0.67,3.41-0.67
			c1.2,0,2.3,0.23,3.29,0.69c0.99,0.46,1.84,1.1,2.53,1.92c0.69,0.82,1.23,1.81,1.61,2.96c0.38,1.15,0.57,2.43,0.57,3.84
			c0,1.39-0.2,2.65-0.59,3.8c-0.39,1.15-0.95,2.13-1.67,2.94c-0.72,0.81-1.6,1.44-2.65,1.88c-1.05,0.44-2.22,0.67-3.53,0.67
			c-1.18,0-2.25-0.23-3.22-0.69c-0.97-0.46-1.8-1.1-2.49-1.92c-0.69-0.82-1.23-1.81-1.61-2.96c-0.38-1.15-0.57-2.42-0.57-3.8
			C844.59,210.78,844.79,209.5,845.18,208.35z M849.29,205.96c-0.81,1.33-1.21,3.23-1.21,5.68c0,2.77,0.44,4.93,1.31,6.49
			c0.87,1.56,2.02,2.33,3.43,2.33c1.44,0,2.57-0.67,3.39-2.02c0.82-1.35,1.23-3.23,1.23-5.66c0-2.77-0.44-4.93-1.31-6.49
			c-0.88-1.56-2.01-2.33-3.39-2.33C851.25,203.96,850.1,204.63,849.29,205.96z"/>
		<path d="M867.35,217.64c0.35,0.39,0.53,0.89,0.53,1.49c0,0.6-0.18,1.1-0.53,1.49c-0.35,0.39-0.75,0.59-1.2,0.59
			c-0.44,0-0.84-0.2-1.2-0.59c-0.35-0.39-0.53-0.89-0.53-1.49c0-0.6,0.18-1.1,0.53-1.49c0.35-0.39,0.75-0.59,1.2-0.59
			C866.59,217.06,866.99,217.25,867.35,217.64z"/>
	</g>
</g>
</svg>
