<?xml version="1.0" encoding="utf-8"?>
<!-- Generator: Adobe Illustrator 25.4.1, SVG Export Plug-In . SVG Version: 6.00 Build 0)  -->
<svg version="1.1" id="Capa_1" xmlns="http://www.w3.org/2000/svg" xmlns:xlink="http://www.w3.org/1999/xlink" x="0px" y="0px"
	 viewBox="0 0 571.58 126.89" style="enable-background:new 0 0 571.58 126.89;" xml:space="preserve">
<style type="text/css">
	.st0{fill:#1F3D8A;}
	.st1{fill:#E52520;}
	.st2{fill:url(#SVGID_1_);}
	.st3{fill:url(#SVGID_00000065764846454164107880000006968885854486739090_);}
	.st4{fill:#DBD499;}
</style>
<g>
	<g>
		<path class="st0" d="M131.99,18.44v5.37c0,2.62,0.22,4.63,0.67,6.04c0.44,1.41,1.13,2.53,2.04,3.34c1.54,1.38,3.5,2.07,5.87,2.07
			c2.58,0,4.61-0.87,6.09-2.62c1.45-1.68,2.18-4.83,2.18-9.43v-4.78c0-4.63-0.03-7.35-0.09-8.16c-0.03-0.51-0.08-0.89-0.16-1.13
			c-0.07-0.24-0.23-0.47-0.47-0.68c-0.24-0.21-0.58-0.35-1.02-0.41c-0.42-0.06-0.83-0.09-1.24-0.09c-0.3,0-0.44-0.09-0.44-0.27
			c0-0.24,0.21-0.36,0.62-0.36c0.56,0,1.18,0.02,1.87,0.05c0.68,0.03,1.25,0.05,1.71,0.07c0.46,0.02,0.7,0.02,0.73,0.02
			c0.03,0,0.24-0.01,0.64-0.02c0.4-0.01,0.87-0.04,1.4-0.07s0.98-0.05,1.33-0.05c0.41,0,0.62,0.11,0.62,0.32s-0.15,0.32-0.44,0.32
			c-0.24,0-0.5,0.02-0.8,0.04c-0.56,0.06-0.94,0.26-1.13,0.61c-0.19,0.35-0.32,0.89-0.38,1.65c-0.03,0.81-0.04,3.53-0.04,8.16v4.01
			c0,5.68-1.2,9.58-3.6,11.68c-2.1,1.8-4.81,2.71-8.13,2.71c-3.61,0-6.38-0.9-8.31-2.71c-2.19-2.08-3.29-5.44-3.29-10.1v-5.59
			c0-4.66-0.04-7.4-0.13-8.21c-0.03-0.69-0.15-1.2-0.36-1.53c-0.21-0.33-0.64-0.54-1.29-0.63c-0.36-0.06-0.74-0.09-1.16-0.09
			c-0.33,0-0.49-0.09-0.49-0.27c0-0.24,0.22-0.36,0.67-0.36c0.56,0,1.21,0.02,1.93,0.05c0.73,0.03,1.34,0.05,1.84,0.07
			c0.5,0.02,0.78,0.02,0.84,0.02c0.06,0,0.65-0.02,1.78-0.07c1.13-0.05,1.93-0.07,2.4-0.07c0.41,0,0.62,0.11,0.62,0.32
			s-0.18,0.32-0.53,0.32c-0.18,0-0.5,0.03-0.98,0.09c-0.5,0.06-0.84,0.26-1,0.59c-0.16,0.33-0.27,0.86-0.33,1.58
			C132.01,11.04,131.99,13.78,131.99,18.44z"/>
		<path class="st0" d="M166.12,30.71V8.65c0-1.23,0.16-1.85,0.49-1.85c0.12,0,0.58,0.41,1.38,1.22c0.27,0.3,4.53,4.74,12.8,13.3
			c1.18,1.17,2.9,2.9,5.15,5.19c2.25,2.29,3.55,3.61,3.91,3.97l-0.49-18.76c-0.03-1.23-0.14-2.1-0.33-2.59
			c-0.19-0.5-0.59-0.82-1.18-0.97c-0.68-0.12-1.26-0.18-1.73-0.18c-0.36,0-0.53-0.12-0.53-0.36c0-0.18,0.27-0.27,0.8-0.27
			c0.77,0,1.66,0.03,2.67,0.09l1.51,0.04c0.03,0,0.46-0.02,1.29-0.07c0.83-0.05,1.58-0.07,2.27-0.07c0.41,0,0.62,0.09,0.62,0.27
			c0,0.18-0.13,0.3-0.4,0.36c-0.06,0-0.21,0.02-0.47,0.04c-0.25,0.03-0.47,0.06-0.64,0.09c-0.53,0.12-0.89,0.39-1.07,0.81
			s-0.27,1.28-0.27,2.57l-0.09,22.64c0,0.57-0.01,1.01-0.02,1.33c-0.02,0.32-0.04,0.56-0.07,0.74c-0.03,0.18-0.07,0.29-0.11,0.34
			c-0.04,0.05-0.11,0.07-0.2,0.07c-0.3,0-1.27-0.8-2.93-2.39c-0.06-0.03-0.63-0.58-1.71-1.65c-1.08-1.07-2.53-2.52-4.35-4.35
			c-1.82-1.83-3.21-3.22-4.15-4.15c-3.08-3.25-6.47-6.83-10.18-10.73l0.58,17.63c0.06,1.62,0.18,2.76,0.38,3.41
			c0.19,0.65,0.56,1.03,1.09,1.15c0.47,0.12,1.08,0.18,1.82,0.18c0.36,0,0.53,0.11,0.53,0.32s-0.24,0.32-0.71,0.32
			c-0.71,0-1.4-0.01-2.07-0.02c-0.67-0.01-1.19-0.04-1.58-0.07c-0.39-0.03-0.61-0.04-0.67-0.04c-0.06,0-0.28,0.01-0.67,0.02
			c-0.39,0.01-0.87,0.04-1.47,0.07c-0.59,0.03-1.17,0.05-1.73,0.05c-0.44,0-0.67-0.11-0.67-0.32s0.21-0.32,0.62-0.32
			c0.53,0,0.99-0.06,1.38-0.18c0.47-0.15,0.79-0.57,0.96-1.26C166.03,33.58,166.12,32.39,166.12,30.71z"/>
		<path class="st0" d="M209.04,25.2v-6.76c0-4.69-0.03-7.44-0.09-8.25c-0.09-1.23-0.52-1.92-1.29-2.07
			c-0.18-0.03-0.38-0.06-0.6-0.09c-0.22-0.03-0.36-0.04-0.42-0.04c-0.33-0.06-0.49-0.17-0.49-0.32c0-0.21,0.22-0.32,0.67-0.32
			c0.41,0,0.95,0.02,1.6,0.05c0.65,0.03,1.23,0.04,1.73,0.04l0.71,0.04c0.03,0,0.3-0.01,0.8-0.02c0.5-0.01,1.07-0.04,1.71-0.07
			c0.64-0.03,1.13-0.05,1.49-0.05c0.44,0,0.67,0.11,0.67,0.32c0,0.18-0.16,0.29-0.49,0.32c-0.09,0.03-0.22,0.05-0.4,0.07
			c-0.18,0.02-0.31,0.02-0.4,0.02c-0.42,0.06-0.73,0.19-0.96,0.38c-0.22,0.2-0.36,0.41-0.42,0.65c-0.06,0.24-0.1,0.62-0.13,1.13
			c-0.03,0.42-0.04,3.16-0.04,8.21v6.76c0,4.63,0.06,7.38,0.18,8.25c0.09,0.69,0.22,1.18,0.4,1.47c0.18,0.29,0.55,0.49,1.11,0.61
			c0.5,0.12,1.07,0.18,1.69,0.18c0.33,0.03,0.49,0.14,0.49,0.32c0,0.21-0.21,0.32-0.62,0.32c-0.68,0-1.42-0.01-2.22-0.02
			c-0.8-0.01-1.47-0.04-2-0.07c-0.53-0.03-0.82-0.04-0.84-0.04c-0.03,0-0.29,0.01-0.78,0.02c-0.49,0.01-1.06,0.04-1.71,0.07
			c-0.65,0.03-1.16,0.05-1.51,0.05c-0.47,0-0.71-0.11-0.71-0.32s0.19-0.32,0.58-0.32c0.36,0,0.71-0.04,1.07-0.14
			c0.53-0.12,0.87-0.84,1.02-2.16C208.97,32.33,209.04,29.59,209.04,25.2z"/>
		<path class="st0" d="M237.17,34.31l-9.6-23.27c-0.47-1.11-0.87-1.85-1.18-2.21c-0.31-0.36-0.85-0.6-1.62-0.72
			c-0.62-0.09-1.07-0.14-1.33-0.14c-0.36,0-0.53-0.11-0.53-0.32s0.24-0.32,0.71-0.32c0.8,0,1.84,0.02,3.11,0.07
			c1.27,0.04,1.93,0.07,1.96,0.07c0.03,0,0.56-0.02,1.6-0.07c1.04-0.05,1.88-0.07,2.53-0.07c0.47,0,0.71,0.09,0.71,0.27
			c0,0.24-0.22,0.36-0.67,0.36c-0.53,0-0.99,0.08-1.38,0.23c-0.27,0.15-0.4,0.41-0.4,0.77s0.24,1.11,0.71,2.25l7.82,19.93
			c1.1-2.5,2.62-6.25,4.58-11.25c1.96-5.01,3.14-8.19,3.56-9.54c0.24-0.63,0.36-1.13,0.36-1.49c0-0.39-0.13-0.63-0.4-0.72
			c-0.33-0.12-0.8-0.18-1.42-0.18c-0.39,0-0.58-0.09-0.58-0.27c0-0.24,0.22-0.36,0.67-0.36c0.62,0,1.47,0.02,2.53,0.07
			c1.07,0.04,1.63,0.07,1.69,0.07c0.03,0,0.22-0.01,0.58-0.02c0.36-0.01,0.78-0.04,1.27-0.07s0.9-0.05,1.22-0.05
			c0.44,0,0.67,0.09,0.67,0.27c0,0.24-0.16,0.36-0.49,0.36c-0.74,0-1.38,0.15-1.91,0.45c-0.62,0.45-1.32,1.62-2.09,3.52
			c-0.3,0.72-1.78,4.18-4.44,10.37c-2.61,6.22-4.25,10.01-4.93,11.37c-0.15,0.3-0.3,0.62-0.44,0.95c-0.15,0.33-0.27,0.59-0.36,0.77
			c-0.09,0.18-0.18,0.37-0.27,0.56c-0.09,0.2-0.16,0.34-0.2,0.43c-0.04,0.09-0.1,0.17-0.16,0.25c-0.06,0.07-0.12,0.13-0.18,0.16
			c-0.06,0.03-0.12,0.05-0.18,0.05c-0.27,0-0.48-0.15-0.64-0.45C237.87,36.09,237.58,35.4,237.17,34.31z"/>
		<path class="st0" d="M264.41,25.2v-6.76c0-4.66-0.03-7.4-0.09-8.21c-0.06-0.66-0.2-1.16-0.42-1.49c-0.22-0.33-0.64-0.56-1.27-0.68
			c-0.36-0.06-0.71-0.09-1.07-0.09c-0.39,0-0.58-0.09-0.58-0.27c0-0.24,0.22-0.36,0.67-0.36c0.27,0,0.87,0.02,1.82,0.05
			c0.95,0.03,1.87,0.06,2.76,0.09c5.42,0,8.43-0.01,9.02-0.04c0.89-0.03,1.47-0.11,1.73-0.23c0.27-0.09,0.43-0.14,0.49-0.14
			c0.12,0,0.18,0.11,0.18,0.32c0,0.06-0.05,0.31-0.16,0.74c-0.1,0.44-0.17,0.86-0.2,1.29c-0.09,1.29-0.13,2.07-0.13,2.34
			c0,0.45-0.1,0.68-0.31,0.68c-0.21,0-0.31-0.17-0.31-0.5c-0.03-0.57-0.13-1.05-0.31-1.44c-0.15-0.48-0.4-0.81-0.76-0.99
			s-1.07-0.3-2.13-0.36c-0.77-0.06-2.46-0.09-5.07-0.09c-0.15,0-0.22,0.12-0.22,0.36v10.24c0,0.3,0.09,0.45,0.27,0.45
			c3.05,0,5.05-0.04,6-0.13c1.07-0.06,1.75-0.29,2.04-0.68c0.15-0.24,0.31-0.36,0.49-0.36c0.12,0,0.18,0.09,0.18,0.27
			c0,0.06-0.02,0.2-0.04,0.41c-0.03,0.21-0.07,0.5-0.13,0.88c-0.06,0.38-0.1,0.74-0.13,1.1c-0.06,0.51-0.1,1.09-0.13,1.74
			c-0.03,0.65-0.04,0.98-0.04,1.01c-0.03,0.33-0.13,0.5-0.31,0.5s-0.27-0.2-0.27-0.59c0-0.36-0.04-0.72-0.13-1.08
			c-0.24-0.81-0.95-1.26-2.13-1.35c-1.36-0.12-3.14-0.18-5.33-0.18c-0.21,0-0.31,0.11-0.31,0.32v3.29c0,0.27,0,0.92,0,1.94
			c0,1.02,0,1.92,0,2.68s0,1.27,0,1.51c0.06,0.9,0.17,1.57,0.33,2.01c0.16,0.44,0.47,0.74,0.91,0.92c0.56,0.27,1.64,0.41,3.24,0.41
			c1.63,0,2.75-0.09,3.38-0.27s1.06-0.49,1.31-0.92c0.25-0.44,0.48-1.12,0.69-2.05c0.09-0.42,0.22-0.63,0.4-0.63
			s0.27,0.23,0.27,0.68c0,0.75-0.16,2.06-0.49,3.92c-0.09,0.45-0.25,0.73-0.49,0.83c-0.24,0.11-0.73,0.16-1.47,0.16
			c-1.1,0-2.22-0.02-3.38-0.04c-1.16-0.03-1.94-0.04-2.35-0.04c-3.11-0.09-4.86-0.14-5.24-0.14c-0.33,0-0.81,0.02-1.44,0.07
			c-0.64,0.04-1.13,0.07-1.49,0.07c-0.42,0-0.62-0.11-0.62-0.32s0.13-0.32,0.4-0.32s0.56-0.04,0.89-0.14
			c0.44-0.09,0.78-0.38,1.02-0.88c0.24-0.5,0.37-1.39,0.4-2.68C264.38,29.97,264.41,27.7,264.41,25.2z"/>
		<path class="st0" d="M292.04,25.2v-6.76c0-4.69-0.03-7.44-0.09-8.25c-0.06-0.66-0.21-1.16-0.44-1.49
			c-0.24-0.33-0.68-0.56-1.33-0.68c-0.36-0.06-0.71-0.09-1.07-0.09c-0.33,0-0.49-0.09-0.49-0.27c0-0.21,0.18-0.32,0.53-0.32
			s0.76,0.01,1.2,0.02c0.44,0.02,0.87,0.03,1.27,0.05c0.4,0.02,0.76,0.02,1.09,0.02c0.33,0,0.61,0,0.84,0l0.31,0.04
			c0.06,0,0.73-0.02,2.02-0.07c1.29-0.05,2.17-0.07,2.64-0.07c3.26,0,5.69,0.57,7.29,1.71c1.78,1.32,2.67,3.16,2.67,5.5
			c0,3.1-1.57,5.94-4.71,8.52c3.94,4.93,6.67,8.19,8.18,9.79c1.54,1.59,3.11,2.51,4.71,2.75c0.41,0.06,0.87,0.09,1.38,0.09
			c0.33,0,0.49,0.11,0.49,0.32s-0.27,0.32-0.8,0.32h-3.11c-1.84,0-3.18-0.18-4.04-0.54c-0.27-0.12-0.52-0.25-0.75-0.41
			c-0.24-0.15-0.49-0.35-0.76-0.61c-0.27-0.25-0.5-0.48-0.69-0.68c-0.19-0.19-0.45-0.49-0.78-0.88c-0.33-0.39-0.58-0.7-0.76-0.92
			s-0.47-0.61-0.87-1.15c-0.4-0.54-0.7-0.95-0.91-1.22c-0.65-0.84-1.49-1.92-2.51-3.25c-1.02-1.32-1.61-2.09-1.75-2.3
			c-0.18-0.18-0.36-0.27-0.53-0.27l-4.58-0.04c-0.15,0-0.22,0.08-0.22,0.22v0.63c0,4.6,0.07,7.44,0.22,8.52
			c0.06,0.45,0.12,0.8,0.18,1.04c0.06,0.24,0.21,0.47,0.47,0.7c0.25,0.23,0.61,0.37,1.09,0.43c0.59,0.06,1.02,0.09,1.29,0.09
			c0.38,0,0.58,0.09,0.58,0.27c0,0.24-0.21,0.36-0.62,0.36c-0.68,0-1.42-0.01-2.22-0.02c-0.8-0.01-1.47-0.04-2-0.07l-0.75-0.04
			c-0.21,0-0.79,0.02-1.76,0.07s-1.67,0.07-2.11,0.07c-0.42,0-0.62-0.12-0.62-0.36c0-0.18,0.18-0.27,0.53-0.27
			c0.41,0,0.74-0.03,0.98-0.09c0.65-0.12,1.04-0.69,1.16-1.71C291.99,33.04,292.04,30.13,292.04,25.2z M295.47,9.37v12.27
			c0,0.27,0.07,0.45,0.22,0.54c0.71,0.39,2.03,0.59,3.96,0.59c1.3,0,2.29-0.23,2.98-0.68c1.48-0.96,2.22-2.87,2.22-5.73
			c0-2.44-0.58-4.31-1.75-5.64c-1.17-1.32-2.76-1.98-4.78-1.98c-1.13,0-1.99,0.08-2.58,0.23C295.56,9.03,295.47,9.16,295.47,9.37z"
			/>
		<path class="st0" d="M330.88,36.84c-2.07,0-3.84-0.33-5.29-0.99c-0.27-0.12-0.43-0.26-0.49-0.43c-0.06-0.17-0.09-0.53-0.09-1.11
			c0-1.14,0.06-2.55,0.18-4.24c0.06-0.42,0.18-0.63,0.36-0.63c0.21,0,0.31,0.15,0.31,0.45c0,0.54,0.04,0.99,0.13,1.35
			c0.27,1.38,0.94,2.41,2.02,3.07c1.08,0.66,2.33,0.99,3.75,0.99c1.72,0,3.06-0.49,4.02-1.47c0.96-0.98,1.44-2.1,1.44-3.36
			s-0.32-2.38-0.96-3.34c-0.64-0.96-1.79-2.12-3.44-3.47l-1.78-1.4c-2.01-1.62-3.38-3.08-4.09-4.38c-0.71-1.29-1.07-2.68-1.07-4.15
			c0-2.07,0.75-3.75,2.24-5.03c1.5-1.28,3.49-1.92,5.98-1.92c1.36,0,2.56,0.12,3.6,0.36c0.71,0.15,1.21,0.23,1.51,0.23
			c0.27,0,0.4,0.09,0.4,0.27l-0.04,0.59c-0.03,0.36-0.06,0.89-0.09,1.58c-0.03,0.69-0.04,1.43-0.04,2.21c0,0.63-0.1,0.95-0.31,0.95
			c-0.15,0-0.25-0.16-0.31-0.5c-0.09-0.93-0.27-1.64-0.53-2.12c-0.77-1.41-2.43-2.12-4.98-2.12c-1.36,0-2.48,0.39-3.36,1.17
			c-0.87,0.78-1.31,1.83-1.31,3.16c0,1.05,0.33,2,0.98,2.84c0.65,0.84,1.91,1.98,3.78,3.43l1.02,0.81c2.22,1.74,3.75,3.29,4.58,4.64
			c0.83,1.35,1.24,2.87,1.24,4.56c0,1.05-0.26,2.17-0.78,3.36c-0.52,1.19-1.39,2.2-2.6,3.04C335.25,36.31,333.25,36.84,330.88,36.84
			z"/>
		<path class="st0" d="M353.76,25.2v-6.76c0-4.69-0.03-7.44-0.09-8.25c-0.09-1.23-0.52-1.92-1.29-2.07
			c-0.18-0.03-0.38-0.06-0.6-0.09c-0.22-0.03-0.36-0.04-0.42-0.04c-0.33-0.06-0.49-0.17-0.49-0.32c0-0.21,0.22-0.32,0.67-0.32
			c0.41,0,0.95,0.02,1.6,0.05c0.65,0.03,1.23,0.04,1.73,0.04l0.71,0.04c0.03,0,0.3-0.01,0.8-0.02c0.5-0.01,1.07-0.04,1.71-0.07
			c0.64-0.03,1.13-0.05,1.49-0.05c0.44,0,0.67,0.11,0.67,0.32c0,0.18-0.16,0.29-0.49,0.32c-0.09,0.03-0.22,0.05-0.4,0.07
			c-0.18,0.02-0.31,0.02-0.4,0.02c-0.42,0.06-0.73,0.19-0.96,0.38c-0.22,0.2-0.36,0.41-0.42,0.65c-0.06,0.24-0.1,0.62-0.13,1.13
			c-0.03,0.42-0.04,3.16-0.04,8.21v6.76c0,4.63,0.06,7.38,0.18,8.25c0.09,0.69,0.22,1.18,0.4,1.47c0.18,0.29,0.55,0.49,1.11,0.61
			c0.5,0.12,1.07,0.18,1.69,0.18c0.33,0.03,0.49,0.14,0.49,0.32c0,0.21-0.21,0.32-0.62,0.32c-0.68,0-1.42-0.01-2.22-0.02
			c-0.8-0.01-1.47-0.04-2-0.07c-0.53-0.03-0.82-0.04-0.84-0.04s-0.29,0.01-0.78,0.02c-0.49,0.01-1.06,0.04-1.71,0.07
			s-1.16,0.05-1.51,0.05c-0.47,0-0.71-0.11-0.71-0.32s0.19-0.32,0.58-0.32c0.36,0,0.71-0.04,1.07-0.14
			c0.53-0.12,0.87-0.84,1.02-2.16C353.69,32.33,353.76,29.59,353.76,25.2z"/>
		<path class="st0" d="M375.63,25.11v-6.67c0-4.72-0.03-7.47-0.09-8.25c-0.06-0.63-0.21-1.11-0.44-1.44
			c-0.24-0.33-0.67-0.56-1.29-0.68c-0.36-0.06-0.79-0.09-1.29-0.09c-0.3,0-0.44-0.09-0.44-0.27c0-0.24,0.22-0.36,0.67-0.36
			c0.53,0,1.18,0.02,1.96,0.05s1.42,0.04,1.96,0.04l0.84,0.04c0.06,0,0.34-0.01,0.84-0.02c0.5-0.01,1.16-0.04,1.96-0.07
			s1.57-0.05,2.31-0.05c0.06,0,0.47,0,1.24,0c0.77,0,1.27,0,1.49,0c0.22,0,0.73,0.02,1.51,0.05c0.78,0.03,1.36,0.07,1.71,0.11
			s0.91,0.12,1.67,0.23c0.76,0.11,1.36,0.23,1.8,0.38s1.01,0.34,1.69,0.56c0.68,0.23,1.26,0.48,1.73,0.77
			c0.47,0.29,0.99,0.62,1.56,1.01c0.56,0.39,1.07,0.83,1.51,1.31c2.52,2.56,3.78,5.79,3.78,9.7c0,4.27-1.41,7.86-4.22,10.78
			c-2.9,2.95-6.86,4.42-11.86,4.42c-1.84,0-3.69-0.08-5.55-0.23c-0.5-0.03-1.01-0.06-1.53-0.09c-0.52-0.03-0.92-0.06-1.2-0.09
			c-0.28-0.03-0.44-0.04-0.47-0.04c-0.44,0-0.95,0.01-1.51,0.04c-0.3,0-0.75,0.01-1.36,0.04s-1.01,0.05-1.22,0.05
			c-0.42,0-0.62-0.11-0.62-0.32s0.16-0.32,0.49-0.32c0.33,0,0.67-0.04,1.02-0.14c0.59-0.12,0.98-0.81,1.16-2.07
			C375.55,32.57,375.63,29.77,375.63,25.11z M379.27,17.72v4.55c0,1.2,0.01,2.44,0.02,3.7c0.01,1.26,0.02,2.31,0.02,3.13
			c0,0.83,0,1.3,0,1.42c0.06,1.68,0.21,2.69,0.44,3.02c0.74,1.14,2.92,1.71,6.53,1.71c3.85,0,6.93-1.17,9.24-3.52
			c1.93-1.95,2.89-4.95,2.89-8.98c0-3.97-1.27-7.2-3.82-9.7c-1.72-1.74-3.57-2.89-5.55-3.45s-4.31-0.83-6.98-0.83
			c-1.18,0-1.94,0.11-2.27,0.32c-0.33,0.15-0.49,0.41-0.49,0.77C379.28,10.74,379.27,13.36,379.27,17.72z"/>
		<path class="st0" d="M426.1,25.34h-8.09c-0.21,0-0.36,0.12-0.44,0.36l-1.96,5.64c-0.5,1.44-0.76,2.51-0.76,3.2
			c0,0.78,0.49,1.17,1.47,1.17h0.31c0.36,0,0.53,0.11,0.53,0.32s-0.22,0.32-0.67,0.32c-0.36,0-1-0.02-1.93-0.07
			c-0.93-0.04-1.46-0.07-1.58-0.07c-0.03,0-0.56,0.02-1.6,0.07s-1.93,0.07-2.67,0.07c-0.47,0-0.71-0.11-0.71-0.32
			s0.18-0.32,0.53-0.32c0.42,0,0.71-0.01,0.89-0.04c0.86-0.09,1.53-0.42,2.02-0.99c0.49-0.57,0.96-1.43,1.4-2.57l8.89-23.77
			c0.24-0.66,0.41-1.08,0.53-1.26c0.12-0.18,0.25-0.27,0.4-0.27c0.21,0,0.5,0.48,0.89,1.44c0.06,0.15,1.35,3.44,3.87,9.88
			c2.52,6.43,4.24,10.76,5.15,12.99c1.01,2.47,2.13,3.92,3.38,4.38c0.38,0.15,0.89,0.23,1.51,0.23c0.36,0,0.53,0.11,0.53,0.32
			s-0.22,0.32-0.67,0.32c-2.52,0-4.77-0.03-6.75-0.09c-0.74-0.03-1.11-0.13-1.11-0.32c0-0.15,0.1-0.25,0.31-0.32
			c0.33-0.15,0.38-0.48,0.18-0.99l-3.51-9.07C426.37,25.41,426.25,25.34,426.1,25.34z M418.46,23.76h7.11
			c0.15,0,0.19-0.09,0.13-0.27l-3.51-9.97c-0.15-0.45-0.31-0.45-0.49,0l-3.33,9.97C418.28,23.67,418.31,23.76,418.46,23.76z"/>
		<path class="st0" d="M447.88,25.11v-6.67c0-4.72-0.03-7.47-0.09-8.25c-0.06-0.63-0.21-1.11-0.44-1.44
			c-0.24-0.33-0.67-0.56-1.29-0.68c-0.36-0.06-0.79-0.09-1.29-0.09c-0.3,0-0.44-0.09-0.44-0.27c0-0.24,0.22-0.36,0.67-0.36
			c0.53,0,1.18,0.02,1.96,0.05s1.42,0.04,1.96,0.04l0.84,0.04c0.06,0,0.34-0.01,0.84-0.02c0.5-0.01,1.16-0.04,1.96-0.07
			s1.57-0.05,2.31-0.05c0.06,0,0.47,0,1.24,0c0.77,0,1.27,0,1.49,0c0.22,0,0.73,0.02,1.51,0.05c0.78,0.03,1.36,0.07,1.71,0.11
			s0.91,0.12,1.67,0.23c0.76,0.11,1.36,0.23,1.8,0.38s1.01,0.34,1.69,0.56c0.68,0.23,1.26,0.48,1.73,0.77
			c0.47,0.29,0.99,0.62,1.56,1.01c0.56,0.39,1.07,0.83,1.51,1.31c2.52,2.56,3.78,5.79,3.78,9.7c0,4.27-1.41,7.86-4.22,10.78
			c-2.9,2.95-6.86,4.42-11.86,4.42c-1.84,0-3.69-0.08-5.55-0.23c-0.5-0.03-1.01-0.06-1.53-0.09c-0.52-0.03-0.92-0.06-1.2-0.09
			c-0.28-0.03-0.44-0.04-0.47-0.04c-0.44,0-0.95,0.01-1.51,0.04c-0.3,0-0.75,0.01-1.36,0.04s-1.01,0.05-1.22,0.05
			c-0.42,0-0.62-0.11-0.62-0.32s0.16-0.32,0.49-0.32c0.33,0,0.67-0.04,1.02-0.14c0.59-0.12,0.98-0.81,1.16-2.07
			C447.8,32.57,447.88,29.77,447.88,25.11z M451.52,17.72v4.55c0,1.2,0.01,2.44,0.02,3.7c0.01,1.26,0.02,2.31,0.02,3.13
			c0,0.83,0,1.3,0,1.42c0.06,1.68,0.21,2.69,0.44,3.02c0.74,1.14,2.92,1.71,6.53,1.71c3.85,0,6.93-1.17,9.24-3.52
			c1.93-1.95,2.89-4.95,2.89-8.98c0-3.97-1.27-7.2-3.82-9.7c-1.72-1.74-3.57-2.89-5.55-3.45s-4.31-0.83-6.98-0.83
			c-1.18,0-1.94,0.11-2.27,0.32c-0.33,0.15-0.49,0.41-0.49,0.77C451.53,10.74,451.52,13.36,451.52,17.72z"/>
		<path class="st0" d="M507.2,25.11v-6.67c0-4.72-0.03-7.47-0.09-8.25c-0.06-0.63-0.21-1.11-0.44-1.44
			c-0.24-0.33-0.67-0.56-1.29-0.68c-0.36-0.06-0.79-0.09-1.29-0.09c-0.3,0-0.44-0.09-0.44-0.27c0-0.24,0.22-0.36,0.67-0.36
			c0.53,0,1.18,0.02,1.96,0.05s1.42,0.04,1.96,0.04l0.84,0.04c0.06,0,0.34-0.01,0.84-0.02c0.5-0.01,1.16-0.04,1.96-0.07
			s1.57-0.05,2.31-0.05c0.06,0,0.47,0,1.24,0c0.77,0,1.27,0,1.49,0c0.22,0,0.73,0.02,1.51,0.05c0.78,0.03,1.36,0.07,1.71,0.11
			s0.91,0.12,1.67,0.23c0.76,0.11,1.36,0.23,1.8,0.38s1.01,0.34,1.69,0.56c0.68,0.23,1.26,0.48,1.73,0.77
			c0.47,0.29,0.99,0.62,1.56,1.01c0.56,0.39,1.07,0.83,1.51,1.31c2.52,2.56,3.78,5.79,3.78,9.7c0,4.27-1.41,7.86-4.22,10.78
			c-2.9,2.95-6.86,4.42-11.86,4.42c-1.84,0-3.69-0.08-5.55-0.23c-0.5-0.03-1.01-0.06-1.53-0.09c-0.52-0.03-0.92-0.06-1.2-0.09
			c-0.28-0.03-0.44-0.04-0.47-0.04c-0.44,0-0.95,0.01-1.51,0.04c-0.3,0-0.75,0.01-1.36,0.04s-1.01,0.05-1.22,0.05
			c-0.42,0-0.62-0.11-0.62-0.32s0.16-0.32,0.49-0.32c0.33,0,0.67-0.04,1.02-0.14c0.59-0.12,0.98-0.81,1.16-2.07
			C507.12,32.57,507.2,29.77,507.2,25.11z M510.84,17.72v4.55c0,1.2,0.01,2.44,0.02,3.7c0.01,1.26,0.02,2.31,0.02,3.13
			c0,0.83,0,1.3,0,1.42c0.06,1.68,0.21,2.69,0.44,3.02c0.74,1.14,2.92,1.71,6.53,1.71c3.85,0,6.93-1.17,9.24-3.52
			c1.93-1.95,2.89-4.95,2.89-8.98c0-3.97-1.27-7.2-3.82-9.7c-1.72-1.74-3.57-2.89-5.55-3.45s-4.31-0.83-6.98-0.83
			c-1.18,0-1.94,0.11-2.27,0.32c-0.33,0.15-0.49,0.41-0.49,0.77C510.86,10.74,510.84,13.36,510.84,17.72z"/>
		<path class="st0" d="M547.19,25.2v-6.76c0-4.66-0.03-7.4-0.09-8.21c-0.06-0.66-0.2-1.16-0.42-1.49c-0.22-0.33-0.64-0.56-1.27-0.68
			c-0.36-0.06-0.71-0.09-1.07-0.09c-0.39,0-0.58-0.09-0.58-0.27c0-0.24,0.22-0.36,0.67-0.36c0.27,0,0.87,0.02,1.82,0.05
			s1.87,0.06,2.75,0.09c5.42,0,8.43-0.01,9.02-0.04c0.89-0.03,1.47-0.11,1.73-0.23c0.27-0.09,0.43-0.14,0.49-0.14
			c0.12,0,0.18,0.11,0.18,0.32c0,0.06-0.05,0.31-0.16,0.74c-0.1,0.44-0.17,0.86-0.2,1.29c-0.09,1.29-0.13,2.07-0.13,2.34
			c0,0.45-0.1,0.68-0.31,0.68s-0.31-0.17-0.31-0.5c-0.03-0.57-0.13-1.05-0.31-1.44c-0.15-0.48-0.4-0.81-0.75-0.99
			s-1.07-0.3-2.13-0.36c-0.77-0.06-2.46-0.09-5.07-0.09c-0.15,0-0.22,0.12-0.22,0.36v10.24c0,0.3,0.09,0.45,0.27,0.45
			c3.05,0,5.05-0.04,6-0.13c1.07-0.06,1.75-0.29,2.04-0.68c0.15-0.24,0.31-0.36,0.49-0.36c0.12,0,0.18,0.09,0.18,0.27
			c0,0.06-0.01,0.2-0.04,0.41c-0.03,0.21-0.07,0.5-0.13,0.88s-0.1,0.74-0.13,1.1c-0.06,0.51-0.1,1.09-0.13,1.74
			s-0.04,0.98-0.04,1.01c-0.03,0.33-0.13,0.5-0.31,0.5s-0.27-0.2-0.27-0.59c0-0.36-0.04-0.72-0.13-1.08
			c-0.24-0.81-0.95-1.26-2.13-1.35c-1.36-0.12-3.14-0.18-5.33-0.18c-0.21,0-0.31,0.11-0.31,0.32v3.29c0,0.27,0,0.92,0,1.94
			c0,1.02,0,1.92,0,2.68s0,1.27,0,1.51c0.06,0.9,0.17,1.57,0.33,2.01s0.47,0.74,0.91,0.92c0.56,0.27,1.64,0.41,3.24,0.41
			c1.63,0,2.75-0.09,3.38-0.27s1.06-0.49,1.31-0.92c0.25-0.44,0.48-1.12,0.69-2.05c0.09-0.42,0.22-0.63,0.4-0.63
			s0.27,0.23,0.27,0.68c0,0.75-0.16,2.06-0.49,3.92c-0.09,0.45-0.25,0.73-0.49,0.83c-0.24,0.11-0.73,0.16-1.47,0.16
			c-1.1,0-2.22-0.02-3.38-0.04c-1.16-0.03-1.94-0.04-2.36-0.04c-3.11-0.09-4.86-0.14-5.24-0.14c-0.33,0-0.81,0.02-1.44,0.07
			s-1.13,0.07-1.49,0.07c-0.42,0-0.62-0.11-0.62-0.32s0.13-0.32,0.4-0.32s0.56-0.04,0.89-0.14c0.44-0.09,0.78-0.38,1.02-0.88
			s0.37-1.39,0.4-2.68C547.16,29.97,547.19,27.7,547.19,25.2z"/>
	</g>
	<g>
		<path class="st0" d="M136.1,110.01c-8.45-7.35-10.87-16.37-10.87-25.74c0-5.95,1.98-16.81,10.7-24.25
			c7.42-6.39,16.05-9.02,28.56-9.02c4.92,0,8.89,0.53,12.25,1.05c3.88,0.61,5.95,1.05,8.54,1.14c0.95,0.09,0.95,0.61,0.95,1.14
			c0,0.7-0.26,2.8-0.43,5.78c-0.17,2.89-0.09,8.05-0.26,10.24c-0.09,1.31-0.26,2.1-1.04,2.1c-0.69,0-0.95-0.61-1.04-1.84
			c-0.09-1.93-0.43-5.43-3.28-8.58c-3.02-3.24-9.06-5.52-17.43-5.52c-5.09,0-9.32,1.23-12.68,4.2c-5.26,4.64-7.59,12.78-7.59,22.15
			c0,18.04,9.66,30.12,24.16,30.12c7.07,0,11.47-0.61,14.84-4.46c1.21-1.31,2.16-3.24,2.85-5.87c0.43-1.84,0.69-2.45,1.38-2.45
			c0.6,0,0.69,0.88,0.69,1.58c0,1.49-1.04,9.11-1.9,13.31c-0.17,1.31-0.78,2.01-2.24,2.54c-3.45,1.4-9.32,2.01-14.84,2.01
			C156.21,119.64,145.16,117.71,136.1,110.01z"/>
		<path class="st0" d="M218.66,77.61c0-14.27-0.09-16.02-0.26-18.82c-0.17-2.54-0.95-4.03-3.11-4.55c-0.78-0.17-1.98-0.17-2.85-0.26
			c-1.12-0.09-1.55-0.44-1.55-0.96s0.52-0.79,1.9-0.79c4.92,0,9.06,0.26,12.85,0.26c1.81,0,22.95-0.09,24.33-0.09
			c1.73,0,3.8-0.17,4.66-0.35c0.6-0.18,1.04-0.35,1.38-0.35c0.43,0,0.52,0.35,0.52,0.79s-0.17,1.31-0.43,3.85
			c-0.26,1.75-0.43,4.82-0.69,9.37c0,0.7-0.35,1.23-0.86,1.23c-0.43,0-0.78-0.44-0.86-1.23c0-0.96-0.09-1.84-0.43-3.06
			c-0.43-2.01-1.55-3.15-5.69-3.5c-2.85-0.26-10.35-0.44-12.94-0.44c-0.52,0-0.69,0.26-0.69,0.88v19.26c0,0.61,0.09,1.05,0.69,1.05
			c2.42,0.09,9.4,0,12.51-0.09c4.23-0.18,5.35-0.44,6.3-2.01c0.52-0.79,0.78-1.14,1.21-1.14c0.52,0,0.52,0.53,0.52,1.05
			c0,0.88-0.43,4.03-0.69,7.44c-0.09,2.01-0.09,6.3-0.09,7.27c0,1.14-0.26,1.66-0.78,1.66c-0.6,0-0.78-0.61-0.95-1.4
			c-0.09-0.7-0.17-1.31-0.26-2.01c-0.35-2.54-1.55-4.03-5.78-4.29c-2.42-0.18-9.49-0.35-12.16-0.35c-0.43,0-0.52,0.44-0.52,1.14
			v6.04c0,2.98-0.09,8.14,0,11.47c0.09,6.13,1.29,7.53,10.87,7.53c2.24,0,5.61-0.09,8.02-1.05c2.42-0.96,3.45-2.89,4.23-6.92
			c0.17-1.05,0.52-1.58,1.04-1.58c0.69,0,0.78,0.88,0.78,1.93c0,3.42-0.95,10.07-1.38,11.73c-0.6,2.28-1.21,2.36-4.4,2.36
			c-11.91,0-18.38-0.53-27.44-0.53c-4.05,0-7.68,0.26-12.42,0.26c-1.55,0-2.07-0.26-2.07-0.88c0-0.44,0.43-0.88,1.73-0.88
			c1.04-0.09,1.9-0.17,2.59-0.35c2.42-0.35,2.76-3.68,2.93-9.19c0.17-3.5,0.26-8.67,0.26-14.1V77.61z"/>
		<path class="st0" d="M306.05,93.11c0,8.84-0.26,15.15,1.21,16.99c1.21,1.66,2.85,2.1,10.01,2.1c4.75,0,7.51-0.09,9.92-1.4
			c2.07-0.96,3.54-3.24,4.49-7.35c0.26-0.96,0.43-1.66,1.12-1.66c0.6,0,0.69,0.44,0.69,1.66c0,2.01-0.95,10.33-1.81,12.87
			c-0.69,2.28-1.38,2.36-4.83,2.36c-11.91,0-19.93-0.53-29.07-0.53c-4.05,0-8.71,0.26-13.46,0.26c-1.21,0-1.9-0.17-1.9-0.96
			c0-0.53,0.52-0.79,1.73-0.79c1.04-0.09,1.98-0.17,2.93-0.35c3.1-0.53,3.19-2.1,3.45-9.11c0.17-3.5,0.26-8.76,0.26-14.18V77.61
			c0-14.27-0.09-15.85-0.26-18.65c-0.17-2.45-0.78-3.94-2.93-4.55c-0.78-0.26-2.07-0.35-3.36-0.44c-0.95,0-1.81-0.17-1.81-0.88
			c0-0.7,0.86-0.88,2.59-0.88c4.92,0,9.4,0.26,12.77,0.26c0.78,0,11.47-0.26,14.58-0.26c1.55,0,2.07,0.26,2.07,0.79
			c0,0.79-0.86,0.96-2.07,0.96c-0.86,0.09-1.73,0.09-2.93,0.35c-2.33,0.44-2.93,2.1-3.11,5.17c-0.17,2.8-0.26,4.55-0.26,19V93.11z"
			/>
		<path class="st0" d="M374.55,100.29c-0.43,0-0.6,0.17-0.78,0.61l-2.67,7.18c-0.86,2.28-1.38,4.55-1.38,5.6
			c0,1.66,0.78,2.45,2.59,2.63c0.95,0.18,2.33,0.26,3.02,0.35c1.29,0,1.55,0.44,1.55,0.88c0,0.7-0.69,0.88-1.81,0.88
			c-3.88,0-6.82-0.26-11.39-0.26c-0.95,0-6.64,0.26-10.96,0.26c-1.21,0-1.73-0.35-1.73-0.88c0-0.7,0.6-0.88,1.64-0.88
			c1.04-0.09,1.9-0.17,2.76-0.35c3.02-0.61,4.75-3.33,6.56-7.53l23.04-52.88c1.64-3.76,2.59-5.08,3.54-5.08
			c0.86,0,1.64,1.23,3.11,4.38c2.24,4.9,16.74,38.44,22.6,51.75c2.93,6.83,4.83,8.93,7.85,9.37c0.95,0.26,1.98,0.26,2.76,0.35
			c1.12,0,1.64,0.35,1.64,0.88c0,0.61-0.6,0.88-2.24,0.88c-8.46,0-18.29-0.17-23.81-0.26c-1.38,0-1.9-0.26-1.9-0.79
			s0.43-0.88,1.21-1.05c0.95-0.17,1.29-0.79,1.04-1.58l-5.78-13.92c-0.09-0.35-0.43-0.53-0.69-0.53H374.55z M391.8,93.28
			c0.52,0,0.52-0.26,0.43-0.44l-7.59-18.74c-0.26-0.61-0.43-0.44-0.6,0l-7.33,18.74c-0.09,0.26,0.09,0.44,0.34,0.44H391.8z"/>
		<path class="st0" d="M453.48,95.73c0-4.73-0.95-6.48-2.42-9.37c-3.19-5.95-11.73-20.4-14.67-24.87c-3.28-5.08-4.23-6.22-6.99-7.09
			c-0.52-0.17-1.55-0.35-2.24-0.44c-0.86-0.09-1.29-0.44-1.29-0.96c0-0.61,0.69-0.79,1.73-0.79c3.54,0,10.01,0.26,13.29,0.26
			c1.47,0,6.9-0.26,12.34-0.26c0.95,0,1.64,0.17,1.64,0.7c0,0.7-0.43,0.88-1.73,1.14c-2.33,0.26-2.67,1.14-2.67,1.84
			c0,0.61,0.26,1.4,0.86,2.54c1.38,2.54,12.16,21.98,13.54,24.6c5.26-10.07,9.92-18.82,11.56-22.33c0.86-1.84,1.38-3.33,1.38-4.47
			c0-0.96-0.52-1.75-3.11-2.19c-0.78-0.18-1.47-0.44-1.47-1.05c0-0.53,0.52-0.79,1.9-0.79c3.54,0,6.47,0.26,9.75,0.26
			c1.21,0,8.28-0.26,9.92-0.26c1.04,0,1.73,0.17,1.73,0.79c0,0.7-0.6,0.96-1.73,0.96c-1.12,0.09-2.33,0.35-3.36,0.7
			c-2.42,0.96-3.28,2.45-4.83,4.47c-2.93,3.68-15.27,25.13-16.48,28.81c-1.29,3.68-1.38,7.09-1.38,8.32v6.22c0,1.4,0,4.99,0.26,8.67
			c0.17,2.19,0.35,4.38,3.54,4.99c1.55,0.35,3.28,0.35,4.75,0.53c1.04,0.09,1.38,0.35,1.38,0.96c0,0.44-0.43,0.79-1.73,0.79
			c-6.21,0-13.37-0.26-16.22-0.26c-2.5,0-9.49,0.26-13.37,0.26c-1.21,0-1.73-0.35-1.73-0.96c0-0.44,0.52-0.79,1.55-0.79
			c1.38-0.17,2.24-0.17,3.02-0.44c2.24-0.61,2.76-2.19,2.93-4.73c0.26-3.68,0.34-7.62,0.34-9.02V95.73z"/>
		<path class="st0" d="M519.65,100.29c-0.43,0-0.6,0.17-0.78,0.61l-2.67,7.18c-0.86,2.28-1.38,4.55-1.38,5.6
			c0,1.66,0.78,2.45,2.59,2.63c0.95,0.18,2.33,0.26,3.02,0.35c1.29,0,1.55,0.44,1.55,0.88c0,0.7-0.69,0.88-1.81,0.88
			c-3.88,0-6.82-0.26-11.39-0.26c-0.95,0-6.64,0.26-10.96,0.26c-1.21,0-1.73-0.35-1.73-0.88c0-0.7,0.6-0.88,1.64-0.88
			c1.04-0.09,1.9-0.17,2.76-0.35c3.02-0.61,4.75-3.33,6.56-7.53l23.04-52.88c1.64-3.76,2.59-5.08,3.54-5.08
			c0.86,0,1.64,1.23,3.11,4.38c2.24,4.9,16.74,38.44,22.6,51.75c2.93,6.83,4.83,8.93,7.85,9.37c0.95,0.26,1.98,0.26,2.76,0.35
			c1.12,0,1.64,0.35,1.64,0.88c0,0.61-0.6,0.88-2.24,0.88c-8.45,0-18.29-0.17-23.81-0.26c-1.38,0-1.9-0.26-1.9-0.79
			s0.43-0.88,1.21-1.05c0.95-0.17,1.29-0.79,1.04-1.58l-5.78-13.92c-0.09-0.35-0.43-0.53-0.69-0.53H519.65z M536.9,93.28
			c0.52,0,0.52-0.26,0.43-0.44l-7.59-18.74c-0.26-0.61-0.43-0.44-0.6,0l-7.33,18.74c-0.09,0.26,0.09,0.44,0.34,0.44H536.9z"/>
	</g>
	<g>
		<g>
			<path class="st1" d="M53.14,3.17c-27.55,0-49.96,27.04-49.96,60.27c0,33.24,22.41,60.27,49.96,60.27
				c27.55,0,49.96-27.04,49.96-60.27C103.1,30.21,80.69,3.17,53.14,3.17z M53.14,111.03c-20.55,0-37.28-21.35-37.28-47.59
				s16.72-47.59,37.28-47.59s37.27,21.35,37.27,47.59S73.69,111.03,53.14,111.03z"/>
			<linearGradient id="SVGID_1_" gradientUnits="userSpaceOnUse" x1="0" y1="63.4468" x2="106.2734" y2="63.4468">
				<stop  offset="0.1" style="stop-color:#D8CD95"/>
				<stop  offset="0.9" style="stop-color:#8C6D1B"/>
			</linearGradient>
			<path class="st2" d="M90.81,18.69C80.76,6.64,67.39,0,53.14,0S25.51,6.64,15.47,18.69C5.49,30.66,0,46.55,0,63.45
				c0,16.89,5.49,32.79,15.47,44.76c10.04,12.05,23.42,18.69,37.67,18.69s27.63-6.64,37.67-18.69
				c9.97-11.97,15.47-27.86,15.47-44.76C106.27,46.55,100.78,30.66,90.81,18.69z M53.14,123.72c-27.55,0-49.96-27.04-49.96-60.27
				c0-33.24,22.41-60.27,49.96-60.27c27.55,0,49.96,27.04,49.96,60.27C103.1,96.68,80.69,123.72,53.14,123.72z"/>
			<path class="st0" d="M53.14,18.76c-18.8,0-34.1,19.92-34.1,44.41s15.3,44.41,34.1,44.41c18.8,0,34.1-19.92,34.1-44.41
				S71.95,18.76,53.14,18.76z"/>
			
				<linearGradient id="SVGID_00000093880292428307272170000009652435231349190786_" gradientUnits="userSpaceOnUse" x1="15.8617" y1="63.4468" x2="90.4117" y2="63.4468">
				<stop  offset="0.1" style="stop-color:#D8CD95"/>
				<stop  offset="0.9" style="stop-color:#8C6D1B"/>
			</linearGradient>
			<path style="fill:url(#SVGID_00000093880292428307272170000009652435231349190786_);" d="M53.14,15.86
				c-20.55,0-37.28,21.35-37.28,47.59s16.72,47.59,37.28,47.59s37.27-21.35,37.27-47.59S73.69,15.86,53.14,15.86z M53.14,107.86
				c-18.8,0-34.1-19.92-34.1-44.41s15.3-44.41,34.1-44.41c18.8,0,34.1,19.92,34.1,44.41S71.94,107.86,53.14,107.86z"/>
			<g>
				<path class="st4" d="M28.9,108.47c-1.25,1.26-3.69,2.06-5.89-0.13c-1.83-1.81-1.91-4.01-0.24-5.69c1.67-1.68,4.16-1.85,6.03,0
					C30.9,104.74,30.19,107.16,28.9,108.47z M24.06,103.39c-1.63,1.65-1.7,3.61-0.49,4.8c0.85,0.84,2.27,1.32,4.09-0.51
					c1.52-1.53,1.87-3.58,0.46-4.98C27.61,102.2,26.17,101.27,24.06,103.39z"/>
				<path class="st4" d="M15.44,98.69c-0.17,0.06-0.28,0.05-0.32-0.02s-0.02-0.15,0.15-0.4l3.74-5.3l-6.54,0.4
					c-0.18,0.01-0.28,0-0.33-0.08c-0.05-0.08,0.02-0.19,0.19-0.32l5.14-3.93c0.53-0.4,0.74-0.63,0.67-0.95
					c-0.06-0.31-0.16-0.49-0.22-0.61c-0.05-0.08-0.07-0.15-0.02-0.18c0.07-0.04,0.16,0.05,0.23,0.18c0.13,0.23,0.79,1.49,0.96,1.87
					c0.1,0.22,0.1,0.29,0.05,0.32c-0.05,0.03-0.09,0-0.15-0.04c-0.05-0.04-0.18-0.01-0.41,0.17l-3.68,2.75l0.02,0.04l5.21-0.31
					c0.54-0.03,0.65-0.03,0.69,0.05c0.05,0.08-0.09,0.27-0.28,0.57c-0.3,0.45-1.28,1.93-1.48,2.18c-0.15,0.19-0.98,1.36-1.49,2.06
					l0.02,0.04l3.87-1.53c0.17-0.07,0.3-0.13,0.44-0.21c0.17-0.1,0.19-0.26,0.14-0.43c-0.05-0.18-0.12-0.32-0.17-0.41
					c-0.04-0.07-0.06-0.15-0.01-0.17c0.08-0.05,0.14,0.03,0.22,0.16c0.21,0.38,0.41,0.8,0.5,0.97c0.1,0.17,0.36,0.59,0.52,0.88
					c0.05,0.09,0.07,0.17-0.01,0.22c-0.05,0.03-0.09-0.02-0.14-0.11c-0.04-0.07-0.08-0.14-0.18-0.26c-0.2-0.22-0.59-0.1-0.92,0.03
					L15.44,98.69z"/>
				<path class="st4" d="M14.89,82.29c0.77-0.23,1-0.43,1.02-0.65c0.01-0.19-0.03-0.38-0.07-0.54c-0.03-0.11-0.03-0.18,0.03-0.19
					c0.08-0.02,0.12,0.06,0.16,0.2c0.17,0.65,0.25,1.06,0.3,1.25c0.02,0.09,0.18,0.55,0.32,1.07c0.03,0.13,0.05,0.22-0.04,0.25
					c-0.06,0.02-0.1-0.04-0.12-0.14c-0.03-0.13-0.09-0.31-0.17-0.44c-0.15-0.24-0.45-0.2-1.32,0.02l-5.95,1.49
					c-0.2,0.05-0.35,0.06-0.37-0.04c-0.03-0.11,0.08-0.23,0.21-0.45c0.1-0.15,1.32-2.11,2.38-3.96c0.5-0.86,1.58-2.6,1.69-2.81
					l-0.01-0.05l-4.46,1.3c-0.61,0.17-0.77,0.31-0.81,0.58c-0.02,0.17,0.04,0.41,0.08,0.55c0.03,0.12,0.01,0.17-0.05,0.18
					c-0.08,0.02-0.12-0.09-0.16-0.24c-0.14-0.52-0.24-1.01-0.29-1.22c-0.03-0.11-0.16-0.48-0.29-0.97C6.93,77.37,6.92,77.27,7,77.25
					c0.06-0.02,0.11,0.04,0.14,0.16c0.03,0.1,0.05,0.18,0.11,0.29c0.15,0.26,0.39,0.28,0.95,0.14l6.34-1.58
					c0.22-0.06,0.32-0.04,0.35,0.05c0.03,0.11-0.05,0.26-0.13,0.4c-0.43,0.79-1.4,2.42-2.15,3.74c-0.79,1.38-1.74,2.82-1.88,3.05
					l0.01,0.03L14.89,82.29z"/>
				<path class="st4" d="M8.99,69.92c-1.57,0.13-1.86,0.16-2.18,0.21c-0.35,0.05-0.52,0.17-0.55,0.4c-0.02,0.12-0.02,0.25-0.01,0.37
					c0.01,0.1-0.01,0.17-0.09,0.17C6.1,71.08,6.07,71,6.06,70.84C6.02,70.44,6,69.79,5.97,69.49c-0.02-0.26-0.11-0.86-0.14-1.26
					c-0.01-0.13,0-0.22,0.06-0.22c0.08-0.01,0.11,0.05,0.12,0.16c0.01,0.1,0.03,0.18,0.06,0.31c0.08,0.27,0.26,0.34,0.62,0.33
					c0.33-0.01,0.62-0.03,2.19-0.17l1.82-0.16c1-0.09,1.82-0.16,2.26-0.23c0.28-0.05,0.46-0.14,0.47-0.46
					c0.01-0.15,0.01-0.37,0-0.53c-0.01-0.11,0.02-0.17,0.07-0.17c0.07-0.01,0.11,0.07,0.12,0.19c0.06,0.68,0.08,1.33,0.11,1.61
					c0.02,0.24,0.11,0.88,0.14,1.3c0.01,0.13-0.01,0.21-0.09,0.21c-0.05,0-0.09-0.03-0.1-0.16c-0.01-0.15-0.04-0.28-0.07-0.37
					c-0.06-0.2-0.24-0.25-0.54-0.25c-0.44-0.01-1.25,0.06-2.25,0.14L8.99,69.92z"/>
				<path class="st4" d="M9.34,53.85c-1.55-0.27-1.84-0.32-2.17-0.35c-0.35-0.04-0.53,0.01-0.66,0.34c-0.03,0.08-0.07,0.25-0.1,0.39
					c-0.02,0.11-0.05,0.17-0.12,0.16c-0.07-0.01-0.08-0.09-0.05-0.24c0.09-0.54,0.24-1.18,0.27-1.38c0.09-0.5,0.12-0.9,0.18-1.25
					c0.32-1.85,1.37-2,1.91-1.91c0.84,0.14,1.25,0.71,1.6,1.35c0.43-0.79,1.33-1.68,2.52-1.47c1.09,0.19,2.08,1.23,1.75,3.11
					c-0.02,0.12-0.09,0.41-0.15,0.71c-0.07,0.3-0.14,0.61-0.16,0.76c-0.02,0.11-0.06,0.34-0.09,0.58c-0.04,0.23-0.07,0.5-0.1,0.71
					c-0.02,0.13-0.07,0.2-0.14,0.19c-0.05-0.01-0.07-0.06-0.05-0.18c0.03-0.15,0.03-0.28,0.02-0.37c-0.01-0.21-0.22-0.3-0.51-0.39
					c-0.42-0.13-1.23-0.26-2.16-0.43L9.34,53.85z M9.72,52.65c0.08,0.01,0.11-0.01,0.12-0.05c0.04-0.09,0.07-0.24,0.11-0.47
					c0.06-0.34,0.06-0.57-0.07-0.77c-0.17-0.3-0.51-0.52-1.01-0.61c-0.68-0.12-1.65,0.12-1.8,1c-0.02,0.14-0.04,0.23-0.04,0.34
					c0.01,0.08,0.05,0.1,0.16,0.12L9.72,52.65z M10.77,51.45c-0.19,0.19-0.3,0.41-0.39,0.8c-0.04,0.18-0.06,0.28-0.09,0.44
					c-0.01,0.04,0.01,0.06,0.06,0.07l2.42,0.42c0.67,0.12,0.85,0.12,1.04-0.19c0.16-0.26,0.21-0.49,0.25-0.72
					c0.08-0.46-0.03-1.28-1.09-1.46C12.34,50.7,11.45,50.77,10.77,51.45z"/>
				<path class="st4" d="M12.35,44.03c-1.65-0.64-3.36-2.56-2.23-5.46c0.93-2.4,2.92-3.35,5.12-2.49c2.21,0.86,3.36,3.08,2.4,5.53
					C16.57,44.38,14.06,44.69,12.35,44.03z M15.08,37.57c-2.16-0.84-3.99-0.12-4.6,1.46c-0.43,1.11-0.31,2.61,2.1,3.55
					c2.01,0.78,4.03,0.29,4.75-1.56C17.59,40.34,17.87,38.65,15.08,37.57z"/>
				<path class="st4" d="M20.95,31.46c0.67,0.45,0.97,0.5,1.15,0.37c0.15-0.11,0.27-0.26,0.37-0.4c0.07-0.09,0.12-0.13,0.17-0.1
					c0.07,0.05,0.03,0.14-0.05,0.25c-0.39,0.55-0.66,0.87-0.77,1.03c-0.05,0.08-0.31,0.49-0.62,0.93c-0.08,0.11-0.14,0.18-0.22,0.13
					c-0.05-0.04-0.03-0.1,0.03-0.18c0.08-0.11,0.18-0.27,0.23-0.41c0.09-0.27-0.13-0.48-0.86-1.01l-4.94-3.63
					c-0.17-0.12-0.27-0.23-0.21-0.31c0.07-0.09,0.23-0.09,0.48-0.13c0.18-0.02,2.47-0.33,4.57-0.69c0.98-0.17,3.01-0.44,3.24-0.49
					l0.03-0.04l-3.85-2.61c-0.52-0.36-0.73-0.4-0.96-0.25c-0.14,0.09-0.28,0.29-0.37,0.41c-0.07,0.1-0.12,0.12-0.17,0.08
					c-0.07-0.05-0.01-0.15,0.08-0.27c0.31-0.44,0.63-0.83,0.75-1c0.07-0.09,0.27-0.43,0.56-0.84c0.08-0.11,0.15-0.19,0.21-0.14
					c0.05,0.04,0.04,0.1-0.03,0.21c-0.06,0.08-0.11,0.15-0.15,0.27c-0.1,0.28,0.03,0.48,0.5,0.82l5.26,3.88
					c0.19,0.13,0.24,0.22,0.18,0.3c-0.07,0.09-0.23,0.13-0.39,0.15c-0.88,0.17-2.76,0.47-4.25,0.73c-1.57,0.27-3.29,0.46-3.55,0.5
					l-0.02,0.03L20.95,31.46z"/>
				<path class="st4" d="M26.69,20.36c-1.08-1.4-1.56-3.92,0.9-5.82c2.04-1.58,4.22-1.37,5.68,0.5c1.45,1.87,1.29,4.37-0.79,5.98
					C30.12,22.84,27.81,21.81,26.69,20.36z M32.35,16.23c-1.42-1.83-3.36-2.15-4.7-1.11c-0.94,0.73-1.61,2.08-0.03,4.12
					c1.32,1.7,3.3,2.32,4.88,1.11C33.07,19.9,34.18,18.59,32.35,16.23z"/>
				<path class="st4" d="M45.15,7.42c-0.31-0.53-0.5-0.62-0.88-0.68c-0.16-0.02-0.32,0-0.41,0.01c-0.09,0.01-0.13-0.01-0.14-0.08
					c-0.01-0.08,0.1-0.11,0.25-0.13c0.54-0.07,1.13-0.12,1.49-0.16c0.26-0.03,0.75-0.13,1.26-0.2c0.12-0.02,0.24-0.01,0.25,0.06
					s-0.05,0.1-0.14,0.11c-0.16,0.02-0.32,0.05-0.39,0.12c-0.07,0.06-0.09,0.14-0.07,0.23c0.02,0.13,0.15,0.41,0.34,0.76l2.37,4.43
					l0.04-0.01c0.29-1.19,1.2-4.67,1.35-5.37c0.03-0.14,0.05-0.3,0.04-0.39c-0.01-0.08-0.06-0.16-0.16-0.18
					c-0.13-0.03-0.28-0.02-0.42,0c-0.09,0.01-0.18,0.01-0.19-0.06c-0.01-0.08,0.08-0.11,0.27-0.14c0.51-0.07,0.95-0.09,1.08-0.11
					c0.17-0.02,0.65-0.12,0.96-0.16c0.13-0.02,0.22-0.01,0.23,0.06c0.01,0.07-0.05,0.1-0.15,0.11c-0.1,0.01-0.32,0.04-0.49,0.19
					c-0.12,0.11-0.25,0.3-0.44,1c-0.27,1.02-0.48,1.61-0.87,2.94c-0.46,1.58-0.8,2.77-0.96,3.31c-0.19,0.63-0.23,0.8-0.37,0.82
					c-0.13,0.02-0.21-0.12-0.47-0.58L45.15,7.42z"/>
				<path class="st4" d="M58.45,9.07c0.25-1.55,0.3-1.84,0.34-2.17c0.04-0.35-0.04-0.54-0.25-0.63c-0.11-0.05-0.24-0.08-0.36-0.1
					c-0.1-0.02-0.16-0.05-0.15-0.13c0.01-0.06,0.1-0.07,0.26-0.04c0.39,0.06,1.03,0.2,1.32,0.25c0.26,0.04,0.86,0.11,1.25,0.17
					c0.13,0.02,0.21,0.06,0.2,0.12c-0.01,0.08-0.08,0.09-0.18,0.08C60.78,6.6,60.7,6.6,60.57,6.6c-0.28,0.01-0.39,0.17-0.47,0.52
					c-0.07,0.32-0.12,0.61-0.38,2.16l-0.3,1.8c-0.16,0.99-0.3,1.8-0.33,2.24c-0.01,0.28,0.03,0.48,0.33,0.57
					c0.14,0.04,0.36,0.1,0.51,0.13c0.11,0.02,0.16,0.06,0.15,0.11c-0.01,0.07-0.1,0.09-0.21,0.07c-0.67-0.11-1.31-0.25-1.59-0.29
					c-0.23-0.04-0.88-0.11-1.29-0.18c-0.13-0.02-0.2-0.06-0.19-0.14c0.01-0.05,0.05-0.08,0.18-0.05c0.15,0.03,0.28,0.02,0.37,0.02
					c0.21-0.01,0.3-0.17,0.38-0.46c0.12-0.42,0.25-1.23,0.42-2.22L58.45,9.07z"/>
				<path class="st4" d="M69.7,9.91l-1.41-0.63c-0.55-0.24-0.8-0.3-1.04-0.16c-0.16,0.1-0.26,0.19-0.31,0.25
					c-0.05,0.07-0.1,0.09-0.16,0.06c-0.07-0.03-0.06-0.09-0.01-0.19c0.07-0.15,0.65-0.92,0.71-0.98c0.09-0.11,0.14-0.15,0.2-0.12
					c0.07,0.04,0.12,0.17,0.35,0.3c0.26,0.16,0.6,0.34,0.91,0.49l3.7,1.76c0.3,0.14,0.52,0.21,0.67,0.26
					c0.15,0.04,0.24,0.06,0.27,0.07c0.07,0.03,0.05,0.09-0.02,0.23c-0.09,0.2-0.43,0.83-0.54,1.07c-0.05,0.09-0.1,0.14-0.16,0.11
					c-0.07-0.04-0.07-0.09-0.01-0.24l0.04-0.11c0.1-0.25-0.03-0.63-0.85-1.05l-1.16-0.59l-1.82,3.83c-0.41,0.86-0.76,1.6-0.91,2.02
					C68.04,16.6,68,16.83,68.26,17c0.12,0.08,0.32,0.2,0.46,0.26c0.1,0.05,0.14,0.1,0.11,0.15c-0.03,0.07-0.12,0.06-0.22,0.01
					c-0.62-0.29-1.19-0.6-1.45-0.73c-0.22-0.1-0.82-0.35-1.19-0.53c-0.12-0.06-0.17-0.12-0.14-0.18c0.02-0.05,0.07-0.06,0.19,0
					c0.14,0.07,0.26,0.1,0.35,0.12c0.2,0.05,0.36-0.13,0.52-0.39c0.23-0.37,0.58-1.11,0.99-1.97L69.7,9.91z"/>
				<path class="st4" d="M76.05,19.13c-0.04-0.03-0.07-0.03-0.12,0l-1.39,0.76c-0.25,0.13-0.45,0.28-0.53,0.38
					c-0.12,0.14-0.14,0.3,0.1,0.51l0.12,0.1c0.09,0.08,0.1,0.12,0.06,0.16c-0.05,0.06-0.11,0.04-0.2-0.04
					c-0.25-0.22-0.57-0.53-0.81-0.74c-0.09-0.07-0.54-0.42-0.95-0.77c-0.1-0.09-0.14-0.14-0.08-0.21c0.04-0.05,0.09-0.04,0.15,0.02
					c0.07,0.06,0.19,0.15,0.26,0.19c0.4,0.26,0.78,0.12,1.27-0.13l6.21-3.24c0.29-0.15,0.41-0.19,0.49-0.12
					c0.07,0.06,0.06,0.17-0.02,0.42c-0.18,0.59-1.68,4.88-2.2,6.5c-0.31,0.96-0.18,1.27-0.04,1.45c0.1,0.12,0.21,0.23,0.3,0.31
					c0.06,0.05,0.1,0.1,0.05,0.15c-0.05,0.06-0.14,0.02-0.43-0.23c-0.28-0.24-0.86-0.74-1.47-1.29c-0.13-0.13-0.23-0.21-0.18-0.27
					c0.04-0.05,0.09-0.04,0.17,0.02c0.07,0.03,0.18,0.01,0.23-0.12l0.8-2.2c0.02-0.05,0.01-0.09-0.03-0.12L76.05,19.13z
					 M77.99,20.12c0.04,0.03,0.07,0.02,0.08-0.01l0.96-2.55c0.02-0.04,0.05-0.08,0.02-0.1c-0.02-0.02-0.07,0.01-0.11,0.03
					l-2.38,1.31c-0.03,0.02-0.05,0.05-0.02,0.08L77.99,20.12z"/>
				<path class="st4" d="M84.97,33.4c-0.02-0.18,0.01-0.23,0.21-0.34c0.5-0.27,1.06-0.54,1.21-0.61c0.14-0.07,0.26-0.09,0.3-0.02
					c0.04,0.08-0.03,0.14-0.1,0.18c-0.12,0.06-0.29,0.21-0.42,0.34c-0.56,0.57-0.51,1.24-0.21,1.8c0.45,0.82,1.22,0.91,1.7,0.65
					c0.44-0.24,0.79-0.61,0.96-1.69l0.1-0.6c0.23-1.43,0.68-2.12,1.42-2.52c1-0.55,2.17-0.11,2.86,1.16
					c0.32,0.59,0.44,1.02,0.51,1.29c0.03,0.09,0.02,0.15-0.04,0.19c-0.12,0.06-0.4,0.17-1.11,0.56c-0.2,0.11-0.29,0.12-0.33,0.05
					c-0.03-0.06,0-0.12,0.11-0.18c0.08-0.04,0.34-0.24,0.47-0.56c0.1-0.23,0.23-0.64-0.1-1.23c-0.37-0.67-0.98-0.87-1.53-0.57
					c-0.42,0.23-0.62,0.61-0.78,1.68l-0.05,0.36c-0.22,1.55-0.64,2.28-1.5,2.76c-0.53,0.29-1.26,0.43-2.05,0.01
					c-0.54-0.29-0.9-0.76-1.16-1.24C85.17,34.32,85.01,33.88,84.97,33.4z"/>
				<path class="st4" d="M93.72,41c1.49-0.5,1.77-0.59,2.07-0.72c0.33-0.13,0.46-0.26,0.42-0.61c-0.01-0.09-0.05-0.26-0.1-0.39
					c-0.04-0.11-0.04-0.17,0.03-0.2c0.07-0.02,0.11,0.04,0.16,0.19c0.09,0.27,0.17,0.55,0.26,0.8c0.08,0.26,0.14,0.49,0.19,0.62
					c0.11,0.31,0.76,2.27,0.83,2.45c0.08,0.18,0.15,0.33,0.2,0.4c0.03,0.05,0.08,0.09,0.09,0.14c0.02,0.05-0.02,0.07-0.07,0.09
					c-0.07,0.02-0.2,0.01-0.66,0.14c-0.1,0.02-0.54,0.15-0.66,0.17c-0.05,0.01-0.12,0.01-0.14-0.06c-0.02-0.07,0.02-0.1,0.11-0.13
					c0.07-0.02,0.23-0.09,0.33-0.18c0.15-0.13,0.24-0.27,0.13-0.78c-0.04-0.17-0.36-1.21-0.43-1.41c-0.02-0.05-0.05-0.06-0.12-0.04
					l-2.48,0.83c-0.07,0.02-0.1,0.05-0.08,0.1c0.07,0.22,0.45,1.34,0.55,1.56c0.1,0.23,0.18,0.37,0.31,0.42
					c0.1,0.04,0.16,0.07,0.18,0.11c0.01,0.04,0,0.08-0.06,0.1c-0.06,0.02-0.23,0.03-0.74,0.16c-0.2,0.06-0.6,0.16-0.67,0.18
					c-0.08,0.03-0.19,0.06-0.22-0.03c-0.02-0.07,0.01-0.1,0.06-0.12c0.1-0.04,0.22-0.09,0.34-0.16c0.18-0.12,0.28-0.3,0.2-0.68
					c-0.04-0.19-0.36-1.17-0.44-1.4c-0.02-0.05-0.06-0.05-0.12-0.03l-0.78,0.26c-0.33,0.11-1.24,0.4-1.52,0.51
					c-0.67,0.25-0.77,0.45-0.43,1.45c0.09,0.26,0.22,0.67,0.43,0.88c0.2,0.22,0.45,0.26,0.87,0.2c0.11-0.02,0.16-0.01,0.18,0.06
					c0.03,0.08-0.05,0.1-0.15,0.14c-0.23,0.08-0.92,0.22-1.13,0.24c-0.28,0.02-0.31-0.07-0.43-0.44c-0.25-0.74-0.41-1.28-0.54-1.71
					c-0.12-0.43-0.21-0.74-0.31-1.03c-0.04-0.11-0.11-0.32-0.2-0.56c-0.08-0.23-0.18-0.47-0.25-0.67c-0.04-0.13-0.04-0.21,0.03-0.23
					c0.05-0.02,0.09,0.01,0.13,0.13c0.05,0.15,0.11,0.26,0.16,0.34c0.11,0.18,0.34,0.16,0.64,0.1c0.43-0.09,1.2-0.35,2.11-0.65
					L93.72,41z"/>
				<path class="st4" d="M96.56,51.47c1.56-0.23,1.84-0.27,2.17-0.34c0.35-0.07,0.5-0.18,0.52-0.53c0.01-0.09-0.01-0.26-0.03-0.4
					c-0.02-0.11,0-0.18,0.07-0.19c0.07-0.01,0.1,0.06,0.13,0.21c0.08,0.54,0.14,1.19,0.17,1.41c0.05,0.35,0.2,1.12,0.24,1.44
					c0.09,0.65,0.13,1.34-0.17,1.95c-0.15,0.32-0.62,0.8-1.3,0.9c-0.76,0.11-1.5-0.11-2.49-1.02c-1.01,1.08-1.82,1.92-2.37,2.62
					c-0.51,0.66-0.52,1.09-0.53,1.25c0,0.12,0,0.21,0.01,0.29c0.01,0.08-0.01,0.13-0.06,0.13c-0.08,0.01-0.11-0.06-0.13-0.18
					l-0.14-0.97c-0.08-0.57-0.07-0.84,0.03-1.12c0.17-0.47,0.6-0.93,1.3-1.62c0.5-0.49,1.13-1.06,1.27-1.22
					c0.05-0.06,0.06-0.12,0.04-0.19l-0.11-0.89c-0.01-0.05-0.03-0.08-0.09-0.07l-0.14,0.02c-0.95,0.14-1.76,0.26-2.18,0.37
					c-0.29,0.07-0.51,0.17-0.51,0.48c0,0.16,0.01,0.38,0.03,0.51c0.01,0.08-0.01,0.13-0.06,0.13c-0.07,0.01-0.11-0.06-0.13-0.19
					c-0.09-0.59-0.17-1.36-0.19-1.51c-0.03-0.19-0.15-0.84-0.21-1.25c-0.02-0.13,0-0.21,0.07-0.22c0.05-0.01,0.09,0.03,0.11,0.15
					c0.02,0.15,0.06,0.27,0.09,0.36c0.07,0.2,0.3,0.22,0.61,0.22c0.44-0.01,1.25-0.13,2.19-0.27L96.56,51.47z M95.92,52.8
					c-0.11,0.02-0.15,0.04-0.17,0.12c-0.04,0.23-0.03,0.54,0.01,0.79c0.06,0.41,0.12,0.54,0.28,0.7c0.27,0.27,0.78,0.5,1.62,0.38
					c1.45-0.21,1.73-1.24,1.65-1.84c-0.04-0.26-0.07-0.44-0.12-0.54c-0.03-0.07-0.07-0.08-0.16-0.07L95.92,52.8z"/>
				<path class="st4" d="M99.63,62.37c0.58-0.22,0.69-0.4,0.81-0.77c0.05-0.15,0.05-0.32,0.05-0.4c0-0.09,0.03-0.12,0.1-0.12
					c0.08,0,0.09,0.12,0.09,0.27c-0.01,0.55-0.06,1.14-0.07,1.5c-0.01,0.26,0.01,0.76,0,1.27c0,0.12-0.03,0.24-0.1,0.24
					c-0.07,0-0.09-0.06-0.09-0.16c0-0.17,0-0.32-0.06-0.41c-0.05-0.07-0.12-0.11-0.21-0.11c-0.13,0-0.43,0.08-0.8,0.22l-4.75,1.65
					l0,0.04c1.13,0.48,4.42,1.91,5.1,2.18c0.13,0.06,0.29,0.1,0.38,0.1c0.08,0,0.17-0.04,0.2-0.13c0.04-0.12,0.06-0.28,0.06-0.41
					c0-0.09,0.02-0.18,0.09-0.17c0.08,0,0.1,0.1,0.1,0.29c-0.01,0.52-0.06,0.95-0.06,1.09c0,0.18,0.01,0.66,0,0.97
					c0,0.13-0.03,0.22-0.1,0.21c-0.07,0-0.09-0.06-0.09-0.17c0-0.1,0.01-0.32-0.11-0.51c-0.09-0.14-0.26-0.3-0.92-0.59
					c-0.96-0.43-1.51-0.72-2.77-1.32c-1.49-0.7-2.61-1.22-3.12-1.46c-0.59-0.29-0.76-0.35-0.75-0.5c0-0.13,0.15-0.19,0.64-0.38
					L99.63,62.37z"/>
				<path class="st4" d="M96.61,74.94c1.55,0.28,1.83,0.34,2.16,0.37c0.35,0.04,0.54-0.03,0.63-0.24c0.05-0.11,0.09-0.24,0.11-0.36
					c0.02-0.1,0.05-0.16,0.13-0.14c0.06,0.01,0.07,0.1,0.04,0.26c-0.07,0.39-0.22,1.02-0.27,1.32c-0.05,0.25-0.13,0.86-0.2,1.25
					c-0.02,0.13-0.06,0.21-0.12,0.2c-0.08-0.02-0.09-0.08-0.07-0.18c0.02-0.1,0.02-0.18,0.03-0.31c0-0.28-0.16-0.4-0.51-0.48
					c-0.32-0.08-0.61-0.13-2.15-0.42l-1.79-0.33c-0.99-0.18-1.79-0.33-2.24-0.37c-0.28-0.02-0.48,0.02-0.57,0.32
					c-0.05,0.14-0.11,0.36-0.14,0.51c-0.02,0.11-0.06,0.16-0.11,0.15c-0.07-0.01-0.09-0.1-0.07-0.21c0.12-0.67,0.27-1.31,0.32-1.58
					c0.04-0.23,0.13-0.88,0.2-1.29c0.02-0.13,0.07-0.2,0.14-0.18c0.05,0.01,0.07,0.06,0.05,0.18c-0.03,0.15-0.03,0.28-0.03,0.37
					c0,0.21,0.17,0.3,0.46,0.39c0.42,0.13,1.22,0.28,2.21,0.46L96.61,74.94z"/>
				<path class="st4" d="M94.51,83.61c1.49,0.52,1.76,0.61,2.08,0.7c0.34,0.1,0.52,0.07,0.7-0.23c0.05-0.07,0.11-0.23,0.16-0.37
					c0.04-0.11,0.08-0.16,0.15-0.14c0.07,0.02,0.06,0.1,0.01,0.25c-0.09,0.26-0.2,0.54-0.29,0.79c-0.1,0.25-0.19,0.47-0.23,0.61
					c-0.11,0.31-0.79,2.26-0.84,2.45c-0.04,0.19-0.08,0.36-0.09,0.44c-0.01,0.05,0,0.12-0.02,0.17c-0.02,0.05-0.06,0.05-0.11,0.03
					c-0.07-0.02-0.17-0.11-0.61-0.3c-0.09-0.04-0.52-0.21-0.63-0.27c-0.05-0.03-0.1-0.07-0.07-0.14c0.02-0.07,0.08-0.07,0.17-0.04
					c0.07,0.02,0.24,0.07,0.37,0.06c0.2-0.01,0.35-0.06,0.58-0.53c0.08-0.16,0.45-1.18,0.52-1.37c0.02-0.05-0.01-0.08-0.07-0.1
					l-2.47-0.86c-0.07-0.02-0.11-0.03-0.13,0.03c-0.07,0.22-0.47,1.34-0.53,1.57c-0.06,0.24-0.08,0.4-0.02,0.52
					c0.05,0.1,0.09,0.15,0.07,0.2c-0.01,0.04-0.04,0.06-0.1,0.04c-0.06-0.02-0.2-0.11-0.69-0.33c-0.19-0.08-0.57-0.24-0.64-0.27
					c-0.08-0.03-0.19-0.07-0.16-0.15c0.02-0.07,0.07-0.07,0.12-0.06c0.1,0.02,0.23,0.07,0.37,0.08c0.21,0.02,0.41-0.07,0.57-0.41
					c0.08-0.18,0.43-1.14,0.51-1.38c0.02-0.05-0.02-0.07-0.08-0.09l-0.77-0.27c-0.33-0.12-1.23-0.44-1.52-0.53
					c-0.68-0.22-0.88-0.11-1.23,0.89c-0.09,0.25-0.23,0.66-0.2,0.96c0.03,0.3,0.19,0.48,0.57,0.69c0.1,0.06,0.13,0.09,0.11,0.16
					c-0.03,0.08-0.11,0.05-0.2,0.02c-0.22-0.08-0.86-0.39-1.04-0.51c-0.23-0.16-0.2-0.24-0.07-0.62c0.26-0.73,0.46-1.26,0.62-1.68
					c0.17-0.41,0.28-0.71,0.38-1.01c0.04-0.11,0.11-0.32,0.18-0.56c0.08-0.22,0.15-0.49,0.22-0.68c0.04-0.13,0.1-0.19,0.17-0.16
					c0.05,0.02,0.06,0.07,0.02,0.18c-0.05,0.15-0.07,0.27-0.08,0.37c-0.03,0.21,0.17,0.33,0.44,0.47c0.39,0.19,1.17,0.46,2.07,0.77
					L94.51,83.61z"/>
				<path class="st4" d="M87.08,92.44c-0.7-0.4-1-0.43-1.17-0.29c-0.15,0.12-0.26,0.28-0.34,0.42c-0.06,0.1-0.11,0.14-0.16,0.11
					c-0.07-0.04-0.04-0.13,0.04-0.26c0.35-0.57,0.59-0.91,0.7-1.08c0.05-0.08,0.28-0.51,0.56-0.97c0.07-0.11,0.13-0.19,0.21-0.14
					c0.05,0.03,0.04,0.1-0.02,0.18c-0.07,0.11-0.16,0.28-0.2,0.42c-0.07,0.27,0.16,0.47,0.93,0.94l5.18,3.28
					c0.18,0.11,0.28,0.21,0.23,0.3c-0.06,0.1-0.22,0.11-0.47,0.16c-0.18,0.04-2.44,0.5-4.51,1c-0.97,0.23-2.97,0.64-3.2,0.71
					l-0.03,0.04l4.02,2.34c0.54,0.32,0.76,0.34,0.98,0.19c0.13-0.1,0.26-0.31,0.34-0.43c0.07-0.11,0.11-0.13,0.17-0.09
					c0.07,0.04,0.02,0.15-0.06,0.28c-0.28,0.46-0.57,0.87-0.68,1.05c-0.06,0.1-0.24,0.45-0.5,0.88c-0.07,0.11-0.13,0.2-0.2,0.15
					c-0.05-0.03-0.05-0.1,0.02-0.21c0.05-0.09,0.1-0.16,0.14-0.28c0.08-0.29-0.06-0.47-0.55-0.79l-5.51-3.51
					c-0.19-0.12-0.25-0.2-0.2-0.28c0.06-0.1,0.22-0.14,0.38-0.18c0.87-0.23,2.72-0.65,4.19-1.01c1.54-0.38,3.25-0.68,3.51-0.74
					l0.02-0.03L87.08,92.44z"/>
				<path class="st4" d="M78.99,101.53c0.17-0.06,0.23-0.05,0.39,0.11c0.4,0.4,0.81,0.88,0.92,1c0.1,0.12,0.16,0.22,0.1,0.28
					c-0.07,0.07-0.14,0.01-0.2-0.05c-0.09-0.1-0.28-0.22-0.44-0.31c-0.7-0.38-1.33-0.15-1.79,0.3c-0.66,0.65-0.54,1.42-0.16,1.81
					c0.36,0.36,0.8,0.59,1.89,0.47l0.6-0.07c1.44-0.17,2.22,0.07,2.81,0.67c0.8,0.81,0.7,2.06-0.33,3.07
					c-0.48,0.47-0.86,0.7-1.1,0.84c-0.08,0.05-0.14,0.07-0.19,0.01c-0.09-0.1-0.28-0.34-0.84-0.91c-0.16-0.16-0.2-0.24-0.14-0.3
					c0.05-0.05,0.12-0.03,0.2,0.06c0.07,0.07,0.33,0.26,0.67,0.3c0.25,0.03,0.68,0.04,1.16-0.43c0.55-0.54,0.56-1.18,0.13-1.62
					c-0.33-0.34-0.76-0.43-1.83-0.29l-0.36,0.05c-1.55,0.21-2.37,0.01-3.06-0.69c-0.42-0.43-0.76-1.1-0.57-1.97
					c0.14-0.6,0.48-1.07,0.87-1.46C78.16,101.97,78.54,101.7,78.99,101.53z"/>
			</g>
			<g>
				<path class="st4" d="M36.98,114c-0.11,0.07-0.75,0.68-0.9,0.86c-0.07,0.08-0.15,0.16-0.2,0.26c-0.04,0.08-0.11,0.07-0.2,0.03
					c-0.4-0.19-0.73-0.63-0.69-0.74c0.03-0.06,0.09-0.1,0.23-0.15c0.22-0.13,1.46-0.43,1.66-0.44c0.04-0.01,0.06-0.03,0.07-0.06
					c0.01-0.03-0.01-0.05-0.03-0.06c-0.25-0.18-1-0.51-1.13-0.56c-0.09-0.03-0.15-0.04-0.23-0.08c-0.09-0.04,0.15-0.7,0.28-0.97
					c0.07-0.14,0.12-0.15,0.24-0.08c0.38,0.18,0.93,1.32,1,1.54c0.01,0.04,0.05,0.06,0.08,0.06c0.02-0.02,0.04-0.04,0.06-0.08
					c0.16-0.42,0.19-1.26,0.19-1.37c0-0.09-0.01-0.16,0.02-0.24c0.08-0.16,0.89-0.01,1.1,0.1c0.09,0.04,0.11,0.1,0.06,0.2
					c-0.15,0.31-0.79,1-1.2,1.41c-0.02,0.01-0.04,0.04-0.04,0.08c0.01,0.02,0.02,0.02,0.06,0.03c0.62,0.1,1.36-0.15,1.51-0.19
					c0.09-0.05,0.16-0.08,0.24-0.04c0.11,0.05-0.04,0.85-0.17,1.12c-0.03,0.06-0.08,0.07-0.17,0.04c-0.07-0.02-1.08-0.51-1.44-0.73
					c-0.03-0.01-0.04-0.01-0.08-0.01c-0.02,0.01-0.04,0.04-0.03,0.09c0.05,0.34,0.52,1.23,0.65,1.36c0.09,0.07,0.15,0.14,0.12,0.21
					c-0.09,0.19-0.95,0.35-1.07,0.29c-0.06-0.03-0.1-0.12-0.12-0.27c0.01-0.31,0.11-1.16,0.19-1.51c0-0.03,0.01-0.09-0.01-0.1
					C37.04,113.98,37.01,113.97,36.98,114z"/>
				<path class="st4" d="M45.95,116.19c0.07-0.33,0.12-0.59,0.16-0.79c0.03-0.14,0.04-0.22-0.05-0.24
					c-0.11-0.02-0.61,0.12-0.76,0.15c-0.03,0.01-0.07,0.01-0.09,0.01c-0.02,0-0.04-0.04-0.03-0.08c0.01-0.04,0.04-0.06,0.08-0.07
					c0.03-0.01,1.34-0.54,1.58-0.65c0.06-0.03,0.12-0.06,0.17-0.05c0.05,0.01,0.06,0.08,0.05,0.14c-0.01,0.05-0.17,0.64-0.35,1.56
					l-0.22,1.12c-0.12,0.58-0.22,1.09-0.25,1.36c-0.02,0.2-0.01,0.29,0.18,0.37c0.09,0.04,0.34,0.11,0.39,0.12
					c0.02,0,0.05,0.03,0.04,0.07c-0.01,0.04-0.04,0.05-0.11,0.03c-0.46-0.09-0.84-0.19-1-0.22c-0.14-0.03-0.65-0.11-1.04-0.19
					c-0.07-0.01-0.1-0.03-0.09-0.07c0.01-0.04,0.04-0.06,0.06-0.05c0.07,0.01,0.38,0.06,0.49,0.05c0.2,0,0.25-0.08,0.31-0.27
					c0.08-0.26,0.19-0.77,0.3-1.35L45.95,116.19z"/>
				<path class="st4" d="M52.5,116.74c-0.11,1.72-1.68,2.71-2.46,3.02c-0.03,0.02-0.06,0.02-0.11,0.02c-0.02,0-0.05-0.03-0.05-0.07
					c0-0.04,0.05-0.08,0.08-0.1c0.66-0.35,1.68-1.3,1.77-2.75c0.07-1.09-0.36-1.59-0.84-1.62c-0.44-0.03-0.76,0.35-0.79,0.87
					c-0.06,0.94,0.54,1.2,0.75,1.21c0.22,0.01,0.34-0.02,0.42-0.05c0.07-0.03,0.1-0.06,0.13-0.06c0.02,0,0.05,0.03,0.05,0.06
					c0,0.02-0.02,0.05-0.03,0.07c-0.19,0.18-0.52,0.25-0.83,0.23c-0.88-0.05-1.21-0.75-1.18-1.26c0.05-0.83,0.72-1.39,1.66-1.33
					C52.06,115.03,52.56,115.8,52.5,116.74z"/>
				<path class="st4" d="M54.27,118.67c-0.05-0.68,0.45-1.18,1.03-1.46c-0.53-0.23-0.93-0.54-0.97-1.06
					c-0.04-0.48,0.33-1.14,1.37-1.22c0.75-0.06,1.28,0.25,1.33,0.85c0.05,0.64-0.49,1.05-0.82,1.2c0.45,0.2,1.16,0.53,1.22,1.29
					c0.05,0.72-0.5,1.41-1.53,1.48C54.99,119.83,54.32,119.43,54.27,118.67z M55.65,115.2c-0.53,0.04-0.72,0.44-0.7,0.78
					c0.03,0.38,0.31,0.61,0.89,0.88c0.17-0.09,0.58-0.36,0.53-0.98C56.34,115.43,56.02,115.18,55.65,115.2z M55.93,119.47
					c0.48-0.04,0.84-0.43,0.8-0.99c-0.05-0.61-0.56-0.87-1.13-1.15c-0.32,0.21-0.68,0.62-0.64,1.24
					C55,119.13,55.43,119.51,55.93,119.47z"/>
				<path class="st4" d="M59.27,118.18c-0.14-0.67,0.29-1.22,0.82-1.58c-0.55-0.15-1-0.4-1.11-0.92c-0.1-0.47,0.17-1.18,1.2-1.39
					c0.73-0.16,1.31,0.08,1.43,0.66c0.13,0.63-0.34,1.1-0.65,1.3c0.48,0.14,1.22,0.37,1.38,1.12c0.15,0.71-0.3,1.46-1.31,1.67
					C60.14,119.23,59.42,118.92,59.27,118.18z M60.17,114.56c-0.52,0.11-0.66,0.53-0.58,0.87c0.08,0.37,0.39,0.57,1,0.76
					c0.16-0.12,0.52-0.44,0.39-1.05C60.88,114.68,60.53,114.48,60.17,114.56z M61.02,118.75c0.47-0.1,0.77-0.54,0.66-1.09
					c-0.13-0.6-0.67-0.78-1.27-0.98c-0.29,0.26-0.59,0.7-0.46,1.32C60.05,118.53,60.53,118.85,61.02,118.75z"/>
				<path class="st4" d="M68.63,114.32c-0.02,0.13,0.06,1.01,0.1,1.24c0.02,0.1,0.03,0.22,0.07,0.32c0.04,0.08-0.02,0.13-0.1,0.17
					c-0.41,0.19-0.96,0.17-1,0.07c-0.03-0.06-0.02-0.13,0.03-0.27c0.04-0.25,0.59-1.41,0.7-1.57c0.01-0.04,0.01-0.07,0-0.09
					c-0.01-0.03-0.04-0.03-0.07-0.01c-0.3,0.08-1.03,0.45-1.15,0.52c-0.08,0.05-0.13,0.09-0.2,0.13c-0.09,0.04-0.45-0.56-0.57-0.83
					c-0.07-0.14-0.04-0.18,0.09-0.24c0.38-0.18,1.61,0.11,1.82,0.2c0.04,0.01,0.08,0,0.09-0.03c0-0.03-0.01-0.06-0.03-0.09
					c-0.23-0.39-0.86-0.94-0.94-1.01c-0.07-0.06-0.14-0.09-0.17-0.17c-0.08-0.16,0.56-0.69,0.77-0.79c0.09-0.04,0.14-0.02,0.19,0.08
					c0.15,0.32,0.28,1.25,0.34,1.82c-0.01,0.02,0.01,0.06,0.04,0.08c0.02,0.01,0.03,0,0.06-0.03c0.47-0.42,0.74-1.15,0.8-1.29
					c0.02-0.1,0.04-0.17,0.12-0.21c0.11-0.05,0.64,0.57,0.76,0.83c0.03,0.06,0,0.11-0.08,0.16c-0.06,0.04-1.07,0.52-1.47,0.66
					c-0.03,0.01-0.03,0.03-0.05,0.05c-0.01,0.02,0.01,0.06,0.05,0.08c0.3,0.17,1.29,0.37,1.46,0.35c0.11-0.02,0.2-0.03,0.24,0.04
					c0.09,0.19-0.32,0.96-0.45,1.01c-0.06,0.03-0.16,0-0.29-0.08c-0.23-0.2-0.83-0.82-1.05-1.1c-0.02-0.02-0.06-0.06-0.09-0.05
					C68.65,114.26,68.63,114.27,68.63,114.32z"/>
			</g>
			<g>
				<path class="st4" d="M74.35,59.23v0.98c-0.09,0.64-0.12,1.02-0.43,1.59c-0.11,0.22-0.33,0.29-0.49,0.47
					c-0.28,0.32-0.27,0.63-0.3,1.04c-0.06,0.62-0.16,0.99-0.45,1.55c-0.18,0.36-1.71,2.36-1.45,2.43c0.25,0.07,0.35-0.48,0.7-0.48
					c0.05,0,0.09,0.03,0.15,0.03c-0.04,0.09-0.28,0.51,0.08,0.51C74.1,66,75.89,62.3,74.35,59.23z"/>
				<path class="st4" d="M62.66,44.75c-0.69,0.06-1.63,0.49-2.45,0.83c0.17-0.07,0.34-0.12,0.46-0.12c0.92,0,0.65,0.55,2.35,0.48
					c0.6,0.06,1.78,0.03,1.78-0.42C64.79,44.73,63.71,44.67,62.66,44.75z"/>
				<path class="st4" d="M68.35,65.66c0.32-0.46,0.13-0.81,1.03-1.62c1.28-1.15,1.49-2.67,1.82-3.55c0.17-0.45,0.08-0.76,0.28-1.21
					c0.09-0.21,0.24-0.31,0.31-0.52c0.5-0.66,0.91-1.17,0.91-2.03c0-1.04-0.82-1.53-1.68-2.25c-0.89-0.76-2-1.86-2.59-2.42
					c-0.02-0.02-0.03-0.06,0-0.09c0.11-0.14,0.22-0.28,0.33-0.44c0.6-0.9,0.8-1.47,1.21-2.46c0-0.01,0-0.01,0-0.02l0.21-1.99
					c0,0,0.18-1.66-0.74-2.07c-6.96-3.11-9.81-0.67-10.22-0.72c0.35,0.29,1.29-0.21,2.92-0.34c2.34-0.19,5.62,0.66,6.78,1.8
					c0.24,0.24,0.77,0.66,0.67,1.05c-0.31,1.22,0.13,1.7,0.06,1.7c-0.84,0-0.89,0.85-1.25,1.49c-0.16,0.3-0.48,0.35-0.73,0.58
					c-0.36,0.32-0.43,0.65-0.43,1.1c0,0.27,0.16,0.43,0.16,0.71c0,0.96-0.82,1.34-1.47,2.12c-1.24,1.49-4.73,4.73-6.48,4.02
					c-0.01,0-0.02-0.01-0.02-0.01c-0.96-0.78-0.3-2.56-0.18-2.17c0.18,0.58,0.88,1.46,1.6,1.46c0.51,0-0.15-0.65-0.01-1.07
					c0.8-2.42,3.28-2.7,4.06-3.56c0.41-0.45,0.66-0.73,1.14-1.13c0.31-0.26,0.61-0.44,0.61-0.81c0-0.35-0.67-0.36-0.67-0.7
					c0-0.4,0.45-0.53,0.67-0.86c0.26-0.4,0.28-0.73,0.28-1.19c0-0.04,0.03-0.07,0.07-0.07h0.61c0.54,0,0.97-0.38,0.97-0.84
					c0-0.47-0.3-0.94-0.86-0.94c-0.83,0-0.93,0.88-1.74,1.04c-2.49,0.5-3.01-0.71-5.14-1.04c-0.63-0.09-1.45-0.1-1.45-0.59
					c0-0.15-0.68,0.45-1.04-0.3c-0.01-0.03-0.01-0.06,0.02-0.08c0.44-0.35,1.03-0.69,1.66-1.09c0.19-0.12,0.57-0.3,0.88-0.45
					c0.56-0.28,0.32-1.15-0.14-1.57c-0.58-0.51-0.72-0.7-1.12-1.2c0,0-0.4-0.57-0.4-0.58c0-0.01-0.29-0.5-0.3-0.51
					c-0.8-1.5,0.06-1.66,0.83-0.23c0.21,0.39,0.52,0.86,1.05,1.34c1.39,1.29,2.86,1.89,3.58,1.96c0.42,0.04,0.9,0.13,1.31-0.7
					c0.09-0.14,0.12-0.25,0.43-0.8c0.11-0.2,0.11-0.33,0.41-0.5c0.3-0.17,0.83-0.27,0.83-0.27c1.34-0.4,0.29-1.84,0.4-2.88
					c0.06-0.55,0.39-0.58,0.68-0.72c0.29-0.14-0.11-0.61,0.18-0.81c0.3-0.2,0.51-0.05,0.77-0.27c0.01-0.01,0.01-0.01,0.02-0.02
					c0.03-0.04,0.13-0.21,0.13-0.41c0-0.42-0.35-0.61-0.35-1.03c0-0.66,1.68-0.8,1.68-1.73c0-0.58-0.8-0.73-1.02-1.27
					c-0.28-0.68-1.52-2.94-2.7-3.55c-0.93-0.55-3.16-1.81-5.39-1.43c-0.64,0.11-1.38,0.31-1.71,0.48c-0.2,0.08-0.4,0.18-0.6,0.28
					c-0.19,0.1-0.89,0.48-1.51,1.12c-0.5,0.58-0.77,1.24-1.19,2.1c0,0,0,0,0,0.01c-0.04,0.06-1.17,1.77-0.31,3.11
					c0.34,0.53,0.06,1.35,0.03,1.51c-0.09,0.48-0.45-0.46-1.39-0.95c0,0-0.01,0-0.01,0c-0.8-0.34-1.51-0.48-2.17-0.45
					c-0.86,0-2.02,0.03-2.02,0.76c0,0.3,0.36,0.12,1.06,0.04c0.81-0.08,1.15,0.01,1.81,0.23c2.42,0.81,2.02,2.84-1.17,2.84
					c-0.61,0-0.83-0.52-1.44-0.52c-0.8,0-1.04,1.6-1.04,2.27c0,1.27,0.56,1.97,1.35,3.06c0.41,0.57,0.71,0.86,1.2,1.37
					c0.41,0.43,0.96,0.6,0.96,1.15c0,0.4-0.63,0.43-1.1,0.43c-0.74,0-1.12-0.33-1.87-0.33c-0.33,0-0.74,0.18-0.68,0.45
					c0.87,3.9,4.28,6.33,5.09,6.85c0.7,0.46,1.68,0.57,1.68,1.32c0,0.6-0.56,1.1-1.27,1.1c-0.73,0-1.03-0.44-1.59-0.82
					c-0.85-0.59-7.97-6.91-8.46-12.09c-0.16-1.71,1.95-2.95,1.95-4.49c0-0.81-0.64-1.57-1.59-1.57c-1.44,0-2.24,0.71-3.12,1.67
					c-0.98,1.06-5.67,6.47-4.69,11.91c0,0,0,0.01,0,0.01c-0.01,3.15-3.93,7.7-3.93,11.11c0,0.81,0.08,1.3,0.4,2.07
					c0.2,0.49,0.48,0.72,0.79,1.16c0.3,0.42,0.53,0.89,1.11,0.89c0.29,0,0.53-0.2,0.53-0.44c0-0.68-0.61-1-0.61-1.68
					c0-0.28,0.15-0.6,0.48-0.6c0.3,0,0.43,0.24,0.58,0.45c0.5,0.63,0.43,1.6,1.33,1.6h0.57c0.51,0,0.58,0.48,0.93,0.77
					c0.41,0.35,0.78,0.53,1.36,0.53c1.08,0,1.67-0.49,2.75-0.34c1.18,0,1.19,1.07,1.1,2.17c0,0.06-0.07,0.08-0.11,0.04
					c-0.91-0.92-5.2-0.57-5.2-0.57c-1.03,0.03-2.06-0.38-3.04-1c-0.04-0.03-0.1,0-0.1,0.06c0.04,0.78,0.59,1.09,0.8,1.2
					c0.04,0.02,0.05,0.08,0.01,0.11c-0.63,0.55-0.58,1.21-0.58,2.02c0,0.82,0.32,1.26,0.57,2.05c0.38,1.21,0.23,1.95,0.5,3.2
					c0,0.01,0,0.01,0,0.02c-0.04,0.3-0.94,6.97-1.19,7.96c-1.3,5.28-4.25,7.87-0.47,9.24c1.71,0.62,3.86,1.66,5.88,2.43
					c2.89,1.09,10.44,4.28,16.4,4.55c1.3,0.06,3.71-2.14,7-5.14c1.4-1.28,3.57-3.43,4.8-5.54c1.12-1.92-10.04-6.3-12.28-7.16
					c-0.03-0.01-0.05-0.05-0.04-0.08c0.47-1.13,1.02-4.7,6.3-7.97c0.49-0.3,3.28-3.17,4.55-4.82c0.04-0.05,0.11-0.03,0.12,0.03
					c0.04,0.19,0.17,0.48,0.63,0.59c0.21,0.04,0.57-0.39,0.67-0.54l0.22-0.31c0.01,0.21,0.11,0.43,0.35,0.43
					c0.21,0,0.28-0.15,0.41-0.28c0.08-0.08,0.18-0.13,0.18-0.23c0-0.03-0.02-0.05-0.02-0.08c-0.15,0.03-0.2,0.15-0.37,0.15
					c-0.21,0-0.24-0.23-0.29-0.43c-0.05,0-0.09-0.05-0.14-0.03c-0.36,0.21-0.78,0.48-0.87,0.54C70,67.9,69.99,67.9,69.97,67.9
					c-0.33-0.05,0.01-1.12,0.04-1.23c0.17-0.54,0.71-1.12,0.58-0.57c0,0,0.87,0.04,0.82-1.36c-0.01-0.17-0.01-0.29,0.01-0.45
					c0-0.04-0.03-0.07-0.07-0.07c-0.29,0-0.37-0.04-0.4-0.09c-0.03-0.05-0.09-0.04-0.11,0.01c-0.45,1.07-2.02,2.42-2.61,3.31
					c0,0.01-0.01,0.01-0.01,0.02c-0.09,0.08-0.58,0.08-0.61-0.22C67.5,66.13,68.31,65.75,68.35,65.66z M65.83,38.47
					c-0.22,0.08-0.82,0.09-1.3-0.1c-0.37-0.15-0.78-0.64-0.86-0.79c-0.08-0.15-0.24-0.57,0-0.57c0.24,0,0.93,0.33,1.33,0.43
					c0.56,0.13,1.22,0.21,1.3,0.33C66.38,37.88,66.05,38.38,65.83,38.47z M65.2,35.79c0.42,0.19,0.83,0.32,1.2,0.41
					c0.47,0.11,1.23-0.21,0.61,0.81c-0.08,0.13-0.28,0.16-0.52,0.13c-0.52-0.05-0.82-0.2-1.17-0.32c-0.67-0.23-0.79-0.36-1.47-0.73
					c-0.61-0.33-0.73-0.4-1.27-0.78c-0.31-0.23-0.47-0.39-0.41-0.47C62.79,34.12,63.42,34.98,65.2,35.79z M60.18,27.68
					c0,0,0.01,0.03,0.03,0.07C60.19,27.71,60.17,27.68,60.18,27.68c-0.06-0.14-0.02-0.05-0.08-0.18
					C60.12,27.55,60.14,27.61,60.18,27.68z M59.65,28.92c0.18-0.2,0.47-0.35,0.85-0.56c0,0,0.01-0.01,0.02-0.01
					c1.74-0.46,2.7-0.29,2.7-0.29c0.97,0.09,1.87,0.38,3.36,1.42c0.93,0.65,1.22,1.14,1.85,2.03c0.02,0.02,0.75,1.26,0.47,1.26
					c-0.99,0.06-1.41,0.27-1.41,0.66c0,0.38,0.35,0.56,0.35,0.94c0,0.32-0.43,0.42-0.82,0.43c-0.01,0-0.01,0-0.02,0
					c-0.96-0.2-2.47-1.48-4.73-1.48c-0.57,0-0.93,0.06-1.41,0.33c-0.3,0.16-0.46,0.28-0.69,0.52c-0.12,0.12-0.16,0.29-0.35,0.29
					c-0.09,0-0.14-0.1-0.14-0.18c0-0.32,0.44-0.41,0.44-0.73c0-0.26-0.22-0.37-0.35-0.61c-0.13-0.25-0.14-0.44-0.17-0.65
					c0-0.01,0-0.02,0-0.04c0.08-0.2,0.18-0.38,0.18-0.64c0-0.98-0.39-0.77-0.39-1.75C59.39,29.55,59.43,29.15,59.65,28.92z
					 M58.44,33.53c0.56,0,0.8,0.55,0.8,1.03c0,0.16-0.08,0.29-0.25,0.35c0,0-0.31,0.1-0.18-0.35c0.09-0.32-0.17-0.7-0.56-0.7
					c-0.41,0-0.34,0.76-0.69,0.66C57.4,34.46,57.89,33.53,58.44,33.53z M57.61,35.08c0.08,0,0.24,0.09,0.31,0.09
					c0.18,0,0.19-0.29,0.37-0.29c0.13,0,0.27,0.08,0.27,0.19c0,0.17-0.21,0.24-0.21,0.41c0,0.16,0.07,0.25,0.07,0.41
					c0,0.15-0.21,0.66-0.37,0.66c-0.18,0-0.22-0.18-0.22-0.33c0-0.14,0.09-0.23,0.09-0.36c0-0.1-0.15-0.12-0.25-0.14
					C57.44,35.67,57.52,35.08,57.61,35.08z M58.82,48.44c1.01-0.47,0.93-1.43,1-1.45c0.78-0.24,2.52,0.65,3.28,1.19
					c0.6,0.42,0.45,0.71,0.79,1.31c0.21,0.4,0.61,0.56,0.61,1.01c0,0.58-2.43,1.75-3.66,3.12c-0.03,0.04-0.09,0.02-0.11-0.02
					C59.35,50.28,55.03,50.2,58.82,48.44z M45.14,68.65c0.04-0.05,0.12-0.02,0.12,0.04c0,0.24,0.04,0.39,0.04,0.63
					c-0.01,0.76,0.48,0.52,0.68,0.52c0.91,0,1.41-0.61,1.75-1.31c0.4-0.8,0.39-3.09,0.39-3.66c0-0.53,0.77-0.58,1.38-0.72
					c0.87-0.19,1.72-0.55,1.72-1.31c0-0.85-1.05-1.08-1.94-1.45c-0.54-0.23-1.03-0.23-1.32-0.66c-0.19-0.29-0.02-0.63-0.35-0.82
					c-0.38-0.37-0.63-0.7-0.63-1.19c0-0.77,4.83-0.87,5.99-3.42c0.02-0.04,0.06-0.05,0.1-0.03l4.78,3.36c0.04,0.03,0.04,0.09,0,0.11
					c-0.28,0.15-0.73,0.28-1.03,0.28c-1.41,0-2.11,0.72-3.01,1.63c-0.54,0.55-0.69,0.67-1.38,0.93c-0.06,0.02-0.05,0.1,0,0.12
					c4.07,1.52,4.6,3.39,3.16,3.56c-0.84,0.1-3.42,0.81-3.42,1.18c0,0.21,0.31,0.24,0.57,0.27c0.61,0.07,3.01-1.57,3.02,1.54
					c0.01,1.53-2.1,2.56-2.25,2.76c-0.01,0.01-0.02,0.02-0.03,0.03c-1.99,1.06-3.8,0.91-4.31,0.22c-0.31-0.43-0.38-1.03-0.99-1.03
					c-0.94,0-1.48,0.84-1.48,1.63c0,0.77,1.37,0.45,2.26,0.6c0.01,0,0.01,0,0.02,0c2.41-0.5,2.33,1.23,4.54-0.43
					c0.05-0.04,0.11,0,0.11,0.06c-0.04,0.39-0.32,1.24-0.26,1.52l-0.01,0.84c-0.08,0.01-0.13,0.03-0.21,0.03
					c-0.28,0-1.16-0.43-2.39,0.8c-0.75,0.75-1.49,1.2-2.67,1.2c-0.84,0-1.44-1.37-2.19-1.37c-0.42,0-0.79,0.35-0.58,1.2
					c0.02,0.07-0.08,0.11-0.12,0.05c-0.7-1.03-1.59-2.71-1.59-4.48C43.6,69.85,44.64,69.31,45.14,68.65z M56.42,84.78
					c0.2,0.49,1.48,1.04,1.76,1.26c0.29,0.22,1.53,1.61,2.11,1.78c0.64,0.19,1.28,0.31,1.94-0.2c0.54-0.41,1.79-0.05,1.22,0.16
					c-0.12,0.05-0.23,0.52-0.46,0.5c-0.24-0.02-0.07,0.18-0.43,0.34c-0.36,0.16-0.74-0.41-0.95-0.18c-0.38,0.41-0.93,0.36-1.02,0.34
					c-0.01,0-0.01,0-0.02-0.01c-0.08-0.04-0.64-0.32-0.91-0.7c-0.53-0.74-3.21-2-3.49-2.27c-0.27-0.27-0.38-0.66-0.58-0.86
					C55.39,84.76,56.22,84.28,56.42,84.78z M47.42,85.13c-0.13-0.62-0.46-1.38-0.27-1.67c0.19-0.29,0.63-0.58,0.75,0
					c0.12,0.58-0.2,1.26,0.05,1.88c0.26,0.62,1.03,0.8,1.4,1.07c0.36,0.28,2.28,2.05,2.9,2.47c0.62,0.42,1.1,0.47,1.88,0.81
					c0.78,0.33,2.59,1.13,1.88,1.4c-0.16,0.06-0.35,0.03-0.64,0c-0.24-0.02-0.55-0.15-0.66-0.2c-0.03-0.01-0.06-0.01-0.07,0.02
					c-0.06,0.06-0.2,0.19-0.5,0.19c-0.33,0-0.65-0.23-0.75-0.3c-0.02-0.01-0.04-0.02-0.06-0.01c-0.08,0.03-0.31,0.09-0.59-0.01
					c-0.34-0.13-0.62-0.62-0.97-0.97c-0.34-0.34-2.27-2.17-2.53-2.42c-0.26-0.25-0.68-0.19-0.97-0.27
					c-0.28-0.08-0.78-0.01-0.86-0.54C47.34,86.05,47.55,85.75,47.42,85.13z M42.78,82.61c-0.23-0.43-0.12-0.92-0.61-1.16
					c-0.27-0.13-0.54-0.1-0.73-0.27c-0.34-0.32,0.04-0.76-0.15-1.16c-0.31-0.63-1.54-0.57-1.54-1.26c0-0.99,0.09-1.6,0.61-2.47
					c0.15-0.25,0.32-0.44,0.48-0.63l-0.02,2.36c0,0.01,0,0.02,0,0.03c0.1,0.29,0.52,0.37,0.72,0.37c0.31,0,0.66,0.12,0.66,0.38
					c0,0.36-1.11,2,0.53,2c0.8,0,2.28-1.11,2.75-1.46c0.04-0.03,0.09-0.01,0.1,0.04c0.29,1.24,0.27,3.35,0.24,4.4
					c0,0.03-0.03,0.06-0.06,0.06C45.43,83.88,45.16,84,44.75,84C43.75,84,43.18,83.39,42.78,82.61z M66.98,87.13
					c0.57,0.82-0.08,1.97-1.61,3.62c-0.96,1.04-2.42,2.01-3.25,2.81c-1.16,1.11-2.73,1.81-3.85,1.85
					c-2.96,0.12-6.91-2.02-10.31-3.51c-3.02-1.32-2.23-2.85-1.72-4.78c0.1-0.38-0.06-0.38,0.23-0.63c0.01,0.21,0.42,1.04,0.62,1.22
					c0.71,0.66,1.23,0.07,2.14,0.83c0.58,0.48,1.89,1.82,2.1,2.07c1.45,1.7,2.08,1.28,2.28,1.06c0.03-0.04,0.09-0.03,0.11,0.02
					c0.36,0.83,1.18,0.4,1.3,0.26c0.06-0.07,0.09,0.16,0.25,0.22c0.45,0.16,0.65,0.04,0.73-0.03c0.02-0.02,0.06-0.03,0.08-0.01
					c0.97,0.65,1.47,0.3,1.55,0.07c0.01-0.04,0.05-0.05,0.09-0.04c0.21,0.09,0.55,0.12,0.93,0.12c0.47,0,0.97-0.45,0.65-1.3
					c-0.09-0.24-1.35-0.58-1.48-0.68c-0.18,0.13-1.08-1.61-2.25-2.54c-1.45-1.15-3.49-2.29-3.63-2.69c-0.14-0.4-0.53-1.05-0.7-1.44
					c0,0,0-0.01,0-0.01c-0.01-0.06-0.09-0.51,0.08-1.03c0-0.01,0-0.01,0.01-0.02c0.06-0.11,0.84-1.42,1.61-1.64
					c1.06-0.31-1.97,2.63,0.69,3.23c0,0,0.01,0,0.01,0c0.06,0.03,0.78,0.39,1.05,1c0.49,1.11,2.28,1.25,4.59,3.27
					c0.5,0.44,0.9,0.95,1.69,0.95c0.47,0,0.69-0.04,0.8-0.35c0.02-0.05,0.08-0.06,0.11-0.02c0.11,0.13,0.29,0.15,0.53,0.15
					c0.27,0,0.4-0.17,0.57-0.34c0.11-0.12,0.31-0.04,0.44-0.15c0.19-0.15,0.29-0.31,0.34-0.51c0.01-0.03,0.03-0.05,0.06-0.05
					c0.29-0.02,0.46-0.27,0.48-0.52c0.01-0.08-0.05-0.19-0.12-0.23c-0.37-0.25-0.61-0.27-0.61-0.27c-0.62-0.22-1.19-0.93-1.22-0.97
					c0,0,0,0-0.01-0.01c-0.95-0.89-1.85-1.75-3.48-2.08c-0.7-0.25-0.85-1.09-0.85-1.15c0,0,0,0,0-0.01c0-0.06,0-0.14-0.01-0.22
					C59.4,83.24,65.64,85.2,66.98,87.13z M59.45,68.22c-1.74,2.08-2.87,6.37-2.87,6.08c0-1.74,1.54-6.54,2.11-7.38
					c0.44-0.65,0.89-1.18,1.78-1.18c0.19,0,0.54,0.32,0.54,0.5C61.01,67.16,60.07,67.47,59.45,68.22z M65.64,60.05
					c-0.73-0.14-1.43-0.42-1.6-0.96c-0.01-0.02,0-0.04,0-0.05c0.66-1.46,2.06-2.79,2.58-3.64c0.11-0.19,0.17-0.4,0.42-0.4
					c0.33,0,0.82,1.49,1.16,1.99c0.41,0.6,0.99,0.78,1.65,1.2c0.42,0.26,0.74,0.52,0.74,0.97c0,0.45-0.63,0.48-1.05,0.75
					c-0.09,0.05-0.27,0.22-0.48,0.43c-0.01,0.01-0.03,0.02-0.05,0.02C67.69,60.24,66.96,60.3,65.64,60.05z M67.49,64.62
					c-0.5,0.35-1.08,0.14-1.08-0.13c0-0.21,0.88-0.82,1.23-1.8c0.28-0.79,1.02-1.32,1.54-1.59c0.36-0.14,0.3,0.08,0.3,0.16
					c0,0.91-0.11,1.26-0.61,2.07C68.39,64.13,67.57,64.62,67.49,64.62z"/>
			</g>
		</g>
	</g>
</g>
</svg>
