<?xml version="1.0" encoding="utf-8"?>
<!-- Generator: Adobe Illustrator 25.3.1, SVG Export Plug-In . SVG Version: 6.00 Build 0)  -->
<svg version="1.1" id="Layer_1" xmlns="http://www.w3.org/2000/svg" xmlns:xlink="http://www.w3.org/1999/xlink" x="0px" y="0px"
	 viewBox="0 0 1000 359.56" style="enable-background:new 0 0 1000 359.56;" xml:space="preserve">
<style type="text/css">
	.st0{fill:#FF4D00;}
	.st1{fill:#004987;}
</style>
<g>
	<path class="st0" d="M332.17,131.05v142.59c0.58,8.42-2.67,16.64-8.85,22.39c-5.98,5.13-13.63,7.88-21.5,7.74
		c-7.48,0.11-14.72-2.67-20.22-7.74c-6.19-5.73-9.45-13.97-8.85-22.39V121.85c0-18.09-10.31-28.89-29.11-28.89
		s-30.17,10.75-30.17,28.89v39.37h-61.94v-39.37c0-18.09-10.31-28.89-29.11-28.89s-28.8,10.4-29.2,27.78c0,1.64,0,40.66,0,40.66
		h-59.5v-30.35c0-3.36,0-6.59,0.22-9.78c2.96-57.87,30.39-86.85,89.32-86.85c27.03,0,45.17,5.75,59.46,17.12
		c14.56-11.37,35.39-17.12,60.43-17.12C301.87,34.43,332.17,66.64,332.17,131.05"/>
	<path class="st1" d="M123.31,266.52c18.05,0,29.07-8.54,28.93-28.98v-56.67h60.88v43.93c0,3.41,0,10.22-0.27,13.27
		c-2.95,58.04-33.05,87.07-90.3,87.07c-56.27,0-85.87-29.07-88.79-87.2c-0.18-1.56-0.27-3.12-0.27-4.69v-52.38h60.52v56.63
		c0,18.18,10.4,29.02,29.46,29.02"/>
	<path class="st1" d="M419.11,88.71c0,8.85-4.78,12.7-13.85,12.7h-0.35c-9.07,0-13.89-3.89-13.89-12.7V40.75h6.19v46.41
		c0,6.28,2.12,8.85,7.87,8.85s7.87-2.39,7.87-8.85V40.75h6.15L419.11,88.71z"/>
	<path class="st1" d="M429.55,100.7V40.75h6.24l17.7,45.48V40.75h5.75v59.95h-5.93l-17.7-46.32v46.32H429.55z"/>
	<path class="st1" d="M470.07,100.7V40.75h6.19v59.95H470.07z"/>
	<path class="st1" d="M502.59,100.7h-6.68l-12.56-59.95h6.33l9.73,49.68l9.6-49.51h5.97L502.59,100.7z"/>
	<path class="st1" d="M522.01,100.7V40.75h24.24v5.44h-18.09v21.24h15.44v5.49h-15.44v22.12h18.32v5.57L522.01,100.7z"/>
	<path class="st1" d="M579.21,100.7l-9.16-25.26h-8.85v25.26h-6.15V40.75h14.47c9.07,0,14.02,4.11,14.02,12.7v9.33
		c0.58,5.22-2.6,10.13-7.61,11.72l9.69,26.19H579.21z M561.21,69.95h7.96c5.75,0,8.23-2.39,8.23-8.63v-6.28
		c0-6.28-2.48-8.85-8.23-8.85h-7.96V69.95z"/>
	<path class="st1" d="M613.59,61.68v-7.87c0-5.75-2.3-8.23-7.7-8.23c-5.4,0-7.7,2.48-7.7,8.23v4.16c0,4.03,1.37,5.22,5.4,7.48
		l8.58,4.69c4.46,1.78,7.47,6,7.7,10.79v7.96c0,8.85-4.73,12.52-13.8,12.52l0,0c-8.85,0-13.76-3.72-13.76-12.52v-9.91h6.06v8.54
		c0,5.66,2.3,8.41,7.79,8.41s7.79-2.74,7.79-8.41v-4.78c0-4.03-1.5-5.57-5.62-7.87l-8.41-4.42c-5.22-2.92-7.61-5.4-7.61-10.62v-7.39
		c0-8.41,5.49-12.34,13.67-12.34l0,0c8.23,0,13.71,3.94,13.71,12.34v9.25H613.59z"/>
	<path class="st1" d="M629.34,100.7V40.75h6.19v59.95H629.34z"/>
	<path class="st1" d="M674.82,53.45v34.6c0,8.54-4.95,12.65-14.02,12.65H646.5V40.75h14.29C669.86,40.75,674.82,44.87,674.82,53.45z
		 M660.31,46.2h-7.79v48.67h7.79c5.75,0,8.23-2.39,8.23-8.85V55.04C668.67,48.72,666.19,46.2,660.31,46.2z"/>
	<path class="st1" d="M704.28,86.01h-14.56l-2.88,14.69h-5.97l12.65-59.95h7.34l12.87,59.95h-6.37L704.28,86.01z M703.22,80.62
		l-6.24-30.97l-6.24,30.97H703.22z"/>
	<path class="st1" d="M748.79,53.45v34.6c0,8.54-4.96,12.65-14.07,12.65h-14.29V40.75h14.29C744.01,40.75,748.79,44.87,748.79,53.45
		z M734.59,46.2h-7.92v48.67h7.79c5.71,0,8.18-2.39,8.18-8.85V55.04C742.77,48.72,740.3,46.2,734.59,46.2z"/>
	<path class="st1" d="M412.96,289.26h-3.45l-12.56-35.13v44.86h-5.75v-59.9h5.93l14.02,39.82l14.2-39.82h6.19v59.9h-6.02v-44.86
		L412.96,289.26z"/>
	<path class="st1" d="M442.15,298.99v-59.9h24.2v5.57H448.3v21.24h15.4v5.44h-15.4v22.12h18.32v5.53L442.15,298.99z M464.67,223.16
		l-8.85,11.02h-4.78l5.97-11.02H464.67z"/>
	<path class="st1" d="M491.17,268.37l12.52,30.61h-6.59l-9.78-25.13l-9.64,25.13h-6.41l12.65-30.97L472.19,239h6.72l8.85,23.54
		l8.32-23.54h6.41L491.17,268.37z"/>
	<path class="st1" d="M510.73,298.99v-59.9h6.15v59.9H510.73z"/>
	<path class="st1" d="M555.63,287.04c0,8.85-4.96,12.65-14.02,12.65l0,0c-8.85,0-14.02-3.85-14.02-12.65v-35.97
		c0-8.41,4.95-12.7,14.02-12.7l0,0c9.07,0,14.02,4.42,14.02,12.7v10.44h-5.93v-8.85c0-6.19-2.3-8.85-7.96-8.85s-7.96,2.48-7.96,8.85
		v32.87c0,6.15,2.3,8.85,7.96,8.85s7.96-2.48,7.96-8.85v-10.35h6.15L555.63,287.04z"/>
	<path class="st1" d="M579.26,238.38h0.71c8.85,0,14.02,4.11,14.02,12.7v35.97c0,8.54-4.95,12.65-14.02,12.65h-0.71
		c-9.07,0-14.02-4.11-14.02-12.65v-35.97C565.23,242.41,570.19,238.38,579.26,238.38z M579.61,294.12c5.75,0,8.23-2.39,8.23-8.85
		V252.4c0-6.28-2.48-8.85-8.23-8.85s-8.23,2.39-8.23,8.85v32.87c0,6.46,2.52,8.67,8.23,8.67V294.12z"/>
	<path class="st1" d="M430.25,205.2h-8.85l-14.82-46.05v60.43h-15.26v-98.83h15.53l19.07,57.51l19.2-57.51h16.1v98.83h-15.79v-60.43
		L430.25,205.2z"/>
	<path class="st1" d="M498.87,119.64h1.15c14.95,0,24.82,5.93,24.82,20.88v59.28c0,15-9.87,20.93-24.82,20.93h-1.15
		c-14.95,0-24.86-5.93-24.86-20.93v-59.28C474.01,125.39,483.92,119.64,498.87,119.64z M499.45,206.3c5.35,0,8.85-1.95,8.85-8.85
		v-54.42c0-7.03-3.67-8.85-8.85-8.85c-5.18,0-8.85,1.99-8.85,8.85v54.24C490.42,204.36,494.09,206.3,499.45,206.3z"/>
	<path class="st1" d="M537.85,219.58v-98.83h16.28l20.75,61.14v-61.14h15v98.83h-15.53l-21.55-64.24v64.24H537.85z"/>
	<path class="st1" d="M653.63,141.67v57.03c0,14.95-9.91,20.88-24.86,20.88H603.5v-98.83h25.26
		C643.72,120.74,653.63,126.67,653.63,141.67z M628.19,135.16h-8.32v70.03h8.32c5.4,0,8.85-1.99,8.85-8.85v-52.16
		C637.26,137.11,633.76,135.16,628.19,135.16z"/>
	<path class="st1" d="M703.75,219.58l-12.48-39.37h-8.18v39.37h-16.41v-98.83h25.57c14.95,0,24.86,5.93,24.86,20.93v17.7
		c0.74,7.8-3.59,15.19-10.75,18.36l14.11,41.94L703.75,219.58z M683,166.09h8.58c5.4,0,9.07-1.99,9.07-8.85v-12.83
		c0-7.08-3.67-8.85-9.07-8.85H683V166.09z"/>
	<path class="st1" d="M761.22,197.54h-18.09l-3.54,22.12h-15.79l18.36-98.83h20.62l18.63,98.83h-16.68L761.22,197.54z M759.1,184.01
		l-6.95-43.93l-6.9,43.93H759.1z"/>
	<path class="st1" d="M838.42,199.8c0,15.26-9.87,20.93-24.82,20.93h-1.15c-14.95,0-24.86-5.53-24.86-20.93v-59.28
		c0-14.69,9.91-20.88,24.86-20.88h1.15c14.95,0,24.82,6.19,24.82,20.88v14.11h-16.37v-11.59c0-7.03-3.67-8.85-8.85-8.85
		c-5.18,0-8.85,1.99-8.85,8.85v54.24c0,7.08,3.67,8.85,8.85,8.85c5.18,0,8.85-1.95,8.85-8.85v-14.69h-9.6v-13.85h25.97V199.8z"/>
	<path class="st1" d="M875.41,119.64h1.15c14.95,0,24.86,5.93,24.86,20.88v59.28c0,15-9.91,20.93-24.86,20.93h-1.15
		c-14.95,0-24.82-5.93-24.82-20.93v-59.28C850.54,125.39,860.45,119.64,875.41,119.64z M875.98,206.3c5.35,0,8.85-1.95,8.85-8.85
		v-54.42c0-7.03-3.67-8.85-8.85-8.85c-5.18,0-8.85,1.99-8.85,8.85v54.24C866.96,204.36,870.63,206.3,875.98,206.3z M896.6,93.09
		L880.1,113h-12.17l10.04-19.91H896.6z"/>
	<path class="st1" d="M914.38,219.58v-98.83h16.37l20.75,61.14v-61.14h15v98.83h-15.53l-21.63-64.24v64.24H914.38z"/>
</g>
</svg>
