<?xml version="1.0" encoding="utf-8"?>
<!-- Generator: Adobe Illustrator 25.2.3, SVG Export Plug-In . SVG Version: 6.00 Build 0)  -->
<svg version="1.1" id="Capa_1" xmlns="http://www.w3.org/2000/svg" xmlns:xlink="http://www.w3.org/1999/xlink" x="0px" y="0px"
	 viewBox="0 0 496.15 141.73" style="enable-background:new 0 0 496.15 141.73;" xml:space="preserve">
<style type="text/css">
	.st0{fill:#E20026;}
	.st1{fill:#FFFFFF;}
	.st2{fill:#8E959A;}
</style>
<g>
	<g>
		<rect class="st1" width="496.15" height="141.73"/>
		<g>
			<rect x="141.74" y="11.8" class="st2" width="342.61" height="118.13"/>
			<g>
				<path class="st1" d="M424.37,70.22V52.59h8.26c6.12,0,9.36,3.35,9.36,8.87c0,5.52-3.24,8.76-9.36,8.76H424.37z M424.37,85.19
					h9.17c17.04,0,26.49-10.05,26.49-23.73c0-13.69-9.45-24.03-26.49-24.03h-27.1v66.98h17.93V85.19z M348.78,104.41h48.38V89.34
					h-30.45V77.81h24.24V63.52h-24.24V52.48h29.06V37.43h-46.99V104.41z M309.92,69.15l6.11,14.17h-12.11L309.92,69.15z
					 M325.28,104.41h18.53l-32.51-68.17c-0.29-0.69-0.88-0.69-1.18,0l-32.61,68.17h17.53l3.34-8.08h23.36L325.28,104.41z
					 M251.39,70.22V52.59h8.28c6.11,0,9.36,3.35,9.36,8.87c0,5.52-3.25,8.76-9.36,8.76H251.39z M251.39,85.19h9.17
					c17.05,0,26.49-10.05,26.49-23.73c0-13.69-9.45-24.03-26.49-24.03h-27.09v66.98h17.93V85.19z M195.12,105.39
					c16.75,0,29.07-8.87,29.07-26.89V37.43h-17.93v40.87c0,7.58-3.55,11.93-11.14,11.93c-7.58,0-11.14-4.34-11.14-11.93V37.43
					h-17.92v41.07C166.07,96.52,178.38,105.39,195.12,105.39"/>
			</g>
			<rect x="11.8" y="11.8" class="st0" width="118.14" height="118.13"/>
			<g>
				<path class="st1" d="M84.45,80.17c0,8.91-4.33,13.95-13.59,13.95c-9.26,0-13.59-5.04-13.59-13.95V30.25h-9.86v50.04
					c0,14.79,9.26,22.24,23.45,22.24c14.31,0,23.45-7.45,23.45-22.24V30.32l-9.86,9.86V80.17z M106.35,80.41V30.25h-9.87v50.04
					c0,16.24-10.09,24.42-25.61,24.42c-15.39,0-25.61-8.18-25.61-24.42V30.25h-0.02l-9.86,9.84v40.32
					c0,22.01,15.04,32.84,35.49,32.84C91.32,113.25,106.35,102.42,106.35,80.41"/>
			</g>
		</g>
	</g>
</g>
</svg>
