<?xml version="1.0" encoding="utf-8"?>
<!-- Generator: Adobe Illustrator 25.4.1, SVG Export Plug-In . SVG Version: 6.00 Build 0)  -->
<svg version="1.1" id="Capa_1" xmlns="http://www.w3.org/2000/svg" xmlns:xlink="http://www.w3.org/1999/xlink" x="0px" y="0px"
	 viewBox="0 0 409.2 378" style="enable-background:new 0 0 409.2 378;" xml:space="preserve">
<style type="text/css">
	.st0{fill:#1D3C75;}
	.st1{fill:#FFFFFF;}
	.st2{fill:#E55C0E;}
</style>
<g>
	<path class="st0" d="M0,75.2h57.6v3.9c0,60,0,120,0,180c0,2.8,0.1,5.6,0.4,8.4c1,9.7,6.2,15.5,15.3,16.6c6.6,0.8,13.1,0.1,19.5-2.1
		c2.4-0.8,3.4-2,3.4-4.9c-0.1-54.1-0.1-108.2-0.1-162.2v-4h57.4v210.4c-0.8,0.1-1.6,0.2-2.4,0.2c-14,0-28.1,0-42.1,0.1
		c-2,0-2.9-0.6-3.5-2.6c-0.9-2.9-2.1-5.8-3.1-8.4c-20.5,14.4-42.8,16.7-66,11.5c-19.1-4.2-30-17.6-33.8-37.3
		C1,276.1,0.2,267,0.1,258C-0.1,198.1,0,138.2,0,78.3V75.2z"/>
	<path class="st2" d="M180.7,105.7H97V75.1h83.7V0h58.2v75h41.8v30.9H239v3.7c0,49.6-0.1,99.1,0.1,148.7c0,6,1.1,12.2,2.3,18.1
		c1,4.7,4.2,8,8.9,8.8c8.5,1.3,17,2.4,25.5,3.5c1,0.1,2.1,0,3.2,0v32.6c-0.4,0.1-0.9,0.3-1.3,0.3c-16.5-0.1-33,0.1-49.5-0.6
		c-12-0.5-23.3-4.4-32.4-13.2c-8.2-7.9-12.1-18.2-13.8-29.4c-0.9-6-1.2-12.2-1.2-18.3c-0.1-50.1-0.1-100.1-0.1-150.2V105.7z"/>
	<path class="st0" d="M361.4,260.5h42.8c-0.4,4.9-0.6,9.8-1.2,14.6c-2.2,15.9-8,29.5-21.5,38.4c-6.8,4.5-14.3,7.2-22.1,8.5
		c-12.6,2.2-25.3,2.8-37.8-0.5c-18.4-4.8-31.1-17.2-39.9-34.5c-8-15.7-11.7-32.8-13.8-50.4c-2.7-22.2-3-44.5-1.1-66.8
		c1.8-21,5.5-41.6,15.2-60.4c12.7-24.6,32.6-36.6,58.9-37.4c10.5-0.3,20.8,0.7,30.7,4.5c19.8,7.6,30.6,23.2,34.7,44.3
		c1.5,7.9,2,16.1,3,24.4h-51.1c-0.1-1-0.1-2.2-0.2-3.3c-0.6-7-0.9-14-1.9-21c-0.8-5.6-3.7-9.9-9.5-11c-6.3-1.1-11.4,1.6-14.7,7.5
		c-3,5.5-4,11.7-4.5,17.9c-3.3,40.2-3,80.5-0.5,120.8c0.4,6.3,1.6,12.8,3.5,18.8c2.7,8.4,9.8,12,18.1,10.3c4.7-0.9,8.2-3.6,9.6-8.4
		c1.3-4.7,2-9.6,3-14.4C361.2,262,361.3,261.3,361.4,260.5"/>
	<path class="st0" d="M25.8,368c0,1-0.1,2-0.2,3.2c-0.2,1.2-0.5,2.2-1.1,3.3c-0.6,1-1.5,1.9-2.7,2.5c-1.2,0.7-2.9,1-5.1,1
		c-1.9,0-3.5-0.3-4.6-1c-1.1-0.7-2-1.5-2.6-2.5c-0.6-1-1-2.1-1.2-3.3c-0.2-1.2-0.3-2.2-0.3-3.2v-20.1h3.2v19.4c0,0.8,0,1.7,0.1,2.6
		c0.1,0.9,0.3,1.8,0.6,2.6c0.4,0.8,0.9,1.4,1.7,1.9c0.7,0.5,1.8,0.8,3.1,0.8c1.5,0,2.6-0.3,3.4-0.8c0.8-0.5,1.4-1.1,1.7-1.9
		c0.4-0.8,0.6-1.6,0.6-2.6c0.1-0.9,0.1-1.8,0.1-2.6v-19.4h3.2V368z"/>
	<path class="st0" d="M32.1,357.1h2.8v4.7h0.1c0.1-0.4,0.3-0.9,0.6-1.5c0.2-0.6,0.6-1.2,1-1.7c0.5-0.5,1-1,1.8-1.4
		c0.7-0.4,1.6-0.6,2.7-0.6c0.8,0,1.5,0.2,2.2,0.5c0.6,0.3,1.2,0.8,1.6,1.4c0.4,0.6,0.7,1.2,0.9,2c0.2,0.8,0.3,1.6,0.3,2.4v14.6h-2.8
		v-11.3c0-0.9,0-1.7-0.1-2.5c0-0.8-0.1-1.5-0.3-2.1c-0.2-0.6-0.5-1.1-0.9-1.5c-0.4-0.4-0.9-0.5-1.7-0.5c-0.9,0-1.7,0.3-2.4,1
		c-0.7,0.7-1.3,1.5-1.7,2.4c-0.5,1-0.8,2-1,3.1c-0.2,1.1-0.3,2.1-0.3,3.1v8.4h-2.8V357.1z"/>
	<path class="st0" d="M52,347.9h3.7v3.9H52V347.9z M52.5,357.1h2.8v20.4h-2.8V357.1z"/>
	<polygon class="st0" points="58.9,357.1 61.9,357.1 67.6,373.3 67.7,373.3 72.7,357.1 75.6,357.1 69.1,377.6 66.3,377.6 	"/>
	<path class="st0" d="M91.6,377.4c-1.2,0.4-2.7,0.6-4.4,0.6c-3,0-5.3-1-7-2.8c-1.6-1.9-2.5-4.7-2.5-8.5c0-1.5,0.2-2.9,0.5-4.1
		c0.3-1.2,0.8-2.3,1.4-3.2c0.6-0.9,1.4-1.5,2.4-2c1-0.5,2.1-0.7,3.4-0.7c1.1,0,2.1,0.2,3,0.6c0.8,0.4,1.5,0.9,2.1,1.6
		c0.6,0.7,1,1.5,1.3,2.5c0.3,1,0.4,2,0.4,3.1v1H80.9v1.2c0,0.8,0.1,1.7,0.3,2.7c0.2,1,0.5,2,1.1,2.9c0.5,0.9,1.2,1.7,2.1,2.4
		c0.9,0.6,2,1,3.4,1c0.5,0,1,0,1.4-0.1c0.4,0,0.7-0.1,1-0.2c0.3-0.1,0.5-0.1,0.8-0.2c0.2-0.1,0.5-0.1,0.7-0.2V377.4z M88.9,363
		c0-0.3-0.1-0.7-0.2-1.2c-0.1-0.4-0.3-0.9-0.6-1.3c-0.3-0.4-0.7-0.7-1.1-1c-0.5-0.3-1.1-0.4-1.8-0.4c-0.7,0-1.3,0.1-1.8,0.4
		c-0.5,0.3-0.9,0.6-1.2,1c-0.3,0.4-0.5,0.8-0.7,1.3c-0.2,0.4-0.3,0.8-0.3,1.2H88.9z"/>
	<path class="st0" d="M96.9,357.1h2.8v3.9h0.1c0.1-0.3,0.3-0.8,0.6-1.3c0.3-0.5,0.7-1,1.2-1.5c0.5-0.5,1.1-0.9,1.9-1.2
		c0.8-0.3,1.7-0.5,2.8-0.5v3.1c-1.1,0-2.1,0.2-2.9,0.7c-0.8,0.5-1.5,1.1-2,1.9c-0.5,0.8-1,1.8-1.2,2.9c-0.3,1.1-0.4,2.4-0.4,3.8v8.5
		h-2.8V357.1z"/>
	<path class="st0" d="M115.8,366c0.5,0.3,1,0.6,1.6,0.9c0.5,0.3,1,0.7,1.4,1.1c0.4,0.4,0.8,1,1.1,1.6c0.3,0.6,0.4,1.4,0.4,2.2
		c0,2.1-0.6,3.6-1.9,4.6c-1.3,1-3,1.5-5.3,1.5c-1.3,0-2.4-0.1-3.3-0.3c-0.9-0.2-1.6-0.4-2-0.5v-2.7c0.1,0.1,0.3,0.1,0.7,0.3
		c0.3,0.1,0.7,0.2,1.2,0.3c0.5,0.1,1,0.2,1.5,0.3c0.5,0.1,1.1,0.2,1.6,0.2c0.7,0,1.3-0.1,1.9-0.2c0.6-0.1,1.1-0.3,1.5-0.6
		c0.4-0.3,0.8-0.6,1-1c0.2-0.4,0.4-0.9,0.4-1.5c0-0.5-0.1-1-0.4-1.3c-0.3-0.4-0.6-0.7-0.9-1c-0.4-0.3-0.7-0.5-1.2-0.7
		c-0.4-0.2-0.7-0.4-1-0.6l-1.8-1c-0.5-0.3-0.9-0.5-1.4-0.8c-0.5-0.3-1-0.7-1.4-1.1c-0.5-0.4-0.8-0.9-1.1-1.5
		c-0.3-0.6-0.4-1.3-0.4-2.1c0-1.7,0.6-3,1.7-3.9c1.1-1,2.8-1.5,5-1.5c1,0,1.9,0.1,2.7,0.3c0.8,0.2,1.4,0.3,1.9,0.4v2.7
		c-0.3-0.2-0.9-0.3-1.8-0.6c-0.9-0.2-1.8-0.4-2.8-0.4c-1.2,0-2.1,0.3-2.8,0.8c-0.7,0.5-1.1,1.1-1.1,1.9c0,0.4,0.1,0.8,0.3,1.1
		c0.2,0.3,0.5,0.6,0.8,0.8c0.3,0.2,0.7,0.5,1.1,0.7c0.4,0.2,0.8,0.4,1.2,0.6L115.8,366z"/>
	<path class="st0" d="M124.2,347.9h3.7v3.9h-3.7V347.9z M124.7,357.1h2.8v20.4h-2.8V357.1z"/>
	<path class="st0" d="M144.4,374.1L144.4,374.1c-0.2,0.4-0.4,0.8-0.6,1.2c-0.2,0.5-0.6,0.9-1,1.3c-0.4,0.4-0.9,0.7-1.5,1
		c-0.6,0.3-1.3,0.4-2,0.4c-1.2,0-2.2-0.2-3-0.7c-0.8-0.5-1.5-1.2-2.1-2.1c-0.5-0.9-0.9-2-1.2-3.3c-0.3-1.3-0.4-2.7-0.4-4.4
		c0-1.4,0.1-2.7,0.4-4c0.3-1.3,0.6-2.5,1.2-3.5c0.5-1,1.2-1.8,2-2.5c0.8-0.6,1.8-0.9,3-0.9c0.8,0,1.6,0.1,2.2,0.4
		c0.6,0.3,1.1,0.6,1.5,1c0.4,0.4,0.7,0.8,0.9,1.2c0.2,0.4,0.4,0.8,0.5,1.2h0.1v-12.5h2.8v29.6h-2.8V374.1z M135.8,368.1
		c0,0.7,0,1.4,0.1,2.3s0.3,1.7,0.5,2.4c0.3,0.8,0.7,1.4,1.2,2c0.5,0.5,1.3,0.8,2.2,0.8c0.8,0,1.5-0.3,2.1-0.8c0.6-0.5,1.1-1.2,1.4-2
		c0.4-0.8,0.6-1.7,0.8-2.6c0.2-1,0.3-1.9,0.3-2.8c0-1.1-0.1-2.2-0.3-3.2c-0.2-1-0.5-1.9-0.9-2.6c-0.4-0.8-0.9-1.4-1.4-1.8
		c-0.6-0.4-1.2-0.7-1.9-0.7c-0.8,0-1.5,0.3-2,0.8c-0.5,0.5-1,1.2-1.3,2.1c-0.3,0.8-0.5,1.8-0.6,2.9
		C135.8,365.9,135.8,367,135.8,368.1"/>
	<path class="st0" d="M163.1,374.9L163.1,374.9c-0.2,0.2-0.4,0.6-0.7,0.9c-0.3,0.4-0.7,0.7-1.2,1c-0.5,0.3-1.1,0.6-1.8,0.9
		c-0.7,0.2-1.5,0.4-2.4,0.4c-1.6,0-2.9-0.5-3.8-1.5c-0.9-1-1.4-2.4-1.4-4.2c0-1.2,0.3-2.2,1-3c0.6-0.8,1.4-1.5,2.4-2
		c0.9-0.5,1.9-0.9,3-1.1c1.1-0.2,2-0.3,2.9-0.3c0.4,0,0.7,0,1,0c0.3,0,0.6-0.1,0.9-0.1v-1c0-0.4,0-0.7,0-1.1c0-0.4,0-0.7,0-1.1
		c0-0.3,0-0.6-0.1-0.8c-0.1-0.6-0.3-1-0.5-1.4c-0.3-0.4-0.5-0.6-0.9-0.9c-0.3-0.2-0.7-0.4-1.1-0.4c-0.4-0.1-0.7-0.1-1.1-0.1
		c-0.8,0-1.4,0.1-1.9,0.3c-0.5,0.2-0.9,0.4-1.2,0.7c-0.3,0.3-0.5,0.7-0.6,1.1c-0.1,0.4-0.2,0.8-0.3,1.2h-3.1c0-0.6,0.1-1.3,0.3-2
		c0.2-0.7,0.6-1.3,1.2-1.8c0.5-0.5,1.3-1,2.1-1.3c0.9-0.4,2-0.5,3.3-0.5c1.5,0,2.7,0.2,3.5,0.7c0.9,0.4,1.5,1,2,1.7
		c0.4,0.7,0.7,1.4,0.8,2.1c0.1,0.8,0.2,1.5,0.2,2.1v14.3h-2.7V374.9z M161.4,368.3c-0.5,0-1.1,0.1-1.9,0.2c-0.7,0.1-1.4,0.3-2.1,0.7
		c-0.7,0.3-1.2,0.8-1.7,1.3c-0.5,0.6-0.7,1.3-0.7,2.1c0,1,0.3,1.7,0.8,2.2c0.6,0.5,1.2,0.8,1.9,0.8c0.9,0,1.7-0.3,2.6-0.8
		c0.9-0.6,1.5-1.3,1.9-2.3c0.1-0.3,0.2-0.6,0.3-0.8c0.1-0.2,0.2-0.5,0.2-0.8c0.1-0.3,0.1-0.6,0.1-1c0-0.4,0-0.9,0-1.5H161.4z"/>
	<path class="st0" d="M182.4,374.1L182.4,374.1c-0.2,0.4-0.4,0.8-0.6,1.2c-0.2,0.5-0.6,0.9-1,1.3c-0.4,0.4-0.9,0.7-1.5,1
		c-0.6,0.3-1.3,0.4-2,0.4c-1.2,0-2.2-0.2-3-0.7c-0.8-0.5-1.5-1.2-2.1-2.1c-0.5-0.9-0.9-2-1.2-3.3c-0.3-1.3-0.4-2.7-0.4-4.4
		c0-1.4,0.1-2.7,0.4-4c0.2-1.3,0.6-2.5,1.2-3.5c0.5-1,1.2-1.8,2-2.5c0.8-0.6,1.8-0.9,3-0.9c0.8,0,1.6,0.1,2.2,0.4
		c0.6,0.3,1.1,0.6,1.5,1c0.4,0.4,0.7,0.8,0.9,1.2c0.2,0.4,0.4,0.8,0.5,1.2h0.1v-12.5h2.8v29.6h-2.8V374.1z M173.8,368.1
		c0,0.7,0,1.4,0.1,2.3c0.1,0.9,0.3,1.7,0.5,2.4c0.3,0.8,0.7,1.4,1.2,2c0.5,0.5,1.3,0.8,2.2,0.8c0.8,0,1.5-0.3,2.1-0.8
		c0.6-0.5,1.1-1.2,1.4-2c0.4-0.8,0.6-1.7,0.8-2.6c0.2-1,0.3-1.9,0.3-2.8c0-1.1-0.1-2.2-0.3-3.2c-0.2-1-0.5-1.9-0.9-2.6
		c-0.4-0.8-0.9-1.4-1.4-1.8c-0.6-0.4-1.2-0.7-1.9-0.7c-0.8,0-1.5,0.3-2,0.8c-0.5,0.5-1,1.2-1.3,2.1c-0.3,0.8-0.5,1.8-0.6,2.9
		C173.9,365.9,173.8,367,173.8,368.1"/>
	<polygon class="st0" points="205.3,350.7 198.6,350.7 198.6,347.9 215.2,347.9 215.2,350.7 208.5,350.7 208.5,377.6 205.3,377.6 	
		"/>
	<path class="st0" d="M218.2,357.1h2.8v3.9h0.1c0.1-0.3,0.3-0.8,0.6-1.3c0.3-0.5,0.7-1,1.2-1.5c0.5-0.5,1.1-0.9,1.9-1.2
		c0.8-0.3,1.7-0.5,2.8-0.5v3.1c-1.1,0-2.1,0.2-2.9,0.7c-0.8,0.5-1.5,1.1-2,1.9c-0.5,0.8-1,1.8-1.2,2.9c-0.3,1.1-0.4,2.4-0.4,3.8v8.5
		h-2.8V357.1z"/>
	<path class="st0" d="M243.5,377.4c-1.2,0.4-2.7,0.6-4.4,0.6c-3,0-5.3-1-7-2.8c-1.6-1.9-2.5-4.7-2.5-8.5c0-1.5,0.2-2.9,0.5-4.1
		c0.3-1.2,0.8-2.3,1.4-3.2c0.6-0.9,1.4-1.5,2.4-2c1-0.5,2.1-0.7,3.4-0.7c1.1,0,2.1,0.2,3,0.6c0.8,0.4,1.5,0.9,2.1,1.6
		c0.6,0.7,1,1.5,1.3,2.5c0.3,1,0.4,2,0.4,3.1v1h-11.2v1.2c0,0.8,0.1,1.7,0.3,2.7c0.2,1,0.5,2,1.1,2.9c0.5,0.9,1.2,1.7,2.1,2.4
		c0.9,0.6,2,1,3.4,1c0.5,0,1,0,1.4-0.1c0.4,0,0.7-0.1,1-0.2c0.3-0.1,0.5-0.1,0.8-0.2c0.2-0.1,0.5-0.1,0.7-0.2V377.4z M240.7,363
		c0-0.3-0.1-0.7-0.2-1.2c-0.1-0.4-0.3-0.9-0.6-1.3c-0.3-0.4-0.7-0.7-1.1-1c-0.5-0.3-1.1-0.4-1.8-0.4c-0.7,0-1.3,0.1-1.8,0.4
		c-0.5,0.3-0.9,0.6-1.2,1c-0.3,0.4-0.5,0.8-0.7,1.3c-0.2,0.4-0.3,0.8-0.3,1.2H240.7z"/>
	<path class="st0" d="M255,366c0.5,0.3,1,0.6,1.6,0.9c0.5,0.3,1,0.7,1.4,1.1c0.4,0.4,0.8,1,1.1,1.6c0.3,0.6,0.4,1.4,0.4,2.2
		c0,2.1-0.6,3.6-1.9,4.6c-1.3,1-3,1.5-5.3,1.5c-1.3,0-2.4-0.1-3.3-0.3c-0.9-0.2-1.6-0.4-2-0.5v-2.7c0.1,0.1,0.3,0.1,0.7,0.3
		c0.3,0.1,0.7,0.2,1.2,0.3c0.5,0.1,1,0.2,1.5,0.3c0.5,0.1,1.1,0.2,1.6,0.2c0.7,0,1.3-0.1,1.9-0.2c0.6-0.1,1.1-0.3,1.5-0.6
		c0.4-0.3,0.7-0.6,1-1c0.2-0.4,0.4-0.9,0.4-1.5c0-0.5-0.1-1-0.4-1.3c-0.3-0.4-0.6-0.7-0.9-1c-0.4-0.3-0.7-0.5-1.2-0.7
		c-0.4-0.2-0.7-0.4-1-0.6l-1.8-1c-0.5-0.3-0.9-0.5-1.4-0.8c-0.5-0.3-1-0.7-1.4-1.1c-0.4-0.4-0.8-0.9-1.1-1.5
		c-0.3-0.6-0.4-1.3-0.4-2.1c0-1.7,0.6-3,1.7-3.9c1.1-1,2.8-1.5,5-1.5c1,0,1.9,0.1,2.7,0.3c0.8,0.2,1.4,0.3,1.9,0.4v2.7
		c-0.3-0.2-0.9-0.3-1.8-0.6c-0.9-0.2-1.8-0.4-2.8-0.4c-1.2,0-2.1,0.3-2.8,0.8c-0.7,0.5-1.1,1.1-1.1,1.9c0,0.4,0.1,0.8,0.3,1.1
		c0.2,0.3,0.5,0.6,0.8,0.8c0.3,0.2,0.7,0.5,1.1,0.7c0.4,0.2,0.8,0.4,1.2,0.6L255,366z"/>
	<path class="st0" d="M291.1,376.3c-0.3,0.1-0.7,0.3-1.1,0.5c-0.4,0.2-0.9,0.4-1.5,0.6c-0.6,0.2-1.3,0.4-2.1,0.5
		c-0.8,0.1-1.7,0.2-2.8,0.2c-2.1,0-3.9-0.5-5.3-1.5c-1.4-1-2.5-2.2-3.3-3.8c-0.8-1.5-1.4-3.2-1.7-5.1c-0.3-1.9-0.5-3.7-0.5-5.5
		c0-1.9,0.2-3.8,0.5-5.5c0.4-1.8,0.9-3.3,1.8-4.7c0.8-1.4,1.9-2.4,3.3-3.3c1.4-0.8,3-1.2,5.1-1.2c1.4,0,2.7,0.2,3.7,0.7
		c1.1,0.4,2,1.1,2.7,1.8c0.7,0.8,1.3,1.7,1.7,2.7c0.4,1.1,0.6,2.2,0.6,3.4h-3.6c0-1.7-0.4-3-1.3-4.1c-0.9-1.1-2.2-1.6-3.8-1.6
		c-1.5,0-2.7,0.4-3.6,1.1c-0.9,0.7-1.7,1.7-2.2,2.8c-0.5,1.2-0.9,2.5-1.1,3.9c-0.2,1.4-0.3,2.9-0.3,4.3c0,0.8,0,1.7,0.1,2.7
		c0.1,1,0.2,1.9,0.4,2.9c0.2,0.9,0.5,1.9,0.9,2.7c0.4,0.9,0.9,1.7,1.5,2.4c0.6,0.7,1.3,1.2,2.2,1.6c0.9,0.4,1.9,0.6,3,0.6
		c0.9,0,1.7-0.1,2.4-0.3c0.7-0.2,1.4-0.4,1.9-0.7c0.6-0.3,1-0.6,1.4-0.8c0.4-0.3,0.7-0.5,0.9-0.7V376.3z"/>
	<path class="st0" d="M306.6,372.8L306.6,372.8c-0.2,0.4-0.4,0.9-0.6,1.5c-0.2,0.6-0.6,1.2-1,1.7c-0.4,0.5-1,1-1.8,1.4
		c-0.7,0.4-1.6,0.6-2.7,0.6c-0.8,0-1.6-0.2-2.2-0.5c-0.6-0.3-1.1-0.8-1.5-1.4c-0.4-0.6-0.7-1.2-0.9-2c-0.2-0.8-0.3-1.6-0.3-2.4
		v-14.6h2.8v11.3c0,0.9,0,1.7,0.1,2.5c0,0.8,0.1,1.5,0.3,2.1c0.2,0.6,0.5,1.1,0.9,1.5c0.4,0.4,0.9,0.5,1.7,0.5c0.9,0,1.7-0.3,2.4-1
		c0.7-0.6,1.2-1.5,1.7-2.4c0.5-1,0.8-2,1-3.1c0.2-1.1,0.3-2.1,0.3-3v-8.4h2.8v20.4h-2.8V372.8z"/>
	<rect x="316.1" y="347.9" class="st0" width="2.8" height="29.6"/>
	<path class="st0" d="M334.6,377.8c-0.4,0.1-0.8,0.1-1.2,0.2c-0.4,0-0.8,0.1-1.2,0.1c-2,0-3.3-0.4-4.2-1.3c-0.8-0.8-1.2-2.2-1.2-4
		v-13.2h-3.2v-2.4h3.2v-4.8l2.8-1.8v6.6h5.2v2.4h-5.2v12.6c0,0.3,0,0.7,0.1,1.1s0.2,0.8,0.4,1.1c0.2,0.3,0.5,0.6,1,0.9
		c0.4,0.2,1,0.3,1.7,0.3c0.5,0,0.8,0,1.1-0.1c0.2-0.1,0.5-0.2,0.8-0.3V377.8z"/>
	<path class="st0" d="M349.7,372.8L349.7,372.8c-0.2,0.4-0.4,0.9-0.6,1.5c-0.2,0.6-0.6,1.2-1,1.7c-0.5,0.5-1,1-1.8,1.4
		c-0.7,0.4-1.6,0.6-2.7,0.6c-0.8,0-1.6-0.2-2.2-0.5c-0.6-0.3-1.1-0.8-1.5-1.4c-0.4-0.6-0.7-1.2-0.9-2c-0.2-0.8-0.3-1.6-0.3-2.4
		v-14.6h2.8v11.3c0,0.9,0,1.7,0,2.5c0,0.8,0.1,1.5,0.3,2.1c0.2,0.6,0.5,1.1,0.9,1.5c0.4,0.4,0.9,0.5,1.6,0.5c0.9,0,1.7-0.3,2.4-1
		s1.2-1.5,1.7-2.4c0.4-1,0.8-2,1-3.1c0.2-1.1,0.3-2.1,0.3-3v-8.4h2.8v20.4h-2.8V372.8z"/>
	<path class="st0" d="M359,357.1h2.8v3.9h0.1c0.1-0.3,0.3-0.8,0.6-1.3c0.3-0.5,0.7-1,1.2-1.5c0.5-0.5,1.1-0.9,1.9-1.2
		c0.8-0.3,1.7-0.5,2.8-0.5v3.1c-1.1,0-2.1,0.2-2.9,0.7c-0.8,0.5-1.5,1.1-2,1.9c-0.5,0.8-1,1.8-1.2,2.9c-0.3,1.1-0.4,2.4-0.4,3.8v8.5
		H359V357.1z"/>
	<path class="st0" d="M381.3,374.9L381.3,374.9c-0.2,0.2-0.4,0.6-0.7,0.9c-0.3,0.4-0.7,0.7-1.2,1c-0.5,0.3-1.1,0.6-1.7,0.9
		c-0.7,0.2-1.5,0.4-2.4,0.4c-1.6,0-2.9-0.5-3.8-1.5c-0.9-1-1.4-2.4-1.4-4.2c0-1.2,0.3-2.2,1-3c0.6-0.8,1.4-1.5,2.4-2
		c0.9-0.5,1.9-0.9,3-1.1c1.1-0.2,2-0.3,2.9-0.3c0.3,0,0.7,0,1,0c0.3,0,0.6-0.1,0.9-0.1v-1c0-0.4,0-0.7,0-1.1c0-0.4,0-0.7,0-1.1
		c0-0.3,0-0.6-0.1-0.8c-0.1-0.6-0.3-1-0.5-1.4c-0.2-0.4-0.5-0.6-0.9-0.9c-0.3-0.2-0.7-0.4-1.1-0.4c-0.4-0.1-0.7-0.1-1.1-0.1
		c-0.8,0-1.4,0.1-1.9,0.3c-0.5,0.2-0.9,0.4-1.2,0.7c-0.3,0.3-0.5,0.7-0.6,1.1c-0.1,0.4-0.2,0.8-0.3,1.2h-3.1c0-0.6,0.1-1.3,0.3-2
		c0.2-0.7,0.6-1.3,1.2-1.8c0.5-0.5,1.3-1,2.1-1.3c0.9-0.4,2-0.5,3.3-0.5c1.5,0,2.7,0.2,3.5,0.7c0.9,0.4,1.5,1,2,1.7
		c0.4,0.7,0.7,1.4,0.8,2.1c0.1,0.8,0.2,1.5,0.2,2.1v14.3h-2.7V374.9z M379.6,368.3c-0.5,0-1.1,0.1-1.9,0.2s-1.4,0.3-2.1,0.7
		c-0.7,0.3-1.2,0.8-1.7,1.3c-0.5,0.6-0.7,1.3-0.7,2.1c0,1,0.3,1.7,0.8,2.2c0.6,0.5,1.2,0.8,1.9,0.8c0.9,0,1.7-0.3,2.6-0.8
		c0.9-0.6,1.5-1.3,1.9-2.3c0.1-0.3,0.2-0.6,0.3-0.8c0.1-0.2,0.2-0.5,0.2-0.8c0.1-0.3,0.1-0.6,0.1-1c0-0.4,0-0.9,0-1.5H379.6z"/>
	<path class="st0" d="M396.5,366c0.5,0.3,1,0.6,1.6,0.9c0.5,0.3,1,0.7,1.4,1.1c0.4,0.4,0.8,1,1.1,1.6c0.3,0.6,0.4,1.4,0.4,2.2
		c0,2.1-0.6,3.6-1.9,4.6c-1.3,1-3,1.5-5.3,1.5c-1.3,0-2.4-0.1-3.3-0.3c-0.9-0.2-1.6-0.4-2-0.5v-2.7c0.1,0.1,0.3,0.1,0.7,0.3
		c0.3,0.1,0.7,0.2,1.2,0.3c0.5,0.1,1,0.2,1.5,0.3c0.5,0.1,1.1,0.2,1.6,0.2c0.7,0,1.3-0.1,1.9-0.2c0.6-0.1,1.1-0.3,1.5-0.6
		c0.4-0.3,0.8-0.6,1-1c0.2-0.4,0.4-0.9,0.4-1.5c0-0.5-0.1-1-0.4-1.3c-0.3-0.4-0.6-0.7-0.9-1c-0.4-0.3-0.7-0.5-1.2-0.7
		c-0.4-0.2-0.7-0.4-1-0.6l-1.8-1c-0.5-0.3-0.9-0.5-1.4-0.8c-0.5-0.3-1-0.7-1.4-1.1c-0.5-0.4-0.8-0.9-1.1-1.5
		c-0.3-0.6-0.4-1.3-0.4-2.1c0-1.7,0.6-3,1.7-3.9c1.1-1,2.8-1.5,4.9-1.5c1,0,1.9,0.1,2.7,0.3c0.8,0.2,1.4,0.3,1.9,0.4v2.7
		c-0.3-0.2-0.9-0.3-1.8-0.6c-0.9-0.2-1.8-0.4-2.8-0.4c-1.2,0-2.1,0.3-2.8,0.8c-0.7,0.5-1.1,1.1-1.1,1.9c0,0.4,0.1,0.8,0.3,1.1
		c0.2,0.3,0.5,0.6,0.8,0.8c0.3,0.2,0.7,0.5,1.1,0.7c0.4,0.2,0.8,0.4,1.2,0.6L396.5,366z"/>
</g>
</svg>
