<?xml version="1.0" encoding="utf-8"?>
<!-- Generator: Adobe Illustrator 25.4.1, SVG Export Plug-In . SVG Version: 6.00 Build 0)  -->
<svg version="1.1" id="Capa_1" xmlns="http://www.w3.org/2000/svg" xmlns:xlink="http://www.w3.org/1999/xlink" x="0px" y="0px"
	 viewBox="0 0 415 105.6" style="enable-background:new 0 0 415 105.6;" xml:space="preserve">
<style type="text/css">
	.st0{fill:#253366;}
	.st1{fill:#FFFFFF;}
	.st2{fill:#F6A508;}
	.st3{fill:#D3102E;}
</style>
<g>
	<g>
		<path class="st0" d="M166,19.8v83.6h-20.2V19.8h-33.6V4.1h87.4v15.7H166z"/>
		<path class="st0" d="M223.2,103.5V4.1h64.8v15.7h-44.6v23.4h36.3v15.7h-36.3v28.8h44.6v15.7H223.2z"/>
	</g>
	<path class="st0" d="M364.5,47.8H414c0.3,1.1,0.5,2.5,0.7,4.1c0.2,1.6,0.3,3.2,0.3,4.8c0,6.5-1,12.6-3,18.3
		c-2,5.7-5.1,10.9-9.3,15.4c-4.5,4.8-9.9,8.5-16.2,11.1c-6.3,2.6-13.5,4-21.6,4c-7.3,0-14.3-1.3-20.7-4c-6.5-2.6-12.1-6.3-16.9-11
		c-4.8-4.7-8.6-10.3-11.4-16.7c-2.8-6.4-4.2-13.5-4.2-21.1s1.4-14.7,4.2-21.1c2.8-6.4,6.6-12,11.4-16.7c4.8-4.7,10.4-8.4,16.9-11
		c6.5-2.6,13.4-4,20.7-4c8.2,0,15.5,1.4,21.9,4.2c6.4,2.8,12,6.7,16.6,11.7l-13.1,12.8c-3.3-3.5-7-6.1-11-8c-4-1.8-8.9-2.8-14.5-2.8
		c-4.6,0-9,0.8-13.1,2.5c-4.1,1.6-7.8,4-10.9,7c-3.1,3-5.6,6.7-7.4,10.9c-1.8,4.3-2.8,9.1-2.8,14.3c0,5.3,0.9,10,2.8,14.3
		c1.8,4.3,4.3,7.9,7.5,10.9c3.2,3,6.8,5.3,10.9,7c4.1,1.6,8.6,2.5,13.3,2.5c5.4,0,9.9-0.8,13.6-2.3c3.7-1.6,6.9-3.6,9.5-6
		c1.9-1.7,3.5-3.8,4.9-6.4c1.4-2.6,2.4-5.5,3.2-8.7h-31.8V47.8z"/>
	<path class="st2" d="M9.5,64.4V4.7V4.5V4.3H0v0.4h0c0,3.6,0,59.7,0,59.7c0,5.1,0.7,10.2,2.5,15.1c3.3,9.2,11.4,16.8,19.3,20.5
		c3,1.4,4.8,1.9,8,2.7c4.6,1.2,15.8,0.8,22.5,0.8c0,0,0,0,0,0C8.4,94.9,9.5,64.4,9.5,64.4z"/>
	<path class="st3" d="M11.7,4.3l13,0c0,3.1,0,6.2,0,9.3c0,6.8,0,13.7,0,20.5c0,6.9,0,13.8,0,20.6c0,1.9,0,3.9,0,5.8
		c0,3.6,0.5,6.7,1.5,10.1c0.9,3.2,2.1,6.4,3.5,9.4c3.5,7.6,8.8,14.6,16.1,18.5c0.9,0.5,2,1.2,3.1,1.4c0,0-16.6-3.1-26.9-13.2
		C15.9,80.7,12,71.8,12,63c0-5.5,0-11-0.1-16.5c0-7.9-0.1-15.8-0.1-23.7c0-5.6-0.1-11.2-0.1-16.8C11.7,5.4,11.7,4.9,11.7,4.3z"/>
	<path class="st0" d="M81.1,91.4c6.8-7.1,10.6-16.2,10.2-28.3V23.6V4.2H70.7v59c0,33.3-35.8,21.2-35.8,21.2s10.4,19.8,33.2,15
		C71,98.6,75.9,96.6,81.1,91.4z"/>
</g>
</svg>
