<?xml version="1.0" encoding="utf-8"?>
<!-- Generator: Adobe Illustrator 25.4.1, SVG Export Plug-In . SVG Version: 6.00 Build 0)  -->
<svg version="1.1" id="Capa_1" xmlns="http://www.w3.org/2000/svg" xmlns:xlink="http://www.w3.org/1999/xlink" x="0px" y="0px"
	 viewBox="0 0 500 500" style="enable-background:new 0 0 500 500;" xml:space="preserve">
<style type="text/css">
	.st0{fill:#00A0DF;}
	.st1{fill:#0086AF;}
	.st2{fill:#FFFFFF;}
</style>
<g>
	<circle class="st0" cx="250" cy="250" r="250"/>
	<path class="st1" d="M493.33,307.56L343.3,137.26c-14.4-15.08-36.82-24.28-63.31-24.28H132.14v274.03L265.2,499.53
		C376.67,492.84,468.45,413.12,493.33,307.56L493.33,307.56z"/>
	<g>
		<path class="st2" d="M354.12,270.32c9.16,12,13.74,25.87,13.74,41.61c0,24-7.93,42.51-23.8,55.54
			c-15.87,13.03-38.64,19.55-68.31,19.55H132.14V112.98h139.72c27.87,0,49.8,6.07,65.8,18.19c16,12.13,24,29.8,24,53.03
			c0,16-4.2,29.48-12.58,40.45c-8.39,10.97-19.55,18.26-33.48,21.87C332.11,250.39,344.95,258.32,354.12,270.32z M218.07,219.81
			h33.29c7.74,0,13.48-1.55,17.22-4.64c3.74-3.1,5.61-7.87,5.61-14.32c0-6.71-1.87-11.67-5.61-14.9c-3.74-3.22-9.48-4.84-17.22-4.84
			h-33.29V219.81z M274.38,313.67c3.74-2.96,5.61-7.8,5.61-14.51c0-13.16-7.61-19.74-22.84-19.74h-39.09v38.71h39.09
			C264.9,318.12,270.64,316.64,274.38,313.67z"/>
	</g>
</g>
</svg>
