<?xml version="1.0" encoding="utf-8"?>
<!-- Generator: Adobe Illustrator 25.4.1, SVG Export Plug-In . SVG Version: 6.00 Build 0)  -->
<svg version="1.1" id="Capa_1" xmlns="http://www.w3.org/2000/svg" xmlns:xlink="http://www.w3.org/1999/xlink" x="0px" y="0px"
	 viewBox="0 0 500 500" style="enable-background:new 0 0 500 500;" xml:space="preserve">
<style type="text/css">
	.st0{fill:#16B522;}
	.st1{fill:#168C22;}
	.st2{fill:#FFFFFF;}
</style>
<g>
	<g id="Layer_2_00000008851508889229231670000014866313782847019671_">
		<g id="_19.S__00000170961233056094639020000003197988094840383874_">
			<path id="background_00000001624186955003672000000014077116492434146206_" class="st0" d="M250,0L250,0
				c138.07,0,250,111.93,250,250l0,0c0,138.07-111.93,250-250,250l0,0C111.93,500,0,388.07,0,250l0,0C0,111.93,111.93,0,250,0z"/>
			<path class="st1" d="M484.84,335.92c-25.88,70.51-82.02,125.7-152.97,150.36L171.24,356.27l92.01-39.27l-73.33-52.85
				l-17.73-68.62c26.79-127.45,149.59-57.24,149.59-57.24L484.84,335.92z"/>
		</g>
	</g>
	<g>
		<path class="st2" d="M178.22,361.9c-20.24-14.6-31.23-36.01-32.94-64.23h86.87c1.22,14.97,7.85,22.45,19.88,22.45
			c4.42,0,8.16-1.04,11.23-3.13c3.07-2.08,4.6-5.34,4.6-9.75c0-6.13-3.31-11.1-9.94-14.91c-6.62-3.8-16.93-8.16-30.92-13.07
			c-16.69-5.89-30.5-11.65-41.41-17.3c-10.92-5.64-20.31-13.86-28.16-24.66c-7.86-10.8-11.66-24.66-11.41-41.6
			c0-16.93,4.35-31.35,13.07-43.25c8.71-11.9,20.61-20.92,35.71-27.06c15.09-6.13,32.08-9.2,50.98-9.2
			c31.9,0,57.24,7.36,76.01,22.09c18.77,14.72,28.65,35.46,29.63,62.21h-87.98c-0.25-7.36-2.09-12.64-5.52-15.83
			c-3.44-3.19-7.61-4.78-12.51-4.78c-3.44,0-6.26,1.17-8.47,3.5c-2.21,2.34-3.31,5.58-3.31,9.76c0,5.89,3.25,10.74,9.76,14.54
			c6.5,3.81,16.87,8.41,31.1,13.8c16.44,6.14,30,12.03,40.67,17.67c10.67,5.65,19.93,13.5,27.79,23.56
			c7.85,10.07,11.78,22.7,11.78,37.91c0,15.96-3.93,30.25-11.78,42.88c-7.86,12.64-19.27,22.52-34.23,29.63
			c-14.97,7.12-32.76,10.67-53.37,10.67C224.17,383.8,198.47,376.51,178.22,361.9z"/>
	</g>
</g>
</svg>
