<?xml version="1.0" encoding="utf-8"?>
<!-- Generator: Adobe Illustrator 25.4.1, SVG Export Plug-In . SVG Version: 6.00 Build 0)  -->
<svg version="1.1" id="Capa_1" xmlns="http://www.w3.org/2000/svg" xmlns:xlink="http://www.w3.org/1999/xlink" x="0px" y="0px"
	 viewBox="0 0 500 500" style="enable-background:new 0 0 500 500;" xml:space="preserve">
<style type="text/css">
	.st0{fill:#FFD23F;}
	.st1{fill:#D8AE39;}
	.st2{fill:#FFFFFF;}
</style>
<g>
	<circle class="st0" cx="250" cy="250" r="250"/>
	<g>
		<path class="st1" d="M493.15,308.31L311.19,126.41l-155.7,3.61l-4.89,2.94c0,0-5.03,0.05-9.05,2.77
			c-3.12,2.11-12.42,8.54-12.42,8.54v181.88l3.27,6.53l0.1,10.2l-5.75,26.08l130.56,130.91
			C372.06,496.59,467.42,415.97,493.15,308.31z"/>
	</g>
	<g>
		<path class="st2" d="M363.21,313.33c0-2.5,2.03-4.52,4.52-4.52h8.82c-0.56-8.03-2.67-15.87-6.2-23.11l-3.7,2.14
			c-2.16,1.26-4.93,0.54-6.19-1.61c-1.26-2.16-0.54-4.93,1.61-6.19c0.02-0.01,0.04-0.02,0.05-0.03l3.75-2.17
			c-4.53-6.66-10.27-12.41-16.94-16.93l-2.17,3.75c-1.23,2.17-4,2.93-6.17,1.7c-2.17-1.23-2.93-4-1.7-6.17
			c0.01-0.02,0.02-0.04,0.03-0.05l2.14-3.71c-7.23-3.53-15.08-5.63-23.1-6.2v8.82c0,2.5-2.03,4.52-4.52,4.52
			c-2.5,0-4.52-2.03-4.52-4.52v-8.82c-8.03,0.56-15.87,2.67-23.1,6.2l2.14,3.71c1.25,2.16,0.51,4.93-1.66,6.17
			c-0.69,0.4-1.47,0.61-2.26,0.61c-1.62,0-3.11-0.86-3.92-2.26l-2.17-3.75c-6.66,4.53-12.41,10.27-16.93,16.93l3.75,2.17
			c2.17,1.23,2.93,4,1.7,6.17c-1.23,2.17-4,2.93-6.17,1.7c-0.02-0.01-0.04-0.02-0.05-0.03l-3.7-2.14c-3.53,7.23-5.63,15.08-6.2,23.1
			h8.82c2.5,0,4.52,2.03,4.52,4.52c0,2.5-2.03,4.52-4.52,4.52h-8.82c0.56,8.03,2.67,15.87,6.2,23.1l3.7-2.14
			c2.17-1.23,4.93-0.47,6.17,1.7c1.22,2.15,0.49,4.89-1.64,6.14l-3.75,2.17c4.53,6.66,10.27,12.41,16.94,16.93l2.17-3.75
			c1.23-2.17,4-2.93,6.17-1.7c2.17,1.23,2.93,4,1.7,6.17c-0.01,0.02-0.02,0.04-0.03,0.05l-2.14,3.71c7.23,3.53,15.07,5.64,23.1,6.2
			v-8.82c0-2.5,2.03-4.52,4.52-4.52c2.5,0,4.52,2.03,4.52,4.52v8.82c8.03-0.56,15.87-2.67,23.1-6.2l-2.14-3.71
			c-1.26-2.16-0.54-4.93,1.61-6.19c2.16-1.26,4.93-0.54,6.19,1.61c0.01,0.02,0.02,0.04,0.03,0.05l2.17,3.75
			c6.66-4.52,12.41-10.27,16.94-16.93l-3.75-2.17c-2.17-1.23-2.93-4-1.7-6.17c1.23-2.17,4-2.93,6.17-1.7
			c0.02,0.01,0.04,0.02,0.05,0.03l3.7,2.14c3.53-7.23,5.64-15.08,6.2-23.11h-8.82C365.23,317.86,363.21,315.83,363.21,313.33z
			 M330.22,330.1c-1.77,1.77-4.63,1.77-6.4,0l-13.57-13.57c-0.85-0.85-1.32-2-1.33-3.19v-36.19c0-2.5,2.03-4.52,4.52-4.52
			c2.5,0,4.52,2.03,4.52,4.52v34.32l12.25,12.25C331.98,325.47,331.98,328.33,330.22,330.1L330.22,330.1z"/>
		<path class="st2" d="M141.55,123.34c-9.99,0-18.09,8.1-18.09,18.09v196.96c4.96-4.48,11.41-6.96,18.09-6.97V123.34z"/>
		<path class="st2" d="M159.64,354.05h-18.09c-2.5,0-4.52,2.03-4.52,4.52c0,2.5,2.03,4.52,4.52,4.52h18.09
			c2.5,0,4.52-2.03,4.52-4.52C164.17,356.07,162.14,354.05,159.64,354.05z"/>
		<path class="st2" d="M313.45,234.45V132.38c0-5-4.05-9.05-9.05-9.05H150.59v208.09h86.06c-1.36-5.81-2.09-11.87-2.09-18.09
			C234.57,269.77,269.88,234.45,313.45,234.45z M177.74,150.48h108.57c2.5,0,4.52,2.03,4.52,4.52s-2.03,4.52-4.52,4.52H177.74
			c-2.5,0-4.52-2.03-4.52-4.52S175.24,150.48,177.74,150.48z M191.31,186.67h-13.57c-2.5,0-4.52-2.03-4.52-4.52
			c0-2.5,2.03-4.52,4.52-4.52h13.57c2.5,0,4.52,2.03,4.52,4.52C195.83,184.64,193.81,186.67,191.31,186.67z M204.88,182.14
			c0-2.5,2.03-4.52,4.52-4.52h76.9c2.5,0,4.52,2.03,4.52,4.52c0,2.5-2.03,4.52-4.52,4.52h-76.9
			C206.9,186.67,204.88,184.64,204.88,182.14z"/>
		<path class="st2" d="M252.25,363.09h-74.51c-2.5,0-4.52-2.03-4.52-4.52c0-2.5,2.03-4.52,4.52-4.52h68.14
			c-2.58-4.28-4.77-8.82-6.51-13.57h-97.81c-9.99,0-18.09,8.1-18.09,18.09c0,9.99,8.1,18.09,18.09,18.09h124.87
			C261.15,372.74,256.39,368.18,252.25,363.09z M159.64,363.09h-18.09c-2.5,0-4.52-2.03-4.52-4.52c0-2.5,2.03-4.52,4.52-4.52h18.09
			c2.5,0,4.52,2.03,4.52,4.52C164.17,361.07,162.14,363.09,159.64,363.09z"/>
	</g>
</g>
</svg>
