<?xml version="1.0" encoding="utf-8"?>
<!-- Generator: Adobe Illustrator 25.4.1, SVG Export Plug-In . SVG Version: 6.00 Build 0)  -->
<svg version="1.1" id="Capa_1" xmlns="http://www.w3.org/2000/svg" xmlns:xlink="http://www.w3.org/1999/xlink" x="0px" y="0px"
	 viewBox="0 0 500 500" style="enable-background:new 0 0 500 500;" xml:space="preserve">
<style type="text/css">
	.st0{fill:#D70C7A;}
	.st1{fill:#AF0C6D;}
	.st2{fill:#FFFFFF;}
</style>
<g>
	<circle class="st0" cx="250" cy="250" r="250"/>
	<g>
		<path class="st1" d="M499.85,258.3L368.4,126.75c0,0-7.08-6.26-23.41-2.31c0,0-12.74,1.89-12.74,18.01c0,16.12,0,16.12,0,16.12
			l-29.86-29.6l-169.44,3.85l-3.46,210.4l8.11,27.59l128.83,128.65C394.11,491.16,495.65,387.04,499.85,258.3z"/>
	</g>
	<g>
		<g>
			<path class="st2" d="M309.89,160.93v-15.36c0-12.23-10-22.24-22.24-22.24H144.3c-0.19,0-0.32,0.06-0.45,0.13
				c-0.06,0-0.06-0.06-0.13-0.06c-10.39,0.96-18.73,9.75-20.13,20.71c-0.06,0.45-0.25,0.89-0.25,1.4v195.92
				c0,19.43,14.27,35.23,31.86,35.23h145.14c12.3,0,22.3-10.83,22.3-24.15V182.59C322.63,173.03,317.41,164.81,309.89,160.93
				L309.89,160.93z M151.24,363.41c-8.67-2.1-15.16-11.15-15.16-21.98v-172.6c2.29,1.15,4.78,1.98,7.45,2.29
				c0.38,0.13,0.89,0.19,1.34,0.19h6.37V363.41z M144.87,158.51c-4.97-0.45-8.79-5.35-8.79-11.21s3.82-10.77,8.79-11.15
				c0,0,0.06-0.06,0.13-0.06h142.66c5.22,0,9.49,4.27,9.49,9.49v13H157.68L144.87,158.51z M288.42,249.62c0,3.5-2.8,6.37-6.37,6.37
				h-89.96c-3.5,0-6.37-2.87-6.37-6.37v-47.85c0-3.5,2.87-6.37,6.37-6.37h89.96c3.57,0,6.37,2.87,6.37,6.37V249.62z M230.31,320.09
				h-50.97c-3.5,0-6.37-2.87-6.37-6.37s2.87-6.37,6.37-6.37h50.97c3.5,0,6.37,2.87,6.37,6.37S233.82,320.09,230.31,320.09z
				 M262.17,294.79h-82.83c-3.5,0-6.37-2.87-6.37-6.37c0-3.57,2.87-6.37,6.37-6.37h82.83c3.5,0,6.37,2.8,6.37,6.37
				C268.54,291.92,265.67,294.79,262.17,294.79z"/>
			<path class="st2" d="M357.55,123.34h-6.18c-10.51,0-19.11,8.6-19.11,19.11v179.23c0,0.32,0.13,0.64,0.19,0.96
				c0.06,0.32,0,0.64,0.13,0.96l15.8,48.68c0.89,2.61,3.31,4.4,6.12,4.4c2.74,0,5.16-1.78,6.05-4.4l15.8-48.68
				c0.13-0.32,0.06-0.64,0.13-0.96c0.06-0.32,0.19-0.64,0.19-0.96V142.45C376.66,131.94,368.06,123.34,357.55,123.34L357.55,123.34z
				 M354.49,349.71l-7.07-21.66h14.08L354.49,349.71z M363.92,155H345v-12.55c0-3.5,2.87-6.37,6.37-6.37h6.18
				c3.5,0,6.37,2.87,6.37,6.37V155z"/>
		</g>
	</g>
</g>
</svg>
