<?xml version="1.0" encoding="utf-8"?>
<!-- Generator: Adobe Illustrator 25.4.1, SVG Export Plug-In . SVG Version: 6.00 Build 0)  -->
<svg version="1.1" id="Capa_1" xmlns="http://www.w3.org/2000/svg" xmlns:xlink="http://www.w3.org/1999/xlink" x="0px" y="0px"
	 viewBox="0 0 500 500" style="enable-background:new 0 0 500 500;" xml:space="preserve">
<style type="text/css">
	.st0{fill:#00A274;}
	.st1{fill:#037753;}
	.st2{fill:#FFFFFF;}
</style>
<g>
	<circle class="st0" cx="250" cy="250" r="250"/>
	<g>
		<path class="st1" d="M497.08,288.31L392.56,184.57l-103.25-12.69h-86.72l-89.69,46.7l-1.48,62.26L93.59,382.08l113.04,114.16
			c14.09,2.46,28.58,3.76,43.37,3.76C375.04,500,478.64,408.19,497.08,288.31z"/>
	</g>
	<g>
		<g>
			<path class="st2" d="M155.8,266.96v45.2c0,0,38.33,42.38,92.25,42.38c67.83,0,92.24-42.38,92.24-42.38v-49.04l-79.64,46.54
				c-5.68,3.32-12.71,3.56-18.6,0.59L155.8,266.96z"/>
			<path class="st2" d="M250.04,213.16c-9.95,0-19.87-2.08-25.22-6.4l-95.75,33.17L242.7,296.8c5.88,2.94,12.87,2.72,18.52-0.6
				l132.41-77.19c6.18-3.6,9.88-10.3,9.67-17.45s-4.37-13.6-10.75-16.79l-137.13-68.62c-5.88-2.94-12.85-2.72-18.52,0.59
				L104.5,193.92c-6.18,3.6-9.88,10.3-9.66,17.45c0.23,7.14,4.36,13.59,10.76,16.79l-0.29,70.08c-6.85,2.4-11.75,8.96-11.75,16.6
				c0,5.67,2.67,10.72,6.85,13.97c-1.33,9.67-5.84,16.63-11.18,21.61c-4.28,3.98-6.54,9.67-6.17,15.52
				c0.37,5.83,3.34,11.2,8.11,14.59l2.43,1.75c4.51,3.21,10.17,4.38,15.59,3.13s10.04-4.67,12.75-9.49
				c9.32-16.65,4.8-38.28,1.72-48.65c3.18-3.17,5.16-7.58,5.16-12.43c0-7.61-4.84-14.11-11.62-16.56l0.28-66.91l103.95-36
				c0.9-4.41,5.35-8.47,5.35-8.47c-0.34,1.2,0.33,15.71,22.32,15.71c12.64,0,22.85-4.03,22.85-12.26c0-1.51-0.35-3.14-1-4.83
				c3.56,4.38,5.67,9.32,5.67,13.37C276.62,208.46,264.72,213.16,250.04,213.16z"/>
		</g>
	</g>
</g>
</svg>
