<?xml version="1.0" encoding="utf-8"?>
<!-- Generator: Adobe Illustrator 25.4.1, SVG Export Plug-In . SVG Version: 6.00 Build 0)  -->
<svg version="1.1" id="Capa_1" xmlns="http://www.w3.org/2000/svg" xmlns:xlink="http://www.w3.org/1999/xlink" x="0px" y="0px"
	 viewBox="0 0 500 500" style="enable-background:new 0 0 500 500;" xml:space="preserve">
<style type="text/css">
	.st0{fill:#6153CC;}
	.st1{fill:#4742A5;}
	.st2{fill:#FFFFFF;}
</style>
<g>
	<circle class="st0" cx="250" cy="250" r="250"/>
	<g>
		<path class="st1" d="M499.98,251.45l-96.92-97.23l-218.21-14.94l-66.1,14.94l5.09,206.28l134.27,139.35
			C391.94,495.59,499.21,386.14,499.98,251.45z"/>
	</g>
	<g>
		<g>
			<g>
				<path class="st2" d="M313.26,324.14c-9.71,0-18.81-2.6-26.78-7.1v49c0,5.29,5.92,8.46,10.32,5.52l16.58-11.06l16.58,11.06
					c4.4,2.93,10.32-0.24,10.32-5.52v-49.01C332.78,321.2,324.55,324.14,313.26,324.14z"/>
			</g>
		</g>
		<g>
			<g>
				<path class="st2" d="M313.38,234.94c-19.83,0-35.87,16.05-35.87,35.87c0,20.06,16.42,37.12,39.03,35.24
					c23.13-4.63,32.72-18.43,32.72-35.24C349.25,250.99,333.21,234.94,313.38,234.94z"/>
			</g>
		</g>
		<g>
			<g>
				<path class="st2" d="M150.75,181.13v125.56h122.8c-8.93-9.88-13.98-22.44-13.98-35.87c0-48.09,56.78-69.21,89.69-39.8v-49.89
					L150.75,181.13L150.75,181.13z M214.72,288.76h-37.07c-4.96,0-8.97-4.01-8.97-8.97c0-4.96,4.01-8.97,8.97-8.97h37.07
					c4.96,0,8.97,4.01,8.97,8.97C223.69,284.74,219.68,288.76,214.72,288.76z M232.66,252.88h-55.01c-4.96,0-8.97-4.01-8.97-8.97
					c0-4.96,4.01-8.97,8.97-8.97h55.01c4.96,0,8.97,4.01,8.97,8.97C241.63,248.87,237.62,252.88,232.66,252.88z M250.6,217.01
					h-72.94c-4.96,0-8.97-4.01-8.97-8.97c0-4.96,4.01-8.97,8.97-8.97h72.94c4.96,0,8.97,4.01,8.97,8.97
					C259.57,212.99,255.56,217.01,250.6,217.01z"/>
			</g>
		</g>
		<g>
			<g>
				<path class="st2" d="M394.1,145.26c-4.95,0-8.97-4.02-8.97-8.97c0-4.96-4.01-8.97-8.97-8.97H123.84c-4.96,0-8.97,4.01-8.97,8.97
					c0,4.95-4.02,8.97-8.97,8.97c-4.96,0-8.97,4.01-8.97,8.97V333.6c0,4.96,4.01,8.97,8.97,8.97c4.95,0,8.97,4.02,8.97,8.97
					c0,4.96,4.01,8.97,8.97,8.97h144.69v-35.87H141.78c-4.96,0-8.97-4.01-8.97-8.97v-143.5c0-4.96,4.01-8.97,8.97-8.97h216.44
					c4.96,0,8.97,4.01,8.97,8.97v98.66c0,10.75-3.14,21.02-8.97,29.76v59.93h17.94c4.96,0,8.97-4.01,8.97-8.97
					c0-4.95,4.02-8.97,8.97-8.97c4.96,0,8.97-4.01,8.97-8.97V154.23C403.06,149.27,399.05,145.26,394.1,145.26z"/>
			</g>
		</g>
	</g>
</g>
</svg>
