<?xml version="1.0" encoding="utf-8"?>
<!-- Generator: Adobe Illustrator 23.0.1, SVG Export Plug-In . SVG Version: 6.00 Build 0)  -->
<svg version="1.1" id="Capa_1" xmlns="http://www.w3.org/2000/svg" xmlns:xlink="http://www.w3.org/1999/xlink" x="0px" y="0px"
	 viewBox="0 0 757.75 359.44" style="enable-background:new 0 0 757.75 359.44;" xml:space="preserve">
<style type="text/css">
	.st0{fill:#FFDD12;}
	.st1{fill-rule:evenodd;clip-rule:evenodd;fill:#E3032E;}
	.st2{fill:#1D1D1B;}
</style>
<g>
	<g>
		<path id="XMLID_15_" class="st0" d="M419.98,114.92c0,22.77-18.4,41.19-41.1,41.19c-22.7,0-41.08-18.43-41.08-41.19
			c0-22.74,18.37-41.17,41.08-41.17C401.59,73.75,419.98,92.18,419.98,114.92z"/>
		<path id="XMLID_14_" class="st1" d="M478.5,140.78c-12.55,16.92-29.49,31.61-50.32,39.57c-12.71,4.84-29.56,7.45-44.19,5.88
			c-29.6-3.22-50.84-18.77-61.77-40.76c-5.66-11.46-9.32-26.62-6.41-42.56c2.55-13.92,8.65-25.39,17.54-33.71
			c8.29-7.76,20.18-14.83,35.45-15.85c12.66-0.84,22.12,2.73,29.82,7.33c11.54,6.88,17.24,17.41,19.42,21.44
			c3.93,7.29,8.87,16.45,8.01,32.81c-0.39,6.42-1.29,12.54-3.62,18.14c7.48-10.99,11.11-25.6,7.53-42.46
			c-3.09-14.26-12.24-27.16-22.27-35.46c-10.33-8.58-24.25-15.32-41.25-16.45c-10.64-0.72-22.07,0.67-31.61,3.49
			c-22.97,6.93-37.94,20.14-52.98,35.23c-2.43,2.45-7.05,6.45-8.47,9.4c-1.5,3.11-2.18,13.19-2.33,21.11c0,1.07,0,2.14,0,3.2
			c1.14,31.52,12.7,55.57,29.82,72.77c16.25,16.28,41.34,30.4,72.01,31.67c2.18,0,4.34,0.11,6.52,0.11c2.79,0,5.64-0.11,8.41-0.11
			c12.99-0.73,25.77-3.67,36.58-8.22c31.06-13.04,51.31-38.68,59.4-73.29C481.72,136.07,480.23,138.49,478.5,140.78z"/>
		<path id="XMLID_13_" class="st1" d="M375.79,0c1.2,0,4.91,0,4.91,0c33.35,1.19,56.41,13.14,74.73,30.17
			c13.35,12.49,23.68,28.83,28.34,49.88c1.62,7.32,2.45,15.52,2.94,23.75c0,2.26,0,4.53,0,6.76c0,0-0.09,4.21-0.28,6.14
			c-2.18,3.46-5.03,6.42-7.62,9.68c-7.62,9.56-15.62,18.69-25.44,26.4c-9.28,7.29-20.07,14.34-34.85,17.03
			c-2.17,0.4-4.85,1.08-7.32,1.18c-2.18,0.07-5.16,0.39-6.76-1.77c-0.6-1.77,0.78-2.2,2.65-3.53c19.32-13.38,35.35-30.33,36.6-59.83
			c0.65-15.4-3.75-28.37-9.68-38.73c-11.07-19.36-31.64-34.58-58.22-38.12c-30.35-4.03-56.27,7.32-74.02,20.26
			c-8.2,5.93-15.57,12.39-21.98,20.2c-0.73,0.89-1.16,1.44-2.63,2.64c7.28-20.81,19.55-37.75,35.41-50.14
			C328.37,9.63,348.85,0.84,375.79,0z"/>
	</g>
	<g>
		<g>
			<path class="st2" d="M78.48,320.59h-40.2l-9.31,21.64c-1.61,4.14-2.41,6.78-2.41,7.87c0,1.9,1.01,3.2,2.98,3.94
				c1.94,0.73,5.5,1.21,10.55,1.43l-0.36,3.97c-2.99,0-6.32-0.08-10.01-0.13c-3.7-0.08-7.4-0.14-10.98-0.14
				c-2.99,0-6.07,0.05-9.24,0.14c-3.21,0.05-6.25,0.13-9.25,0.13L0,355.69c3.16-0.22,5.72-0.57,7.74-1.03
				c2.03-0.49,3.78-1.36,5.27-2.65c1.48-1.27,2.88-3.02,4.22-5.27c1.31-2.24,2.86-5.2,4.63-8.92l34.63-74.24
				c0.96-2.21,1.79-4.15,2.49-5.8c0.66-1.63,1.42-3.41,2.24-5.3l7.57-0.87c0.89,3.49,1.84,6.72,2.84,9.62
				c1.01,2.92,1.97,5.62,2.85,8.02l27.15,71.53c1.21,3.2,2.28,5.72,3.28,7.56c0.95,1.83,2.07,3.23,3.35,4.24
				c1.29,0.99,2.92,1.62,4.89,2.01c1.97,0.38,4.51,0.67,7.66,0.89l-0.37,3.97c-3.39,0-7.09-0.08-11.15-0.13
				c-4.08-0.08-8.15-0.14-12.24-0.14c-3.41,0-6.81,0.05-10.29,0.14c-3.44,0.05-6.87,0.13-10.25,0.13l-0.34-3.75
				c4.49-0.28,7.7-0.78,9.63-1.49c1.94-0.71,2.91-1.99,2.91-3.89c0-0.8-0.18-1.73-0.48-2.79c-0.33-1.07-0.73-2.26-1.21-3.56
				L78.48,320.59z M41.06,314.23h35.12L60.01,270.8L41.06,314.23z"/>
			<path class="st2" d="M126.38,252.56c2.89,0,6.43,0.06,10.59,0.16c4.14,0.05,8.26,0.1,12.41,0.1c4.1,0,8.45-0.19,12.94-0.6
				c4.54-0.42,8.89-0.6,13.08-0.6c8.72,0,17.13,0.84,25.19,2.53c8.09,1.69,15.23,4.47,21.49,8.35c6.26,3.88,11.27,8.96,15.03,15.25
				c3.74,6.25,5.61,13.96,5.61,23.05c0,9.4-1.85,17.72-5.55,24.98c-3.73,7.27-8.73,13.39-15.03,18.39
				c-6.29,5.02-13.62,8.78-21.97,11.38c-8.36,2.62-17.17,3.9-26.46,3.9c-4.12,0-8.52-0.23-13.18-0.71c-4.67-0.48-9.09-0.7-13.21-0.7
				c-1.6,0-3.31,0.02-5.14,0.05c-1.82,0.03-3.64,0.08-5.53,0.08c-1.83,0-3.62,0-5.32,0.04c-1.69,0.01-3.18,0.05-4.47,0.05
				l-0.37-3.73c3.4-0.23,6.15-0.57,8.24-0.98c2.11-0.48,3.73-1.2,4.86-2.24c1.13-1.03,1.87-2.42,2.24-4.12
				c0.37-1.71,0.56-3.96,0.56-6.76v-73.66c0-1.96-0.18-3.57-0.52-4.79c-0.29-1.27-1-2.29-2.09-3.05c-1.1-0.77-2.75-1.34-4.91-1.65
				c-2.18-0.33-5.09-0.57-8.72-0.71L126.38,252.56z M156.39,338.67c0,2.11,0.08,4.09,0.26,5.88c0.17,1.8,0.78,3.36,1.8,4.69
				c1.04,1.3,2.76,2.34,5.08,3.08c2.35,0.71,5.69,1.1,10.04,1.1c7.84,0,14.94-1.13,21.39-3.37c6.39-2.23,11.9-5.48,16.52-9.73
				c4.62-4.25,8.17-9.43,10.72-15.54c2.53-6.06,3.8-12.93,3.8-20.58c0-7.76-1.31-14.58-3.93-20.4c-2.61-5.83-6.23-10.72-10.85-14.63
				c-4.6-3.96-10.03-6.91-16.35-8.89c-6.28-1.96-13.08-2.99-20.42-2.99c-2.64,0-5,0.18-7.18,0.46c-2.16,0.31-4.05,0.7-5.68,1.23
				c-1.6,0.5-2.9,1.03-3.82,1.65c-0.93,0.59-1.38,1.2-1.38,1.87V338.67z"/>
			<path class="st2" d="M280.76,255.4c-4.62,0.39-7.85,0.92-9.69,1.62c-1.86,0.7-2.81,1.99-2.81,3.91c0,0.82,0.13,1.73,0.42,2.77
				c0.27,1.03,0.67,2.19,1.14,3.54l28.85,73.1l29.65-71.56c0.66-1.69,1.18-3.14,1.56-4.4c0.42-1.26,0.61-2.37,0.61-3.3
				c0-1-0.2-1.78-0.66-2.39c-0.46-0.64-1.2-1.15-2.25-1.56c-1.05-0.41-2.47-0.75-4.23-0.95c-1.8-0.23-4.03-0.39-6.72-0.54l0.26-4.02
				c3,0,6.35,0.06,10.07,0.16c3.77,0.05,7.44,0.1,11.08,0.1c3.02,0,6.13-0.05,9.33-0.1c3.2-0.09,6.28-0.16,9.28-0.16l0.39,3.78
				c-3.18,0.24-5.74,0.59-7.75,1.06c-1.97,0.49-3.7,1.35-5.15,2.64c-1.45,1.32-2.8,3.07-4.01,5.32c-1.23,2.26-2.67,5.25-4.38,8.99
				c-6.33,14.48-12.59,28.65-18.77,42.64c-6.22,13.96-12.42,28.21-18.57,42.73l-7.29,0.66c-5.93-15.11-11.86-29.96-17.87-44.56
				c-6.02-14.59-12.05-29.41-18.12-44.45c-1.3-3.17-2.45-5.65-3.41-7.51c-0.98-1.85-2.12-3.26-3.4-4.24c-1.32-1-2.94-1.72-4.88-2.13
				c-1.95-0.39-4.51-0.7-7.64-0.92l0.23-4.02c3.38,0,7.14,0.06,11.23,0.16c4.12,0.05,8.24,0.1,12.38,0.1c3.4,0,6.86-0.05,10.38-0.1
				c3.52-0.09,7.01-0.16,10.4-0.16L280.76,255.4z"/>
			<path class="st2" d="M392.19,341.14c0,2.54,0.17,4.64,0.52,6.28c0.32,1.65,1.05,2.95,2.15,3.87c1.1,0.95,2.67,1.59,4.69,1.95
				c2,0.38,4.69,0.57,8.09,0.57h9.16c4.75,0,8.64-0.36,11.66-1.07c2.99-0.71,5.53-1.89,7.61-3.57c2.02-1.7,3.87-3.93,5.48-6.7
				c1.61-2.76,3.35-6.18,5.23-10.21l4.8,1.02c-0.64,2.15-1.25,4.47-1.83,6.96c-0.56,2.47-1.1,4.9-1.61,7.29
				c-0.47,2.39-0.9,4.65-1.23,6.73c-0.32,2.09-0.54,3.81-0.62,5.18c-16.39,0-29.67-0.05-39.82-0.09
				c-10.19-0.09-17.78-0.13-22.82-0.13c-1.48,0-3.21,0.02-5.22,0.05c-2.06,0.03-4.13,0.08-6.26,0.08c-2.15,0-4.19,0-6.24,0.04
				c-2,0.01-3.72,0.06-5.12,0.06l-0.35-3.8c3.76-0.23,6.84-0.6,9.12-1.08c2.32-0.51,4.08-1.23,5.31-2.24
				c1.25-1.03,2.06-2.43,2.49-4.17c0.41-1.75,0.62-4.04,0.62-6.9V265.7c0-1.81-0.19-3.31-0.56-4.48c-0.37-1.22-1.1-2.22-2.22-3
				c-1.1-0.78-2.71-1.38-4.8-1.78c-2.11-0.34-4.92-0.6-8.47-0.75l0.35-4.08c1.57,0,3.35,0.07,5.38,0.09
				c2.04,0.02,4.09,0.07,6.15,0.07c2.11,0,4.19,0,6.21,0.03c2.04,0.05,3.87,0.07,5.63,0.07c3.2,0,9.96-0.06,20.24-0.1
				c10.3-0.09,23.42-0.16,39.29-0.16c-0.49,3.84-0.86,7.88-1.14,12.06c-0.22,4.18-0.39,8.64-0.47,13.35l-4.92,0.11
				c-0.77-3.88-1.57-7.11-2.49-9.64c-0.92-2.55-2.19-4.57-3.83-6.13c-1.68-1.54-3.81-2.62-6.45-3.24
				c-2.62-0.64-6.04-0.97-10.24-0.97h-17.65c-2.49,0-4.06,0.23-4.77,0.69c-0.71,0.45-1.07,1.59-1.07,3.46v38.88l41.8-1.15l0.8,0.82
				l-0.21,9.29c-7.5-0.6-14.9-0.99-22.21-1.23c-7.25-0.22-14-0.41-20.19-0.56V341.14z"/>
			<path class="st2" d="M560.97,359.44c-2.12-2.74-4.2-5.38-6.3-7.91c-2.14-2.53-4.37-5.11-6.71-7.71l-65.65-70.69v65.42
				c0,3.44,0.26,6.14,0.7,8.11c0.42,1.95,1.25,3.46,2.47,4.44c1.23,0.98,2.87,1.66,4.94,1.99c2.06,0.33,4.77,0.63,8.11,0.83
				l-0.24,3.98c-2.62,0-5.67-0.05-9.19-0.09c-3.54-0.09-7.26-0.13-11.15-0.13c-3.08,0-6.32,0.04-9.69,0.13
				c-3.35,0.05-6.47,0.09-9.32,0.09l-0.33-3.75c3.22-0.33,5.91-0.67,8.01-1.06c2.12-0.42,3.78-1.23,5.07-2.5
				c1.25-1.26,2.12-3.13,2.58-5.66c0.52-2.47,0.74-5.95,0.74-10.36V279.1c0-3.11-0.02-5.62-0.09-7.53
				c-0.09-1.93-0.28-3.51-0.53-4.71c-0.3-1.2-0.7-2.19-1.16-3.04c-0.51-0.79-1.14-1.68-1.97-2.55c-0.81-0.95-1.62-1.76-2.41-2.41
				c-0.83-0.67-1.77-1.24-2.8-1.7c-1.07-0.43-2.38-0.77-3.91-0.97c-1.57-0.23-3.45-0.39-5.73-0.54l0.24-4.03
				c0.98,0,2.41,0.06,4.33,0.09c1.9,0.02,4.03,0.06,6.39,0.06c2.38,0,4.79,0,7.3,0.03c2.52,0.05,4.86,0.07,7.08,0.07l78.29,83.33
				v-64.07c0-3.48-0.22-6.19-0.68-8.14c-0.44-1.94-1.27-3.42-2.49-4.42c-1.22-1.02-2.89-1.66-4.99-2c-2.1-0.32-4.83-0.61-8.14-0.81
				l0.22-3.98c2.6,0,5.69,0.03,9.27,0.1c3.57,0.08,7.3,0.11,11.2,0.11c1.53,0,3.15-0.03,4.9-0.07c1.68-0.04,3.35-0.06,5.03-0.11
				c1.64-0.03,3.22-0.07,4.75-0.09c1.47-0.03,2.82-0.09,3.94-0.09l0.13,3.79c-3.17,0.31-5.77,0.65-7.81,1.12
				c-2.03,0.43-3.61,1.3-4.81,2.53c-1.16,1.27-1.99,3.15-2.51,5.66c-0.48,2.51-0.72,5.99-0.72,10.41v83.21L560.97,359.44z"/>
			<path class="st2" d="M593.61,355.64c3.2-0.23,5.81-0.6,7.78-1.08c2-0.51,3.53-1.23,4.64-2.24c1.12-1.03,1.85-2.43,2.28-4.17
				c0.43-1.75,0.62-4.04,0.62-6.9V265.7c0-1.81-0.15-3.31-0.49-4.48c-0.34-1.22-1.08-2.22-2.19-3c-1.08-0.78-2.65-1.38-4.73-1.78
				c-2.07-0.34-4.77-0.6-8.15-0.75l0.24-4.08c1.29,0,2.92,0.07,4.82,0.09c1.91,0.02,3.91,0.07,6.06,0.07c2.21,0,4.43,0,6.71,0.03
				c2.28,0.05,4.39,0.07,6.37,0.07c1.57,0,3.33-0.03,5.25-0.07c1.94-0.03,3.85-0.03,5.74-0.03c1.92,0,3.68-0.05,5.36-0.07
				c1.72-0.03,3.1-0.09,4.26-0.09l0.37,3.84c-3.2,0.24-5.8,0.6-7.78,1.07c-1.96,0.5-3.55,1.24-4.67,2.26
				c-1.18,1-1.96,2.38-2.36,4.13c-0.41,1.77-0.62,4.05-0.62,6.82v75.64c0,1.81,0.13,3.3,0.48,4.49c0.3,1.22,1.03,2.21,2.17,3.01
				c1.1,0.77,2.69,1.35,4.73,1.76c2.06,0.37,4.84,0.61,8.28,0.77l-0.24,4.04c-1.33,0-2.92-0.05-4.88-0.06
				c-1.93-0.04-4.02-0.04-6.21-0.04c-2.17,0-4.34-0.06-6.56-0.08c-2.24-0.03-4.35-0.05-6.34-0.05c-1.61,0-3.38,0.02-5.31,0.05
				c-1.89,0.03-3.76,0.08-5.64,0.08c-1.93,0-3.7,0-5.42,0.04c-1.66,0.01-3.07,0.06-4.22,0.06L593.61,355.64z"/>
			<path class="st2" d="M698.99,251.62c8.64,0,16.57,1.23,23.81,3.71c7.23,2.48,13.45,6.03,18.56,10.63
				c5.17,4.6,9.16,10.15,12.05,16.67c2.89,6.5,4.34,13.76,4.34,21.82c0,7.98-1.44,15.34-4.27,22.07
				c-2.87,6.71-6.84,12.51-11.99,17.41c-5.15,4.87-11.29,8.69-18.47,11.41c-7.23,2.74-15.21,4.12-24.02,4.12
				c-8.6,0-16.5-1.24-23.72-3.73c-7.2-2.45-13.39-6-18.54-10.6c-5.17-4.6-9.23-10.16-12.1-16.68c-2.91-6.51-4.33-13.78-4.33-21.83
				c0-8,1.42-15.32,4.25-22.07c2.84-6.7,6.84-12.52,11.99-17.39c5.12-4.89,11.31-8.71,18.47-11.43
				C682.24,252.97,690.23,251.62,698.99,251.62z M698.29,257.42c-5.46,0-10.68,0.82-15.71,2.41c-5.03,1.65-9.42,4.25-13.28,7.83
				c-3.82,3.62-6.88,8.28-9.19,13.99c-2.3,5.72-3.45,12.67-3.45,20.87c0,9.63,1.29,17.71,3.91,24.26c2.6,6.53,6,11.82,10.07,15.8
				c4.15,3.99,8.76,6.79,13.84,8.52c5.1,1.69,10.16,2.55,15.22,2.55c5.46,0,10.72-0.82,15.73-2.47c5.04-1.6,9.46-4.21,13.28-7.81
				c3.84-3.57,6.91-8.24,9.21-13.95c2.32-5.73,3.43-12.67,3.43-20.88c0-9.61-1.29-17.71-3.88-24.26c-2.66-6.52-6-11.8-10.11-15.77
				c-4.13-4-8.71-6.84-13.84-8.53C708.43,258.27,703.35,257.42,698.29,257.42z"/>
		</g>
	</g>
</g>
</svg>
