<?xml version="1.0" encoding="utf-8"?>
<!-- Generator: Adobe Illustrator 23.0.1, SVG Export Plug-In . SVG Version: 6.00 Build 0)  -->
<svg version="1.1" id="Capa_1" xmlns="http://www.w3.org/2000/svg" xmlns:xlink="http://www.w3.org/1999/xlink" x="0px" y="0px"
	 viewBox="0 0 368.5 141.73" style="enable-background:new 0 0 368.5 141.73;" xml:space="preserve">
<style type="text/css">
	.st0{fill:url(#SVGID_1_);}
	.st1{fill:url(#SVGID_2_);}
	.st2{fill:url(#SVGID_3_);}
	.st3{fill:url(#SVGID_4_);}
	.st4{fill:url(#SVGID_5_);}
	.st5{fill:url(#SVGID_6_);}
	.st6{fill:url(#SVGID_7_);}
	.st7{fill:url(#SVGID_8_);}
	.st8{fill:url(#SVGID_9_);}
	.st9{fill:url(#SVGID_10_);}
</style>
<g>
	<g>
		<path d="M193.57,85.59c0.62,0,1.21,0.06,1.78,0.17c0.57,0.12,1.07,0.32,1.5,0.6c0.43,0.28,0.78,0.65,1.04,1.11
			c0.26,0.46,0.39,1.03,0.39,1.72c0,0.38-0.06,0.76-0.19,1.12c-0.12,0.36-0.3,0.69-0.52,0.99c-0.23,0.3-0.49,0.54-0.8,0.75
			c-0.31,0.21-0.65,0.35-1.04,0.43v0.04c0.95,0.12,1.7,0.51,2.26,1.16c0.56,0.65,0.84,1.46,0.84,2.42c0,0.23-0.02,0.5-0.06,0.79
			c-0.04,0.29-0.12,0.6-0.25,0.9c-0.12,0.31-0.3,0.61-0.53,0.91c-0.23,0.3-0.54,0.57-0.94,0.79c-0.39,0.23-0.87,0.41-1.44,0.55
			c-0.57,0.14-1.25,0.22-2.05,0.22h-6.21V85.59H193.57z M193.57,92.02c0.56,0,1.05-0.06,1.46-0.2c0.41-0.13,0.75-0.31,1.03-0.53
			c0.27-0.23,0.48-0.49,0.62-0.79c0.14-0.3,0.21-0.62,0.21-0.97c0-1.84-1.1-2.75-3.31-2.75h-4.81v5.24H193.57z M193.57,99.07
			c0.52,0,1.01-0.04,1.48-0.13c0.47-0.09,0.88-0.25,1.23-0.48c0.36-0.23,0.64-0.55,0.84-0.94c0.21-0.39,0.31-0.88,0.31-1.47
			c0-0.95-0.33-1.65-1-2.13c-0.67-0.47-1.62-0.71-2.87-0.71h-4.81v5.86H193.57z"/>
		<path d="M201.09,91.3c0.22-0.45,0.52-0.82,0.89-1.11c0.38-0.29,0.82-0.5,1.33-0.64c0.51-0.14,1.07-0.21,1.68-0.21
			c0.47,0,0.93,0.04,1.4,0.13c0.47,0.09,0.88,0.26,1.25,0.5c0.37,0.25,0.67,0.59,0.9,1.04c0.23,0.45,0.35,1.02,0.35,1.74v5.63
			c0,0.52,0.25,0.78,0.76,0.78c0.15,0,0.29-0.03,0.41-0.08v1.09c-0.15,0.03-0.28,0.05-0.4,0.06c-0.12,0.01-0.26,0.02-0.44,0.02
			c-0.33,0-0.59-0.04-0.79-0.13c-0.2-0.09-0.35-0.22-0.46-0.38c-0.11-0.17-0.18-0.36-0.22-0.59c-0.03-0.23-0.05-0.48-0.05-0.75
			h-0.04c-0.23,0.34-0.47,0.65-0.71,0.91c-0.24,0.27-0.51,0.49-0.8,0.67c-0.3,0.18-0.63,0.32-1.01,0.41
			c-0.38,0.1-0.83,0.14-1.35,0.14c-0.49,0-0.96-0.06-1.39-0.17c-0.43-0.12-0.81-0.3-1.13-0.55c-0.32-0.25-0.58-0.58-0.76-0.97
			c-0.18-0.39-0.28-0.85-0.28-1.39c0-0.74,0.16-1.32,0.49-1.74c0.33-0.42,0.76-0.74,1.3-0.96c0.54-0.22,1.15-0.37,1.83-0.46
			c0.68-0.09,1.37-0.17,2.07-0.26c0.27-0.03,0.51-0.06,0.72-0.1c0.21-0.04,0.38-0.11,0.51-0.22c0.14-0.1,0.24-0.24,0.32-0.42
			c0.08-0.18,0.11-0.41,0.11-0.7c0-0.44-0.07-0.8-0.22-1.08c-0.14-0.28-0.34-0.5-0.6-0.67c-0.25-0.17-0.55-0.28-0.88-0.34
			c-0.34-0.06-0.7-0.09-1.08-0.09c-0.82,0-1.49,0.2-2.01,0.59c-0.52,0.39-0.79,1.02-0.82,1.88h-1.29
			C200.74,92.29,200.87,91.75,201.09,91.3z M207.57,94.46c-0.08,0.15-0.24,0.26-0.47,0.33c-0.23,0.07-0.44,0.12-0.62,0.14
			c-0.55,0.1-1.11,0.18-1.7,0.26c-0.58,0.08-1.11,0.19-1.59,0.34c-0.48,0.15-0.87,0.37-1.18,0.65c-0.31,0.28-0.46,0.68-0.46,1.2
			c0,0.33,0.07,0.62,0.2,0.87s0.3,0.47,0.52,0.66c0.22,0.18,0.47,0.33,0.76,0.42c0.29,0.1,0.58,0.14,0.88,0.14
			c0.49,0,0.97-0.07,1.42-0.23c0.45-0.15,0.85-0.37,1.18-0.66c0.34-0.29,0.6-0.64,0.8-1.05c0.2-0.41,0.3-0.88,0.3-1.4v-1.69H207.57z
			"/>
		<path d="M212.77,89.65v1.83h0.04c0.25-0.64,0.69-1.16,1.32-1.55c0.63-0.39,1.32-0.59,2.08-0.59c0.74,0,1.36,0.1,1.86,0.29
			c0.5,0.19,0.9,0.46,1.2,0.81c0.3,0.35,0.51,0.78,0.64,1.28c0.12,0.51,0.19,1.08,0.19,1.71v6.82h-1.29v-6.62
			c0-0.45-0.04-0.87-0.12-1.26c-0.08-0.39-0.23-0.73-0.43-1.02c-0.21-0.29-0.48-0.51-0.83-0.68c-0.35-0.17-0.79-0.25-1.31-0.25
			c-0.52,0-0.98,0.09-1.39,0.28c-0.4,0.18-0.75,0.44-1.03,0.76c-0.28,0.32-0.5,0.71-0.66,1.15c-0.16,0.45-0.24,0.93-0.26,1.45v6.19
			h-1.29v-10.6H212.77z"/>
		<path d="M229.02,91.11c-0.48-0.45-1.15-0.68-2.01-0.68c-0.62,0-1.16,0.13-1.62,0.39c-0.47,0.26-0.85,0.6-1.16,1.03
			c-0.31,0.42-0.54,0.91-0.7,1.45c-0.16,0.54-0.24,1.09-0.24,1.65c0,0.56,0.08,1.11,0.24,1.65c0.16,0.54,0.39,1.02,0.7,1.45
			c0.31,0.42,0.7,0.77,1.16,1.03c0.47,0.26,1.01,0.39,1.62,0.39c0.4,0,0.77-0.07,1.13-0.23c0.36-0.15,0.67-0.36,0.95-0.63
			c0.27-0.27,0.5-0.59,0.68-0.96c0.18-0.37,0.29-0.77,0.33-1.21h1.29c-0.18,1.29-0.65,2.29-1.42,3.01
			c-0.77,0.72-1.75,1.08-2.96,1.08c-0.81,0-1.52-0.15-2.15-0.44c-0.62-0.29-1.15-0.7-1.57-1.2c-0.42-0.51-0.75-1.1-0.97-1.78
			c-0.22-0.68-0.33-1.4-0.33-2.17c0-0.77,0.11-1.49,0.33-2.17c0.22-0.68,0.54-1.27,0.97-1.78c0.42-0.51,0.95-0.91,1.57-1.21
			c0.62-0.3,1.34-0.45,2.15-0.45c1.14,0,2.1,0.3,2.89,0.9c0.79,0.6,1.26,1.51,1.41,2.73h-1.29
			C229.83,92.19,229.5,91.57,229.02,91.11z"/>
		<path d="M239.82,89.8c0.62,0.3,1.15,0.71,1.57,1.21c0.42,0.51,0.75,1.1,0.97,1.78c0.22,0.68,0.33,1.4,0.33,2.17
			c0,0.77-0.11,1.49-0.33,2.17c-0.22,0.68-0.54,1.27-0.97,1.78c-0.42,0.51-0.95,0.91-1.57,1.2c-0.62,0.29-1.34,0.44-2.15,0.44
			s-1.52-0.15-2.15-0.44c-0.62-0.29-1.15-0.7-1.57-1.2c-0.42-0.51-0.75-1.1-0.97-1.78c-0.22-0.68-0.33-1.4-0.33-2.17
			c0-0.77,0.11-1.49,0.33-2.17c0.22-0.68,0.54-1.27,0.97-1.78c0.42-0.51,0.95-0.91,1.57-1.21c0.62-0.3,1.34-0.45,2.15-0.45
			S239.2,89.5,239.82,89.8z M236.05,90.83c-0.47,0.26-0.85,0.6-1.16,1.03c-0.31,0.42-0.54,0.91-0.7,1.45
			c-0.16,0.54-0.24,1.09-0.24,1.65c0,0.56,0.08,1.11,0.24,1.65c0.16,0.54,0.39,1.02,0.7,1.45c0.31,0.42,0.7,0.77,1.16,1.03
			c0.47,0.26,1.01,0.39,1.62,0.39s1.16-0.13,1.62-0.39c0.47-0.26,0.85-0.6,1.16-1.03c0.31-0.42,0.54-0.91,0.7-1.45
			c0.16-0.54,0.24-1.09,0.24-1.65c0-0.56-0.08-1.11-0.24-1.65c-0.16-0.54-0.39-1.02-0.7-1.45c-0.31-0.42-0.7-0.77-1.16-1.03
			c-0.47-0.26-1.01-0.39-1.62-0.39S236.52,90.57,236.05,90.83z"/>
		<path d="M258.47,100.26v-2.01h-0.04c-0.14,0.34-0.34,0.66-0.61,0.95c-0.27,0.29-0.57,0.53-0.92,0.73c-0.34,0.2-0.71,0.35-1.1,0.46
			c-0.39,0.11-0.78,0.16-1.16,0.16c-0.81,0-1.51-0.15-2.11-0.44c-0.6-0.29-1.09-0.7-1.49-1.21c-0.4-0.51-0.69-1.11-0.88-1.79
			c-0.19-0.68-0.29-1.39-0.29-2.15c0-0.75,0.1-1.47,0.29-2.15c0.19-0.68,0.49-1.27,0.88-1.79c0.4-0.51,0.89-0.92,1.49-1.22
			c0.6-0.3,1.3-0.45,2.11-0.45c0.4,0,0.78,0.05,1.16,0.14c0.38,0.1,0.73,0.24,1.06,0.44c0.33,0.2,0.62,0.44,0.87,0.73
			c0.25,0.29,0.45,0.62,0.59,1.01h0.04v-6.08h1.29v14.67H258.47z M251.37,96.59c0.13,0.54,0.34,1.02,0.62,1.45
			c0.28,0.42,0.64,0.77,1.08,1.04c0.44,0.27,0.97,0.4,1.58,0.4c0.69,0,1.26-0.13,1.74-0.4c0.47-0.27,0.86-0.61,1.15-1.04
			c0.29-0.42,0.51-0.91,0.64-1.45c0.13-0.54,0.2-1.09,0.2-1.63c0-0.55-0.07-1.09-0.2-1.63c-0.13-0.54-0.34-1.02-0.64-1.45
			c-0.3-0.42-0.68-0.77-1.15-1.04c-0.47-0.27-1.05-0.4-1.74-0.4c-0.62,0-1.14,0.13-1.58,0.4c-0.44,0.27-0.8,0.61-1.08,1.04
			c-0.28,0.42-0.49,0.91-0.62,1.45c-0.13,0.54-0.19,1.09-0.19,1.63C251.18,95.51,251.24,96.05,251.37,96.59z"/>
		<path d="M263.09,96.76c0.13,0.5,0.34,0.95,0.63,1.35c0.29,0.4,0.65,0.73,1.09,0.99c0.44,0.26,0.97,0.39,1.58,0.39
			c0.94,0,1.68-0.25,2.22-0.74c0.53-0.49,0.9-1.15,1.11-1.97h1.29c-0.27,1.21-0.78,2.14-1.51,2.8c-0.73,0.66-1.77,0.99-3.11,0.99
			c-0.84,0-1.56-0.15-2.17-0.44c-0.61-0.29-1.11-0.7-1.49-1.21c-0.38-0.51-0.67-1.11-0.85-1.79c-0.18-0.68-0.28-1.39-0.28-2.15
			c0-0.7,0.09-1.38,0.28-2.05c0.18-0.67,0.47-1.27,0.85-1.8c0.38-0.53,0.88-0.95,1.49-1.27c0.61-0.32,1.33-0.48,2.17-0.48
			c0.85,0,1.58,0.17,2.18,0.51c0.6,0.34,1.09,0.79,1.47,1.35c0.38,0.55,0.65,1.19,0.81,1.91c0.16,0.72,0.23,1.45,0.21,2.19h-8.16
			C262.89,95.77,262.96,96.26,263.09,96.76z M269.5,92.8c-0.16-0.45-0.38-0.85-0.67-1.2c-0.29-0.35-0.64-0.63-1.05-0.84
			c-0.41-0.21-0.88-0.32-1.4-0.32c-0.53,0-1.01,0.11-1.42,0.32c-0.41,0.21-0.76,0.49-1.05,0.84c-0.29,0.35-0.52,0.75-0.69,1.21
			c-0.17,0.46-0.28,0.93-0.34,1.41h6.86C269.74,93.72,269.66,93.25,269.5,92.8z"/>
		<path d="M196.72,108.6c-0.19-0.31-0.43-0.58-0.72-0.81c-0.29-0.23-0.61-0.41-0.98-0.54c-0.36-0.13-0.74-0.2-1.14-0.2
			c-0.73,0-1.34,0.14-1.85,0.42c-0.51,0.28-0.92,0.66-1.23,1.13c-0.32,0.47-0.54,1.01-0.69,1.61c-0.14,0.6-0.22,1.23-0.22,1.87
			c0,0.62,0.07,1.22,0.22,1.8c0.14,0.58,0.37,1.11,0.69,1.57c0.32,0.47,0.73,0.84,1.23,1.12c0.51,0.28,1.12,0.42,1.85,0.42
			c0.99,0,1.76-0.3,2.31-0.9c0.55-0.6,0.89-1.4,1.02-2.38h3.12c-0.08,0.92-0.3,1.75-0.64,2.49c-0.34,0.74-0.79,1.37-1.36,1.89
			c-0.56,0.52-1.22,0.92-1.97,1.19c-0.75,0.27-1.58,0.41-2.49,0.41c-1.12,0-2.13-0.19-3.03-0.59c-0.9-0.39-1.65-0.93-2.27-1.61
			c-0.62-0.69-1.09-1.49-1.42-2.42c-0.33-0.92-0.49-1.92-0.49-2.99c0-1.1,0.16-2.11,0.49-3.05c0.33-0.94,0.8-1.76,1.42-2.46
			c0.62-0.7,1.37-1.25,2.27-1.64c0.9-0.4,1.91-0.6,3.03-0.6c0.81,0,1.57,0.12,2.29,0.35c0.72,0.23,1.36,0.57,1.93,1.02
			c0.57,0.45,1.04,1,1.41,1.65c0.37,0.66,0.6,1.41,0.7,2.26h-3.12C197.03,109.24,196.91,108.9,196.72,108.6z"/>
		<path d="M202.28,111.74c0.26-0.69,0.63-1.28,1.11-1.77c0.48-0.49,1.06-0.86,1.73-1.13c0.67-0.27,1.42-0.4,2.26-0.4
			c0.84,0,1.59,0.13,2.27,0.4c0.68,0.27,1.26,0.64,1.74,1.13c0.48,0.49,0.85,1.08,1.11,1.77c0.26,0.69,0.39,1.46,0.39,2.31
			c0,0.85-0.13,1.62-0.39,2.3c-0.26,0.69-0.63,1.27-1.11,1.76c-0.48,0.49-1.06,0.86-1.74,1.12c-0.68,0.26-1.44,0.39-2.27,0.39
			c-0.84,0-1.59-0.13-2.26-0.39c-0.67-0.26-1.25-0.63-1.73-1.12c-0.48-0.49-0.85-1.07-1.11-1.76c-0.26-0.68-0.39-1.45-0.39-2.3
			C201.89,113.2,202.02,112.43,202.28,111.74z M204.94,115.3c0.08,0.4,0.22,0.77,0.42,1.09c0.2,0.32,0.46,0.58,0.79,0.77
			c0.33,0.19,0.74,0.29,1.23,0.29c0.49,0,0.91-0.1,1.24-0.29c0.34-0.19,0.6-0.45,0.8-0.77c0.2-0.32,0.34-0.69,0.42-1.09
			c0.08-0.4,0.12-0.82,0.12-1.24c0-0.42-0.04-0.84-0.12-1.25c-0.08-0.41-0.22-0.77-0.42-1.09c-0.2-0.32-0.47-0.57-0.8-0.77
			c-0.34-0.2-0.75-0.3-1.24-0.3c-0.49,0-0.9,0.1-1.23,0.3c-0.33,0.2-0.59,0.46-0.79,0.77c-0.2,0.32-0.34,0.68-0.42,1.09
			c-0.08,0.41-0.12,0.83-0.12,1.25C204.81,114.48,204.85,114.89,204.94,115.3z"/>
		<path d="M217.56,108.73v1.97h0.04c0.14-0.33,0.32-0.63,0.55-0.91c0.23-0.28,0.5-0.52,0.8-0.72c0.3-0.2,0.62-0.35,0.97-0.46
			c0.34-0.11,0.7-0.16,1.07-0.16c0.19,0,0.4,0.03,0.64,0.1v2.71c-0.14-0.03-0.3-0.05-0.49-0.07c-0.19-0.02-0.38-0.03-0.55-0.03
			c-0.53,0-0.99,0.09-1.36,0.27c-0.37,0.18-0.67,0.42-0.89,0.73c-0.23,0.31-0.39,0.67-0.48,1.08c-0.1,0.41-0.14,0.86-0.14,1.34v4.79
			h-2.92v-10.63H217.56z"/>
		<path d="M229.95,118c-0.34,0.57-0.79,0.99-1.35,1.24c-0.55,0.25-1.18,0.38-1.88,0.38c-0.79,0-1.49-0.15-2.1-0.46
			c-0.6-0.31-1.1-0.73-1.49-1.25c-0.39-0.53-0.69-1.13-0.88-1.82c-0.2-0.68-0.3-1.4-0.3-2.14c0-0.71,0.1-1.4,0.3-2.07
			c0.2-0.66,0.49-1.25,0.88-1.76c0.39-0.51,0.88-0.91,1.47-1.22c0.59-0.31,1.27-0.46,2.06-0.46c0.63,0,1.23,0.13,1.8,0.4
			c0.57,0.27,1.02,0.66,1.35,1.18h0.04v-5.34h2.92v14.67h-2.77V118H229.95z M229.83,112.75c-0.08-0.4-0.22-0.76-0.42-1.07
			c-0.2-0.31-0.46-0.56-0.77-0.75c-0.32-0.19-0.71-0.29-1.19-0.29c-0.48,0-0.88,0.1-1.21,0.29c-0.33,0.19-0.59,0.45-0.79,0.76
			c-0.2,0.32-0.34,0.67-0.43,1.08c-0.09,0.4-0.13,0.83-0.13,1.26c0,0.41,0.05,0.82,0.14,1.23c0.1,0.41,0.25,0.78,0.46,1.1
			c0.21,0.32,0.48,0.58,0.8,0.78c0.32,0.2,0.71,0.3,1.16,0.3c0.48,0,0.88-0.1,1.2-0.29c0.32-0.19,0.58-0.45,0.77-0.77
			c0.19-0.32,0.33-0.69,0.41-1.1c0.08-0.41,0.12-0.84,0.12-1.27C229.95,113.57,229.91,113.15,229.83,112.75z"/>
		<path d="M235.02,111.74c0.26-0.69,0.63-1.28,1.11-1.77c0.48-0.49,1.06-0.86,1.73-1.13c0.67-0.27,1.42-0.4,2.26-0.4
			c0.84,0,1.59,0.13,2.27,0.4c0.68,0.27,1.26,0.64,1.74,1.13c0.48,0.49,0.85,1.08,1.11,1.77c0.26,0.69,0.39,1.46,0.39,2.31
			c0,0.85-0.13,1.62-0.39,2.3c-0.26,0.69-0.63,1.27-1.11,1.76c-0.48,0.49-1.06,0.86-1.74,1.12c-0.68,0.26-1.44,0.39-2.27,0.39
			c-0.84,0-1.59-0.13-2.26-0.39c-0.67-0.26-1.25-0.63-1.73-1.12c-0.48-0.49-0.85-1.07-1.11-1.76c-0.26-0.68-0.39-1.45-0.39-2.3
			C234.63,113.2,234.76,112.43,235.02,111.74z M237.68,115.3c0.08,0.4,0.22,0.77,0.42,1.09c0.2,0.32,0.46,0.58,0.79,0.77
			c0.33,0.19,0.74,0.29,1.23,0.29s0.91-0.1,1.24-0.29c0.34-0.19,0.6-0.45,0.8-0.77c0.2-0.32,0.34-0.69,0.42-1.09
			c0.08-0.4,0.12-0.82,0.12-1.24c0-0.42-0.04-0.84-0.12-1.25c-0.08-0.41-0.22-0.77-0.42-1.09c-0.2-0.32-0.47-0.57-0.8-0.77
			c-0.34-0.2-0.75-0.3-1.24-0.3s-0.9,0.1-1.23,0.3c-0.33,0.2-0.59,0.46-0.79,0.77c-0.2,0.32-0.34,0.68-0.42,1.09
			c-0.08,0.41-0.12,0.83-0.12,1.25C237.55,114.48,237.59,114.89,237.68,115.3z M238.58,107.41l1.97-2.92h3.23l-3.17,2.92H238.58z"/>
		<path d="M250.3,108.73v1.48h0.06c0.37-0.62,0.85-1.07,1.44-1.35c0.59-0.28,1.19-0.42,1.81-0.42c0.78,0,1.42,0.11,1.92,0.32
			c0.5,0.21,0.89,0.51,1.18,0.88c0.29,0.38,0.49,0.84,0.61,1.38c0.12,0.54,0.17,1.14,0.17,1.8v6.54h-2.92v-6
			c0-0.88-0.14-1.53-0.41-1.96c-0.27-0.43-0.76-0.65-1.46-0.65c-0.79,0-1.37,0.24-1.73,0.71c-0.36,0.47-0.53,1.25-0.53,2.33v5.57
			h-2.92v-10.63H250.3z"/>
		<path d="M276.52,118.24c-1.11,0.97-2.64,1.45-4.6,1.45c-1.99,0-3.52-0.48-4.61-1.44c-1.09-0.96-1.63-2.44-1.63-4.44v-9.13h3.23
			v9.13c0,0.4,0.03,0.79,0.1,1.17c0.07,0.38,0.21,0.72,0.43,1.02c0.22,0.3,0.52,0.53,0.91,0.72c0.39,0.19,0.91,0.28,1.57,0.28
			c1.15,0,1.95-0.26,2.38-0.77c0.44-0.51,0.66-1.32,0.66-2.42v-9.13h3.23v9.13C278.19,115.79,277.63,117.27,276.52,118.24z"/>
		<path d="M283.49,108.73v1.44h0.04c0.38-0.55,0.85-0.97,1.39-1.27c0.54-0.3,1.16-0.45,1.86-0.45c0.67,0,1.28,0.13,1.84,0.39
			c0.55,0.26,0.98,0.72,1.26,1.38c0.32-0.47,0.74-0.88,1.28-1.23c0.54-0.36,1.18-0.53,1.92-0.53c0.56,0,1.08,0.07,1.56,0.21
			c0.48,0.14,0.89,0.36,1.23,0.66c0.34,0.3,0.61,0.7,0.8,1.18c0.19,0.49,0.29,1.07,0.29,1.76v7.11h-2.92v-6.02
			c0-0.36-0.01-0.69-0.04-1.01c-0.03-0.32-0.1-0.59-0.23-0.82c-0.12-0.23-0.31-0.42-0.54-0.55c-0.24-0.14-0.57-0.21-0.98-0.21
			c-0.41,0-0.74,0.08-1,0.24c-0.25,0.16-0.45,0.36-0.6,0.62c-0.14,0.25-0.24,0.54-0.29,0.86c-0.05,0.32-0.07,0.65-0.07,0.98v5.92
			h-2.92v-5.96c0-0.32-0.01-0.63-0.02-0.94c-0.01-0.31-0.07-0.59-0.17-0.85c-0.1-0.26-0.27-0.47-0.51-0.63
			c-0.24-0.16-0.59-0.24-1.06-0.24c-0.14,0-0.32,0.03-0.54,0.09c-0.23,0.06-0.45,0.18-0.66,0.35c-0.21,0.17-0.39,0.42-0.54,0.74
			c-0.15,0.32-0.23,0.74-0.23,1.26v6.17h-2.92v-10.63H283.49z"/>
		<path d="M302.19,104.68v5.34h0.04c0.36-0.55,0.84-0.95,1.45-1.2c0.61-0.25,1.24-0.38,1.9-0.38c0.53,0,1.06,0.11,1.58,0.33
			c0.52,0.22,0.99,0.55,1.41,1.01c0.42,0.45,0.76,1.03,1.02,1.74c0.26,0.71,0.39,1.54,0.39,2.52c0,0.97-0.13,1.81-0.39,2.52
			c-0.26,0.71-0.6,1.28-1.02,1.74c-0.42,0.45-0.89,0.79-1.41,1.01c-0.52,0.22-1.05,0.33-1.58,0.33c-0.78,0-1.48-0.12-2.1-0.37
			c-0.62-0.25-1.08-0.66-1.4-1.25h-0.04v1.36h-2.77v-14.67H302.19z M306.92,112.76c-0.1-0.41-0.25-0.77-0.45-1.09
			c-0.21-0.32-0.46-0.57-0.77-0.75c-0.31-0.18-0.68-0.28-1.12-0.28c-0.43,0-0.8,0.09-1.11,0.28c-0.32,0.19-0.58,0.44-0.78,0.75
			c-0.21,0.32-0.36,0.68-0.45,1.09c-0.1,0.41-0.14,0.84-0.14,1.29c0,0.44,0.05,0.86,0.14,1.27c0.1,0.41,0.25,0.77,0.45,1.09
			c0.21,0.32,0.47,0.57,0.78,0.75c0.31,0.18,0.68,0.28,1.11,0.28c0.44,0,0.81-0.09,1.12-0.28c0.31-0.18,0.57-0.44,0.77-0.75
			c0.21-0.32,0.36-0.68,0.45-1.09c0.1-0.41,0.14-0.84,0.14-1.27C307.06,113.6,307.01,113.17,306.92,112.76z"/>
		<path d="M311.91,107.09v-2.4h2.92v2.4H311.91z M314.83,108.73v10.63h-2.92v-10.63H314.83z"/>
		<path d="M320.13,104.68v14.67h-2.92v-14.67H320.13z"/>
		<path d="M322.52,107.09v-2.4h2.92v2.4H322.52z M325.43,108.73v10.63h-2.92v-10.63H325.43z"/>
		<path d="M332.81,110.64c-0.47,0-0.86,0.11-1.17,0.32c-0.32,0.21-0.57,0.49-0.77,0.82c-0.2,0.34-0.34,0.71-0.42,1.11
			c-0.08,0.4-0.12,0.81-0.12,1.2c0,0.38,0.04,0.77,0.12,1.17c0.08,0.4,0.22,0.76,0.4,1.08c0.18,0.32,0.44,0.59,0.75,0.79
			c0.32,0.21,0.7,0.31,1.15,0.31c0.7,0,1.24-0.2,1.61-0.59c0.38-0.39,0.61-0.91,0.71-1.57h2.82c-0.19,1.41-0.74,2.49-1.64,3.23
			c-0.9,0.74-2.06,1.11-3.47,1.11c-0.79,0-1.52-0.13-2.19-0.4c-0.66-0.27-1.23-0.64-1.7-1.12c-0.47-0.48-0.83-1.05-1.09-1.72
			c-0.26-0.66-0.39-1.39-0.39-2.19c0-0.82,0.12-1.59,0.36-2.29c0.24-0.71,0.59-1.32,1.06-1.83c0.47-0.51,1.03-0.91,1.71-1.2
			c0.67-0.29,1.44-0.43,2.3-0.43c0.63,0,1.24,0.08,1.82,0.25c0.58,0.16,1.1,0.42,1.56,0.75c0.46,0.34,0.83,0.75,1.12,1.25
			c0.29,0.5,0.45,1.09,0.49,1.78h-2.86C334.78,111.25,334.06,110.64,332.81,110.64z"/>
		<path d="M339.92,110.29c0.3-0.45,0.69-0.81,1.15-1.09c0.47-0.27,0.99-0.47,1.57-0.59c0.58-0.12,1.17-0.17,1.76-0.17
			c0.53,0,1.08,0.04,1.62,0.11c0.55,0.08,1.05,0.22,1.5,0.44c0.45,0.22,0.82,0.52,1.11,0.91c0.29,0.39,0.43,0.91,0.43,1.55v5.53
			c0,0.48,0.03,0.94,0.08,1.38c0.05,0.44,0.15,0.77,0.29,0.99h-2.96c-0.05-0.16-0.1-0.33-0.13-0.5c-0.03-0.17-0.06-0.35-0.07-0.52
			c-0.47,0.48-1.01,0.82-1.64,1.01c-0.63,0.19-1.27,0.29-1.93,0.29c-0.51,0-0.98-0.06-1.42-0.18c-0.44-0.12-0.82-0.32-1.15-0.58
			c-0.33-0.26-0.59-0.59-0.77-0.99c-0.18-0.4-0.28-0.87-0.28-1.42c0-0.6,0.11-1.1,0.32-1.49c0.21-0.39,0.49-0.7,0.82-0.94
			c0.34-0.23,0.72-0.41,1.15-0.52c0.43-0.12,0.87-0.21,1.31-0.28c0.44-0.07,0.87-0.12,1.29-0.16c0.42-0.04,0.8-0.1,1.13-0.19
			c0.33-0.08,0.59-0.2,0.78-0.36c0.19-0.16,0.28-0.39,0.27-0.69c0-0.31-0.05-0.56-0.15-0.75c-0.1-0.18-0.24-0.33-0.41-0.43
			c-0.17-0.1-0.37-0.17-0.6-0.21c-0.23-0.03-0.47-0.05-0.73-0.05c-0.58,0-1.03,0.12-1.36,0.37c-0.33,0.25-0.52,0.66-0.57,1.23h-2.92
			C339.45,111.31,339.62,110.74,339.92,110.29z M345.69,114.41c-0.18,0.06-0.38,0.11-0.6,0.15c-0.21,0.04-0.44,0.08-0.67,0.1
			s-0.47,0.06-0.7,0.1c-0.22,0.04-0.44,0.1-0.65,0.16c-0.21,0.07-0.4,0.16-0.55,0.28c-0.16,0.12-0.28,0.26-0.38,0.44
			c-0.1,0.18-0.14,0.4-0.14,0.68c0,0.26,0.05,0.48,0.14,0.66c0.1,0.18,0.23,0.32,0.39,0.42c0.16,0.1,0.36,0.17,0.58,0.22
			c0.22,0.04,0.45,0.06,0.68,0.06c0.58,0,1.02-0.1,1.34-0.29c0.32-0.19,0.55-0.42,0.7-0.69c0.15-0.27,0.24-0.54,0.28-0.81
			c0.03-0.27,0.05-0.49,0.05-0.66v-1.09C346.03,114.27,345.87,114.35,345.69,114.41z"/>
		<path d="M354.33,104.68v14.67h-2.92v-14.67H354.33z"/>
	</g>
	<g>
		<g>
			<g>
				<linearGradient id="SVGID_1_" gradientUnits="userSpaceOnUse" x1="64.8639" y1="75.9174" x2="105.9827" y2="75.9174">
					<stop  offset="0" style="stop-color:#FFFFFF"/>
					<stop  offset="1" style="stop-color:#7C909B"/>
				</linearGradient>
				<path class="st0" d="M81.98,69.71c4.84,6.88,12.93,11.62,22.25,12.34c0.48,0.05,1.57,0.08,1.76,0.09V70.89
					c-3.19,2.23-7.06,3.54-11.24,3.54C89.86,74.43,85.41,72.65,81.98,69.71z"/>
			</g>
			<linearGradient id="SVGID_2_" gradientUnits="userSpaceOnUse" x1="85.4226" y1="83.9398" x2="85.4226" y2="25.6476">
				<stop  offset="0" style="stop-color:#24195D"/>
				<stop  offset="1" style="stop-color:#1D71B8"/>
			</linearGradient>
			<path class="st1" d="M75.1,54.79C75.1,54.79,75.1,54.79,75.1,54.79c0-15.11,13.54-27.36,30.25-27.36c0.21,0,0.42,0,0.63,0.01v0
				c-0.78-0.27-1.57-0.51-2.38-0.73c-0.05-0.01-0.09-0.03-0.14-0.04c-0.36-0.1-0.74-0.18-1.11-0.26c-0.06-0.01-0.12-0.03-0.19-0.04
				c-0.35-0.08-0.7-0.14-1.05-0.2c-0.09-0.02-0.18-0.04-0.27-0.05c-0.32-0.06-0.65-0.1-0.97-0.15c-0.12-0.02-0.24-0.04-0.36-0.05
				c-0.3-0.04-0.6-0.07-0.9-0.1c-0.15-0.02-0.3-0.04-0.45-0.05c-0.34-0.03-0.68-0.05-1.02-0.07c-0.12-0.01-0.23-0.02-0.35-0.02
				c-0.46-0.02-0.92-0.03-1.38-0.03c-16.88,0-30.56,13.05-30.56,29.15c0,16.1,13.68,29.15,30.56,29.15c3.71,0,7.27-0.65,10.56-1.81
				c-0.23,0-0.4,0.01-0.63,0.01c-16.7,0-30.23-12.24-30.24-27.33C75.11,54.8,75.1,54.8,75.1,54.79C75.1,54.79,75.1,54.79,75.1,54.79
				z"/>
		</g>
		<g>
			<linearGradient id="SVGID_3_" gradientUnits="userSpaceOnUse" x1="64.864" y1="33.6749" x2="105.9828" y2="33.6749">
				<stop  offset="0" style="stop-color:#FFFFFF"/>
				<stop  offset="1" style="stop-color:#7C909B"/>
			</linearGradient>
			<path class="st2" d="M105.09,27.47c-9.71,0.49-18.17,5.32-23.15,12.44c3.44-2.96,7.91-4.75,12.8-4.75
				c4.18,0,8.06,1.31,11.24,3.54V27.44c0,0-0.01,0-0.01,0C105.87,27.45,105.12,27.46,105.09,27.47z"/>
		</g>
		<g>
			<linearGradient id="SVGID_4_" gradientUnits="userSpaceOnUse" x1="75.105" y1="54.7843" x2="105.9827" y2="54.7843">
				<stop  offset="0" style="stop-color:#4E7282"/>
				<stop  offset="1" style="stop-color:#7997A6"/>
			</linearGradient>
			<path class="st3" d="M77.2,54.78c0-14.6,12.35-26.53,27.89-27.31c0.02-0.01,0.86-0.02,0.89-0.04c-0.02,0-0.85,0-0.87,0
				c-16.59,0.12-30.01,12.32-30.01,27.35c0,14.79,12.98,26.84,29.2,27.34c0.03,0,0.87,0.03,1.68,0.01c-0.19,0-1.28-0.03-1.76-0.09
				C89.09,80.87,77.2,69.12,77.2,54.78z"/>
		</g>
		<g>
			<linearGradient id="SVGID_5_" gradientUnits="userSpaceOnUse" x1="123.4914" y1="75.6832" x2="142.6871" y2="75.6832">
				<stop  offset="0" style="stop-color:#7C909B"/>
				<stop  offset="0.5055" style="stop-color:#C6D1D8"/>
				<stop  offset="1" style="stop-color:#7C909B"/>
			</linearGradient>
			<path class="st4" d="M133.08,74.84c-4.04,0-7.58-2.11-9.59-5.28c1.61,6.92,3.97,9.59,4.18,9.82l0,0c1.32,1.5,3.26,2.46,5.41,2.46
				c2.15,0,4.07-0.94,5.39-2.43l0,0c0.21-0.23,2.6-2.92,4.22-9.87C140.68,72.72,137.13,74.84,133.08,74.84z"/>
		</g>
		<linearGradient id="SVGID_6_" gradientUnits="userSpaceOnUse" x1="133.0907" y1="25.6413" x2="133.0907" y2="83.9357">
			<stop  offset="0" style="stop-color:#4E7282"/>
			<stop  offset="1" style="stop-color:#4E7282"/>
		</linearGradient>
		<path class="st5" d="M143.73,25.64c0,0,0.46,9.91,0.46,29.06c0,18.25-5.4,24.35-5.72,24.7l0,0c-1.32,1.49-3.24,2.43-5.39,2.43
			c-2.15,0-4.09-0.95-5.41-2.46l0,0c-0.32-0.35-5.68-6.43-5.68-24.68c0-19.15,0.46-29.06,0.46-29.06s-1.76,9.91-1.76,29.06
			c0,20.41,5.07,25.72,5.39,26.04v0c1.7,1.95,4.21,3.2,7.01,3.2c2.79,0,5.28-1.23,6.98-3.17c0,0,5.43-4.98,5.43-26.06
			C145.5,35.55,143.73,25.64,143.73,25.64z"/>
		<g>
			<linearGradient id="SVGID_7_" gradientUnits="userSpaceOnUse" x1="133.0792" y1="83.938" x2="133.0792" y2="25.6413">
				<stop  offset="0" style="stop-color:#24195D"/>
				<stop  offset="1" style="stop-color:#1D71B8"/>
			</linearGradient>
			<path class="st6" d="M143.73,25.64c0,0,1.76,9.91,1.76,29.06c0,21.08-5.43,26.06-5.43,26.06c-1.7,1.94-4.2,3.17-6.98,3.17
				c-2.79,0-5.31-1.24-7.01-3.2v0c-0.32-0.32-5.39-5.63-5.39-26.04c0-19.15,1.76-29.06,1.76-29.06h-9.81v37.82c0,0.01,0,0.02,0,0.03
				c0,11.29,9.15,20.45,20.44,20.45c11.29,0,20.44-9.15,20.44-20.45V25.64H143.73z"/>
		</g>
		<g>
			<linearGradient id="SVGID_8_" gradientUnits="userSpaceOnUse" x1="46.2948" y1="83.9401" x2="46.2948" y2="25.6316">
				<stop  offset="0" style="stop-color:#24195D"/>
				<stop  offset="1" style="stop-color:#1D71B8"/>
			</linearGradient>
			<path class="st7" d="M51.18,47.37c1.7-2.27,2.7-5.09,2.7-8.14c0-7.51-6.09-13.6-13.59-13.6c0,0,0,0-0.01,0v-0.01h-8.46
				c1.76,0.08,3.39,0.38,4.69,0.9c4.19,1.7,7.37,5.85,7.58,10c0.21,4.15-0.93,7.54-0.93,7.54s6.71,7.07,7.41,16.38
				c0.7,9.31-3.91,15.84-7.01,18.22c-2.81,2.16-6.68,5.21-11.25,5.25h7.97v-0.01c0.27,0.01,0.54,0.02,0.81,0.02
				c10.87,0,19.67-8.81,19.67-19.67C60.77,57.09,56.92,50.81,51.18,47.37z"/>
		</g>
		<g>
			<linearGradient id="SVGID_9_" gradientUnits="userSpaceOnUse" x1="16.9754" y1="70.8162" x2="48.0471" y2="70.8162">
				<stop  offset="0" style="stop-color:#FFFFFF"/>
				<stop  offset="1" style="stop-color:#7C909B"/>
			</linearGradient>
			<path class="st8" d="M25.74,80.18c8.64,5.12,17.42-1.36,20.16-11.25c-0.15,0.27-0.3,0.55-0.48,0.84
				c-1.88,3.1-5.18,7.03-11.51,6.84c-6.32-0.2-8.8-2.28-11.12-6.05c-2.32-3.77-1.05-10.9-1.05-10.9s-0.16,0.37-0.39,1.02
				C20.14,64.07,17.08,75.05,25.74,80.18z"/>
		</g>
		<linearGradient id="SVGID_10_" gradientUnits="userSpaceOnUse" x1="14.1732" y1="54.781" x2="50.6427" y2="54.781">
			<stop  offset="0" style="stop-color:#4E7282"/>
			<stop  offset="1" style="stop-color:#7997A6"/>
		</linearGradient>
		<path class="st9" d="M33.95,50.55c-1.78,1.18-7.21,3.08-11.54,1.56c-3.73-1.31-2.87-5.57-1.92-6.71
			c-2.59,0.19-5.67-2.18-6.16-5.35c-0.69-4.44,0.98-8.74,5.65-11.64c4.72-2.92,12.33-3.56,16.53-1.86c4.19,1.7,7.37,5.85,7.58,10
			c0.21,4.15-0.93,7.54-0.93,7.54s6.71,7.07,7.41,16.38c0.7,9.31-3.91,15.84-7.01,18.22c-3.1,2.38-7.51,5.94-12.71,5.16
			c-6.21-0.94-10.84-5.66-11.32-11.77c-0.65-8.17,2.2-12.42,2.2-12.42s-6.31,14.42,4,20.53c10.31,6.11,20.83-4.3,21.03-17.32
			c0.2-13.02-5.71-17.72-5.71-17.72s2.5-12.52-4.71-15.52c-7.21-3-13.75-0.83-16.92,2.3c-3.07,3.04-3.8,8.13-1.6,10.51
			c2.11,2.29,4.41,2.3,4.41,2.3s-2.5,3.1-0.3,5.21C24.14,52.05,29.73,51.84,33.95,50.55z"/>
	</g>
	<rect x="169.06" y="15.46" width="1.29" height="113.11"/>
</g>
</svg>
