<?xml version="1.0" encoding="utf-8"?>
<!-- Generator: Adobe Illustrator 24.1.0, SVG Export Plug-In . SVG Version: 6.00 Build 0)  -->
<svg version="1.1" id="Capa_1" xmlns="http://www.w3.org/2000/svg" xmlns:xlink="http://www.w3.org/1999/xlink" x="0px" y="0px"
	 viewBox="0 0 1080 1080" style="enable-background:new 0 0 1080 1080;" xml:space="preserve">
<style type="text/css">
	.st0{fill:#004FEF;}
</style>
<g>
	<polygon class="st0" points="944.35,513.4 805.61,513.32 805.6,564.47 838.08,564.49 850.56,564.49 853.92,564.5 852.18,567.49 
		802.06,655.23 802.06,655.3 942.4,655.35 942.49,655.35 942.5,604.51 942.41,604.45 906.18,604.43 893.83,604.43 890.45,604.43 
		892.26,601.31 	"/>
	<polygon class="st0" points="707.77,564.43 707.77,566.42 707.72,655.2 707.72,655.25 771.38,655.28 771.5,655.28 771.54,566.53 
		771.54,564.53 773.43,564.53 792.02,564.53 792.02,564.5 792.04,513.27 791.93,513.27 773.44,513.26 771.56,513.26 771.56,511.26 
		771.58,466.76 707.81,466.73 707.78,511.23 707.78,513.23 705.84,513.23 689.5,513.23 689.47,564.42 705.82,564.43 	"/>
	<path class="st0" d="M644.96,499.4c19.45,0.01,35.29-16.7,35.3-37.23c0.02-9.94-3.64-19.32-10.34-26.32
		c-6.63-7.08-15.49-10.93-24.93-10.93c-9.41,0-18.32,3.84-25,10.91c-6.66,6.99-10.32,16.36-10.33,26.32c0,9.95,3.66,19.3,10.3,26.34
		C626.65,495.54,635.55,499.4,644.96,499.4"/>
	<polygon class="st0" points="613.69,655.21 676.91,655.24 676.96,655.24 677.02,513.13 676.96,513.13 613.75,513.1 	"/>
	<polygon class="st0" points="594.6,436.78 531.32,436.75 531.25,655.1 531.25,655.17 594.53,655.24 	"/>
	<path class="st0" d="M475.05,655.15l0.03-53.96c0-17.68,8.81-36.75,28.14-36.75l11-0.04h7.61l0.04-51.26h-0.01
		c-23.12-0.58-40.36,6.69-47.42,26.88v-26.96h-0.09l-62.52-0.05l-0.06,142.04v0.06l63.22,0.03H475.05z"/>
	<path class="st0" d="M320.99,658.39c30.49,0.01,66.55-13.02,75.15-47.25v-0.04l-61.33-0.06v0.04c-1.54,8.19-7.21,12.1-14.86,12.09
		c-4.94,0-8.96-1.57-11.84-4.63c-5.2-5.49-5.89-14.82-5.88-22.32v-1.97h1.89l95.62,0.03c1.45-23.54-5.01-42.18-18.7-57.58
		c-15.15-17.09-37.84-26.49-63.91-26.5c-22.86-0.01-43.28,8.23-57.49,23.21c-13.02,13.73-19.91,32.15-19.91,53.2
		c-0.01,19.35,5.95,35.44,17.67,47.84C272.03,649.87,294.6,658.38,320.99,658.39 M302.23,566.01c0.01-12.5,6.82-20.89,16.99-20.89
		c4.61,0,9,1.91,12.32,5.43c3.79,3.99,5.93,9.63,5.93,15.47v2.02h-1.91l-31.44-0.02h-1.89V566.01z"/>
	<path class="st0" d="M230.53,600.16c0.02-28.7-18.23-41.56-33.56-47.27l-8.63-2.91c4.38-0.74,8.69-2.49,8.69-2.49
		c14.82-5.01,24.44-20.61,24.44-39.82c0.02-15.45-4.26-27.77-12.62-36.59c-11.94-12.65-32.27-18.75-62.16-18.77l-80.95-0.03
		c-0.02,0.04-0.04,0.09-0.06,0.13l-0.08,202.67v0.07l95.04,0.04C194.44,655.2,230.51,640.78,230.53,600.16 M127.87,529.85
		l0.01-29.61v-2.03h1.91h4.95h1.94c7.06-0.05,15.05-0.08,19.78,4.91c2.54,2.65,3.82,6.51,3.82,11.37c0,5.01-1.36,9-4.04,11.83
		c-4.61,4.87-12.29,5.54-19.96,5.54l-6.5-0.01h-1.89V529.85z M163.86,603.08c-6.37,6.71-18.22,6.71-26.05,6.71l-8.07-0.01h-1.89v-2
		l0.01-34.29v-2.01h1.89h7.02h0.52c8.56,0.01,20.25,0.01,26.63,6.77c2.9,3.06,4.37,7.19,4.37,12.28
		C168.29,595.75,166.82,599.96,163.86,603.08"/>
	<path class="st0" d="M981.61,421.61c-18.06,0-32.77,15.45-32.77,34.44c0,18.98,14.7,34.42,32.77,34.42
		c18.09,0,32.78-15.44,32.78-34.42C1014.39,437.07,999.7,421.61,981.61,421.61 M981.61,485.49c-15.32,0-27.78-13.22-27.78-29.44
		c0-16.25,12.46-29.45,27.78-29.45c15.33,0,27.79,13.21,27.79,29.45C1009.4,472.28,996.94,485.49,981.61,485.49"/>
	<path class="st0" d="M992.73,446.58c0-5.91-3.12-9.4-8.58-9.4h-12.58v33.83h2.75v-14.98h8.51l7.67,14.98h3.07l-7.89-15.17
		C990.26,455.21,992.73,451.77,992.73,446.58 M974.32,453.56v-13.82h9.83c3.67,0,5.65,2.43,5.65,5.73v2.32
		c0,3.35-1.98,5.77-5.65,5.77H974.32z"/>
</g>
</svg>
