<?xml version="1.0" encoding="utf-8"?>
<!-- Generator: Adobe Illustrator 25.4.1, SVG Export Plug-In . SVG Version: 6.00 Build 0)  -->
<svg version="1.1" id="Capa_1" xmlns="http://www.w3.org/2000/svg" xmlns:xlink="http://www.w3.org/1999/xlink" x="0px" y="0px"
	 viewBox="0 0 767 231.02" style="enable-background:new 0 0 767 231.02;" xml:space="preserve">
<style type="text/css">
	.st0{fill:#6E7C7C;}
	.st1{fill:#84DADE;}
</style>
<g>
	<g>
		<path class="st0" d="M641.35,49.78v61.05c0,6.16,1.95,10.19,5.84,12.09c2.96,1.43,8.75,2.16,17.37,2.16l-1.59,12.22l-8.97,0.83
			c-10.14,0-17.39-3.45-21.75-10.35c-3.52-5.61-5.29-13.8-5.29-24.59V50.71c-36.48-1.35-69.84-27.69-69.7-27.89
			c0.02-0.01,0.32,0.2,0.93,0.67c26.47,20.39,75.51,23.93,106.72,2.67c17.11-11.66,19.38-21.27,19.38-21.27
			S677.05,43.13,641.35,49.78z"/>
		<g>
			<rect x="386.99" y="175.36" class="st0" width="3.73" height="4.97"/>
			<rect x="347.57" y="175.36" class="st0" width="3.72" height="4.97"/>
			<rect x="130.5" y="175.36" class="st0" width="3.73" height="4.97"/>
			<rect x="28.53" y="175.36" class="st0" width="3.73" height="4.97"/>
			<g>
				<path class="st0" d="M686.38,218.59h3.73v-14.93c0-5.45,1.6-12.08,7.52-12.08c0.94,0,1.95,0.11,2.72,0.35v-3.92
					c-0.64-0.16-1.71-0.35-2.6-0.35c-3.85,0-6.39,3.14-7.76,6.52l-0.12-5.8h-3.73c0.23,2.19,0.23,3.44,0.23,6.76V218.59z"/>
				<path class="st0" d="M647.42,188.38h-3.73v16.7c0,5.04-2.13,11.02-8.95,11.02c-5.15,0-7.16-3.69-7.16-9.36v-18.36h-3.73v19.31
					c0,6.63,2.84,11.6,10.3,11.6c6.28,0,8.53-3.38,9.77-6.09l0.12,5.39h3.61c-0.23-2.43-0.23-4.8-0.23-7.11V188.38z"/>
				<path class="st0" d="M617.51,188.85c-1.06-0.36-3.67-1.19-7.28-1.19c-8.94,0-14.93,6.52-14.93,15.82
					c0,8.41,4.74,15.8,14.45,15.8c2.85,0,5.21-0.18,7.76-1.05l-0.35-3.51c-2.25,0.84-4.45,1.38-6.81,1.38
					c-6.81,0-10.95-5.76-10.95-12.62c0-7.34,4.08-12.62,11.37-12.62c2.02,0,4.44,0.65,6.45,1.54L617.51,188.85z"/>
				<path class="st0" d="M571.75,188.38h-3.73v16.7c0,5.04-2.13,11.02-8.94,11.02c-5.16,0-7.16-3.69-7.16-9.36v-18.36h-3.73v19.31
					c0,6.63,2.83,11.6,10.3,11.6c6.28,0,8.53-3.38,9.77-6.09l0.12,5.39h3.62c-0.24-2.43-0.24-4.8-0.24-7.11V188.38z"/>
				<path class="st0" d="M541.51,188.38h-6.86v-8.58l-3.73,1.29v7.3H525v3.2h5.92v17.65c0,5.49,0.24,10.06,6.86,10.06
					c1.84,0,3.67-0.46,4.56-0.82l-0.23-3.08c-1.07,0.41-2.01,0.72-3.44,0.72c-3.02,0-4.02-2.25-4.02-4.99v-19.53h6.86V188.38z"/>
				<rect x="386.99" y="188.38" class="st0" width="3.73" height="30.21"/>
				<path class="st0" d="M380.66,188.85c-1.07-0.36-3.67-1.19-7.28-1.19c-8.95,0-14.93,6.52-14.93,15.82
					c0,8.41,4.74,15.8,14.45,15.8c2.84,0,5.21-0.18,7.76-1.05l-0.35-3.51c-2.25,0.84-4.44,1.38-6.81,1.38
					c-6.81,0-10.96-5.76-10.96-12.62c0-7.34,4.08-12.62,11.37-12.62c2.01,0,4.43,0.65,6.45,1.54L380.66,188.85z"/>
				<rect x="347.57" y="188.38" class="st0" width="3.72" height="30.21"/>
				<polygon class="st0" points="342.36,188.38 338.45,188.38 329.68,214.5 321.21,188.38 317.13,188.38 327.38,218.59 
					331.76,218.59 				"/>
				<path class="st0" d="M301.57,218.59h3.73v-14.93c0-5.45,1.6-12.08,7.52-12.08c0.95,0,1.96,0.11,2.73,0.35v-3.92
					c-0.66-0.16-1.72-0.35-2.61-0.35c-3.84,0-6.39,3.14-7.76,6.52l-0.12-5.8h-3.73c0.23,2.19,0.23,3.44,0.23,6.76V218.59z"/>
				<g>
					<path class="st0" d="M750.8,187.67c-9.78,0-14.1,7.59-14.1,15.82c0,8.23,4.32,15.8,14.1,15.8c9.77,0,14.09-7.57,14.09-15.8
						C764.9,195.25,760.57,187.67,750.8,187.67z M750.8,216.1c-6.52,0-10.01-5.63-10.01-12.62c0-6.99,3.49-12.62,10.01-12.62
						c6.51,0,10.01,5.63,10.01,12.62C760.81,210.47,757.31,216.1,750.8,216.1z"/>
					<path class="st0" d="M719,187.67c-6.4,0-8.7,4.56-9.65,6.22l0.12-5.51h-3.73v42.64h3.73v-17.6c1.95,3.92,4.8,5.86,9.53,5.86
						c8.29,0,12.44-6.87,12.44-15.8C731.44,194.3,727.89,187.67,719,187.67z M718.41,216.1c-6.64,0-8.94-7.12-8.94-12.62
						c0-5.51,2.3-12.62,8.94-12.62c7.11,0,8.94,6.76,8.94,12.62C727.35,209.35,725.52,216.1,718.41,216.1z"/>
					<path class="st0" d="M667.25,187.67c-7.64,0-12.73,6.58-12.73,15.82c0,9.07,3.73,15.8,13.74,15.8c2.78,0,6.16-0.59,8.76-1.65
						v-3.79c-1.78,1.12-5.74,2.25-8.47,2.25c-6.52,0-9.95-5.16-9.95-11.56h20.66v-1.9C679.27,194.54,675.78,187.67,667.25,187.67z
						 M658.6,201.35c0-4.97,3.38-10.48,8.88-10.48c5.57,0,7.7,5.21,7.7,10.48H658.6z"/>
					<path class="st0" d="M492.92,187.67c-7.64,0-12.74,6.58-12.74,15.82c0,9.07,3.73,15.8,13.74,15.8c2.78,0,6.16-0.59,8.76-1.65
						v-3.79c-1.77,1.12-5.74,2.25-8.46,2.25c-6.51,0-9.95-5.16-9.95-11.56h20.67v-1.9C504.94,194.54,501.44,187.67,492.92,187.67z
						 M484.26,201.35c0-4.97,3.38-10.48,8.89-10.48c5.56,0,7.69,5.21,7.69,10.48H484.26z"/>
					<path class="st0" d="M469.71,193.47c-0.65-1.47-3.62-5.8-9.54-5.8c-8.88,0-12.43,6.64-12.43,15.82c0,8.93,4.14,15.8,12.43,15.8
						c4.32,0,7.41-1.65,9.42-5.5l0.12,4.8h3.72v-44.41h-3.72V193.47z M460.76,216.1c-7.1,0-8.94-6.76-8.94-12.62
						c0-5.86,1.83-12.62,8.94-12.62c6.63,0,8.95,7.11,8.95,12.62C469.71,208.98,467.39,216.1,460.76,216.1z"/>
					<path class="st0" d="M411.92,187.67c-9.77,0-14.09,7.59-14.09,15.82c0,8.23,4.33,15.8,14.09,15.8c9.77,0,14.1-7.57,14.1-15.8
						C426.01,195.25,421.69,187.67,411.92,187.67z M411.92,216.1c-6.51,0-10.01-5.63-10.01-12.62c0-6.99,3.49-12.62,10.01-12.62
						c6.52,0,10.01,5.63,10.01,12.62C421.93,210.47,418.44,216.1,411.92,216.1z"/>
					<path class="st0" d="M282.44,187.67c-7.64,0-12.74,6.58-12.74,15.82c0,9.07,3.73,15.8,13.74,15.8c2.78,0,6.16-0.59,8.76-1.65
						v-3.79c-1.77,1.12-5.74,2.25-8.47,2.25c-6.51,0-9.95-5.16-9.95-11.56h20.66v-1.9C294.45,194.54,290.97,187.67,282.44,187.67z
						 M273.79,201.35c0-4.97,3.37-10.48,8.88-10.48c5.56,0,7.7,5.21,7.7,10.48H273.79z"/>
				</g>
				<path class="st0" d="M246.26,217.87c2.66,1.07,5.56,1.42,8.46,1.42c4.56,0,10.54-2.18,10.54-8.58c0-9.88-14.86-9.18-14.86-14.81
					c0-3.85,2.67-5.03,6.51-5.03c2.07,0,4.74,0.53,6.69,1.42l0.35-3.25c-2.67-1.01-5.87-1.36-7.46-1.36c-4.97,0-9.83,2.25-9.83,8.23
					c0,8.77,14.51,7.65,14.51,14.81c0,3.44-3.14,5.4-6.69,5.4c-2.9,0-5.62-0.78-7.87-1.9L246.26,217.87z"/>
				<rect x="219.32" y="174.17" class="st0" width="3.74" height="44.41"/>
				<g>
					<path class="st0" d="M210.44,212.25v-13.33c0-7.88-3.14-11.25-10.6-11.25c-2.67,0-6.57,0.95-8.88,2.07v3.61
						c2.79-1.77,5.74-2.49,8.88-2.49c5.03,0,6.87,2.6,6.87,7.76v1.54H206c-7.82,0-18.6,0.47-18.6,10.6c0,2.72,1.36,8.52,9.95,8.52
						c3.73,0,7.94-1.95,9.59-5.55l0.12,4.85h3.67C210.44,216.51,210.44,214.68,210.44,212.25z M206.71,205.2
						c0,3.26-0.18,10.91-8.94,10.91c-3.44,0-6.28-1.49-6.28-5.46c0-6.64,7.69-7.28,14.15-7.28h1.07V205.2z"/>
					<path class="st0" d="M164.37,198.92c0-7.88-3.14-11.25-10.6-11.25c-2.67,0-6.58,0.95-8.89,2.07v3.61
						c2.78-1.77,5.74-2.49,8.89-2.49c5.03,0,6.86,2.6,6.86,7.76v1.54h-0.7c-7.82,0-18.6,0.47-18.6,10.6c0,2.72,1.36,8.52,9.95,8.52
						c3.73,0,7.93-1.95,9.6-5.55l0.11,4.85h3.67c-0.29-2.08-0.29-3.9-0.29-6.33V198.92z M160.63,205.2c0,3.26-0.17,10.91-8.94,10.91
						c-3.43,0-6.28-1.49-6.28-5.46c0-6.64,7.7-7.28,14.16-7.28h1.06V205.2z"/>
				</g>
				<rect x="130.5" y="188.38" class="st0" width="3.73" height="30.21"/>
				<path class="st0" d="M124.17,188.85c-1.07-0.36-3.67-1.19-7.28-1.19c-8.94,0-14.92,6.52-14.92,15.82
					c0,8.41,4.74,15.8,14.45,15.8c2.85,0,5.21-0.18,7.76-1.05l-0.35-3.51c-2.25,0.84-4.44,1.38-6.81,1.38
					c-6.82,0-10.96-5.76-10.96-12.62c0-7.34,4.08-12.62,11.37-12.62c2.01,0,4.44,0.65,6.45,1.54L124.17,188.85z"/>
				<path class="st0" d="M71.29,218.59h3.73v-16.71c0-5.03,2.13-11.01,8.94-11.01c5.15,0,7.16,3.67,7.16,9.36v18.36h3.73v-19.31
					c0-6.62-2.84-11.6-10.31-11.6c-6.28,0-8.53,3.37-9.77,6.11l-0.12-5.4h-3.61c0.24,2.43,0.24,4.8,0.24,7.11V218.59z"/>
				<path class="st0" d="M64.18,202.65c0-8.11-3.49-14.98-12.02-14.98c-7.65,0-12.74,6.58-12.74,15.82c0,9.07,3.73,15.8,13.74,15.8
					c2.78,0,6.16-0.59,8.76-1.65v-3.79c-1.77,1.12-5.74,2.25-8.46,2.25c-6.52,0-9.95-5.16-9.95-11.56h20.67V202.65z M43.51,201.35
					c0-4.97,3.38-10.48,8.88-10.48c5.56,0,7.69,5.21,7.69,10.48H43.51z"/>
				<rect x="28.53" y="188.38" class="st0" width="3.73" height="30.21"/>
				<path class="st0" d="M22.2,188.85c-1.07-0.36-3.67-1.19-7.28-1.19C5.98,187.67,0,194.18,0,203.48c0,8.41,4.73,15.8,14.44,15.8
					c2.84,0,5.21-0.18,7.76-1.05l-0.35-3.51c-2.25,0.84-4.44,1.38-6.81,1.38c-6.81,0-10.95-5.76-10.95-12.62
					c0-7.34,4.08-12.62,11.37-12.62c2.01,0,4.45,0.65,6.45,1.54L22.2,188.85z"/>
			</g>
		</g>
		<path class="st0" d="M742.68,123.82c-5.6,2.36-11.02,3.54-16.26,3.54c-11.31,0-20.41-3.89-27.31-11.68
			c-7.04-7.77-10.56-17.36-10.56-28.76l0.62-2.01H767c0-14.49-3.93-26.45-11.81-35.85c-8.34-9.96-19.64-14.94-33.9-14.94
			c-14.31,0.01-25.87,5.24-34.68,15.7c-8.38,9.87-12.57,22.01-12.57,36.42c0,15.37,4.79,28.28,14.38,38.7
			c9.49,10.5,21.79,15.77,36.9,15.77c6.34,0,13.27-1.56,20.77-4.66c0.93-0.43,7.31-3.57,19.18-9.45l-7.92-11.2
			C751.82,119.21,746.94,122,742.68,123.82z M701.34,54.27c5.61-5.05,12.35-7.57,20.22-7.57c8.11,0,14.66,2.54,19.66,7.65
			c4.53,4.63,7.66,11.04,9.38,19.24h-60.18C692.15,65.71,695.78,59.26,701.34,54.27z"/>
		<rect x="571.05" y="49.95" class="st0" width="14.25" height="87.07"/>
		<path class="st0" d="M545.83,111.38c-7.13-10.51-13.58-17.76-19.37-21.75c5.33-2.09,9.46-5.25,12.43-9.52
			c2.82-4.16,4.25-9.14,4.25-14.94c0-9.22-3.28-16.27-9.8-21.18c-5.79-4.41-13.48-6.6-23.06-6.6h-24.87v99.64h14.18V93.59l4.43-0.28
			c5.98,0,11.9,2.99,17.78,8.97c3.8,3.88,8.45,10.35,13.96,19.38c6.35,10.33,10.16,16.39,11.46,18.21l15-2.85
			C556.72,128.5,551.25,119.95,545.83,111.38z M521.12,78.37c-3.43,1.71-8.71,2.57-15.84,2.57h-5.68V49.47h4.3
			c7.5,0,12.98,0.77,16.47,2.29c5.41,2.37,8.12,6.79,8.12,13.27C528.47,71.48,526.02,75.92,521.12,78.37z"/>
		<path class="st0" d="M462,92.9c-4.46-4.46-10.12-7.35-17.02-8.69c4.81-2,8.56-4.75,11.26-8.27c2.55-3.38,3.82-7.6,3.82-12.65
			c0-9.08-3.47-15.87-10.42-20.36c-5.79-3.7-13.46-5.56-23.01-5.56h-26.19v99.64l35.58,0.15c8.8-0.02,16.28-2.33,22.44-6.96
			c6.86-5.14,10.28-11.92,10.28-20.35C468.73,103.09,466.49,97.44,462,92.9z M414.47,50.09h12.58c5.46,0,9.72,1,12.78,2.99
			c3.61,2.37,5.42,6.17,5.42,11.4c0,5.74-2.23,9.9-6.67,12.5c-3.43,2-8.23,2.99-14.38,2.99h-9.73V50.09z M445.53,121.8
			c-3.89,1.71-9.45,2.57-16.67,2.57h-14.38V92.9h13.55c7.31,0,13.01,0.85,17.1,2.57c5.88,2.45,8.82,6.81,8.82,13.06
			C453.93,114.92,451.14,119.36,445.53,121.8z"/>
	</g>
	<path class="st1" d="M558.19,18.61C584.66,39,633.7,42.54,664.91,21.28C682.02,9.62,684.29,0,684.29,0s-1,5.28-4.08,12.26
		c-2.83,3.73-7.53,8.61-15.3,13.9c-19.79,13.48-46.73,17-70.56,12.56c-21.58-8.24-37.19-20.63-37.1-20.76
		C557.28,17.93,557.58,18.14,558.19,18.61z M626.96,23.93V9.03h14.26v14.9H626.96z M571.05,23.93V9.03h14.25v14.9H571.05z
		 M352.56,84.35l-0.14,52.67H337.9V84.21l-36.69-46.83l16.19-1.25l27.94,35.57l27.58-35.57l16.54,1.25L352.56,84.35z M235.06,49.95
		h-18.07v74.14h18.48c13.39,0,23.86-2.88,31.41-8.68c8.57-6.47,12.85-16.2,12.85-29.17c0-12.75-4.47-22.2-13.41-28.35
		C258.64,52.59,248.22,49.95,235.06,49.95z M236.45,137.17l-33.7-0.15V37.38h33.56c16.91,0,30.49,3.94,40.72,11.81
		c11.48,8.85,17.22,21.51,17.23,38.01c0,15.93-5.79,28.41-17.37,37.45C266.14,132.99,252.66,137.17,236.45,137.17z M131.81,49.47
		c-11.16,0-20.45,3.57-27.86,10.71C96.53,67.3,92.82,76.4,92.82,87.48c0,10.84,3.75,19.75,11.26,26.75
		c7.41,7.12,16.56,10.7,27.44,10.7c11.03,0,20.29-3.62,27.8-10.85c7.37-7.08,11.05-16.14,11.05-27.17
		c0-10.61-3.68-19.52-11.05-26.74C151.82,53.03,142.65,49.47,131.81,49.47z M130.56,138.27c-14.73,0-27.17-4.78-37.32-14.31
		c-10.14-9.59-15.22-21.7-15.22-36.35c0-15.15,5.07-27.51,15.22-37.1c10.15-9.59,22.86-14.38,38.15-14.38
		c15.1,0,27.81,4.75,38.15,14.25c10.33,9.59,15.49,21.86,15.49,36.83c0,15.19-5.21,27.5-15.63,36.89
		C158.88,133.54,145.94,138.27,130.56,138.27z M27.79,92.9H14.24v31.47h14.39c7.23,0,12.78-0.86,16.68-2.57
		c5.6-2.45,8.4-6.88,8.4-13.27c0-6.25-2.94-10.61-8.82-13.06C40.81,93.75,35.11,92.9,27.79,92.9z M26.82,50.09H14.24v29.88h9.73
		c6.16,0,10.95-1,14.38-2.99c4.45-2.59,6.67-6.76,6.67-12.5c0-5.23-1.81-9.03-5.42-11.4C36.55,51.09,32.29,50.09,26.82,50.09z
		 M35.78,137.17L0.2,137.02V37.38H26.4c9.55,0,17.21,1.86,23.01,5.56c6.95,4.49,10.42,11.28,10.42,20.36
		c0,5.05-1.28,9.26-3.82,12.65c-2.68,3.52-6.44,6.27-11.26,8.27c6.9,1.33,12.57,4.23,17.02,8.69c4.5,4.54,6.74,10.19,6.74,16.95
		c0,8.43-3.43,15.22-10.28,20.35C52.06,134.84,44.59,137.15,35.78,137.17z"/>
</g>
</svg>
