<?xml version="1.0" encoding="utf-8"?>
<!-- Generator: Adobe Illustrator 25.4.1, SVG Export Plug-In . SVG Version: 6.00 Build 0)  -->
<svg version="1.1" id="Layer_1" xmlns="http://www.w3.org/2000/svg" xmlns:xlink="http://www.w3.org/1999/xlink" x="0px" y="0px"
	 viewBox="0 0 451 61" style="enable-background:new 0 0 451 61;" xml:space="preserve">
<style type="text/css">
	.st0{fill:#293B86;}
	.st1{fill:#DD883C;}
</style>
<g>
	<g>
		<g>
			<path class="st0" d="M217.9,49.1c-1.1-3.5-4.8-5.4-8.3-4.3l-0.9,0.4c0,0-5.6,2.7-13.6,2.7c-5.3,0-9.8-1-15-2.1
				c-6.5-1.4-13.8-2.9-23.9-2.9c-10.5,0-17.7,2.3-21.6,3.6c-0.3,0.1-0.6,0.2-0.8,0.3c-3.5,1.1-5.4,4.8-4.3,8.3
				c1.1,3.5,4.8,5.4,8.2,4.3c0.3-0.1,0.6-0.2,1-0.3c3.4-1.1,9.1-2.9,17.6-2.9c8.8,0,15.1,1.3,21.2,2.7c5.5,1.1,11.1,2.4,17.8,2.4
				c11.1,0,18.8-3.7,19.6-4.2l0,0C217.5,55.4,218.8,52.1,217.9,49.1z"/>
			<g>
				<path class="st1" d="M180.1,41c5.2,1.1,9.8,2.1,15,2.1c3.4,0,6.4-0.5,8.7-1.1c-0.1-1.4-0.8-2.8-1.8-3.9l-25.6-25.7
					c-0.7-0.7-1.7-1.3-2.7-1.6l-15.5-4.7c-2.2-0.7-4.7-0.1-6.4,1.6l-12.7,12.7c-2.5,2.5-2.5,6.5,0,9c2.5,2.5,6.5,2.5,9,0l10-10
					l8.6,2.6l-16,16.2c1.7-0.1,3.5-0.2,5.5-0.2C166.3,38.1,173.6,39.6,180.1,41z"/>
				<path class="st1" d="M203.8,26.2c6.7,0,12-5.4,12-12.1c0-6.6-5.4-12-12-12c-6.6,0-12,5.4-12,12
					C191.8,20.8,197.2,26.2,203.8,26.2z"/>
			</g>
		</g>
		<g>
			<path class="st0" d="M247.3,51.3c-11.4,0-18-5.9-18-17.7c0-12.2,7.3-17.7,18-17.7h8.5v9.8h-8.5c-4.4,0-7.2,2.2-7.2,7.9
				c0,5.6,2.9,8,7.2,8h8.5v9.7H247.3z"/>
			<path class="st0" d="M283.6,51.3v-6.7h-0.5c-0.9,2.9-3.4,7.6-10.5,7.6c-7.5,0-13.4-6.2-13.4-18.2c0-12.4,7.3-18.9,17.7-18.9
				c12.7,0,17.5,6.6,17.5,18.6v17.7H283.6z M276.9,24.8c-4.1,0-6.9,2.8-6.9,8.8c0,6,2.5,8.7,6.8,8.7c4.1,0,6.8-3.2,6.8-8.7
				C283.6,27.3,281,24.8,276.9,24.8z"/>
			<path class="st0" d="M332.9,51.3h-10.9V31.6c0-4.4-1.1-6.8-5.6-6.8c-4.1,0-5.8,2.2-5.8,6.8v19.7h-10.8V31.6
				c0-11.5,6.3-16.5,16.7-16.5c11,0,16.4,5.9,16.4,16.5V51.3z M318.4,12l-6.2-3.7c-1.9-1.2-3.7-0.1-3.7,2V13h-6.6V7.9
				c0-7.3,6.2-9.7,11.9-6.6l6.7,3.8c1.9,1.1,3.8,0,3.8-2V0.3h6.6v5.1C330.8,13.6,323.5,15.1,318.4,12z"/>
			<path class="st0" d="M361.5,51.3v-6.7h-0.5c-0.9,2.9-3.4,7.6-10.5,7.6c-7.6,0-13.4-6.2-13.4-18.2c0-12.4,7.3-18.9,17.7-18.9
				c12.7,0,17.5,6.6,17.5,18.6v17.7H361.5z M354.9,24.8c-4.2,0-6.9,2.8-6.9,8.8c0,6,2.4,8.7,6.8,8.7c4.1,0,6.8-3.2,6.8-8.7
				C361.5,27.3,359,24.8,354.9,24.8z"/>
			<path class="st0" d="M394.1,52.1c-11.3,0-17.5-6.7-17.5-18.8c0-11.8,5.9-18.3,14-18.3c6.4,0,9.2,4.2,9.9,7.6h0.5V3.9h10.9v29.6
				C411.9,45.2,406.1,52.1,394.1,52.1z M394.4,24.8c-4.4,0-7,2.5-7,8.7c0,6,2.5,8.7,6.7,8.7c4.2,0,6.9-2.4,6.9-8.8
				C401,28.1,398.7,24.8,394.4,24.8z"/>
			<path class="st0" d="M440.2,51.3v-6.7h-0.4c-0.9,2.9-3.4,7.6-10.5,7.6c-7.6,0-13.4-6.2-13.4-18.2c0-12.4,7.3-18.9,17.7-18.9
				c12.7,0,17.5,6.6,17.5,18.6v17.7H440.2z M433.5,24.8c-4.2,0-6.9,2.8-6.9,8.8c0,6,2.4,8.7,6.8,8.7c4.1,0,6.8-3.2,6.8-8.7
				C440.2,27.3,437.7,24.8,433.5,24.8z"/>
		</g>
		<g>
			<path class="st1" d="M18,51.3c-11.4,0-18-5.8-18-17.5c0-12.1,7.3-17.5,18-17.5h7.7v5.4h-7.8C11,21.8,6,25.3,6,33.8
				c0,8.1,4.6,12,11.9,12h7.8v5.5H18z"/>
			<path class="st1" d="M44.1,51.3c-7.4,0-11.9-3.3-11.9-11.9V4.4h6.1v34c0,5.4,2.7,7.4,7.3,7.4h1.7v5.5H44.1z"/>
			<path class="st1" d="M66.1,52.1c-10.5,0-15.6-5.9-15.6-16.6V16.3h6.1v19.2c0,7.2,2.8,11.1,9.6,11.1c6.2,0,9.7-3.5,9.7-11.1V16.3
				H82v19.2C82,46.9,75.9,52.1,66.1,52.1z"/>
			<path class="st1" d="M105.5,52.1c-11.7,0-16.7-6.6-16.7-18.5V4.4h6.1v20.8h0.2c0.9-3.1,4-9.7,13.1-9.7c9,0,14.2,6,14.2,17.9
				C122.4,45.6,115.5,52.1,105.5,52.1z M116.4,33.8c0-8.6-4-12.8-10.5-12.8c-7.3,0-11,5.8-11,12.7c0,8.7,3.6,13,10.6,13
				C111.9,46.7,116.3,42.3,116.4,33.8L116.4,33.8z"/>
		</g>
	</g>
</g>
</svg>
