<?xml version="1.0" encoding="utf-8"?>
<!-- Generator: Adobe Illustrator 23.0.1, SVG Export Plug-In . SVG Version: 6.00 Build 0)  -->
<svg version="1.1" id="Capa_1" xmlns="http://www.w3.org/2000/svg" xmlns:xlink="http://www.w3.org/1999/xlink" x="0px" y="0px"
	 viewBox="0 0 255.12 141.73" style="enable-background:new 0 0 255.12 141.73;" xml:space="preserve">
<style type="text/css">
	.st0{fill:#86BC25;}
	.st1{fill:#0089A8;}
	.st2{fill:#76BC21;}
</style>
<g>
	<g>
		<path class="st0" d="M203.07,89.18c-0.61,0.94-2.16,1.64-3.47,1.56c-1.31-0.08-1.89-0.91-1.28-1.86c0.6-0.94,2.16-1.64,3.47-1.56
			C203.1,87.4,203.67,88.23,203.07,89.18z"/>
		<g>
			<path class="st1" d="M201.06,65.52c0.74-1.15,2.64-2.01,4.25-1.91c1.61,0.1,2.31,1.12,1.57,2.27c-0.74,1.15-2.64,2.01-4.25,1.9
				C201.02,67.69,200.32,66.67,201.06,65.52z"/>
			<path class="st1" d="M207.66,58.23c0.67-1.05,2.4-1.82,3.86-1.73c1.46,0.09,2.1,1.01,1.43,2.06c-0.67,1.05-2.4,1.82-3.86,1.73
				C207.62,60.2,206.99,59.28,207.66,58.23z"/>
			<path class="st1" d="M215.38,52.2c0.6-0.94,2.16-1.64,3.47-1.56c1.31,0.08,1.89,0.91,1.28,1.85c-0.61,0.95-2.16,1.64-3.47,1.56
				C215.35,53.98,214.77,53.15,215.38,52.2z"/>
			<path class="st1" d="M221.99,47.48c0.47-0.73,1.68-1.28,2.7-1.21c1.02,0.06,1.47,0.71,1,1.44c-0.47,0.73-1.69,1.28-2.7,1.21
				C221.96,48.86,221.51,48.21,221.99,47.48z"/>
			<path class="st1" d="M228.09,43.71c0.41-0.64,1.47-1.12,2.37-1.06c0.89,0.06,1.28,0.63,0.87,1.27c-0.41,0.64-1.47,1.11-2.36,1.06
				C228.06,44.92,227.68,44.35,228.09,43.71z"/>
			<path class="st1" d="M233.15,39.97c0.35-0.54,1.24-0.94,1.99-0.89c0.75,0.05,1.08,0.52,0.73,1.06c-0.35,0.54-1.24,0.94-1.99,0.89
				C233.13,40.99,232.79,40.51,233.15,39.97z"/>
			<path class="st1" d="M237.7,35.97c0.32-0.49,1.12-0.85,1.81-0.81c0.69,0.04,0.98,0.47,0.67,0.96c-0.32,0.49-1.12,0.85-1.81,0.81
				C237.68,36.9,237.38,36.47,237.7,35.97z"/>
			<path class="st1" d="M241.33,32.58c0.25-0.39,0.89-0.68,1.43-0.64c0.54,0.03,0.78,0.38,0.53,0.77c-0.25,0.39-0.89,0.68-1.43,0.65
				C241.32,33.32,241.08,32.97,241.33,32.58z"/>
			<path class="st1" d="M244.27,29.44c0.22-0.34,0.78-0.59,1.26-0.56c0.47,0.03,0.68,0.33,0.46,0.67c-0.22,0.34-0.78,0.59-1.26,0.56
				C244.26,30.08,244.05,29.78,244.27,29.44z"/>
			<path class="st1" d="M246.63,26.73c0.16-0.26,0.59-0.45,0.94-0.42c0.36,0.02,0.51,0.25,0.35,0.5c-0.16,0.26-0.58,0.45-0.94,0.42
				C246.62,27.22,246.46,26.99,246.63,26.73z"/>
			<path class="st1" d="M248.2,24.44c0.16-0.26,0.58-0.45,0.95-0.42c0.36,0.02,0.51,0.25,0.35,0.51c-0.16,0.26-0.59,0.45-0.94,0.42
				C248.19,24.93,248.04,24.7,248.2,24.44z"/>
			<path class="st1" d="M198.11,73.06c-0.68,1.05-0.03,1.97,1.42,2.06c1.46,0.09,3.19-0.68,3.86-1.73c0.67-1.05,0.03-1.97-1.43-2.06
				C200.51,71.23,198.78,72.01,198.11,73.06z"/>
			<path class="st1" d="M197.79,79.55c-0.61,0.94-0.03,1.78,1.28,1.86c1.32,0.08,2.87-0.62,3.47-1.56c0.61-0.94,0.03-1.77-1.28-1.86
				C199.95,77.91,198.39,78.61,197.79,79.55z"/>
			<path class="st1" d="M198.06,84.7c-0.47,0.73-0.02,1.38,1,1.44c1.02,0.07,2.23-0.48,2.7-1.21c0.47-0.73,0.02-1.38-1-1.44
				C199.73,83.43,198.53,83.97,198.06,84.7z"/>
			<path class="st1" d="M199.03,88.92c-0.41,0.64-0.02,1.21,0.87,1.26c0.89,0.06,1.95-0.42,2.36-1.06c0.41-0.64,0.02-1.2-0.87-1.26
				C200.5,87.8,199.44,88.28,199.03,88.92z"/>
			<path class="st1" d="M199.09,92.98c-0.35,0.54-0.02,1.02,0.73,1.07c0.75,0.05,1.65-0.36,1.99-0.9c0.35-0.54,0.02-1.02-0.73-1.06
				C200.32,92.04,199.43,92.44,199.09,92.98z"/>
			<path class="st1" d="M198.35,97.21c-0.31,0.49-0.02,0.92,0.67,0.96c0.68,0.04,1.49-0.32,1.8-0.81c0.31-0.49,0.02-0.92-0.66-0.96
				C199.48,96.36,198.67,96.72,198.35,97.21z"/>
			<path class="st1" d="M197.52,100.78c-0.25,0.39-0.01,0.73,0.53,0.77c0.55,0.03,1.19-0.25,1.44-0.64
				c0.25-0.39,0.02-0.74-0.53-0.77C198.42,100.1,197.78,100.39,197.52,100.78z"/>
			<path class="st1" d="M196.35,104.03c-0.22,0.34-0.01,0.64,0.46,0.67c0.48,0.03,1.04-0.22,1.26-0.57
				c0.22-0.34,0.01-0.64-0.46-0.67C197.14,103.44,196.57,103.69,196.35,104.03z"/>
			<path class="st1" d="M195.19,106.81c-0.16,0.26-0.01,0.48,0.35,0.51c0.36,0.02,0.78-0.17,0.94-0.43c0.17-0.26,0.01-0.48-0.35-0.5
				C195.78,106.37,195.35,106.56,195.19,106.81z"/>
			<path class="st1" d="M193.82,109.12c-0.17,0.26-0.01,0.48,0.34,0.51c0.36,0.02,0.78-0.17,0.95-0.42c0.16-0.26,0.01-0.48-0.35-0.5
				C194.41,108.67,193.99,108.86,193.82,109.12z"/>
		</g>
		<g>
			<path class="st2" d="M217.37,75.84c0.74-1.15,0.04-2.17-1.57-2.27c-1.61-0.1-3.51,0.75-4.25,1.9c-0.74,1.15-0.04,2.17,1.57,2.27
				C214.73,77.84,216.63,76.99,217.37,75.84z"/>
			<path class="st2" d="M220.27,68.32c0.67-1.05,0.04-1.97-1.42-2.06c-1.46-0.09-3.19,0.68-3.86,1.73
				c-0.67,1.05-0.03,1.97,1.43,2.06C217.86,70.14,219.6,69.36,220.27,68.32z"/>
			<path class="st2" d="M220.59,61.82c0.6-0.94,0.03-1.77-1.28-1.86c-1.31-0.08-2.87,0.61-3.47,1.56c-0.61,0.95-0.03,1.78,1.28,1.86
				C218.43,63.46,219.98,62.76,220.59,61.82z"/>
			<path class="st2" d="M220.32,56.67c0.47-0.73,0.03-1.38-0.99-1.44c-1.02-0.06-2.23,0.48-2.71,1.21c-0.47,0.73-0.02,1.38,1,1.44
				C218.64,57.95,219.85,57.4,220.32,56.67z"/>
			<path class="st2" d="M219.34,52.46c0.41-0.64,0.02-1.21-0.88-1.26c-0.89-0.06-1.95,0.42-2.36,1.06
				c-0.41,0.64-0.02,1.21,0.87,1.26C217.87,53.57,218.93,53.1,219.34,52.46z"/>
			<path class="st2" d="M219.29,48.39c0.35-0.54,0.01-1.02-0.74-1.07c-0.76-0.05-1.64,0.35-1.99,0.89
				c-0.35,0.54-0.02,1.02,0.73,1.06C218.05,49.33,218.94,48.94,219.29,48.39z"/>
			<path class="st2" d="M220.02,44.16c0.31-0.49,0.02-0.92-0.67-0.97c-0.68-0.04-1.49,0.32-1.81,0.81
				c-0.31,0.49-0.01,0.92,0.67,0.96C218.9,45.01,219.71,44.65,220.02,44.16z"/>
			<path class="st2" d="M220.85,40.59c0.25-0.39,0.01-0.73-0.53-0.77c-0.54-0.03-1.18,0.25-1.43,0.64
				c-0.25,0.39-0.02,0.73,0.53,0.77C219.95,41.27,220.6,40.98,220.85,40.59z"/>
			<path class="st2" d="M222.02,37.34c0.22-0.34,0.01-0.64-0.47-0.67c-0.47-0.03-1.04,0.22-1.26,0.56
				c-0.22,0.34-0.01,0.64,0.46,0.67C221.24,37.93,221.8,37.68,222.02,37.34z"/>
			<path class="st2" d="M223.18,34.56c0.16-0.26,0.01-0.48-0.35-0.51c-0.36-0.02-0.78,0.17-0.94,0.42c-0.16,0.26-0.01,0.48,0.35,0.5
				C222.6,35,223.02,34.81,223.18,34.56z"/>
			<path class="st2" d="M224.56,32.25c0.16-0.25,0.01-0.48-0.35-0.5c-0.36-0.02-0.78,0.17-0.95,0.42c-0.16,0.26-0.01,0.48,0.35,0.51
				C223.97,32.7,224.39,32.51,224.56,32.25z"/>
			<path class="st2" d="M210.79,83.15c-0.67,1.05-2.4,1.82-3.86,1.74c-1.46-0.1-2.09-1.02-1.42-2.07c0.68-1.05,2.4-1.83,3.86-1.73
				C210.83,81.17,211.46,82.1,210.79,83.15z"/>
			<path class="st2" d="M196.47,93.9c-0.47,0.73-1.68,1.28-2.7,1.21c-1.02-0.06-1.47-0.71-1-1.44c0.47-0.74,1.68-1.28,2.7-1.21
				C196.49,92.52,196.94,93.16,196.47,93.9z"/>
			<path class="st2" d="M190.36,97.67c-0.41,0.64-1.47,1.12-2.36,1.06c-0.89-0.06-1.29-0.62-0.87-1.26
				c0.41-0.64,1.47-1.11,2.36-1.06C190.38,96.46,190.78,97.03,190.36,97.67z"/>
			<path class="st2" d="M185.31,101.4c-0.35,0.54-1.24,0.95-1.99,0.9c-0.75-0.04-1.08-0.52-0.73-1.06c0.35-0.54,1.24-0.94,1.99-0.9
				C185.32,100.39,185.65,100.87,185.31,101.4z"/>
			<path class="st2" d="M180.75,105.4c-0.31,0.49-1.12,0.85-1.81,0.81c-0.68-0.04-0.98-0.47-0.67-0.96
				c0.32-0.49,1.12-0.85,1.81-0.81C180.77,104.48,181.07,104.91,180.75,105.4z"/>
			<path class="st2" d="M177.13,108.79c-0.25,0.39-0.89,0.68-1.43,0.64c-0.54-0.04-0.78-0.38-0.53-0.77
				c0.25-0.39,0.89-0.68,1.44-0.65C177.14,108.05,177.37,108.4,177.13,108.79z"/>
			<path class="st2" d="M174.18,111.94c-0.22,0.34-0.78,0.59-1.26,0.56c-0.48-0.03-0.68-0.33-0.46-0.67
				c0.22-0.34,0.78-0.59,1.26-0.56C174.19,111.29,174.4,111.59,174.18,111.94z"/>
			<path class="st2" d="M171.83,114.64c-0.16,0.26-0.59,0.45-0.95,0.42c-0.35-0.02-0.51-0.25-0.35-0.51
				c0.16-0.26,0.59-0.44,0.94-0.42C171.84,114.16,171.99,114.38,171.83,114.64z"/>
			<path class="st2" d="M170.25,116.93c-0.16,0.26-0.59,0.44-0.95,0.42c-0.36-0.02-0.51-0.25-0.35-0.51
				c0.17-0.25,0.59-0.45,0.94-0.43C170.25,116.45,170.41,116.67,170.25,116.93z"/>
		</g>
	</g>
	<g>
		<path class="st1" d="M66.63,82.58h-0.94h-17c-0.98,0-1.89-0.19-2.69-0.58c-0.79-0.37-1.46-0.89-2-1.53
			c-0.54-0.64-0.93-1.4-1.16-2.25c-0.23-0.85-0.27-1.79-0.12-2.77l0.88-5.58c0.15-0.98,0.49-1.91,0.98-2.77
			c0.5-0.85,1.13-1.61,1.87-2.25c0.74-0.64,1.57-1.15,2.48-1.53c0.92-0.38,1.89-0.57,2.87-0.57h11.53c0.98,0,1.88,0.19,2.69,0.57
			c0.79,0.37,1.46,0.89,2,1.53c0.54,0.64,0.93,1.39,1.16,2.25c0.23,0.86,0.27,1.79,0.12,2.77l-0.68,4.31l-0.15,0.94h-0.94H48.09
			l-0.05,0.34c-0.09,0.59,0.02,1.04,0.35,1.44c0.33,0.39,0.76,0.58,1.35,0.58H63.5c1.11,0.03,1.97,0.44,2.61,1.22
			c0.63,0.79,0.86,1.77,0.67,2.94L66.63,82.58L66.63,82.58z M63.92,70.06l0.03-0.18c0.09-0.59-0.02-1.05-0.36-1.46
			c-0.33-0.4-0.76-0.59-1.34-0.59H49.24l-0.35,2.23H63.92z"/>
		<path class="st1" d="M90.09,82.58h-1.27l0.15-0.94l1.84-11.79c0.05-0.29,0.03-0.55-0.03-0.8c-0.06-0.24-0.17-0.44-0.33-0.62
			c-0.16-0.18-0.36-0.33-0.6-0.43c-0.23-0.1-0.49-0.16-0.78-0.16H77.65l-1.69,10.82c-0.1,0.66-0.34,1.26-0.71,1.77
			c-0.34,0.47-0.74,0.88-1.18,1.2c-0.45,0.33-0.94,0.57-1.45,0.73c-0.48,0.15-0.96,0.23-1.41,0.23h-1.27l0.15-0.94l1.85-11.76
			c0.15-0.98,0.48-1.91,0.99-2.77c0.5-0.85,1.12-1.61,1.87-2.25c0.74-0.64,1.58-1.16,2.5-1.53c0.93-0.38,1.9-0.57,2.88-0.57h10.04
			c0.98,0,1.89,0.19,2.69,0.57c0.79,0.37,1.46,0.89,2,1.53c0.54,0.64,0.93,1.39,1.18,2.24c0.25,0.86,0.29,1.79,0.14,2.78l-1.38,8.77
			c-0.1,0.66-0.34,1.26-0.71,1.77c-0.34,0.47-0.74,0.88-1.18,1.2c-0.46,0.33-0.95,0.58-1.47,0.73
			C90.98,82.51,90.51,82.58,90.09,82.58L90.09,82.58z"/>
		<path class="st1" d="M97.84,82.59H96.9l0.15-0.94l3.12-20.06c0.17-1.09,0.72-2.04,1.63-2.8c0.9-0.75,2.29-1.13,3.46-1.13h0.94
			l-0.15,0.94l-0.63,4.17l5.39-0.01l-0.15,0.95c-0.18,1.17-0.72,2.15-1.59,2.94c-0.89,0.79-1.97,1.19-3.05,1.19h-1.39l-1.7,10.82
			c-0.17,1.09-0.72,2.03-1.63,2.8C100.41,82.21,99.01,82.59,97.84,82.59L97.84,82.59z"/>
		<path class="st1" d="M42.53,57.65l-0.82,0c-1.2,0-2.26,0.37-3.17,1.11c-0.94,0.75-1.5,1.7-1.67,2.8l-0.18,1.2H23.38
			c-0.8,0-2.04,0.18-2.72,0.49c-1.3,0.5-2.2,1.25-2.56,1.56c-0.76,0.64-1.4,1.4-1.9,2.25c-0.51,0.86-0.85,1.8-1.01,2.79l-0.86,5.46
			c-0.15,0.99-0.11,1.93,0.13,2.81c0.24,0.88,0.65,1.66,1.21,2.31c0.56,0.65,1.26,1.18,2.09,1.55c0.83,0.38,1.76,0.6,2.77,0.6
			l11.08,0h0.03c0.99,0,1.97-0.18,2.9-0.55c0.94-0.36,1.79-0.87,2.54-1.51c0.76-0.64,1.4-1.4,1.91-2.27
			c0.52-0.88,0.86-1.82,1.01-2.8l2.63-16.77l0.12-0.79l0.04-0.25H42.53z M35.53,69.93l-1.08,6.87c-0.1,0.39-0.45,0.67-0.86,0.67
			c-0.01,0-12.41,0.01-12.93,0.01c-0.63,0-1.25-0.48-1.12-1.27c0-0.01,1-6.34,1-6.34c0.25-1.1,1.24-2.03,2.52-2.03
			c0.18,0,0.47,0.03,0.69,0.08c0.44,0.12,0.76,0.29,1.1,0.59c0.14,0.13,0.23,0.24,0.41,0.24c0.18,0,0.29-0.06,0.6-0.24
			c0.85-0.46,1.54-0.68,2.52-0.68h0.01c0.95,0,1.72,0.23,2.51,0.69c0.1,0.04,0.29,0.23,0.59,0.23c0.2,0,0.34-0.14,0.45-0.24
			c0.32-0.29,0.85-0.64,1.74-0.67c1.12,0,1.89,0.76,1.89,1.7C35.56,69.63,35.53,69.92,35.53,69.93z"/>
	</g>
	<g>
		<path class="st2" d="M160.44,82.58h-0.94h-17c-0.98,0-1.89-0.19-2.69-0.58c-0.79-0.37-1.46-0.89-2-1.53
			c-0.54-0.64-0.93-1.4-1.16-2.25c-0.23-0.85-0.27-1.79-0.12-2.77l0.88-5.58c0.15-0.98,0.49-1.91,0.98-2.77
			c0.5-0.85,1.13-1.61,1.87-2.25c0.74-0.64,1.57-1.15,2.48-1.53c0.92-0.38,1.89-0.57,2.87-0.57h11.53c0.98,0,1.89,0.19,2.69,0.57
			c0.79,0.37,1.46,0.89,2,1.53c0.54,0.64,0.93,1.39,1.16,2.25c0.23,0.86,0.27,1.79,0.12,2.77l-0.68,4.31l-0.15,0.94h-0.94H141.9
			l-0.05,0.34c-0.09,0.59,0.02,1.04,0.35,1.44c0.33,0.39,0.76,0.58,1.35,0.58h13.76c1.11,0.03,1.97,0.44,2.61,1.22
			c0.63,0.79,0.86,1.77,0.67,2.94L160.44,82.58L160.44,82.58z M157.73,70.06l0.03-0.18c0.09-0.59-0.02-1.05-0.36-1.46
			c-0.33-0.4-0.76-0.59-1.34-0.59h-13.02l-0.35,2.23H157.73z"/>
		<path class="st2" d="M134.04,82.59h-0.94h-17.6c-0.98,0-1.88-0.18-2.68-0.55c-0.79-0.36-1.47-0.87-2.01-1.51
			c-0.54-0.64-0.93-1.41-1.16-2.27c-0.23-0.87-0.27-1.8-0.11-2.78l0.88-5.62c0.15-0.98,0.48-1.91,0.99-2.77
			c0.5-0.85,1.12-1.61,1.87-2.25c0.74-0.64,1.58-1.15,2.49-1.51c0.92-0.37,1.88-0.55,2.85-0.55h17.6h0.94L137,63.71
			c-0.18,1.17-0.72,2.15-1.59,2.94c-0.89,0.79-1.88,1.19-2.95,1.19l-16.33-0.01l-1.19,7.6c-0.09,0.59,0.02,1.05,0.35,1.46
			c0.33,0.4,0.76,0.59,1.34,0.59l14.31,0.01c1.07,0,1.94,0.4,2.57,1.2c0.63,0.78,0.86,1.77,0.67,2.93L134.04,82.59L134.04,82.59z"/>
		<path class="st2" d="M171.84,57.66c-1.17,0-2.22,0.38-3.11,1.13c-0.91,0.76-1.46,1.7-1.63,2.8l-3.3,20.99h1.22
			c1.17,0,2.22-0.38,3.11-1.13c0.91-0.76,1.46-1.7,1.63-2.8l3.3-20.99H171.84z"/>
		<path class="st2" d="M179.85,57.66c-1.17,0-2.22,0.38-3.11,1.13c-0.91,0.76-1.46,1.7-1.63,2.8l-3.3,20.99h1.22
			c1.17,0,2.22-0.38,3.11-1.13c0.91-0.76,1.46-1.7,1.63-2.8l3.3-20.99H179.85z"/>
		<g>
			<path class="st2" d="M181.72,80.05c0-1.43,1.15-2.6,2.6-2.6c1.43,0,2.6,1.16,2.6,2.6c0,1.43-1.16,2.6-2.6,2.6
				C182.87,82.64,181.72,81.48,181.72,80.05z M186.23,80.05c0-1.16-0.8-1.98-1.91-1.98c-1.13,0-1.91,0.82-1.91,1.98
				c0,1.16,0.78,1.98,1.91,1.98C185.43,82.03,186.23,81.2,186.23,80.05z M185.6,81.46h-0.68l-0.62-1.19h-0.47v1.19h-0.59v-2.8h1.36
				c0.73,0,1.09,0.2,1.09,0.86c0,0.52-0.27,0.73-0.77,0.76L185.6,81.46z M184.61,79.86c0.32,0.01,0.53-0.07,0.53-0.42
				c0-0.38-0.4-0.35-0.67-0.35h-0.64v0.77H184.61z"/>
		</g>
	</g>
</g>
</svg>
