<?xml version="1.0" encoding="utf-8"?>
<!-- Generator: Adobe Illustrator 22.1.0, SVG Export Plug-In . SVG Version: 6.00 Build 0)  -->
<svg version="1.1" id="Capa_1" xmlns="http://www.w3.org/2000/svg" xmlns:xlink="http://www.w3.org/1999/xlink" x="0px" y="0px"
	 viewBox="0 0 612 118.4" style="enable-background:new 0 0 612 118.4;" xml:space="preserve">
<style type="text/css">
	.st0{fill:#4A4A49;}
	.st1{fill:#0099A8;}
</style>
<g>
	<path class="st0" d="M496.8,38.9c-3.3,6-5.1,12.9-5.1,20.3c0,7.3,1.8,14.2,5.1,20.3c5.4-5.1,8.8-12.3,8.8-20.3
		C505.6,51.2,502.3,44,496.8,38.9"/>
	<path class="st1" d="M515.9,16.5c-10.9,0-20.7,4.1-28.3,10.7c3.7,3.3,6.9,7.2,9.2,11.6c5-4.7,11.7-7.5,19-7.5
		c15.3,0,27.8,12.4,27.8,27.8c0,15.3-12.4,27.8-27.8,27.8c-7.4,0-14-2.9-19-7.5c-2.4,4.4-5.5,8.4-9.2,11.7
		c7.5,6.7,17.4,10.7,28.3,10.7c23.6,0,42.6-19.1,42.6-42.6C558.5,35.6,539.4,16.5,515.9,16.5"/>
	<polygon class="st1" points="357,27.2 376,27.2 348.5,72.5 348.5,91.2 332.4,91.2 332.4,72.5 304.8,27.2 323.5,27.2 340.4,54.4 	
		"/>
	<path class="st1" d="M88.9,27.2H53.5l0,64.1h36.2c20.6,0,24.5-13.1,24.5-31.9C114.3,40.6,110.3,27.2,88.9,27.2 M78.3,78.2H70V40
		l8.3,0c14.6,0,19.9,3.6,19.9,19.2C98.2,74.7,92.9,78.2,78.3,78.2"/>
	<path class="st1" d="M138.1,78.2V65h37.8V53.4h-37.8V40.1h37.8V27.2h-44c-5.9,0-9.7,3-9.7,9.9v44.4c0,6.9,3.7,9.8,9.7,9.8h44.1v-13
		H138.1z"/>
	<path class="st1" d="M237.8,27.1l-18.2,44.8l-18.2-44.8l-17.6,0L206.1,83c1.8,4.5,5.3,8.2,13.5,8.2c8.2,0,11.7-3.6,13.6-8.2
		L255,27.1H237.8z"/>
	<path class="st1" d="M279.2,78.2V27.2H263v54.3c0,6.9,3.5,9.8,9.4,9.8h44v-13H279.2z"/>
	<path class="st1" d="M433.4,27.2v41L408,31.1c-3.3-4.3-9.9-3.9-12.3-3.9c-6.1,0-11.7,1.1-11.8,9.3v54.7l15.8-0.1l0.4-42.3l26,37.3
		c3.4,5.1,7.3,5.1,11.7,5.1c9.3,0,11.7-5.1,11.7-9.4V27.2H433.4z"/>
</g>
</svg>
