<?xml version="1.0" encoding="utf-8"?>
<!-- Generator: Adobe Illustrator 25.4.1, SVG Export Plug-In . SVG Version: 6.00 Build 0)  -->
<svg version="1.1" id="Layer_1" xmlns="http://www.w3.org/2000/svg" xmlns:xlink="http://www.w3.org/1999/xlink" x="0px" y="0px"
	 viewBox="0 0 2551.18 850.39" style="enable-background:new 0 0 2551.18 850.39;" xml:space="preserve">
<style type="text/css">
	.st0{fill:#EF8F22;}
	.st1{fill:#00A5DB;}
</style>
<g>
	<g>
		<path class="st0" d="M506.51,377.44c0,137.05-88.64,205.57-265.9,205.57c-15.35,0-30.91-0.67-46.7-2.02
			c-4.17,12.81-11.47,19.22-21.9,19.22c-5.97,0-10.99-1.63-15.09-4.92c-4.1-3.27-6.14-7.21-6.14-11.83c0,2.82,2.53-14.63,7.6-52.37
			c5.06-37.73,7.59-77.15,7.59-118.24c0-58.21-3.5-114.03-10.5-167.48c-13.41-2.7-20.1-10.33-20.1-22.91
			c0-8.68,4.83-15.42,14.52-20.21l-0.44-3.35c0-0.44-0.09-1-0.23-1.68c-0.15-0.67-0.22-1.15-0.22-1.45
			c0-12.81,7.37-19.22,22.12-19.22c12.21,0,19.52,5.52,21.9,16.53c30.99-6.1,59.66-9.16,86.04-9.16
			c72.69,0,128.78,16.79,168.25,50.38C486.77,267.91,506.51,315.62,506.51,377.44z M458.92,379.79c0-49.27-15.42-86.9-46.26-112.88
			c-30.83-25.98-75.52-38.96-134.07-38.96c-20.85,0-47.22,3.06-79.1,9.16c7.6,58.8,11.39,117.22,11.39,175.28
			c0,43.31-2.75,85.07-8.26,125.26c7,0.6,16.76,0.89,29.27,0.89c66.73,0,116.34-7.29,148.81-21.87
			C432.85,493,458.92,447.37,458.92,379.79z"/>
		<g>
			<path class="st0" d="M506.39,374.3c0.01-4.98-0.01-0.75-0.03,0.21c-0.03,1.19-0.07,2.38-0.12,3.57
				c-0.09,2.35-0.22,4.69-0.37,7.04c-0.32,5.18-0.84,10.34-1.48,15.49c-1.11,8.98-2.79,17.88-4.98,26.65
				c-4.06,16.28-10.29,32.01-18.73,46.52c-16.84,28.97-42.82,50.98-72.58,65.89c-36.92,18.5-78.56,26.31-119.4,29.68
				c-27.58,2.28-55.39,2.45-83,0.72c-3.94-0.25-7.87-0.56-11.8-0.88c0.04,0-3.15,7.41-3.54,8.12c-2.55,4.6-6.47,8.14-11.39,10
				c-10.46,3.96-25.23-1.56-27.95-12.95c-0.07-0.76-0.14-1.51-0.21-2.27c0.23,5.12-0.21,14.9-0.09,21.56
				c0.01,0.29-0.07,2.92,0.29,1.26c0.42-1.93,0.67-3.91,0.97-5.86c1.44-9.47,2.72-18.96,4.01-28.45
				c4.09-29.97,7.42-59.92,8.91-90.14c3.2-64.65,1.39-130.04-4.66-194.48c-0.93-9.88-2-19.74-3.17-29.59
				c-0.29-2.44-0.59-4.88-0.9-7.32c-0.28-2.22,0.28-5.26-2.11-5.78c-3.73-0.81-7.24-2.32-10.39-4.47c-2.44-1.67-4.3-4-5.74-6.55
				c-0.74-1.31-1.21-2.75-1.64-4.18c-0.21-0.76-0.38-1.54-0.51-2.32c-1.73-8.82-1.4,23.65-0.08,14.72
				c1.15-7.8,7.62-13.03,14.19-16.44c0.94-0.49,0.12-10.77,0.12-11.79c0-3.84,0.38-7.97-0.12-11.79c-0.28-2.15-0.69-4.32-0.89-6.48
				c0.02,7.33,0.04,14.65,0.06,21.98c0.21-10.66,7.95-16.28,17.86-17.42c10.63-1.22,20.89,2.15,25.03,12.61
				c0.48,1.2,0.77,2.47,1.07,3.73c0,0.01,5.39-1.04,5.78-1.11c3.79-0.71,7.6-1.37,11.4-2c7.96-1.33,15.95-2.42,23.96-3.36
				c14.35-1.67,28.79-2.58,43.23-2.68c50.36-0.36,102.92,7.49,146.72,33.72c24.71,14.8,45.43,35.7,59.51,60.85
				c7.33,13.1,12.6,27.28,16.3,41.81c1.98,7.74,3.39,15.63,4.46,23.54c0.56,4.13,0.97,8.28,1.31,12.43
				c0.21,2.52,0.35,5.05,0.47,7.57c0.05,1.08,0.1,2.16,0.13,3.25c0.04,0.96,0.11,6.89,0.09,1.66c0.01,2.35,0.01,4.7,0.05,7.05
				c-0.01-0.83,0.03,2.82,0.09,1.19c0.18-4.83,0.1-9.68,0.08-14.51c-0.08-26.1-2-51.84-9.84-76.88
				c-6.88-21.97-18.34-42.28-33.64-59.48c-31.3-35.2-76.46-53.47-122.07-61.08c-46.51-7.76-94.14-5.39-140.36,2.98
				c-1.28,0.23-2.56,0.47-3.84,0.72c-1.9,0.36-3.63,1.73-4.17-0.55c-0.48-2-1.3-3.88-2.25-5.69c-1.77-3.34-4.72-5.76-8.05-7.41
				c-7.14-3.53-17.45-2.87-24.53,0.44c-6.66,3.12-8.77,10.16-8.91,16.98c-0.19,9.97-0.36,19.84,0.93,29.72c0-7.86,0-15.73,0-23.59
				c-4.99,2.59-9.32,5.81-12.2,10.73c-3.13,5.35-2.42,12.23-2.43,18.14c-0.03,11.6-1.94,25.15,8.42,33.07
				c1.93,1.48,4.21,2.46,6.46,3.32c1.27,0.49,2.61,0.81,3.92,1.15c2.21,0.56,1.61,1.83,1.88,3.96c1.02,7.95,1.94,15.92,2.8,23.89
				c1.73,16.07,3.11,32.17,4.2,48.29c4.28,63.04,3.61,125.47-4.82,188.23c-1.64,12.2-3.29,24.4-5.03,36.59
				c-0.66,4.6-0.99,9.48-2.2,13.98c-1.71,6.33-2.95,23.93,2.89,32.16c3.75,5.27,10.47,7.52,16.62,8
				c11.75,0.92,19.15-7.52,22.98-17.68c0.9-2.38,2.13-1.37,4.46-1.18c1.96,0.16,3.93,0.29,5.9,0.43c3.91,0.27,7.82,0.48,11.73,0.67
				c8.37,0.41,16.75,0.57,25.13,0.59c12.67,0.02,25.34-0.36,37.99-1.13c22.58-1.37,45.09-4.2,67.19-9.05
				c35.75-7.84,70.89-21.69,99.27-45.25c25.5-21.17,43.12-49.79,52.45-81.45c7.41-25.18,9.06-51.24,9.11-77.34
				c0.01-4.83,0.09-9.68-0.08-14.51c-0.06-1.63-0.1,2.01-0.09,1.19C506.41,369.6,506.4,371.95,506.39,374.3z"/>
			<path class="st0" d="M459.03,376.66c-0.09-25.76-2.21-51.08-12.21-75.11c-8.64-20.76-23.04-38.49-41.05-51.84
				c-39.31-29.15-93.09-35.61-140.63-33.16c-22.05,1.14-43.98,4.66-65.64,8.78c-0.81,0.15-0.3,21.27,0,23.59
				c11.83,92.06,15.66,184.81,3.13,276.95c-0.31,2.27-0.4,23.56,0,23.59c28.06,2.29,56.84,1.05,84.87-1.09
				c23.6-1.8,47.26-5.04,70.06-11.55c39.74-11.33,73.04-36.64,89.14-75.36c10.37-24.94,12.26-51.82,12.34-78.52
				c0.01-4.83,0.09-9.68-0.08-14.51c-0.06-1.63-0.11,2.01-0.09,1.19c-0.04,2.35-0.05,4.7-0.05,7.05c0.02-5.65-0.05-0.07-0.09,1.05
				c-0.05,1.51-0.13,3.02-0.21,4.54c-0.18,3.3-0.46,6.6-0.79,9.89c-0.61,6.08-1.56,12.12-2.75,18.12
				c-2.12,10.67-5.39,21.11-9.75,31.08c-8.18,18.67-21.03,34.86-37.13,47.31c-35.19,27.21-82.54,33.46-125.56,36.49
				c-26.4,1.86-53.49,2.88-79.9,0.73c0,7.86,0,15.73,0,23.59c7.27-53.44,8.85-107.18,8.26-161.05
				c-0.6-54.53-4.43-108.98-11.38-163.07c0,7.86,0,15.73,0,23.59c52.82-10.05,107.77-14.39,159.96,1.61
				c21.1,6.47,40.94,16.93,57.32,31.81c16.97,15.41,28.66,35.52,35.24,57.36c2.13,7.07,3.62,14.32,4.75,21.61
				c0.55,3.58,0.95,7.18,1.3,10.78c0.24,2.51,0.4,5.03,0.54,7.55c0.04,0.74,0.23,7.57,0.21,3.3c0.01,2.35,0.01,4.7,0.05,7.05
				c-0.01-0.83,0.03,2.82,0.09,1.19C459.12,386.34,459.05,381.49,459.03,376.66z"/>
		</g>
	</g>
	<g>
		<path class="st1" d="M717.44,316.22c0,5.66-1.72,10.42-5.14,14.3c-3.43,3.88-7.52,5.8-12.29,5.8c-3.57,0-8.86-2.6-15.86-7.82
			c-7-5.21-13.34-7.82-18.99-7.82c-14.16,0-25.63,6.22-34.42,18.65c-8.79,12.44-13.19,29.24-13.19,50.38V419
			c0,32.62-3.43,58.53-10.27,77.76c-6.4,18.03-14.67,27.03-24.8,27.03c-13.55,0-20.33-6.7-20.33-20.11c0-2.68,2.09-12.55,6.25-29.6
			c4.18-17.06,6.25-33.1,6.25-48.16c0-41.71-5.95-75.08-17.88-100.1c-0.29-0.74-4.39-8.27-12.28-22.58
			c-4.03-7.29-6.03-13.1-6.03-17.42c0-4.77,2.3-9.24,6.93-13.41c4.61-4.17,9.6-6.26,14.97-6.26c15.79,0,28.9,19.37,39.32,58.1
			c15.5-29.79,38.07-44.69,67.71-44.69c14.9,0,26.96,3.46,36.21,10.39C712.82,296.89,717.44,305.64,717.44,316.22z"/>
	</g>
	<g>
		<path class="st1" d="M970.38,348.17c0,15.49-5.37,26.96-16.09,34.41c-4.76,3.28-19.88,7.52-45.36,12.73
			c-33.82,7.01-62.64,10.5-86.47,10.5c-10.88,0-23.99-0.74-39.33-2.23c0,56.16,21.37,84.24,64.12,84.24
			c11.77,0,22.43-3.35,31.96-10.06c4.76-3.28,13.33-11.25,25.7-23.91c4.47-4.61,9.16-6.92,14.07-6.92c6.26,0,11.65,2.34,16.21,7.04
			c4.54,4.69,6.81,10.46,6.81,17.31c0,5.67-2.15,10.87-6.48,15.64c-25.62,28.01-55.64,42.01-90.05,42.01
			c-71.2,0-106.8-41.19-106.8-123.56c0-42.45,11.32-79.1,33.97-109.93c25.78-35.01,57.65-52.51,95.63-52.51
			c29.65,0,54.08,9.91,73.29,29.72C960.77,292.46,970.38,317.63,970.38,348.17z M925.91,350.85c-0.89-20.7-6.29-37.09-16.19-49.16
			c-9.9-12.07-22.31-18.1-37.2-18.1c-19.37,0-36.42,6.93-51.17,20.78c-15.19,14.01-26.51,33.82-33.97,59.44
			c10.58,1.19,21.83,1.79,33.75,1.79C850.02,365.6,884.95,360.68,925.91,350.85z"/>
	</g>
	<g>
		<path class="st1" d="M1200.98,403.58c0,40.82-5.97,83.49-17.88,128.03c-5.97,22.35-14.83,33.52-26.59,33.52
			c-12.06,0-18.09-6.85-18.09-20.56c0-3.12,0.14-5.44,0.45-6.92c-15.19,8.19-30.91,12.29-47.15,12.29
			c-28.75,0-51.21-8.12-67.37-24.36c-16.16-16.23-24.25-38.95-24.25-68.15c0-29.64,8.72-53.14,26.15-70.49
			c17.43-17.36,40.59-26.03,69.49-26.03c25.18,0,46.41,8.41,63.69,25.25c-2.84-58.84-24.66-88.27-65.48-88.27
			c-9.09,0-18.81,2.72-29.15,8.16c-10.36,5.44-17.09,8.15-20.23,8.15c-5.07,0-9.62-2.08-13.63-6.25c-4.03-4.17-6.04-8.94-6.04-14.31
			c0-8.94,6.48-17.21,19.44-24.8c13.85-8.19,30.39-12.29,49.6-12.29C1165.3,256.56,1200.98,305.56,1200.98,403.58z M1155.62,456.09
			c0-37.84-17.79-56.75-53.4-56.75c-39.03,0-58.55,18.77-58.55,56.3c0,37.84,19.37,56.75,58.1,56.75c16.84,0,30.02-4.94,39.55-14.86
			C1150.86,487.63,1155.62,473.82,1155.62,456.09z"/>
	</g>
	<g>
		<path class="st0" d="M1528.07,463.67c0,114.11-13.55,171.16-40.67,171.16c-10.42,0-15.64-6.55-15.64-19.66
			c0-0.15,2.53-17.16,7.6-51.06c5.07-33.88,7.6-67.66,7.6-101.33c0-56.15-13.26-84.23-39.78-84.23c-23.24,0-38.5,14.16-45.81,42.46
			c-5.51,21.76-8.26,64.5-8.26,128.25c0,9.84,0.74,20.67,2.22,32.52c1.5,11.84,2.25,18.81,2.25,20.89c0,14.74-7,22.11-21.01,22.11
			c-16.84,0-25.25-26.88-25.25-80.66c0-22.64,0.85-46.29,2.57-70.95c1.72-24.65,2.57-37.87,2.57-39.66
			c0-22.04-11.62-33.07-34.85-33.07c-21.76,0-37.54,9.76-47.37,29.28c-9.54,18.91-14.3,48.86-14.3,89.82
			c0,26.36,0.75,50.91,2.23,73.62c1.49,22.73,2.24,32.3,2.24,28.71c0,5.66-2.06,10.36-6.15,14.09c-4.1,3.71-9.35,5.58-15.76,5.58
			c-13.26,0-21.45-12.66-24.57-37.99c-1.05-7.29-1.57-26.22-1.57-56.75c0-63.91,5.21-124.91,15.64-183.01
			c3.42-19.06,6.85-31.72,10.27-37.98c4.03-7.6,10.5-11.4,19.44-11.4c14,0,21,7.45,21,22.34l-10.06,50.5
			c12.81-18.03,31.13-27.04,54.98-27.04c19.06,0,34.04,7.9,44.91,23.69c18.91-31.13,45.58-46.7,79.99-46.7
			C1502.91,337.2,1528.07,379.36,1528.07,463.67z"/>
	</g>
	<g>
		<path class="st1" d="M1816.06,376.54c0,43.8-12.82,78.7-38.44,104.68c-25.63,26-59.81,39-102.57,39
			c-35.45,0-63.23-12.11-83.34-36.32c-20.11-24.2-30.17-57.83-30.17-100.89c0-45.28,12.13-80.44,36.42-105.46
			c23.83-24.58,56.9-36.88,99.21-36.88c35.45,0,64.12,12.45,86.03,37.32C1805.1,302.88,1816.06,335.73,1816.06,376.54z
			 M1771.59,376.99c0-29.95-7.26-53.37-21.78-70.28c-14.54-16.9-34.38-25.36-59.56-25.36c-56.16,0-84.23,33.74-84.23,101.22
			c0,31.13,6.09,55.08,18.31,71.83c12.22,16.76,29.72,25.14,52.51,25.14c29.5,0,52.66-9.02,69.5-27.03
			C1763.17,434.5,1771.59,409.32,1771.59,376.99z"/>
	</g>
	<g>
		<path class="st1" d="M2172.44,383.47c0,114.11-13.56,171.16-40.66,171.16c-10.44,0-15.65-6.55-15.65-19.66
			c0-0.15,2.53-17.16,7.6-51.06c5.06-33.89,7.6-67.66,7.6-101.33c0-56.16-13.26-84.24-39.77-84.24c-23.24,0-38.51,14.15-45.81,42.45
			c-5.52,21.75-8.28,64.51-8.28,128.26c0,9.84,0.74,20.67,2.24,32.52c1.49,11.84,2.23,18.81,2.23,20.89c0,14.74-7,22.11-21,22.11
			c-16.83,0-25.25-26.88-25.25-80.66c0-22.63,0.85-46.29,2.57-70.94c1.71-24.65,2.57-37.88,2.57-39.66
			c0-22.05-11.62-33.07-34.86-33.07c-21.75,0-37.54,9.76-47.37,29.27c-9.53,18.92-14.31,48.86-14.31,89.83
			c0,26.36,0.75,50.91,2.24,73.62c1.48,22.72,2.23,32.29,2.23,28.71c0,5.65-2.04,10.35-6.14,14.07c-4.1,3.72-9.35,5.58-15.75,5.58
			c-13.26,0-21.45-12.66-24.58-37.98c-1.04-7.29-1.56-26.22-1.56-56.75c0-63.91,5.21-124.91,15.63-183.01
			c3.43-19.06,6.86-31.73,10.29-37.98c4.02-7.6,10.49-11.4,19.43-11.4c14.01,0,21.01,7.45,21.01,22.34l-10.05,50.49
			c12.81-18.02,31.13-27.04,54.96-27.04c19.07,0,34.04,7.9,44.91,23.69c18.91-31.14,45.58-46.7,79.99-46.7
			C2147.27,257,2172.44,299.16,2172.44,383.47z"/>
	</g>
	<g>
		<path class="st1" d="M2304.22,386.61c32.64,2.14,58.19,11.21,76.64,27.23c18.46,16.02,27.69,32.57,27.69,49.65
			c0,9.77-2.44,19.6-7.33,29.51c-4.88,9.92-11.82,18.92-20.81,27c-9,8.09-19.91,14.58-32.72,19.45
			c-12.81,4.87-27.31,7.33-43.47,7.33c-17.4,0-32.57-2.82-45.54-8.47c-12.97-5.64-23.64-12.59-32.03-20.82
			c-8.39-8.23-14.57-17.23-18.54-27c-3.96-9.77-5.94-18.76-5.94-27c0.29-4.58,1.21-8.25,2.74-10.99c1.52-2.74,3.89-5.33,7.09-7.78
			c3.21-2.44,8.02-3.66,14.42-3.66c4.88,0,9.84,2.14,14.88,6.4c5.03,4.27,7.54,8.86,7.54,13.73c0,14.64,5.79,25.56,17.39,32.72
			c11.59,7.16,24.26,10.75,37.99,10.75c13.73,0,24.16-1.83,31.35-5.49c7.16-3.65,12.42-7.84,15.79-12.58
			c3.35-4.72,5.33-9.38,5.96-13.96c0.6-4.57,0.91-7.62,0.91-9.15c0-14.65-7.1-23.95-21.27-27.92c-14.19-3.96-29.6-7.62-46.22-10.98
			c-16.63-3.35-31.81-8.93-45.54-16.71c-13.73-7.78-20.13-22.81-19.22-45.07c0-11.9,3.13-21.73,9.38-29.52
			c6.24-7.78,13.57-13.95,21.96-18.53c8.39-4.57,16.94-7.93,25.63-10.07c8.7-2.13,15.79-3.2,21.29-3.2
			c21.04,0,39.73,6.02,56.06,18.07c16.31,12.06,24.63,26.47,24.94,43.25c0,6.4-2.37,11.06-7.09,13.95
			c-4.73,2.9-9.92,4.35-15.55,4.35c-5.65,0-10.98-1.52-16.02-4.57c-5.04-3.05-8.02-7.62-8.93-13.73
			c-0.91-5.79-4.88-10.75-11.9-14.87c-7.02-4.12-14.19-6.18-21.5-6.18c-5.5,0-11.98,1.68-19.45,5.03
			c-7.48,3.36-11.21,8.7-11.21,16.02c0,5.49,1.52,9.84,4.58,13.04c3.04,3.2,6.48,5.65,10.3,7.32
			C2292.24,384.85,2297.5,385.99,2304.22,386.61z"/>
	</g>
</g>
</svg>
