<?xml version="1.0" encoding="utf-8"?>
<!-- Generator: Adobe Illustrator 25.0.1, SVG Export Plug-In . SVG Version: 6.00 Build 0)  -->
<svg version="1.1" id="Capa_1" xmlns="http://www.w3.org/2000/svg" xmlns:xlink="http://www.w3.org/1999/xlink" x="0px" y="0px"
	 viewBox="0 0 1000 300" style="enable-background:new 0 0 1000 300;" xml:space="preserve">
<style type="text/css">
	.st0{fill:url(#SVGID_1_);}
	.st1{fill:#FFFFFF;}
	.st2{fill:#616063;}
	.st3{opacity:0.82;clip-path:url(#SVGID_3_);}
	.st4{fill:url(#SVGID_4_);}
</style>
<g>
	<linearGradient id="SVGID_1_" gradientUnits="userSpaceOnUse" x1="122.7522" y1="92.2216" x2="100.8316" y2="200.764">
		<stop  offset="0" style="stop-color:#F89732"/>
		<stop  offset="1" style="stop-color:#ED5030"/>
	</linearGradient>
	<polygon class="st0" points="214.8,152.8 145.6,193.2 133.2,200.5 28.2,261.7 28.2,43.9 133.2,105.2 145.6,112.4 	"/>
	<g>
		<path class="st1" d="M117.7,106c-0.2-0.3-0.4-0.4-0.7-0.4c-0.1,0-0.3,0-0.4,0.1c-0.6,0.2-1,0.6-1.4,0.9c-0.3,0.2-0.5,0.4-0.7,0.4
			h0c-0.1,0-0.1,0-0.2-0.1c-0.1-0.2-0.2-0.5-0.3-0.8c-0.1-0.6-0.3-1.2-0.7-1.2c0,0-0.1,0-0.1,0c-0.1,0-0.3,0.1-0.6,0.2
			c-0.8,0.2-2,0.6-2.5,0.6c-0.2,0-0.2,0-0.2-0.1c0,0,0-0.1,0.1-0.2c0.2-0.3,0.9-0.5,1.5-0.7c0.8-0.3,1.5-0.5,1.6-0.9
			c0-0.2-0.1-0.4-0.4-0.7c-0.5-0.4-0.8-1-1.1-1.6c-0.4-0.9-0.8-1.7-2.1-1.7c-0.2,0-0.5,0-0.8,0.1c-1.8,0.4-3.1,1.3-4.4,2.2
			c-0.7,0.5-1.4,1-2.1,1.4c-0.5,0.3-1.1,0.5-1.6,0.7c-1.4,0.6-2.7,1.2-3.4,2c-1.1,1.1-2.2,2.3-2,3.4c0,0.3,0.2,0.6,0.3,0.9
			c0.3,0.6,0.5,1.2-0.7,1.8c-0.1,0.1-0.2,0.1-0.3,0.2c-1.2,0.7-2.2,1.2-2.2,1.8c0,0.2,0.2,0.4,0.5,0.6c1.3,0.7,1.2,1.2,1,1.7
			c-0.2,0.5,0,1.5,0.7,1.7c0.4,0.1,0.6,0.2,0.8,0.2c0.1,0,0.1,0,0.1,0c0.4,0,0.7-0.1,0.9-0.2c0.2-0.1,0.5-0.1,0.7-0.1
			c0.5,0,0.9,0.4,1.6,2.3c0.5,1.4,1,2.4,1.4,3.1c0.5,1,0.8,1.6,0.8,2.4c0,0.6-0.2,1.3-0.3,2.1c-0.3,1.1-0.5,2.3-0.2,3.2
			c0.5,1.4,2.8,5.8,3.8,5.8c0.1,0,0.1,0,0.2,0c0.5-0.3,0.8-1.3,1.2-2.3c0.3-0.9,0.7-1.9,1.1-2.3c0.3-0.3,0.6-0.6,0.8-1
			c0.6-0.8,1.4-1.8,2.5-2.1c1.5-0.4,3.7-0.9,3.9-3.5c0-0.6,0.1-1.3,0.2-2.2c0.3-2.7,0.6-6.5,0.2-9.3c-0.3-2,1.4-4,2.6-5.3
			c0.3-0.4,0.7-0.8,0.8-1C117.9,107.4,118,106.5,117.7,106z"/>
		<path class="st1" d="M101.3,175.1c-0.6,0-1.8-0.5-2.9-0.9c-0.3-0.1-0.7-0.3-1-0.4c-1-0.4-1.3-1-1.5-1.8c0-0.1-0.1-0.2-0.1-0.4
			c-0.1-0.2-0.2-0.4-0.5-0.6c0,0,0,0,0,0c0,0,0,0,0,0c0,0,0,0,0,0l0,0c-0.3-0.3-0.8-0.5-1.3-0.8c-0.6-0.3-1.2-0.5-1.7-0.6
			c0,0,0,0,0,0c-0.1,0-0.2,0-0.3-0.1c-0.3,0-0.7-0.3-1.2-0.7c0,0,0,0,0,0c-0.7-0.5-1.6-1.1-2.5-1.1c-0.1,0-0.2,0-0.3,0
			c-0.3,0-0.5,0.1-0.7,0.1c-0.6,0-1-0.2-1.3-0.4c-0.1-0.1-0.3-0.2-0.4-0.2c0,0-0.5-0.2-1.3-0.2c0,0,0,0,0,0c-0.1,0-0.1,0-0.2,0
			c-0.8,0-1.4,0.6-1.7,1c0,0.1-0.1,0.1-0.1,0.1c0,0-0.1,0.1-0.2,0.1c-0.2,0.2-0.4,0.4-0.6,0.6c0,0,0,0,0-0.1c0,0-0.6-0.6-1.3-0.6
			c-0.1,0-0.2,0-0.3,0c-0.3,0.1-0.6,0.1-0.8,0.1h0c-0.3,0-0.5-0.1-0.8-0.2c0,0,0,0,0,0l0,0c0,0-0.1,0-0.1-0.1
			c-0.3-0.1-0.4-0.4-0.4-0.7c0,0,0,0,0,0c0,0,0,0,0,0c0-0.3,0-0.7,0.1-1.2l0-0.1c0.1-0.4,0.1-0.7,0-0.9c-0.1-0.3-0.3-0.5-0.6-0.6
			l0,0c-0.1-0.1-0.3-0.1-0.5-0.1c-0.3,0-0.6,0-0.9,0.1c-0.2,0-0.4,0.1-0.5,0.1c-0.1,0-0.1,0-0.2-0.1l0,0c-0.1-0.1-0.1-0.3,0-0.6
			c0-0.1,0-0.2,0-0.3c0-0.1,0-0.3,0.1-0.4c0,0,0,0,0,0c0,0,0,0,0,0c0.1-0.3,0.3-0.7,0.5-1.1c0.1-0.2,0.2-0.4,0.3-0.6
			c0-0.1,0-0.2,0-0.2c-0.1-0.1-0.2-0.1-0.4-0.1c-0.2,0-0.4,0-0.6,0.1c-0.2,0-0.4,0.1-0.6,0.1c-0.2,0-0.3,0-0.4,0.1
			c-0.1,0.1-0.1,0.3-0.1,0.5c0,0.1,0,0.1,0,0.2c0,0.3-0.4,0.6-0.8,0.8c-0.1,0-0.1,0.1-0.2,0.1c-0.1,0.1-0.4,0.1-0.7,0.1h0
			c-0.5,0-1-0.1-1.3-0.3c-0.4-0.2-0.6-1-0.8-1.6c0-0.1-0.1-0.3-0.1-0.4c-0.2-0.5,0.1-1.9,0.2-2.1c0,0,0-0.1,0-0.1c0,0,0,0,0,0
			c0,0,0,0,0,0c0,0,0-0.1,0-0.2c0-0.3-0.1-0.6,0.4-1.2c0.5-0.6,1.2-0.8,2.1-0.8c0.2,0,0.4,0,0.7,0.1c0.2,0,0.3,0,0.4,0
			c0.3,0,0.5-0.1,0.6-0.2c0.1-0.1,0.1-0.1,0.2-0.2c0.1,0,0.2-0.1,0.4-0.1c0.3,0,0.7,0,1.1,0.1c0.4,0,0.9,0.1,1.1,0.1l0,0
			c0.5,0,0.6,0.6,0.8,1.1c0,0.1,0.1,0.2,0.1,0.3c0.2,0.7,0.6,1.5,1.1,1.6c0,0,0,0,0,0c0.1,0,0.1,0,0.2-0.1c0.3-0.4-0.2-2.1-0.4-2.8
			c-0.2-0.7-0.1-1,0-1.3c0-0.1,0.1-0.2,0.1-0.2c0-0.2,0.8-0.7,1.6-1.2c0.2-0.2,0.5-0.3,0.7-0.5c0.8-0.6,0.6-1.1,0.4-1.6
			c0-0.1-0.1-0.2-0.1-0.3c-0.1-0.2-0.1-0.3-0.1-0.3c0,0,0,0,0,0c0,0,0.1,0.1,0.1,0.1c0.1,0,0.1,0.1,0.1,0.1c0.1,0,0.2-0.1,0.4-0.4
			c0.2-0.3,0.6-1.4,0.6-1.5c0.2-0.4,0.4-0.5,0.9-0.6c0.2,0,0.3-0.1,0.5-0.2c0.4-0.1,0.5-0.3,0.6-0.4c0.1-0.2-0.1-0.4-0.2-0.5l0,0
			c-0.1-0.2-0.1-0.4,0-0.6c0-0.1,0.1-0.2,0.1-0.3c0,0,0,0,0,0c0,0,0,0,0,0c0,0,0,0,0,0c0.2-0.2,0.9-0.5,1.6-0.7c0,0,0,0,0,0
			c0,0,0,0,0,0c0.5-0.2,0.9-0.3,1.1-0.5c0.1-0.1,0.2-0.1,0.2-0.1c0,0.1-0.2,0.3-0.4,0.4c-0.3,0.2-0.5,0.7-0.4,1.1
			c0,0.1,0.1,0.1,0.2,0.1c0.2,0,0.5-0.3,0.8-0.5c0.1-0.1,0.2-0.2,0.3-0.2c0.1,0,0.2-0.1,0.3-0.2c0.4-0.2,0.9-0.5,1.5-0.9
			c0.3-0.2,0.4-0.3,0.4-0.5c0-0.3-0.3-0.4-0.5-0.6c0,0,0,0-0.1,0c0,0-0.1,0-0.1,0c-0.1,0-0.3,0.1-0.5,0.3c-0.2,0.1-0.4,0.3-0.5,0.3
			c0,0,0,0,0,0c-0.1,0-0.2-0.1-0.4-0.2c-0.1-0.1-0.3-0.2-0.5-0.3c-0.3-0.1-0.3-0.2-0.2-0.5c0-0.1,0-0.2,0-0.3c0-0.5,0.1-1,0.1-1.2
			c0,0,0-0.1-0.2-0.1c-0.3,0-1.3,0.4-1.7,0.6c-0.3,0.2-0.6,0.3-0.7,0.3c0,0-0.1,0-0.1,0c0.1-0.1,0.9-0.7,1.5-1.1
			c0.2-0.1,0.3-0.2,0.5-0.3c0.2-0.2,0.6-0.3,1.2-0.3c0.3,0,0.7,0,1,0.1c0.3,0,0.6,0,0.9,0c0.8,0,1.9-1.2,2.5-1.9
			c0.1-0.1,0.2-0.3,0.1-0.5c-0.1-0.4-0.6-0.8-0.9-1.1l-0.1-0.1c-0.2-0.1-0.3-0.3-0.3-0.4c-0.1-0.2-0.3-0.4-0.5-0.5
			c-0.5-0.2-1.2-1.7-1.5-2.2c-0.2-0.4-0.4-0.9-0.6-1.4c-0.3-0.6-0.6-1.2-0.8-1.8c0,0-0.1-0.1-0.1-0.1c-0.1,0-0.2,0-0.2,0.1
			c-0.1,0.1-0.1,0.2-0.2,0.4c-0.3,0.5-0.7,1.2-1.2,1.3c-0.6,0.1-0.9-0.4-1-1.5c0-0.2,0-0.3,0-0.5c0-0.3,0-0.5-0.4-0.6
			c-0.3-0.1-0.5-0.4-0.8-0.8c-0.2-0.3-0.4-0.6-0.7-0.8c-0.2-0.2-0.4-0.2-0.6-0.2c-0.1,0-0.2,0-0.3,0c-0.1,0-0.2,0-0.3,0
			c-0.2,0-0.4,0-0.6-0.1c-0.1,0-0.2-0.1-0.3-0.1c-0.5,0-0.5,0.7-0.5,1.2c0,0.1,0,0.2,0,0.3c0,0.3,0,0.5,0.1,0.7
			c0.1,0.3,0.2,0.5,0.1,1.1c0,0.3-0.1,0.5-0.2,0.7c-0.1,0.4-0.2,0.6,0.3,1.3c0.3,0.4,0.4,0.9,0.3,1.4c-0.1,0.5-0.4,1-0.8,1.3
			c-0.4,0.2-0.6,0.4-0.7,0.6c0,0.2,0.1,0.4,0.3,0.7c0.3,0.5,0.2,1.3,0,1.8c-0.1,0.3-0.3,0.4-0.5,0.4c-0.5,0-1-1.9-1.3-3.2
			c-0.1-0.6-1.1-0.9-2-1.1c-0.4-0.1-0.7-0.2-1-0.3c-1-0.4-2.7-1.9-3.2-2.6c-0.5-0.7-0.4-1.1-0.3-1.6c0-0.1,0-0.2,0.1-0.3
			c0.1-0.7,0.8-1.8,1.1-2.1c0.3-0.3,0.8-0.5,0.8-0.5c0,0,0,0,0,0c0.1-0.1,0.1-0.2,0.1-0.3c0-0.2-0.1-0.3-0.2-0.4
			c0,0-0.1-0.1-0.1-0.1c0,0,0,0,0,0c0,0,0,0,0.1,0c0,0,0.1,0,0.1,0c0.1,0,0.2,0,0.3,0c0.1,0,0.2-0.1,0.2-0.2
			c0.1-0.1,0.2-0.2,0.5-0.2c0.5,0,0.7-0.5,0.8-0.9c0-0.1,0.1-0.2,0.1-0.3c0.1-0.2,0.1-0.3,0.1-0.3c0-0.1-0.1-0.1-0.1-0.1
			c0,0,0,0-0.1,0c0,0-0.1,0-0.1,0c-0.1,0-0.3-0.1-0.6-0.3c-0.1-0.1-0.3-0.1-0.4-0.2c-0.1,0-0.1-0.1-0.1-0.1c0.1,0,0.3,0.1,0.5,0.2
			c0.3,0.1,0.4,0.2,0.6,0.2c0.1,0,0.2,0,0.3-0.1c0,0,0,0,0.1,0c0.1,0,0.3-0.2,0.3-0.3c0.1-0.2,0.2-0.5,0.1-0.8c0-0.1,0-0.1,0-0.2
			c0-0.1,0-0.1,0-0.2c0,0,0.1,0,0.1,0c0,0,0.1,0,0.2,0c0.2,0.1,0.4,0.1,0.6,0.1c0.2,0,0.3,0,0.5-0.1c0.5-0.2,0.8-0.5,1.2-1.2
			c0.3-0.4,0-0.8-0.2-1.2c-0.1-0.2-0.2-0.4-0.2-0.6c0-0.1,0-0.1,0.1-0.2c0.1-0.4,0.2-0.8-0.3-1.5c-0.2-0.3-0.5-0.4-0.8-0.4
			c-0.5,0-0.9,0.3-1,0.5c-0.1,0.2,0,0.4,0.1,0.7c0.1,0.1,0.1,0.3,0.1,0.3c-0.1,0-0.2,0.2-0.3,0.6c-0.1,0.4-0.3,0.8-0.5,1.2
			c-0.1,0.2-0.3,0.3-0.4,0.1c-0.2-0.2-0.3-0.7-0.3-1.2c0.1-0.7,0-0.8-0.5-1.3c-0.1-0.1-0.2-0.1-0.2-0.1c-0.2,0-0.3,0.3-0.3,0.7
			c0,0.2-0.1,0.4-0.1,0.6c0,0.1-0.1,0.1-0.1,0.1c-0.1,0-0.1-0.5-0.1-1.1c0-0.5-0.2-0.5-0.5-0.6c-0.1,0-0.1,0-0.2,0
			c-0.4-0.1-0.2-0.7-0.1-1.2l0-0.1c0.1-0.6-0.6-1.8-1.2-2.4c-0.1-0.1-0.3-0.3-0.3-0.3c0,0,0,0,0.1,0c0.1,0,0.2-0.1,0.3-0.3
			c0.2-0.5,0.2-0.7,0.1-1.1c0-0.1,0-0.1,0-0.1c0,0,0,0,0,0c0,0,0.1,0,0.1,0c0.1,0,0.4,0.1,0.6,0.1c0.5,0,0.6-0.1,0.7-0.7
			c0.1-0.2,0.1-0.5,0.3-0.8c0.2-0.7,0.2-0.9,0.2-1c0-0.1-0.1-0.1-0.2-0.1c0,0-0.1,0-0.1,0c-0.1,0-0.2,0-0.2,0
			c-0.1,0-0.2-0.1-0.3-0.1c-0.2-0.1-0.4-0.1-1-0.1h0c-0.7,0-0.7,0.7-0.8,1.6c0,0.2,0,0.4-0.1,0.7c0,0.3-0.1,0.5,0,0.8
			c0,0.1,0,0.3,0,0.4c0,0.2,0.1,0.4,0,0.8c0,0,0,0,0,0c0,0.1,0,0.2,0,0.3c0,0.3-0.1,0.5-0.1,0.7c-0.1,0.6-0.2,1.1-0.2,1.9
			c0,0.8,0.4,1,0.8,1.2c0.1,0.1,0.3,0.1,0.4,0.2c0,0,0,0,0,0c0,0,0,0,0,0c0,0,0.1,0,0.1,0.1c0.2,0.2,0.3,0.5,0.2,0.8
			c0,0.3-0.2,0.5-0.3,0.6c-0.8,0.4-0.8,0.5-0.7,1.2c0,0.1,0,0.1,0,0.2c0,0,0,0,0,0.1c-0.1-0.2-0.3-0.8-0.3-1.2
			c0-0.2-0.1-0.3-0.3-0.4c0,0,0,0,0,0c0.2-0.1,0.3-0.2,0.4-0.3c0.1-0.2,0-0.4-0.1-0.6c-0.3-0.5-0.6-0.9-0.7-1.1
			c-0.2-0.2-0.3-0.3-0.4-0.3c-0.1,0-0.1,0-0.1,0c0,0,0,0,0,0c0,0.1-0.1,0.3-0.1,0.4c0,0.2,0,0.5-0.2,0.6l0,0
			c-0.1,0.1-0.3,0.2-0.3,0.3c0,0.1,0,0.2,0.2,0.3c0.1,0,0.1,0.1,0.2,0.1c0.2,0.2,0.5,0.4,0.8,0.5c0,0-0.1,0-0.1,0c0,0-0.1,0-0.1,0
			c-0.1,0-0.2,0-0.3,0c-0.3,0-0.3,0.2-0.4,0.5c0,0.2-0.1,0.4-0.2,0.4c-0.1,0-0.2,0.1-0.4,0.1c-0.3,0-0.7-0.1-1.3-0.2
			c-0.1,0-0.3,0-0.4-0.1c-0.9-0.2-1.2-0.6-1.3-0.9c0-0.1-0.1-0.2-0.1-0.2c-0.1-0.1-0.1-0.1-0.3-0.1c-0.4,0-1.1,0.6-1.2,0.7
			c-0.1,0.1-0.1,0.2,0,0.4c0.1,0.1,0.2,0.3,0.1,0.7c0,0.2-0.1,0.2-0.2,0.2c-0.2,0-0.5-0.4-0.7-0.6l-0.1-0.1
			c-0.1-0.1-0.2-0.1-0.4-0.1c-0.3,0-0.6,0.1-1,0.2c-0.4,0.1-0.9,0.2-1.2,0.2c-0.3,0-0.4-0.1-0.4-0.1c0-0.1,0.2-0.3,0.6-0.5
			c0.1-0.1,0.2-0.1,0.2-0.2c0,0,0,0,0-0.1c0.3,0.3,0.5,0.4,0.8,0.4c0.2,0,0.3,0,0.5-0.1c0.4-0.2,0.8-0.3,1.3-0.5
			c0.9-0.4,1.8-0.8,2.2-0.8c0.1,0,0.3,0,0.6,0.1c0.3,0,0.6,0.1,0.9,0.1c0.3,0,0.5-0.1,0.6-0.3c0.1-0.2,0.1-0.5-0.1-0.8
			c-0.3-0.7-0.7-1.2-1-1.5c-0.3-0.4-0.6-0.8-0.7-1.4c-0.1-0.3-0.1-0.9-0.1-1.5c0-0.2,0-0.4,0-0.7c0-1.2-0.1-2-0.6-2
			c-0.1,0-0.2,0.1-0.4,0.2c-0.4,0.4-0.8,0.9-1,1.3c-0.3,0.4-0.5,0.8-0.8,0.8c-0.1,0-0.2,0-0.4-0.1l-0.2-0.1
			c-0.7-0.5-1.5-1.1-2.2-1.1c-0.2,0-0.3,0-0.4,0.1c-0.7,0.4-1.4,1.1-1.4,1.1c0,0,0,0,0,0c-0.3,0.6-0.5,1.4-0.3,1.8
			c0.1,0.1,0.1,0.2,0.2,0.2c0.2,0.1,0.2,0.3,0.2,0.6c0,0.2,0,0.4,0,0.5c0.1,0.3,0.6,0.4,1,0.4c0.1,0,0.3,0,0.4,0c0.1,0,0.3,0,0.4,0
			c0.6,0,1.2,0.2,1.2,0.4c0,0,0,0.2-0.6,0.3c-0.1,0-0.3,0.1-0.4,0.1c-0.8,0.2-1.4,0.3-1.4,0.6c0,0.2,0.1,0.3,0.3,0.6
			c0.3,0.2,0.5,0.6,0.7,0.9c0.1,0.2,0.2,0.3,0.3,0.5c-0.1-0.1-0.2-0.1-0.3-0.2l-0.1-0.1c-0.3-0.2-0.5-0.2-0.8-0.2
			c-0.3,0-0.5-0.1-0.9-0.2c-0.6-0.3-1.1-0.6-1.5-0.8l0,0c-0.3-0.2-0.7-0.4-1-0.4c-0.2,0-0.3,0.1-0.4,0.2c-0.1,0.2-0.1,0.2-0.2,0.2
			c-0.1,0-0.2-0.1-0.3-0.6c-0.1-0.2-0.2-0.3-0.3-0.3c-0.2,0-0.3,0.3-0.5,0.6c-0.1,0.1-0.1,0.2-0.2,0.3c-0.1,0.1-0.1,0.2-0.2,0.2
			c-0.1,0-0.3-0.4-0.4-0.8c-0.1-0.2-0.1-0.4-0.2-0.6c-0.1-0.2-0.2-0.3-0.3-0.3c-0.1,0-0.2,0.2-0.3,0.5c0,0.2-0.2,0.2-0.3,0.2
			c-0.1,0-0.2,0-0.2-0.1c-0.1,0-0.1-0.1-0.2-0.1c-0.1,0-0.2,0-0.4,0.1c-0.1,0-0.3,0.1-0.5,0.2c-0.5,0.1-0.9,0.4-1.4,0.7
			c-0.3,0.2-0.6,0.4-0.9,0.6c-0.1,0.1-0.3,0.1-0.4,0.1c-0.4,0-0.8-0.2-1.2-0.5c-0.3-0.2-0.7-0.4-1-0.4c-0.1,0-0.3-0.1-0.4-0.1
			c0,0,0,0,0,0c0,0,0,0,0,0c-0.1-0.1-0.3-0.2-0.4-0.3c-0.2-0.2-0.3-0.4-0.6-0.4c-0.1,0-0.1,0-0.2,0c-0.2,0.1-0.4,0.1-0.5,0.1
			c-0.1,0-0.3,0-0.4-0.1c-0.2,0-0.3-0.1-0.6-0.1c-0.3,0-0.6-0.1-1-0.2c-0.4-0.1-0.7-0.2-1.1-0.2c-0.1,0-0.2,0-0.2,0
			c-0.1,0-0.1,0-0.2,0c-0.4,0-0.8-0.2-1.1-0.4c-0.3-0.1-0.5-0.3-0.8-0.3c-0.2,0-0.3-0.1-0.5-0.2c-0.3-0.1-0.5-0.2-0.8-0.2
			c-0.2,0-0.3,0-0.5,0.1c-0.4,0.2-1.1,0.5-1.6,0.8c-0.3,0.2-0.5,0.3-0.7,0.4c-0.4,0.2-0.7,0.7-0.9,1.2c0,0.1-0.1,0.2-0.1,0.3
			c-0.3,0.5-0.6,0.8-1,0.8c-0.2,0-0.3,0-0.3,0c0,0,0,0-0.1,0c-0.1,0-0.1,0-0.1,0.1l0,0c0,0,0,0,0,0c0,0-0.1,0.7,0,0.9
			c0.1,0.1,0.3,0.3,0.5,0.5c0.2,0.2,0.4,0.3,0.5,0.4c0.1,0.1,0.1,0.2,0.2,0.3c0.1,0.2,0.2,0.4,0.4,0.5c0.2,0.1,0.8,0.6,1,0.9
			c0,0.1,0,0.1,0,0.1c-0.1,0.2-0.7,0.3-1,0.3c0,0-0.1,0-0.1,0c0,0,0-0.2,0-0.3c0-0.1,0.1-0.2,0.1-0.3c0-0.1-0.2-0.2-0.4-0.2
			c-0.1,0-0.1,0-0.2,0c-0.1,0-0.4,0.2-0.7,0.4c-0.3,0.2-0.6,0.4-0.8,0.5c-0.3,0.2-0.4,0.3-0.4,0.5c0,0.1,0.1,0.2,0.2,0.3
			c0.2,0.1,0.5,0.3,0.5,0.7c0.1,0.6,0.8,0.5,0.8,0.5c0.1,0,0.3,0,0.4,0c0.2,0,0.5-0.1,0.8-0.1c0.5,0,0.8,0.1,0.8,0.4
			c0,0.3,0,0.5-0.1,0.6c-0.2,0.3-0.7,0.3-1,0.3c-0.6,0-1,0.7-1.5,1.7l0,0.1c-0.3,0.6,0,1.3,0.3,1.6c0.3,0.5,0.7,0.8,0.8,0.8
			c0,0,0.1,0,0.1,0c0.1,0,0.2,0,0.3,0c0.3,0,0.5,0.1,0.6,0.3c0.1,0.1,0.1,0.3,0.1,0.4c0.1,0.3,0.1,0.5,0.3,0.5c0,0,0.1,0,0.1,0
			c0.2-0.1,0.4-0.1,0.7,0c0.2,0,0.3,0,0.5,0.1c0.6,0,0.6,0.1,0.6,0.4c0,0.3-0.4,1.1-1,1.6c-0.3,0.3-0.9,0.6-1.5,0.9
			c-0.4,0.2-0.8,0.4-1,0.6c-0.4,0.2-0.5,0.4-0.5,0.6c0,0.1,0.2,0.2,0.4,0.3c0,0,0,0,0.1,0c0.2,0,0.6-0.2,1.2-0.6
			c0.4-0.3,0.9-0.6,1.6-1c1.9-1,2.9-2.5,3.3-3.1c0.2-0.3,0.2-0.4,0.2-0.5c0-0.1-0.1-0.1-0.2-0.1c-0.1,0-0.1,0-0.1,0
			c0,0,0-0.1,0.1-0.2c0.1-0.2,0.3-0.4,0.5-0.4c0.2,0,0.3,0.1,0.3,0.3c0,0.2,0.1,0.6,0.4,0.6c0,0,0.1,0,0.2,0
			c0.2-0.1,1.5-0.7,1.5-0.8c0-0.1,0.2-0.7,0.5-0.8c0,0,0,0,0.1,0c0.2,0,0.6,0.2,0.9,0.3c0.4,0.2,0.8,0.3,1.1,0.4
			c0.2,0,0.6,0.2,1.1,0.5c0,0,0,0,0,0c0.5,0.3,1,0.6,1.5,1c0,0,0,0,0,0c0.4,0.3,0.8,0.6,1,0.8c0.6,0.6,2.2,2.5,2.9,3.5c0,0,0,0,0,0
			c0,0,0,0,0,0c0.1,0.2,0.2,0.3,0.3,0.4l0.2,0.2c0.5,0.7,1,1.5,1.3,2.1c0.1,0.2,0.1,0.3,0.1,0.4c0,0.1-0.1,0.1-0.2,0.1
			c-0.1,0-0.2,0-0.3,0.1c0,0,0,0.1,0,0.1c0,0.2,0.4,0.4,1,0.8c0.3,0.2,0.6,0.4,0.8,0.5c0.2,0.2,0.4,0.4,0.5,0.6c0,0,0,0,0,0
			c0,0,0,0,0,0c0.2,0.3,0.2,0.7,0.3,1c0,0.1,0,0.2,0,0.2c0,0.2,0,0.6-0.1,1.2c-0.1,1.1-0.2,2.9,0.1,4c0.5,1.6,1.6,3.3,1.9,3.6
			c0.1,0.2,0.4,0.4,0.8,0.6c0.3,0.2,0.7,0.5,1,0.7c0,0,0.1,0.1,0.1,0.1c0,0,0,0,0,0c0,0,0,0,0,0c0.6,0.7,1.5,2.4,1.6,2.6
			c0,0,0,0,0,0c0,0-0.1,0.1-0.2,0.1c-0.1,0-0.3,0.1-0.3,0.2c0,0,0,0.1,0,0.1c0.2,0.2,0.8,0.7,1.2,0.7c0.2,0,0.3,0.3,0.5,0.6
			c0.2,0.4,0.4,0.8,0.8,1.2c0.2,0.2,0.4,0.4,0.5,0.4c0.1,0,0.1,0,0.1-0.1c0.1-0.1-0.1-0.4-0.2-0.6c-0.2-0.2-1.8-2.8-2.4-3.9
			c-0.2-0.3-0.3-0.6-0.2-0.8c0,0,0.1-0.1,0.1-0.1c0.2,0,0.4,0.1,0.6,0.5c0.3,0.4,1.5,2,2.5,3.3c0.8,1,1.4,1.8,1.6,2.1
			c0.1,0.2,0.1,0.3,0.1,0.5c-0.1,0.3-0.2,0.6,0.5,1.4c0.9,1.1,3.6,1.5,4.8,1.5c0.2,0,0.4,0,0.5,0c0,0,0.1,0,0.1,0
			c0.3,0,0.7,0.3,1,0.7c0.1,0.1,0.2,0.2,0.3,0.3c0,0,0,0,0,0c0.1,0.1,0.2,0.2,0.4,0.3c0.2,0.1,0.4,0.2,0.7,0.3c0,0,0,0,0,0
			c0.3,0.1,0.6,0.1,0.8,0.2c0.2,0,0.4,0.1,0.5,0.1c0,0,0,0,0,0c0.1,0,0.1,0,0.2,0.1c0.1,0.1,0.1,0.2,0.2,0.3l0,0c0,0,0,0,0,0
			c0,0.1,0.1,0.3,0.2,0.3c0.1,0.1,0.2,0.2,0.3,0.4c0,0,0,0,0,0c0,0,0,0,0,0c0.1,0.2,0.1,0.3,0.1,0.5c0,0.2,0.2,0.3,0.5,0.4
			c0.1,0,0.3,0.1,0.4,0.2c0.1,0.1,0.2,0.1,0.3,0.2c0.1,0.1,0.2,0.1,0.4,0.2c0,0,0,0,0,0c0.3,0.1,0.6,0.3,1,0.6
			c0.2,0.2,0.4,0.2,0.5,0.1c0.1-0.1,0.1-0.5,0.1-0.6c0.1,0,0.3-0.2,0.6-0.2c0,0,0,0,0.1,0c0.3,0,0.3,0.2,0.3,0.4
			c0,0.2,0.1,0.3,0.2,0.5c0,0,0,0,0,0c0,0,0,0,0,0c0,0,0,0,0,0l0,0c-0.1,0.2-0.1,0.4-0.1,0.7c0.1,0.8-0.4,1.7-0.8,2.1
			c-0.1,0.1-0.2,0.2-0.3,0.2c-0.5,0.3-0.7,1.4-0.7,2c0,0,0,0,0,0c0,0.1,0,0.1,0,0.2c0,0,0,0.1,0,0.1c0,0.5,0,1.7,0.4,2.1
			c0.1,0.1,0.3,0.5,0.6,1c0.6,1.3,1.7,3.4,3.6,4.6c0.4,0.2,0.7,0.6,0.9,1.1c0.6,1.4,0.6,3.9-0.2,7.3c0,0,0,0,0,0c-0.2,1-0.5,2-0.8,3
			c-0.7,2.5-1.3,7.6-1.4,10.8c0,0,0,0,0,0c0,0.5,0,1,0,1.3c0.1,2.5,3.3,3.6,4.9,3.6l0.1,0c0,0,0,0,0,0c0.1,0,0.2,0,0.2,0
			c0.3,0,0.4-0.1,0.4-0.2c0.1-0.2-0.2-0.5-0.6-0.8c-0.4-0.3-0.9-0.7-0.9-1.1c0-0.2-0.1-0.4-0.2-0.7l0,0c0,0,0,0,0,0
			c-0.3-0.7-0.6-1.5,0.8-2.9c0.4-0.4,0.5-0.6,0.5-0.9c0-0.2-0.2-0.4-0.4-0.6c-0.2-0.1-0.3-0.3-0.4-0.5c-0.2-0.4,0.1-0.6,0.5-0.9
			c0.2-0.2,0.5-0.3,0.6-0.6c0.2-0.4,0.2-1.8,0.2-2.3l0-0.1c0-0.1,0.2-0.1,0.3-0.1c0.2,0,0.5,0,0.8-0.2c0.3-0.2,0.4-0.5,0.4-1
			c0-0.4,0.5-0.5,1.1-0.6c0.5-0.1,1-0.1,1.3-0.4c0.8-0.7,0.3-1.4-0.1-1.9c-0.2-0.3-0.4-0.6-0.3-0.7c0,0,0,0,0,0c0,0,0,0,0,0
			c0.1,0,0.2,0,0.4,0.1c0.3,0.1,0.8,0.2,1.2,0.2c0.3,0,0.5-0.1,0.6-0.2c0.1-0.1,0.3-0.3,0.5-0.5c0.6-0.6,1.3-1.7,2.1-2.9
			c0.3-0.5,0.3-1,0.4-1.4c0.1-0.9,0.2-1.7,1.9-2c2.7-0.6,2.9-1.7,3.2-3.4c0-0.1,0.1-0.3,0.1-0.4c0.1-0.4,0.1-0.8,0.2-1.1
			c0.1-1.1,0.2-1.5,2-3.4c0.4-0.4,0.5-0.9,0.3-1.4C104,176.1,102.5,175.1,101.3,175.1z M79.6,159.5
			C79.6,159.5,79.6,159.5,79.6,159.5L79.6,159.5L79.6,159.5z"/>
		<path class="st1" d="M91.7,206.1L91.7,206.1c-0.1,0-0.2,0-0.3,0c-0.2,0-0.5,0-0.6,0c0,0,0,0,0,0c-0.2,0-0.4,0-0.5,0.1
			c-0.2,0.1-0.1,0.3-0.1,0.5c0,0.1,0,0.1,0.1,0.2c0,0,0,0,0,0c0.1,0,0.2,0,0.3,0c0.1,0,0.2,0,0.3,0c0.2,0,0.3,0,0.5-0.2
			c0,0,0.1-0.1,0.2-0.1c0.3-0.1,0.5-0.2,0.6-0.3c0,0,0-0.1,0-0.1C92.2,206.2,91.9,206.1,91.7,206.1z"/>
		<path class="st1" d="M87.4,163.2L87.4,163.2C87.3,163.2,87.3,163.2,87.4,163.2c-0.3-0.1-0.5-0.1-0.7,0c0,0-0.1,0-0.1,0.1
			c0,0.1,0.1,0.2,0.1,0.2c0.1,0,0.2,0.1,0.4,0.1c0.1,0,0.1,0,0.2,0c0.1-0.1,0.2-0.1,0.2-0.2C87.5,163.3,87.4,163.3,87.4,163.2z"/>
		<path class="st1" d="M83,163.6c0.3,0,0.6,0.1,1,0.1c0.1,0,0.3,0,0.4,0c0,0,0,0,0,0c0.6,0,1.2-0.1,1.8-0.2c0.1,0,0.1,0,0.1-0.1
			c0-0.1-0.1-0.2-0.1-0.2c-0.6-0.3-1.2-0.5-1.9-0.6c0,0,0,0,0,0c0,0,0,0,0,0c-0.2,0-0.4-0.1-0.6-0.1c0,0,0,0,0,0c0,0-0.1,0-0.1,0
			c-0.1,0-0.2,0.1-0.2,0.2c0,0.2,0.1,0.3,0.2,0.3c0.1,0,0.2,0.1,0.3,0.1c0,0,0,0,0.1,0c0,0,0,0.1,0,0.1c0,0.1-0.1,0.1-0.2,0.2
			c-0.1,0-0.2,0-0.2,0c-0.1,0-0.2,0-0.2,0c-0.1,0-0.2,0.1-0.3,0.2C82.9,163.4,82.9,163.5,83,163.6C82.9,163.6,83,163.6,83,163.6z"/>
		<path class="st1" d="M82.6,162.7c0.1,0,0.2,0,0.3-0.1c0.1-0.1,0.2-0.2,0.1-0.3c0-0.1-0.1-0.1-0.1-0.1c-0.4-0.3-0.9-0.6-1.3-0.9
			c-0.4-0.2-0.8-0.5-1.3-0.5c0,0,0,0,0,0c-0.1,0-0.1,0-0.2,0c-0.1,0-0.3,0-0.4,0c-0.1,0-0.2-0.1-0.3-0.2c-0.1-0.1-0.3-0.2-0.5-0.2
			c-0.2,0-0.3,0.1-0.5,0.2c-0.1,0.1-0.2,0.1-0.3,0.2c-0.1,0-0.2,0-0.3,0c-0.1,0-0.2,0-0.2,0c-0.1,0-0.2,0.1-0.3,0.2
			c0,0.1,0,0.1,0,0.2c0,0.1,0.1,0.1,0.2,0.1c0.1,0,0.2-0.1,0.4-0.1c0,0,0.1,0,0.1,0c0.3-0.1,0.6,0,0.9,0.2c0.1,0,0.1,0.1,0.2,0.1
			c0.2,0.1,0.5,0.3,0.7,0.3c0.1,0,0.2,0,0.3,0c0.3,0,0.5,0,0.6,0.2c0,0.1,0.1,0.1,0.1,0.2c0,0.1,0.1,0.2,0.1,0.2
			c0.1,0.1,0.2,0.1,0.4,0.1c0.3,0,0.6,0.1,0.9,0.1C82.4,162.7,82.5,162.7,82.6,162.7z"/>
		<path class="st1" d="M81.2,163.2c-0.2,0-0.3,0.1-0.5,0.2c0,0,0,0,0,0l0,0.1c0,0,0,0,0,0c0.2,0.2,0.4,0.3,0.7,0.3
			c0.1,0,0.2,0,0.3-0.1c0,0,0,0,0,0c0-0.2-0.2-0.4-0.4-0.5C81.3,163.2,81.2,163.2,81.2,163.2z"/>
		<path class="st1" d="M93.3,140.9C93.2,140.8,93.2,140.8,93.3,140.9c-0.1-0.1-0.1-0.1-0.2-0.1c-0.3,0-0.7,0.2-0.7,0.2c0,0,0,0,0,0
			c-0.3,0.4-1.5,2.6-1.4,2.8c0,0,0,0,0,0.1c0.1,0.2,0.2,0.4,0.6,0.4c0.1,0,0.1,0,0.2,0c0.2,0,0.5-0.1,0.6-0.2
			c0.2-0.1,0.3-0.1,0.4-0.1c0.1,0,0.1,0,0.1,0.1c0,0,0,0.1,0,0.1c0,0.2,0,0.4,0.4,0.4c0.2,0,0.3,0,0.5,0.1c0.2,0.1,0.3,0.1,0.4,0.1
			c0.1,0,0.2,0,0.2-0.1c0.1-0.3,0-1-0.2-1.3c-0.1-0.1-0.1-0.3-0.1-0.4c0-0.3,0-0.6-0.4-0.6c-0.1,0-0.2,0-0.3,0c-0.1,0-0.2,0-0.3,0
			c-0.4,0-0.6-0.1-0.6-0.2c0-0.1,0.1-0.4,0.2-0.7C93.2,141.2,93.3,141,93.3,140.9z"/>
		<path class="st1" d="M89.5,142.3c-0.1,0-0.2-0.1-0.3-0.1c0,0,0,0,0,0c0,0-0.1-0.1-0.1-0.1c0,0-0.1,0-0.1,0l0,0c-0.1,0-0.2,0-0.2,0
			c-0.1,0-0.2,0-0.3,0c-0.1,0-0.1,0.1-0.1,0.2c0,0,0,0,0,0c0,0,0,0,0,0c0.1,0,0.1,0,0.1,0.1c0,0,0,0,0,0.1c0.2,0.3,0.5,0.5,0.9,0.6
			c0.1,0,0.1,0,0.2,0c0.2,0,0.3-0.1,0.4-0.2c0-0.1,0-0.2,0-0.2C89.8,142.4,89.6,142.4,89.5,142.3z"/>
		<path class="st1" d="M87.2,124.8c0.1,0,0.2,0,0.4,0.3c0.3,0.4,0.9,0.6,1.4,0.6c0.3,0,0.6-0.1,0.7-0.3c0.1-0.3,0.1-0.8-1-2
			c-1.4-1.5-1.8-2.6-2.1-3.4c-0.2-0.6-0.4-1-0.8-1.4c-1-0.8-2.9-2.6-3.8-3.5c-0.1-0.1-0.3-0.3-0.3-0.3c-0.4-0.4-0.4-0.4-1.2-0.9
			c-0.1-0.1-0.3-0.2-0.5-0.3c-0.7-0.5-1.5-0.8-2-0.8c-0.4,0-0.8,0.2-0.8,0.5c0,0.2-0.1,0.2-0.1,0.2c-0.1,0-0.3-0.1-0.4-0.2
			c-0.1-0.1-0.2-0.2-0.3-0.2c-0.3-0.1-0.6-0.1-0.7-0.1c0,0,0,0,0,0c-0.6,1-1.5,4-0.8,4.7c0.1,0.1,0.2,0.2,0.3,0.3
			c0.5,0.7,1.2,1.5,2.7,1.6c0,0,0,0,0,0c0,0,0,0,0.1,0c0.2,0,0.3,0,0.5,0c0.4,0,0.7,0,1,0c0.2,0,0.5,0,0.7,0c0.5,0,0.8,0.1,1.2,0.3
			c0.1,0.1,0.2,0.1,0.3,0.2c0.8,0.7,2.5,2,2.6,3.3c0,0.4-0.1,0.7-0.4,1c-0.3,0.4-0.8,0.8-1.2,1.2c-1.1,1.1-2,2-1.8,2.3
			c0.1,0.2,0.4,0.2,0.9,0.1c0.2,0,0.5-0.1,0.7-0.1c1.5,0,2.6,1.1,3.4,1.9c0.5,0.5,0.9,0.9,1.2,0.9h0c0,0,0.1,0,0.1,0
			c0.4-0.1,0.7-0.4,0.8-0.8c0.3-0.7,0.1-1.7-0.4-2.5c-0.5-1-0.7-2-0.5-2.3C87.1,124.9,87.1,124.8,87.2,124.8z"/>
		<path class="st1" d="M81.7,124c0.1,0.1,0.2,0.1,0.3,0.1c0.1,0,0.1,0,0.1,0c0.4-0.2,0.5-0.7,0.5-1c0-0.3,0-0.7-0.2-0.9
			c-0.1-0.1-0.2-0.1-0.4-0.1c-0.3,0-0.6,0.2-0.8,0.4c-0.2,0.3-0.1,0.7,0,1.1c0,0,0,0,0,0L81.7,124z"/>
		<path class="st1" d="M78.6,127c-0.3-0.1-0.7-0.3-1.1-1.1c-0.1-0.1-0.2-0.2-0.4-0.2c-0.1,0-0.1,0-0.2,0l-0.1,0
			c-0.1,0-0.2,0.1-0.3,0.2c0,0,0,0.1,0,0.1c-0.1,0.3-0.2,0.6-0.3,0.9c-0.2,0.5-0.4,0.9-0.1,1.4c0.3,0.5,1,1,1.5,1
			c0.2,0,0.3-0.1,0.4-0.2c0.1-0.2,0.3-0.3,0.6-0.3c0.1,0,0.2,0,0.3,0c0.1,0,0.2,0,0.2,0c0.3,0,0.5-0.1,0.5-0.2
			c0.1-0.1,0.1-0.3,0-0.6c-0.1-0.1-0.1-0.3-0.3-0.5C79.1,127.2,78.8,127.1,78.6,127z"/>
		<path class="st1" d="M69.6,117.5c0.1,0,0.3-0.1,0.4-0.3c0.4-0.5,1-1.3,1-2c0-0.2-0.1-0.4-0.2-0.6c-0.3-0.2-0.2-0.7-0.2-1.2
			c0-0.6,0.1-1.2-0.5-1.3c-0.5,0-0.9,0.3-1.2,0.6c-0.1,0.1-0.3,0.2-0.4,0.3c-0.2,0.1-0.3,0.3-0.2,0.6c0,0,0,0.1,0,0.1
			c0.1,0.4,0.2,0.5-0.3,0.8c-0.3,0.1-0.4,0.2-0.4,0.4c0,0.1,0.1,0.3,0.3,0.5c0.1,0.1,0.2,0.3,0.4,0.6c0.1,0.2,0.2,0.3,0.3,0.5
			C69,117.1,69.3,117.5,69.6,117.5z"/>
		<path class="st1" d="M68.8,120.8c0,0-0.1,0-0.1,0c0,0,0,0.1,0,0.1c0,0,0,0,0,0l0,0c-0.1,0.2-0.2,0.4-0.1,0.6
			c0,0.1,0.1,0.1,0.2,0.1c0.1,0,0.2,0,0.2-0.1c0,0,0.1-0.1,0.1-0.1c0,0,0,0,0-0.1c0,0,0-0.1,0.1-0.1c0-0.1,0.1-0.1,0.1-0.2
			c0,0,0,0,0,0c0,0,0-0.1,0-0.1c0,0-0.1-0.1-0.1-0.1C69.1,120.8,69,120.8,68.8,120.8z"/>
		<path class="st1" d="M55.6,116.7c0.3,0.6,0.7,1.2,1.1,1.2c0.2,0,0.4-0.1,0.6-0.4c0.4-0.5,0.6-1.1,0.8-1.6c0.2-0.6,0.3-1,0.7-1.2
			l0,0c0.6-0.3,2.1-0.9,2.1-1.6c0-0.3-0.3-0.6-0.9-0.8c-1.4-0.5-2.8-0.6-3.6-0.6c-0.5,0-0.9,0.4-0.9,0.8c0,0.1,0,0.3-0.1,0.4
			c-0.2,1.1-0.4,2.6-0.1,3.1C55.4,116.4,55.5,116.5,55.6,116.7z"/>
	</g>
	<g>
		<path class="st2" d="M373.5,193.1v-66.5h59.4v11.6H385v43.3h47.9v11.6H373.5z M393.5,164.2v-9.8h36.9v9.8H393.5z"/>
		<path class="st2" d="M451.3,193.1v-66.5h38.5c18.8,0,32.4,13.3,32.4,32.6c0,19.3-13.6,33.9-32.4,33.9H451.3z M489.9,181.5
			c12,0,20.8-9.2,20.8-21.8c0-12.5-8.8-21.5-20.8-21.5h-27v43.3H489.9z"/>
		<path class="st2" d="M599.7,126.6H611v37.1c0,20.6-10.2,30.3-36,30.3c-25.6,0-35.9-9.7-35.9-30.3v-37.1h12v37.1
			c0,13.4,5.9,18.8,24.2,18.8s24.2-5.5,24.2-18.8V126.6z"/>
		<path class="st2" d="M650,174.6v-11.3h26.7c8.1,0,13-5.1,13-12.6c0-7.7-4.9-12.5-13-12.5h-35.2v54.9h-11.5v-66.5h46.8
			c15.4,0,24.3,9.2,24.3,23.8c0,14.4-9,24.2-24.3,24.2H650z"/>
		<path class="st2" d="M777.5,193.1l-10-16.7H736l5.5-9.4h20.4L747.1,142l-30.2,51.1h-13.3l38.2-63.7c1.4-2.3,3.1-3.8,5.7-3.8
			s4.2,1.5,5.6,3.8l38.3,63.7H777.5z"/>
		<path class="st2" d="M807,193.1v-11.6h49.9c6.2,0,9.7-3.5,9.7-8.7c0-5.7-3.5-8.6-9.7-8.6h-30.6c-12.5,0-20.3-8-20.3-18.9
			c0-10.7,7.2-18.7,20.5-18.7h47.8v11.6h-47.8c-5.3,0-8.4,3.1-8.4,8.1c0,5,3.2,8.1,8.3,8.1h30.5c13.5,0,20.7,6.3,20.7,19.2
			c0,11.2-6.8,19.5-20.7,19.5H807z"/>
		<path class="st2" d="M896,193.1v-11.6h49.9c6.2,0,9.7-3.5,9.7-8.7c0-5.7-3.5-8.6-9.7-8.6h-30.6c-12.5,0-20.3-8-20.3-18.9
			c0-10.7,7.2-18.7,20.5-18.7h47.8v11.6h-47.8c-5.3,0-8.4,3.1-8.4,8.1c0,5,3.2,8.1,8.3,8.1h30.5c13.5,0,20.7,6.3,20.7,19.2
			c0,11.2-6.8,19.5-20.7,19.5H896z"/>
	</g>
	<g>
		<path class="st2" d="M379,107.7V92.2h13.1v2.7h-10.4v12.8H379z M383.6,101.3v-2.4h7.8v2.4H383.6z"/>
		<path class="st2" d="M394.3,107.7V92.2h2.7v15.5H394.3z"/>
		<path class="st2" d="M402.5,96.4v11.3H400v-14c0-1,0.5-1.6,1.4-1.6c0.4,0,0.7,0.1,1.1,0.6l10.9,10.8V92.1h2.6v14.2
			c0,1-0.6,1.6-1.3,1.6c-0.4,0-0.9-0.2-1.2-0.6L402.5,96.4z"/>
		<path class="st2" d="M434.9,107.7l-2.3-3.9h-7.3l1.3-2.2h4.7l-3.4-5.8l-7,11.9h-3.1l8.9-14.8c0.3-0.5,0.7-0.9,1.3-0.9
			c0.6,0,1,0.3,1.3,0.9l8.9,14.8H434.9z"/>
		<path class="st2" d="M442.5,96.4v11.3h-2.6v-14c0-1,0.5-1.6,1.4-1.6c0.4,0,0.7,0.1,1.1,0.6l10.9,10.8V92.1h2.6v14.2
			c0,1-0.6,1.6-1.3,1.6c-0.4,0-0.9-0.2-1.2-0.6L442.5,96.4z"/>
		<path class="st2" d="M465.8,107.7c-4.3,0-7.5-3.4-7.5-7.9c0-4.5,3.2-7.6,7.5-7.6h8.4v2.7h-8.4c-2.8,0-4.8,2.1-4.8,5
			c0,2.9,2,5.1,4.8,5.1h8.4v2.7H465.8z"/>
		<path class="st2" d="M476.7,107.7V92.2h2.7v15.5H476.7z"/>
		<path class="st2" d="M498.5,107.7l-2.3-3.9h-7.3l1.3-2.2h4.7l-3.4-5.8l-7,11.9h-3.1l8.9-14.8c0.3-0.5,0.7-0.9,1.3-0.9
			c0.6,0,1,0.3,1.3,0.9l8.9,14.8H498.5z"/>
		<path class="st2" d="M522.9,107.7l-3-10.9l-4.4,10.1c-0.3,0.7-0.7,1-1.4,1c-0.6,0-1.1-0.4-1.4-1l-4.4-10.1l-3,10.9h-2.7l4-14.5
			c0.2-0.7,0.6-1.1,1.3-1.1c0.6,0,1.1,0.3,1.4,0.9l4.8,10.9L519,93c0.3-0.6,0.7-0.9,1.3-0.9c0.7,0,1.1,0.4,1.3,1.1l4,14.5H522.9z"/>
		<path class="st2" d="M527.7,107.7V92.2h2.7v15.5H527.7z"/>
		<path class="st2" d="M533.4,107.7V92.2h13.8v2.7h-11.1V105h11.1v2.7H533.4z M538,101v-2.3h8.6v2.3H538z"/>
		<path class="st2" d="M552.2,96.4v11.3h-2.6v-14c0-1,0.5-1.6,1.4-1.6c0.4,0,0.7,0.1,1.1,0.6l10.9,10.8V92.1h2.6v14.2
			c0,1-0.6,1.6-1.3,1.6c-0.4,0-0.9-0.2-1.2-0.6L552.2,96.4z"/>
		<path class="st2" d="M573.4,107.7V94.9h-5.9v-2.7H582v2.7h-5.9v12.8H573.4z"/>
		<path class="st2" d="M590.7,107.7c-4.3,0-7.5-3.4-7.5-7.9c0-4.5,3.2-7.6,7.5-7.6h3.8c4.5,0,7.6,3.1,7.6,7.6c0,4.5-3.2,7.9-7.6,7.9
			H590.7z M594.4,105c2.8,0,4.9-2.1,4.9-5.1s-2-5-4.9-5h-3.8c-2.8,0-4.8,2.1-4.8,5c0,2.9,2,5.1,4.8,5.1H594.4z"/>
		<path class="st2" d="M610.8,107.7V92.2h13.8v2.7h-11.1V105h11.1v2.7H610.8z M615.5,101v-2.3h8.6v2.3H615.5z"/>
		<path class="st2" d="M627.1,107.7V92.2h8.9c4.4,0,7.5,3.1,7.5,7.6c0,4.5-3.2,7.9-7.5,7.9H627.1z M636.1,105c2.8,0,4.8-2.1,4.8-5.1
			s-2-5-4.8-5h-6.3V105H636.1z"/>
		<path class="st2" d="M659.8,92.2h2.6v8.6c0,4.8-2.4,7-8.4,7c-6,0-8.3-2.3-8.3-7v-8.6h2.8v8.6c0,3.1,1.4,4.4,5.6,4.4
			s5.6-1.3,5.6-4.4V92.2z"/>
		<path class="st2" d="M672.1,107.7c-4.3,0-7.5-3.4-7.5-7.9c0-4.5,3.2-7.6,7.5-7.6h8.4v2.7h-8.4c-2.8,0-4.8,2.1-4.8,5
			c0,2.9,2,5.1,4.8,5.1h8.4v2.7H672.1z"/>
		<path class="st2" d="M699,107.7l-2.3-3.9h-7.3l1.3-2.2h4.7l-3.4-5.8l-7,11.9h-3.1l8.9-14.8c0.3-0.5,0.7-0.9,1.3-0.9
			c0.6,0,1,0.3,1.3,0.9l8.9,14.8H699z"/>
		<path class="st2" d="M706.3,107.7V94.9h-5.9v-2.7h14.4v2.7H709v12.8H706.3z"/>
		<path class="st2" d="M717,107.7V92.2h2.7v15.5H717z"/>
		<path class="st2" d="M721.7,92.2h3.3l7,11.9l7-11.9h3.1l-8.9,14.8c-0.3,0.5-0.7,0.9-1.3,0.9c-0.6,0-1-0.3-1.3-0.9L721.7,92.2z"/>
		<path class="st2" d="M749,107.7c-4.3,0-7.5-3.4-7.5-7.9c0-4.5,3.2-7.6,7.5-7.6h3.8c4.5,0,7.6,3.1,7.6,7.6c0,4.5-3.2,7.9-7.6,7.9
			H749z M752.7,105c2.8,0,4.9-2.1,4.9-5.1s-2-5-4.9-5H749c-2.8,0-4.8,2.1-4.8,5c0,2.9,2,5.1,4.8,5.1H752.7z"/>
	</g>
	<g>
		<path class="st2" d="M457.9,225c-0.5,0-0.8-0.2-1.1-0.5c-0.2-0.3-0.3-0.7-0.2-1.2s0.4-0.9,0.8-1.2c0.4-0.3,0.9-0.5,1.3-0.5H478
			c0.5,0,0.8,0.2,1.1,0.5c0.2,0.3,0.3,0.7,0.2,1.2s-0.4,0.9-0.8,1.2c-0.4,0.3-0.9,0.5-1.3,0.5h-7.9l-8.1,30.2
			c-0.1,0.5-0.4,0.9-0.8,1.2c-0.4,0.3-0.9,0.5-1.3,0.5c-0.5,0-0.8-0.2-1.1-0.5c-0.2-0.3-0.3-0.7-0.2-1.2l8.1-30.2H457.9z"/>
		<path class="st2" d="M485.4,223.3c0.1-0.4,0.4-0.8,0.8-1.2c0.4-0.4,0.9-0.6,1.4-0.6c0.5,0,0.9,0.2,1.1,0.6
			c0.2,0.4,0.2,0.8,0.1,1.3l-5.7,21.2c-0.3,1.2-0.4,2.4-0.2,3.4c0.2,1.1,0.6,2,1.1,2.8c0.6,0.8,1.3,1.4,2.3,1.9c1,0.5,2,0.7,3.3,0.7
			c1.2,0,2.4-0.2,3.6-0.7c1.2-0.5,2.3-1.1,3.3-1.9c1-0.8,1.9-1.7,2.7-2.8c0.8-1.1,1.3-2.2,1.6-3.4l5.7-21.3c0.1-0.4,0.4-0.8,0.8-1.2
			c0.4-0.4,0.9-0.6,1.4-0.6c0.5,0,0.9,0.2,1.1,0.6c0.2,0.4,0.2,0.8,0.1,1.2l-5.7,21.2c-0.5,1.7-1.2,3.3-2.3,4.8s-2.3,2.8-3.7,3.9
			c-1.4,1.1-2.9,2-4.6,2.6c-1.7,0.6-3.3,1-5,1c-1.7,0-3.2-0.3-4.5-1c-1.3-0.6-2.4-1.5-3.2-2.6c-0.8-1.1-1.3-2.4-1.6-3.9
			c-0.2-1.5-0.1-3.1,0.3-4.8L485.4,223.3z"/>
		<path class="st2" d="M527.4,223.3c0.1-0.5,0.4-0.9,0.8-1.2c0.4-0.3,0.9-0.5,1.3-0.5h16.8c0.5,0,0.8,0.2,1.1,0.5
			c0.2,0.3,0.3,0.7,0.2,1.2c-0.1,0.5-0.4,0.9-0.8,1.2c-0.4,0.3-0.9,0.5-1.3,0.5h-15.1l-3.3,12.3h10.1c0.5,0,0.8,0.2,1.1,0.5
			c0.2,0.3,0.3,0.7,0.2,1.2c-0.1,0.5-0.4,0.9-0.8,1.2c-0.4,0.3-0.9,0.5-1.3,0.5h-10.1l-3.4,12.7h15.1c0.5,0,0.8,0.2,1.1,0.5
			c0.2,0.3,0.3,0.7,0.2,1.2c-0.1,0.5-0.4,0.9-0.8,1.2c-0.4,0.3-0.9,0.5-1.3,0.5h-16.8c-0.5,0-0.8-0.2-1.1-0.5
			c-0.2-0.3-0.3-0.7-0.2-1.2L527.4,223.3z"/>
		<path class="st2" d="M553,223.3c0.1-0.5,0.4-0.9,0.8-1.2c0.4-0.3,0.9-0.5,1.3-0.5h9.5c2.4,0,4.6,0.5,6.5,1.4
			c1.9,0.9,3.4,2.2,4.6,3.8c1.2,1.6,1.9,3.5,2.3,5.6c0.3,2.1,0.2,4.4-0.5,6.9c-0.7,2.4-1.7,4.7-3.2,6.9c-1.5,2.2-3.3,4-5.3,5.6
			c-2,1.6-4.2,2.9-6.6,3.8c-2.4,0.9-4.8,1.4-7.2,1.4h-9.5c-0.5,0-0.8-0.2-1.1-0.5c-0.2-0.3-0.3-0.7-0.2-1.2L553,223.3z M556,225
			l-7.6,28.5h7.8c2,0,3.9-0.4,5.8-1.1c1.9-0.8,3.7-1.8,5.4-3.1c1.6-1.3,3.1-2.8,4.3-4.5c1.2-1.7,2.1-3.6,2.6-5.5s0.7-3.8,0.4-5.5
			c-0.3-1.7-0.9-3.2-1.8-4.5c-0.9-1.3-2.2-2.3-3.7-3s-3.3-1.1-5.2-1.1H556z"/>
		<path class="st2" d="M588.9,223.3c0.1-0.4,0.4-0.8,0.8-1.2c0.4-0.4,0.9-0.6,1.4-0.6c0.5,0,0.9,0.2,1.1,0.6
			c0.2,0.4,0.2,0.8,0.1,1.3l-5.7,21.2c-0.3,1.2-0.4,2.4-0.2,3.4c0.2,1.1,0.6,2,1.1,2.8c0.6,0.8,1.3,1.4,2.3,1.9c1,0.5,2,0.7,3.3,0.7
			c1.2,0,2.4-0.2,3.6-0.7c1.2-0.5,2.3-1.1,3.3-1.9c1-0.8,1.9-1.7,2.7-2.8c0.8-1.1,1.3-2.2,1.6-3.4l5.7-21.3c0.1-0.4,0.4-0.8,0.8-1.2
			c0.4-0.4,0.9-0.6,1.4-0.6c0.5,0,0.9,0.2,1.1,0.6c0.2,0.4,0.2,0.8,0.1,1.2l-5.7,21.2c-0.5,1.7-1.2,3.3-2.3,4.8s-2.3,2.8-3.7,3.9
			c-1.4,1.1-2.9,2-4.6,2.6c-1.7,0.6-3.3,1-5,1c-1.7,0-3.2-0.3-4.5-1c-1.3-0.6-2.4-1.5-3.2-2.6c-0.8-1.1-1.3-2.4-1.6-3.9
			c-0.2-1.5-0.1-3.1,0.3-4.8L588.9,223.3z"/>
		<path class="st2" d="M646.6,229.6c-1-1.1-2.3-2.2-3.8-3.1c-1.5-0.9-3.3-1.4-5.3-1.4c-2,0-3.9,0.4-5.8,1.1c-1.9,0.7-3.7,1.8-5.3,3
			c-1.6,1.3-3,2.8-4.2,4.5c-1.2,1.7-2.1,3.6-2.6,5.5c-0.5,2-0.6,3.8-0.4,5.5c0.3,1.7,0.9,3.2,1.8,4.5c0.9,1.3,2.2,2.3,3.7,3
			c1.5,0.7,3.3,1.1,5.2,1.1c2.1,0,4.1-0.4,6.1-1.2c2-0.8,3.8-1.9,5.5-3.3c0.2-0.2,0.5-0.4,0.8-0.5c0.3-0.1,0.6-0.2,0.9-0.2
			c0.5,0,0.8,0.2,0.9,0.5c0.2,0.3,0.2,0.7,0.1,1.1c-0.2,0.6-0.4,1.1-0.9,1.4c-2.1,1.8-4.4,3.1-6.9,4.1c-2.5,1-5,1.5-7.5,1.5
			c-2.4,0-4.6-0.5-6.5-1.4c-1.9-0.9-3.4-2.2-4.6-3.8c-1.2-1.6-1.9-3.4-2.3-5.6c-0.3-2.1-0.2-4.4,0.5-6.9c0.7-2.4,1.7-4.7,3.2-6.9
			c1.5-2.1,3.2-4,5.3-5.6c2-1.6,4.2-2.9,6.6-3.8c2.4-0.9,4.8-1.4,7.2-1.4c2.5,0,4.7,0.5,6.6,1.4c1.9,1,3.4,2.3,4.6,3.9
			c0.1,0.2,0.2,0.4,0.3,0.7c0.1,0.3,0.1,0.6,0,0.9c-0.1,0.5-0.4,0.8-0.8,1.1c-0.4,0.3-0.8,0.4-1.3,0.4
			C647.2,230.1,646.8,230,646.6,229.6z"/>
		<path class="st2" d="M666.6,222.8c0.2-0.3,0.5-0.6,0.8-0.9c0.4-0.3,0.7-0.4,1.1-0.4c0.4,0,0.7,0.1,0.9,0.4
			c0.2,0.3,0.4,0.6,0.4,0.9l5.2,31.7c0,0.1,0,0.4-0.1,0.7c-0.1,0.4-0.4,0.8-0.8,1.2c-0.4,0.3-0.8,0.5-1.3,0.5
			c-0.8,0-1.2-0.3-1.3-1.1l-1.7-10.1h-15.5l-7.1,10.1c-0.2,0.3-0.5,0.6-0.9,0.8c-0.3,0.2-0.7,0.3-1,0.3c-0.5,0-0.9-0.2-1.1-0.5
			c-0.2-0.3-0.3-0.7-0.2-1.2c0.1-0.2,0.2-0.4,0.3-0.7L666.6,222.8z M666.8,228l-10.1,14.3h12.6L666.8,228z"/>
		<path class="st2" d="M710.8,229.6c-1-1.1-2.3-2.2-3.8-3.1c-1.5-0.9-3.3-1.4-5.3-1.4c-2,0-3.9,0.4-5.8,1.1s-3.7,1.8-5.3,3
			c-1.6,1.3-3,2.8-4.2,4.5c-1.2,1.7-2.1,3.6-2.6,5.5c-0.5,2-0.7,3.8-0.4,5.5c0.3,1.7,0.9,3.2,1.8,4.5c0.9,1.3,2.2,2.3,3.7,3
			c1.5,0.7,3.3,1.1,5.2,1.1c2.1,0,4.1-0.4,6.1-1.2c2-0.8,3.8-1.9,5.5-3.3c0.2-0.2,0.5-0.4,0.8-0.5c0.3-0.1,0.6-0.2,0.9-0.2
			c0.5,0,0.8,0.2,0.9,0.5c0.1,0.3,0.2,0.7,0.1,1.1c-0.2,0.6-0.4,1.1-0.9,1.4c-2.1,1.8-4.4,3.1-6.9,4.1c-2.5,1-5,1.5-7.5,1.5
			c-2.4,0-4.6-0.5-6.5-1.4c-1.9-0.9-3.4-2.2-4.6-3.8c-1.2-1.6-1.9-3.4-2.3-5.6c-0.3-2.1-0.2-4.4,0.5-6.9c0.7-2.4,1.7-4.7,3.2-6.9
			c1.5-2.1,3.2-4,5.3-5.6c2-1.6,4.2-2.9,6.6-3.8c2.4-0.9,4.8-1.4,7.2-1.4c2.5,0,4.7,0.5,6.6,1.4c1.9,1,3.4,2.3,4.6,3.9
			c0.1,0.2,0.2,0.4,0.3,0.7c0.1,0.3,0.1,0.6,0,0.9c-0.1,0.5-0.4,0.8-0.8,1.1c-0.4,0.3-0.8,0.4-1.3,0.4
			C711.4,230.1,711,230,710.8,229.6z"/>
		<path class="st2" d="M721.1,223.3c0.1-0.5,0.4-0.9,0.8-1.2c0.4-0.3,0.9-0.5,1.3-0.5c0.5,0,0.8,0.2,1.1,0.5
			c0.2,0.3,0.3,0.7,0.2,1.2l-8.5,31.9c-0.1,0.5-0.4,0.9-0.8,1.2c-0.4,0.3-0.9,0.5-1.3,0.5c-0.5,0-0.8-0.2-1.1-0.5
			c-0.2-0.3-0.3-0.7-0.2-1.2L721.1,223.3z"/>
		<path class="st2" d="M748.4,221.7c2.4,0,4.6,0.5,6.5,1.4c1.9,0.9,3.4,2.2,4.6,3.8c1.2,1.6,1.9,3.5,2.3,5.6
			c0.3,2.1,0.2,4.4-0.5,6.9c-0.7,2.4-1.7,4.7-3.2,6.9c-1.5,2.1-3.3,4-5.3,5.6c-2,1.6-4.2,2.8-6.6,3.8c-2.4,0.9-4.8,1.4-7.2,1.4
			c-2.4,0-4.6-0.5-6.5-1.4c-1.9-0.9-3.4-2.2-4.6-3.8c-1.2-1.6-1.9-3.4-2.3-5.6c-0.3-2.1-0.2-4.4,0.5-6.9c0.7-2.4,1.7-4.7,3.2-6.9
			c1.5-2.1,3.2-4,5.3-5.6c2-1.6,4.2-2.9,6.6-3.8C743.6,222.1,746,221.7,748.4,221.7z M747.5,225.1c-2,0-3.9,0.4-5.8,1.1
			c-1.9,0.7-3.7,1.8-5.3,3c-1.6,1.3-3,2.8-4.2,4.5c-1.2,1.7-2.1,3.6-2.6,5.5c-0.5,2-0.6,3.8-0.4,5.5c0.3,1.7,0.9,3.2,1.8,4.5
			c0.9,1.3,2.2,2.3,3.7,3c1.5,0.7,3.3,1.1,5.2,1.1c2,0,3.9-0.4,5.8-1.1c1.9-0.7,3.7-1.7,5.3-3c1.6-1.3,3-2.8,4.3-4.5
			c1.2-1.7,2.1-3.6,2.6-5.5c0.5-2,0.6-3.8,0.4-5.5c-0.3-1.7-0.9-3.2-1.8-4.5c-0.9-1.3-2.2-2.3-3.7-3
			C751.2,225.5,749.5,225.1,747.5,225.1z M755.1,208.7c0.4-0.6,1-0.8,1.7-0.8c0.5,0,0.9,0.2,1.1,0.6c0.2,0.4,0.3,0.8,0.1,1.2
			c-0.1,0.3-0.2,0.6-0.4,0.8l-6.7,7.9c-0.2,0.3-0.5,0.5-0.8,0.7c-0.3,0.1-0.6,0.2-0.9,0.2c-0.5,0-0.9-0.2-1.1-0.6
			c-0.2-0.4-0.3-0.8-0.1-1.2c0.1-0.3,0.2-0.5,0.4-0.7L755.1,208.7z"/>
		<path class="st2" d="M772.7,223.3c0.1-0.5,0.4-0.9,0.8-1.2c0.4-0.3,0.9-0.5,1.3-0.5c0.4,0,0.7,0.1,0.8,0.2
			c0.2,0.2,0.3,0.4,0.5,0.7l11.8,26.9l7-26.1c0.1-0.5,0.4-0.9,0.8-1.2c0.4-0.3,0.9-0.5,1.3-0.5c0.5,0,0.8,0.2,1.1,0.5
			c0.2,0.3,0.3,0.7,0.2,1.2l-8.5,31.9c-0.1,0.5-0.4,0.9-0.8,1.2c-0.4,0.3-0.9,0.5-1.3,0.5c-0.4,0-0.7-0.1-0.9-0.4
			c-0.2-0.2-0.3-0.5-0.5-0.8L774.6,229l-7,26.2c-0.1,0.5-0.4,0.9-0.8,1.2c-0.4,0.3-0.9,0.5-1.3,0.5c-0.5,0-0.8-0.2-1.1-0.5
			c-0.2-0.3-0.3-0.7-0.2-1.2L772.7,223.3z"/>
		<path class="st2" d="M816,223.3c0.1-0.5,0.4-0.9,0.8-1.2c0.4-0.3,0.9-0.5,1.3-0.5H835c0.5,0,0.8,0.2,1.1,0.5
			c0.2,0.3,0.3,0.7,0.2,1.2c-0.1,0.5-0.4,0.9-0.8,1.2c-0.4,0.3-0.9,0.5-1.3,0.5H819l-3.3,12.3h10.1c0.5,0,0.8,0.2,1.1,0.5
			c0.2,0.3,0.3,0.7,0.2,1.2c-0.1,0.5-0.4,0.9-0.8,1.2c-0.4,0.3-0.9,0.5-1.3,0.5h-10.1l-3.4,12.7h15.1c0.5,0,0.8,0.2,1.1,0.5
			c0.2,0.3,0.3,0.7,0.2,1.2c-0.1,0.5-0.4,0.9-0.8,1.2c-0.4,0.3-0.9,0.5-1.3,0.5h-16.8c-0.5,0-0.8-0.2-1.1-0.5
			c-0.2-0.3-0.3-0.7-0.2-1.2L816,223.3z"/>
		<path class="st2" d="M841.5,223.3c0.1-0.5,0.4-0.9,0.8-1.2c0.4-0.3,0.9-0.5,1.3-0.5h9.5c2.4,0,4.6,0.5,6.5,1.4
			c1.9,0.9,3.4,2.2,4.6,3.8c1.2,1.6,1.9,3.5,2.3,5.6c0.3,2.1,0.2,4.4-0.5,6.9c-0.7,2.4-1.7,4.7-3.2,6.9c-1.5,2.2-3.3,4-5.3,5.6
			c-2,1.6-4.2,2.9-6.6,3.8c-2.4,0.9-4.8,1.4-7.2,1.4h-9.5c-0.5,0-0.8-0.2-1.1-0.5c-0.2-0.3-0.3-0.7-0.2-1.2L841.5,223.3z M844.5,225
			l-7.6,28.5h7.8c2,0,3.9-0.4,5.8-1.1c1.9-0.8,3.7-1.8,5.4-3.1c1.6-1.3,3.1-2.8,4.3-4.5c1.2-1.7,2.1-3.6,2.6-5.5
			c0.5-2,0.6-3.8,0.4-5.5c-0.3-1.7-0.9-3.2-1.8-4.5c-0.9-1.3-2.2-2.3-3.7-3s-3.3-1.1-5.2-1.1H844.5z"/>
		<path class="st2" d="M877.5,223.3c0.1-0.4,0.4-0.8,0.8-1.2c0.4-0.4,0.9-0.6,1.4-0.6c0.5,0,0.9,0.2,1.1,0.6
			c0.2,0.4,0.2,0.8,0.1,1.3l-5.7,21.2c-0.3,1.2-0.4,2.4-0.2,3.4c0.2,1.1,0.6,2,1.1,2.8c0.6,0.8,1.3,1.4,2.3,1.9c1,0.5,2,0.7,3.3,0.7
			c1.2,0,2.4-0.2,3.6-0.7c1.2-0.5,2.3-1.1,3.3-1.9c1-0.8,1.9-1.7,2.7-2.8c0.8-1.1,1.3-2.2,1.6-3.4l5.7-21.3c0.1-0.4,0.4-0.8,0.8-1.2
			c0.4-0.4,0.9-0.6,1.4-0.6c0.5,0,0.9,0.2,1.1,0.6c0.2,0.4,0.2,0.8,0.1,1.2l-5.7,21.2c-0.5,1.7-1.2,3.3-2.3,4.8s-2.3,2.8-3.7,3.9
			c-1.4,1.1-2.9,2-4.6,2.6c-1.7,0.6-3.3,1-5,1c-1.7,0-3.2-0.3-4.5-1c-1.3-0.6-2.4-1.5-3.2-2.6c-0.8-1.1-1.3-2.4-1.6-3.9
			c-0.2-1.5-0.1-3.1,0.3-4.8L877.5,223.3z"/>
		<path class="st2" d="M935.2,229.6c-1-1.1-2.3-2.2-3.8-3.1c-1.5-0.9-3.3-1.4-5.3-1.4c-2,0-3.9,0.4-5.8,1.1c-1.9,0.7-3.7,1.8-5.3,3
			c-1.6,1.3-3,2.8-4.2,4.5c-1.2,1.7-2.1,3.6-2.6,5.5c-0.5,2-0.6,3.8-0.4,5.5c0.3,1.7,0.9,3.2,1.8,4.5c0.9,1.3,2.2,2.3,3.7,3
			c1.5,0.7,3.3,1.1,5.2,1.1c2.1,0,4.1-0.4,6.1-1.2c2-0.8,3.8-1.9,5.5-3.3c0.2-0.2,0.5-0.4,0.8-0.5c0.3-0.1,0.6-0.2,0.9-0.2
			c0.5,0,0.8,0.2,0.9,0.5c0.1,0.3,0.2,0.7,0.1,1.1c-0.2,0.6-0.4,1.1-0.9,1.4c-2.1,1.8-4.4,3.1-6.9,4.1c-2.5,1-5,1.5-7.5,1.5
			c-2.4,0-4.6-0.5-6.5-1.4c-1.9-0.9-3.4-2.2-4.6-3.8c-1.2-1.6-1.9-3.4-2.3-5.6c-0.3-2.1-0.2-4.4,0.5-6.9c0.7-2.4,1.7-4.7,3.2-6.9
			c1.5-2.1,3.2-4,5.3-5.6c2-1.6,4.2-2.9,6.6-3.8c2.4-0.9,4.8-1.4,7.2-1.4c2.5,0,4.7,0.5,6.6,1.4c1.9,1,3.4,2.3,4.6,3.9
			c0.1,0.2,0.2,0.4,0.3,0.7c0.1,0.3,0.1,0.6,0,0.9c-0.1,0.5-0.4,0.8-0.8,1.1c-0.4,0.3-0.8,0.4-1.3,0.4
			C935.8,230.1,935.4,230,935.2,229.6z"/>
		<path class="st2" d="M955.1,222.8c0.2-0.3,0.5-0.6,0.8-0.9c0.4-0.3,0.7-0.4,1.1-0.4c0.4,0,0.7,0.1,0.9,0.4
			c0.2,0.3,0.4,0.6,0.4,0.9l5.2,31.7c0,0.1,0,0.4-0.1,0.7c-0.1,0.4-0.4,0.8-0.8,1.2c-0.4,0.3-0.8,0.5-1.3,0.5
			c-0.8,0-1.2-0.3-1.3-1.1l-1.7-10.1h-15.5l-7.1,10.1c-0.2,0.3-0.5,0.6-0.9,0.8c-0.3,0.2-0.7,0.3-1,0.3c-0.5,0-0.9-0.2-1.1-0.5
			c-0.2-0.3-0.3-0.7-0.2-1.2c0.1-0.2,0.2-0.4,0.3-0.7L955.1,222.8z M955.3,228l-10.1,14.3h12.6L955.3,228z"/>
	</g>
	<g>
		<defs>
			<polygon id="SVGID_2_" points="214.8,152.8 145.6,193.2 133.2,200.5 28.2,261.7 28.2,43.9 133.2,105.2 145.6,112.4 			"/>
		</defs>
		<clipPath id="SVGID_3_">
			<use xlink:href="#SVGID_2_"  style="overflow:visible;"/>
		</clipPath>
		<g class="st3">
			
				<image style="overflow:visible;" width="654" height="1012" xlink:href="3D49899437706CBA.png"  transform="matrix(0.24 0 0 0.24 60.96 31.14)">
			</image>
		</g>
	</g>
	<linearGradient id="SVGID_4_" gradientUnits="userSpaceOnUse" x1="227.771" y1="92.2125" x2="205.8498" y2="200.7577">
		<stop  offset="0" style="stop-color:#F89732"/>
		<stop  offset="1" style="stop-color:#ED5030"/>
	</linearGradient>
	<polygon class="st4" points="133.2,43.9 133.2,261.7 319.9,152.8 	"/>
	<g>
		<path class="st1" d="M241.5,185.6c-0.1-0.1-0.2-0.2-0.3-0.3c-0.5-0.5-1.1-1.1-1.2-1.7c-0.1-0.7-0.5-1.4-1-1.7
			c-0.2-0.1-0.3-0.5-0.4-0.9c-0.1-0.4-0.2-0.8-0.4-0.9c0,0-0.1,0-0.1,0c-0.1,0-0.4,0.1-0.4,0.3c-0.1,0.2-0.3,1.7-0.3,2.8
			c0,0.3-0.1,0.5-0.2,0.7c-0.1,0.1-0.2,0.2-0.4,0.2c-0.1,0-0.2,0-0.3,0l0,0c-0.2,0-2-1.4-2.1-1.6c-0.1-0.1,0.1-0.4,0.3-0.7
			c0.1-0.2,0.3-0.4,0.3-0.6c0,0,0-0.1,0-0.1c-0.1-0.2-0.7-0.2-1.2-0.2c-0.7,0-1.4,0.1-1.8,0.2c-0.5,0.2-0.8,0.8-1,1.3
			c0,0.1-0.1,0.1-0.1,0.2c-0.1,0.1-0.1,0.1-0.1,0.1c-0.1,0-0.3-0.2-0.4-0.3c0,0-0.1-0.1-0.1-0.1c-0.1-0.1-0.4-0.3-0.6-0.3
			c-0.2,0-0.4,0.1-0.6,0.2c-0.1,0.1-0.2,0.2-0.3,0.2c-0.5,0.4-1.1,0.9-1.4,1c-0.5,0.1-0.5,0.4-0.4,0.9c0,0.5-0.6,1-1.4,1.2
			c-0.8,0.2-2.1,0.7-2.8,1.1c-0.5,0.3-0.5,0.6-0.6,1.1c0,0.2,0,0.3,0,0.5c0,0.1,0,0.2-0.1,0.3c-0.1,0.3-0.1,0.5,0.5,1.8
			c0.8,1.7,0.7,3.4,0.6,3.8c0,0.1,0,0.2,0.1,0.4c0.2,0.3,0.6,0.5,1,0.5c0.3,0,0.5-0.1,0.7-0.2c0.6-0.4,1.1-0.4,1.7-0.5
			c0.2,0,0.4,0,0.6-0.1c0.6-0.1,0.6-0.1,1.1-0.4c0.3-0.2,0.7-0.4,1.4-0.8c0.5-0.3,1-0.4,1.5-0.4c1.3,0,2.1,0.9,2.5,1.7
			c0.2,0.4,0.3,0.6,0.5,0.6c0.2,0,0.4-0.2,0.5-0.4c0.1-0.1,0.2-0.2,0.2-0.3c0.1-0.1,0.1-0.1,0.1-0.1c0.1,0,0.1,0.2,0.3,0.4
			c0.1,0.2,0.2,0.6,0.5,1c0.6,1.2,2,1.9,2.9,1.9c0.6,0,1.2-0.1,1.8-0.3c0.2,0,0.5-0.1,0.7-0.1c0.8-0.1,0.8-0.4,1-1l0,0
			c0.1-0.6,0.7-1.9,1.3-3.2l0.2-0.4c0.7-1.5,0-3.3-0.4-3.8C243.1,187.7,242.1,186.3,241.5,185.6z"/>
		<path class="st1" d="M243.4,145.3C243.4,145.3,243.5,145.3,243.4,145.3C243.5,145.3,243.5,145.3,243.4,145.3l-0.2-0.3
			c0,0,0,0-0.1,0l-0.2,0.2c0,0,0,0,0,0.1c0,0,0,0,0,0c0,0,0,0,0,0L243.4,145.3z"/>
		<path class="st1" d="M241.7,111.5c0.6,0,1.1-0.2,1.2-0.4c0-0.1,0-0.3-0.2-0.4c-0.3-0.2-0.7-0.3-1.1-0.3c-0.4-0.1-0.7-0.1-0.8-0.3
			c-0.1-0.2-0.3-0.3-0.5-0.3c-0.2,0-0.3,0.1-0.3,0.2c-0.1,0.2-0.1,0.5,0.1,0.8C240.3,111.1,241.1,111.5,241.7,111.5z"/>
		<path class="st1" d="M242.4,145.9C242.4,145.9,242.4,145.9,242.4,145.9C242.4,145.9,242.4,145.8,242.4,145.9l-0.3-0.1c0,0,0,0,0,0
			c-0.3,0.2-0.3,0.3-0.3,0.4c0,0.1,0.1,0.1,0.2,0.1C242.3,146.2,242.4,145.9,242.4,145.9z"/>
		<path class="st1" d="M245.7,177.9c-0.2-0.1-0.4-0.3-0.4-0.5c0-0.1,0-0.1-0.1-0.2c0-0.1-0.1-0.1-0.1-0.1l-0.4-0.2c0,0,0,0,0,0
			c0,0-0.1,0-0.2,0c0,0,0,0.1,0,0.2l0,0c0,0.3,0.1,0.7,0.3,0.8c0.3,0.2,0.6,0.3,0.8,0.3c0,0,0,0,0,0c0,0,0,0,0,0
			c0.1,0,0.2,0,0.2-0.1C245.9,178,245.8,178,245.7,177.9z"/>
		<path class="st1" d="M241.5,177.1c-0.2,0-0.3,0.2-0.3,0.4c0,0.1,0,0.2,0.1,0.3c0.1,0.1,0.3,0.2,0.6,0.2l0,0c0.7,0,1.3-0.5,1.7-0.8
			c0.1-0.1,0.1-0.2,0.1-0.2c0,0,0,0,0,0c0,0,0,0,0,0c0,0,0.1,0,0.1,0c0.1-0.1,0.1-0.3,0.1-0.4c-0.1-0.2-0.6-0.5-1.2-0.8c0,0,0,0,0,0
			c0,0-0.1,0-0.1,0.2c0,0.1,0.2,0.2,0.5,0.4c0.2,0.1,0.5,0.3,0.5,0.4c0.1,0.1,0.1,0.2,0.1,0.2c0,0,0,0,0,0c0,0-0.2-0.1-0.4-0.2
			c-0.2,0-0.5,0.2-0.5,0.2c0,0,0,0,0,0c0,0.1-0.1,0.2-0.3,0.2c-0.1,0-0.3,0-0.4,0l0,0c-0.1,0-0.2,0-0.3,0
			C241.6,177,241.6,177,241.5,177.1z M241.8,177.9L241.8,177.9L241.8,177.9C241.8,177.9,241.8,177.9,241.8,177.9z"/>
		<path class="st1" d="M239.8,176.8c-0.1-0.1-0.1-0.1-0.2-0.1c-0.2-0.2-0.7-0.4-1.3-0.6c-0.4-0.1-0.8-0.3-1.1-0.5c0,0,0,0,0,0
			c0,0,0,0,0,0c-0.5-0.2-1-0.4-1.5-0.4c-0.3,0-0.5,0.1-0.6,0.1c0,0-0.1,0.1-0.1,0.1c-0.2,0.2-0.5,0.5-0.8,0.5
			c-0.3,0.1-0.4-0.5-0.4-1.1c0-0.3-0.2-0.4-0.6-0.4c-0.4,0-0.8,0.1-1,0.1c0,0-0.5,0.1-0.6,0.2c0,0,0,0.1,0,0.1
			c0,0.1,0.1,0.1,0.6,0.2c0.2,0.1,0.6,0.1,0.6,0.2c0,0.1,0,0.2-0.1,0.4c0,0.1-0.1,0.1-0.1,0.2c0,0.1,0,0.2,0,0.2
			c0.1,0.1,0.2,0.2,0.4,0.3c0.1,0,0.3,0.1,0.6,0.2c0.5,0.1,1.1,0.3,1.5,0.4c0.5,0.2,1,0.7,1.1,1c0,0.1,0,0.2-0.1,0.2
			c-0.3,0.2-0.4,0.5-0.4,0.7c0,0.1,0.1,0.2,0.5,0.2c0.2,0,0.4,0,0.7,0.1c0.2,0,0.3,0,0.5,0c0.3,0,0.5,0,0.7,0c0.3,0,0.6,0,0.7-0.1
			c0.2-0.1,0.3-0.2,0.4-0.3c0.1-0.1,0.2-0.2,0.3-0.2c0.1,0,0.2,0,0.3,0.1c0.1,0.1,0.2,0.2,0.4,0.3c0.5,0.4,1.3,1,1.9,1
			c0.2,0,0.4,0,0.4-0.1c0-0.1-0.1-0.2-0.4-0.4c-0.1-0.1-0.2-0.2-0.3-0.3c-0.3-0.3-0.8-1-0.9-1.4
			C240.6,177.5,240.1,177.1,239.8,176.8z"/>
		<path class="st1" d="M241.3,146.3c-0.1,0-0.7,0.4-0.7,0.6c0,0,0,0.1,0.1,0.1c0,0,0,0,0.1,0c0.2,0,0.9-0.5,1-0.5c0,0,0,0,0,0
			c0,0,0,0,0,0L241.3,146.3z"/>
		<path class="st1" d="M240.2,147C240.2,147,240.2,147,240.2,147c-0.2,0.1-0.5,0.6-0.5,0.7c0,0,0,0,0.1,0c0,0,0.1,0,0.1,0
			c0.3-0.1,0.5-0.6,0.6-0.6c0,0,0,0,0,0c0,0,0,0,0,0L240.2,147z"/>
		<path class="st1" d="M236.5,150.5c0,0.3-0.2,1.6-0.6,1.6c-0.4,0.1-1.1,0.2-1.2,0.5c-0.1,0.3-0.4,0.6-0.8,0.7
			c-0.1,0-0.3,0.1-0.5,0.1c-0.4,0.1-0.9,0.1-1.1,0.5c-0.3,0.4-0.8,0.7-0.8,0.7c-0.1,0.1-0.5,0.3-0.4,0.5c0,0.1,0.1,0.1,0.2,0.1l0,0
			c0.1,0,0.1,0,0.2,0.1c0.1,0.1,0.1,0.4,0.1,0.6c0,0.1,0,0.2,0,0.3c0,0.1,0.1,0.1,0.2,0.1c0.2,0,0.4-0.1,0.4-0.5
			c0.1-0.5,0.1-0.9,0.1-1.1c0-0.1,0-0.2,0.1-0.2c0.1-0.1,0.1-0.1,0.2-0.1c0.1,0,0.2,0,0.4-0.1c0,0,0,0,0,0c-0.2,0.1-0.3,0.2-0.3,0.3
			c-0.2,0.1-0.2,0.6-0.3,0.7c0,0,0,0,0,0c0,0,0.2,0.1,0.4,0.1c0.1,0,0.2-0.1,0.2-0.1c0-0.2,0.1-0.3,0.2-0.3c0,0,0.1,0,0.1,0
			c0,0,0.1,0,0.2,0c0.1,0,0.2,0,0.3-0.1c0.1-0.1,0.2-0.2,0.2-0.4c0-0.1-0.1-0.3-0.5-0.3c-0.1,0-0.2,0-0.3,0c0,0,0,0,0,0
			c0.2-0.1,0.4-0.1,0.6-0.1c0.2,0,0.2,0.1,0.2,0.2c0,0.1,0,0.2,0.1,0.3c0.1,0.1,0.1,0.1,0.2,0.1c0.2,0,0.4-0.1,0.7-0.4
			c0.3-0.3,1.1-0.5,1.6-0.7c0.2-0.1,0.4-0.1,0.5-0.2c0.2-0.1,0.1-0.3,0.1-0.6c0-0.3-0.1-0.6,0.1-0.8c0,0,0.1-0.1,0.1-0.2
			c0.3-0.4,0.7-0.9,0.6-1.4c0-0.3-0.2-0.7-0.3-1c-0.1-0.3-0.2-0.7-0.2-0.7c0,0,0.2-0.1,0.4-0.1c0.2,0,0.3,0,0.4,0.1
			c0.1,0.1,0.6,0,0.7-0.3c0.1-0.1,0.3-0.2,0.6-0.3c0.2,0,0.3-0.1,0.3-0.2c0,0,0-0.1,0-0.2c0-0.4-0.3-0.6-0.7-0.7
			c-0.4-0.1-0.6-0.1-0.6-0.1c0-0.1-0.5-0.9-0.7-0.9c0,0-0.1,0-0.1,0.1c0,0.1,0,0.2,0,0.4c0,0.4,0,0.9-0.2,1c-0.1,0-0.1,0.1-0.2,0.1
			c-0.4,0.3-0.8,0.6-0.8,0.9c0,0.2,0.1,0.3,0.2,0.4c0.1,0.2,0.1,0.3,0.1,0.4C236.6,149.9,236.5,150.3,236.5,150.5z"/>
		<path class="st1" d="M235.6,111.5c0.1,0,0.3,0,0.4,0c0.5,0,0.9-0.1,1.4-0.3c0.4-0.1,0.7-0.2,1.1-0.2c0.5,0,0.9-0.3,1-0.7
			c0.1-0.4-0.1-0.7-0.5-1c-0.6-0.4-1.2-0.4-1.7-0.5c-0.3,0-0.6-0.1-0.8-0.2c0,0,0,0,0,0c0,0,0,0,0,0c-0.1-0.1-0.3-0.1-0.5-0.1
			c-0.4,0-0.8,0.3-0.9,0.7c-0.2,0.6-0.2,1.4,0.1,1.9C235.3,111.4,235.4,111.5,235.6,111.5z"/>
		<path class="st1" d="M237.6,146.1C237.6,146.2,237.6,146.2,237.6,146.1c0.3,0.1,0.5-0.3,0.5-0.5c0,0,0,0,0,0
			c0.1,0,0.2,0.1,0.3,0.1c0,0,0.1,0,0.1,0c0,0,0,0,0,0c0,0,0,0,0,0c0,0,0-0.1-0.1-0.3c-0.1-0.2-0.2-0.5-0.2-0.8c0-0.2,0-0.6,0.1-0.8
			c0.1-0.5,0.2-0.5,0.2-0.5c0,0,0,0,0,0l0,0c0.1,0,0.2,0.1,0.2,0.1c0.1,0,0.1,0,0.1-0.1c0-0.1,0.1-0.2-0.1-0.8
			c-0.3-0.9-0.4-1.8-0.4-1.8c0-0.2,0-0.3,0-0.5c0-0.7,0-1.2-0.1-1.3c0,0,0,0-0.1,0c0,0-0.1,0-0.1,0.1c-0.2,0.4-0.7,1.3-0.6,1.9
			c0.1,0.5,0.1,1.6,0,2.2c0,0.2,0,0.3,0,0.4c0,0.1,0,0.1,0,0.2c0,0.2,0,0.3,0.1,0.8c0.1,0.3,0,0.7-0.1,1
			C237.6,145.9,237.5,146,237.6,146.1z"/>
		<path class="st1" d="M237.6,113L237.6,113c-0.1-0.1-0.2-0.1-0.3-0.1c-0.1,0-0.1,0-0.1,0.1c0,0,0,0,0,0c-0.1,0.3-0.2,0.6-0.5,0.8
			c-0.1,0.1-0.2,0.1-0.1,0.2c0,0.1,0.1,0.1,0.2,0.2c0.5,0.3,1,0.5,1.5,0.5c0.1,0,0.2,0,0.3,0c0,0,0,0,0,0c0.1-0.3,0.1-0.7-0.2-1
			C238.2,113.4,237.9,113.2,237.6,113z"/>
		<path class="st1" d="M229.2,169.2c-0.1-0.1-0.3-0.3-0.4-0.3c0,0,0,0,0,0c0,0,0,0,0,0l-0.2,0.3c-0.1,0.1-0.5,0.2-0.5,0.4
			c0,0,0,0-0.2,0c-0.1,0-0.2,0-0.4,0c-0.1,0-0.2,0-0.2,0c-0.2,0-0.7,0.5-0.7,0.7c0,0.1,0,0.1,0,0.2c0.1,0.1,0.4,0.1,0.4-0.2
			c0-0.1,0.1-0.2,0.3-0.2c0.2,0,0.4,0.1,0.5,0.1c0.1,0,0.2,0.2,0.2,0.3c0.1,0.2,0.1,0.3,0.3,0.4c0.1,0.1,0.3,0.1,0.3,0.1
			c0.1,0,0.2-0.1,0.2-0.2c0-0.1,0-0.2,0-0.3c0-0.1,0-0.1,0-0.2c0.1,0,0.1,0,0.2,0.1c0,0.1,0.1,0.1,0.1,0.1c0.1,0,0.1-0.1,0.1-0.1
			c0-0.2,0-0.4,0-0.6c0-0.2,0-0.3,0-0.4C229.4,169.4,229.3,169.3,229.2,169.2z"/>
		<path class="st1" d="M228.3,167.9c0,0.1-0.1,0.2-0.1,0.2c-0.1,0.2-0.1,0.4,0,0.6c0,0,0.1,0.1,0.1,0.1c0,0,0,0,0,0
			c0.1,0,0.1,0,0.2-0.1c0.4-0.4,0.6-1,0.4-1.5c0,0,0,0,0,0c-0.1,0-0.1,0-0.2,0c0,0-0.1,0-0.1,0c0,0,0,0,0,0c0,0,0,0,0,0c0,0,0,0,0,0
			c0,0,0,0,0,0c-0.2,0-0.2,0-0.3,0.1c0,0.1,0.1,0.2,0.1,0.2c0,0,0,0,0.1,0c0,0.1,0,0.2-0.1,0.2C228.4,167.8,228.4,167.8,228.3,167.9
			z"/>
		<path class="st1" d="M225.8,166.4c0.1,0.1,0.1,0.3,0.2,0.4c0,0.2,0.1,0.3,0.3,0.3c0.2,0,0.6-0.1,0.8-0.1c0.2,0,0.2,0,0.2,0
			c0,0,0,0.1,0.1,0.1c0.1,0.1,0.2,0.3,0.1,0.4c0,0,0,0.1-0.1,0.1c-0.1,0-0.1,0.1-0.1,0.1c0,0.1,0.3,0.2,0.4,0.2c0.1,0,0.2,0,0.3-0.1
			c0,0,0.1-0.1,0-0.2c-0.1-0.4-0.3-1-0.6-1.1c-0.3-0.1-0.8-0.3-0.8-0.5c0-0.1,0.1-0.3,0.2-0.5c0.1-0.2,0.2-0.5,0.2-0.7
			c0-0.2,0-0.4,0-0.5c-0.1-0.2-0.2-0.3-0.4-0.3c0,0-0.1,0-0.1,0c0,0-0.1,0-0.1,0c-0.3,0-0.5,0.2-0.6,0.5c-0.1,0.4-0.1,0.6-0.2,0.8
			C225.6,165.5,225.6,166.1,225.8,166.4z"/>
		<path class="st1" d="M227.8,168.3c-0.1,0-0.2,0-0.3,0l-0.1,0.1c0,0,0,0,0,0c0,0.1,0,0.2-0.1,0.3c0,0,0,0.1,0,0.1
			c0,0.1-0.1,0.3,0,0.4c0,0.1,0.1,0.2,0.3,0.2c0,0,0.1,0,0.1,0c0,0,0,0,0,0C227.7,169,227.7,168.6,227.8,168.3
			C227.8,168.3,227.8,168.3,227.8,168.3z"/>
		<path class="st1" d="M226.9,167.3c-0.1,0-0.2,0.1-0.2,0.2l0,0.1c-0.1,0.4,0,0.7,0.1,1l0,0.1c0,0.1,0.1,0.1,0.1,0.1c0,0,0,0,0,0
			c0,0,0.1,0,0.1,0c0.2-0.1,0.3-0.4,0.4-0.6c0-0.3-0.1-0.5-0.2-0.7C227.2,167.3,227,167.3,226.9,167.3z"/>
		<path class="st1" d="M226.1,162.1C226.1,162.1,226.1,162.1,226.1,162.1c0.2,0,0.7-1.1,0.7-1.2c0,0,0.1-0.2,0.1-0.3
			c0.1-0.3,0.2-0.4,0.1-0.5c0,0,0,0-0.1,0c-0.2,0-0.4,0-0.4,0c0,0,0,0,0,0c-0.3,0.2-0.7,0.7-0.7,1.1
			C225.9,161.7,225.9,162,226.1,162.1z"/>
		<path class="st1" d="M224.1,169.6c0,0,0,0.1,0.1,0.1c0.3,0,1.4-1.1,1.5-1.2c0,0,0-0.1,0-0.1c0,0-0.1,0-0.1,0c-0.1,0-0.3,0-0.4,0.1
			C224.9,168.5,224.1,169.3,224.1,169.6z"/>
		<path class="st1" d="M220.5,163.9c0-0.1,0.1-0.2,0.2-0.3c0.1-0.1,0.2-0.3,0.1-0.4c0-0.1-0.1-0.1-0.2-0.1c-0.4-0.1-0.5-0.1-0.5-0.1
			c0,0,0,0,0,0c-0.3,0.2-0.5,0.5-0.6,0.8c0,0.1,0,0.2,0,0.2c0.1,0.1,0.3,0.2,0.6,0.2C220.3,164.2,220.5,164.1,220.5,163.9z"/>
		<path class="st1" d="M230.2,175.6C230.1,175.6,230.1,175.6,230.2,175.6L230.2,175.6C230.1,175.6,230.1,175.6,230.2,175.6
			c0,0.1,0,0.2-0.1,0.3c0,0.1-0.1,0.2,0,0.3c0,0,0.1,0,0.1,0.1l0,0c0.2,0,0.4,0.1,0.6,0.1l0.5,0.1c0.1,0,0.2,0,0.3,0
			c0.1,0,0.2,0,0.3-0.1c0.1,0,0.2-0.2,0.1-0.3c0,0,0-0.1-0.1-0.1c-0.4-0.3-0.8-0.5-1.3-0.5C230.4,175.5,230.3,175.5,230.2,175.6z"/>
		<path class="st1" d="M230.4,173.1L230.4,173.1c-0.1-0.1-0.2-0.1-0.3-0.1c0,0,0,0,0,0c-0.2,0-0.3,0.1-0.4,0.3c0,0.1,0,0.3,0.1,0.4
			c0,0.2,0,0.3-0.1,0.5l0,0c0,0.1,0,0.3,0,0.4c0.1,0.1,0.2,0.2,0.3,0.2c0,0,0.1,0,0.1,0c0.2-0.1,0.1-0.3,0.1-0.4
			c0-0.1,0-0.3,0.1-0.3c0,0,0.1-0.1,0.2-0.1c0.1,0,0.2-0.1,0.2-0.1c0.1-0.1,0.1-0.3,0-0.4C230.7,173.3,230.6,173.2,230.4,173.1z"/>
		<path class="st1" d="M228.5,179.1c-0.5,0.1-0.9,0.3-0.9,0.6c0,0.2,0.2,0.4,0.4,0.4c0.1,0,0.2,0,0.3-0.1c0.1-0.1,0.5-0.3,0.8-0.4
			c0.4-0.2,0.7-0.3,0.7-0.4c0,0,0,0,0-0.1c0-0.1-0.1-0.1-0.3-0.1C229.1,178.9,228.5,179.1,228.5,179.1z"/>
		<path class="st1" d="M225.7,174.3c0.2-0.1,0.4-0.1,0.6-0.1l2.1-0.1c0.1,0,0.3,0,0.4-0.1c0.1-0.1,0.1-0.2,0-0.3
			c-0.1-0.1-0.2-0.3-0.4-0.3c-0.2,0-0.3,0-0.5,0.1c-0.1,0-0.1,0-0.2,0.1c-0.1,0-0.2,0-0.3,0c-0.1,0-0.3,0-0.4,0c-0.2,0-0.3,0-0.5,0
			C226.1,173.5,225.6,173.8,225.7,174.3C225.6,174.2,225.6,174.3,225.7,174.3C225.7,174.3,225.7,174.3,225.7,174.3
			C225.7,174.3,225.7,174.3,225.7,174.3z"/>
		<path class="st1" d="M227,179.2c0.3,0,0.5,0,0.6-0.1c0.2-0.1,0.4-0.5,0.4-0.6c0,0,0-0.1-0.1-0.1c-0.1,0-0.1,0-0.2,0.1
			c-0.5,0.2-1.7,0.2-1.7,0.2c0,0,0,0,0,0c-0.2,0.1-0.3,0.2-0.3,0.3c0,0.1,0.1,0.1,0.4,0.1c0.1,0,0.3,0,0.5,0
			C226.6,179.2,226.8,179.2,227,179.2z"/>
		<path class="st1" d="M224.9,175.6c0,0,0,0.1,0.1,0.1c0,0.1,0.1,0.1,0.1,0.2c0.1,0.2,0.1,0.3,0.2,0.6c0,0.1,0,0.2,0,0.3
			c0,0.2,0,0.3,0,0.5c0.1,0.2,0.3,0.3,0.4,0.3c0.1,0,0.1,0,0.2-0.1c0,0,0,0,0,0c0-0.3,0-0.6,0-0.8c0-0.1,0-0.3,0.1-0.4
			c0.1-0.1,0.2-0.1,0.3-0.1l0,0c0.1,0,0.1,0,0.2,0c0.1,0.1,0.1,0.2,0.2,0.3c0,0,0,0.1,0.1,0.1c0.1,0.2,0.4,0.4,0.6,0.3
			c0.1,0,0.2-0.1,0.3-0.2c0.1-0.1,0-0.2,0-0.3c-0.1-0.1-0.2-0.2-0.3-0.2c-0.1,0-0.1-0.1-0.2-0.1c-0.2-0.1-0.2-0.4-0.2-0.6
			c0.2,0,0.5,0,0.6-0.1c0.2-0.2,0.2-0.3,0.2-0.4c-0.1-0.3-0.7-0.3-1-0.3c-0.1,0-0.2,0-0.3,0c-0.4,0-0.9,0.1-1.2,0.2
			C224.8,175.1,224.8,175.3,224.9,175.6z"/>
		<path class="st1" d="M226,180C226,180,226,180,226,180c0.1,0,0.2-0.1,0.2-0.2c0-0.2-0.1-0.4-0.3-0.4c-0.1,0-0.1,0-0.2,0
			c-0.2,0-0.4,0.1-0.4,0.1c0,0,0,0,0,0c0,0,0,0,0,0C225.3,179.7,225.8,180,226,180z"/>
		<path class="st1" d="M224.3,178.8c-0.3,0-0.8,0.2-0.8,0.4c0,0.1,0.1,0.1,0.3,0.1c0.1,0,0.2,0,0.4,0c0.1,0,0.3,0,0.4,0
			c0.3,0,0.6,0,0.7-0.2c0-0.1,0-0.1,0-0.1c0,0-0.1-0.1-0.7-0.1C224.5,178.8,224.3,178.8,224.3,178.8z"/>
		<path class="st1" d="M219.7,173.9c0,0.3,0.2,0.7,0.3,1c0.1,0.2,0.2,0.4,0.2,0.5c0,0,0,0.1,0,0.1c0.1,0.4,0.1,0.5,1,0.6
			c0.6,0,0.9,0.1,1.1,0.2c0.1,0.1,0.3,0.1,0.5,0.1c0.1,0,0.3,0,0.4,0c0.5,0,0.8-0.2,0.9-0.7c0-0.2,0-0.3,0.1-0.5
			c0-0.5,0.1-0.9,0.4-1c0.5-0.2,0.7-0.4,0.7-0.5c0,0,0-0.1-0.1-0.1c-0.2-0.1-0.7-0.9-0.6-1.2c0.1-0.1,0.2-0.3,0.4-0.4c0,0,0,0,0,0
			c0,0,0,0,0,0c0.3-0.2,0.5-0.4,0.5-0.6c0-0.1-0.1-0.2-0.2-0.3c-0.4-0.2-0.5-0.4-0.6-0.6c-0.1-0.1-0.1-0.2-0.3-0.3c0,0,0,0,0,0
			c-0.1,0-0.3,0.2-0.3,0.3c-0.1,0.1-0.2,0.1-0.3,0.2c-0.1,0.1-0.2,0.1-0.3,0.2c0,0,0,0,0,0c0,0,0,0,0,0l-0.1,0.1
			c-0.1,0.1-0.2,0.2-0.4,0.3c-0.5,0.4-1,0.9-1.3,1.1c-0.1,0-0.1,0.1-0.2,0.1c-0.4,0.3-0.6,0.4-1,0.4c-0.1,0-0.3,0-0.4,0l0,0
			c0,0,0,0,0,0C219.8,173.3,219.7,173.5,219.7,173.9z"/>
		<path class="st1" d="M223.1,179.1c0.1,0,0.3,0,0.3-0.1c0-0.1-0.1-0.2-0.3-0.3c-0.3-0.1-0.7-0.2-1-0.2c0,0,0,0-0.1,0
			c0.1-0.1,0.3-0.2,0.3-0.3c0-0.1-0.1-0.2-0.5-0.2c-0.7,0.1-1.4,0.1-1.6,0.1c-0.2,0-0.4-0.1-0.4-0.1c-0.2-0.1-1.1-0.4-1.5-0.4
			c0,0,0,0-0.1,0c-0.2,0-0.4,0.2-0.4,0.4c0,0.1,0,0.4,0.6,0.5c0.3,0,0.7,0.1,1.1,0.2c0.6,0.1,1.2,0.3,1.6,0.3c0.5,0,1,0.1,1.4,0.1
			C222.9,179.1,223.1,179.1,223.1,179.1z"/>
		<path class="st1" d="M218.3,176.9c-0.1-0.4,0.1-0.6,0.2-0.8c0.1-0.2,0.2-0.4,0-0.5c-0.3-0.2-0.5-0.3-0.7-0.4
			c-0.1,0-0.2-0.1-0.3-0.2c-0.4-0.2-0.5-0.6-0.7-0.8c0,0,0-0.1,0-0.1c0-0.1-0.3-0.2-0.6-0.5c-0.5-0.3-1-0.7-1.3-1.1
			c-1-1.2-2.1-1.4-2.2-1.4c-0.3,0-0.4,0.1-0.5,0.2c0,0.1,0.1,0.3,0.3,0.5c0.7,0.5,1,1,1.6,1.8c0.1,0.2,0.3,0.5,0.5,0.8
			c0.7,1.1,1.7,2.6,2.2,2.9c0.3,0.2,0.6,0.2,0.9,0.2c0.3,0,0.4-0.1,0.6-0.2C218.3,177.2,218.3,177,218.3,176.9z"/>
		<path class="st1" d="M204.6,169.2c-0.1-0.2-0.1-0.3-0.2-0.3c0,0,0,0,0,0c-0.2,0-0.3,0.1-0.3,0.1c0,0,0,0,0,0c0,0.1,0,0.2-0.1,0.3
			c-0.1,0.6-0.2,1.2,0,1.5c0.2,0.2,0.5,0.4,0.8,0.4c0.2,0,0.3-0.1,0.3-0.4c0-0.5-0.1-1-0.3-1.3C204.7,169.4,204.7,169.3,204.6,169.2
			z"/>
		<path class="st1" d="M189.1,117.9c0.2,0,0.3,0.4,0.4,0.7c0,0.2,0.1,0.3,0.2,0.5c0.1,0.2,0.7,0.2,1,0.2c0.3,0,0.6,0,0.9-0.1
			c0.1,0,0.1-0.1,0.2-0.1c0-0.1,0-0.2,0-0.2c-0.3-0.4-0.7-1-0.8-1.4c-0.3-0.5-0.1-0.9,0.6-2.9l0.2-0.6c0.7-2.1,2.1-3.5,4.3-4.6
			c1.6-0.8,2.1-1.4,2.1-2.5c0-0.4-0.2-0.5-0.3-0.5c-0.5,0-1.3,0.8-1.3,0.9c-0.1,0.2-1.4,0.7-2.3,0.9c-0.8,0.2-2.8,2.1-2.8,2.5
			c0,0.4-2,5.1-2.6,5.8c-0.2,0.3-0.3,0.5-0.2,0.7C188.4,117.6,188.8,117.8,189.1,117.9z"/>
		<path class="st1" d="M187.3,181.1c-0.1-0.1-0.2-0.1-0.3,0c-0.1,0.1-0.1,0.3-0.2,0.4c-0.2,0.3-0.3,0.7-0.7,1
			c-0.2,0.1-0.5,0.2-0.7,0.3c-0.4,0.2-0.9,0.3-0.9,0.8c-0.1,0.4-0.1,0.7-0.1,1c0,0.3,0,0.5-0.1,0.8c0,0.3-0.2,0.4-0.2,0.6
			c-0.1,0.2-0.2,0.3-0.2,0.7c0,0.6,0.1,1.5,0.5,1.8c0.2,0.1,0.4,0.2,0.6,0.2c0.3,0,1.1-0.1,1.5-1.3c0.2-0.6,0.4-1.3,0.6-1.9
			c0.3-0.8,0.5-1.4,0.5-1.8c0-0.5,0-0.9,0.1-0.9c0.1,0,0.1,0,0.1-0.1c0.1-0.1,0.1-0.3,0-0.8C187.7,181.6,187.5,181.3,187.3,181.1z"
			/>
		<path class="st1" d="M264,125.8c-0.3-0.4-1-1.1-1-1.2c-0.1-0.1-1.1-0.2-1.2-0.2c0,0,0,0,0,0c-0.1,0.1-0.2,0.4-0.4,0.4c0,0,0,0,0,0
			c-0.1-0.1-0.1-0.5,0-0.8c0-0.1,0-0.2,0-0.2c0-0.2-0.3-0.4-0.9-0.8c-0.2-0.1-0.4-0.3-0.7-0.5c-0.2-0.1-0.4-0.2-0.6-0.4
			c-1-0.7-2.4-1.7-3.6-2.1c-0.3-0.1-0.7-0.2-1.2-0.2c-0.9,0-1.7,0.3-2.1,0.4c-0.1,0-0.2,0.1-0.2,0.1c-0.1,0-0.2,0.1-0.3,0.2
			c-0.2,0.1-0.4,0.2-0.6,0.2c-0.1,0-0.1,0-0.2,0c-0.2-0.1-0.8-0.2-1.2-0.2c-0.4,0-0.9,0-1.5,0.1c-0.3,0-0.5,0-0.6-0.1
			c-0.2-0.2-0.2-0.6-0.2-1.1c0-0.1,0-0.3,0-0.4c0-0.5-1-0.7-1.8-0.7c-0.3,0-0.6,0-0.8,0.1c-0.2,0.1-0.5,0.1-0.7,0.1
			c-0.4,0-0.9-0.1-1.2-0.6c-0.4-0.5-0.7-0.9-1-1.2c-0.1-0.1-0.2-0.2-0.3-0.3c-0.4-0.4-1.5-0.6-2.8-0.7c-0.4,0-0.7-0.1-1.1-0.1
			c-0.1,0-0.2,0-0.3,0c-0.9,0-0.9,0.7-1,1.2c0,0.2,0,0.4-0.1,0.5c-0.1,0.2-0.6,0.4-1.3,0.4c-0.9,0-1.8-0.2-2.1-0.5
			c-0.3-0.2-0.4-0.3-0.5-0.3c-0.2,0-0.2,0.2-0.3,0.7c0,0.2-0.1,0.4-0.1,0.7c-0.1,0.3-0.2,0.5-0.3,0.5c-0.3,0-0.8-0.8-1-1.3
			c0-0.1-0.1-0.1-0.1-0.2c-0.3-0.5-0.1-1,0.1-1.5l0,0c0.2-0.6,0-0.9-1.6-1.6c-0.8-0.4-1.2-0.4-1.4-0.2c-0.1,0.1-0.1,0.4-0.1,0.6
			c0,0.1,0,0.2,0,0.2c0,0.2-0.1,0.3-0.4,0.3c-0.6,0-1.7-0.5-2-0.9c-0.3-0.5-1.6-0.5-2.6-0.6c-0.4,0-0.7,0-1-0.1
			c-0.3-0.1-0.6-0.1-0.8-0.1c-0.5,0-0.9-0.1-1-0.2c-0.1-0.1,0.6-0.9,1.2-1.5c0.4-0.4,0.8-0.9,1.2-1.2c1-1.2-0.9-3.1-1-3.1
			c-0.2-0.2-0.7-0.2-1.2-0.2c-0.5,0-1,0-1-0.2c-0.1-0.4-1.1-0.6-1.4-0.6c0,0-0.1,0-0.1,0c0,0,0,0,0,0c0-0.1,0.3-0.3,0.4-0.4
			c0.1-0.1,0.2-0.2,0.3-0.3c0-0.1,0-0.1,0-0.2c-0.1-0.3-0.8-0.5-1.2-0.5c-0.1,0-0.2,0-0.3,0c-0.6,0.2-1,1-1.2,1.8
			c-0.1,0.7-0.3,1-0.8,1.2c-0.2,0.1-0.3,0.2-0.4,0.3c-0.2,0.2-0.4,0.4-0.9,0.4c-0.8,0-1.6,0.2-2,0.4c-0.1,0.1-0.3,0.1-0.4,0.2
			c-0.3,0.2-0.6,0.4-1.3,0.4c-0.9,0-1.6,0.9-2.3,1.7c-0.1,0.1-0.1,0.1-0.2,0.2c-0.4,0.5-0.2,0.9,0,1.2c0.1,0.2,0.3,0.4,0.2,0.6
			c-0.1,0.3-1,0.4-1.8,0.5c-0.8,0.1-1.5,0.2-1.6,0.4c-0.2,0.6,0.9,2.3,0.9,2.3c0.1,0.2,0.2,0.4,0.1,0.5c-0.1,0.1-0.2,0.2-0.4,0.2
			c-0.2,0-0.6-0.4-0.9-0.7c-0.2-0.2-0.3-0.3-0.4-0.4c0,0-0.1,0-0.1,0c-0.3,0-0.9,0.4-1.5,0.8c-0.2,0.1-0.4,0.3-0.6,0.4
			c-0.8,0.5-0.6,2.4-0.4,3.9c0.1,0.4,0,0.6-0.1,0.7c-0.1,0.1-0.1,0.1-0.2,0.1c-0.1,0-0.1,0-0.2,0c-0.1,0-0.1,0-0.2,0c0,0,0,0,0,0
			c-0.2-0.2-0.1-1.7,0-2.5c0-0.2,0-0.4,0-0.5c0-0.3,0-0.4-0.1-0.6c-0.1-0.3-0.2-0.7,0-1.6c0.3-1.4-0.6-1.6-1.2-1.8l0,0
			c-0.1,0-0.2,0-0.2,0c-0.4,0-0.5,0.4-0.8,1.3c-0.2,0.8-0.6,1.6-0.9,2.2c-0.1,0.2-0.2,0.4-0.3,0.6c-0.2,0.6,0.4,1.8,1,2.6
			c0.3,0.3,0.3,0.6,0.2,0.8c-0.1,0.2-0.3,0.2-0.4,0.2c-0.2,0-0.8-0.7-1.3-1.2c-0.5-0.5-1.1-0.7-1.7-0.9c-0.2-0.1-0.5-0.2-0.7-0.2
			c-0.2-0.1-0.4-0.1-0.6-0.1c-0.2,0-0.4,0.1-0.4,0.2c0,0.1,0,0.2,0.2,0.2c0.2,0.1,0.4,0.4,0.4,0.8c0,0.2-0.1,0.4-0.3,0.5
			c-0.5,0.2-1,0.3-1.6,0.3c-0.1,0-0.2,0-0.3,0c-0.2,0-0.3,0-0.4,0.1c-0.1,0-0.2,0.1-0.4,0.1c-0.2,0-0.4-0.1-0.8-0.2
			c-0.1-0.1-0.3-0.1-0.4-0.1c-1,0-2.2,1.3-2.6,1.9c-0.2,0.2-0.3,0.4-0.4,0.5c-0.2,0.3-0.3,0.4-0.4,0.4c0,0-0.1,0-0.1-0.1
			c0,0-0.1,0-0.1-0.1c-0.1,0-0.1-0.1-0.1-0.1c0,0,0,0,0,0c-0.1-0.1-0.1-0.2,0-0.3c0.1-0.2,0.3-0.5,0.5-0.6c0.1,0,0.1-0.1,0.1-0.2
			c0-0.4-0.7-0.9-0.9-1c0,0-0.1,0-0.1,0c-0.3,0-0.6,0.7-0.7,1.3c-0.1,0.4,0,0.8,0.1,1.1c0,0,0,0,0,0c0,0,0,0,0,0l0,0
			c0.1,0.2,0.1,0.4,0.1,0.6c0,0.2-0.1,0.2-0.2,0.2c-0.1,0-0.3-0.1-0.6-0.2c-0.1,0-0.1,0-0.2,0c-0.4,0-0.9,0.5-1.2,0.9
			c-0.1,0.1-0.2,0.3-0.3,0.3c-0.3,0.2-0.1,0.4,0,0.6c0.1,0.1,0.2,0.2,0.2,0.4c0,0,0.1,0.1,0,0.1c0,0-0.1,0.1-0.2,0.1
			c-0.3,0-0.9-0.2-1.2-0.4c-0.3-0.2-0.5-0.2-0.6,0c-0.1,0.1,0,0.3,0.1,0.5c0.1,0.2,0.2,0.3,0.3,0.4c0.1,0.1,0.2,0.3,0.3,0.4
			c0,0.1,0,0.1,0,0.1c0,0-0.1,0.1-0.3,0.1c-0.1,0-0.1,0-0.2,0c-0.3,0-0.9-0.5-1-0.8c-0.1-0.3-0.2-1.2-0.2-1.6l0-0.1
			c0-0.2-0.2-0.4-0.5-0.6c-0.2-0.2-0.4-0.3-0.6-0.5c-0.1-0.1-0.2-0.2-0.2-0.3c0,0,0,0,0,0c0,0,0,0,0.1,0c0.7,0.4,1.5,0.7,2.1,1
			c0.5,0.2,0.8,0.3,1.1,0.3c0.4,0,0.7-0.2,1-0.5c0.5-0.4,0.4-0.6,0.4-1.1c0-0.1,0-0.2,0-0.4c0-0.5-0.6-0.8-1.1-1.2
			c-0.3-0.2-0.7-0.4-1-0.7c-0.8-0.8-1.3-0.9-2-0.9c-0.5,0-1.2-0.4-1.5-0.6c0,0,0,0,0,0c-0.2-0.1-0.4-0.3-0.5-0.3c0,0,0-0.1,0-0.1
			c0-0.1,0.2-0.3,0.6-0.4c0.1-0.1,0.2-0.1,0.2-0.2c0-0.2-0.4-0.5-0.6-0.5c-0.1,0-0.2-0.1-0.4-0.1c-0.4-0.2-1-0.4-1.2-0.4
			c-0.3,0-1.3,0.2-1.8,0.4c-0.6,0.3-1.3,0.6-2.1,0.9c-1.2,0.3-2,2.2-2.1,2.3c-0.2,0.4-0.3,0.8-0.6,1.3l-0.3,0.6
			c-0.2,0.3-0.5,1-0.9,1.7c-0.6,1.1-1.4,2.5-1.7,3c-0.4,0.7-1.6,1.3-1.7,1.3c0,0,0,0,0,0l-0.1,0.1c-0.8,0.7-1.1,0.9-0.9,1.3
			c0.1,0.2,0.1,0.9,0.1,1.7c0,0.4,0,0.8,0,1.2c0,1,0.9,1.1,1.2,1.1c0.2,0,0.4,0,0.6-0.1c0.2-0.1,0.5-0.4,0.8-0.7
			c0.1-0.1,0.3-0.3,0.4-0.4c0.1-0.1,0.2-0.1,0.2-0.1c0.1,0,0.1,0.2,0.2,0.4c0,0,0,0,0,0c0,0,0,0,0,0c0,0,0,0.1,0,0.1
			c0,0.2,0,0.3,0.1,0.4c0,0.1,0.1,0.2,0.2,0.3c0.2,0.4,0.5,1,0.5,1.5c0,0.2,0.1,0.4,0.1,0.5c-0.1-0.2-0.2-0.3-0.3-0.3
			c-0.2,0-0.3,0.1-0.3,0.1c-0.1,0-0.2,0.2-0.3,0.3c0,0.1-0.1,0.2,0,0.3c0,0,0,0.1,0,0.2c0,0.1,0,0.2,0,0.2c0,0,0.1,0,0.1,0.1
			c0.2,0,0.3,0.1,0.3,0.2c0,0.1-0.1,0.2-0.1,0.2c0,0,0,0,0,0c-0.1,0-0.2,0-0.2,0c0,0,0,0.1,0,0.1c0.1,0.1,0.1,0.2,0.2,0.2
			c0,0,0.1,0,0.1,0c0.2-0.1,0.4-0.3,0.3-0.6c0-0.2,0-0.4,0-0.5c0,0,0,0,0.1,0c0,0,0.1-0.1,0.1-0.2c0.1,0.2,0.2,0.5,0.5,0.5
			c0.2,0,0.4-0.1,0.5-0.3c0.1-0.1,0.3-0.3,0.6-0.4c0.6-0.2,0.5-1.2,0.5-1.7c0-0.1,0-0.1,0-0.2c0-0.4,0.4-0.8,0.9-1.1
			c0.2-0.1,0.3-0.2,0.3-0.4c0.1-0.4-0.2-1-0.4-1.1l0,0c-0.3-0.3-0.6-0.5-0.5-1.1c0-0.5,0.7-1.7,1.3-2.3c0.5-0.4,0.8-1,0.9-1.6
			c0.1-0.4,0.3-1.1,0.6-1.4c0.1-0.2,0.4-0.2,0.7,0c0,0,0,0,0,0c0,0,0,0,0,0c0.2,0.1,0.4,0.2,0.7,0.5c0.1,0.1,0.2,0.2,0.2,0.3
			c0,0.2-0.3,0.5-0.5,0.7c0,0-0.1,0.1-0.1,0.1c-0.1,0.1-0.3,0.4-0.6,0.7c-0.3,0.4-0.7,0.9-1,1.1c-0.4,0.3-0.3,0.6-0.2,0.9
			c0,0.1,0,0.1,0.1,0.2c0.1,0.3,0.1,0.7,0.1,1.2c0,0.2,0,0.4,0,0.6c0,0.6,0.6,0.8,1,1l0.1,0c0.1,0,0.1,0,0.2,0
			c0.2,0,0.4-0.1,0.7-0.3c0.3-0.2,0.6-0.4,1-0.5c0.2-0.1,0.4-0.1,0.5-0.1c0.4,0,0.5,0.1,0.6,0.2c0,0,0,0,0,0c0,0.1,0.2,0.1,0.3,0.2
			c0.1,0,0.3,0.1,0.3,0.1c0,0,0,0,0,0c0,0-0.3,0-0.5,0c-0.1,0-0.2,0.1-0.3,0.2c-0.1,0.1-0.2,0.2-0.3,0.2c0,0,0,0,0,0c0,0,0,0,0,0
			c-0.1,0-0.2,0.1-0.3,0.1c0,0,0,0-0.1,0c-0.2,0-0.3,0-0.5,0c-0.5,0-1,0-1.2,0.1c-0.3,0.1-0.5,0.4-0.4,0.9c0,0.3,0.2,0.4,0.4,0.4
			c0.1,0,0.1,0.1,0.1,0.1c0,0,0,0.1,0,0.1c0,0,0,0,0,0c0,0,0,0,0,0c0,0.4-0.1,0.8-0.2,0.8c-0.1,0-0.3-0.1-0.5-0.4
			c-0.1-0.1-0.2-0.2-0.4-0.2c-0.2,0-0.4,0.1-0.5,0.2c-0.1,0.2-0.4,0.6-0.4,1.4v0v0c0,0,0,0,0,0s0,0,0,0c0,0.1,0,0.1,0,0.2l0,0
			c0,0.2,0,0.4,0.1,0.6c0,0,0,0,0,0c0,0,0,0,0,0l0,0c0,0.1,0,0.1,0,0.1c0,0,0,0-0.1,0l0,0c0,0,0,0,0,0c0,0-0.1,0.1-0.1,0.1
			c-0.1,0-0.3,0.1-0.4,0.3c0,0.1,0,0.2-0.1,0.2c0,0,0,0,0,0c-0.1,0.1-0.2,0.1-0.3,0.2c0,0-0.1,0-0.1,0c-0.1,0-0.2-0.1-0.2-0.3
			c0-0.1,0-0.1,0-0.1c0-0.1-0.1-0.1-0.2-0.1c-0.1,0-0.2,0-0.4,0.1c-0.3,0.1-1.2,0.7-1.2,0.7c-0.1,0.1-0.3,0.1-0.5,0c0,0,0,0,0,0
			c-0.1,0-0.2-0.1-0.3-0.1c-0.1-0.1-0.1-0.2-0.1-0.3c0,0,0-0.1-0.1-0.2c0,0,0,0,0,0c-0.1,0-0.4,0.1-0.7,0.4
			c-0.2,0.1-0.3,0.2-0.4,0.2c-0.1,0-0.1,0-0.1,0c0,0,0-0.2,0-0.3c0,0,0-0.1,0-0.1c0,0,0,0,0-0.1c0,0,0,0-0.1,0c0,0-0.1,0-0.1,0
			c-0.1,0-0.2,0.1-0.3,0.1c-0.1,0-0.2-0.2-0.3-0.4c0-0.1,0-0.1,0-0.2c0,0,0-0.1,0-0.1c0-0.1,0-0.1,0-0.2c0,0,0.1,0.2,0.1,0.3
			c0,0.1,0.1,0.1,0.2,0.1c0.1,0,0.3-0.1,0.3-0.2c0,0,0-0.1,0-0.1c0-0.1-0.2-0.3-0.3-0.3c0,0-0.1,0-0.1,0c0,0-0.1,0-0.1,0
			c0,0,0.1-0.1,0.2-0.1c0.1-0.1,0.2-0.2,0.2-0.2c0.1-0.1,0.1-0.4,0.1-0.4c0,0,0,0,0,0c0,0,0,0,0,0c0,0-0.2-0.2-0.3-0.3l-0.1-0.1
			c0,0,0-0.2,0.1-0.3c0-0.2,0.1-0.4,0.1-0.5c0-0.1,0-0.1-0.1-0.1c-0.1,0-0.4,0.2-0.7,0.4c-0.1,0.1-0.2,0.1-0.2,0.2
			c-0.2,0.1-0.3,0.2-0.4,0.5c-0.1,0.3,0,0.7,0,0.9c0,0,0,0.1,0,0.1c0,0.1,0.1,0.2,0.2,0.3c0.1,0.1,0.1,0.1,0.1,0.2c0,0,0,0.2,0,0.3
			c0,0,0,0,0,0c0,0.5,0,0.8,0,0.9c-0.1,0.1-0.5,0.2-0.8,0.3c0,0,0,0,0,0c-0.1,0-0.1,0-0.1,0c-0.1,0-0.2,0-0.3,0.1
			c-0.2,0-0.4,0.1-0.5,0.1c-0.1,0.1-0.1,0.2,0,0.4c0,0,0,0.1,0,0.1c0,0.1,0,0.1,0,0.2c0,0,0,0-0.1,0c0,0-0.1-0.1-0.1-0.2
			c0-0.1,0-0.2-0.1-0.2c0,0,0,0-0.1,0c-0.1,0-0.1,0.1-0.2,0.3c0,0.1-0.4,0.8-0.6,1c0,0-0.1,0.1-0.1,0.1c-0.1,0.1-0.3,0.2-0.4,0.2
			c0,0-0.1,0-0.1,0c-0.1,0-0.2,0.1-0.3,0.1c-0.1,0.1-0.1,0.2-0.2,0.4c0,0.1-0.1,0.3-0.2,0.4c-0.1,0.1-0.2,0.2-0.4,0.3
			c-0.1,0.1-0.3,0.3-0.4,0.3c-0.1,0.1-0.3-0.1-0.6-0.3c-0.1-0.1-0.1-0.1-0.2,0c-0.1,0.1,0.1,0.7,0.1,0.7c0,0,0,0,0,0.1
			c0,0.1-0.2,0.1-0.3,0.1c0,0-0.1,0-0.2,0c-0.2,0-0.5-0.1-0.7-0.1c-0.1,0-0.3,0-0.4,0c-0.1,0-0.2,0.1-0.2,0.1
			c-0.1,0.1,0,0.4,0.1,0.5c0,0,0,0.1,0,0.1c0,0.1,0.3,0.2,0.5,0.2c0.2,0,0.3,0,0.5,0.1c0.2,0.1,0.8,0.6,0.9,1.5
			c0.1,0.7-0.2,1.3-0.5,1.5c0,0,0,0,0,0c0,0,0,0,0,0c-0.1,0-0.1,0.1-0.1,0.1c-0.2,0-2-0.1-2.6-0.2c-0.1,0-0.1,0-0.2,0
			c-0.5,0-0.8,0.2-1,0.4c-0.1,0.2,0,0.3,0.1,0.4c0,0,0.1,0,0.1,0.1c0,0,0.1,0.2,0.1,0.3c0,0,0,0,0,0c0,0.1,0,0.2,0,0.2
			c0,0.2,0,0.4,0,0.5c0,0.2-0.3,1.1-0.4,1.3c-0.1,0.2,0,0.4,0.1,0.7c0,0.1,0.1,0.3,0.1,0.4c0.1,0.3,0.3,0.4,0.4,0.4c0,0,0.1,0,0.1,0
			c0.1,0,0.2,0,0.3,0c0.2,0,0.5,0.1,0.6,0.4c0.1,0.2,0.2,0.3,0.3,0.3c0.1,0,0.1,0.1,0.2,0.1c0.1,0,0.1,0,0.2-0.1
			c0.1-0.1,0.5-0.3,1.1-0.3c0.5,0,0.7-0.2,1.2-0.7l0.1-0.1c0.6-0.6,0.4-1,0.3-1.1c-0.1-0.1,0-0.4,0.4-0.9c0.3-0.4,0.6-0.4,0.8-0.4
			c0.2,0,0.6-0.4,0.6-0.5c0.1-0.1,0.1-0.3,0.1-0.4l0,0c0,0,0,0,0,0c0-0.2,0-0.3,0.1-0.6c0-0.1,0.1-0.2,0.3-0.2
			c0.2,0,0.5,0.1,0.7,0.2c0.2,0.1,0.3,0.1,0.4,0.1c0,0,0.1,0,0.1,0c0.3,0,0.5-0.2,0.6-0.4c0,0,0.1-0.1,0.1-0.1c0,0,0,0,0,0
			c0,0,0,0,0,0c0.1-0.1,0.4-0.2,0.7-0.2c0.2,0,0.3,0,0.4,0.1c0.3,0.1,0.5,0.6,0.6,0.8c0,0.1,0.1,0.1,0.1,0.2c0,0,0,0.1,0.1,0.1
			c0.2,0.3,1,0.8,1.3,1c0.3,0.2,1.3,1,1.3,1.2c0.1,0.3-0.1,0.6-0.1,0.7c0,0-0.1,0.1-0.1,0.1c0,0,0,0-0.1,0l0,0c-0.1,0-0.2,0-0.3,0.1
			c-0.1,0-0.2,0.1-0.4,0.1c-0.1,0-0.2,0-0.3-0.1c-0.1,0-0.2-0.1-0.3,0c-0.2,0-0.3,0.1-0.3,0.1c0,0,0,0.1,0,0.1
			c0,0.1,0.1,0.2,0.2,0.3c0,0,0.1,0,0.2,0.1l0,0c0.3,0.1,0.7,0.3,0.8,0.4c0.1,0.1,0.2,0.1,0.3,0.1c0.1,0,0.2,0,0.2-0.1
			c0-0.1,0-0.1,0-0.2c0-0.1,0-0.1,0-0.2c0-0.2,0.1-0.3,0.1-0.3c0,0,0,0,0,0c0,0,0.1,0.1,0.1,0.1c0,0,0,0,0.1,0
			c0.1,0,0.4-0.3,0.5-0.5c0.1-0.3,0.2-0.6,0.1-0.8c-0.1-0.2,0-0.3,0.1-0.4l0,0c0,0,0.1,0.1,0.2,0.2c0.1,0.1,0.2,0.2,0.3,0.3
			c0,0,0.1,0,0.1,0c0.1,0,0.2-0.1,0.2-0.3c0,0,0-0.1,0-0.1c0-0.1-0.3-0.3-0.9-0.6c-0.2-0.1-0.3-0.2-0.4-0.2
			c-0.2-0.1-0.1-0.2-0.1-0.3c0,0,0,0,0,0c0,0,0,0,0,0c0,0-0.3,0-0.5-0.1c-0.1,0-0.5-0.6-0.8-0.9c-0.1-0.2-0.3-0.3-0.3-0.4
			c-0.2-0.2-0.3-0.6-0.3-0.7c0-0.1,0.1-0.4,0.4-0.6c0.1-0.1,0.1-0.1,0.2-0.1c0,0,0,0,0,0c0,0,0,0,0,0c0,0,0,0,0,0c0,0,0,0.1,0,0.1
			l0,0c0,0,0,0,0,0c0,0,0,0.1,0,0.1c0,0.1,0.1,0.2,0.1,0.3c0.1,0.1,0.2,0.1,0.2,0.1c0.1,0,0.1-0.1,0.1-0.2c0,0,0,0,0,0
			c0.1,0,0.2,0.1,0.2,0.2c0.1,0.3,0.2,0.6,0.3,0.7c0.1,0.2,0.3,0.2,0.4,0.3c0.2,0.1,0.3,0.2,0.5,0.4c0,0,0,0,0,0c0,0,0,0,0,0
			c0.1,0.1,0.2,0.1,0.4,0.2c0.1,0,0.1,0.1,0.2,0.1c0.2,0.1,0.3,0.2,0.4,0.4c0,0,0,0,0,0c0.1,0.2,0.1,0.4,0.1,0.7c0,0.3,0,0.5,0,0.7
			c0,0.1,0,0.2,0,0.4c0,0,0,0,0,0c0,0.2,0.1,0.4,0.1,0.5c0,0.1,0.1,0.1,0.2,0.1c0.1,0,0.1,0,0.2,0c0.1,0,0.1,0,0.2,0
			c0,0,0.1,0.1,0.1,0.1c0.1,0.1,0.1,0.2,0.2,0.3c0.1,0,0.1,0.1,0.2,0.1c-0.1,0-0.1,0.1-0.2,0.1c0,0-0.1,0-0.1,0c0,0.1,0,0.2,0.2,0.5
			c0.1,0.1,0.1,0.2,0.1,0.2c0.2,0.3,0.6,0.4,0.8,0.4c0,0,0,0,0,0c0,0,0.1,0,0.1,0c0.1-0.1,0-0.2,0-0.4c0-0.1,0-0.1,0-0.1
			c0,0,0-0.1,0-0.2c0-0.1,0.1-0.2,0-0.3c0,0,0,0,0-0.1c0,0,0,0,0,0c0.2,0.1,0.4,0.1,0.7-0.1c0.1,0,0.1-0.1,0.1-0.2
			c0-0.1-0.2-0.2-0.3-0.3c0,0-0.1,0-0.1-0.1c-0.1-0.1-0.5-0.5-0.6-0.9c-0.1-0.2,0-0.2,0-0.2c0,0,0,0,0,0c0,0,0.1,0,0.1,0
			c0.1,0,0.1,0,0.2,0.1c0,0,0,0,0,0c0.1,0,0.2,0,0.3-0.1c0-0.1,0-0.1,0-0.2c0,0,0.2-0.1,0.5-0.1c0.1,0,0.2,0,0.3,0
			c0.1,0,0.2,0,0.3,0.1c0,0,0,0,0,0c0.3,0.2,0.2,0.7,0.2,1c0,0.1,0,0.1,0,0.2c0,0.1,0.1,0.2,0.2,0.3c0.1,0.1,0.2,0.3,0.3,0.6
			c0.2,0.6,1,0.9,1.5,0.9c0.1,0,0.2,0,0.3-0.1c0.2-0.1,0.3-0.1,0.5-0.1c0.2,0,0.3,0.1,0.6,0.2c0.2,0.1,0.3,0.2,0.4,0.2
			c0.1,0,0.2-0.1,0.4-0.2l0.1,0c0.1-0.1,0.3-0.2,0.5-0.2c0.2,0,0.4,0.1,0.6,0.2c0,0,0,0.1,0,0.1c0,0,0,0,0,0c0,0,0,0,0,0
			c0,0.2-0.1,0.6-0.2,0.9c-0.1,0.3-0.2,0.6-0.3,0.8l-0.1,0.1c0,0,0,0,0,0c-0.1,0.1-0.1,0.3-0.1,0.3l0,0c0,0.1,0,0.1-0.1,0.2
			c0,0,0,0,0,0c0,0,0,0,0,0c-0.1,0.3-0.2,0.5-0.4,0.6c0,0,0,0,0,0c0,0,0,0,0,0c-0.2,0.1-0.4,0.1-0.6,0.1c-0.2-0.1-0.4-0.1-0.6-0.1
			c-0.6,0-1.1,0.2-1.4,0.3c0,0-0.1,0-0.2,0c-0.4,0-1-0.2-2-0.6c0,0,0,0,0,0c-0.3-0.1-0.7-0.3-1.3-0.5c-0.7-0.3-1.2-0.3-1.5,0
			c-0.3,0.3-0.2,0.8-0.2,0.8c0,0.2,0,0.4-0.1,0.5c-0.1,0.1-0.2,0.1-0.4,0.1c-0.1,0-0.2-0.1-0.3-0.2c-0.1-0.1-0.3-0.2-0.6-0.2
			c-0.5,0-0.8-0.3-1-0.7c-0.1-0.3-0.7-0.4-1.4-0.5c-0.3-0.1-0.6-0.1-0.8-0.2c0,0,0,0,0,0c0,0,0,0,0,0c0,0,0,0,0,0c0,0,0,0,0,0
			c-0.3-0.2-0.3-0.5-0.2-1c0-0.2,0-0.4,0-0.6c0-0.6-0.1-0.9-0.3-1c-0.1,0-0.2-0.1-0.3-0.1c-0.1,0-0.3,0-0.6,0v0
			c-0.7,0.1-1.9,0.2-3,0.4c-0.8,0.1-1.5,0.4-2.1,0.6c-0.4,0.2-0.7,0.3-1,0.4c0,0,0,0,0,0c-0.1,0-0.2,0-0.4,0c-0.5,0-0.9-0.2-1.1-0.3
			c-0.2-0.1-0.3-0.1-0.4-0.1c-0.1,0-0.2,0.2-0.2,0.4c0,0.3-0.1,0.8-0.6,1c-1.3,0.5-1.3,1.7-1.4,2.3c0,0.1,0,0.2,0,0.2
			c0,0.3-0.7,0.7-1.2,1.1c-0.2,0.1-0.3,0.2-0.4,0.3c-0.2,0.1-0.3,0.2-0.3,0.3c-0.1,0.2-0.5,0.7-0.9,1.3c-0.4,0.6-0.8,1.2-1,1.4
			c-0.1,0.3-0.2,0.4-0.2,0.8c0,0.3,0.2,0.7,0.3,1.4c0.2,0.5,0.2,1,0,1.5c0,0,0,0,0,0c0,0,0,0,0,0c-0.1,0.4-0.3,0.6-0.4,0.8
			c-0.1,0.1-0.1,0.1-0.1,0.2c0,0.1,0,0.3,0.1,0.6c0,0,0,0,0,0c0,0.1,0.1,0.3,0.2,0.4c0,0,0,0,0,0c0,0,0,0,0,0c0,0,0,0,0,0
			c0,0,0,0,0,0c0,0.1,0.1,0.2,0.2,0.3c0,0,0,0,0,0c0.2,0.3,0.4,0.5,0.7,0.7l0,0c0,0,0.1,0,0.1,0.1c0,0,0,0,0,0c0,0,0,0,0,0
			c0.4,0.3,0.7,0.7,0.9,1.1c0,0,0,0,0,0c0,0,0,0,0,0c0,0.1,0.1,0.2,0.1,0.3c0,0,0,0.1,0,0.1c0,0.1,0.4,0.5,0.9,0.9c0,0,0,0,0,0
			c0.4,0.4,1.5,1.2,2.3,1.3c0,0,0,0,0,0l0,0c0.2,0,0.3,0,0.4-0.1c0.3-0.2,0.9-0.3,1.6-0.3c0.2,0,0.4,0,0.6,0c0.5,0,0.8,0.1,0.8,0.1
			c0,0,0,0,0,0c0,0,0,0,0,0c0.4-0.2,0.9-0.4,1.3-0.5c0,0,0,0,0,0c0,0,0,0,0,0c0.1,0,0.2,0,0.3-0.1c0,0,0,0,0,0c0,0,0,0,0,0
			c0.2,0,0.4-0.1,0.5-0.1c0,0,0,0,0,0c0.5,0,1,0,1.2,0.2c0.2,0.1,0.2,0.2,0.3,0.4c0.1,0.2,0.2,0.5,0.7,0.5c0.1,0,0.2,0,0.4,0
			c0.2,0,0.4,0,0.5,0c0,0,0,0,0,0c0,0,0,0,0,0c0.5,0.1,0.8,0.4,0.8,1.1c0,0,0,0,0,0c0,0,0,0,0,0c0,0.3-0.1,0.6-0.1,0.7c0,0,0,0,0,0
			c0,0,0,0,0,0c0,0.1,0,0.2,0,0.2c-0.1,0.2-0.1,0.4-0.2,0.6c-0.1,0.3-0.2,0.5,0.1,0.8c0.4,0.5,0.7,0.9,1,1.3c0,0,0,0,0,0
			c0.1,0.2,0.3,0.4,0.3,0.5c0,0,0,0,0,0c0,0,0,0,0,0c0.1,0.1,0.1,0.3,0.2,0.4c0,0,0,0,0,0c0,0,0,0,0,0c0,0.1,0.1,0.1,0.1,0.2
			c0.3,0.7,0.5,1.3,0.6,1.9c0.2,0.9,0,1.6-0.3,2.3c-0.2,0.5-0.4,0.9-0.5,1.5c0,0.2,0,0.3,0,0.5h0c0,0,0,0,0,0c0,0,0,0,0,0
			c0,0,0,0,0,0c0,1,0.7,1.8,1.1,2.4c0.2,0.2,0.3,0.4,0.3,0.5c0.1,0.2,0.1,0.5,0.1,1c0.1,0.7,0.1,1.7,0.4,2.2
			c0.1,0.2,0.3,0.5,0.5,0.8c0,0,0,0,0,0c0,0,0,0,0,0c0.5,0.9,1.1,2.1,1.1,3c0,0.7,0.7,0.8,1.2,0.8c0.5,0,1.1-0.1,1.7-0.2
			c0.3,0,0.6-0.1,1-0.1c1.5-0.2,2.7-1.9,3.4-2.9c0.2-0.3,0.3-0.5,0.4-0.6c0.3-0.4,0.5-0.7,0.5-1.1c0-0.1,0-0.2,0-0.3
			c0-0.3-0.1-0.5,0.7-0.8c0.3-0.1,0.4-0.2,0.5-0.5c0.3-0.6,0-1.5-0.2-2.2c0-0.1,0-0.1,0-0.2c0.1-0.4,0.7-0.8,1.3-1.2
			c0.7-0.5,1.5-1,1.8-1.6c0.3-0.6,0.1-1.5-0.2-2.6l0-0.1c0,0,0,0,0,0c0,0,0,0,0,0c-0.2-0.9-0.5-2-0.4-3.2c0,0,0,0,0,0c0,0,0,0,0,0
			c0,0,0,0,0-0.1c0,0,0,0,0,0c0-0.3,0.4-0.9,1.1-1.6c0,0,0,0,0,0c0,0,0,0,0,0c1-1.1,2.5-2.4,3.2-3c0.8-0.7,2-3.2,2.1-4.1
			c0-0.2,0-0.3-0.1-0.4c0-0.1-0.1-0.1-0.2-0.1c-0.2,0-0.5,0.1-0.9,0.3c-0.3,0.1-0.5,0.2-0.9,0.3c-0.4,0.1-0.7,0.2-1,0.2
			c-0.5,0-1-0.2-1.3-0.7c-0.1-0.1-0.1-0.2-0.2-0.3c0,0,0-0.1-0.1-0.1c0,0,0,0,0,0c0-0.1-0.1-0.2-0.2-0.3c-0.3-0.4-0.6-0.7-1-1
			c-0.3-0.2-0.6-0.5-0.7-0.8c-0.2-0.3-0.4-0.7-0.6-1c0,0,0,0,0,0c0,0,0,0,0,0c-0.3-0.5-0.5-1.1-0.6-1.7c-0.1-0.2-0.1-0.5-0.2-0.7
			c0,0,0,0,0,0c0,0,0,0,0,0c-0.3-0.7-0.8-1.5-1.1-2.1c-0.1-0.1-0.1-0.2-0.2-0.3c-0.1-0.2-0.3-0.4-0.4-0.6c-0.2-0.3-0.4-0.6-0.6-1.2
			c-0.1-0.2-0.1-0.3-0.1-0.3c0.1,0,0.4,0.4,0.5,0.6c0.1,0.3,0.3,0.3,0.7,0.3c0,0,0,0,0,0c0.1,0,0.2,0,0.2,0c0,0,0,0,0,0
			c0.3,0,0.8,0.9,1.3,2c0.3,0.6,0.6,1.3,1,2c0.3,0.5,0.6,0.9,0.8,1.3c0.3,0.5,0.6,1,0.9,1.5c0.2,0.5,0.4,0.9,0.4,1.5
			c0,0.3,0.2,0.5,0.4,0.6c0.1,0.1,0.3,0.1,0.4,0.1c0.8,0,2.1-0.6,3.1-1.1c0.3-0.1,0.5-0.3,0.7-0.3c0.3-0.1,0.6-0.3,1-0.5
			c1-0.7,2.2-1.7,3-2.7c0.4-0.5,0.6-0.9,0.5-1.2c-0.1-0.3-0.4-0.3-0.7-0.4c-0.6-0.1-0.9-0.5-1-0.9c-0.1-0.1-0.1-0.2-0.1-0.3
			c0,0,0,0,0,0c-0.1-0.1-0.1-0.2-0.3-0.1c0,0-0.1,0.1-0.2,0.2c-0.3,0.3-0.8,0.8-1.5,0.8c-0.2,0-0.4,0-0.6-0.1c0,0,0,0,0,0
			c-0.5-0.2-0.8-0.8-1.1-1.4c0-0.1-0.1-0.2-0.1-0.2c-0.1-0.2-0.2-0.3-0.3-0.5c-0.1-0.2-0.2-0.3-0.3-0.5c0,0,0,0,0,0c0,0,0,0,0,0
			c-0.2-0.4-0.2-0.6,0.1-0.7c0,0,0,0,0,0l0,0c0,0,0,0,0,0c0.1,0,0.2-0.1,0.3-0.1c0.1,0,0.2,0,0.2,0c0.6,0,0.7,0.9,0.7,1
			c0,0.2,0.5,0.5,1.1,0.8c0.2,0.1,0.3,0.2,0.3,0.2c0,0,0.2,0.1,0.4,0.1c0.4,0,1,0.1,1.3,0.3c0.1,0,0.1,0.1,0.1,0.2
			c0.1,0.3,0.9,0.5,2.2,0.5c0.1,0,0.2,0,0.3,0c0.3,0,0.6,0,1,0c0.2,0,0.3,0,0.5-0.1c0.2,0,0.4-0.1,0.6-0.1c0.4,0,0.9,0.1,1.3,1
			c0,0,0,0,0,0c0,0,0,0,0,0l0,0c0.5,1.1,1,1.7,1.7,1.7c0.2,0,0.4-0.1,0.5-0.1l0,0c0.2-0.1,0.3-0.2,0.3-0.3c0,0.3,0.2,2,0.4,2.9
			c0.2,1,1.9,4.2,2.2,4.6c0,0.1,0.1,0.1,0.2,0.1c0.4,0,1.2-1,1.3-1.5c0.1-0.4,0.1-1,0.1-1.6c0-0.2,0-0.4,0-0.6c0-0.5,0.3-0.7,0.8-1
			c0.3-0.2,0.6-0.4,1-0.8c0.8-0.8,2-1.6,3.1-2.2c0,0,0,0,0,0c0.2-0.1,0.5-0.2,0.7-0.3c0.5-0.2,0.8-0.2,0.9,0
			c0.1,0.1,0.1,0.2,0.1,0.3c0,0,0,0,0,0c0,0,0,0,0,0c0,0.1-0.1,0.2-0.1,0.2c0,0,0,0,0,0c0,0.2,0.3,0.5,0.6,0.8
			c0.4,0.4,0.8,0.8,0.7,1.2c-0.1,0.4,0,0.7,0.1,0.9c0.1,0.1,0.2,0.1,0.3,0.1c0.3,0,0.7-0.3,0.9-0.5l0,0c0.1-0.1,0.2-0.2,0.2-0.2
			c0,0,0,0.1,0.1,0.3c0,0.3,0.1,0.8,0.4,1.6c0.3,0.9,0.3,1.5,0.2,2c0,0,0,0,0,0c0,0,0,0,0,0c0,0.1,0,0.2,0,0.3
			c0,0.4-0.1,0.6,0.1,0.7c0.2,0.1,0.5,0.5,0.6,1.1c0,0,0,0,0,0c0,0,0,0,0,0c0.1,0.4,0.2,0.7,0.2,1.1c0,0.7,1.2,1.4,1.9,1.7
			c0.1,0,0.2,0.1,0.2,0.1c0,0,0.1,0,0.1,0.1c0,0,0,0,0,0c0,0,0,0,0,0c0,0,0,0,0,0c0,0,0,0,0,0c0,0,0,0,0.1,0c0,0,0.1,0,0.1-0.2
			c0,0,0,0,0,0c0,0,0,0,0,0c0-0.2-0.2-0.6-0.4-1c-0.2-0.3-0.2-0.5-0.1-0.7c0-0.2,0-0.3,0-0.5c-0.1-0.2-0.3-0.4-0.6-0.6c0,0,0,0,0,0
			l-0.1-0.1c-0.3-0.2-0.6-0.4-1-0.8c-0.5-0.5-0.4-0.8-0.4-1.2c0-0.2,0-0.3,0-0.5c0-0.3,0.1-0.6,0.2-0.8c0.1-0.1,0.3-0.2,0.5-0.2
			c0.2,0,0.5,0.1,0.8,0.4c0.3,0.3,0.6,0.6,0.8,1.1c0,0,0,0,0,0c0,0,0,0,0,0c0.1,0.2,0.2,0.4,0.2,0.5c0.1,0.2,0.2,0.4,0.3,0.4
			c0.2,0,0.5-0.2,1.4-0.8c1.6-1.1,1.1-2.2,0.3-3.3c0,0,0,0,0,0c0,0,0,0,0,0l0,0c-0.1-0.1-0.2-0.2-0.2-0.4c-0.2-0.3-0.4-0.5-0.5-0.7
			c-0.5-0.7-0.5-0.7-0.3-0.9c0.1-0.1,0.2-0.2,0.3-0.4l0.1-0.1c0.2-0.3,0.2-0.4,0.6-0.4c0,0,0,0,0,0c0.2,0,0.4,0,0.8-0.1l0.1,0.2
			c0,0,0,0,0,0l0.3,0.3c0,0,0,0,0,0c0,0,0,0,0,0c0,0,0,0,0,0l0.2-0.4l0-0.2c1.3-0.1,3.2-0.6,5.1-2.9c1.8-2.2,1.1-3.4,0.4-4.5
			c-0.1-0.1-0.1-0.2-0.2-0.3c-0.6-0.9-0.4-1,0.2-1.5c0.1-0.1,0.3-0.2,0.4-0.3c0.3-0.2,0.4-0.4,0.4-0.5c-0.1-0.2-0.5-0.3-0.9-0.3
			c-0.3,0-0.6,0-0.9,0.1c-0.3,0-0.4,0-0.5-0.1c-0.1-0.3,0.3-1,1.2-1.6c0.3-0.2,0.5-0.3,0.6-0.3c0,0,0.1,0,0.1,0
			c0.1,0.1,0,0.4-0.1,0.6c-0.1,0.3-0.1,0.4-0.1,0.5c0,0,0,0.1,0.1,0.1c0.1,0.1,0.4-0.1,0.7-0.3c0.3-0.2,0.5-0.3,0.8-0.4
			c0,0,0,0,0.1,0c0.2,0,0.3,0,0.3,0.1c0.1,0.1,0.1,0.4,0,0.8c-0.1,0.2,0,0.4,0.2,0.5c0,0,0,0,0,0c0.1,0.1,0.3,0.1,0.5,0.2
			c0.1,0,0.2,0,0.2,0.1c0.1,0,0.1,0,0.1,0.1c0.1,0.2-0.1,0.8-0.2,1.3c-0.1,0.2-0.1,0.5-0.2,0.6c0,0.2,0,0.2,0,0.3c0,0,0,0,0.1,0
			c0.1,0,0.2,0,0.3-0.1c0.2-0.1,0.5-0.3,1-0.5c0.3-0.1,0.6-0.3,0.7-0.6c0.2-0.4-0.1-1-0.3-1.4l-0.1-0.1c-0.1-0.1-0.1-0.2-0.2-0.3
			c0-0.1-0.1-0.1-0.1-0.2c0,0,0,0,0,0c0,0,0,0,0,0c-0.2-0.4-0.3-0.8-0.1-1.1c0.2-0.3,0.7-1,1.2-1.4c0,0,0,0,0,0c0,0,0,0,0,0
			c0.4-0.4,0.8-0.5,0.9-0.4c0.1,0.1,0.2,0.1,0.3,0.1c0.3,0,0.6-0.3,1.5-1.2c0.2-0.2,0.4-0.4,0.7-0.7c1.7-1.7,2.5-5.7,2.4-7
			c-0.1-0.8-0.6-0.8-1.2-0.8c-0.2,0-0.3,0-0.5,0c-0.2,0-0.4,0-0.6,0c-0.3-0.1-0.5-0.1-0.6-0.3c-0.1-0.3,0.3-0.8,1.1-1.8
			c0.2-0.3,0.5-0.6,0.8-0.9c1.5-1.8,2.2-2.1,3.5-2.1c0.3,0,0.5,0,0.8,0l0.3,0c1,0,1.6,0.1,2,0.2c0.3,0,0.6,0.1,0.8,0.1
			c0.1,0,0.3,0,0.4,0c0.2,0,0.4-0.1,0.4-0.2c0.1-0.1,0-0.2,0-0.4c-0.1-0.2-0.1-0.4,0-0.6c0.3-0.5,1.7-1.9,2.4-1.9
			c0.1,0,0.2,0,0.3,0.1c0.2,0.2,0.1,0.5,0.1,0.8c0,0.2,0,0.3,0,0.4c0,0.2,0,0.2,0.1,0.2c0.1,0,0.1-0.1,0.2-0.2
			c0.1-0.2,0.3-0.5,0.7-0.9c0.4-0.4,0.5-0.7,0.6-0.9c0.1-0.3,0.2-0.4,0.6-0.6c0.1,0,0.2-0.1,0.3-0.1c0.1,0,0.1,0,0.1,0
			c0.1,0.1-0.1,0.4-0.2,0.7c0,0.1-0.1,0.2-0.1,0.4c-0.2,0.5-0.7,1-1.1,1.4l-0.2,0.2c0,0,0,0,0,0c-0.2,0.2-0.3,0.4-0.5,0.5
			c-0.1,0.2-0.4,0.4-0.6,0.7c-0.8,0.9-1.9,2.3-2.3,2.9c-0.5,0.8,0.3,4.6,0.6,5.1c0,0,0.1,0.1,0.1,0.1c0.3,0,1.7-1.6,1.8-2.3
			c0-0.7,0.3-0.8,0.7-1c0.4-0.2,0.4-0.5,0.3-0.8c0,0,0-0.1,0-0.1c-0.1-0.3,0.1-0.4,0.4-0.5c0.1,0,0.2-0.1,0.3-0.2
			c0.1-0.1,0.1-0.2,0.2-0.3c0.1-0.5-0.4-1.3-0.6-1.5c-0.2-0.2,0.2-1.3,0.7-1.9c0-0.1,0.1-0.1,0.1-0.2c0,0,0,0,0,0c0,0,0,0,0,0
			c0.1-0.1,0.2-0.2,0.4-0.2c0.2,0,0.3,0.1,0.5,0.2c0.1,0.1,0.2,0.1,0.3,0.1c0,0,0,0,0,0c0.2,0,0.4-0.2,0.6-0.5
			c0.2-0.3,0.5-0.6,0.7-0.6c0.1,0,0.2,0.1,0.3,0.2c0.2,0.4,0.4,0.6,0.6,0.6c0.2,0,0.3-0.2,0.3-0.5c0-0.3,3-2.1,3.4-2.3
			c0.1-0.1,0.4,0,0.7,0.1c0.2,0,0.3,0.1,0.5,0.1c0.1,0,0.2,0,0.2-0.1c0.1,0,0.1-0.1,0.1-0.2c0-0.3-0.2-0.8-0.4-1
			c-0.1-0.1-0.2-0.3-0.2-0.4c0-0.1-0.1-0.3-0.2-0.4c-0.1-0.1-0.2-0.2-0.3-0.3c-0.1-0.1-0.2-0.2-0.3-0.3c0-0.1,0-0.1,0-0.1
			c0,0,0,0,0.1,0c0.1,0,0.3,0.1,0.4,0.1c0,0,0.1,0,0.2,0c0.3,0,0.9-0.3,1.2-0.6c0.3-0.3,0.2-0.7,0.1-1c0-0.1-0.1-0.3,0-0.4
			c0-0.1,0-0.1,0.1-0.1c0.1,0,0.2,0.1,0.2,0.1c0,0,0,0.1,0,0.1c0,0.1,0,0.3,0.1,0.4c0.1,0.1,0.3,0.4,0.6,0.4c0,0,0.1,0,0.1,0
			c0,0,0.1,0,0.1,0c0.4,0,0.7,0.5,0.7,0.7c0,0.3,1.6,0.9,1.6,0.9c0,0,0,0,0,0c0.1,0,0.2-0.3,0.4-0.9c0.1-0.3,0.2-0.6,0.2-0.7
			c0.1-0.1,0.3-0.2,0.4-0.3c0.1-0.1,0.2-0.1,0.2-0.2c0,0,0-0.1,0.1-0.1C263.8,126.1,263.9,126,264,125.8
			C264,125.8,264,125.8,264,125.8z M182.9,149.4C182.9,149.4,182.9,149.4,182.9,149.4C182.9,149.4,182.9,149.4,182.9,149.4
			c0,0.1-0.1,0.1-0.1,0.2c0,0-0.4,0.1-1,0.1c-0.5,0-1-0.1-1.3-0.2c-0.5-0.2-1.4-0.5-2-0.5c-0.4,0-0.6,0.2-0.8,0.4
			c-0.1,0.1-0.1,0.1-0.2,0.2c-0.1,0.1-0.2,0.1-0.4,0.1c-0.2,0-0.5-0.1-0.7-0.1c-0.1,0-0.1,0-0.2,0c0,0-0.4-0.2-0.5-0.4
			c0,0,0,0,0-0.1c0,0,0,0,0,0c0,0,0,0,0,0c-0.1-0.2-0.2-0.3,0-0.7c0.1-0.3,0.1-0.4,0.2-0.5l0,0c0.1-0.1,0.1-0.2,0.1-0.4
			c0-0.1,0.1-0.2,0.2-0.3c0.1-0.1,0.2-0.2,0.3-0.4c0-0.1,0-0.1,0.1-0.1c0,0,0,0,0,0c0.1-0.1,0.1-0.2,0.1-0.2c0,0,0.1-0.1,0.1-0.2
			c0.1-0.2,0.4-0.6,0.8-0.7c0.1,0,0.1,0,0.2,0c0,0,0,0.1,0,0.2c0,0.1,0,0.1,0,0.2c0,0.1,0.2,0.1,0.4,0.1c0.1,0,0.1,0,0.2,0
			c0,0,0,0,0,0c0,0,0,0,0,0c0.1,0,0.1,0,0.1,0c-0.1,0-0.2,0.1-0.3,0.1c-0.2,0.1-0.2,0.1-0.2,0.1c0,0.1,0,0.1,0.1,0.2
			c0.1,0.1,0.3,0.3,0.4,0.5c0,0.1,0.1,0.3,0.2,0.3c0.1,0,0.2,0,0.3-0.1c0,0,0.1-0.1,0.1-0.1l0.1,0c0.2-0.1,0.5-0.2,0.7-0.2
			c0,0,0,0,0,0c0.1,0,0.1,0,0.2-0.1c0-0.1,0-0.2,0-0.3c0,0,0,0,0,0c0-0.1-0.2-0.1-0.5-0.1c-0.1,0-0.1,0-0.2,0
			c-0.1,0-0.2-0.1-0.2-0.2c0,0,0,0,0,0c0,0,0,0,0,0c0-0.1,0-0.2,0-0.2c0-0.1,0.4-0.2,0.7-0.3c0.1,0,0.2-0.1,0.3-0.1l0.1,0
			c0.2-0.1,0.5-0.2,0.8-0.3c0.2,0,0.3-0.1,0.4-0.1c0.1,0,0.1,0,0.1,0c0,0-0.1,0.1-0.2,0.1c0,0,0,0,0,0c-0.1,0.1-0.4,0.5-0.6,0.9
			c-0.1,0.2-0.2,0.5-0.1,0.7c0.1,0.1,0.1,0.2,0.3,0.2c0.1,0,0.3,0.2,0.6,0.5c0.2,0.1,0.3,0.3,0.5,0.4c0,0,0,0,0,0l0,0
			c0.2,0.1,0.3,0.2,0.5,0.3C183.2,148.7,183,149.2,182.9,149.4z M190,149.8c-0.1,0.1-0.2,0.1-0.6,0c-0.2,0-0.4,0-0.4,0.1
			c-0.1,0.1,0,0.4,0.1,0.5c0.1,0.2,0.4,0.6,0.5,1.1c0.1,0.3,0.1,0.6,0.1,0.8c0,0,0,0,0,0c0,0,0,0,0,0c0,0.1-0.1,0.3-0.2,0.4
			c-0.1,0-0.1,0-0.2,0c-0.4,0-1.2-0.3-1.7-0.6c-0.4-0.2-0.4-0.4-0.4-0.6c0-0.1,0-0.2,0.1-0.4c0-0.1,0-0.2,0.1-0.4
			c0.2-0.9-0.3-1.5-0.4-1.6c0,0,0,0,0,0c0-0.1-0.1-0.1-0.2-0.2c-0.3-0.3-0.3-0.8-0.4-1.2c0-0.2-0.1-0.4-0.2-0.6
			c-0.1-0.1-0.1-0.2-0.1-0.3c0-0.2,0.7-0.7,1-1c0.1,0,0.1-0.1,0.2-0.1l0,0c0.5-0.4,1.1-0.5,1.7-0.4c0.1,0.1,0.2,0.3,0.2,0.4
			c0,0.2-0.1,0.4-0.2,0.5c-0.2,0.1-0.3,0.1-0.5,0.1c-0.1,0-0.1,0-0.2,0c-0.1,0-0.2,0.2-0.2,0.3c0,0.1,0,0.2-0.1,0.2c0,0,0,0,0,0
			c0,0-0.1,0-0.1,0c-0.1,0-0.1,0-0.1,0.1c0,0.1,0,0.2,0.1,0.2c0,0,0.1,0.2,0.1,0.3c0.1,0.3,0.2,0.5,0.3,0.6c0.2,0.1,0.6,0.3,0.6,0.4
			c0,0,0,0.1,0,0.1c0,0.2,0,0.4,0.1,0.5c0,0,0,0,0,0c0.1,0.1,0.2,0.1,0.3,0c0.1,0,0.1-0.1,0.2-0.1c0.2,0,0.4,0.3,0.5,0.6l0,0
			C190.1,149.7,190.1,149.8,190,149.8z"/>
		<path class="st1" d="M178.4,154.2C178.4,154.2,178.4,154.2,178.4,154.2L178.4,154.2c0.1,0,0.1,0,0.2,0c0,0,0,0,0.1,0l0,0
			c0.1-0.1,0.3-0.2,0.5-0.3l0,0c0,0,0.1-0.1,0.1-0.1c0-0.1,0-0.1,0-0.2c0,0,0,0,0,0c-0.1,0-0.1,0-0.2,0c0,0,0,0-0.1,0
			c0,0-0.1,0-0.1,0.1c0,0-0.1,0-0.2,0c-0.1,0-0.3,0-0.4,0c-0.1,0-0.3,0-0.3,0.2c-0.1,0.1,0,0.3,0.1,0.3
			C178.2,154.2,178.3,154.2,178.4,154.2z"/>
		<path class="st1" d="M174.3,154C174.3,154,174.3,154,174.3,154c0.1,0,0.2,0,0.3,0c0,0,0.1,0,0.2,0c0.1,0,0.1-0.1,0.1-0.2
			c0-0.1-0.1-0.1-0.2-0.1c0,0-0.1,0-0.1,0c0,0-0.1,0-0.1,0c-0.1,0-0.1,0-0.2,0c-0.1,0-0.1,0-0.2,0c-0.1,0-0.3-0.1-0.4-0.1
			c-0.1,0-0.2,0-0.3,0l0,0c0,0,0,0,0,0c0,0,0,0.1,0,0.1c0,0,0.1,0,0.1,0.1C173.6,153.9,174,154,174.3,154z"/>
		<path class="st1" d="M165.4,149.5C165.4,149.5,165.4,149.5,165.4,149.5c0.3-0.1,0.3-0.6,0.3-0.7c0,0,0-0.1,0-0.1
			c-0.1-0.1-0.2-0.2-0.2-0.2c0,0,0,0,0,0c-0.3,0.1-0.5,0.3-0.4,0.6C165.1,149.4,165.2,149.5,165.4,149.5z"/>
		<path class="st1" d="M164.9,150c0,0.2,0,0.8,0.1,1.1c0.1,0.1,0.2,0.2,0.4,0.2c0.1,0,0.2-0.1,0.3-0.3c0.2-0.7,0.2-1.1,0-1.3
			c-0.1-0.1-0.2-0.1-0.2-0.1c0,0,0,0,0,0C165.2,149.6,164.9,149.7,164.9,150z"/>
		<path class="st1" d="M162.1,151c0.1,0,0.2-0.1,0.2-0.2c0-0.1-0.1-0.3-0.2-0.4c-0.2,0-0.4,0.2-0.4,0.2c0,0-0.1,0.1,0,0.2
			C161.7,150.9,161.8,151,162.1,151z"/>
		<path class="st1" d="M154.9,140.5c-0.1,0.3-0.2,0.7-0.1,0.9c0,0.1,0.1,0.1,0.2,0.1c0,0,0,0,0.1,0c0.4,0,0.7-0.3,1-0.4
			c0.2-0.1,0.4-0.2,0.5-0.2c0.1,0,0.1,0,0.2-0.1c0.2-0.2,0.3-0.9,0.2-1.4c0-0.1,0-0.1,0-0.2c0-0.1,0.1-0.1,0.1-0.2
			c0.2-0.1,0.3-0.3-0.1-0.8c-0.1-0.2-0.3-0.2-0.6-0.2c0,0,0,0,0,0c0,0,0,0,0,0c0,0,0,0,0,0c0,0,0,0,0,0c-0.2,0-0.3,0.1-0.4,0.1
			c-0.1,0-0.2,0.1-0.2,0.2c0,0.1-0.1,0.2,0,0.3c0,0.1,0,0.1,0,0.2c0,0.1-0.1,0.1-0.3,0.1c-0.1,0-0.3,0-0.3,0l-0.1,0
			c-0.2,0-0.2,0-0.3,0.1c0,0,0,0.1,0,0.2c0.1,0.2,0.2,0.9,0.2,1.2C155,140.2,155,140.4,154.9,140.5z"/>
		<path class="st1" d="M157.1,135.5c-0.1,0-0.3,0.2-0.3,0.3c0,0,0,0.1,0,0.1c0,0.1,0.3,0.2,0.4,0.3c0,0,0,0,0.1,0c0,0,0,0,0,0
			c0,0.1,0,0.2-0.1,0.4c-0.1,0.1-0.1,0.2-0.1,0.3c0,0.1,0.1,0.1,0.1,0.1l0,0c0.1,0,0.1,0,0.1,0c0,0,0,0,0,0
			c-0.1,0.1-0.3,0.2-0.3,0.3c0,0,0,0.1,0,0.1c0,0,0.1,0,0.1,0c0,0,0,0,0.1,0c0,0,0,0,0.1,0c0,0,0,0,0,0c0,0.1,0,0.2,0,0.2
			c0,0.1,0.1,0.1,0.1,0.1c0,0,0,0,0,0c0.1,0,0.1-0.1,0.2-0.2c0-0.1,0.1-0.2,0.2-0.2c0,0,0,0,0,0c0,0,0,0.2-0.1,0.4
			c0,0.1,0,0.2,0,0.3c0,0.1,0.1,0.1,0.1,0.1c0,0,0.1,0,0.2,0c0.2,0,0.4-0.1,0.5-0.1c0,0,0,0,0,0c0,0-0.1,0.3-0.2,0.3c0,0,0,0,0,0.1
			c0,0.1,0.2,0.2,0.3,0.3c0.1,0.1,0.1,0.3,0,0.7c0,0,0,0.1-0.2,0.1c-0.1,0-0.2,0-0.3,0c-0.1,0-0.2,0-0.2,0c-0.1,0-0.1,0-0.1,0.1
			c0,0.1,0.1,0.4,0.2,0.5c0,0,0,0.1,0,0.1c0,0.2-0.1,0.4-0.3,0.4c-0.2,0.1-0.3,0.3-0.3,0.5c0,0.1,0.2,0.1,0.3,0.1c0.1,0,0.2,0,0.2,0
			c0.1,0,0.2,0.1,0.3,0.1c0.1,0,0.3,0,0.4,0.1c-0.1,0-0.4,0.1-0.7,0.1c-0.2,0-0.5,0.3-0.6,0.6c-0.1,0.1-0.1,0.2-0.2,0.2
			c-0.1,0.1-0.1,0.1-0.1,0.1c0,0.1,0.2,0.1,0.3,0.1c0.1,0,0.1,0,0.2-0.1l0,0c0.1-0.1,0.2-0.1,0.4-0.1c0,0,0.1,0,0.1,0
			c0.2,0,0.3-0.2,0.3-0.4l0,0c0,0,0-0.1,0.5-0.1c0.3,0,0.6,0,0.7,0c0.3,0,1-0.2,1.3-0.4c0.1-0.1,0.2-0.1,0.2-0.2
			c0-0.1-0.1-0.1-0.2-0.1c-0.1,0-0.1,0-0.2,0c0,0,0,0,0,0c0-0.1,0.1-0.2,0.3-0.3c0.1-0.1,0.2-0.2,0.3-0.3c0.1-0.1,0.1-0.3,0.1-0.4
			c-0.1-0.2-0.3-0.4-0.5-0.4l0,0c-0.1,0-0.1,0-0.1,0c0,0,0,0,0,0c0,0,0,0,0,0c0,0,0-0.1,0-0.1c0-0.1,0-0.1,0-0.2
			c0-0.1,0-0.2-0.1-0.3c-0.1,0-0.1-0.4-0.1-0.6c0-0.1,0-0.1,0-0.1c0-0.1-0.1-0.1-0.3-0.2c-0.1,0-0.2-0.1-0.2-0.1
			c-0.1-0.1-0.7-0.7-0.9-0.9c-0.1-0.1-0.2-0.3-0.1-0.7c0-0.1,0.2-0.4,0.3-0.6c0.1-0.3,0.3-0.5,0.3-0.6c0-0.1,0-0.1,0-0.2
			c-0.1-0.1-0.2-0.1-0.4-0.1c-0.2,0-0.4,0-0.5,0.1c-0.1,0-0.2,0-0.3,0c0,0,0,0,0,0c0,0,0,0,0,0l0,0c0,0,0.1-0.2,0.2-0.3
			c0.1-0.1,0.2-0.3,0.3-0.4c0-0.1,0-0.1,0-0.1c0-0.1-0.2-0.1-0.4-0.1c-0.3,0-0.6,0-0.8,0.1c-0.2,0-0.2,0.2-0.2,0.4
			c0,0.1,0,0.2,0,0.3c0,0-0.1,0.2-0.2,0.4c0,0,0,0.1,0,0.1c0,0,0,0,0-0.1C157.1,135.6,157.1,135.6,157.1,135.5
			C157.1,135.6,157.1,135.5,157.1,135.5z"/>
		<path class="st1" d="M156.8,135.5C156.8,135.5,156.8,135.5,156.8,135.5c0.1,0,0.1,0,0.1,0c0,0,0,0,0-0.1c0-0.1,0-0.1,0-0.2
			c0-0.1,0-0.1,0.1-0.2l0,0c0,0,0-0.1,0-0.1c0,0,0-0.1-0.2-0.1l-0.1,0c0,0-0.1,0-0.1,0c-0.1,0-0.2,0.1-0.2,0.2c0,0.1,0,0.2,0,0.3
			c0,0,0,0,0,0.1C156.6,135.5,156.7,135.5,156.8,135.5z"/>
		<path class="st1" d="M156.4,136.1C156.4,136.1,156.4,136.1,156.4,136.1c0.1,0,0.1-0.1,0.1-0.1c0,0,0,0,0-0.1
			c0-0.1,0.1-0.2,0.1-0.2c0,0,0,0,0,0c0,0-0.1-0.1-0.2-0.1c0,0,0,0,0,0c-0.1,0-0.1,0.1-0.2,0.1c-0.1,0.1-0.1,0.2,0,0.4
			C156.3,136,156.3,136.1,156.4,136.1z"/>
	</g>
</g>
</svg>
