<?xml version="1.0" encoding="utf-8"?>
<!-- Generator: Adobe Illustrator 25.4.1, SVG Export Plug-In . SVG Version: 6.00 Build 0)  -->
<svg version="1.1" id="Capa_1" xmlns="http://www.w3.org/2000/svg" xmlns:xlink="http://www.w3.org/1999/xlink" x="0px" y="0px"
	 viewBox="0 0 374.2 82.7" style="enable-background:new 0 0 374.2 82.7;" xml:space="preserve">
<style type="text/css">
	.st0{fill:#005CB9;}
</style>
<g id="Layer_2">
	<g>
		<g>
			<path class="st0" d="M372.4,40.7V0l-18.7,6c-3.2-3.1-7.5-5-12.3-5s-9.1,1.9-12.3,5l-18.7-6v40.7l27,8.7v7.8l-14.3,21.2l6.5,4.4
				L341.6,65l13,16.9l6.2-4.8L345.3,57v-7.6L372.4,40.7z M359.1,18.7c0-2.1-0.4-4-1-5.9l6.5-2.1V35l-19.2,6.2v-5.3
				C353.2,34.1,359.1,27.1,359.1,18.7z M341.4,8.7c5.5,0,10,4.5,10,10s-4.5,10-10,10s-10-4.5-10-10S335.9,8.7,341.4,8.7z M318.3,35
				V10.7l6.5,2.1c-0.6,1.8-1,3.8-1,5.9c0,8.4,5.9,15.4,13.8,17.2v5.3L318.3,35z"/>
		</g>
		<g>
			<g>
				<path d="M70.4,49.4l0.7,0.6c2.6,2,5.7,3.6,9,3.6c1.4,0,3.7-0.6,3.7-2.4c0-1.8-1.9-2-3.2-2.2l-2.9-0.5c-5.6-1-10.4-4.3-10.4-10.5
					c0-9.4,8.6-14.7,17.2-14.7c4.5,0,8.7,1.1,12.6,3.5l-3.9,10.2c-2.5-1.7-5.3-3-8.4-3c-1.3,0-3.1,0.5-3.1,2.1c0,1.5,1.8,1.7,2.9,2
					l3.3,0.7c6.1,1.4,10.5,4.6,10.5,11.4c0,9.5-8.6,14.2-17.2,14.2c-5,0-10.8-1.4-15.3-3.6L70.4,49.4z"/>
				<path d="M143.4,43.8c0,12.8-9.9,20.4-22,20.4s-22-7.6-22-20.4c0-12.5,9.9-20.6,22-20.6S143.4,31.4,143.4,43.8z M114,44.1
					c0,4.5,3.1,7.6,7.4,7.6s7.4-3.1,7.4-7.6c0-4.2-2.8-7.7-7.4-7.7C116.8,36.3,114,39.8,114,44.1z M128.1,14.8l-8.7,7.6l-4.8-3.3
					l6.9-8.7L128.1,14.8z"/>
				<path d="M142.6,23.9h30.3v12.9l-7.9-0.4v27.2h-14.4V36.4l-7.9,0.4L142.6,23.9L142.6,23.9z"/>
				<path d="M181,63.6h-15.3l13.8-39.7h16l14.2,39.7h-15.3l-1.3-5h-10.9L181,63.6z M190.6,49.2l-1.7-7c-0.4-1.7-0.7-3.4-0.9-5.1
					h-0.5l-2.6,12.1L190.6,49.2L190.6,49.2z"/>
				<path d="M210.4,23.9h13.9l13,22h0.4c-0.6-3.3-1.2-6.7-1.2-10.1V23.9h13.8v39.7h-13.8l-12.7-20.9h-0.4c0.5,2.7,0.9,5.3,0.9,8
					v12.9h-13.8L210.4,23.9L210.4,23.9z"/>
				<path d="M295.9,43.8c0,12.8-9.9,20.4-22,20.4c-12.1,0-22-7.6-22-20.4c0-12.5,9.9-20.6,22-20.6C286,23.3,295.9,31.4,295.9,43.8z
					 M266.5,44.1c0,4.5,3,7.6,7.4,7.6c4.4,0,7.4-3.1,7.4-7.6c0-4.2-2.8-7.7-7.4-7.7S266.5,39.8,266.5,44.1z"/>
			</g>
			<g>
				<path d="M34.9,51.3H15.1v0.7c0,3.1,1.2,4.7,3.5,4.7c1.4,0,2.4-0.7,3-2.2L34,55.4c-1.2,3.2-3.2,5.5-6.2,7.2
					c-2.7,1.4-5.8,2.2-9.4,2.2c-4.5,0-8.4-1.4-11.6-4.2c-3.3-3-4.9-6.7-4.9-11.2c0-4.5,1.6-8.2,4.9-11.2c3.2-2.8,7-4.2,11.6-4.2
					c4.8,0,8.8,1.5,11.9,4.4c3.1,3,4.7,6.8,4.7,11.6C35,50.6,35,51,34.9,51.3z M18.7,41.6c-2,0-3.2,1.3-3.6,4h7
					C22,42.9,20.8,41.6,18.7,41.6z"/>
				<path d="M40.2,63.6V20.5h13.4v43.1C53.6,63.6,40.2,63.6,40.2,63.6z"/>
			</g>
		</g>
	</g>
</g>
</svg>
