<svg id="capa1" xmlns="http://www.w3.org/2000/svg" viewBox="0 0 205.28 56.05"><defs><style>.cls-1{fill:#2c358d;}.cls-2{fill:#ea963c;}.cls-3{fill:none;stroke:#2c358d;stroke-width:0.42px;}.cls-3,.cls-4{stroke-miterlimit:10;}.cls-4{font-size:7.67px;stroke:#000;stroke-width:0.16px;font-family:STHeitiSC-Medium, Heiti SC;font-weight:500;letter-spacing:0.42em;}.cls-5{letter-spacing:0.48em;}</style></defs><rect x="78.65" y="17.54" width="18.33" height="5.9"/><path d="M80.86,35.81a12.28,12.28,0,0,0-7.67-13c-.6-.21-8.12-2.64-13.58,1.77a13.15,13.15,0,0,0-3.83,5.31,11.68,11.68,0,0,0,2.95,13c3.2,3,7,3.14,9.14,3.25a13.37,13.37,0,0,0,6.2-.89,12.78,12.78,0,0,0,5.31-4.13l-5.31-2.36s-1.47,2.36-5.9,2.36c0,0-6.2,0-7.08-5.31H80.86Zm-13-9.15a7,7,0,0,1,6.79,4.43H61.38C62.27,27,67.87,26.66,67.87,26.66Z" transform="translate(-8 -13.45)"/><path class="cls-1" d="M8,13.45v53H25.18v-8h8.88V51.65h8V46h-.3s1-7.85-7.55-6.67l-8,15.4s-1.18.6-.88-.88l2.07-6.22s3-10.07.59-16c0,0-5.63-4.73-7.7,3.85,0,0-7.4-7.1,9.77-8.58,0,0,11,4.73,12.15-1.78,0,0,3,5-5.33,6.51l-1.19,4.15s9.18-.3,8.29,8.88h4.74V13.6ZM34.48,26.28a3.7,3.7,0,0,1-3.83-3.54,3.85,3.85,0,0,1,7.67,0A3.7,3.7,0,0,1,34.48,26.28Z" transform="translate(-8 -13.45)"/><polygon class="cls-2" points="105.4 0.2 105.4 8.76 102.45 8.76 102.45 13.78 105.4 13.78 105.4 31.78 111.89 31.78 111.89 13.78 115.44 13.78 115.44 8.76 111.6 8.76 111.6 0.2 105.4 0.2"/><path class="cls-2" d="M151.17,31.36a12.32,12.32,0,0,0-5.9-8,13.14,13.14,0,0,0-7.08-1.77c-7.21.46-12.58,6-12.69,12.1-.09,5.4,4,9.85,8.56,11.51a13.24,13.24,0,0,0,14.75-4.13A12.31,12.31,0,0,0,151.17,31.36ZM145,35.49A6.76,6.76,0,0,1,131.7,34a7.06,7.06,0,0,1,6.49-7.08,6.57,6.57,0,0,1,4.43,1.48A6.92,6.92,0,0,1,145,35.49Z" transform="translate(-8 -13.45)"/><path d="M180.43,26.67a11.85,11.85,0,0,0-6.79-4.43,11.16,11.16,0,0,0-7.37.59,10.12,10.12,0,0,0-3,2.07V13.68h-6.2V45.55h6.2V43.19a11.06,11.06,0,0,0,15,0,12.19,12.19,0,0,0,3.84-6.49A12.34,12.34,0,0,0,180.43,26.67Zm-5.9,12.1a6.82,6.82,0,0,1-6.2,2.06,7,7,0,0,1-5.6-7.08,6.87,6.87,0,0,1,6.78-6.49,6.87,6.87,0,0,1,5,11.51Z" transform="translate(-8 -13.45)"/><path d="M212.3,35.81a12.28,12.28,0,0,0-7.67-13c-.6-.2-8.12-2.64-13.58,1.77a13.15,13.15,0,0,0-3.83,5.31,11.85,11.85,0,0,0-.59,6.79,12,12,0,0,0,3.54,6.2c3.2,2.94,7.05,3.14,9.15,3.24a13.45,13.45,0,0,0,6.19-.88,12.94,12.94,0,0,0,5.31-4.13l-5.31-2.36s-1.47,2.36-5.9,2.36c0,0-6.2,0-7.08-5.32H212.3Zm-13-9.14a7,7,0,0,1,6.78,4.42H192.82C193.71,27,199.32,26.67,199.32,26.67Z" transform="translate(-8 -13.45)"/><line class="cls-3" x1="41.55" y1="42.47" x2="205.28" y2="42.04"/><text class="cls-4" transform="translate(69.35 54.08)">Enlace<tspan class="cls-5" x="44.76" y="0" xml:space="preserve"> y Futuro </tspan></text></svg>