<?xml version="1.0" encoding="utf-8"?>
<!-- Generator: Adobe Illustrator 23.0.1, SVG Export Plug-In . SVG Version: 6.00 Build 0)  -->
<svg version="1.1" id="Layer_1" xmlns="http://www.w3.org/2000/svg" xmlns:xlink="http://www.w3.org/1999/xlink" x="0px" y="0px"
	 viewBox="0 0 243.85 78.15" style="enable-background:new 0 0 243.85 78.15;" xml:space="preserve">
<style type="text/css">
	.Arched_x0020_Green{fill:url(#SVGID_1_);stroke:#FFFFFF;stroke-width:0.25;stroke-miterlimit:1;}
	.st0{fill:#6B2F90;}
</style>
<linearGradient id="SVGID_1_" gradientUnits="userSpaceOnUse" x1="-249.4742" y1="350.2515" x2="-248.7671" y2="349.5444">
	<stop  offset="0" style="stop-color:#20AC4B"/>
	<stop  offset="0.9831" style="stop-color:#19361A"/>
</linearGradient>
<g>
	<g>
		<g>
			<path class="st0" d="M43.93,28.48H32.17l-0.55,3.48h-0.12c-1.81-3.3-5.15-4.58-9.03-4.58c-10.15,0-18.3,8.26-19.83,17.95
				C1.11,54.9,6.6,62.26,16.28,62.26c4.4,0,7.73-1.49,11.25-4.52l-0.25,1.54c-0.85,5.37-2.73,9.5-9.06,9.5
				c-1.1,0-2.28-0.26-3.23-0.78c-0.96-0.51-1.67-1.35-1.8-2.52H0.01c-0.34,8.72,9.24,12.66,16.86,12.66
				c12.2,0,20.08-5.68,22.32-19.76L43.93,28.48L43.93,28.48L43.93,28.48z M23.6,37.32c4.77,0,7.01,3.42,6.37,7.49
				c-0.66,4.21-3.95,7.43-8.73,7.43c-4.79,0-7.05-3.22-6.38-7.43C15.5,40.74,18.82,37.32,23.6,37.32L23.6,37.32L23.6,37.32z"/>
			<path class="st0" d="M68.43,37.58c4.78,0,7.02,3.43,6.37,7.5c-0.66,4.19-3.95,7.42-8.73,7.42c-4.78,0-7.04-3.23-6.38-7.42
				C60.33,41.01,63.65,37.58,68.43,37.58L68.43,37.58L68.43,37.58z M88.8,28.48H77.04l-0.51,3.22c-1.99-2.91-5.77-4.33-9.58-4.33
				c-9.82,0-17.89,8.14-19.39,17.64c-1.51,9.49,4.11,17.7,13.92,17.7c3.88,0,8.19-1.49,10.77-4.79h0.12l-0.58,3.7h11.76L88.8,28.48
				L88.8,28.48L88.8,28.48z"/>
			<path class="st0" d="M107.72,28.48H95.97l-5.25,33.14h11.76l2.73-17.19c0.66-4.13,2.57-7.69,7.35-7.69
				c5.81,0,4.41,5.55,3.92,8.72l-2.56,16.15h11.76l3.24-20.49c1.29-8.13-1.37-13.75-10.28-13.75c-4.59,0-8.09,1.36-11.45,5.35h-0.13
				L107.72,28.48L107.72,28.48L107.72,28.48z"/>
			<path class="st0" d="M158.33,61.62h11.76l8.48-53.61h-11.76l-3.74,23.7c-2-2.91-5.78-4.33-9.6-4.33
				c-9.81,0-17.88,8.14-19.38,17.64c-1.51,9.49,4.11,17.7,13.92,17.7c3.88,0,8.19-1.49,10.77-4.79h0.13L158.33,61.62L158.33,61.62
				L158.33,61.62z M154.97,37.58c4.78,0,7.02,3.43,6.36,7.5c-0.66,4.19-3.95,7.42-8.72,7.42c-4.78,0-7.05-3.23-6.38-7.42
				C146.87,41.01,150.19,37.58,154.97,37.58L154.97,37.58L154.97,37.58z"/>
			<path class="st0" d="M185.94,8.01l-8.49,53.61h11.76l2.68-16.99c0.61-3.88,2.73-7.88,7.38-7.88c4.72,0,4.67,4,4.05,7.88
				l-2.69,16.99h11.75l3.21-20.29c1.33-8.4-1.86-13.95-10.26-13.95c-4.58,0-8.15,1.68-11.43,5.3h-0.13l3.91-24.67H185.94
				L185.94,8.01L185.94,8.01z"/>
			<path class="st0" d="M236.49,28.48h-11.75l-5.25,33.14h11.75L236.49,28.48L236.49,28.48L236.49,28.48z M233.67,9.16
				c-3.62,0-7.06,2.97-7.63,6.59c-0.58,3.62,1.93,6.59,5.54,6.59c3.61,0,7.05-2.97,7.63-6.59C239.79,12.13,237.29,9.16,233.67,9.16
				L233.67,9.16L233.67,9.16z"/>
			<path class="st0" d="M235.21,57.4c0,2.57,2.04,4.22,4.32,4.22c2.29,0,4.32-1.65,4.32-4.22c0-2.56-2.04-4.2-4.32-4.2
				C237.25,53.2,235.21,54.84,235.21,57.4L235.21,57.4L235.21,57.4z M236.36,57.4c0-1.92,1.41-3.3,3.18-3.3
				c1.74,0,3.17,1.38,3.17,3.3c0,1.92-1.43,3.32-3.17,3.32C237.76,60.72,236.36,59.32,236.36,57.4L236.36,57.4L236.36,57.4z
				 M237.86,59.75h0.93v-2.01h0.59l1.14,2.01h0.98l-1.27-2.06c0.7-0.06,1.24-0.39,1.24-1.26c0-1.02-0.66-1.39-1.84-1.39h-1.78V59.75
				L237.86,59.75L237.86,59.75z M238.79,55.76h0.79c0.42,0,0.96,0.08,0.96,0.59c0,0.57-0.4,0.66-0.92,0.66h-0.84V55.76L238.79,55.76
				L238.79,55.76z"/>
		</g>
	</g>
</g>
<g>
	<path class="st0" d="M27.02,0.52h2.84v23.19h-2.84V0.52z"/>
	<path class="st0" d="M34.13,0.52h2.89v3.22h-2.89V0.52z M34.13,6.88h2.89v16.83h-2.89V6.88z"/>
	<path class="st0" d="M41.07,0.44h2.76v8.42c0.62-0.81,1.37-1.43,2.23-1.86c0.87-0.43,1.81-0.64,2.82-0.64
		c2.11,0,3.83,0.72,5.14,2.17c1.32,1.45,1.97,3.58,1.97,6.4c0,2.67-0.65,4.89-1.95,6.66c-1.3,1.77-3.1,2.65-5.4,2.65
		c-1.29,0-2.38-0.31-3.26-0.93c-0.53-0.37-1.09-0.96-1.7-1.77v2.16h-2.62V0.44z M51.94,19.91c0.77-1.22,1.15-2.83,1.15-4.83
		c0-1.78-0.38-3.25-1.15-4.42c-0.77-1.17-1.89-1.75-3.38-1.75c-1.3,0-2.44,0.48-3.41,1.44c-0.98,0.96-1.47,2.54-1.47,4.74
		c0,1.59,0.2,2.88,0.6,3.87c0.75,1.86,2.15,2.79,4.2,2.79C50.02,21.74,51.17,21.13,51.94,19.91z"/>
	<path class="st0" d="M59.37,6.81h2.7v2.92c0.22-0.57,0.76-1.26,1.63-2.08c0.86-0.82,1.86-1.22,2.98-1.22
		c0.05,0,0.14,0.01,0.27,0.02c0.13,0.01,0.34,0.03,0.65,0.06v3c-0.17-0.03-0.32-0.05-0.47-0.06c-0.14-0.01-0.3-0.02-0.47-0.02
		c-1.43,0-2.53,0.46-3.3,1.38c-0.77,0.92-1.15,1.98-1.15,3.18v9.73h-2.84V6.81z"/>
	<path class="st0" d="M80.51,7.27c1.12,0.56,1.97,1.29,2.56,2.19c0.56,0.85,0.94,1.85,1.13,2.98c0.17,0.78,0.25,2.02,0.25,3.73
		h-12.3c0.05,1.72,0.45,3.1,1.21,4.14c0.75,1.04,1.92,1.56,3.49,1.56c1.47,0,2.65-0.49,3.52-1.48c0.49-0.57,0.84-1.23,1.04-1.98
		h2.79c-0.07,0.62-0.32,1.31-0.73,2.08c-0.42,0.76-0.88,1.39-1.39,1.87c-0.86,0.84-1.92,1.41-3.18,1.71
		c-0.68,0.17-1.45,0.25-2.3,0.25c-2.09,0-3.86-0.77-5.32-2.3c-1.45-1.53-2.18-3.68-2.18-6.43c0-2.72,0.73-4.92,2.2-6.62
		c1.46-1.69,3.38-2.54,5.74-2.54C78.23,6.43,79.39,6.71,80.51,7.27z M81.52,13.91c-0.11-1.23-0.38-2.22-0.8-2.95
		c-0.77-1.37-2.06-2.05-3.87-2.05c-1.29,0-2.38,0.47-3.26,1.41c-0.88,0.94-1.34,2.14-1.39,3.59H81.52z"/>
	<path class="st0" d="M88.12,6.81h2.7v2.92c0.22-0.57,0.76-1.26,1.63-2.08c0.86-0.82,1.86-1.22,2.98-1.22
		c0.05,0,0.14,0.01,0.27,0.02c0.13,0.01,0.34,0.03,0.65,0.06v3c-0.17-0.03-0.32-0.05-0.47-0.06c-0.14-0.01-0.3-0.02-0.47-0.02
		c-1.43,0-2.53,0.46-3.3,1.38c-0.77,0.92-1.15,1.98-1.15,3.18v9.73h-2.84V6.81z"/>
	<path class="st0" d="M104.75,0l-4.22,4.56h-2.18L101.24,0H104.75z M99.71,6.88h2.89v16.83h-2.89V6.88z"/>
	<path class="st0" d="M116.86,13.48c0.65-0.08,1.09-0.36,1.31-0.82c0.13-0.25,0.19-0.62,0.19-1.09c0-0.97-0.34-1.68-1.03-2.12
		c-0.69-0.44-1.67-0.66-2.95-0.66c-1.48,0-2.53,0.4-3.15,1.21c-0.35,0.44-0.57,1.11-0.68,1.98h-2.65c0.05-2.09,0.73-3.54,2.03-4.36
		c1.3-0.82,2.8-1.23,4.52-1.23c1.99,0,3.6,0.38,4.84,1.14c1.23,0.76,1.85,1.94,1.85,3.54v9.74c0,0.29,0.06,0.53,0.18,0.71
		c0.12,0.18,0.38,0.27,0.77,0.27c0.13,0,0.27-0.01,0.43-0.02c0.16-0.02,0.33-0.04,0.5-0.07v2.1c-0.44,0.13-0.78,0.21-1.01,0.24
		c-0.23,0.03-0.55,0.05-0.95,0.05c-0.98,0-1.69-0.35-2.13-1.04c-0.23-0.37-0.4-0.89-0.49-1.56c-0.58,0.76-1.41,1.42-2.49,1.97
		c-1.08,0.56-2.28,0.84-3.58,0.84c-1.57,0-2.85-0.48-3.84-1.43c-0.99-0.95-1.49-2.14-1.49-3.57c0-1.57,0.49-2.78,1.47-3.64
		c0.98-0.86,2.26-1.39,3.85-1.59L116.86,13.48z M110.87,21.16c0.6,0.47,1.31,0.71,2.13,0.71c1,0,1.97-0.23,2.9-0.69
		c1.58-0.77,2.37-2.02,2.37-3.77v-2.29c-0.35,0.22-0.79,0.41-1.34,0.55c-0.55,0.15-1.08,0.25-1.61,0.32l-1.72,0.22
		c-1.03,0.14-1.8,0.35-2.32,0.65c-0.88,0.49-1.32,1.28-1.32,2.36C109.97,20.04,110.27,20.69,110.87,21.16z"/>
	<path class="st0" d="M127.47,18.41c0.09,0.95,0.33,1.67,0.73,2.18c0.73,0.92,2,1.37,3.8,1.37c1.07,0,2.02-0.23,2.84-0.69
		c0.82-0.46,1.22-1.17,1.22-2.12c0-0.73-0.33-1.28-0.98-1.66c-0.42-0.23-1.24-0.5-2.47-0.81l-2.29-0.57
		c-1.47-0.36-2.55-0.76-3.24-1.2c-1.24-0.77-1.86-1.83-1.86-3.19c0-1.6,0.58-2.89,1.75-3.88c1.17-0.99,2.74-1.48,4.71-1.48
		c2.58,0,4.44,0.75,5.58,2.24c0.71,0.95,1.06,1.97,1.04,3.06h-2.68c-0.05-0.64-0.29-1.22-0.7-1.74c-0.67-0.74-1.83-1.11-3.47-1.11
		c-1.1,0-1.93,0.2-2.5,0.61c-0.57,0.41-0.85,0.95-0.85,1.62c0,0.73,0.37,1.32,1.12,1.76c0.43,0.26,1.06,0.49,1.9,0.69l1.91,0.46
		c2.08,0.5,3.47,0.97,4.18,1.44c1.11,0.73,1.66,1.87,1.66,3.43c0,1.51-0.58,2.81-1.73,3.9c-1.16,1.09-2.92,1.64-5.28,1.64
		c-2.55,0-4.35-0.57-5.41-1.71c-1.06-1.14-1.63-2.55-1.7-4.24H127.47z"/>
</g>
</svg>
