<?xml version="1.0" encoding="utf-8"?>
<!-- Generator: Adobe Illustrator 26.0.2, SVG Export Plug-In . SVG Version: 6.00 Build 0)  -->
<svg version="1.1" id="Capa_1" xmlns="http://www.w3.org/2000/svg" xmlns:xlink="http://www.w3.org/1999/xlink" x="0px" y="0px"
	 viewBox="0 0 920.82 349.55" style="enable-background:new 0 0 920.82 349.55;" xml:space="preserve">
<style type="text/css">
	.st0{fill:#85744D;}
	.st1{fill:#1D5531;}
	.st2{fill-rule:evenodd;clip-rule:evenodd;fill:#1D5531;}
</style>
<g>
	<g>
		<g>
			<g>
				<g>
					<g>
						<path class="st0" d="M297.04,273.93c6.4,0,11.38,4.95,11.38,11.16c0,6.32-4.98,11.22-11.45,11.22
							c-6.39,0-11.49-4.9-11.49-11.22c0-6.21,5.11-11.16,11.49-11.16H297.04z M296.9,276.16c-4.89,0-8.57,4.01-8.57,8.92
							c0,4.97,3.68,8.91,8.7,8.91c4.91,0.07,8.52-3.94,8.52-8.91c0-4.9-3.61-8.92-8.59-8.92H296.9z M295.21,290.87h-2.59v-11.1
							c1.03-0.21,2.45-0.4,4.29-0.4c2.12,0,3.08,0.33,3.89,0.88c0.6,0.47,1.08,1.36,1.08,2.38c0,1.3-0.95,2.25-2.32,2.65v0.13
							c1.1,0.36,1.7,1.24,2.05,2.73c0.34,1.71,0.55,2.4,0.82,2.73h-2.78c-0.36-0.41-0.55-1.37-0.9-2.65
							c-0.2-1.24-0.88-1.78-2.3-1.78h-1.24V290.87z M295.28,284.6h1.23c1.43,0,2.59-0.48,2.59-1.63c0-1.02-0.75-1.7-2.38-1.7
							c-0.69,0-1.15,0.06-1.43,0.13V284.6z"/>
						<path class="st0" d="M66.75,297.35c-7.96,0-14.41-6.47-14.42-14.43l0,0V66.61h0.01c0-7.97,6.43-14.42,14.41-14.42l0,0h202.76
							c7.97,0,14.42,6.46,14.44,14.42l0,0l-0.01,216.32c0,7.97-6.45,14.43-14.42,14.43l0,0H66.75L66.75,297.35z M57.74,282.93
							c0.01,4.98,4.04,9,9.01,9.01l0,0h202.76c4.99-0.01,9.02-4.03,9.02-9.01l0,0l0.01-216.32c-0.01-4.98-4.04-9-9.03-9.02l0,0
							H66.75c-4.97,0.02-9,4.04-9.01,9.02l0,0V282.93L57.74,282.93z"/>
						<path class="st1" d="M270.95,150.48V76.89c0-6.47-5.25-11.72-11.72-11.72H77.04c-6.47,0-11.72,5.25-11.72,11.72v195.75
							c0,6.47,5.25,11.72,11.72,11.72h182.19c6.47,0,11.72-5.25,11.72-11.72l0-100.91H181.9v23.04h62.07
							c-9.01,25.11-34.48,43.26-64.42,43.26c-37.44,0-67.91-28.38-67.91-63.27c0-34.89,30.46-63.27,67.91-63.27
							c28.22,0,52.46,16.12,62.7,38.99L270.95,150.48z M179.55,88.45c-50.23,0-90.95,38.64-90.95,86.31s40.72,86.31,90.95,86.31
							c28.84,0,54.53-12.74,71.2-32.61v35.69H85.53V85.37h165.22v35.69C234.09,101.19,208.39,88.45,179.55,88.45z"/>
					</g>
					<g>
						<path class="st2" d="M444.74,122.33c-43.14,29.94-35.18,104.38-35.18,104.38h18.2v-26.9h34.04v26.9h17.8
							C487.25,151.19,444.74,122.33,444.74,122.33z M444.78,178.71l-12.33-0.02c0,0,0-0.03,0-0.04
							c3.27-18.2,10.18-23.75,12.33-25.08c2.15,1.32,9.06,6.87,12.33,25.08c0,0.01,0,0.03,0,0.03L444.78,178.71z"/>
						<path class="st1" d="M566.58,174.59c0,18.69,14.89,33.86,33.31,33.86c18.37,0,33.29-15.16,33.29-33.86
							c0-18.67-14.92-33.8-33.29-33.8C581.47,140.79,566.58,155.92,566.58,174.59 M548.59,174.59c0-28.76,22.93-52.11,51.29-52.11
							c28.31,0,51.26,23.35,51.26,52.11c0,28.81-22.95,52.12-51.26,52.12C571.53,226.71,548.59,203.4,548.59,174.59"/>
						<path class="st1" d="M773.82,174.59c0,18.69,14.92,33.86,33.32,33.86c18.38,0,33.3-15.16,33.3-33.86
							c0-18.67-14.92-33.8-33.3-33.8C788.74,140.79,773.82,155.92,773.82,174.59 M755.86,174.59c0-28.76,22.94-52.11,51.28-52.11
							c28.32,0,51.29,23.35,51.29,52.11c0,28.81-22.97,52.12-51.29,52.12C778.8,226.71,755.86,203.4,755.86,174.59"/>
						<path class="st1" d="M510.79,173.2c3.07-1.3,18.81-9.91,19.72-50.72h19.52c0,0,4.85,44.48-28.72,67.9v36.33h-21.06l0.03-36.33
							c-33.55-23.42-28.73-67.9-28.73-67.9h19.55C492,163.29,507.76,171.9,510.79,173.2"/>
						<path class="st1" d="M858.39,206.62c5.69,0,10.12,4.41,10.12,9.93c0,5.63-4.42,9.97-10.17,9.97c-5.69,0-10.23-4.34-10.23-9.97
							c0-5.51,4.55-9.93,10.23-9.93H858.39z M858.27,208.62c-4.35,0-7.64,3.56-7.64,7.92c0,4.42,3.28,7.93,7.75,7.93
							c4.36,0.06,7.57-3.51,7.57-7.93c0-4.36-3.2-7.92-7.62-7.92H858.27z M856.77,221.68h-2.31v-9.87c0.91-0.18,2.18-0.36,3.82-0.36
							c1.88,0,2.72,0.3,3.45,0.79c0.54,0.42,0.96,1.2,0.96,2.1c0,1.17-0.83,2-2.04,2.37v0.12c0.96,0.3,1.5,1.08,1.8,2.42
							c0.31,1.51,0.49,2.12,0.75,2.41h-2.48c-0.32-0.36-0.48-1.21-0.8-2.35c-0.18-1.1-0.78-1.57-2.04-1.57h-1.08V221.68z
							 M856.83,216.12h1.09c1.26,0,2.3-0.42,2.3-1.46c0-0.9-0.68-1.51-2.12-1.51c-0.61,0-1.03,0.06-1.27,0.11V216.12z"/>
						<path class="st2" d="M400.58,173.55h-17.42v33.36c-4.86,1.55-10.89,2.53-16.79,1c-0.13-0.03-0.26-0.06-0.39-0.1
							c-0.13-0.03-0.26-0.07-0.39-0.11c-0.5-0.14-0.99-0.29-1.49-0.46c-0.08-0.03-0.16-0.05-0.24-0.08
							c-9.56-3.31-19.09-12.25-19.09-34.72c0-26.19,15.94-35.06,31.35-35.06l0.01,0c14.96,0,22.89,6.33,26.86,11.35v-19.75
							c0,0-7.97-9.98-29.65-9.98c-22.93,0-47.68,14.63-48.23,55.13c0,0-0.25,54.22,44.9,53.95v0.01c0.16,0,0.33-0.01,0.49-0.01
							c0.37-0.01,0.74-0.02,1.11-0.03c0.54-0.02,1.08-0.04,1.62-0.07c0.36-0.02,0.74-0.05,1.11-0.08c0.43-0.04,0.86-0.07,1.29-0.11
							c6.45-0.63,13.71-2.28,21.91-5.22v0c1.03-0.36,2.03-0.74,3.05-1.12V173.55z"/>
						<path class="st2" d="M692.96,128.3c0,0-4.07-5.86-15.46-5.86c-11.39,0-21.65,8.24-21.65,24.53s6.99,23.21,16.16,31.85
							c9.17,8.65,12.4,14.06,12.4,19.62c0,5.71-4.29,10.15-10,10.15c-5.98,0-12.82-7.1-12.82-7.1v21.09c0,0,4.02,6.59,16.15,6.59
							c12.43,0,25.96-9.72,25.96-27.97c0-13.93-5.71-23.16-13.43-30.87c-7.72-7.72-13.13-11.88-13.13-19.95
							c0-6.62,3.41-10.78,6.72-10.78c5.21,0,9.1,6.11,9.1,6.11V128.3z"/>
						<path class="st2" d="M744.05,128.3c0,0-4.07-5.86-15.46-5.86s-21.65,8.24-21.65,24.53s6.99,23.21,16.16,31.85
							c9.17,8.65,12.4,14.06,12.4,19.62c0,5.71-4.29,10.15-10,10.15c-5.98,0-12.82-7.1-12.82-7.1v21.09c0,0,4.02,6.59,16.15,6.59
							c12.43,0,25.96-9.72,25.96-27.97c0-13.93-5.71-23.16-13.43-30.87c-7.72-7.72-13.13-11.88-13.13-19.95
							c0-6.62,3.41-10.78,6.72-10.78c5.21,0,9.1,6.11,9.1,6.11V128.3z"/>
					</g>
				</g>
			</g>
		</g>
	</g>
</g>
</svg>
