<svg id="Capa_1" data-name="Capa 1" xmlns="http://www.w3.org/2000/svg" viewBox="0 0 901 842"><defs><style>.cls-1{fill:#fdfefe;}.cls-2{fill:#02b4ee;}.cls-3{fill:#03b4ed;}.cls-4{fill:#006dae;}.cls-5{fill:#eef1f2;}.cls-6{fill:#026fb0;}.cls-7{fill:#e0512a;}.cls-8{fill:#02a8e3;}.cls-9{fill:#06b3eb;}.cls-10{fill:#0179b9;}.cls-11{fill:#019ad7;}.cls-12{fill:#f8f9fa;}.cls-13{fill:#d6452a;}.cls-14{fill:#f2f4f5;}.cls-15{fill:#0194d1;}.cls-16{fill:#0181c0;}.cls-17{fill:#018dca;}.cls-18{fill:#028fcd;}.cls-19{fill:#019fdb;}.cls-20{fill:#0176b7;}.cls-21{fill:#016eaf;}.cls-22{fill:#0285c4;}.cls-23{fill:#cf3d28;}.cls-24{fill:#dd552f;}.cls-25{fill:#bd2325;}.cls-26{fill:#c53126;}.cls-27{fill:#dee8ef;}.cls-28{fill:#d80c2c;}.cls-29{fill:#3ea1fe;}.cls-30{fill:#fafcfd;}</style></defs><path class="cls-1" d="M901,842H0V0H901ZM111.78,690q0,4.5,0,9l-.35,15.83-.43,8.34h59.88L153,708l-9.14-10L136,687.93c-1.56-2.35-3.11-4.71-4.66-7.06L117.93,655l-5.76-15.33-.57.26v15.18q.09,13,.17,25.94C111.77,684,111.78,687,111.78,690ZM548.6,707.46l7.24.41c-2.68-7.3-12.89-9.46-17.44-4.49-2.83,3.09-2,7.56,1.91,9.58,1.89,1,4.14,1.21,6.09,2.09a7.88,7.88,0,0,1,2.67,2.48c.13.16-.83,1.68-1.32,1.7-1.21.06-3.16,0-3.53-.71-2-3.81-5-2.7-8-2.15,1.09,6.54,5.45,9,13,7.64,4-.73,6.85-2.88,7.21-7.07.33-3.9-2.16-6-5.68-7.14-1.1-.35-2.16-.84-3.23-1.26ZM329,435l-7.11,14-16,17.83a133.6,133.6,0,0,0,52.58,4.68c1.08,1.13,2.14,3.24,3.25,3.26,12.12.24,24.25.15,36.84.15l-2.37-13.14,8-3.13v15.95H443.8V446c.17-2.27.33-4.55.47-6.46,10,.89,19.78,2.1,29.57,2.55,11.07.52,22.05-.42,32.4-5a42.88,42.88,0,0,0,20.55-12.81l9.42-14.26q1.71-7,3.44-14.05c.89-7.29.56-14.43-2.51-21.25a74.87,74.87,0,0,0-2.86-7.85c-6.55-13.4-17-23.49-28.39-32.68a49.79,49.79,0,0,0,2.29-6.54c1.77-8.57,3.36-17.19,5-25.79,3.45-17.91,3.4-35.94,1.71-54-.36-3.85-1.49-7.63-2.36-12-5,5.75-9.3,11.22-14.23,16a9.8,9.8,0,0,0-3.37,8.16A226.66,226.66,0,0,1,492,306.73c-.92,5.31-1.66,10.65-2.49,16L458,305.39c2-1.4,5.45-2.6,5.68-4.24,1.2-8.81,1.68-17.72,2.22-26.61.2-3.24-1.55-4.85-5-4.56a24.24,24.24,0,0,1-17.27-4.85c-1.07-.81-2.07-1.71-2.71-2.23,0,5.92.29,11.69-.09,17.41-.36,5.32-1.45,10.58-2.21,15.87L404.51,281.7c0,26.73,0,52.61,0,78.5,0,3.28.21,6.57.32,9.85l-.6,2.91-1.14-.21c-1-2.32-2-4.65-2.75-6.48l-20.37,11L377.07,366a17.27,17.27,0,0,0-.05-3c-6.17-31.92-12.3-63.85-18.69-95.72a9.83,9.83,0,0,0-4.5-5.73c-15.32-8.48-31.87-12-49.34-11.59-10.84.25-10.84.14-12.91,11-.22,1.14-.46,2.27-.67,3.41q-4,21.25-7.93,42.49c0-7.07-.47-14.17,0-21.2A97.1,97.1,0,0,1,289.67,256q2.76-6.46,5.53-12.93c5-6.43,1-12.74-.27-19.08l-9.75-20.4c-5.75-5.67-11.33-11.52-17.33-16.91-2.07-1.87-5.16-2.61-7.78-3.87l-12.88-6.93-10.14-4.07c-11.91,17.24-21.86,35.23-28,55.19a13.15,13.15,0,0,0-.9,1.75c-11,33.69-14.8,68-9.27,103.2l-47.4,10.76V268.44A161.88,161.88,0,0,0,113,293.37a4.71,4.71,0,0,0-.93,3.18c0,17.82.11,35.64.18,53.46v44q0,8,0,16t0,16v48.57h38.93V428.05q0-8,0-16t.25-16.05c1.84-.7,3.64-1.53,5.52-2.08,8-2.33,16-4.58,24-6.85l26.67-4.64c.21,3.07.36,5.33.51,7.59v84.56h39V436c.11-1.66.21-3.31.32-5l.63,1.23.85.75,9.94,9c-1.81,10.75-3.63,21.51-5.5,32.53h39.21c.87-4.06,1.65-7.78,2.44-11.5,1.83,0,4.14.62,5.41-.25,9.13-6.21,15.48-14.86,20.31-24.64.53-1.07,0-3.95-.57-4.09-6.38-1.64-12.1-6.61-19.33-4l-.3-1.11Q302,421,303.48,413l29.79,1.92Q331.14,425,329,435Zm93,266.15-43.71,21.13.43,1.39L423,713l40.59-8.71c1.47-.13,3-.16,4.42-.42,19.06-3.4,38.1-6.87,57.17-10.23,9.26-1.63,18.56-3.06,27.84-4.57l20-2.31,28-2.8,31-2.08,32-.89,31,1.38,31,3.51,26.17,5.5c0-17.33,0-34.25-.09-51.17a3.82,3.82,0,0,0-2.11-2.82c-7.93-2.63-15.94-5-23.93-7.49l-31-5.82-31-1.21-32,2.08-32.07,5.86-27,7L553,644.1c-31.66,10.33-62,23.74-92,38.14ZM632.37,595V540.46l1.24-.17,6,16.83,5,15q2.61,7.93,5.21,15.88c1.5,4.91,2.85,9.88,4.63,14.69a4.73,4.73,0,0,0,3.56,2.36q15.22.27,30.45,0c1.16,0,3-1,3.33-2,2-6.25,3.56-12.6,5.29-18.92q3-8,6-16,3-9.07,6-18.14c1.14-2.81,2.27-5.62,3.91-9.66.21,4.46.36,7.55.51,10.64v43c-.09,4.47,0,9-.31,13.41-.18,2.8.9,3.92,3.48,5,11,4.53,21.88,9.41,32.81,14.15,1,.42,2,.72,3.07,1.1V486a9.47,9.47,0,0,0-1.92-.5c-18.77,0-37.55-.11-56.32.08a5.54,5.54,0,0,0-4.07,3.08c-5.12,15.06-10,30.22-14.91,45.34-.61,1.5-1.23,3-2,4.92L671,534c-4.94-15.29-9.79-30.62-15-45.83-.45-1.31-3.15-2.61-4.82-2.62-17.95-.19-35.9-.13-53.85-.1a36.65,36.65,0,0,0-3.85.39v130l38.91-7.44ZM756.69,459q2.2-8.49,4.4-17t4.69-17q1.71-6.81,3.41-13.62l5.13-18.89c3.73-13.6,7.49-27.18,11.18-40.79,2.94-10.85,5.79-21.73,8.82-33.12a13.56,13.56,0,0,0-2.4.7C778,327.13,764.1,335,750.31,343a8.19,8.19,0,0,0-3.17,4.62c-3.76,13.77-7.32,27.59-10.93,41.4q-2.15,8.43-4.28,16.87l-1.81-.1q-4.47-8.41-8.92-16.84c-4.76-9.13-9.67-18.18-14.17-27.43-1.64-3.38-3.73-4-7.06-3.37-7.83,1.47-15.7,2.69-23.55,4.07-2.5.45-5,1.09-7.93,1.74,4.69,8.46,9,16.29,13.35,24.12l9.06,17q4.19,8,8.38,16,4.86,9,9.73,18c.88,7.88,7.79,4.19,12,5.87-.95,3.91-1.82,7.53-2.69,11.14l-5.23,18.87c12.94,0,25,.05,37.11-.11a4.08,4.08,0,0,0,3-2.36C754.58,468,755.57,463.48,756.69,459ZM545.53,400q0,7,0,14v12q0,16.92,0,33.83v14.76h39.39V461l.21-12c13.72.63,27.44,1.84,41.16,1.71A52.75,52.75,0,0,0,655,441.88c7-2.74,11.22-8.21,14.18-14.84,3.15-5.76,3.49-11.82,2-18.09-1.58-9.85-7.46-16.95-14.79-23.12-8.49-5.75-16.57-12.27-25.54-17.12-26.58-14.36-55.47-23-84-32.39-.38-.13-.89.13-1.32.21V381Q545.52,390.5,545.53,400ZM287.12,632q1.86,8.52,3.71,17l4.95,23.42L306,724.06c18.49-6.67,36-12.91,53.42-19.4a6.91,6.91,0,0,0,3.91-4.23c2.25-12.07,4.11-24.22,6.09-36.34l3.9-23,3.6-20.07,3.39-20.93q1.69-9.44,3.4-18.88c.62-2.84,1.25-5.68,2.12-9.67,1.35,4,2.3,6.72,3.25,9.48l6.72,22.53q2.76,9.74,5.53,19.48,3.39,11.49,6.8,23l9.65,34.18c17.91-8.64,34.91-17.35,52.36-25,7.64-3.36,12.34-7.67,12.55-16.16l6-25.88L493.93,590q2.43-10,4.84-20c.49-1.74,1-3.47,1.44-5.23,1.13-4.87,2.21-9.76,3.31-14.64,5.08-21.36,10.16-42.72,15.38-64.69-13.1,0-25.08-.07-37,.13-1.05,0-2.68,1.68-3,2.87-1.67,5.91-3.06,11.9-4.42,17.89Q469.1,529.65,463.89,553l-4.8,20q-2.43,10-4.84,20-2.73,12-5.45,23.92c-1.47,5.46-2.94,10.93-4.7,17.45-1.75-5.51-3.19-10-4.62-14.54L433,598q-3-10.5-6.1-21-2.93-9.51-5.87-19a4.61,4.61,0,0,0,.07-1.47c-6.65-22.78-13.28-45.56-20.11-68.28-.35-1.17-2.48-2.54-3.81-2.57-10.8-.2-21.61,0-32.42-.14-2.86,0-4.06.81-4.54,3.77-4.16,25.2-8.49,50.37-12.77,75.56q-1.63,9.57-3.28,19.14l-3.21,19-3.63,21q-1.71,10-3.41,20c-.74,3.35-1.48,6.7-2.37,10.75-1-3.41-1.77-6.05-2.54-8.7q-1.86-9-3.73-18.07Q323.12,618,321,608t-4.09-20l-4.05-20c-5.6-27.27-11.2-54.54-16.75-81.54H256.61c1.17,5.77,2.22,11.12,3.35,16.46q7.35,34.59,14.75,69.18,1.95,9.49,3.91,19,2.22,10.45,4.45,20.91Zm283.43-67v-79.2H531.26V636.24l39.27-13.89V586Q570.54,575.52,570.55,565ZM448.41,259.37,458,261l9-1.47,9.12-4.13,19.05-14.28,8.05-8c1.23-1.23,2.44-2.48,3.71-3.67,2.81-2.62,4.33-5.36,2.81-9.51-2.15-5.9-3.49-12.09-5.56-18a162.7,162.7,0,0,0-30.14-53c-14.57-18.42-32.94-31.8-54.5-40.86-4.93-2.07-10.09-3.58-15.88-5.61,1.43,12.38,6.49,22.34,10.71,32.58,4.05,10.64,7.43,21.43,7.05,33q-2.79,9-5.59,17.94L404,200.51l9,6.46,8.65,9.15c6.69,9.3,12.34,19.19,15,30.37C438.32,253.2,442.52,256.89,448.41,259.37ZM218,638l-8.37,19.35c-8.26,7.78-14.39,8.85-22.66,3.91-1.7-1-3.31-2.18-5-3.27-4.59-6.3-9-12.69-13.85-18.81a7.14,7.14,0,0,0-5-2.45c-6,.2-11.94.91-17.89,1.53s-12,1.37-19.14,2.2l10.73,23.79L151.11,688c8.26,12.29,18.19,22.91,31.14,30.33,13.34,7.64,26.61,7.94,40.09-.22,16.57-10,28.07-24.09,35.17-42q3.28-11.05,6.56-22.1l3.24-19.92L268.57,613,268,593c-1-5.69-5.34-8-10.13-8.9-5.5-1.06-11.19-1.08-16.8-1.6q-23-2.1-46.07-4.25c-8.09-1.81-16.2-3.56-24.28-5.46-4.1-1-5.41-3.6-4.82-7.81,1.63-11.65,10.23-20.25,21.59-20.47,11.55-.22,19.34,6,24.58,15.86,1.14,2.15,2,4.44,3.17,7,11.25-10.11,22-20.06,33.13-29.57,3.75-3.2,4.07-5.89,2.16-10.19C231.74,485.32,172.94,471.59,137.7,502c-27.46,23.71-32.3,54.74-26.13,88.7.27,7.93,2.35,14.86,10.37,18.43,12,7.85,25.42,12.07,39.06,15.78,14.8,2.73,29.63,5.29,44.36,8.33C209.73,634.12,213.82,636.37,218,638ZM412,178l3-16c-.36-2.94-.25-6.05-1.25-8.75-.63-1.72-2.9-4-4.46-4-14-.19-28.14-.74-42.09.43-13.38,1.12-26.14,5.57-38.43,11.21-15.38,7.07-28.41,16.82-38.28,30.77-2.8,3.95-2.12,6.91-.33,10.92,3.67,8.25,6.6,16.84,9.88,25.27a20.22,20.22,0,0,0,1.65,2.77L304,228l19-20c2.83-1.67,5.7-3.25,8.46-5,20.87-13.29,42.66-16.06,65.72-6.06,1.13.49,3.72-.1,4.31-1C405.2,190.08,408.54,184,412,178Zm-12-63c-.36-4.43-.71-8.86-1-13.11-23.71-7-58.08-5.63-91.38,9.86-27.49,12.79-49.21,32.48-68.07,56.79L252,173c4.22,1.95,8.49,3.82,12.66,5.87,3.77,1.85,6.61,1.22,9.85-1.69,7.74-7,15.36-14.32,24-20,26.38-17.18,56-24.35,87.14-26.17,5.15-.3,10.33,0,15.5,0,3,0,4.4-1.22,3.15-4.41C402.84,122.75,401.45,118.86,400,115ZM111.49,744H752.22V733H111.49ZM628.1,701.4c-.17,2.59-.33,5-.48,7.21h-7c-.17-2.59-.33-4.86-.49-7.1h-6.54v22h6.63c.14-3,.26-5.56.38-8.2H628v8.22h6.52V701.4Zm88.61,10.87c-.13-7.14-4.85-11.63-12.13-11.54-7.11.08-11.7,4.89-11.54,12.09s4.68,11.54,12.09,11.47C712.28,724.22,716.84,719.48,716.71,712.27Zm-40.83,0c-.12-7.15-4.79-11.6-12.1-11.53-7.12.07-11.79,4.93-11.59,12.06.2,7.29,4.71,11.57,12.11,11.49C671.46,724.22,676,719.52,675.88,712.28ZM594,709.22l.69-1.7c-2.87-6-7.2-8-13.83-6.3-5.24,1.35-8.11,5.93-7.69,12.32.4,6.23,3.83,10,9.71,10.67,6.47.73,10-1.49,12-7.74-2.83-1.18-5.31-3-7.85,1.09a3.1,3.1,0,0,1-5.62-.73,16.11,16.11,0,0,1,.14-8.57c.2-.79,3.53-1.25,5.34-1.06C589.28,707.46,591.6,708.51,594,709.22ZM778,747.07c12.8,0,22-8.58,22-20.57,0-12.58-9-21.43-21.75-21.44s-21.84,8.84-21.81,21.4C756.55,738.35,765.64,747.06,778,747.07ZM735.1,701.36v22.21h17.3v-5.8H741.88V701.36Z"/><path class="cls-2" d="M111.57,590.69c-6.17-34-1.33-65,26.13-88.7,35.24-30.4,94-16.67,112.83,25.67,1.91,4.3,1.59,7-2.16,10.19-11.13,9.51-21.88,19.46-33.13,29.57-1.16-2.61-2-4.9-3.17-7-5.24-9.83-13-16.08-24.58-15.86-11.36.22-20,8.82-21.59,20.47-.59,4.21.72,6.85,4.82,7.81,8.08,1.9,16.19,3.65,24.28,5.46-1.74.92-3.42,2.41-5.25,2.64-5.4.67-10.88.7-16.3,1.24-19,1.9-38.06,3.85-57.06,6C114.71,588.28,113.17,589.79,111.57,590.69Z"/><path class="cls-2" d="M283,306.91q4-21.24,7.93-42.49c.21-1.14.45-2.27.67-3.41,2.07-10.88,2.07-10.77,12.91-11,17.47-.4,34,3.11,49.34,11.59a9.83,9.83,0,0,1,4.5,5.73c6.39,31.87,12.52,63.8,18.69,95.72a17.27,17.27,0,0,1,.05,3c-2.44-.33-4.86-.81-7.31-1-10.66-.71-21.32-1.33-32-2q-6.42-32.19-12.86-64.37l-.73,0L313,362c-2.1-.33-4.18-.83-6.29-1-10.79-.73-21.59-1.37-32.38-2,.11-1.37.23-2.75.35-4.13l4.91-27.69,0-.35-.33-.13L280,325l1-7.56Z"/><path class="cls-3" d="M112.25,350c-.07-17.82-.16-35.64-.18-53.46a4.71,4.71,0,0,1,.93-3.18,161.88,161.88,0,0,1,38.51-24.93v74.29L198.91,332l8.07-1.29c.38-1.13,1.11-2.25,1.11-3.37q.06-38.15,0-76.3v0l7.92-2.89,15-2.33,16-.83,0,0q.08,43.32.18,86.63c0,1.8.24,3.6.38,5.41q-.33,10.45-.64,20.93c-7.44-.32-14.89-.54-22.32-1-21.29-1.28-42.57-2.66-63.86-4Q136.51,351.5,112.25,350Z"/><path class="cls-4" d="M111.49,744V733H752.22V744Z"/><path class="cls-2" d="M404.84,370.05c-.11-3.28-.31-6.57-.32-9.85,0-25.89,0-51.77,0-78.5l34.19,14.48L458,305.39l31.48,17.32h0l2.48,1.64,13.85,9.87c11.43,9.19,21.84,19.28,28.39,32.68a74.87,74.87,0,0,1,2.86,7.85c-2.81.08-5.62.31-8.42.22-8.13-.26-16.25-.68-24.37-1-2.56-.09-5.12.06-7.68.09l-3.51-5.16-12.37-11.32-37.15-20.69V371c-4.25.33-8.52,1.08-12.75.9C422.19,371.55,413.52,370.7,404.84,370.05Z"/><path class="cls-2" d="M347.4,564.87c4.28-25.19,8.61-50.36,12.77-75.56.48-3,1.68-3.8,4.54-3.77,10.81.13,21.62-.06,32.42.14,1.33,0,3.46,1.4,3.81,2.57,6.83,22.72,13.46,45.5,20.11,68.28A4.61,4.61,0,0,1,421,558c-7.57.67-15.16,1.26-22.73,2-8.38.85-16.74,2-25.13,2.76C364.56,563.6,356,564.18,347.4,564.87Z"/><path class="cls-3" d="M593.46,541V485.85a36.65,36.65,0,0,1,3.85-.39c18,0,35.9-.09,53.85.1,1.67,0,4.37,1.31,4.82,2.62,5.19,15.21,10,30.54,15,45.83-13.2,1.24-26.41,2.53-39.62,3.72C618.71,538.87,606.09,539.91,593.46,541Z"/><path class="cls-2" d="M274.71,572.1q-7.38-34.59-14.75-69.18c-1.13-5.34-2.18-10.69-3.35-16.46h39.51c5.55,27,11.15,54.27,16.75,81.54Z"/><path class="cls-3" d="M461,682.24c30-14.4,60.35-27.81,92-38.14q0,22.47,0,44.95c-9.28,1.51-18.58,2.94-27.84,4.57-19.07,3.36-38.11,6.83-57.17,10.23-1.45.26-2.95.29-4.42.42a28.23,28.23,0,0,1-1.53-5.33C461.57,693.38,461.34,687.81,461,682.24Z"/><path class="cls-5" d="M252,173l-12.48-4.46c18.86-24.31,40.58-44,68.07-56.79,33.3-15.49,67.67-16.9,91.38-9.86.34,4.25.69,8.68,1,13.11a18.3,18.3,0,0,1-3.31,1c-13.31,1.37-26.67,2.38-39.94,4.08C334.15,123,313.17,130.87,293,141.32,277.39,149.42,264.08,160.38,252,173Z"/><path class="cls-3" d="M675.3,534c4.93-15.12,9.79-30.28,14.91-45.34a5.54,5.54,0,0,1,4.07-3.08c18.77-.19,37.55-.12,56.32-.08a9.47,9.47,0,0,1,1.92.5v41q-17.71,1.57-35.43,3.16Z"/><path class="cls-6" d="M257.51,676.12c-7.1,17.86-18.6,31.91-35.17,42-13.48,8.16-26.75,7.86-40.09.22-12.95-7.42-22.88-18-31.14-30.33,1.25-.65,2.45-1.67,3.77-1.89,3.59-.58,7.23-.83,10.84-1.2Q185,682.94,204.19,681c8.54-.88,17.07-2,25.62-2.74C239,677.41,248.28,676.82,257.51,676.12Z"/><path class="cls-6" d="M369.38,664.09c-2,12.12-3.84,24.27-6.09,36.34a6.91,6.91,0,0,1-3.91,4.23c-17.42,6.49-34.93,12.73-53.42,19.4l-10.18-51.6c2.37-.82,4.69-2.11,7.11-2.38,11.47-1.27,23-2.31,34.46-3.34C348,665.79,358.7,665,369.38,664.09Z"/><path class="cls-7" d="M495.17,241.08l-19.05,14.28c-.71-7.07-1.15-14.18-2.17-21.21-2.71-18.8-8.3-36.64-20.37-51.63-8.07-10-18.1-17.1-32.16-14.51.38-11.59-3-22.38-7.05-33a14.06,14.06,0,0,0,3-.08c9.36-2.36,18.11-.4,26.37,4,11.25,6,19.48,15.34,26.1,25.93,12.39,19.83,18.89,41.79,22.27,64.8C492.66,233.53,494.12,237.27,495.17,241.08Z"/><path class="cls-8" d="M675.3,534l41.79-3.84q17.71-1.6,35.43-3.16v21c-3.49,0-7-.1-10.47.2-9.54.83-19.06,1.85-28.58,2.8-.15-3.09-.3-6.18-.51-10.64-1.64,4-2.77,6.85-3.91,9.66-1.16,0-2.33,0-3.49.06-13,1.29-25.94,2.56-38.9,3.94-9,1-18,2.06-27,3.1l-6-16.83-1.24.17V557l-38.91,3V541c12.63-1.09,25.25-2.13,37.88-3.27,13.21-1.19,26.42-2.48,39.62-3.72l2.32,4.91C674.07,537,674.69,535.5,675.3,534Z"/><path class="cls-8" d="M111.57,590.69c1.6-.9,3.14-2.41,4.82-2.59,19-2.12,38-4.07,57.06-6,5.42-.54,10.9-.57,16.3-1.24,1.83-.23,3.51-1.72,5.25-2.64q23,2.13,46.07,4.25c5.61.52,11.3.54,16.8,1.6,4.79.92,9.15,3.21,10.13,8.9-12.49,1.33-25,2.7-37.46,4-7.9.81-15.81,1.44-23.71,2.23-12.17,1.22-24.32,2.58-36.49,3.76-11.69,1.13-23.42,1.95-35.09,3.24-4.49.49-8.87,1.91-13.31,2.9C113.92,605.55,111.84,598.62,111.57,590.69Z"/><path class="cls-9" d="M545.52,381V336.53c.43-.08.94-.34,1.32-.21,28.54,9.42,57.43,18,84,32.39,9,4.85,17,11.37,25.54,17.12-12.66-.58-25.32-1.31-38-1.65-3.12-.08-6.27,1.09-9.4,1.69l-18-7c-1-1.29-1.89-3.53-3.08-3.71-5.59-.85-11.47-2.29-16.87-1.35C562.38,375.29,554,378.5,545.52,381Z"/><path class="cls-2" d="M463.89,553q5.25-23.31,10.53-46.63c1.36-6,2.75-12,4.42-17.89.33-1.19,2-2.85,3-2.87,12-.2,23.95-.13,37-.13-5.22,22-10.3,43.33-15.38,64.69-2.14,0-4.29-.13-6.41,0C486,551.07,475,552,463.89,553Z"/><path class="cls-10" d="M257.51,676.12c-9.23.7-18.48,1.29-27.7,2.13-8.55.78-17.08,1.86-25.62,2.74q-19.23,2-38.47,3.88c-3.61.37-7.25.62-10.84,1.2-1.32.22-2.52,1.24-3.77,1.89l-14.25-23.71c6.56-1.08,13.11-2.31,19.7-3.21,8.47-1.16,17-2,25.48-3,1.65,1.09,3.26,2.26,5,3.27,8.27,4.94,14.4,3.87,22.66-3.91,1.28.55,2.57,1.61,3.82,1.56,4.6-.19,9.19-.7,13.78-1.16q18.41-1.83,36.81-3.73Q260.8,665.08,257.51,676.12Z"/><path class="cls-11" d="M121.94,609.12c4.44-1,8.82-2.41,13.31-2.9,11.67-1.29,23.4-2.11,35.09-3.24,12.17-1.18,24.32-2.54,36.49-3.76,7.9-.79,15.81-1.42,23.71-2.23,12.49-1.29,25-2.66,37.46-4l.57,20c-5.79.32-11.58.55-17.36,1q-12.61,1-25.22,2.17c-12.16,1.2-24.31,2.57-36.47,3.8-7.74.77-15.5,1.27-23.21,2.22-1.85.23-3.54,1.76-5.31,2.69C147.36,621.19,133.92,617,121.94,609.12Z"/><path class="cls-12" d="M252,173c12.08-12.62,25.39-23.58,41-31.68C313.17,130.87,334.15,123,356.76,120c13.27-1.7,26.63-2.71,39.94-4.08a18.3,18.3,0,0,0,3.31-1c1.44,3.86,2.83,7.75,4.33,11.58,1.25,3.19-.14,4.39-3.15,4.41-5.17,0-10.35-.25-15.5,0-31.11,1.82-60.76,9-87.14,26.17-8.68,5.65-16.3,13-24,20-3.24,2.91-6.08,3.54-9.85,1.69C260.49,176.82,256.22,175,252,173Z"/><path class="cls-3" d="M531.26,548V485.82h39.29V544Z"/><path class="cls-8" d="M112.25,350q24.25,1.5,48.5,3c21.29,1.33,42.57,2.71,63.86,4,7.43.45,14.88.67,22.32,1q0,9,0,18c-11.39-.66-22.78-1.38-34.17-2-14.22-.73-28.44-1.33-42.66-2-5.12-.26-10.23-.68-15.34-1L112.25,368Z"/><path class="cls-3" d="M736.21,389c3.61-13.81,7.17-27.63,10.93-41.4a8.19,8.19,0,0,1,3.17-4.62c13.79-8,27.71-15.86,41.61-23.71a13.56,13.56,0,0,1,2.4-.7c-3,11.39-5.88,22.27-8.82,33.12-3.69,13.61-7.45,27.19-11.18,40.79-.82-.49-1.61-1.34-2.46-1.39C760,390.34,748.09,389.68,736.21,389Z"/><path class="cls-8" d="M274.35,359c10.79.67,21.59,1.31,32.38,2,2.11.14,4.19.64,6.29,1,7.42,1,14.84,2,22.28,2.84.75.09,1.65-1.16,2.47-1.78,10.67.64,21.33,1.26,32,2,2.45.16,4.87.64,7.31,1L380,377.26c.38,3.26.76,6.51,1.13,9.77-6.43-.36-12.87-.62-19.3-1.1-17.12-1.26-34.23-2.62-51.35-3.93L271,379q1.07-7.87,2.12-15.76l.37-1.11Z"/><path class="cls-13" d="M495.17,241.08c-1.05-3.81-2.51-7.55-3.08-11.43-3.38-23-9.88-45-22.27-64.8-6.62-10.59-14.85-19.92-26.1-25.93-8.26-4.41-17-6.37-26.37-4a14.06,14.06,0,0,1-3,.08c-4.22-10.24-9.28-20.2-10.71-32.58,5.79,2,10.95,3.54,15.88,5.61,21.56,9.06,39.93,22.44,54.5,40.86,1.52,3.43,2.82,7,4.59,10.28A199.74,199.74,0,0,1,500.13,226c.35,2.45,2,4.72,3.09,7.08Z"/><path class="cls-14" d="M415,162l-3,16c-2.23-1-4.38-2.7-6.69-3-7.87-.95-15.79-1.77-23.71-1.95a71.92,71.92,0,0,0-44.73,14.22C330,192.27,323,198,323,208l-19,20c-1.33-4-3.44-7.92-3.85-12-1.14-11.23,4.15-20.36,11.53-28,18.57-19.35,42.44-27.2,68.36-28.68C391.6,158.62,403.34,161,415,162Z"/><path class="cls-15" d="M536.21,410.05l-9.42,14.26c-8.4-.77-16.78-1.73-25.19-2.26-13.05-.84-26.13-1.39-39.19-2.08-6.29-.33-12.57-.73-18.85-1.05q-19.26-1-38.52-1.9l0-15c.89-3.37,3.05-4.2,6.48-4.12,10.7.24,21.41.09,32.11.09.72,1,1.43,2.07,2.14,3.1L472,403.88c2.19,1,4.33,2.84,6.57,3C497.75,408.1,517,409,536.21,410.05Z"/><path class="cls-16" d="M408.09,646q-3.4-11.49-6.8-23l38.19-3.17c1.43,4.52,2.87,9,4.62,14.54,1.76-6.52,3.23-12,4.7-17.45,1.66,0,3.33.08,5-.09q17.43-1.82,34.85-3.72l-6,25.88c-4.29.34-8.58.64-12.86,1-8.24.7-16.49,1.36-24.72,2.17C432.74,643.39,420.42,644.72,408.09,646Z"/><path class="cls-17" d="M664,681l-32,.89V624.93l32-2.08Q664,651.91,664,681Z"/><path class="cls-18" d="M333.27,414.93,303.48,413c-2.45.32-4.93,1.07-7.33.88-10.34-.81-20.65-1.9-31-2.89-.1-.34-.21-.68-.32-1q1.59-7.49,3.16-15a49.18,49.18,0,0,0,5.35,1c19.1,1.38,38.2,2.81,57.31,4,13.86.87,27.75,1.28,41.61,2.11,4.09.25,8.14,1.21,12.21,1.85q1.53,7.57,3.05,15.14c-4.07-.35-8.14-.78-12.22-1-6.54-.42-13.08-.93-19.63-1-2.27,0-4.55,1.29-6.82,2-1.24-1.25-2.34-3.37-3.74-3.58C341.25,414.86,337.24,415.05,333.27,414.93Z"/><path class="cls-19" d="M112.25,368,154.78,371c5.11.35,10.22.77,15.34,1,14.22.71,28.44,1.31,42.66,2,11.39.59,22.78,1.31,34.17,2q0,8,0,16c-2.09,0-4.19.21-6.27.09-10.84-.64-21.68-1.37-32.52-2.06-.15-2.26-.3-4.52-.51-7.59L181,387.06c-.94-.69-1.84-1.91-2.82-2-22-1.44-44-2.76-65.93-4.09Z"/><path class="cls-16" d="M664,681q0-29.07,0-58.12l31,1.21q0,29.15,0,58.29Z"/><path class="cls-12" d="M415,162c-11.66-1-23.4-3.38-35-2.72-25.92,1.48-49.79,9.33-68.36,28.68-7.38,7.69-12.67,16.82-11.53,28,.41,4.08,2.52,8,3.85,12l-2.31,2.6a20.22,20.22,0,0,1-1.65-2.77c-3.28-8.43-6.21-17-9.88-25.27-1.79-4-2.47-7,.33-10.92,9.87-14,22.9-23.7,38.28-30.77,12.29-5.64,25.05-10.09,38.43-11.21,13.95-1.17,28.05-.62,42.09-.43,1.56,0,3.83,2.29,4.46,4C414.75,156,414.64,159.06,415,162Z"/><path class="cls-20" d="M695,682.35q0-29.15,0-58.29l31,5.82q0,28,0,56Z"/><path class="cls-15" d="M632,624.93v56.93l-31,2.08a65.37,65.37,0,0,1-1-7.83c-.12-15.1-.1-30.21-.12-45.32Z"/><path class="cls-10" d="M369.38,664.09c-10.68.88-21.36,1.7-32,2.65-11.49,1-23,2.07-34.46,3.34-2.42.27-4.74,1.56-7.11,2.38L290.83,649,329,646c.77,2.65,1.54,5.29,2.54,8.7.89-4.05,1.63-7.4,2.37-10.75,1.32,0,2.65,0,4-.1l35.44-2.78Z"/><path class="cls-21" d="M151.18,428.05v46.53H112.25V426Zm-12.27,28.32a7.42,7.42,0,1,0-7.54,7.54A7.51,7.51,0,0,0,138.91,456.37Z"/><path class="cls-17" d="M669.17,427c-3,6.63-7.15,12.1-14.18,14.84-1-.62-1.92-1.73-2.94-1.81-19.08-1.43-38.22-2.3-57.23-4.31-6.47-.69-13-3.5-18.86-6.55-7.44-3.86-14.2-8.7-23.15-4.44-2.13,1-4.83.85-7.27,1.23V414c4-1.1,8-1.92,11.89-3.36,7.94-3,15.22-1.92,22.21,2.65a51.63,51.63,0,0,0,5.24,2.68c-.33,4.05.94,5.9,5.57,6.51,10.27,1.33,20.37,1.79,30.47-.83,1.76.77,3.47,2,5.29,2.21,6.25.57,12.54.68,18.8,1.13C653.07,425.61,661.12,426.36,669.17,427Z"/><path class="cls-14" d="M505.89,334.22,492,324.34l-2.48-1.63h0c.82-5.33,1.56-10.67,2.48-16a226.66,226.66,0,0,0,2.94-46.61,9.8,9.8,0,0,1,3.37-8.16c4.93-4.79,9.2-10.26,14.23-16,.87,4.32,2,8.1,2.36,12,1.69,18,1.74,36.08-1.71,54-1.65,8.6-3.24,17.22-5,25.79A49.79,49.79,0,0,1,505.89,334.22Z"/><path class="cls-18" d="M161,624.9c1.77-.93,3.46-2.46,5.31-2.69,7.71-1,15.47-1.45,23.21-2.22,12.16-1.23,24.31-2.6,36.47-3.8q12.6-1.23,25.22-2.17c5.78-.43,11.57-.66,17.36-1l-1.26,21.06c-3.48,0-7-.17-10.44.14-13,1.16-25.89,2.5-38.84,3.76-4.21-1.63-8.3-3.88-12.67-4.77C190.63,630.19,175.8,627.63,161,624.9Z"/><path class="cls-20" d="M408.09,646c12.33-1.28,24.65-2.61,37-3.82,8.23-.81,16.48-1.47,24.72-2.17,4.28-.37,8.57-.67,12.86-1-.21,8.49-4.91,12.8-12.55,16.16-17.45,7.67-34.45,16.38-52.36,25Z"/><path class="cls-21" d="M247.2,436v38.58h-39V433Z"/><path class="cls-22" d="M405,417q19.26.94,38.52,1.9c6.28.32,12.56.72,18.85,1.05,13.06.69,26.14,1.24,39.19,2.08,8.41.53,16.79,1.49,25.19,2.26a42.88,42.88,0,0,1-20.55,12.81,13.56,13.56,0,0,0-3.29-1.06c-17.34-1.06-34.68-2-52-3.07-6.44-.38-12.87-1-19.31-1.24-8.86-.37-17.73-.5-26.59-.74l-.48-7.81C404.71,421.14,404.88,419.08,405,417Z"/><path class="cls-23" d="M294.93,224c1.27,6.34,5.25,12.65.27,19.08-9.89-6.57-17.59-7.15-23.81-.69a38.3,38.3,0,0,0-8.13,12.88,100.52,100.52,0,0,0-5.37,21c-2.28,16.42-1.18,32.71,4.28,48.5.46,1.32,2.08,2.24,3.16,3.35l-16.32,8c0-16.28.11-32.56,0-48.85-.12-11.27.11-22.33,3.85-33.27,3-8.71,6.48-17,12.06-24.29,6.14-8,14.69-10.39,24.31-7.21C291.05,223.18,293,223.53,294.93,224Z"/><path class="cls-8" d="M347.4,564.87c8.58-.69,17.16-1.27,25.72-2.09,8.39-.8,16.75-1.91,25.13-2.76,7.57-.76,15.16-1.35,22.73-2q2.94,9.51,5.87,19L389,581c-1-2.76-1.9-5.53-3.25-9.48-.87,4-1.5,6.83-2.12,9.67-3.16,0-6.34-.27-9.47,0-10,.83-20.05,1.86-30.08,2.82Q345.77,574.44,347.4,564.87Z"/><path class="cls-16" d="M545.54,426c2.44-.38,5.14-.21,7.27-1.23,9-4.26,15.71.58,23.15,4.44,5.87,3.05,12.39,5.86,18.86,6.55,19,2,38.15,2.88,57.23,4.31,1,.08,2,1.19,2.94,1.81a52.75,52.75,0,0,1-28.74,8.87c-13.72.13-27.44-1.08-41.16-1.71-4.84-2-9.72-3.93-14.51-6-4-1.76-7.78-4.32-12-5.5-8.43-2.37-12.69,1.11-12.61,9.56,0,1,.08,2,.12,3-.22,3.27-.44,6.53-.65,9.8Q545.52,442.91,545.54,426Z"/><path class="cls-6" d="M726,685.86q0-28,0-56c8,2.47,16,4.86,23.93,7.49a3.82,3.82,0,0,1,2.11,2.82c.13,16.92.09,33.84.09,51.17Z"/><path class="cls-6" d="M295.09,463c-.79,3.72-1.57,7.44-2.44,11.5H253.44c1.87-11,3.69-21.78,5.5-32.53l1.94-7c1.67,3.36,4.39,4.25,8,4.14,3.9-.11,7.82.81,11.73.77,6.05-.06,12.09-.55,18.14-.86Q296.95,451,295.09,463Z"/><path class="cls-5" d="M323,208c0-10,7-15.75,13.87-20.72a71.92,71.92,0,0,1,44.73-14.22c7.92.18,15.84,1,23.71,1.95,2.31.27,4.46,1.94,6.69,3-3.46,6-6.8,12.08-10.51,17.92-.59.93-3.18,1.52-4.31,1-23.06-10-44.85-7.23-65.72,6.06C328.7,204.77,325.83,206.35,323,208Z"/><path class="cls-19" d="M599.93,630.79c0,15.11,0,30.22.12,45.32a65.37,65.37,0,0,0,1,7.83l-28,2.8q0-24.5-.1-49Z"/><path class="cls-24" d="M247,245l-16,.83c.55-12.44,5.09-23.8,9.7-35.11,4.37-10.73,11.39-19.66,19.4-27.89,2.62,1.26,5.71,2,7.78,3.87,6,5.39,11.58,11.24,17.33,16.91-3.14.54-6.34.86-9.41,1.68-7.17,1.92-12.6,6.57-16.81,12.38C253,225.86,247.85,234.53,247,245Z"/><path class="cls-13" d="M421.42,168c14.06-2.59,24.09,4.48,32.16,14.51,12.07,15,17.66,32.83,20.37,51.63,1,7,1.46,14.14,2.17,21.21L467,259.49c-.33-3.12-1-6.25-.93-9.35.54-15.3-3.21-29.63-10-43.14-7.22-14.35-18.95-28.72-40.23-21.05Q418.64,177,421.42,168Z"/><path class="cls-6" d="M396.23,461.73c.75,4.21,1.51,8.42,2.36,13.14-12.59,0-24.72.09-36.84-.15-1.11,0-2.17-2.13-3.25-3.26q-1.87-9.73-3.76-19.47-.5-3.42-1-6.86c1.58-.37,3.17-1.13,4.73-1.07,10.32.44,20.63,1.08,31,1.54.94,0,1.92-.74,2.88-1.13l.87,1.52Q394.69,453.87,396.23,461.73Z"/><path class="cls-21" d="M443.8,446v28.54H404.24V458.6q.4-6.78.79-13.56c2.6-.34,5.21-1.07,7.79-.94C423.15,444.59,433.48,445.35,443.8,446Z"/><path class="cls-23" d="M415.83,186c21.28-7.67,33,6.7,40.23,21.05,6.8,13.51,10.55,27.84,10,43.14-.11,3.1.6,6.23.93,9.35L458,261c0-5.39.19-10.78,0-16.16-.57-13.91-4.41-27-13.58-37.49-9.8-11.26-19.72-13.06-31.38-.34l-9-6.46Z"/><path class="cls-19" d="M769.19,411.38q-1.7,6.81-3.41,13.62c-5.25-.34-10.49-.72-15.74-1q-25.38-1.52-50.76-3-4.2-8-8.38-16c9.89.63,19.77,1.39,29.67,1.81,3.16.13,6.36-.68,9.55-1.06l1.81.1c2.46.71,4.88,1.86,7.37,2,8,.56,16.11.62,24.15,1.19C765.41,409.25,767.28,410.59,769.19,411.38Z"/><path class="cls-3" d="M681.84,388.07c-4.33-7.83-8.66-15.66-13.35-24.12,3-.65,5.43-1.29,7.93-1.74,7.85-1.38,15.72-2.6,23.55-4.07,3.33-.63,5.42,0,7.06,3.37,4.5,9.25,9.41,18.3,14.17,27.43-11-.63-22.06-1.33-33.09-1.83C686,387,683.93,387.73,681.84,388.07Z"/><path class="cls-16" d="M752.52,590v37.65c-1.07-.38-2.1-.68-3.07-1.1-10.93-4.74-21.8-9.62-32.81-14.15-2.58-1.07-3.66-2.19-3.48-5,.29-4.46.22-8.94.31-13.41Z"/><path class="cls-25" d="M283,306.91l-2,10.53-8.34,5.83c-1.06-1.43-2.55-2.7-3.1-4.3-6-17.43-6.79-35-.24-52.42,3.88-10.35,10.73-13.68,20.32-10.53A97.1,97.1,0,0,0,283,285.71C282.51,292.74,283,299.84,283,306.91Z"/><path class="cls-8" d="M443.66,398c-10.7,0-21.41.15-32.11-.09-3.43-.08-5.59.75-6.48,4.12-.08-1.8-.18-3.61-.23-5.41q-.31-11.83-.6-23.66l.6-2.91c8.68.65,17.35,1.5,26.05,1.85,4.23.18,8.5-.57,12.75-.9Q443.66,384.5,443.66,398Z"/><path class="cls-26" d="M289.67,256c-9.59-3.15-16.44.18-20.32,10.53-6.55,17.44-5.78,35,.24,52.42.55,1.6,2,2.87,3.1,4.3l-7.36,4.89c-1.08-1.11-2.7-2-3.16-3.35-5.46-15.79-6.56-32.08-4.28-48.5a100.52,100.52,0,0,1,5.37-21,38.3,38.3,0,0,1,8.13-12.88c6.22-6.46,13.92-5.88,23.81.69Q292.43,249.56,289.67,256Z"/><path class="cls-11" d="M639.63,557.12c9-1,18-2.15,27-3.1,13-1.38,25.93-2.65,38.9-3.94,1.16-.11,2.33-.05,3.49-.06q-3,9.06-6,18.14c-5.11,0-10.26-.44-15.33,0-14.39,1.15-28.76,2.64-43.13,4Z"/><path class="cls-16" d="M218,638c12.95-1.26,25.89-2.6,38.84-3.76,3.46-.31,7-.11,10.44-.14L264.07,654q-18.4,1.88-36.81,3.73c-4.59.46-9.18,1-13.78,1.16-1.25.05-2.54-1-3.82-1.56Z"/><path class="cls-15" d="M699.28,421q25.38,1.49,50.76,3c5.25.31,10.49.69,15.74,1q-2.34,8.52-4.69,17c-2.44-.34-4.87-.82-7.32-1-9.2-.71-18.41-1.46-27.62-1.92-5.7-.29-11.43-.09-17.14-.1Q704.14,430,699.28,421Z"/><path class="cls-22" d="M182,658c-8.5,1-17,1.89-25.48,3-6.59.9-13.14,2.13-19.7,3.21l-10.73-23.79c7.14-.83,13.13-1.58,19.14-2.2s11.91-1.33,17.89-1.53a7.14,7.14,0,0,1,5,2.45C173,645.3,177.45,651.69,182,658Z"/><path class="cls-23" d="M216,248.16,208,251.05c.85-5.77,1.93-11.52,2.45-17.32.19-2.18-.9-4.47-1.41-6.71,6.11-20,16.06-38,28-55.19l10.14,4.07c-.86,1.37-1.68,2.76-2.6,4.1-12.14,17.65-18.76,37.5-22.24,58.37C221.55,243.17,220.31,246.33,216,248.16Z"/><path class="cls-16" d="M443.8,446c-10.32-.66-20.65-1.42-31-1.91-2.58-.13-5.19.6-7.79.94V431c8.86.24,17.73.37,26.59.74,6.44.26,12.87.86,19.31,1.24,17.34,1,34.68,2,52,3.07a13.56,13.56,0,0,1,3.29,1.06c-10.35,4.56-21.33,5.5-32.4,5-9.79-.45-19.54-1.66-29.57-2.55C444.13,441.46,444,443.74,443.8,446Z"/><path class="cls-8" d="M572.91,637.75q0,24.5.1,49l-20,2.31q0-22.47,0-44.95Z"/><path class="cls-18" d="M488.62,613.12q-17.43,1.88-34.85,3.72c-1.64.17-3.31.07-5,.09q2.73-12,5.45-23.92l39.68-3Z"/><path class="cls-13" d="M247,245c.87-10.47,6-19.14,12-27.33,4.21-5.81,9.64-10.46,16.81-12.38,3.07-.82,6.27-1.14,9.41-1.68l9.75,20.4c-1.92-.48-3.88-.83-5.75-1.45-9.62-3.18-18.17-.81-24.31,7.21-5.58,7.28-9.07,15.58-12.06,24.29-3.74,10.94-4,22-3.85,33.27.16,16.29,0,32.57,0,48.85l-.87.29q-.06-42.89-.17-85.79a35.06,35.06,0,0,0-1-5.66Z"/><path class="cls-8" d="M609,385.87c3.13-.6,6.28-1.77,9.4-1.69,12.66.34,25.32,1.07,38,1.65C663.72,392,669.6,399.1,671.18,409L633,407c-1.51-6.15-5.34-10.6-10.6-13.79C618.05,390.58,613.48,388.31,609,385.87Z"/><path class="cls-25" d="M354.74,452q1.89,9.74,3.76,19.47a133.6,133.6,0,0,1-52.58-4.68l16-17.83c3.43.35,6.85.73,10.29,1Q343.46,451,354.74,452Z"/><path class="cls-17" d="M752.52,590l-39,4V572l39-4Z"/><path class="cls-26" d="M413,207c11.66-12.72,21.58-10.92,31.38.34,9.17,10.53,13,23.58,13.58,37.49.22,5.38,0,10.77,0,16.16l-9.59-1.59c.53-1.29,1.64-2.65,1.49-3.86-1-8.13-.92-16.68-3.64-24.21-4-11.12-10.63-21.43-24.6-15.18Z"/><path class="cls-26" d="M209.08,227c.51,2.24,1.6,4.53,1.41,6.71-.52,5.8-1.6,11.55-2.45,17.32v0a32.71,32.71,0,0,0-1,5.62q-.1,37-.06,74.05L198.91,332c-5.53-35.18-1.73-69.51,9.27-103.2A13.15,13.15,0,0,1,209.08,227Z"/><path class="cls-17" d="M439.48,619.84,401.29,623q-2.78-9.74-5.53-19.48c1.11-.84,2.16-2.29,3.34-2.41C410.37,600,421.67,599,433,598Q436.22,608.92,439.48,619.84Z"/><path class="cls-14" d="M458,305.39l-19.34-9.21c.76-5.29,1.85-10.55,2.21-15.87.38-5.72.09-11.49.09-17.41.64.52,1.64,1.42,2.71,2.23A24.24,24.24,0,0,0,461,270c3.41-.29,5.16,1.32,5,4.56-.54,8.89-1,17.8-2.22,26.61C463.49,302.79,460,304,458,305.39Z"/><path class="cls-16" d="M570.54,606v16.33l-39.27,13.89V610Z"/><path class="cls-8" d="M496.67,374.09c2.56,0,5.12-.18,7.68-.09,8.12.29,16.24.71,24.37,1,2.8.09,5.61-.14,8.42-.22,3.07,6.82,3.4,14,2.51,21.25l-44.71-3C498.53,387,498.81,380.64,496.67,374.09Z"/><path class="cls-15" d="M644.63,572.12c14.37-1.35,28.74-2.84,43.13-4,5.07-.41,10.22,0,15.33,0q-3,8-6,16c-1.2-.37-2.42-1.12-3.58-1q-9.84.76-19.67,1.89c-8,.91-16,2-24,3Q647.23,580.07,644.63,572.12Z"/><path class="cls-11" d="M531.27,589V568c3-.07,6,0,8.91-.24,10.13-.86,20.25-1.83,30.38-2.75q0,10.49,0,21Z"/><path class="cls-17" d="M649.84,588c8-1,16-2.06,24-3q9.82-1.12,19.67-1.89c1.16-.09,2.38.66,3.58,1-1.73,6.32-3.34,12.67-5.29,18.92-.29.95-2.17,2-3.33,2q-15.22.24-30.45,0a4.73,4.73,0,0,1-3.56-2.36C652.69,597.88,651.34,592.91,649.84,588Z"/><path class="cls-11" d="M752.52,568l-39,4V551c9.52-1,19-2,28.58-2.8,3.47-.3,7-.15,10.47-.2Z"/><path class="cls-17" d="M531.27,589l39.27-3v20l-39.27,4Z"/><path class="cls-13" d="M216,248.16c4.35-1.83,5.59-5,6.39-9.79,3.48-20.87,10.1-40.72,22.24-58.37.92-1.34,1.74-2.73,2.6-4.1l12.88,6.93c-8,8.23-15,17.16-19.4,27.89-4.61,11.31-9.15,22.67-9.7,35.11Z"/><path class="cls-11" d="M433,598c-11.28,1-22.58,2-33.85,3.12-1.18.12-2.23,1.57-3.34,2.41L389,581l37.81-4Q429.91,587.51,433,598Z"/><path class="cls-8" d="M570.55,565c-10.13.92-20.25,1.89-30.38,2.75-2.95.24-5.94.17-8.91.24V548l39.29-4Z"/><path class="cls-11" d="M283.07,612q-2.22-10.46-4.45-20.91l38.3-3.09q2,10,4.09,20Z"/><path class="cls-18" d="M380.27,600.07,376.88,621l-39.6,3,3.63-21c3.8-.09,7.62,0,11.4-.3C361.64,601.93,371,601,380.27,600.07Z"/><path class="cls-19" d="M494.94,393l44.71,3q-1.73,7-3.44,14.05c-19.23-1-38.46-1.95-57.68-3.19-2.24-.14-4.38-1.94-6.57-3a5.06,5.06,0,0,0,.09-.68C481,402.76,488.81,399.73,494.94,393Z"/><path class="cls-11" d="M593.46,560l38.91-3v20l-38.91,3Z"/><path class="cls-22" d="M337.28,624l39.6-3-3.6,20.07-35.44,2.78c-1.32.1-2.65.07-4,.1Q335.58,634,337.28,624Z"/><path class="cls-4" d="M545.49,459.83c.21-3.27.43-6.53.65-9.8,6.87-1.6,12.86.48,18.53,4.26,6.1,4.07,12.5,7.42,20.21,6.71v13.59H545.49Z"/><path class="cls-11" d="M493.93,590l-39.68,3q2.42-10,4.84-20c3,0,5.94,0,8.89-.2,10.27-.87,20.53-1.85,30.79-2.79Q496.36,580,493.93,590Z"/><path class="cls-8" d="M498.77,570c-10.26.94-20.52,1.92-30.79,2.79-3,.25-5.93.15-8.89.2l4.8-20c11.07-.94,22.14-1.9,33.22-2.79,2.12-.17,4.27,0,6.41,0-1.1,4.88-2.18,9.77-3.31,14.64C499.8,566.54,499.26,568.27,498.77,570Z"/><path class="cls-18" d="M283.07,612,321,608q2.12,10,4.22,19.93L287.12,632Z"/><path class="cls-8" d="M316.92,588l-38.3,3.09q-2-9.5-3.91-19l38.16-4.1Z"/><path class="cls-11" d="M633,407,671.18,409c1.48,6.27,1.14,12.33-2,18.09-8-.68-16.1-1.43-24.16-2-6.26-.45-12.55-.56-18.8-1.13-1.82-.17-3.53-1.44-5.29-2.21C627.62,419,632.88,415.11,633,407Z"/><path class="cls-11" d="M380.27,600.07c-9.32.89-18.63,1.86-28,2.63-3.78.32-7.6.21-11.4.3l3.21-19c10-1,20.05-2,30.08-2.82,3.13-.27,6.31,0,9.47,0Q382,590.63,380.27,600.07Z"/><path class="cls-11" d="M112.25,381c22,1.33,44,2.65,65.93,4.09,1,.06,1.88,1.28,2.82,2-8,2.27-16,4.52-24,6.85-1.88.55-3.68,1.38-5.52,2.08l-39.19-2Z"/><path class="cls-8" d="M545.52,381c8.49-2.49,16.86-5.7,25.52-7.21,5.4-.94,11.28.5,16.87,1.35,1.19.18,2.06,2.42,3.08,3.71l-6.11-2V393c-9.89-4.48-18.77-1.29-27.68,3.25-3.59,1.83-7.76,2.53-11.67,3.74Q545.52,390.5,545.52,381Z"/><path class="cls-22" d="M709,439c5.71,0,11.44-.19,17.14.1,9.21.46,18.42,1.21,27.62,1.92,2.45.19,4.88.67,7.32,1q-2.21,8.49-4.4,17l-38.32-3c.87-3.61,1.74-7.23,2.69-11.14C716.8,443.19,709.89,446.88,709,439Z"/><path class="cls-18" d="M593.46,580l38.91-3v18l-38.91,4Z"/><path class="cls-8" d="M769.19,411.38c-1.91-.79-3.78-2.13-5.74-2.27-8-.57-16.11-.63-24.15-1.19-2.49-.18-4.91-1.33-7.37-2q2.15-8.44,4.28-16.87c11.88.67,23.77,1.33,35.65,2.09.85,0,1.64.9,2.46,1.39Z"/><path class="cls-8" d="M461,682.24c.34,5.57.57,11.14,1.06,16.7a28.23,28.23,0,0,0,1.53,5.33L423,713l-1-11.84Z"/><path class="cls-20" d="M153,708l17.84,15.22H111c.15-2.93.29-5.64.43-8.34.37-1.74.74-3.49,1.24-5.87,7.29,0,14.71.13,22.12,0C140.87,708.82,147,708.33,153,708Z"/><path class="cls-20" d="M718.37,456l38.32,3c-1.12,4.47-2.11,9-3.48,13.4a4.08,4.08,0,0,1-3,2.36c-12.08.16-24.17.11-37.11.11Z"/><path class="cls-8" d="M681.84,388.07c2.09-.34,4.2-1.05,6.27-1,11,.5,22.06,1.2,33.09,1.83q4.45,8.42,8.92,16.84c-3.19.38-6.39,1.19-9.55,1.06-9.9-.42-19.78-1.18-29.67-1.81Z"/><path class="cls-22" d="M287.12,632l38.11-4.07q1.86,9,3.73,18.07l-38.13,3Q289,640.52,287.12,632Z"/><path class="cls-11" d="M545.53,400c3.91-1.21,8.08-1.91,11.67-3.74,8.91-4.54,17.79-7.73,27.68-3.25v23a51.63,51.63,0,0,1-5.24-2.68c-7-4.57-14.27-5.61-22.21-2.65-3.85,1.44-7.92,2.26-11.89,3.36Q545.53,407,545.53,400Z"/><path class="cls-18" d="M208.18,390c10.84.69,21.68,1.42,32.52,2.06,2.08.12,4.18-.05,6.27-.09l.45,3v1l0,2q-.25,5-.49,10.05c-2.6.33-5.21,1.06-7.79.93-10.33-.5-20.66-1.26-31-1.92Z"/><path class="cls-16" d="M151.18,428.05l-38.93-2q0-8,0-16l39,2Q151.19,420.05,151.18,428.05Z"/><path class="cls-18" d="M151.19,412l-38.95-2q0-8,0-16l39.19,2Q151.32,404,151.19,412Z"/><path class="cls-22" d="M593.46,599l38.91-4v13.4l-38.91,7.44Z"/><path class="cls-23" d="M503.22,233.08c-1.06-2.36-2.74-4.63-3.09-7.08a199.74,199.74,0,0,0-21.5-66.84c-1.77-3.3-3.07-6.85-4.59-10.28a162.7,162.7,0,0,1,30.14,53c2.07,5.93,3.41,12.12,5.56,18,1.52,4.15,0,6.89-2.81,9.51C505.66,230.6,504.45,231.85,503.22,233.08Z"/><path class="cls-25" d="M421.66,216.12c14-6.25,20.59,4.06,24.6,15.18,2.72,7.53,2.68,16.08,3.64,24.21.15,1.21-1,2.57-1.49,3.86-5.89-2.48-10.09-6.17-11.71-12.88C434,235.31,428.35,225.42,421.66,216.12Z"/><path class="cls-13" d="M381.11,387c-.37-3.26-.75-6.51-1.13-9.77l20.37-11c.78,1.83,1.77,4.16,2.75,6.48a40.62,40.62,0,0,1,.24,4.92c-.3,4.35.38,9.29-1.49,12.88s-6.38,6-9.73,9-6.27,3.35-8.21-1.5Q382.52,392.53,381.11,387Z"/><path class="cls-22" d="M265.17,411c10.33,1,20.64,2.08,31,2.89,2.4.19,4.88-.56,7.33-.88q-1.44,8-2.87,15.89c-5.23-.63-10.44-1.35-15.68-1.88-7.4-.76-14.81-1.38-22.21-2.06Z"/><path class="cls-24" d="M383.91,398c1.94,4.85,4.83,4.47,8.21,1.5s7.82-5.29,9.73-9,1.19-8.53,1.49-12.88a40.62,40.62,0,0,0-.24-4.92l1.14.21q.3,11.84.6,23.66c.05,1.8.15,3.61.23,5.41l0,15c-.16,2.06-.33,4.12-.49,6.18l-.48-.07c-1.67-.22-3.47-.93-5-.54-3.35.85-6.56,2.26-9.83,3.44l-1.7-7q-1.53-7.57-3.05-15.14C384.3,402,384.1,400,383.91,398Z"/><path class="cls-27" d="M265.17,411q-1.23,7-2.45,14-.93,5-1.84,10l-1.94,7L249,433l-.85-.75-.63-1.23c-.18-3.34-.37-6.68-.55-10q0-6.5,0-13,.24-5,.49-10.05c1.59.51,3.56.61,4.71,1.63,2.93,2.58,5.37,5.69,8.25,8.32,1.15,1.06,3,1.41,4.45,2.07C265,410.32,265.07,410.66,265.17,411Z"/><path class="cls-5" d="M295.09,463q1.85-12,3.7-24c.71-3,1.41-6,2.12-9,7.23-2.58,12.95,2.39,19.33,4,.54.14,1.1,3,.57,4.09-4.83,9.78-11.18,18.43-20.31,24.64C299.23,463.64,296.92,463,295.09,463Z"/><path class="cls-20" d="M584.88,461c-7.71.71-14.11-2.64-20.21-6.71C559,450.51,553,448.43,546.14,450c0-1-.11-2-.12-3-.08-8.45,4.18-11.93,12.61-9.56,4.17,1.18,7.93,3.74,12,5.5,4.79,2.11,9.67,4,14.51,6Z"/><path class="cls-10" d="M247,421c.18,3.35.37,6.69.55,10-.11,1.66-.21,3.31-.32,5l-39-3V420c5.89.48,11.77,1.24,17.67,1.37C232.89,421.53,239.93,421.14,247,421Z"/><path class="cls-22" d="M247,421c-7,.15-14.08.54-21.12.39-5.9-.13-11.78-.89-17.67-1.37V407c10.32.66,20.65,1.42,31,1.92,2.58.13,5.19-.6,7.79-.93Z"/><path class="cls-10" d="M300.91,430c-.71,3-1.41,6-2.12,9-6.05.31-12.09.8-18.14.86-3.91,0-7.83-.88-11.73-.77-3.65.11-6.37-.78-8-4.14q.92-5,1.84-10c7.4.68,14.81,1.3,22.21,2.06,5.24.53,10.45,1.25,15.68,1.88Z"/><path class="cls-7" d="M333.27,414.93c4,.12,8-.07,11.86.54,1.4.21,2.5,2.33,3.74,3.58q1.5,7.62,3,15.25a.47.47,0,0,0,.09.7l.15,1c0,1.26.09,2.52.14,3.78-2.05-.93-4-2.32-6.18-2.68-5.65-.94-11.37-1.42-17.06-2.09Q331.13,425,333.27,414.93Z"/><path class="cls-22" d="M153,708c-6.08.34-12.16.83-18.25,1-7.41.17-14.83,0-22.12,0-.5,2.38-.87,4.13-1.24,5.87q.18-7.92.35-15.83c2.15,0,4.31,0,6.45,0q12.84-.45,25.67-1Z"/><path class="cls-23" d="M329,435c5.69.67,11.41,1.15,17.06,2.09,2.15.36,4.13,1.75,6.18,2.68l-.08.07c.2.7.39,1.4.59,2.11.33,1.06.65,2.13,1,3.19q.51,3.44,1,6.86-11.28-1-22.56-2c-3.44-.31-6.86-.69-10.29-1Z"/><path class="cls-28" d="M628.1,701.4h6.41v22.09H628v-8.22h-7.37c-.12,2.64-.24,5.24-.38,8.2h-6.63v-22h6.54c.16,2.24.32,4.51.49,7.1h7C627.77,706.37,627.93,704,628.1,701.4Z"/><path class="cls-28" d="M716.71,712.27c.13,7.21-4.43,12-11.58,12-7.41.07-11.93-4.22-12.09-11.47s4.43-12,11.54-12.09C711.86,700.64,716.58,705.13,716.71,712.27Zm-6.36-.67c-1.75-1.72-3.32-4.58-5.31-4.91-3.95-.67-4.61,2.7-4.65,5.95s.77,6,4.27,6.15C708.54,718.93,709.33,715.82,710.35,711.6Z"/><path class="cls-28" d="M675.88,712.28c.11,7.24-4.42,11.94-11.58,12-7.4.08-11.91-4.2-12.11-11.49-.2-7.13,4.47-12,11.59-12.06C671.09,700.68,675.76,705.13,675.88,712.28Zm-5,.11c-3.06-2.68-4.78-5.45-6.81-5.71-4.06-.51-4.33,3-4.37,6.19s1,6.31,4.37,5.76C666.16,718.29,667.87,715.25,670.84,712.39Z"/><path class="cls-28" d="M547.54,708.54c1.07.42,2.13.91,3.23,1.26,3.52,1.11,6,3.24,5.68,7.14-.36,4.19-3.16,6.34-7.21,7.07-7.57,1.36-11.93-1.1-13-7.64,3-.55,6-1.66,8,2.15.37.7,2.32.77,3.53.71.49,0,1.45-1.54,1.32-1.7a7.88,7.88,0,0,0-2.67-2.48c-1.95-.88-4.2-1.12-6.09-2.09-4-2-4.74-6.49-1.91-9.58,4.55-5,14.76-2.81,17.44,4.49l-7.24-.41c-1.3-2.58-2.86-2.76-4.87.19Z"/><path class="cls-9" d="M111.77,681q-.09-13-.17-25.94l6.33-.11,13.45,25.91Z"/><path class="cls-28" d="M594,709.22c-2.35-.71-4.67-1.76-7.07-2-1.81-.19-5.14.27-5.34,1.06a16.11,16.11,0,0,0-.14,8.57,3.1,3.1,0,0,0,5.62.73c2.54-4,5-2.27,7.85-1.09-2,6.25-5.57,8.47-12,7.74-5.88-.67-9.31-4.44-9.71-10.67-.42-6.39,2.45-11,7.69-12.32,6.63-1.7,11,.27,13.83,6.3Z"/><path class="cls-15" d="M422,701.14,423,713l-44.24,10.68-.43-1.39Z"/><path class="cls-29" d="M778,747.07c-12.4,0-21.49-8.72-21.53-20.61,0-12.56,9-21.41,21.81-21.4s21.78,8.86,21.75,21.44C800.05,738.49,790.84,747.09,778,747.07Zm.57-40c-11.51,0-20.21,8-20.36,18.7-.15,10.91,8.39,19.3,19.67,19.33,11.86,0,20.1-7.61,20.16-18.65S789.91,707.09,778.61,707.05Z"/><path class="cls-15" d="M143.89,698q-12.84.48-25.67,1c-2.14.08-4.3,0-6.45,0q0-4.5,0-9c6.4,0,12.81.12,19.2-.13,1.71-.07,3.37-1.29,5.06-2Z"/><path class="cls-28" d="M735.1,701.36h6.78v16.41H752.4v5.8H735.1Z"/><path class="cls-25" d="M404.07,423.13l.48.07L405,431v14q-.39,6.78-.79,13.56l-8,3.13L393.16,446c.68-6.59,5.9-6.48,10.91-6.95Z"/><path class="cls-19" d="M136,687.93c-1.69.69-3.35,1.91-5.06,2-6.39.25-12.8.12-19.2.13,0-3,0-6,0-9l19.61-.14C132.93,683.22,134.48,685.58,136,687.93Z"/><path class="cls-29" d="M117.93,655l-6.33.11V639.89l.57-.26Z"/><path class="cls-12" d="M248.15,432.25l.85.75Z"/><path class="cls-12" d="M264.85,410c-1.5-.66-3.3-1-4.45-2.07-2.88-2.63-5.32-5.74-8.25-8.32-1.15-1-3.12-1.12-4.71-1.63,0-.66,0-1.32,0-2,.1-.1.28-.21.27-.28a3.57,3.57,0,0,0-.27-.68l-.45-3q0-8,0-16,0-9,0-18,.31-10.47.64-20.93a1.21,1.21,0,0,0,.57-.59l.87-.29,16.32-8,7.36-4.89,8.34-5.83L280,325c-.22.56-.45,1.13-.68,1.69l.33.13,0,.34c-4.7,2.71-11.64,4.32-13.6,8.35-3.26,6.73,1.62,13.7,4.39,20.26l4.31-.91c-.12,1.38-.24,2.76-.35,4.13l-.9,3.13c-.12.37-.24.74-.37,1.11Q272,371.12,271,379q-1.47,8-2.95,16Q266.43,402.49,264.85,410Z"/><path class="cls-30" d="M337.77,363.06c-.82.62-1.72,1.87-2.47,1.78C327.86,364,320.44,363,313,362l11.16-63.27.73,0Q331.35,330.88,337.77,363.06Z"/><path class="cls-14" d="M274.7,354.86l-4.31.91c-2.77-6.56-7.65-13.53-4.39-20.26,2-4,8.9-5.64,13.6-8.35Q277.16,341,274.7,354.86Z"/><path class="cls-14" d="M279.3,326.69c.23-.56.46-1.13.68-1.69C279.76,325.56,279.53,326.13,279.3,326.69Z"/><path class="cls-24" d="M248.14,336.47a1.21,1.21,0,0,1-.57.59c-.14-1.81-.38-3.61-.38-5.41q-.12-43.32-.18-86.63a35.06,35.06,0,0,1,1,5.66Q248.14,293.58,248.14,336.47Z"/><path class="cls-23" d="M207,330.68q0-37,.06-74.05a32.71,32.71,0,0,1,1-5.62q0,38.14,0,76.3C208.09,328.43,207.36,329.55,207,330.68Z"/><path class="cls-12" d="M443.66,398q0-13.5,0-27V336.92l37.14,20.69c-1.6,1.82-3.64,3.4-4.74,5.48-7.7,14.58-20,25.46-30.24,38C445.09,400.07,444.38,399,443.66,398Z"/><path class="cls-14" d="M445.8,401.1c10.23-12.55,22.54-23.43,30.24-38,1.1-2.08,3.14-3.66,4.74-5.48l12.38,11.32L472.05,403.2a5.06,5.06,0,0,1-.09.68Z"/><path class="cls-30" d="M472.05,403.2l21.11-34.27,3.51,5.16c2.14,6.55,1.86,12.87-1.73,18.89C488.81,399.73,481,402.76,472.05,403.2Z"/><path class="cls-1" d="M489.56,322.71l2.48,1.63C491.21,323.8,490.38,323.26,489.56,322.71Z"/><path class="cls-30" d="M584.88,416V376.81l6.11,2,18,7c4.47,2.44,9,4.71,13.38,7.34,5.26,3.19,9.09,7.64,10.6,13.79-.11,8.11-5.37,12-12.07,14.68-10.1,2.62-20.2,2.16-30.47.83C585.82,421.9,584.55,420.05,584.88,416Z"/><path class="cls-11" d="M268,395q1.49-8,2.95-16l39.5,3c17.12,1.31,34.23,2.67,51.35,3.93,6.43.48,12.87.74,19.3,1.1q1.41,5.49,2.8,11c.19,2,.39,3.93.58,5.9-4.07-.64-8.12-1.6-12.21-1.85-13.86-.83-27.75-1.24-41.61-2.11-19.11-1.19-38.21-2.62-57.31-4A49.18,49.18,0,0,1,268,395Z"/><path class="cls-14" d="M273.08,363.23c.13-.37.25-.74.37-1.11C273.33,362.49,273.21,362.86,273.08,363.23Z"/><path class="cls-22" d="M351.86,434.3q-1.5-7.62-3-15.25c2.27-.7,4.55-2,6.82-2,6.55,0,13.09.54,19.63,1,4.08.26,8.15.69,12.22,1,.57,2.33,1.13,4.65,1.7,7l.81,7a30,30,0,0,0-4.33-1c-9.17-.73-18.36-1.43-27.54-2C355.13,429.85,351.94,429.89,351.86,434.3Z"/><path class="cls-14" d="M138.91,456.37a7.42,7.42,0,1,1-7.29-7.29A7.51,7.51,0,0,1,138.91,456.37Z"/><path class="cls-10" d="M351.86,434.3c.08-4.41,3.27-4.45,6.32-4.26,9.18.58,18.37,1.28,27.54,2a30,30,0,0,1,4.33,1q1.13,5.73,2.24,11.45c-1,.39-1.94,1.17-2.88,1.13-10.32-.46-20.63-1.1-31-1.54-1.56-.06-3.15.7-4.73,1.07-.33-1.06-.65-2.13-1-3.19-.2-.71-.39-1.41-.59-2.11l.08-.07c-.05-1.26-.09-2.52-.14-3.78.12-.11.35-.28.33-.32A6.17,6.17,0,0,0,352,435,.47.47,0,0,1,351.86,434.3Z"/><path class="cls-23" d="M392.29,444.47q-1.12-5.73-2.24-11.45l-.81-7c3.27-1.18,6.48-2.59,9.83-3.44,1.53-.39,3.33.32,5,.54V439c-5,.47-10.23.36-10.91,6.95Z"/><path class="cls-27" d="M247.42,395a3.57,3.57,0,0,1,.27.68c0,.07-.17.18-.27.28Z"/><path class="cls-22" d="M352,435a6.17,6.17,0,0,1,.48.66s-.21.21-.33.32Z"/><path class="cls-7" d="M352.16,439.83c.2.7.39,1.4.59,2.11C352.55,441.23,352.36,440.53,352.16,439.83Z"/><path class="cls-14" d="M710.35,711.6c-1,4.22-1.81,7.33-5.69,7.19-3.5-.13-4.32-3-4.27-6.15s.7-6.62,4.65-5.95C707,707,708.6,709.88,710.35,711.6Z"/><path class="cls-14" d="M670.84,712.39c-3,2.86-4.68,5.9-6.81,6.24-3.39.55-4.41-2.58-4.37-5.76s.31-6.7,4.37-6.19C666.06,706.94,667.78,709.71,670.84,712.39Z"/><path class="cls-1" d="M547.54,708.54l-3.81-.89c2-2.95,3.57-2.77,4.87-.19Z"/><path class="cls-30" d="M778.61,707.05c11.3,0,19.52,8.22,19.47,19.38s-8.3,18.67-20.16,18.65c-11.28,0-19.82-8.42-19.67-19.33C758.4,715,767.1,707,778.61,707.05Zm-4.9,8.91v19.86l1.54.08c.38-2.95.76-5.9,1.15-9,4.57,1.94,4.38,8.2,10.67,9.15l-5.89-9.23,1.51.18c.67-2.74,2.62-6,1.78-8.11C782.45,713.78,777.51,716.16,773.71,716Z"/><path class="cls-29" d="M773.71,716c3.8.2,8.74-2.18,10.76,2.93.84,2.14-1.11,5.37-1.78,8.11l-1.51-.18,5.89,9.23c-6.29-.95-6.1-7.21-10.67-9.15-.39,3.1-.77,6.05-1.15,9l-1.54-.08Zm4,1.29-1.48,1.43v6.86l5.89-4Z"/><path class="cls-30" d="M777.67,717.25l4.41,4.31-5.89,4v-6.86Z"/></svg>