<?xml version="1.0" encoding="utf-8"?>
<!-- Generator: Adobe Illustrator 26.0.2, SVG Export Plug-In . SVG Version: 6.00 Build 0)  -->
<svg version="1.1" id="Layer_1" xmlns="http://www.w3.org/2000/svg" xmlns:xlink="http://www.w3.org/1999/xlink" x="0px" y="0px"
	 viewBox="0 0 800 400" style="enable-background:new 0 0 800 400;" xml:space="preserve">
<style type="text/css">
	.st0{fill:#1C1B1B;}
	.st1{fill:#FFFFFF;}
	.st2{fill:url(#SVGID_1_);}
	.st3{fill-rule:evenodd;clip-rule:evenodd;fill:#E5007E;}
	.st4{fill-rule:evenodd;clip-rule:evenodd;}
	.st5{opacity:0;fill:none;stroke:#131210;stroke-width:0.3155;stroke-linecap:round;stroke-linejoin:round;stroke-miterlimit:10;}
	.st6{fill:url(#SVGID_00000160875452748726720840000000169648932160596120_);}
</style>
<g>
	<g>
		<path class="st0" d="M279.47,132.3V100h4.27v32.29H279.47z"/>
		<path class="st0" d="M291.24,132.3V100h4.38l16.95,25.35V100h4.1v32.29h-4.39l-16.95-25.37v25.37H291.24z"/>
		<path class="st0" d="M322.4,121.93l4.02-0.36c0.19,1.61,0.64,2.93,1.33,3.97c0.7,1.02,1.77,1.88,3.25,2.52
			c1.46,0.64,3.12,0.96,4.95,0.96c1.63,0,3.07-0.25,4.32-0.75c1.24-0.48,2.17-1.13,2.78-1.99c0.62-0.84,0.92-1.75,0.92-2.76
			c0-1.01-0.29-1.89-0.87-2.66c-0.59-0.74-1.57-1.38-2.92-1.89c-0.85-0.34-2.78-0.87-5.74-1.58c-2.97-0.71-5.05-1.38-6.23-2
			c-1.55-0.81-2.69-1.82-3.45-3.01c-0.76-1.19-1.13-2.53-1.13-4.02c0-1.63,0.47-3.15,1.38-4.56c0.93-1.41,2.28-2.5,4.05-3.23
			c1.79-0.73,3.76-1.1,5.93-1.1c2.39,0,4.5,0.39,6.32,1.16c1.83,0.76,3.23,1.89,4.22,3.4c0.98,1.49,1.52,3.18,1.58,5.09l-4.1,0.29
			c-0.22-2.03-0.96-3.59-2.24-4.61c-1.26-1.06-3.14-1.57-5.62-1.57c-2.59,0-4.46,0.47-5.65,1.41c-1.18,0.95-1.77,2.1-1.77,3.43
			c0,1.15,0.42,2.11,1.26,2.86c0.82,0.75,2.97,1.52,6.44,2.3c3.46,0.79,5.85,1.47,7.14,2.06c1.88,0.87,3.26,1.96,4.16,3.29
			c0.88,1.34,1.35,2.86,1.35,4.58c0,1.72-0.5,3.35-1.47,4.86c-0.99,1.52-2.41,2.7-4.25,3.56c-1.83,0.84-3.91,1.26-6.21,1.26
			c-2.92,0-5.37-0.42-7.34-1.27c-1.97-0.85-3.52-2.13-4.66-3.85C323.04,126.01,322.45,124.08,322.4,121.93z"/>
		<path class="st0" d="M362.13,132.3v-28.48H351.5V100h25.59v3.82H366.4v28.48H362.13z"/>
		<path class="st0" d="M382.19,132.3V100h4.27v32.29H382.19z"/>
		<path class="st0" d="M402.22,132.3v-28.48h-10.65V100h25.59v3.82h-10.68v28.48H402.22z"/>
		<path class="st0" d="M442.73,100H447v18.66c0,3.24-0.37,5.82-1.1,7.73c-0.73,1.89-2.05,3.46-3.97,4.64
			c-1.91,1.21-4.43,1.8-7.55,1.8c-3.01,0-5.48-0.51-7.41-1.57c-1.93-1.04-3.31-2.55-4.13-4.52c-0.82-1.97-1.23-4.67-1.23-8.09V100
			h4.27v18.63c0,2.81,0.26,4.87,0.78,6.21c0.53,1.32,1.43,2.34,2.69,3.06c1.27,0.73,2.83,1.09,4.66,1.09c3.14,0,5.39-0.71,6.72-2.14
			c1.34-1.41,2-4.16,2-8.21V100z"/>
		<path class="st0" d="M462.33,132.3v-28.48h-10.64V100h25.59v3.82H466.6v28.48H462.33z"/>
		<path class="st0" d="M479.56,116.57c0-5.36,1.43-9.55,4.32-12.58c2.87-3.04,6.58-4.55,11.13-4.55c2.98,0,5.67,0.71,8.06,2.13
			c2.39,1.43,4.22,3.42,5.48,5.96c1.24,2.55,1.88,5.43,1.88,8.66c0,3.28-0.65,6.2-1.99,8.79c-1.32,2.58-3.2,4.53-5.61,5.87
			c-2.44,1.32-5.05,1.99-7.84,1.99c-3.04,0-5.76-0.73-8.15-2.21c-2.39-1.46-4.21-3.46-5.43-6.01
			C480.16,122.1,479.56,119.4,479.56,116.57z M483.95,116.63c0,3.9,1.06,6.96,3.14,9.19c2.1,2.24,4.72,3.37,7.89,3.37
			c3.2,0,5.85-1.13,7.93-3.4c2.07-2.25,3.11-5.47,3.11-9.61c0-2.64-0.45-4.94-1.34-6.89c-0.88-1.96-2.17-3.48-3.9-4.55
			c-1.71-1.09-3.63-1.61-5.76-1.61c-3.01,0-5.62,1.04-7.79,3.11C485.04,108.31,483.95,111.77,483.95,116.63z"/>
		<path class="st0" d="M528.33,132.3V100h6.43l7.64,22.87c0.71,2.13,1.21,3.71,1.54,4.77c0.37-1.16,0.95-2.89,1.72-5.17l7.73-22.47
			h5.74v32.29h-4.11v-27.02l-9.39,27.02h-3.83l-9.35-27.48v27.48H528.33z"/>
		<path class="st0" d="M566.1,132.3V100h23.34v3.82h-19.05v9.89h17.86v3.79h-17.86v10.99h19.81v3.8H566.1z"/>
		<path class="st0" d="M592.82,132.3l12.48-16.83L594.3,100h5.09l5.85,8.29c1.21,1.72,2.08,3.04,2.59,3.96
			c0.71-1.18,1.57-2.39,2.56-3.68l6.49-8.57h4.64l-11.33,15.23l12.22,17.06h-5.28L609,120.78c-0.45-0.65-0.92-1.38-1.4-2.16
			c-0.73,1.18-1.24,1.99-1.55,2.42l-8.11,11.26H592.82z"/>
		<path class="st0" d="M626.9,132.3V100h4.27v32.29H626.9z"/>
		<path class="st0" d="M661.75,120.98l4.27,1.07c-0.9,3.51-2.5,6.18-4.83,8.03c-2.33,1.85-5.17,2.76-8.54,2.76
			c-3.48,0-6.3-0.71-8.48-2.13c-2.19-1.41-3.85-3.46-4.98-6.15c-1.13-2.69-1.71-5.57-1.71-8.65c0-3.37,0.64-6.3,1.93-8.8
			c1.29-2.5,3.12-4.41,5.48-5.7c2.38-1.3,4.98-1.96,7.83-1.96c3.25,0,5.96,0.82,8.15,2.47c2.2,1.65,3.74,3.96,4.61,6.94l-4.21,0.99
			c-0.75-2.36-1.85-4.07-3.26-5.14c-1.43-1.07-3.21-1.6-5.37-1.6c-2.48,0-4.56,0.59-6.23,1.79c-1.66,1.18-2.84,2.78-3.51,4.78
			c-0.68,2-1.01,4.07-1.01,6.19c0,2.75,0.39,5.14,1.2,7.19c0.79,2.05,2.05,3.59,3.73,4.6c1.69,1.01,3.52,1.52,5.5,1.52
			c2.39,0,4.41-0.7,6.07-2.08C660.04,125.73,661.16,123.7,661.75,120.98z"/>
		<path class="st0" d="M667.74,132.3L680.13,100h4.61l13.21,32.29h-4.88l-3.76-9.78h-13.51l-3.54,9.78H667.74z M677.05,119.04H688
			l-3.37-8.94c-1.04-2.72-1.8-4.94-2.3-6.69c-0.4,2.07-0.99,4.13-1.74,6.16L677.05,119.04z"/>
		<path class="st0" d="M701.31,132.3V100h4.39l16.95,25.35V100h4.1v32.29h-4.39l-16.95-25.37v25.37H701.31z"/>
		<path class="st0" d="M732.62,116.57c0-5.36,1.44-9.55,4.32-12.58c2.87-3.04,6.6-4.55,11.15-4.55c2.98,0,5.67,0.71,8.06,2.13
			c2.39,1.43,4.22,3.42,5.47,5.96c1.26,2.55,1.89,5.43,1.89,8.66c0,3.28-0.67,6.2-1.99,8.79c-1.32,2.58-3.2,4.53-5.62,5.87
			c-2.42,1.32-5.03,1.99-7.83,1.99c-3.04,0-5.76-0.73-8.15-2.21c-2.39-1.46-4.21-3.46-5.43-6.01
			C733.24,122.1,732.62,119.4,732.62,116.57z M737.03,116.63c0,3.9,1.04,6.96,3.14,9.19c2.1,2.24,4.72,3.37,7.87,3.37
			c3.21,0,5.87-1.13,7.93-3.4c2.08-2.25,3.12-5.47,3.12-9.61c0-2.64-0.45-4.94-1.34-6.89c-0.88-1.96-2.19-3.48-3.9-4.55
			c-1.71-1.09-3.63-1.61-5.76-1.61c-3.03,0-5.62,1.04-7.81,3.11C738.12,108.31,737.03,111.77,737.03,116.63z"/>
		<path class="st0" d="M278.74,186.41v-32.28h11.12c2.52,0,4.42,0.16,5.76,0.47c1.85,0.42,3.42,1.2,4.74,2.31
			c1.69,1.44,2.97,3.28,3.82,5.51c0.84,2.24,1.26,4.8,1.26,7.67c0,2.45-0.28,4.63-0.85,6.52c-0.57,1.89-1.3,3.46-2.2,4.7
			c-0.9,1.24-1.88,2.22-2.93,2.92c-1.07,0.71-2.36,1.26-3.87,1.63c-1.51,0.36-3.23,0.54-5.17,0.54H278.74z M283.01,182.6h6.89
			c2.14,0,3.8-0.2,5.02-0.6c1.21-0.39,2.17-0.95,2.89-1.66c1.02-1.01,1.8-2.38,2.38-4.08c0.56-1.71,0.85-3.79,0.85-6.23
			c0-3.37-0.56-5.96-1.68-7.78c-1.1-1.82-2.45-3.03-4.04-3.65c-1.15-0.45-2.98-0.67-5.53-0.67h-6.79V182.6z"/>
		<path class="st0" d="M311.39,186.41v-32.28h23.35v3.8h-19.07v9.89h17.86v3.79h-17.86v10.99h19.81v3.8H311.39z"/>
		<path class="st0" d="M352.63,170.69c0-5.36,1.43-9.56,4.32-12.59c2.87-3.03,6.58-4.55,11.13-4.55c2.98,0,5.67,0.71,8.06,2.14
			c2.39,1.43,4.22,3.42,5.47,5.96c1.26,2.55,1.89,5.43,1.89,8.65c0,3.29-0.67,6.21-1.99,8.79c-1.32,2.59-3.2,4.55-5.61,5.87
			c-2.44,1.34-5.05,1.99-7.84,1.99c-3.04,0-5.76-0.73-8.15-2.19c-2.39-1.47-4.21-3.48-5.43-6.01
			C353.24,176.21,352.63,173.52,352.63,170.69z M357.03,170.76c0,3.9,1.06,6.96,3.14,9.19c2.1,2.24,4.72,3.35,7.87,3.35
			c3.21,0,5.87-1.13,7.93-3.38c2.08-2.27,3.12-5.48,3.12-9.63c0-2.62-0.45-4.92-1.34-6.88c-0.88-1.96-2.17-3.48-3.9-4.57
			c-1.71-1.07-3.63-1.61-5.76-1.61c-3.01,0-5.62,1.04-7.79,3.12C358.11,162.42,357.03,165.9,357.03,170.76z"/>
		<path class="st0" d="M389.06,186.41v-32.28h14.33c2.87,0,5.06,0.29,6.55,0.87c1.49,0.59,2.7,1.61,3.59,3.07
			c0.9,1.46,1.35,3.09,1.35,4.88c0,2.28-0.74,4.21-2.22,5.78c-1.49,1.57-3.79,2.58-6.88,3c1.13,0.54,1.99,1.09,2.58,1.61
			c1.24,1.15,2.44,2.58,3.54,4.29l5.62,8.79h-5.37l-4.27-6.71c-1.26-1.94-2.28-3.43-3.09-4.46c-0.81-1.02-1.52-1.74-2.17-2.16
			c-0.64-0.4-1.29-0.7-1.94-0.85c-0.48-0.11-1.27-0.16-2.38-0.16h-4.95v14.33H389.06z M393.34,168.38h9.18
			c1.96,0,3.48-0.2,4.58-0.61c1.1-0.4,1.94-1.06,2.52-1.94c0.57-0.89,0.85-1.85,0.85-2.89c0-1.54-0.56-2.8-1.66-3.77
			c-1.1-0.98-2.86-1.48-5.25-1.48h-10.22V168.38z"/>
		<path class="st0" d="M422.3,186.41v-32.28h4.27v32.28H422.3z"/>
		<path class="st0" d="M434.18,186.41v-32.28h23.35v3.8h-19.07v9.89h17.86v3.79h-17.86v10.99h19.81v3.8H434.18z"/>
		<path class="st0" d="M464.13,186.41v-32.28h4.38l16.95,25.34v-25.34h4.1v32.28h-4.38l-16.95-25.37v25.37H464.13z"/>
		<path class="st0" d="M504.96,186.41v-28.48h-10.64v-3.8h25.57v3.8h-10.67v28.48H504.96z"/>
		<path class="st0" d="M517.4,186.41l12.41-32.28h4.6l13.21,32.28h-4.86l-3.77-9.78h-13.49l-3.56,9.78H517.4z M526.71,173.16h10.95
			l-3.37-8.94c-1.02-2.72-1.8-4.95-2.3-6.71c-0.4,2.08-0.98,4.13-1.74,6.18L526.71,173.16z"/>
		<path class="st0" d="M574.05,175.09l4.27,1.09c-0.89,3.51-2.5,6.18-4.83,8.03c-2.33,1.85-5.17,2.75-8.54,2.75
			c-3.48,0-6.3-0.7-8.48-2.11c-2.19-1.41-3.83-3.48-4.98-6.16c-1.13-2.69-1.71-5.56-1.71-8.65c0-3.35,0.65-6.29,1.93-8.79
			c1.29-2.52,3.12-4.41,5.48-5.71c2.38-1.3,4.98-1.96,7.84-1.96c3.21,0,5.93,0.84,8.14,2.47c2.21,1.65,3.74,3.96,4.61,6.94
			l-4.21,0.99c-0.74-2.34-1.83-4.07-3.26-5.12c-1.41-1.07-3.21-1.61-5.37-1.61c-2.48,0-4.55,0.59-6.23,1.79
			c-1.66,1.2-2.83,2.78-3.51,4.78c-0.67,2.02-1.01,4.08-1.01,6.21c0,2.73,0.4,5.14,1.2,7.19c0.81,2.03,2.05,3.57,3.74,4.6
			c1.68,1.01,3.51,1.51,5.48,1.51c2.39,0,4.41-0.68,6.07-2.06C572.34,179.85,573.46,177.8,574.05,175.09z"/>
		<path class="st0" d="M584.32,186.41v-32.28h4.27v32.28H584.32z"/>
		<path class="st0" d="M594.83,170.69c0-5.36,1.43-9.56,4.3-12.59c2.89-3.03,6.6-4.55,11.15-4.55c2.98,0,5.67,0.71,8.06,2.14
			c2.39,1.43,4.22,3.42,5.47,5.96c1.26,2.55,1.89,5.43,1.89,8.65c0,3.29-0.67,6.21-1.99,8.79c-1.32,2.59-3.2,4.55-5.62,5.87
			c-2.42,1.34-5.03,1.99-7.82,1.99c-3.04,0-5.76-0.73-8.15-2.19c-2.39-1.47-4.21-3.48-5.43-6.01
			C595.43,176.21,594.83,173.52,594.83,170.69z M599.22,170.76c0,3.9,1.04,6.96,3.14,9.19c2.1,2.24,4.72,3.35,7.87,3.35
			c3.21,0,5.87-1.13,7.93-3.38c2.08-2.27,3.12-5.48,3.12-9.63c0-2.62-0.45-4.92-1.34-6.88c-0.88-1.96-2.17-3.48-3.9-4.57
			c-1.71-1.07-3.63-1.61-5.76-1.61c-3.01,0-5.62,1.04-7.81,3.12C600.31,162.42,599.22,165.9,599.22,170.76z M607.54,152.14
			l2.93-6.16h5.19l-4.84,6.16H607.54z"/>
		<path class="st0" d="M631.14,186.41v-32.28h4.39l16.96,25.34v-25.34h4.1v32.28h-4.39l-16.95-25.37v25.37H631.14z"/>
		<path class="st0" d="M287.96,240.52l-12.5-32.26h4.63l8.38,23.44c0.68,1.88,1.24,3.63,1.69,5.28c0.5-1.75,1.09-3.52,1.74-5.28
			l8.73-23.44H305l-12.64,32.26H287.96z"/>
		<path class="st0" d="M307.53,224.8c0-5.36,1.44-9.55,4.32-12.59c2.87-3.03,6.58-4.55,11.15-4.55c2.98,0,5.65,0.71,8.06,2.14
			c2.39,1.43,4.21,3.42,5.47,5.96c1.26,2.55,1.88,5.43,1.88,8.66c0,3.28-0.65,6.2-1.97,8.79c-1.32,2.58-3.2,4.53-5.62,5.87
			c-2.42,1.32-5.03,1.99-7.84,1.99c-3.04,0-5.76-0.73-8.15-2.2c-2.39-1.46-4.19-3.46-5.43-6.01
			C308.15,230.31,307.53,227.63,307.53,224.8z M311.94,224.86c0,3.9,1.04,6.96,3.14,9.19c2.08,2.25,4.72,3.37,7.87,3.37
			c3.21,0,5.85-1.13,7.93-3.4c2.08-2.25,3.12-5.47,3.12-9.63c0-2.62-0.45-4.91-1.34-6.88c-0.9-1.96-2.19-3.48-3.9-4.55
			c-1.71-1.09-3.63-1.63-5.76-1.63c-3.03,0-5.62,1.04-7.81,3.12C313.02,216.54,311.94,220.01,311.94,224.86z"/>
		<path class="st0" d="M366.93,229.21l4.27,1.07c-0.88,3.51-2.5,6.2-4.83,8.03c-2.33,1.85-5.17,2.76-8.52,2.76
			c-3.49,0-6.32-0.71-8.49-2.13c-2.19-1.41-3.85-3.46-4.98-6.15c-1.13-2.69-1.71-5.57-1.71-8.66c0-3.35,0.65-6.29,1.94-8.79
			c1.27-2.52,3.11-4.41,5.48-5.71c2.36-1.29,4.97-1.94,7.83-1.94c3.23,0,5.95,0.82,8.15,2.47c2.19,1.65,3.73,3.94,4.6,6.92
			l-4.21,0.99c-0.74-2.34-1.83-4.05-3.26-5.12c-1.43-1.07-3.21-1.61-5.37-1.61c-2.48,0-4.55,0.6-6.23,1.79
			c-1.66,1.2-2.84,2.79-3.51,4.8c-0.67,2-1.01,4.07-1.01,6.2c0,2.75,0.4,5.14,1.2,7.19c0.81,2.05,2.05,3.57,3.74,4.6
			c1.68,1.01,3.51,1.52,5.48,1.52c2.39,0,4.41-0.7,6.07-2.08C365.22,233.98,366.34,231.93,366.93,229.21z"/>
		<path class="st0" d="M372.92,240.52l12.41-32.26h4.6l13.21,32.26h-4.86l-3.77-9.77h-13.49l-3.56,9.77H372.92z M382.24,227.27
			h10.95l-3.37-8.94c-1.02-2.72-1.8-4.95-2.3-6.69c-0.4,2.06-0.98,4.13-1.74,6.16L382.24,227.27z"/>
		<path class="st0" d="M429.58,229.21l4.27,1.07c-0.88,3.51-2.5,6.2-4.83,8.03c-2.33,1.85-5.17,2.76-8.54,2.76
			c-3.48,0-6.3-0.71-8.48-2.13c-2.19-1.41-3.83-3.46-4.98-6.15c-1.13-2.69-1.71-5.57-1.71-8.66c0-3.35,0.65-6.29,1.93-8.79
			c1.29-2.52,3.12-4.41,5.48-5.71c2.38-1.29,4.98-1.94,7.84-1.94c3.21,0,5.93,0.82,8.14,2.47c2.21,1.65,3.74,3.94,4.61,6.92
			l-4.21,0.99c-0.75-2.34-1.83-4.05-3.26-5.12c-1.41-1.07-3.21-1.61-5.37-1.61c-2.48,0-4.55,0.6-6.21,1.79
			c-1.68,1.2-2.84,2.79-3.52,4.8c-0.67,2-1.01,4.07-1.01,6.2c0,2.75,0.4,5.14,1.2,7.19c0.81,2.05,2.05,3.57,3.74,4.6
			c1.68,1.01,3.51,1.52,5.48,1.52c2.39,0,4.41-0.7,6.07-2.08C427.87,233.98,429.01,231.93,429.58,229.21z"/>
		<path class="st0" d="M439.84,240.52v-32.26h4.27v32.26H439.84z"/>
		<path class="st0" d="M450.35,224.8c0-5.36,1.43-9.55,4.32-12.59c2.87-3.03,6.58-4.55,11.13-4.55c2.98,0,5.67,0.71,8.06,2.14
			c2.39,1.43,4.22,3.42,5.47,5.96c1.26,2.55,1.89,5.43,1.89,8.66c0,3.28-0.67,6.2-1.99,8.79c-1.32,2.58-3.2,4.53-5.62,5.87
			c-2.42,1.32-5.03,1.99-7.83,1.99c-3.04,0-5.76-0.73-8.15-2.2c-2.39-1.46-4.21-3.46-5.43-6.01
			C450.96,230.31,450.35,227.63,450.35,224.8z M454.75,224.86c0,3.9,1.04,6.96,3.14,9.19c2.1,2.25,4.72,3.37,7.87,3.37
			c3.21,0,5.87-1.13,7.93-3.4c2.08-2.25,3.12-5.47,3.12-9.63c0-2.62-0.45-4.91-1.33-6.88c-0.89-1.96-2.17-3.48-3.9-4.55
			c-1.71-1.09-3.63-1.63-5.76-1.63c-3.01,0-5.62,1.04-7.79,3.12C455.84,216.54,454.75,220.01,454.75,224.86z"/>
		<path class="st0" d="M486.67,240.52v-32.26h4.39l16.95,25.34v-25.34h4.1v32.26h-4.39l-16.95-25.35v25.35H486.67z"/>
		<path class="st0" d="M515.74,240.52l12.41-32.26h4.6l13.21,32.26h-4.86l-3.77-9.77h-13.49l-3.54,9.77H515.74z M525.07,227.27H536
			l-3.37-8.94c-1.02-2.72-1.79-4.95-2.28-6.69c-0.42,2.06-0.99,4.13-1.74,6.16L525.07,227.27z"/>
		<path class="st0" d="M549.19,240.52v-32.26h4.27v28.46h15.9v3.8H549.19z"/>
		<path class="st0" d="M593.58,240.52v-13.66l-12.45-18.6h5.2l6.37,9.72c1.18,1.83,2.27,3.65,3.29,5.47
			c0.96-1.69,2.13-3.59,3.51-5.7l6.26-9.49h4.98l-12.89,18.6v13.66H593.58z"/>
		<path class="st0" d="M278.74,294.64v-32.28h12.19c2.13,0,3.77,0.09,4.91,0.31c1.58,0.26,2.92,0.76,3.99,1.51
			c1.06,0.73,1.93,1.79,2.58,3.12c0.65,1.34,0.98,2.8,0.98,4.39c0,2.75-0.87,5.08-2.61,6.97c-1.75,1.89-4.91,2.86-9.47,2.86h-8.29
			v13.12H278.74z M283.01,277.7h8.35c2.76,0,4.72-0.51,5.89-1.54c1.15-1.02,1.72-2.47,1.72-4.33c0-1.35-0.33-2.52-1.01-3.48
			s-1.58-1.58-2.7-1.89c-0.71-0.2-2.05-0.3-3.99-0.3h-8.26V277.7z"/>
		<path class="st0" d="M308.89,294.64v-32.28h14.32c2.87,0,5.06,0.29,6.55,0.87c1.51,0.57,2.7,1.6,3.6,3.06
			c0.89,1.47,1.34,3.11,1.34,4.88c0,2.3-0.75,4.22-2.22,5.79c-1.49,1.57-3.77,2.58-6.88,3c1.13,0.54,1.99,1.09,2.58,1.61
			c1.24,1.13,2.44,2.56,3.54,4.29l5.62,8.79h-5.37l-4.27-6.72c-1.26-1.93-2.27-3.42-3.07-4.44c-0.82-1.02-1.54-1.74-2.17-2.16
			c-0.64-0.42-1.29-0.7-1.96-0.87c-0.48-0.09-1.27-0.15-2.38-0.15h-4.95v14.35H308.89z M313.16,276.6h9.18
			c1.96,0,3.48-0.19,4.58-0.6c1.1-0.39,1.94-1.04,2.52-1.93c0.57-0.9,0.85-1.86,0.85-2.9c0-1.52-0.54-2.78-1.66-3.76
			c-1.1-0.99-2.86-1.49-5.25-1.49h-10.22V276.6z"/>
		<path class="st0" d="M340.1,278.91c0-5.36,1.43-9.55,4.32-12.58c2.87-3.03,6.58-4.55,11.13-4.55c2.98,0,5.67,0.71,8.06,2.13
			c2.41,1.43,4.22,3.42,5.48,5.96c1.24,2.55,1.88,5.43,1.88,8.66c0,3.28-0.65,6.21-1.97,8.79c-1.33,2.59-3.2,4.53-5.62,5.87
			c-2.42,1.32-5.03,1.99-7.84,1.99c-3.04,0-5.76-0.73-8.15-2.2c-2.39-1.46-4.21-3.46-5.43-6.01
			C340.72,284.44,340.1,281.75,340.1,278.91z M344.5,278.97c0,3.9,1.06,6.97,3.14,9.21c2.1,2.24,4.72,3.35,7.89,3.35
			c3.2,0,5.85-1.13,7.93-3.4c2.08-2.25,3.11-5.47,3.11-9.61c0-2.64-0.45-4.92-1.34-6.88c-0.88-1.97-2.17-3.49-3.9-4.56
			c-1.71-1.07-3.62-1.61-5.76-1.61c-3.01,0-5.62,1.04-7.79,3.12C345.58,270.65,344.5,274.11,344.5,278.97z"/>
		<path class="st0" d="M376.7,294.64v-32.28h21.77v3.8h-17.5v10h15.14v3.82h-15.14v14.66H376.7z"/>
		<path class="st0" d="M404.1,294.64v-32.28h23.35v3.8h-19.07v9.89h17.86v3.79h-17.86v10.99h19.81v3.8H404.1z"/>
		<path class="st0" d="M432.64,284.27l4.04-0.36c0.19,1.61,0.64,2.93,1.34,3.97c0.7,1.04,1.77,1.88,3.24,2.52
			c1.47,0.64,3.12,0.96,4.95,0.96c1.63,0,3.07-0.25,4.32-0.73c1.24-0.48,2.17-1.15,2.78-1.99c0.62-0.85,0.92-1.77,0.92-2.76
			c0-1.02-0.29-1.91-0.88-2.66c-0.57-0.76-1.55-1.4-2.9-1.91c-0.87-0.34-2.78-0.87-5.75-1.57c-2.97-0.71-5.05-1.4-6.23-2.02
			c-1.54-0.81-2.7-1.82-3.45-3.01c-0.76-1.2-1.13-2.53-1.13-4.02c0-1.63,0.45-3.15,1.38-4.57c0.93-1.41,2.28-2.5,4.05-3.23
			c1.77-0.73,3.76-1.1,5.93-1.1c2.39,0,4.5,0.39,6.33,1.16c1.82,0.78,3.23,1.89,4.21,3.4c0.98,1.49,1.51,3.18,1.58,5.09l-4.1,0.29
			c-0.22-2.03-0.96-3.57-2.24-4.61c-1.27-1.06-3.14-1.57-5.62-1.57c-2.58,0-4.47,0.47-5.65,1.41c-1.18,0.96-1.77,2.1-1.77,3.43
			c0,1.15,0.42,2.11,1.26,2.86c0.82,0.74,2.97,1.52,6.44,2.3c3.46,0.79,5.85,1.48,7.14,2.07c1.88,0.87,3.26,1.97,4.16,3.29
			c0.9,1.33,1.33,2.86,1.33,4.6c0,1.71-0.48,3.34-1.47,4.84c-0.98,1.54-2.39,2.7-4.22,3.55c-1.85,0.84-3.93,1.26-6.23,1.26
			c-2.93,0-5.37-0.42-7.34-1.27c-1.97-0.85-3.52-2.13-4.64-3.83C433.29,288.35,432.7,286.43,432.64,284.27z"/>
		<path class="st0" d="M464.9,294.64v-32.28h4.27v32.28H464.9z"/>
		<path class="st0" d="M475.41,278.91c0-5.36,1.43-9.55,4.32-12.58c2.87-3.03,6.58-4.55,11.13-4.55c2.98,0,5.67,0.71,8.06,2.13
			c2.39,1.43,4.22,3.42,5.48,5.96c1.24,2.55,1.88,5.43,1.88,8.66c0,3.28-0.67,6.21-1.99,8.79c-1.32,2.59-3.2,4.53-5.61,5.87
			c-2.44,1.32-5.05,1.99-7.84,1.99c-3.04,0-5.76-0.73-8.15-2.2c-2.39-1.46-4.21-3.46-5.43-6.01
			C476.02,284.44,475.41,281.75,475.41,278.91z M479.81,278.97c0,3.9,1.06,6.97,3.14,9.21c2.1,2.24,4.72,3.35,7.87,3.35
			c3.21,0,5.87-1.13,7.93-3.4c2.08-2.25,3.12-5.47,3.12-9.61c0-2.64-0.45-4.92-1.34-6.88c-0.88-1.97-2.17-3.49-3.9-4.56
			c-1.71-1.07-3.63-1.61-5.76-1.61c-3.01,0-5.62,1.04-7.79,3.12C480.89,270.65,479.81,274.11,479.81,278.97z"/>
		<path class="st0" d="M511.75,294.64v-32.28h4.38l16.95,25.34v-25.34h4.1v32.28h-4.39l-16.96-25.37v25.37H511.75z"/>
		<path class="st0" d="M540.81,294.64l12.39-32.28h4.61l13.21,32.28h-4.88l-3.76-9.78h-13.51l-3.54,9.78H540.81z M550.13,281.38
			h10.93l-3.35-8.94c-1.04-2.72-1.8-4.94-2.3-6.69c-0.42,2.08-0.99,4.13-1.74,6.16L550.13,281.38z"/>
		<path class="st0" d="M574.25,294.64v-32.28h4.27v28.48h15.9v3.8H574.25z"/>
		<path class="st0" d="M600.04,294.64v-4.52h4.52v4.52c0,1.66-0.31,3-0.89,4.02c-0.59,1.01-1.52,1.8-2.79,2.36l-1.1-1.69
			c0.84-0.37,1.44-0.9,1.85-1.61c0.39-0.71,0.61-1.74,0.65-3.07H600.04z"/>
		<path class="st0" d="M618.54,294.64l12.39-32.28h4.61l13.21,32.28h-4.88l-3.76-9.78h-13.51l-3.54,9.78H618.54z M627.85,281.38
			h10.95l-3.37-8.94c-1.04-2.72-1.8-4.94-2.3-6.69c-0.4,2.08-0.98,4.13-1.74,6.16L627.85,281.38z"/>
		<path class="st0" d="M652.77,294.64v-4.52h4.52v4.52H652.77z"/>
		<path class="st0" d="M687.72,283.32l4.27,1.07c-0.9,3.52-2.5,6.2-4.83,8.04c-2.33,1.83-5.17,2.75-8.52,2.75
			c-3.49,0-6.32-0.7-8.49-2.11c-2.19-1.43-3.85-3.48-4.98-6.16c-1.13-2.69-1.71-5.57-1.71-8.65c0-3.37,0.64-6.3,1.92-8.8
			c1.29-2.5,3.12-4.39,5.48-5.7c2.38-1.3,4.98-1.96,7.83-1.96c3.24,0,5.96,0.82,8.15,2.47c2.2,1.65,3.74,3.96,4.61,6.94l-4.21,0.99
			c-0.74-2.34-1.85-4.07-3.26-5.14c-1.43-1.07-3.21-1.6-5.37-1.6c-2.48,0-4.55,0.59-6.23,1.79c-1.66,1.18-2.84,2.78-3.51,4.78
			c-0.68,2-1.01,4.07-1.01,6.2c0,2.75,0.39,5.16,1.2,7.19c0.79,2.05,2.05,3.59,3.73,4.6c1.69,1.01,3.52,1.52,5.5,1.52
			c2.39,0,4.41-0.7,6.07-2.08C686.01,288.09,687.13,286.04,687.72,283.32z"/>
	</g>
	<g>
		<g>
			<polygon class="st1" points="231.73,80.64 229.52,82.83 226.34,82.36 227.13,84.72 225.35,87.86 228.14,86.77 229.94,88.67 
				230.94,86.45 233.13,85.36 231.73,84.24 			"/>
			<polygon class="st1" points="231.73,80.64 229.52,82.83 226.34,82.36 227.13,84.72 225.35,87.86 228.14,86.77 229.94,88.67 
				230.94,86.45 233.13,85.36 231.73,84.24 			"/>
		</g>
		<linearGradient id="SVGID_1_" gradientUnits="userSpaceOnUse" x1="167.628" y1="297.6169" x2="167.628" y2="47.9525">
			<stop  offset="0" style="stop-color:#E0E0E0"/>
			<stop  offset="1" style="stop-color:#303030"/>
		</linearGradient>
		<rect x="82.38" y="47.59" class="st2" width="170.49" height="251.99"/>
		<g>
			<polygon class="st1" points="168.74,102.69 168.33,101.28 167.53,97.97 167.33,94.04 168.33,90.87 159.76,88.05 170.32,84.43 
				177.09,74.66 183.27,81.91 193.63,82.53 186.07,88.05 186.86,90.56 188.64,96.87 190.44,104.58 191.24,111.66 191.05,114.97 
				190.85,114.16 190.63,111.97 190.44,110.72 190.02,110.08 189.25,108.68 188.04,106.48 186.25,103.79 184.47,100.81 
				182.26,97.97 180.07,95.28 177.9,93.08 177.48,93.25 176.5,93.71 174.9,94.51 173.1,95.44 171.52,96.87 169.93,98.59 
				168.92,100.48 			"/>
			<polygon class="st1" points="168.74,102.69 168.33,101.28 167.53,97.97 167.33,94.04 168.33,90.87 159.76,88.05 170.32,84.43 
				177.09,74.66 183.27,81.91 193.63,82.53 186.07,88.05 186.86,90.56 188.64,96.87 190.44,104.58 191.24,111.66 191.05,114.97 
				190.85,114.16 190.63,111.97 190.44,110.72 190.02,110.08 189.25,108.68 188.04,106.48 186.25,103.79 184.47,100.81 
				182.26,97.97 180.07,95.28 177.9,93.08 177.48,93.25 176.5,93.71 174.9,94.51 173.1,95.44 171.52,96.87 169.93,98.59 
				168.92,100.48 			"/>
		</g>
		<g>
			<polygon class="st1" points="123.67,68.83 119.86,71.67 115.87,72.44 118.67,75.14 118.26,76.08 117.27,78.27 115.87,81.42 
				114.1,84.72 114.29,84.4 114.69,83.78 115.28,82.83 116.09,81.73 117.08,80.64 118.26,79.52 119.47,78.75 120.65,78.13 
				121.06,79.86 121.46,83.93 121.65,89.13 120.65,93.71 121.26,91.34 122.64,85.98 124.05,80.18 124.64,76.08 129.83,74.18 
				125.25,71.82 			"/>
			<polygon class="st1" points="123.67,68.83 119.86,71.67 115.87,72.44 118.67,75.14 118.26,76.08 117.27,78.27 115.87,81.42 
				114.1,84.72 114.29,84.4 114.69,83.78 115.28,82.83 116.09,81.73 117.08,80.64 118.26,79.52 119.47,78.75 120.65,78.13 
				121.06,79.86 121.46,83.93 121.65,89.13 120.65,93.71 121.26,91.34 122.64,85.98 124.05,80.18 124.64,76.08 129.83,74.18 
				125.25,71.82 			"/>
		</g>
		<g>
			<polygon class="st1" points="209.14,149.22 205.16,152.08 201.19,152.85 204.17,155.35 203.78,156.29 202.77,158.51 
				201.37,161.67 199.59,164.96 199.79,164.64 200.18,164.02 200.78,163.23 201.56,162.14 202.55,161.04 203.56,159.92 
				204.76,158.97 205.97,158.51 206.34,160.26 206.95,164.33 206.95,169.53 206.16,174.09 206.75,171.73 208.14,166.39 
				209.53,160.38 210.13,156.29 215.32,154.42 210.54,152.22 			"/>
			<polygon class="st1" points="209.14,149.22 205.16,152.08 201.19,152.85 204.17,155.35 203.78,156.29 202.77,158.51 
				201.37,161.67 199.59,164.96 199.79,164.64 200.18,164.02 200.78,163.23 201.56,162.14 202.55,161.04 203.56,159.92 
				204.76,158.97 205.97,158.51 206.34,160.26 206.95,164.33 206.95,169.53 206.16,174.09 206.75,171.73 208.14,166.39 
				209.53,160.38 210.13,156.29 215.32,154.42 210.54,152.22 			"/>
		</g>
		<g>
			<polygon class="st1" points="202.96,53.05 201.78,58.42 194.39,61.87 200.38,63.92 200.58,65.33 201.19,69.26 202.17,74.93 
				203.78,81.7 203.97,80.14 204.36,76.36 205.57,72.1 207.37,68.79 207.54,68.95 208.35,69.26 209.53,69.74 210.92,70.52 
				212.12,71.47 213.52,72.41 214.53,73.51 215.11,74.77 214.91,73.36 214.32,69.74 212.93,65.49 210.92,61.56 214.32,57.94 
				207.54,57.46 			"/>
			<polygon class="st1" points="202.96,53.05 201.78,58.42 194.39,61.87 200.38,63.92 200.58,65.33 201.19,69.26 202.17,74.93 
				203.78,81.7 203.97,80.14 204.36,76.36 205.57,72.1 207.37,68.79 207.54,68.95 208.35,69.26 209.53,69.74 210.92,70.52 
				212.12,71.47 213.52,72.41 214.53,73.51 215.11,74.77 214.91,73.36 214.32,69.74 212.93,65.49 210.92,61.56 214.32,57.94 
				207.54,57.46 			"/>
		</g>
		<g>
			<polygon class="st1" points="152.51,172.57 151.32,178.08 143.96,181.55 149.92,183.44 150.14,184.84 150.71,188.78 
				151.72,194.46 153.3,201.06 153.51,199.49 153.9,195.86 155.11,191.62 156.91,188.32 157.28,188.47 158.1,188.78 159.08,189.26 
				160.48,190.04 161.86,190.99 163.06,191.93 164.06,193.04 164.65,194.29 164.45,192.88 163.85,189.43 162.47,184.99 
				160.48,181.25 163.85,177.62 157.08,176.98 			"/>
			<polygon class="st1" points="152.51,172.57 151.32,178.08 143.96,181.55 149.92,183.44 150.14,184.84 150.71,188.78 
				151.72,194.46 153.3,201.06 153.51,199.49 153.9,195.86 155.11,191.62 156.91,188.32 157.28,188.47 158.1,188.78 159.08,189.26 
				160.48,190.04 161.86,190.99 163.06,191.93 164.06,193.04 164.65,194.29 164.45,192.88 163.85,189.43 162.47,184.99 
				160.48,181.25 163.85,177.62 157.08,176.98 			"/>
		</g>
		<g>
			<polygon class="st1" points="151.32,65.67 150.91,68.67 148.74,70.24 151.32,71.2 151.32,77.02 153.3,72.61 157.28,75.14 
				154.3,70.24 156.91,67.89 153.71,68.2 			"/>
			<polygon class="st1" points="151.32,65.67 150.91,68.67 148.74,70.24 151.32,71.2 151.32,77.02 153.3,72.61 157.28,75.14 
				154.3,70.24 156.91,67.89 153.71,68.2 			"/>
		</g>
		<g>
			<polygon class="st1" points="160.28,131.41 158.1,135.03 154.5,136.44 157.08,138.48 154.11,145.73 159.08,140.85 163.06,145.4 
				161.67,138.32 166.44,135.98 162.28,135.36 			"/>
			<polygon class="st1" points="160.28,131.41 158.1,135.03 154.5,136.44 157.08,138.48 154.11,145.73 159.08,140.85 163.06,145.4 
				161.67,138.32 166.44,135.98 162.28,135.36 			"/>
		</g>
		<g>
			<polygon class="st1" points="219.59,120.36 217.2,122.42 214.03,122.1 215.01,124.46 213.02,127.61 215.8,126.37 217.6,128.38 
				218.59,126.04 220.78,125.09 219.37,123.99 			"/>
			<polygon class="st1" points="219.59,120.36 217.2,122.42 214.03,122.1 215.01,124.46 213.02,127.61 215.8,126.37 217.6,128.38 
				218.59,126.04 220.78,125.09 219.37,123.99 			"/>
		</g>
		<g>
			<polygon class="st1" points="108.54,107.92 106.37,109.96 103.17,109.49 103.98,111.85 102.18,115.16 104.96,113.9 
				106.76,115.79 107.75,113.59 109.94,112.49 108.54,111.54 			"/>
			<polygon class="st1" points="108.54,107.92 106.37,109.96 103.17,109.49 103.98,111.85 102.18,115.16 104.96,113.9 
				106.76,115.79 107.75,113.59 109.94,112.49 108.54,111.54 			"/>
		</g>
		<g>
			<polygon class="st1" points="109.63,49.37 110,52.07 107.36,53.58 110.22,54.63 111.73,57.63 112.47,55.4 115.33,55.69 
				113.99,53.73 114.55,51.78 112.67,51.93 			"/>
			<polygon class="st1" points="109.63,49.37 110,52.07 107.36,53.58 110.22,54.63 111.73,57.63 112.47,55.4 115.33,55.69 
				113.99,53.73 114.55,51.78 112.67,51.93 			"/>
		</g>
		<polygon class="st3" points="86.06,299.58 86.06,47.59 36.08,47.59 36.08,299.58 36.08,335.51 36.08,352.41 252.87,352.41 
			252.87,299.58 		"/>
		<g>
			<g>
				<polygon class="st4" points="151.55,103.48 150.99,104.05 149.36,105.95 146.97,108.84 143.86,112.75 140,117.53 135.78,123.18 
					131.4,129.41 126.82,136.36 122.42,143.76 118,151.55 113.98,159.67 110.48,167.95 107.56,176.31 105.37,184.87 104.27,193.13 
					104.1,201.36 105.37,218.03 107.04,232.52 109.04,244.83 111.23,255.25 113.79,263.79 116.55,271.04 119.66,276.68 
					122.98,281.32 122.05,280.88 119.66,279.74 116,277.42 111.6,273.63 107.04,268.29 102.44,261.18 98.23,252.08 95.11,240.62 
					94.74,241.51 94.01,244.1 92.72,248.03 91.08,253.09 89.07,259.3 86.85,266.27 84.31,273.8 81.73,281.61 78.98,289.72 
					76.25,297.68 73.67,305.37 70.92,312.6 68.53,319.11 66.34,324.64 64.51,329.12 62.85,332.32 63.59,328.38 65.78,317.82 
					68.9,302.03 72.6,282.64 76.25,261.04 79.9,239.03 83.02,217.88 85.02,199.35 84.66,199.79 83.95,200.8 82.47,202.69 
					80.63,205.01 78.25,207.76 75.69,210.8 72.6,214.28 69.46,217.74 65.97,221.51 62.32,225.13 58.47,228.75 54.6,232.21 
					50.75,235.27 46.92,238.02 43.25,240.48 39.59,242.22 39.95,241.93 40.86,240.92 42.15,239.48 44.17,237.44 46.36,234.83 
					49.12,231.95 52.06,228.47 55.16,224.71 58.47,220.64 61.76,216.45 65.07,211.82 68.53,207.03 71.84,202.24 74.77,197.18 
					77.71,192.26 80.27,187.18 80.63,186.33 81.37,184 82.83,180.83 84.66,177.06 87.04,173.43 89.97,170.26 93.3,167.95 
					97.12,167.06 97.49,166.49 98.78,164.75 100.61,162 103.17,158.51 106.1,154.31 109.58,149.69 113.43,144.47 117.66,139.11 
					122.05,133.6 126.44,128.11 131.02,122.73 135.61,117.69 140,113.18 144.02,109.12 148.07,105.81 				"/>
				<polygon class="st5" points="151.55,103.48 150.99,104.05 149.36,105.95 146.97,108.84 143.86,112.75 140,117.53 135.78,123.18 
					131.4,129.41 126.82,136.36 122.42,143.76 118,151.55 113.98,159.67 110.48,167.95 107.56,176.31 105.37,184.87 104.27,193.13 
					104.1,201.36 105.37,218.03 107.04,232.52 109.04,244.83 111.23,255.25 113.79,263.79 116.55,271.04 119.66,276.68 
					122.98,281.32 122.05,280.88 119.66,279.74 116,277.42 111.6,273.63 107.04,268.29 102.44,261.18 98.23,252.08 95.11,240.62 
					94.74,241.51 94.01,244.1 92.72,248.03 91.08,253.09 89.07,259.3 86.85,266.27 84.31,273.8 81.73,281.61 78.98,289.72 
					76.25,297.68 73.67,305.37 70.92,312.6 68.53,319.11 66.34,324.64 64.51,329.12 62.85,332.32 63.59,328.38 65.78,317.82 
					68.9,302.03 72.6,282.64 76.25,261.04 79.9,239.03 83.02,217.88 85.02,199.35 84.66,199.79 83.95,200.8 82.47,202.69 
					80.63,205.01 78.25,207.76 75.69,210.8 72.6,214.28 69.46,217.74 65.97,221.51 62.32,225.13 58.47,228.75 54.6,232.21 
					50.75,235.27 46.92,238.02 43.25,240.48 39.59,242.22 39.95,241.93 40.86,240.92 42.15,239.48 44.17,237.44 46.36,234.83 
					49.12,231.95 52.06,228.47 55.16,224.71 58.47,220.64 61.76,216.45 65.07,211.82 68.53,207.03 71.84,202.24 74.77,197.18 
					77.71,192.26 80.27,187.18 80.63,186.33 81.37,184 82.83,180.83 84.66,177.06 87.04,173.43 89.97,170.26 93.3,167.95 
					97.12,167.06 97.49,166.49 98.78,164.75 100.61,162 103.17,158.51 106.1,154.31 109.58,149.69 113.43,144.47 117.66,139.11 
					122.05,133.6 126.44,128.11 131.02,122.73 135.61,117.69 140,113.18 144.02,109.12 148.07,105.81 				"/>
			</g>
			<g>
				<polygon class="st4" points="84.12,159.53 84.31,159.81 84.66,160.54 85.39,161.55 86.31,162.42 87.77,163.15 89.6,163.44 
					91.81,163.15 94.57,161.84 95.3,160.54 96.59,157.36 97.12,153.16 95.48,148.96 94.93,149.1 93.3,149.55 91.26,150.25 
					88.87,151.29 86.68,152.73 84.85,154.61 83.95,156.78 				"/>
				<polygon class="st5" points="84.12,159.53 84.31,159.81 84.66,160.54 85.39,161.55 86.31,162.42 87.77,163.15 89.6,163.44 
					91.81,163.15 94.57,161.84 95.3,160.54 96.59,157.36 97.12,153.16 95.48,148.96 94.93,149.1 93.3,149.55 91.26,150.25 
					88.87,151.29 86.68,152.73 84.85,154.61 83.95,156.78 				"/>
			</g>
		</g>
		<g>
			<path class="st1" d="M138.96,339.9v-21.02h4.78v21.02H138.96z"/>
			<path class="st1" d="M148.21,339.9v-21.02h7.14l4.3,14.36l4.22-14.36h7.17v21.02h-4.46v-16.55l-4.69,16.55h-4.6l-4.66-16.55
				v16.55H148.21z"/>
			<path class="st1" d="M174.79,329.53c0-2.16,0.36-3.94,1.1-5.4c0.53-1.06,1.24-2.02,2.21-2.87c0.9-0.85,1.94-1.49,3.03-1.91
				c1.48-0.54,3.18-0.82,5.11-0.82c3.48,0,6.27,0.96,8.35,2.89c2.08,1.91,3.12,4.6,3.12,8.03c0,3.37-1.02,6.04-3.11,7.95
				c-2.06,1.91-4.84,2.89-8.31,2.89c-3.51,0-6.29-0.95-8.4-2.86C175.85,335.51,174.79,332.85,174.79,329.53z M179.73,329.39
				c0,2.38,0.6,4.18,1.83,5.4c1.26,1.23,2.8,1.85,4.7,1.85c1.93,0,3.48-0.62,4.69-1.82c1.21-1.23,1.83-3.06,1.83-5.5
				c0-2.42-0.59-4.21-1.77-5.4c-1.18-1.18-2.78-1.77-4.75-1.77c-1.94,0-3.54,0.61-4.74,1.8
				C180.34,325.15,179.73,326.97,179.73,329.39z"/>
			<path class="st1" d="M207.46,339.9l-8.43-21.02h5.17l5.98,15.57l5.78-15.57h5.08l-8.46,21.02H207.46z"/>
			<path class="st1" d="M222.49,329.53c0-2.16,0.34-3.94,1.09-5.4c0.53-1.06,1.26-2.02,2.19-2.87c0.92-0.85,1.94-1.49,3.07-1.91
				c1.46-0.54,3.15-0.82,5.08-0.82c3.46,0,6.26,0.96,8.35,2.89c2.1,1.91,3.15,4.6,3.15,8.03c0,3.37-1.06,6.04-3.12,7.95
				c-2.1,1.91-4.86,2.89-8.31,2.89c-3.52,0-6.32-0.95-8.4-2.86C223.5,335.51,222.49,332.85,222.49,329.53z M227.38,329.39
				c0,2.38,0.62,4.18,1.88,5.4c1.24,1.23,2.81,1.85,4.72,1.85c1.88,0,3.45-0.62,4.67-1.82c1.21-1.23,1.82-3.06,1.82-5.5
				c0-2.42-0.59-4.21-1.79-5.4c-1.16-1.18-2.76-1.77-4.7-1.77c-1.99,0-3.57,0.61-4.78,1.8C228,325.15,227.38,326.97,227.38,329.39z"
				/>
		</g>
	</g>
</g>
</svg>
