<?xml version="1.0" encoding="utf-8"?>
<!-- Generator: Adobe Illustrator 25.4.1, SVG Export Plug-In . SVG Version: 6.00 Build 0)  -->
<svg version="1.1" id="Capa_1" xmlns="http://www.w3.org/2000/svg" xmlns:xlink="http://www.w3.org/1999/xlink" x="0px" y="0px"
	 viewBox="0 0 790.89 337.37" style="enable-background:new 0 0 790.89 337.37;" xml:space="preserve">
<style type="text/css">
	.st0{fill:#003595;}
	.st1{fill:#158B98;}
	.st2{fill:#F3EA61;}
	.st3{fill:#43B9E2;}
	.st4{fill:#DE153A;}
	.st5{fill-rule:evenodd;clip-rule:evenodd;fill:#011E41;}
	.st6{fill:#011E41;}
	.st7{fill:#0099A8;}
</style>
<g>
	<g>
		<g>
			<path class="st0" d="M514.72,221.39l-18.82,62.13l12.58,2.89l2.56-12.04h16.84l2.93,9.98l11.58-2.32l-20.2-59.71L514.72,221.39z
				 M514,262.18l4.38-18.03l5.88,18.46L514,262.18z"/>
			<path class="st0" d="M577.49,274.08l-7.48-8.94c-3.71,4.32-6.66,6.76-8.87,7.3c-3.43,0.85-5.49-0.33-6.2-3.56
				c-1.59-10.93-2.03-19.87-1.32-26.83c0.4-3.13,1.38-5.05,2.92-5.74c1.52-0.83,3.07-1.1,4.67-0.83c2.01,0.13,3.22,1.34,3.59,3.64
				c0.19,1.4,0.33,2.82,0.43,4.24l10.55-1.21c0.11-3.3,0.14-6.32,0.07-9.05c-0.15-5.97-3.19-9.58-9.12-10.87
				c-4.47-0.85-9.33-0.34-14.57,1.53c-5.56,2-8.78,5.96-9.65,11.9c-1.24,9.59-0.63,21.96,1.81,37.08
				c1.43,6.65,5.01,10.61,10.76,11.86c2.07,0.78,4.99,0.93,8.76,0.43C568.21,284.37,572.76,280.7,577.49,274.08"/>
			<path class="st0" d="M602.27,227.02c2.47,19.61,3.08,33.33,1.81,41.11c-0.47,2.71-1.8,4.3-3.99,4.77
				c-1.42,0.43-2.93,0.32-4.53-0.32c-1.62-0.67-2.61-2.56-2.99-5.7c-0.69-6.94-0.09-21.4,1.78-43.39L582,222.56
				c-1.97,24.32-2.34,41.54-1.11,51.66c0.78,5.49,3.07,8.67,6.84,9.54c7.61,1.88,13.5,2.38,17.68,1.5
				c6.97-1.8,10.6-5.71,10.87-11.72c0.63-13.89,0.02-29.95-1.86-48.17L602.27,227.02z"/>
			<path class="st0" d="M638,221.39l-18.82,62.13l12.58,2.89l2.56-12.04h16.86l2.92,9.98l11.58-2.32l-20.2-59.71L638,221.39z
				 M637.29,262.18l4.38-18.03l5.88,18.46L637.29,262.18z"/>
			<path class="st0" d="M694.75,259.26c3.35-0.71,5.47-2.89,6.38-6.52c1.69-4.73,2.41-12.51,2.17-23.34
				c-0.36-7.55-11.81-10.3-34.35-8.23l2.1,63.38l11.33,0.97v-22.48l15.57,23.65l7.3-7.27L694,259.44L694.75,259.26z M682.46,250.25
				v-17.21c3.85-0.02,6.65,0.47,8.41,1.46c1.64,0.69,2.24,2.76,1.81,6.19C692.37,246.54,688.96,249.72,682.46,250.25"/>
			<polygon class="st0" points="720.46,237.7 708.14,239.13 710.31,286.16 720.46,283.31 			"/>
			<polygon class="st0" points="719.32,234.07 720.29,218.15 707.95,217.65 709.17,233.61 			"/>
			<path class="st0" d="M756.37,280.07c4.68-10.19,7.01-22.62,7.01-37.3c0-5.91-0.4-10.62-1.21-14.11
				c-1.55-5.61-6.36-8.41-14.43-8.41c-9.12,0.62-15.84,2.37-20.16,5.28c-2.4,1.47-3.55,5.8-3.45,13c0,6.66,1.04,15.98,3.13,27.97
				c1.66,9.17,3.1,14.5,4.31,16c1.69,2.19,5.14,3.23,10.33,3.14c4.34-0.33,7.34-0.74,8.98-1.21
				C753.37,283.51,755.2,282.07,756.37,280.07 M747.14,271.7c-0.64,0.26-1.82,0.5-3.53,0.71c-2.08,0.02-3.47-0.6-4.13-1.86
				c-0.47-0.88-1.25-4.68-2.31-11.4c-1.8-13.66-2.03-21.15-0.68-22.48c2.04-2.11,5.19-2.97,9.44-2.56c3.28,0.45,5.19,2.09,5.73,4.92
				c0.31,2.06,0.46,4.81,0.46,8.23c0,8.62-0.93,15.93-2.77,21.91C748.88,270.33,748.14,271.17,747.14,271.7"/>
			<path class="st0" d="M501.98,306.49v29.22c3.53,0,3.62,0,3.62-0.7v-30.15C502.03,304.85,501.98,304.85,501.98,306.49"/>
			<path class="st0" d="M530.6,305.56v10.4c0,2.03,0.12,10.58,0.44,13.18v0.09c-1.1-3.31-3.35-10.23-4.23-12.47l-4.98-11.9h-2.69
				c-0.48,0-0.7,0.22-0.7,0.71v30.15c3.48,0,3.52,0,3.52-0.7v-10.72c0-1.85-0.18-10.36-0.44-13.22c1.1,3.44,3.44,10.53,4.19,12.52
				l5.07,12.12h2.64c0.49,0,0.76-0.27,0.76-0.7v-30.15C530.69,304.85,530.6,304.85,530.6,305.56"/>
			<path class="st0" d="M545.42,305.56v2.64h6v27.51c3.48,0,3.57,0,3.57-0.7v-26.8h5.42c0.53,0,0.74-0.18,0.74-0.75v-2.6h-14.98
				C545.64,304.85,545.42,305.08,545.42,305.56"/>
			<path class="st0" d="M583.13,308.07c0.66,0,0.66-0.36,0.66-3.22h-10.57c-0.71,0-0.71,0.71-0.71,0.71v30.15h10.4
				c0.7,0,0.7-0.22,0.7-3.22h-7.58v-11.94h6c0.66,0,0.66-0.57,0.66-3.26h-6.65v-9.21H583.13z"/>
			<path class="st0" d="M608.75,313.54c0-6.08-2.56-8.68-8.11-8.68h-4.36c-0.7,0-0.7,0.71-0.7,0.71v30.15c3.48,0,3.52,0,3.52-0.7
				v-11.82h1.59l0.84-0.05c1.1,1.41,3.17,5.11,3.66,12.56c0.8,0.04,1.5,0.09,2.07,0.09c1.67,0,1.8-0.22,1.8-0.88
				c-0.44-6.79-2.73-10.84-4.15-12.73C607.2,320.9,608.75,318.26,608.75,313.54 M601.03,319.88h-1.94v-11.9h2.2
				c2.65,0,3.53,2.03,3.53,5.43C604.83,318.08,603.55,319.88,601.03,319.88"/>
			<path class="st0" d="M628.46,304.72c-0.75,0-1.24,0.18-1.32,0.62l-7.89,30.32c0.84,0.09,1.76,0.13,2.2,0.13
				c1.41,0,1.55-0.22,1.67-0.71l1.72-7.22h7.67l1.85,7.85c0.93,0.09,1.63,0.09,2.11,0.09c1.41,0,1.63-0.26,1.55-0.75l-7.89-30.19
				C629.7,304.77,629.08,304.72,628.46,304.72 M631.72,324.64h-6.12l1.5-6.35c0.7-2.95,1.32-6.39,1.59-8.51
				c0.17,2.12,0.84,5.56,1.54,8.51L631.72,324.64z"/>
			<path class="st0" d="M658.01,307.9c1.36,0,2.42,0.74,2.86,1.1c0.31-0.53,0.57-1.32,0.57-2.16c0-1.1-0.88-2.42-4.14-2.42
				c-3.93,0-8.69,2.07-8.69,17.14c0,12.88,3.13,14.59,7.32,14.59c3.26,0,5.47-1.45,5.47-3.17c0-0.75-0.27-1.59-0.53-2.16
				c-0.79,0.7-2.38,1.41-4.1,1.41c-2.6,0-4.41-1.85-4.41-10.84C652.37,309.7,655.19,307.9,658.01,307.9"/>
			<path class="st0" d="M671.68,305.56v2.64h6v27.51c3.48,0,3.57,0,3.57-0.7v-26.8h5.42c0.53,0,0.75-0.18,0.75-0.75v-2.6h-14.98
				C671.91,304.85,671.68,305.08,671.68,305.56"/>
			<path class="st0" d="M698.72,306.49v29.22c3.52,0,3.61,0,3.61-0.7v-30.15C698.77,304.85,698.72,304.85,698.72,306.49"/>
			<path class="st0" d="M727.56,305.91l-3.31,16.04c-0.7,3.92-1.24,7.93-1.59,10.71c-0.09-0.48-0.18-1.05-0.26-1.63
				c-0.4-2.6-0.88-5.86-1.5-9.08l-3.71-17.1h-2.9c-0.66,0-0.84,0.13-0.84,0.49c0,0.13,0.05,0.35,0.09,0.57c0,0,4.4,20.36,6.12,27.55
				c0.4,1.5,0.97,2.55,2.12,2.55c1.36,0,2.03-0.04,2.99-0.18l6.79-30.98h-3.09C727.82,304.85,727.69,305.21,727.56,305.91"/>
			<path class="st0" d="M750.54,304.41c-5.73,0-8.47,3.96-8.47,15.69c0,12.7,2.25,16.05,7.99,16.05c5.77,0,8.29-4.06,8.29-16.18
				C758.34,308.07,756.22,304.41,750.54,304.41 M750.18,332.49c-3.17,0-4.1-3.26-4.1-11.5c0-9.56,1.23-12.91,4.37-12.91
				c3.17,0,4.05,3.13,4.05,11.98C754.5,329.05,753.4,332.49,750.18,332.49"/>
			<path class="st1" d="M679.08,88.39c0-41.06-33.29-74.36-74.36-74.36s-74.35,33.29-74.35,74.36c0,41.07,33.29,74.35,74.35,74.35
				S679.08,129.46,679.08,88.39"/>
			<polygon class="st2" points="622.02,37.1 607.76,57.74 586.82,91.43 587.42,114.19 600.48,119.04 635.37,118.14 675.74,101.14 
				678.16,85.06 687.27,71.4 697.89,45.6 718.83,42.57 712.46,35.89 703.05,26.78 696.98,11.61 693.04,21.93 691.22,29.21 
				681.2,31.04 672.4,25.27 669.06,38.93 643.26,24.36 629.31,34.07 			"/>
			<path class="st3" d="M547.41,99.64c1.21,1.02,2.35,1.98,3.47,2.67c1.12,0.71,2.13,1.09,3.06,1.09s1.94-0.38,3.09-1.09
				c1.14-0.71,2.3-1.65,3.51-2.67c1.2-1,2.45-2.05,3.72-2.84c1.25-0.79,2.62-1.43,4.09-1.43c1.52,0,2.93,0.62,4.23,1.41
				c1.29,0.81,2.56,1.86,3.76,2.86c1,0.83,1.91,1.55,2.83,2.2c0.1-0.79,0.18-1.57,0.38-2.34c0.2-0.75,0.44-1.6,0.76-2.59
				c-0.57-0.24-1.12-0.51-1.65-0.84c-1.25-0.79-2.52-1.84-3.71-2.83c-1.21-1.03-2.36-1.97-3.52-2.68c-1.14-0.71-2.14-1.1-3.09-1.1
				c-0.86,0-1.83,0.38-2.96,1.09c-1.12,0.71-2.26,1.67-3.48,2.69c-1.19,0.99-2.46,2.04-3.75,2.85c-1.29,0.79-2.73,1.4-4.23,1.4
				c-1.52,0-2.92-0.61-4.19-1.42c-1.27-0.79-2.53-1.84-3.72-2.83c-1.2-1.03-2.32-1.99-3.45-2.68c-1.1-0.68-2.06-1.04-2.95-1.07
				c0.01,0.09-0.02,0.18-0.02,0.28c0.09,1.97,0.57,3.84,0.83,5.77c1.16,0.19,2.27,0.62,3.28,1.26
				C544.99,97.59,546.24,98.64,547.41,99.64"/>
			<path class="st3" d="M547.41,91.58c1.21,1.02,2.35,1.97,3.47,2.67c1.12,0.71,2.13,1.09,3.06,1.09s1.94-0.38,3.09-1.09
				c1.14-0.71,2.3-1.67,3.51-2.67c1.2-0.99,2.45-2.04,3.72-2.84c1.25-0.8,2.62-1.43,4.09-1.43c1.52,0,2.93,0.63,4.23,1.42
				c1.29,0.81,2.56,1.87,3.76,2.85c1.22,1.02,2.36,1.97,3.47,2.67c0.47,0.31,0.83,0.28,1.25,0.46c0.5-1.4,1.17-3.16,2.05-5.34
				c-0.12,0.01-0.22,0.07-0.35,0.07c-1.45,0-2.84-0.62-4.09-1.42c-1.27-0.79-2.52-1.84-3.71-2.83c-1.22-1.02-2.36-1.98-3.52-2.68
				c-1.14-0.71-2.15-1.11-3.09-1.11c-0.86,0-1.83,0.39-2.96,1.09c-1.12,0.71-2.26,1.67-3.48,2.69c-1.19,0.99-2.46,2.04-3.75,2.83
				c-1.29,0.81-2.73,1.42-4.23,1.42c-1.52,0-2.92-0.61-4.19-1.42c-1.29-0.79-2.53-1.84-3.72-2.83c-1.2-1.02-2.32-1.98-3.45-2.69
				c-0.95-0.57-1.76-0.8-2.55-0.9c-0.15,1.91-0.31,3.83-0.29,5.76c1.42,0.06,2.77,0.63,3.98,1.38
				C544.99,89.54,546.24,90.59,547.41,91.58"/>
			<path class="st3" d="M664.16,114.21c0.09-0.2,0.19-0.39,0.28-0.59c-0.34,0.01-0.68,0.02-1.02,0.02
				C663.67,113.85,663.91,114.01,664.16,114.21"/>
			<path class="st3" d="M660.39,114.02c-7.83,4.48-16.06,7.31-24.13,9.01c0.47,0.36,0.97,0.81,1.43,1.1
				c1.12,0.71,2.09,1.09,2.96,1.09c0.93,0,1.94-0.38,3.1-1.09c1.14-0.71,2.3-1.67,3.52-2.68c1.21-1,2.49-2.06,3.78-2.85
				c1.29-0.79,2.72-1.42,4.23-1.42c1.47,0,2.86,0.63,4.11,1.42c0.66,0.42,1.3,0.99,1.96,1.51c0.74-1.25,1.22-2.63,1.87-3.93
				c-0.49-0.4-1.02-0.74-1.49-1.13C661.26,114.65,660.83,114.38,660.39,114.02"/>
			<path class="st3" d="M547.41,83.52c1.21,1.02,2.35,1.97,3.47,2.67c1.12,0.71,2.13,1.09,3.06,1.09s1.94-0.38,3.09-1.09
				c1.14-0.71,2.3-1.67,3.51-2.67c1.2-0.99,2.45-2.04,3.71-2.84c1.25-0.81,2.64-1.44,4.11-1.44c1.52,0,2.93,0.63,4.23,1.42
				c1.29,0.81,2.56,1.86,3.75,2.85c1.21,1.02,2.38,1.97,3.48,2.67c1.12,0.71,2.1,1.09,2.95,1.09c0.43,0,0.95-0.34,1.41-0.5
				c0.83-1.99,1.79-4.24,2.97-6.94c-0.05,0.03-0.1,0.08-0.15,0.11c-1.29,0.82-2.7,1.43-4.23,1.43c-1.45,0-2.84-0.63-4.09-1.43
				c-1.27-0.79-2.52-1.84-3.71-2.83c-1.22-1.03-2.36-1.98-3.52-2.68c-1.14-0.71-2.15-1.11-3.09-1.11c-0.86,0-1.83,0.38-2.96,1.09
				c-1.12,0.71-2.26,1.67-3.48,2.69c-1.19,0.99-2.46,2.04-3.75,2.83c-1.29,0.82-2.73,1.43-4.23,1.43c-1.52,0-2.92-0.61-4.19-1.43
				c-1.29-0.79-2.53-1.84-3.72-2.85c-1.2-1.01-2.32-1.96-3.45-2.67c-0.58-0.35-1.03-0.37-1.55-0.55c-0.36,1.81-0.67,3.63-0.88,5.49
				c1.26,0.14,2.48,0.62,3.57,1.3C544.99,81.48,546.24,82.54,547.41,83.52"/>
			<path class="st3" d="M547.41,106.36c1.21,1.02,2.34,1.99,3.47,2.67c1.12,0.71,2.13,1.1,3.06,1.1s1.94-0.4,3.09-1.1
				c1.14-0.71,2.3-1.65,3.52-2.67c1.19-0.99,2.44-2.04,3.71-2.84c1.25-0.79,2.64-1.42,4.09-1.42c1.52,0,2.93,0.61,4.23,1.4
				c1.29,0.81,2.56,1.86,3.76,2.85c1.15,0.97,2.22,1.85,3.29,2.54c-0.4-1.5-0.61-3.04-0.62-4.6c-0.11-0.06-0.23-0.11-0.35-0.18
				c-1.25-0.79-2.52-1.85-3.71-2.84c-1.21-1.02-2.36-1.96-3.52-2.67c-1.14-0.71-2.14-1.11-3.09-1.11c-0.86,0-1.83,0.38-2.96,1.09
				c-1.12,0.71-2.26,1.67-3.48,2.68c-1.19,1-2.46,2.05-3.75,2.86c-1.29,0.79-2.73,1.4-4.23,1.4c-1.52,0-2.92-0.61-4.19-1.42
				c-1.27-0.79-2.53-1.85-3.72-2.84c-1.2-1.02-2.32-1.98-3.45-2.67c-0.67-0.42-1.21-0.47-1.78-0.65c0.25,1.49,0.28,3.03,0.64,4.49
				c0.8,0.26,1.57,0.61,2.28,1.07C544.99,104.32,546.24,105.37,547.41,106.36"/>
			<path class="st3" d="M547.41,75.47c1.21,1.02,2.35,1.97,3.47,2.67c1.12,0.71,2.13,1.09,3.06,1.09s1.94-0.38,3.09-1.09
				c1.14-0.71,2.3-1.67,3.51-2.67c1.2-1,2.45-2.04,3.71-2.86c1.25-0.79,2.64-1.41,4.11-1.41c1.52,0,2.93,0.62,4.23,1.41
				c1.29,0.82,2.56,1.85,3.75,2.86c1.21,1.01,2.38,1.97,3.48,2.67c1.12,0.71,2.1,1.09,2.95,1.09c0.94,0,1.95-0.38,3.1-1.09
				c0.98-0.61,2-1.45,3.04-2.3c0.43-0.97,0.81-1.84,1.28-2.9c0.87-1.93,1.86-3.79,2.9-5.64c-0.76,0.56-1.52,1.09-2.32,1.77
				c-1.21,0.99-2.49,2.04-3.78,2.83c-1.29,0.81-2.7,1.42-4.23,1.42c-1.45,0-2.84-0.63-4.09-1.42c-1.27-0.79-2.52-1.84-3.71-2.83
				c-1.22-1.02-2.38-1.98-3.52-2.69c-1.14-0.69-2.15-1.09-3.09-1.09c-0.86,0-1.83,0.38-2.96,1.09c-1.12,0.71-2.26,1.67-3.48,2.69
				c-1.19,0.99-2.46,2.04-3.76,2.83c-1.29,0.81-2.71,1.42-4.21,1.42c-1.52,0-2.92-0.61-4.19-1.42c-1.29-0.79-2.53-1.86-3.72-2.85
				c-1.09-0.92-2.13-1.75-3.16-2.44c-0.52,1.62-0.86,3.31-1.26,4.98c0.74,0.26,1.44,0.61,2.11,1.02
				C544.99,73.43,546.24,74.48,547.41,75.47"/>
			<path class="st3" d="M587.09,23.97c-0.04,0.02-0.07,0.05-0.11,0.08c-1.24,0.78-2.6,1.34-4.05,1.39c-2.13,0.76-4.31,1.4-6.35,2.38
				c1.12,0.92,2.2,1.82,3.22,2.47c1.12,0.71,2.1,1.09,2.95,1.09c0.94,0,1.95-0.38,3.1-1.09c1.14-0.71,2.31-1.67,3.54-2.68
				c1.22-1.01,2.49-2.06,3.78-2.85c1.28-0.79,2.72-1.42,4.23-1.42c1.47,0,2.86,0.63,4.11,1.42c1.25,0.81,2.51,1.86,3.69,2.85
				c1.22,1.01,2.38,1.97,3.51,2.68c1.16,0.71,2.17,1.09,3.09,1.09c0.35,0,0.75-0.3,1.11-0.4c0.63-2.13,1.28-4.23,1.95-6.36
				c-0.97,0.47-1.97,0.85-3.06,0.85c-1.5,0-2.92-0.61-4.21-1.42c-1.24-0.76-2.45-1.76-3.59-2.71c-0.66,0.01-1.32,0.01-1.99,0.04
				C596.87,21.62,591.92,22.61,587.09,23.97"/>
			<path class="st3" d="M576.32,35.68c1.22,1.02,2.37,1.97,3.48,2.67c1.12,0.71,2.1,1.09,2.95,1.09c0.94,0,1.94-0.38,3.1-1.09
				c1.14-0.71,2.31-1.67,3.54-2.67c1.22-1.01,2.49-2.05,3.78-2.86c1.28-0.78,2.72-1.41,4.23-1.41c1.47,0,2.86,0.63,4.11,1.41
				c1.25,0.81,2.51,1.87,3.69,2.86c1.22,1,2.38,1.97,3.52,2.67c0.71,0.44,1.29,0.49,1.9,0.67c0.48-1.77,1-3.62,1.56-5.56
				c-0.13,0.01-0.25,0.07-0.37,0.07c-1.5,0-2.92-0.61-4.21-1.42c-1.3-0.79-2.56-1.84-3.76-2.83c-1.22-1.02-2.37-1.98-3.48-2.69
				c-1.12-0.71-2.1-1.09-2.96-1.09c-0.93,0-1.95,0.4-3.09,1.1c-1.16,0.7-2.31,1.66-3.55,2.68c-1.21,0.99-2.48,2.04-3.78,2.83
				c-1.29,0.81-2.7,1.42-4.23,1.42c-1.45,0-2.84-0.63-4.09-1.42c-1.27-0.79-2.52-1.84-3.72-2.83c-0.12-0.1-0.22-0.17-0.35-0.27
				c-1.56,0.83-3.06,1.76-4.56,2.71c0.88,0.25,1.74,0.61,2.53,1.1C573.86,33.63,575.13,34.68,576.32,35.68"/>
			<path class="st3" d="M547.41,67.41c1.21,1.01,2.35,1.97,3.47,2.67c1.12,0.71,2.13,1.09,3.06,1.09s1.94-0.38,3.09-1.09
				c1.14-0.71,2.3-1.67,3.51-2.67c1.2-0.99,2.45-2.04,3.71-2.86c1.25-0.78,2.64-1.41,4.11-1.41c1.5,0,2.93,0.63,4.23,1.41
				c1.29,0.8,2.56,1.85,3.75,2.86c1.21,1.01,2.38,1.97,3.48,2.67c1.12,0.71,2.1,1.09,2.95,1.09c0.94,0,1.95-0.38,3.1-1.09
				c1.14-0.71,2.31-1.67,3.54-2.69c1.2-0.99,2.49-2.05,3.78-2.84c0.72-0.44,1.5-0.79,2.3-1.05c1.36-2.09,2.87-4.15,4.5-6.16
				c-0.94-0.55-1.81-0.95-2.57-0.95c-0.93,0-1.95,0.38-3.09,1.08c-1.16,0.71-2.31,1.67-3.55,2.68c-1.21,0.99-2.48,2.04-3.78,2.85
				c-1.29,0.79-2.7,1.41-4.22,1.41c-1.46,0-2.85-0.62-4.1-1.43c-1.25-0.79-2.51-1.85-3.71-2.84c-1.21-1.01-2.36-1.97-3.5-2.68
				c-1.15-0.71-2.16-1.08-3.1-1.08c-0.85,0-1.83,0.36-2.96,1.08c-1.1,0.71-2.26,1.66-3.48,2.68c-1.18,0.99-2.46,2.04-3.75,2.85
				c-1.28,0.79-2.71,1.41-4.22,1.41c-1.5,0-2.92-0.62-4.19-1.41c-1.27-0.81-2.53-1.86-3.7-2.85c-0.15-0.13-0.28-0.21-0.42-0.33
				c-0.7,1.54-1.61,2.99-2.18,4.58c0.09,0.05,0.19,0.09,0.28,0.14C544.99,65.37,546.24,66.43,547.41,67.41"/>
			<path class="st3" d="M611.8,23.33c0.94,0,1.93-0.38,3.06-1.09c0.01-0.01,0.02-0.02,0.03-0.02c-2.32-0.35-4.68-0.54-7.05-0.64
				c0.29,0.21,0.59,0.49,0.88,0.66C609.86,22.95,610.88,23.33,611.8,23.33"/>
			<path class="st3" d="M550.88,61.19c1.12,0.71,2.13,1.11,3.06,1.11s1.94-0.4,3.08-1.11c1.14-0.71,2.3-1.65,3.52-2.67
				c1.19-0.99,2.44-2.05,3.71-2.84c1.25-0.8,2.64-1.42,4.09-1.42c1.52,0,2.94,0.61,4.23,1.4c1.29,0.8,2.56,1.86,3.76,2.85
				c1.22,1.02,2.36,1.98,3.48,2.69c1.12,0.71,2.08,1.09,2.96,1.09c0.93,0,1.95-0.4,3.09-1.11c1.16-0.71,2.31-1.67,3.55-2.67
				c1.21-0.99,2.48-2.05,3.77-2.85c1.31-0.79,2.72-1.4,4.23-1.4c1.42,0,2.76,0.6,3.99,1.35c0.69-0.81,1.4-1.61,2.14-2.41
				c-1.1-0.92-2.15-1.8-3.17-2.45c-1.12-0.71-2.08-1.09-2.96-1.09c-0.93,0-1.95,0.4-3.09,1.1c-1.16,0.71-2.32,1.67-3.55,2.68
				c-1.21,0.99-2.48,2.04-3.78,2.85c-1.29,0.79-2.7,1.4-4.21,1.4c-1.47,0-2.86-0.63-4.11-1.42c-1.25-0.79-2.52-1.85-3.71-2.84
				c-1.21-1.02-2.36-1.97-3.52-2.68c-1.14-0.71-2.14-1.1-3.09-1.1c-0.86,0-1.83,0.38-2.96,1.09c-1.12,0.71-2.26,1.67-3.48,2.69
				c-1.19,0.99-2.46,2.04-3.75,2.85c-1.29,0.79-2.73,1.4-4.23,1.4c-1.52,0-2.93-0.61-4.19-1.42c-0.61-0.38-1.18-0.89-1.77-1.36
				c-0.53,0.95-0.93,1.97-1.41,2.94c0.28,0.23,0.58,0.43,0.85,0.66C548.62,59.54,549.75,60.49,550.88,61.19"/>
			<path class="st3" d="M557.02,46.4c1.14-0.71,2.3-1.67,3.51-2.67c1.19-0.99,2.45-2.05,3.72-2.84c1.25-0.81,2.62-1.43,4.09-1.43
				c1.52,0,2.94,0.62,4.23,1.42c1.29,0.8,2.56,1.86,3.76,2.85c1.22,1.02,2.36,1.96,3.47,2.67c1.12,0.73,2.1,1.09,2.97,1.09
				c0.93,0,1.93-0.38,3.09-1.09c1.14-0.71,2.31-1.67,3.55-2.67c1.21-0.99,2.47-2.05,3.77-2.85c1.31-0.8,2.72-1.42,4.22-1.42
				c1.47,0,2.86,0.62,4.12,1.43c1.25,0.79,2.51,1.85,3.69,2.84c1.21,0.99,2.34,1.92,3.47,2.63c0.37-1.46,0.83-3.15,1.35-5.11
				c-0.84-0.26-1.66-0.61-2.42-1.09c-1.3-0.79-2.56-1.85-3.76-2.84c-1.23-1.02-2.37-1.99-3.48-2.69c-1.12-0.71-2.1-1.09-2.96-1.09
				c-0.92,0-1.94,0.4-3.08,1.11c-1.16,0.71-2.31,1.65-3.55,2.67c-1.21,0.99-2.48,2.05-3.78,2.85c-1.29,0.79-2.7,1.4-4.23,1.4
				c-1.45,0-2.84-0.63-4.1-1.42c-1.27-0.79-2.52-1.85-3.71-2.84c-1.22-1.02-2.36-1.99-3.52-2.67c-1.14-0.71-2.16-1.11-3.09-1.11
				c-0.8,0-1.73,0.4-2.76,1.02c-3.19,2.41-6.21,5.06-8.96,8.07c-1.31,1.43-2.27,3.07-3.44,4.6c0.23,0.04,0.52,0.26,0.74,0.26
				C554.86,47.5,555.88,47.11,557.02,46.4"/>
			<path class="st3" d="M553.93,55.55c0.93,0,1.94-0.38,3.09-1.09c1.14-0.71,2.29-1.65,3.51-2.67c1.19-0.99,2.45-2.05,3.72-2.84
				c1.25-0.79,2.62-1.43,4.09-1.43c1.52,0,2.94,0.63,4.22,1.42c1.29,0.81,2.56,1.87,3.77,2.85c1.22,1.02,2.36,1.99,3.47,2.69
				c1.12,0.71,2.1,1.07,2.97,1.07c0.93,0,1.93-0.38,3.09-1.09c1.14-0.71,2.31-1.67,3.55-2.67c1.21-0.99,2.48-2.05,3.77-2.85
				c1.31-0.79,2.72-1.42,4.23-1.42c1.47,0,2.86,0.64,4.11,1.43c1.2,0.76,2.39,1.76,3.53,2.72c1.02-1.05,1.97-2.11,3.07-3.14
				c0-0.01,0.01-0.02,0.01-0.03c-0.17-0.09-0.35-0.16-0.52-0.26c-1.29-0.81-2.56-1.86-3.76-2.85c-1.22-1.03-2.37-1.98-3.48-2.69
				c-1.12-0.71-2.07-1.09-2.96-1.09c-0.93,0-1.95,0.4-3.09,1.11c-1.16,0.71-2.31,1.67-3.55,2.68c-1.21,0.99-2.48,2.04-3.78,2.85
				c-1.29,0.79-2.7,1.41-4.21,1.41c-1.47,0-2.86-0.62-4.11-1.42c-1.25-0.79-2.52-1.85-3.71-2.83c-1.21-1.03-2.36-1.97-3.52-2.68
				c-1.14-0.71-2.14-1.11-3.09-1.11c-0.86,0-1.83,0.38-2.96,1.09c-1.12,0.71-2.26,1.67-3.48,2.69c-1.19,0.99-2.46,2.04-3.75,2.85
				c-1.29,0.79-2.73,1.41-4.23,1.41c-0.77,0-1.52-0.16-2.22-0.43c-0.9,1.26-2,2.42-2.79,3.73c0.65,0.53,1.33,1.12,1.96,1.52
				C552,55.17,553.01,55.55,553.93,55.55"/>
			<path class="st3" d="M557.02,124.13c1.14-0.71,2.3-1.67,3.51-2.67c1.19-0.99,2.45-2.05,3.7-2.85c1.25-0.8,2.64-1.42,4.11-1.42
				c1.52,0,2.94,0.62,4.23,1.42c1.29,0.8,2.56,1.85,3.75,2.85c1.22,1.01,2.38,1.96,3.48,2.67c1.12,0.71,2.1,1.09,2.95,1.09
				c0.94,0,1.95-0.38,3.1-1.09c1.14-0.71,2.31-1.67,3.54-2.67c0.06-0.06,0.13-0.1,0.2-0.16c-1.4-0.72-2.7-1.68-3.92-2.76
				c-0.93,0.43-1.9,0.77-2.93,0.77c-1.45,0-2.84-0.63-4.1-1.42c-1.27-0.79-2.52-1.85-3.71-2.84c-1.22-1.02-2.38-1.98-3.52-2.69
				c-1.14-0.7-2.16-1.09-3.09-1.09c-0.86,0-1.83,0.38-2.96,1.09c-1.12,0.71-2.26,1.67-3.48,2.69c-1.19,0.99-2.46,2.05-3.77,2.84
				c-1.28,0.81-2.71,1.42-4.2,1.42c-1.52,0-2.92-0.61-4.19-1.42c-1.29-0.79-2.53-1.86-3.72-2.85c-0.05-0.04-0.1-0.07-0.15-0.11
				c1.57,3.3,3.49,6.42,5.6,9.43c0.87,0.46,1.71,0.88,2.45,0.88C554.86,125.22,555.88,124.84,557.02,124.13"/>
			<path class="st3" d="M626.23,143.49c-0.93,0-1.93,0.4-3.05,1.11c-1.12,0.69-2.26,1.65-3.47,2.67c-1.17,0.99-2.43,2.05-3.7,2.84
				c-1.27,0.81-2.69,1.42-4.19,1.42c-1.52,0-2.94-0.61-4.23-1.4c-1.29-0.81-2.56-1.87-3.76-2.86c-1.22-1.02-2.37-1.98-3.48-2.68
				c-1.12-0.71-2.08-1.09-2.96-1.09c-0.92,0-1.94,0.4-3.08,1.11c-1.16,0.71-2.31,1.66-3.55,2.67c-1,0.82-2.06,1.63-3.13,2.36
				c1.35,0.37,2.69,0.71,4.04,1c0.5-0.38,0.98-0.81,1.49-1.13c1.31-0.79,2.72-1.4,4.22-1.4c1.47,0,2.86,0.63,4.12,1.41
				c1.11,0.71,2.21,1.63,3.28,2.51c5.53,0.02,11.04-0.5,16.42-1.87c0.28-0.2,0.55-0.46,0.83-0.64c1.27-0.8,2.68-1.41,4.19-1.41
				c0.21,0,0.4,0.08,0.6,0.11c1.66-0.59,3.36-1,4.96-1.72c-0.83-0.68-1.67-1.38-2.47-1.88
				C628.18,143.89,627.16,143.49,626.23,143.49"/>
			<path class="st3" d="M632.84,139.22c-1.22-1.02-2.38-1.97-3.51-2.67c-1.14-0.71-2.17-1.11-3.09-1.11s-1.93,0.4-3.05,1.11
				c-1.12,0.69-2.26,1.65-3.47,2.67c-1.17,0.99-2.43,2.04-3.7,2.84c-1.27,0.8-2.69,1.41-4.19,1.41c-1.52,0-2.94-0.61-4.23-1.4
				c-1.29-0.81-2.56-1.87-3.76-2.85c-1.22-1.02-2.37-1.98-3.48-2.69c-1.12-0.71-2.08-1.09-2.96-1.09c-0.93,0-1.95,0.4-3.09,1.11
				c-1.16,0.71-2.32,1.67-3.55,2.67c-1.21,0.99-2.48,2.04-3.78,2.85c-1.29,0.79-2.7,1.4-4.22,1.4c-1.46,0-2.85-0.63-4.1-1.41
				c-1.25-0.8-2.52-1.85-3.71-2.84c-1.21-1.02-2.36-1.97-3.52-2.67c-1.14-0.71-2.14-1.11-3.09-1.11c-0.86,0-1.84,0.38-2.96,1.09
				c-0.42,0.27-0.88,0.69-1.32,1.02c1.76,1.42,3.54,2.8,5.4,4.01c1.09,0.21,2.14,0.62,3.1,1.21c0.94,0.59,1.85,1.36,2.76,2.09
				c2.95,1.5,5.92,2.94,9.03,3.96c0.5-0.19,0.94-0.19,1.49-0.53c1.14-0.71,2.31-1.67,3.55-2.68c1.21-0.99,2.48-2.04,3.77-2.85
				c1.31-0.8,2.72-1.42,4.23-1.42c1.47,0,2.85,0.64,4.1,1.43c1.25,0.8,2.52,1.85,3.7,2.84c1.22,1.02,2.38,1.97,3.52,2.68
				c1.15,0.71,2.16,1.09,3.1,1.09c0.92,0,1.91-0.38,3.06-1.09c1.12-0.7,2.24-1.65,3.45-2.68c1.19-0.99,2.44-2.04,3.71-2.84
				c1.27-0.81,2.68-1.43,4.19-1.43c1.5,0,2.94,0.62,4.23,1.42c1.18,0.74,2.34,1.7,3.45,2.63c1.47-0.72,2.85-1.66,4.27-2.5
				c-0.56-0.24-1.12-0.51-1.64-0.83C635.28,141.26,634.02,140.21,632.84,139.22"/>
			<path class="st3" d="M612,125.15c-0.15,0-0.29-0.01-0.43-0.01c0.07,0.01,0.16,0.08,0.23,0.08
				C611.87,125.22,611.94,125.15,612,125.15"/>
			<path class="st3" d="M550.88,116.07c1.12,0.71,2.13,1.09,3.06,1.09s1.94-0.38,3.08-1.09c1.15-0.71,2.3-1.67,3.52-2.67
				c1.19-0.99,2.45-2.05,3.7-2.85c1.25-0.79,2.64-1.42,4.11-1.42c1.5,0,2.94,0.63,4.23,1.42c1.29,0.79,2.56,1.85,3.75,2.85
				c1.22,1.01,2.38,1.96,3.48,2.67c1.12,0.71,2.1,1.09,2.95,1.09c0.32,0,0.72-0.29,1.07-0.37c-0.87-0.98-1.65-2.04-2.32-3.19
				c-0.32-0.55-0.53-1.14-0.8-1.72c-0.71-0.26-1.39-0.62-2.04-1.04c-1.25-0.79-2.51-1.84-3.71-2.83c-1.21-1.01-2.36-1.97-3.5-2.68
				c-1.15-0.71-2.16-1.09-3.1-1.09c-0.85,0-1.83,0.36-2.96,1.09c-1.1,0.71-2.26,1.65-3.48,2.68c-1.18,0.99-2.46,2.04-3.75,2.85
				c-1.28,0.79-2.71,1.42-4.22,1.42c-1.5,0-2.93-0.63-4.19-1.42c-1.27-0.81-2.53-1.86-3.7-2.85c-1.22-1.03-2.34-1.97-3.47-2.68
				c-0.07-0.04-0.11-0.02-0.18-0.06c0.59,1.99,1.29,3.93,2.06,5.84c1.01,0.71,2.02,1.49,2.95,2.28
				C548.62,114.41,549.75,115.36,550.88,116.07"/>
			<path class="st3" d="M652.18,128.49c-1.14,0.71-2.31,1.65-3.53,2.67c-1.21,0.99-2.49,2.05-3.78,2.85
				c-1.28,0.8-2.71,1.41-4.22,1.41c-1.47,0-2.86-0.63-4.11-1.42c-1.26-0.79-2.51-1.85-3.7-2.84c-1.22-1.02-2.38-1.98-3.52-2.67
				c-1.14-0.71-2.16-1.1-3.09-1.1s-1.93,0.4-3.05,1.09c-1.12,0.71-2.26,1.66-3.47,2.68c-1.17,0.99-2.43,2.05-3.7,2.84
				c-1.29,0.81-2.69,1.42-4.21,1.42c-1.5,0-2.92-0.61-4.22-1.42c-1.29-0.79-2.55-1.85-3.75-2.84c-1.22-1.02-2.37-1.98-3.48-2.68
				c-1.12-0.71-2.1-1.09-2.96-1.09c-0.93,0-1.95,0.4-3.09,1.1c-1.16,0.71-2.31,1.65-3.55,2.67c-1.21,0.99-2.48,2.05-3.78,2.85
				c-1.29,0.8-2.7,1.41-4.23,1.41c-1.45,0-2.84-0.63-4.09-1.42c-1.27-0.79-2.52-1.85-3.71-2.84c-1.22-1.02-2.36-1.98-3.52-2.67
				c-1.14-0.71-2.16-1.1-3.09-1.1c-0.86,0-1.83,0.38-2.96,1.09c-1.12,0.71-2.26,1.66-3.48,2.68c-0.88,0.73-1.83,1.43-2.78,2.1
				c0.62,0.61,1.08,1.32,1.72,1.9c0.45,0.41,0.98,0.67,1.43,1.07c0.66-0.52,1.29-1.08,1.96-1.5c1.25-0.81,2.62-1.44,4.09-1.44
				c1.52,0,2.94,0.63,4.23,1.42c1.29,0.81,2.56,1.87,3.76,2.86c1.22,1.02,2.36,1.96,3.47,2.67c1.12,0.73,2.1,1.09,2.97,1.09
				c0.93,0,1.93-0.38,3.08-1.09c1.15-0.71,2.32-1.66,3.55-2.67c1.21-0.99,2.47-2.05,3.77-2.86c1.31-0.79,2.72-1.42,4.23-1.42
				c1.47,0,2.86,0.63,4.11,1.44c1.25,0.79,2.51,1.85,3.69,2.84c1.22,1.01,2.38,1.96,3.52,2.67c1.15,0.71,2.16,1.09,3.1,1.09
				c0.93,0,1.91-0.38,3.06-1.09c1.12-0.71,2.24-1.65,3.45-2.67c1.19-0.99,2.44-2.05,3.71-2.86c1.27-0.79,2.68-1.42,4.19-1.42
				c1.5,0,2.94,0.63,4.23,1.42c1.29,0.81,2.56,1.87,3.75,2.86c1.22,1.02,2.37,1.96,3.48,2.67c1.13,0.73,2.1,1.09,2.96,1.09
				c0.15,0,0.35-0.16,0.5-0.18c4.37-2.9,8.54-6.17,12.23-10.21c0.94-1.05,1.62-2.25,2.49-3.33c-0.18-0.03-0.42-0.22-0.59-0.22
				C654.35,127.38,653.34,127.78,652.18,128.49"/>
			<path class="st3" d="M597.4,150.23c-0.9,0-1.9,0.39-3,1.06c2.2,0.36,4.4,0.4,6.62,0.54c-0.21-0.15-0.45-0.37-0.66-0.5
				C599.23,150.6,598.27,150.23,597.4,150.23"/>
			<path class="st3" d="M655.28,119.32c-0.94,0-1.94,0.4-3.1,1.11c-1.14,0.69-2.31,1.65-3.53,2.67c-1.21,1-2.49,2.05-3.78,2.84
				c-1.28,0.81-2.71,1.42-4.22,1.42c-1.48,0-2.86-0.63-4.11-1.42c-1.08-0.68-2.14-1.58-3.17-2.44c-5.67,1.01-11.18,1.57-16.34,1.66
				c-0.35,0.25-0.66,0.56-1.01,0.78c-1.29,0.81-2.69,1.42-4.21,1.42c-1.5,0-2.92-0.61-4.21-1.42c-0.53-0.32-1.01-0.76-1.52-1.14
				c-5.02-0.46-9.46-1.19-12.82-2.06c-0.46-0.12-0.89-0.35-1.34-0.51c-0.39,0.32-0.75,0.55-1.16,0.88c-1.21,1-2.48,2.05-3.78,2.84
				c-1.29,0.81-2.7,1.42-4.23,1.42c-1.45,0-2.84-0.63-4.09-1.42c-1.27-0.79-2.52-1.85-3.71-2.84c-1.22-1.02-2.36-1.98-3.52-2.67
				c-1.14-0.71-2.16-1.11-3.09-1.11c-0.86,0-1.83,0.38-2.96,1.09c-1.12,0.71-2.26,1.67-3.48,2.68c-1.19,1-2.46,2.05-3.75,2.84
				c-1.29,0.81-2.73,1.42-4.23,1.42c-0.05,0-0.08-0.02-0.12-0.02c1.2,1.51,2.55,2.91,3.89,4.32c0.93-0.64,1.84-1.34,2.83-2.15
				c1.2-0.99,2.44-2.05,3.69-2.84c1.25-0.81,2.65-1.43,4.12-1.43c1.52,0,2.94,0.62,4.23,1.42c1.29,0.8,2.56,1.86,3.75,2.85
				c1.22,1.03,2.38,1.96,3.48,2.68c1.12,0.71,2.1,1.09,2.95,1.09c0.94,0,1.95-0.38,3.1-1.09c1.14-0.71,2.31-1.67,3.54-2.68
				c1.22-1.01,2.49-2.05,3.78-2.85c1.28-0.8,2.72-1.42,4.23-1.42c1.47,0,2.86,0.62,4.11,1.42c1.25,0.8,2.51,1.86,3.69,2.85
				c1.22,1.01,2.38,1.96,3.51,2.68c1.16,0.71,2.17,1.09,3.09,1.09c0.94,0,1.93-0.38,3.06-1.09c1.14-0.71,2.26-1.65,3.47-2.68
				c1.19-0.99,2.42-2.05,3.71-2.85c1.27-0.8,2.67-1.42,4.19-1.42c1.5,0,2.92,0.62,4.2,1.42c1.31,0.8,2.58,1.86,3.77,2.85
				c1.22,1.03,2.36,1.96,3.48,2.68c1.13,0.71,2.1,1.09,2.96,1.09c0.93,0,1.94-0.38,3.1-1.09c1.14-0.71,2.3-1.67,3.53-2.68
				c1.21-1.01,2.49-2.05,3.78-2.85c1.29-0.8,2.71-1.42,4.23-1.42c0.71,0,1.39,0.16,2.06,0.4c0.93-1.25,1.97-2.44,2.8-3.75
				c-0.63-0.5-1.29-1.08-1.9-1.47C657.12,119.7,656.14,119.32,655.28,119.32"/>
			<path class="st0" d="M561.31,158.7c-0.35-0.21-0.69-0.41-1.03-0.63C560.62,158.28,560.96,158.49,561.31,158.7"/>
			<path class="st4" d="M614.18,88.23c-0.01-0.01-0.02-0.01-0.03-0.01l-0.26-0.02c-1.13-0.14-2.31-0.03-3.57,0.54
				c-1.89,0.86-3.3,2.51-3.92,4.71c-0.05,0.11-0.12,0.26-0.15,0.44c-0.15,0.82-0.06,1.59,0.03,2.23c0.42,2.97,2.62,5.31,5.47,5.82
				c0.4,0.07,0.79,0.11,1.18,0.11c1.41,0,2.76-0.44,3.92-1.27c1.5-1.07,2.5-2.66,2.82-4.51c0.17-0.95,0.12-1.95-0.18-3.04
				c-0.23-0.88-0.57-1.6-1-2.21C617.46,89.53,615.93,88.54,614.18,88.23"/>
			<path class="st4" d="M668.7,94.86c-0.52,0.52-1.16,1.1-1.97,1.79c-1.16,1-2.46,2.05-3.84,3.08c-0.27,0.21-0.6,0.43-0.94,0.66
				c-0.3,0.21-0.62,0.43-0.88,0.64c-0.86,0.62-1.73,1.23-2.72,1.91c-0.71,0.47-1.45,0.95-2.22,1.44c-1.65,1.07-3.47,2.21-5.54,3.43
				c-2.55,1.21-5.26,2.3-8.29,3.31c-0.23,0.1-0.47,0.15-0.71,0.2l-0.3,0.07c-2.61,0.84-4.94,1.48-7.08,1.95
				c-0.59,0.13-1.16,0.23-1.74,0.31c-0.36,0.06-0.73,0.11-1.1,0.18c-4.67,0.86-9.22,1.36-13.52,1.5c-0.66,0.02-1.31,0.04-1.94,0.04
				c-2.77,0-5.39-0.05-8.14-0.25c-1.39-0.11-2.73-0.22-3.99-0.37c-3.39-0.41-6.39-0.94-8.68-1.53c-0.35-0.09-0.73-0.32-1.12-0.57
				c-0.21-0.13-0.42-0.25-0.72-0.41c-0.63-0.35-1.19-0.65-1.7-1.1c-0.74-0.67-1.59-1.49-2.2-2.51c-0.26-0.43-0.38-0.9-0.52-1.41
				l-0.15-0.52c-0.37-1.15-0.48-2.33-0.33-3.5c0.03-0.21,0.03-0.43,0.03-0.64c0-0.22,0-0.41,0.07-0.7c0.12-0.45,0.29-1.01,0.5-1.71
				c0.53-1.76,1.43-4.19,2.75-7.41l0.53-1.27c0.33-0.81,0.69-1.67,1.08-2.59c0.83-1.94,1.83-4.26,2.97-6.84l2.27-5.1
				c0.2-0.44,0.46-0.84,0.73-1.25c0.25-0.36,0.49-0.72,0.7-1.13c0.18-0.37,0.39-0.7,0.6-1.05c0.16-0.27,0.33-0.53,0.5-0.81
				c0.81-1.47,1.52-2.64,2.2-3.7c0.2-0.29,0.39-0.62,0.56-0.95c0.18-0.3,0.35-0.61,0.53-0.88c0.84-1.2,1.86-2.6,2.93-3.93
				c0.26-0.3,0.52-0.59,0.79-0.88c0.23-0.23,0.46-0.49,0.68-0.73c1.08-1.25,2.14-2.44,3.26-3.58c2.69-2.7,5.25-5.01,7.81-7.09
				c3.59-2.92,6.77-5.33,9.74-7.4l0.66-0.49c0.4-0.28,0.78-0.56,1.16-0.83c0.37-0.26,0.78-0.54,1.17-0.83
				c0.3-0.21,0.6-0.43,0.89-0.64l2.99-2.07c0.05-0.03,0.1-0.07,0.16-0.09c0.12-0.07,0.25-0.13,0.32-0.2
				c1.7-1.15,3.87-2.39,6.42-3.65c0.19-0.1,0.33-0.29,0.35-0.52c0.01-0.23-0.09-0.45-0.28-0.57c-0.2-0.14-0.39-0.3-0.59-0.44
				c-0.25-0.2-0.5-0.39-0.74-0.56c-0.42-0.29-0.83-0.6-1.24-0.91c-0.71-0.53-1.43-1.08-2.19-1.53c-0.09-0.07-0.19-0.1-0.36-0.19
				c-0.23-0.14-0.48-0.26-0.73-0.37c-0.19-0.08-0.39-0.17-0.57-0.29c-4.28-2.42-8.91-4.35-14.15-5.86c-0.56-0.16-1.12-0.34-1.67-0.5
				c-1.21-0.38-2.47-0.78-3.76-1.04c-0.42-0.08-0.85-0.18-1.29-0.25c-0.31-0.11-0.62,0.13-0.73,0.42c-0.09,0.3-0.18,0.61-0.28,0.92
				l-0.23,0.71c-0.7,2.2-1.38,4.38-2.04,6.59l-0.79,2.68v0.01c-0.61,2.12-1.19,4.16-1.71,6.09c-0.19,0.64-0.35,1.23-0.51,1.84
				l-0.44,1.68c-0.38,1.44-0.73,2.72-1.02,3.87c-0.19,0.76-0.41,1.6-0.54,2.13c-0.81,0.76-1.53,1.53-2.27,2.29l-1.16,1.2
				c-0.39,0.4-0.79,0.78-1.14,1.18c-0.76,0.8-1.46,1.61-2.15,2.4c-0.38,0.46-0.74,0.91-1.11,1.36l-0.26,0.33
				c-1.41,1.72-2.78,3.57-4.05,5.44l-0.27,0.4c-0.57,0.84-1.15,1.68-1.68,2.56c-1.57,2.63-2.83,4.99-3.84,7.22l-0.24,0.56
				c-0.11,0.24-0.21,0.46-0.33,0.73c-0.63,1.41-1.24,2.77-1.78,4.02c-1.32,3.03-2.4,5.55-3.32,7.73c-0.42,0.99-0.84,1.97-1.16,2.81
				c-0.91,2.18-1.65,4.1-2.29,5.92c-0.29,0.8-0.52,1.52-0.74,2.16c-0.31,1-0.54,1.83-0.74,2.58c-0.19,0.65-0.17,1.28-0.17,1.88
				c0,0.34,0.01,0.65-0.03,0.98l-0.04,0.42c-0.06,0.67-0.14,1.35-0.12,2.06c0.05,1.47,0.35,2.94,0.96,4.8
				c0.08,0.26,0.16,0.52,0.23,0.78c0.2,0.63,0.39,1.29,0.7,1.92c0.05,0.08,0.07,0.19,0.11,0.33c0.05,0.21,0.11,0.45,0.26,0.69
				c0.68,1.16,1.55,2.31,2.57,3.42c0.59,0.62,1.21,1.18,1.82,1.7c1.3,1.1,2.65,2,3.99,2.65c0.83,0.41,1.68,0.7,2.48,0.94
				c0.09,0.02,0.16,0.06,0.25,0.09c0.13,0.07,0.28,0.11,0.43,0.16c3.02,0.78,6.88,1.43,11.17,1.89c1.28,0.14,2.61,0.23,3.97,0.32
				c1.87,0.13,3.88,0.26,5.98,0.27h0.22c0.7,0,1.4-0.03,2.11-0.05c0.52-0.02,1.05-0.05,1.57-0.06c5.33-0.16,9.85-0.58,14.2-1.33
				c0.54-0.1,1.09-0.23,1.63-0.36c0.39-0.09,0.76-0.18,1.13-0.26c8.95-1.8,17.18-4.8,24.53-8.94c0.18-0.11,0.37-0.18,0.54-0.27
				c0.2-0.09,0.38-0.17,0.57-0.29c0.4,0,0.8-0.02,1.2-0.02c0.9,0,1.84-0.05,2.75-0.06c0.25,0,0.47-0.15,0.57-0.37
				c0.1-0.22,0.21-0.44,0.32-0.66c0.18-0.34,0.35-0.67,0.47-1c0.11-0.28,0.26-0.54,0.39-0.81c0.2-0.38,0.4-0.76,0.53-1.16
				c0.28-0.76,0.45-1.53,0.62-2.28c0.12-0.54,0.23-1.09,0.39-1.64c0.12-0.42,0.22-0.85,0.33-1.29c0.08-0.33,0.16-0.66,0.25-1.02
				c0.14-0.6,0.32-1.2,0.48-1.79c0.35-1.19,0.69-2.41,0.9-3.67c0.08-0.5,0.13-0.98,0.18-1.46l0.08-0.83c0-0.26-0.17-0.45-0.4-0.56
				C669.15,94.58,668.89,94.69,668.7,94.86"/>
			<path class="st4" d="M688.05,96.37c-0.18-0.06-0.4-0.05-0.56,0.05c-0.18,0.1-0.29,0.28-0.31,0.47
				c-0.62,5.13-1.65,9.99-3.03,14.47c-0.06,0.21-0.01,0.43,0.12,0.59c0.12,0.15,0.3,0.22,0.49,0.22h0.1
				c7.75-1.17,12.58-2.8,14.36-4.81c0.71-0.82,0.97-1.76,0.74-2.72C699.17,101.38,693.05,98.36,688.05,96.37"/>
			<path class="st4" d="M729.2,39.56c-5.29-2.57-16.57-8.99-19.8-12.79c-2.33-3.28-5.43-9.74-7.02-21.84
				c-0.26-1.92-1.79-3.43-3.7-3.68c-1.81-0.21-3.65,0.82-4.34,2.56c-2.59,6.4-4.26,15.04-4.71,18.98c-0.23,2.29-0.37,3.55-6.64,3.79
				c-0.23,0-0.52,0.05-0.82,0.09c-0.07,0.01-0.12,0.02-0.19,0.03c-2.72-3.52-5.06-5.77-8.75-6.82c-0.2-0.07-0.38-0.02-0.54,0.09
				c-2.22,1.6-5.08,6.96-6.58,9.99c-0.11,0.23-0.08,0.52,0.1,0.71c1.65,1.81,3.25,3.75,4.77,5.77c0.16,0.21,0.42,0.31,0.69,0.22
				c5.15-1.41,9.28-2.22,11.62-2.32c8.95-0.35,13.29-3.65,14.1-10.73c0.08-0.87,0.25-1.95,0.46-3.14c1.42,4.31,3.2,7.96,5.3,10.93
				l0.16,0.2c2.31,2.78,6.73,5.89,10.66,8.33c-1.24-0.09-2.47-0.2-3.65-0.35c-11.11-1.42-16.59,1.15-19.55,9.27l-0.35,0.98
				c-1.67,4.65-3.55,9.11-5.72,13.61c-0.08,0.14-0.09,0.3-0.03,0.45c1.08,3.84,1.89,7.8,2.41,11.82c0.03,0.29,0.27,0.51,0.56,0.55
				c0.98,0.11,2.07,0.17,3.19,0.17c4.26,0,9.11-0.87,11.69-2.67c0.22-0.15,0.32-0.42,0.26-0.67c-0.85-3.51-1.87-9.17-2.75-14.17
				c-0.59-3.24-1.14-6.31-1.58-8.41c0.89-2.28,1.94-4.35,10.87-3.21c3.96,0.51,10.36,0.98,18.52,0.2c1.77-0.16,3.23-1.42,3.65-3.21
				c0.03-0.06,0.05-0.11,0.05-0.18C731.87,42.26,730.9,40.39,729.2,39.56"/>
			<path class="st0" d="M575.32,165.41c-0.3-0.11-0.6-0.21-0.89-0.32C574.72,165.2,575.02,165.3,575.32,165.41"/>
			<path class="st0" d="M589.77,169.34c-0.05-0.01-0.11-0.01-0.15-0.02C589.66,169.33,589.71,169.33,589.77,169.34"/>
			<path class="st0" d="M560.28,158.07c-4.2-2.6-8.23-5.6-12.02-9.02C551.98,152.4,555.99,155.42,560.28,158.07"/>
			<path class="st0" d="M574.43,165.09c-4.51-1.72-8.9-3.86-13.13-6.39C565.47,161.19,569.84,163.34,574.43,165.09"/>
			<path class="st0" d="M589.61,169.31c-4.85-0.86-9.63-2.18-14.29-3.9C579.91,167.11,584.68,168.44,589.61,169.31"/>
			<path class="st0" d="M671.21,36.13c6.48,8.54,11.1,18.07,13.87,28.05c0.07-0.14,0.12-0.32,0.19-0.46
				c-2.87-10.14-7.59-19.47-13.78-27.67C671.4,36.09,671.32,36.1,671.21,36.13"/>
			<path class="st0" d="M676.61,129.49l0.04,0.03c3.35-5.62,6.13-11.61,8.1-17.97c-0.11,0.02-0.21,0.04-0.32,0.06
				C682.54,117.77,679.98,123.79,676.61,129.49"/>
			<path class="st0" d="M739.34,173.65l-61.88-44.34c3.03-5.21,5.54-10.98,7.48-17.17l0.31-0.06l0.11-0.36
				c1.41-4.53,2.45-9.48,3.08-14.69l-0.07-0.58l-0.09-0.02c0.77-6.73,0.76-13.48-0.05-20.05l0.22,0.04l-0.11-0.88
				c-0.53-4.06-1.36-8.09-2.47-11.99l-0.47-1.67l-0.2,0.44c-2.82-9.41-7.18-18.09-12.96-25.88l0.26-0.1l-0.5-0.68
				c-1.54-2.04-3.17-4.01-4.85-5.84l-0.68-0.76l-0.1,0.25c-1.71-1.84-3.34-3.47-4.99-4.99C626.94-7.08,573.38-4.6,541.98,29.79
				c-15.45,16.93-23.23,38.87-21.9,61.88c0.22,3.97,0.79,8.18,1.7,12.5c0.06,0.32,0.12,0.63,0.19,0.95
				c0.8,3.57,1.91,7.32,3.32,11.13c0.1,0.25,0.19,0.5,0.27,0.74c0.1,0.29,0.19,0.58,0.3,0.85c1.61,4.11,3.49,8.01,5.57,11.58
				l0.11,0.18c1.29,2.21,2.73,4.41,4.28,6.54c0.2,0.3,0.42,0.58,0.63,0.84c1.4,1.91,2.91,3.78,4.49,5.59l1.05,1.16
				c1.62,1.76,3.2,3.36,4.82,4.86l1.02,0.93c3.77,3.39,7.85,6.45,12.1,9.09c0.36,0.21,0.7,0.43,1.05,0.62
				c4.23,2.55,8.68,4.71,13.22,6.45l0.89,0.32c4.8,1.76,9.64,3.09,14.56,3.94c2.9,0.52,6,0.88,9.64,1.13l0.4,0.04
				c1.54,0.11,3.12,0.22,4.74,0.22c14.2,0,28.36-3.7,40.93-10.7l0.71-0.41c2.58-1.47,5.06-3.06,7.39-4.72l0.29-0.21
				c0.17-0.11,0.34-0.23,0.5-0.35c2.81-2.06,5.07-3.89,7.1-5.72l55.15,52.12c2.05,1.94,4.65,3,7.38,3c0.22,0,0.45-0.02,0.67-0.03
				c2.97-0.18,5.67-1.58,7.59-3.93l9.22-11.16c1.93-2.37,2.8-5.3,2.4-8.24C743.4,178.03,741.81,175.43,739.34,173.65 M669.11,86.62
				c0,35.67-29,64.69-64.67,64.69c-35.66,0-64.68-29.02-64.68-64.69c0-35.66,29.02-64.68,64.68-64.68
				C640.11,21.94,669.11,50.96,669.11,86.62"/>
		</g>
		<g>
			<path class="st0" d="M790.89,234.13c0,5.73-4.61,10.28-10.47,10.28c-5.85,0-10.53-4.55-10.53-10.28s4.67-10.22,10.59-10.22
				C786.27,223.92,790.89,228.4,790.89,234.13z M772.5,234.13c0,4.55,3.43,8.16,7.98,8.16c4.42,0.06,7.79-3.61,7.79-8.1
				c0-4.55-3.37-8.22-7.91-8.22C775.93,225.97,772.5,229.65,772.5,234.13z M778.8,239.43h-2.37v-10.22
				c0.93-0.13,2.24-0.31,3.93-0.31c1.93,0,2.8,0.31,3.49,0.81c0.62,0.44,1.06,1.18,1.06,2.18c0,1.25-0.93,2.05-2.12,2.43v0.12
				c0.99,0.31,1.5,1.12,1.81,2.5c0.31,1.56,0.56,2.12,0.75,2.49h-2.49c-0.31-0.38-0.5-1.25-0.81-2.49
				c-0.18-1.06-0.81-1.56-2.12-1.56h-1.12V239.43z M778.86,233.7h1.12c1.31,0,2.37-0.44,2.37-1.5c0-0.93-0.68-1.56-2.18-1.56
				c-0.62,0-1.06,0.07-1.31,0.13V233.7z"/>
		</g>
	</g>
	<g>
		<g>
			<rect y="298.5" class="st5" width="11.72" height="38.36"/>
			<polygon class="st5" points="73.1,298.51 61.14,298.51 61.14,326.26 38.46,298.51 20.13,298.51 20.13,336.86 32.08,336.86 
				32.08,308.84 54.51,336.86 73.1,336.86 			"/>
			<path class="st5" d="M92.72,313.65v-6.06h21.14c2.3,0,3.56,1.01,3.56,3.02c0,2.04-1.26,3.04-3.56,3.04H92.72z M92.72,321.48
				h21.41c2.79,0,4.31,1.24,4.31,3.27c0,2.01-1.52,2.77-4.31,2.77H92.72V321.48z M123.54,317.43v-0.25c2.04-0.5,3.32-1.25,4.07-2.28
				c1.28-1.25,1.79-3.53,1.79-6.55c0-3.53-1.29-6.05-3.57-7.83c-2.29-1.5-5.85-2.01-10.7-2.01H80.75v38.35h38.21
				c3.82,0,6.62-0.52,8.4-1.76c2.04-1.77,3.31-4.55,3.31-8.34c0-3.02-0.52-5.28-1.51-6.58C127.88,318.69,126.1,317.68,123.54,317.43
				"/>
			<path class="st5" d="M186.45,298.51h-11.71v22.21c0,2.26-0.76,4.02-1.53,5.03c-1.01,1.26-3.05,1.78-5.35,1.78h-11.71
				c-2.56,0-4.08-0.52-5.35-1.78c-1.03-1.02-1.28-2.77-1.28-5.03v-22.21h-11.97v24.73c0,4.78,1.27,8.34,3.84,10.58
				c2.54,2.53,6.62,3.55,11.96,3.55h17.33c5.34,0,9.42-1.02,11.96-3.55c2.56-2.25,3.82-5.8,3.82-10.58V298.51z"/>
			<path class="st5" d="M206.07,317.17v-9.34h18.85c3.18,0,5.35,0.54,5.35,4.03v1.27c0,2.77-1.53,4.03-4.33,4.03H206.07z
				 M206.07,327.02h18.85c1.79,0,3.06,0.26,3.82,1c0.76,0.76,1.03,2.28,1.03,4.29v4.56h11.96v-6.57c0-2.77-0.5-5.05-1.77-6.3
				c-1.02-1.01-2.55-1.77-4.58-2.28c2.55-0.5,4.33-1.75,5.35-3.28c0.75-1.5,1.25-3.53,1.25-6.29v-2.27c0-3.79-0.75-6.57-2.27-8.33
				c-2.05-2.27-5.1-3.02-9.43-3.02h-36.18v38.35h11.98V327.02z"/>
			<path class="st5" d="M275.1,312.89l-11.98-0.5c-0.76,0-1.53-0.52-1.78-1.02c-0.25-0.25-0.52-1.01-0.52-1.76
				c0-2.02,1.55-3.04,4.59-3.04h13.25c2.55,0,4.32,0.25,5.1,0.75c0.5,0.52,0.76,1.52,0.76,3.28h11.96v-1.23
				c0-4.05-0.77-6.83-2.54-8.34c-2.04-2.28-6.36-3.28-12.48-3.28h-16.82c-6.89,0-11.46,1.27-13.5,3.53
				c-1.53,1.78-2.29,4.8-2.29,8.83c0,2.79,0.27,4.57,0.76,6.06c0.26,1.51,1.27,2.53,2.56,3.53c2.54,1.52,7.88,2.27,16.79,2.27
				l14.27,0.5c1.02,0,1.78,0.52,2.04,1.02l0.52,2.02c0,1.25-0.52,2.26-1.54,2.77l-3.56,0.5h-14.77l-3.81-0.76
				c-0.78-0.49-1.3-1.76-1.3-3.77h-11.96v2.77c0,4.05,1.27,6.8,3.56,8.31c2.06,1.29,6.12,2.04,11.72,2.04h14.52
				c7.9,0,13.24-0.76,15.53-2.27c1.52-0.76,2.55-2.02,3.05-3.53c0.52-1.54,0.78-3.81,0.78-6.33c0-3.02-0.25-5.06-1.02-6.55
				c-0.52-1.76-1.78-3.03-3.31-3.79C290.88,313.39,284.78,312.89,275.1,312.89"/>
			<polygon class="st5" points="337.76,298.51 322.22,298.51 301.09,336.86 314.58,336.86 317.9,330.03 322.49,321.71 330.1,307.33 
				337.76,321.71 322.49,321.71 317.9,330.03 342.34,330.03 345.92,336.86 359.16,336.86 			"/>
			<path class="st6" d="M55.3,165.79c-6.12,5.6-10.18,10.44-12.18,13.96c3.5,1.96,8.14,3.55,14.03,4.5
				c5.88,0.94,15.65,0.11,24.35-1.82c4.46-0.99,6.68-3.49,4.03-3.65C72.18,177.91,58.53,172.21,55.3,165.79"/>
			<path class="st6" d="M75.59,80.58c0.19-0.58,1.31-2.61,3.19-2.66c14.37-0.41,22.65,1.15,30.54,3.56
				c-11.06,10.05-8.36,23.87-7.27,22.09c5.32-8.66,11.32-12.62,16.11-14.36c-0.5-0.03-1.48-0.03-1.93-0.04
				c-4.26,1.09-8.82,3.16-12.66,7.87c-0.46-5.56,6.95-13.73,10.23-13.89c3.56,0.68,24.8,4.53,25.4,17.17
				c2.04-1.37,2.06-5.84,2.28-7.1c15.09,5.37,23.21,10.33,23.44,10.61c1.27,1.5-2.26,6.99-5.82,8.2
				c-3.56,1.21-10.97,3.36-16.26,5.25c-2.4,0.85,1.78,2.73,4.17,2.98c2.32,0.1,4.66,0.01,7.03-0.69c7.13-2.13,11.69-5.03,15.08-9.04
				c21.23-25.11,26.95-72.08,54.3-74.38c2.55-0.42,3.46-4.96,4.53-7.47c0.76-1.82,0.21-5.29-0.99-4.91
				c-15.25,4.81-30.92,22.1-40.25,37.91c-31.22-3.43-62.52-2.69-74.5-2.08c8.32-0.65,3.77-6.27,16.32-2.14
				c-9.42-4.95-10.99-20.77-26.99-15.72c6.17,3.23,9.48,17.51,5.08,18.2c-7.77,1.22-12.28,2.11-19.4,3.09
				c-11.08,1.52-8.55,0.18-12.99-6.46c-4.62-6.9-26.4-30.31-42.3-43.66C30.68,11.83,16.75-0.09,15.45,0
				c-2.57,0.16-7.94-2.11,13.06,28.68c2.19,3.21,12.86,25.63,15.65,32.67c3.39,8.56,14.41,7.96,20.96,8.01
				c1.3,0.15,2.54,0.25,3.48,0.22c0.96,0.19,1.53,0.53,1.53,1.15c0.36-0.75,0.39-1.37,0.17-1.88c-0.04-0.16-0.18-0.36-0.41-0.59
				c-0.04-0.04-0.09-0.09-0.14-0.13c-0.01-0.01-0.02-0.03-0.04-0.04c-0.24-0.21-0.48-0.42-0.73-0.63
				c-3.67-3.13-7.51-6.25-12.07-9.38c-4.85-3.34-35.7-48.02-36.84-50.16c-0.35-0.66-0.68-1.31-0.99-1.9
				C17.8,3.56,51.35,35.9,53.59,38.18c6.43,6.54,16.89,20.78,20.85,31.47c25.32-2.13,65.31,5.86,88.13,11.23
				c13.6,3.2,10.27,7.93,10.27,7.93l-2.58,5.26c-1.38-2.51-5.17-3.37-7.8-4.72c-5.94-3.04-12.43-5.11-18.68-7.26
				c-9.26-3.18-18.78-5.89-28.32-7.38c-4.29-0.67-8.62-0.87-12.95-1.43c-4.52-0.6-7.11-0.15-11.75-0.35
				c-4.21-0.18-9.51-0.71-13.64-0.3c-1.97,0.19-3.12,1.36-4.51,2.85c-1.23,1.32-9.59,15.72-12.44,21.56
				c-4.75,9.75-10.72,18.03-14.32,23.61c-0.29,0.19-0.59,0.4-0.88,0.58c5.05-12,10.56-32.78,11.03-40.1
				c0.34-5.46,17.97-4.69,14.02-9.31c-1.83,4.07-16.39-2.77-18.23,7.28c-6.43,34.99-12.58,42.85-10.3,45.69
				C44.71,128.84,65.82,109.28,75.59,80.58 M21.71,11.06c-0.56-1.06-1.08-2.06-1.57-3L21.71,11.06z M96.64,64.89
				c34.55-2.35,65.21-0.93,85.96,3.13l-0.81,1.73c0,0-1.35,2.96-6.88,1.9C146.45,66.21,119.62,64.6,96.64,64.89"/>
			<path class="st6" d="M131.8,122.98c-0.1,0-0.2-0.01-0.29-0.01c-0.38,0.01-0.76,0.03-1.15,0.05c-1.34,0.09-2.75,0.25-3.95,0.61
				c-15.04,3.28-38.42,18.07-49.43,25.45c-1.64,1.09-3.2,2.16-4.72,3.23c-0.91,0.63-1.41,0.99-1.41,0.99
				c-3.33,2.38-6.39,4.71-9.15,6.95c-0.74,0.61,0.65,5.09,2.7,6.56c8.53,6.07,23.82,9.73,38.29,7.18
				c44.17-9.39,69.43-19.38,78.04-24.38c2.65-1.53,7.65-6.4,4.59-9.79c-8.68-9.55-25.13-14.47-50.31-16.74
				C134.59,123.04,133.33,122.96,131.8,122.98"/>
			<path class="st6" d="M352.67,178.17c-37.75,2.34-64.38-8.16-69.73-13.04c-5.06,4.18-12.17,9.08-20.43,13.48
				c-5.03,2.68-11.89,4.6-9.89,3.31c30.01-19.54,38.35-39.37,36.63-53.74c-0.5-4.11-3.91-8.62-4.09-7.36
				c-1.69,12.07-8.57,32.87-50.48,50.07c-7.24,2.97-16.99,5-13.33,3.25c52.65-25.33,58.91-50.84,55.5-68.27
				c-0.96-4.93-6.1-9.46-10.44-12.88c-3.39-2.67-8.93-3.88-8.26-2.66c7.58,13.95,7.16,34.7-16.16,51.93
				c-6.01,4.44-14.23,6.86-10.71,3.88c27.43-23.25,23.9-53.33,9.46-67.22c-3.44-3.3-9.35-4.78-8.42-3.61
				c9.04,11.36-2.47,31.04-19.03,39.79c-2.06,1.08-5.42,3.3-3.5,5.39c4.63,5.01,7.77,11.7,7.75,19.33
				c-2.69-9.39-9.34-16.23-17.56-20.23c-2.75-0.62-3.83,2.35-3.06,3.17c7.65,8.22,13.18,19.16,12.28,31.65
				c-3.3-15.48-13.53-31.26-31.48-34.12c-1.02-0.11,2.2-0.89,4.66-1.22c60.75-8.48,48.81-50,36.59-46.95
				c8.48,0,8.72,17.31-1.25,26.33c-2.01,1.76-4.4,2.42-4.88-1.31c-4.03-31.69,7.67-49.12,5.59-48.91
				c-18.62,1.94-27.01,58.98-54.25,71.73c-2.81,1.31,1.16,2.74,2.76,3.11c20.92,4.79,34.62,22.4,32.61,45.33
				c-1.23-6.25-2.69-12.58-5.59-17.84c-0.91-1.65-3.18-4.02-4.83-2.4c-7.2,7.07-22.87,13.12-34.37,16.86
				c-1.33,0.77-2.96,1.9-5.38,3.92c-1.22,1.02-4.96,8.64-8.46,5.87c-2.22-1.76-0.03-4.24,3.29-6.61c-1.99,0.55-3.17,0.84-3.17,0.84
				c-12.23,3.6-27.34,6.65-43.28,11.81c-15.86,5.13-26.6,8.89-43.5,6.11c-4.67-0.77-8.72-2.16-12.05-3.95h-0.01
				c-0.77,2.01,3.28,6.41,3.28,6.41c6.29,6.75,18.92,10.48,43.02,10.15c23.26-0.33,43.87-4.51,52.51-11.69
				c3.82-3.17-0.85,7.16-8.26,10.1c-8.85,3.51-30.77,8.62-44.69,7.86c-1.07-0.06-0.99,1.22-0.17,1.57
				c10.02,4.26,25.15,6.78,32.28,7.2c66.16,3.88,116.08-15.17,120.82-17.06c6.02-2.41,28.84-12.18,38.13-21.54
				c22.47,6.66,37.82,10.13,63.64,9.44c-14.86,11.27-92.22,11.18-92.86,11.6c18.82,1.43,70.09,7.98,100.8-8.85
				C359.27,183.53,365.56,177.37,352.67,178.17 M218.2,196.05c-40.91,19.06-93.47,14.74-106.3,12.05c-1.36-0.28-0.88-0.46,0.06-0.53
				c22.23-1.87,49.12-15.18,34.28-22.87c-1.41-0.73,0.64-4.55,4.98-3.43c7.23,1.88,11.21,14.35-6.03,23.07
				c-9.23,4.2,53.28-1.37,85.76-17.55C235.94,184.32,227.6,191.68,218.2,196.05"/>
			<path class="st7" d="M52.47,286.33l-6.84-15.07H13.87l-6.85,15.07H2.88l25.06-54.21h3.84l25.07,54.21H52.47z M29.79,236.51
				l-14.22,31.14h28.37L29.79,236.51z"/>
			<path class="st7" d="M87.18,287.25c-15.38,0-26.76-12.22-26.76-27.68v-0.15c0-15.23,11.38-27.85,26.92-27.85
				c9.61,0,15.37,3.54,20.91,8.62l-2.84,2.92c-4.69-4.54-10.07-7.92-18.15-7.92c-12.92,0-22.68,10.54-22.68,24.07v0.16
				c0,13.6,9.91,24.21,22.76,24.21c7.76,0,13.07-3,18.53-8.38l2.69,2.62C102.87,283.49,96.72,287.25,87.18,287.25"/>
			<path class="st7" d="M139.28,287.18c-12.92,0-22.07-8.15-22.07-23.22v-31.45h4v31.06c0,12.69,6.84,19.99,18.22,19.99
				c10.92,0,17.92-6.61,17.92-19.6v-31.45h4v30.99C161.35,278.95,152.35,287.18,139.28,287.18"/>
			<path class="st7" d="M216.37,286.33l-6.84-15.07h-31.75l-6.85,15.07h-4.15l25.06-54.21h3.84l25.07,54.21H216.37z M193.69,236.51
				l-14.23,31.14h28.37L193.69,236.51z"/>
			<path class="st7" d="M268.93,286.33l-17.15-22.3h-17.61v22.3h-4v-53.83h22.61c11.61,0,19.22,6.31,19.22,15.3v0.15
				c0,9-6.69,14.15-15.76,15.38L274,286.33H268.93z M268.01,247.96c0-7.22-5.69-11.77-15.46-11.77h-18.38v24.22h18.14
				c9,0,15.69-4.54,15.69-12.3V247.96z"/>
			<rect x="284.44" y="232.51" class="st7" width="4" height="53.83"/>
			<path class="st7" d="M327.92,287.25c-16.3,0-26.99-12.99-26.99-27.68v-0.15c0-14.69,10.84-27.84,27.15-27.84
				c16.3,0,26.99,13,26.99,27.69c0.08,0.08,0.08,0.08,0,0.15C355.06,274.11,344.22,287.25,327.92,287.25 M350.91,259.42
				c0-13.31-9.69-24.22-22.99-24.22c-13.31,0-22.84,10.77-22.84,24.07v0.15c0,13.3,9.69,24.22,22.99,24.22
				c13.3,0,22.84-10.76,22.84-24.07V259.42z"/>
		</g>
		<g>
			<path class="st6" d="M358.46,214.14c0,5.33-4.29,9.56-9.73,9.56s-9.79-4.23-9.79-9.56c0-5.33,4.34-9.5,9.85-9.5
				C354.17,204.64,358.46,208.81,358.46,214.14z M341.37,214.14c0,4.23,3.19,7.59,7.42,7.59c4.11,0.06,7.25-3.36,7.25-7.53
				c0-4.23-3.13-7.65-7.36-7.65C344.56,206.55,341.37,209.97,341.37,214.14z M347.23,219.06h-2.2v-9.5
				c0.87-0.12,2.09-0.29,3.65-0.29c1.79,0,2.6,0.29,3.25,0.75c0.58,0.41,0.98,1.1,0.98,2.03c0,1.16-0.87,1.91-1.97,2.26v0.11
				c0.92,0.29,1.39,1.04,1.68,2.32c0.29,1.45,0.52,1.97,0.69,2.32h-2.32c-0.29-0.35-0.46-1.16-0.75-2.32
				c-0.17-0.99-0.75-1.45-1.97-1.45h-1.04V219.06z M347.28,213.73h1.04c1.22,0,2.2-0.41,2.2-1.39c0-0.87-0.64-1.45-2.03-1.45
				c-0.58,0-0.99,0.06-1.22,0.12V213.73z"/>
		</g>
	</g>
</g>
</svg>
