<svg id="Layer_1" data-name="Layer 1" xmlns="http://www.w3.org/2000/svg" viewBox="0 0 3630.6 1046.93"><defs><style>.cls-1{fill:#fff;}.cls-2{fill:#00a8b6;}.cls-3{fill:#929799;}.cls-4{fill:#ce0e2d;}</style></defs><rect class="cls-1" x="3565.73" y="211.02" width="62.59" height="376.54"/><path class="cls-1" d="M3654.49,879.9a3.35,3.35,0,0,1-.87,2.3,6.61,6.61,0,0,1-2.95,1.65,28.55,28.55,0,0,1-5.55,1c-2.29.22-5.23.32-8.76.32s-6.49-.1-8.8-.32a28.72,28.72,0,0,1-5.54-1,6.67,6.67,0,0,1-2.95-1.65,3.4,3.4,0,0,1-.87-2.3V707.46a3.67,3.67,0,0,1,.87-2.37,6.71,6.71,0,0,1,2.95-1.77,26.2,26.2,0,0,1,5.54-1.11,96.56,96.56,0,0,1,17.56,0,26,26,0,0,1,5.55,1.11,6.65,6.65,0,0,1,2.95,1.77,3.62,3.62,0,0,1,.87,2.37Z" transform="translate(-26.15 -47.21)"/><path class="cls-2" d="M1782,350.23V547c0,59.14-38.35,95.16-100.89,95.16s-100.9-36-100.9-95.16V350.23c0-59.14,38.35-95.16,100.9-95.16s100.89,36,100.89,95.16m-139.25.53V546.48c0,27.94,13.57,43,38.36,43s38.36-15.06,38.36-43V350.76c0-27.94-13.58-43-38.36-43s-38.36,15.07-38.36,43" transform="translate(-26.15 -47.21)"/><polygon class="cls-2" points="1973.59 589.59 1891.56 340.11 1890.39 340.11 1890.39 589.59 1831.37 589.59 1831.37 213.23 1901.01 213.23 1974.78 437.43 1975.95 437.43 1975.95 213.23 2034.97 213.23 2034.97 589.59 1973.59 589.59"/><polygon class="cls-2" points="2218.48 266.99 2218.48 589.59 2155.94 589.59 2155.94 266.99 2089.26 266.99 2089.26 213.24 2285.17 213.24 2285.17 266.99 2218.48 266.99"/><polygon class="cls-2" points="2402.01 265.91 2402.01 372.38 2493.45 372.38 2493.45 425.07 2402.01 425.07 2402.01 536.89 2515.3 536.89 2515.3 589.59 2339.46 589.59 2339.46 213.23 2515.3 213.23 2515.3 265.91 2402.01 265.91"/><path class="cls-2" d="M2776.29,341.08v10.76l-60.17,5.38V345.39c0-25.8-10.62-37.64-32.45-37.64-18.31,0-31.27,9.15-31.27,30.65v8.06c0,21,11.79,38.18,52.51,72.05,55.46,46.78,74.33,77.43,74.33,121v18.29c0,55.38-38.34,84.43-95.57,84.43-57.82,0-96.78-30.66-96.78-86V531.41l60.2-5.37v25.81c0,25.26,13,37.63,35.4,37.63,18.86,0,34.21-9.14,34.21-36V541.64c0-23.66-11.79-40.86-52.51-74.75-55.48-46.77-74.35-77.41-74.35-118.28v-9.14c0-55.38,35.41-84.4,93.24-84.4s93.21,30.64,93.21,86" transform="translate(-26.15 -47.21)"/><path class="cls-2" d="M3001.71,341.08v10.76l-60.18,5.38V345.39c0-25.8-10.62-37.64-32.45-37.64-18.3,0-31.26,9.15-31.26,30.65v8.06c0,21,11.79,38.18,52.51,72.05,55.46,46.78,74.33,77.43,74.33,121v18.29c0,55.38-38.34,84.43-95.58,84.43-57.82,0-96.77-30.66-96.77-86V531.41L2872.5,526v25.81c0,25.26,13,37.63,35.41,37.63,18.87,0,34.22-9.14,34.22-36V541.64c0-23.66-11.8-40.86-52.52-74.75-55.47-46.77-74.35-77.41-74.35-118.28v-9.14c0-55.38,35.41-84.4,93.24-84.4s93.21,30.64,93.21,86" transform="translate(-26.15 -47.21)"/><path class="cls-2" d="M3257.23,350.23V547c0,59.14-38.35,95.16-100.9,95.16s-100.9-36-100.9-95.16V350.23c0-59.14,38.36-95.16,100.9-95.16s100.9,36,100.9,95.16m-139.24.53V546.48c0,27.94,13.55,43,38.34,43s38.36-15.06,38.36-43V350.76c0-27.94-13.57-43-38.36-43s-38.34,15.07-38.34,43" transform="translate(-26.15 -47.21)"/><path class="cls-2" d="M3418.31,477.66h-28.87V636.8h-62.56V260.44h90.27c67.27,0,103.86,33.34,103.86,95.17v26.87c0,39.79-15.34,67.75-44.25,82.8L3534,636.8H3467.9ZM3389.44,425h25.36c30.09,0,43.65-14.52,43.65-46.24V359.36c0-31.72-13.56-46.24-43.65-46.24h-25.36Z" transform="translate(-26.15 -47.21)"/><rect class="cls-2" x="3568.03" y="213.23" width="62.56" height="376.36"/><path class="cls-3" d="M1394.38,799q0,23.32-6.68,39.91A67.6,67.6,0,0,1,1368.49,866q-12.51,10.5-30.44,15.41t-42.65,4.92h-44.47a12.56,12.56,0,0,1-8-2.56c-2.15-1.7-3.24-4.48-3.24-8.33V727.55c0-3.86,1.09-6.61,3.24-8.34a12.55,12.55,0,0,1,8-2.55h47.77q24.9,0,42.24,5.32t29.19,15.71a67.12,67.12,0,0,1,18.07,25.77q6.19,15.35,6.18,35.53m-39.12,1.17a77.71,77.71,0,0,0-3.12-22.41,44.57,44.57,0,0,0-27.46-29.81q-10.74-4.29-28.15-4.27H1277.4V859h19.72q15.54,0,26.19-3.67a44.15,44.15,0,0,0,17.77-11.06,46.76,46.76,0,0,0,10.65-18.42,84.47,84.47,0,0,0,3.53-25.7" transform="translate(-26.15 -47.21)"/><path class="cls-3" d="M1535.91,882.22a3.42,3.42,0,0,1-1.44,2.9,10.71,10.71,0,0,1-4.53,1.5,70.38,70.38,0,0,1-9.13.45,71.39,71.39,0,0,1-9.43-.45,8.64,8.64,0,0,1-4.17-1.5,3.66,3.66,0,0,1-1.25-2.9v-9.31a57.82,57.82,0,0,1-18,12.07,56.94,56.94,0,0,1-22.52,4.33,69,69,0,0,1-18.77-2.43,43.63,43.63,0,0,1-14.83-7.21,33.05,33.05,0,0,1-9.71-11.86,37.34,37.34,0,0,1-3.45-16.52,34.76,34.76,0,0,1,4.39-17.76,33.89,33.89,0,0,1,13.09-12.46c5.8-3.28,13-5.69,21.65-7.28a170.78,170.78,0,0,1,30.08-2.36h12.52v-7.07a34.26,34.26,0,0,0-1.23-9.64,15.59,15.59,0,0,0-4-6.89,17.11,17.11,0,0,0-7.49-4.06,43.64,43.64,0,0,0-11.57-1.31,65.75,65.75,0,0,0-16.2,1.84,101.7,101.7,0,0,0-12.59,4.06c-3.66,1.49-6.68,2.83-9.14,4.07a14,14,0,0,1-6,1.84,4.58,4.58,0,0,1-2.81-.92,7.11,7.11,0,0,1-2-2.62,17.7,17.7,0,0,1-1.23-4.19,33.33,33.33,0,0,1-.42-5.5,22.69,22.69,0,0,1,.72-6.42,9.59,9.59,0,0,1,2.74-4.28,26.71,26.71,0,0,1,7-4.19,88.94,88.94,0,0,1,11.8-4.27,120.72,120.72,0,0,1,14.75-3.2,118.58,118.58,0,0,1,42.31,1.44,45.31,45.31,0,0,1,17.63,8.25,32,32,0,0,1,10.06,14.35,61.66,61.66,0,0,1,3.17,20.85Zm-35.54-50.08h-13.81a81.19,81.19,0,0,0-15,1.19,29.92,29.92,0,0,0-10,3.55,15,15,0,0,0-5.7,5.7,15.83,15.83,0,0,0-1.8,7.65q0,7.35,5.11,11.55c3.41,2.78,8.13,4.19,14.18,4.19a28.33,28.33,0,0,0,14-3.55,57.15,57.15,0,0,0,13-10.34Z" transform="translate(-26.15 -47.21)"/><path class="cls-3" d="M1644.34,886.3l-15.54,41.41c-.87,2.18-3.23,3.75-7,4.73s-9.46,1.43-16.84,1.43a70.21,70.21,0,0,1-9.2-.46,13.79,13.79,0,0,1-5.18-1.49,3.56,3.56,0,0,1-1.89-2.64,7.7,7.7,0,0,1,.88-3.8l17.12-39.18a9.69,9.69,0,0,1-3.39-2.43,11.34,11.34,0,0,1-2.21-3.48l-44.19-107.5a20.64,20.64,0,0,1-1.87-7,4.52,4.52,0,0,1,1.73-3.8c1.14-.93,3.09-1.57,5.82-1.92a91.86,91.86,0,0,1,10.88-.52c4.1,0,7.38.06,9.78.2a18.72,18.72,0,0,1,5.59,1,5.92,5.92,0,0,1,3,2.42,22.52,22.52,0,0,1,2,4.65l30.23,78.26h.43l27.62-79.82q.87-3.4,2.24-4.52a9.53,9.53,0,0,1,4.53-1.65,80,80,0,0,1,11.08-.52,85.52,85.52,0,0,1,10.28.52,13,13,0,0,1,6,2,4.6,4.6,0,0,1,2,3.87,17.9,17.9,0,0,1-1.16,5.71Z" transform="translate(-26.15 -47.21)"/><path class="cls-3" d="M1806.15,863.21c0,2.28-.07,4.18-.22,5.71a27.87,27.87,0,0,1-.57,3.87,11.54,11.54,0,0,1-.86,2.56,10.62,10.62,0,0,1-2.23,2.49,32.56,32.56,0,0,1-5.9,3.66,65.3,65.3,0,0,1-9.5,3.88,85.4,85.4,0,0,1-11.59,2.74,82.74,82.74,0,0,1-39.14-3.14A49.79,49.79,0,0,1,1717,872.59a53.06,53.06,0,0,1-11.73-20,84.71,84.71,0,0,1-4-27q0-17.57,4.82-30.35a57.22,57.22,0,0,1,13.46-21.17A54,54,0,0,1,1740,761.61a79.46,79.46,0,0,1,25.91-4,70.36,70.36,0,0,1,11.28.9,71.26,71.26,0,0,1,10.35,2.5,57.09,57.09,0,0,1,8.63,3.55,26.33,26.33,0,0,1,5.41,3.39,15.49,15.49,0,0,1,2.22,2.43,8.37,8.37,0,0,1,1,2.56,37.23,37.23,0,0,1,.56,3.86c.14,1.52.21,3.4.21,5.58,0,5.07-.47,8.62-1.43,10.68s-2.22,3.09-3.75,3.09a9.41,9.41,0,0,1-5.17-1.85c-1.84-1.22-4-2.57-6.48-4.07a50.45,50.45,0,0,0-8.92-4,36.68,36.68,0,0,0-12.38-1.85q-14.12,0-21.59,9.9t-7.48,29a66.87,66.87,0,0,0,1.86,16.64,34.3,34.3,0,0,0,5.55,12.07,23.11,23.11,0,0,0,9.22,7.29,32,32,0,0,0,12.88,2.4,36.7,36.7,0,0,0,12.87-2,55.26,55.26,0,0,0,9.43-4.53c2.68-1.66,4.94-3.17,6.76-4.53s3.38-2,4.61-2a3.54,3.54,0,0,1,2.15.65,4.64,4.64,0,0,1,1.38,2.43,31.75,31.75,0,0,1,.79,4.53c.17,1.84.28,4.19.28,7.07" transform="translate(-26.15 -47.21)"/><path class="cls-3" d="M1943.21,882.22a3.42,3.42,0,0,1-1.44,2.9,10.65,10.65,0,0,1-4.51,1.5,95.9,95.9,0,0,1-18.56,0,8.56,8.56,0,0,1-4.18-1.5,3.66,3.66,0,0,1-1.26-2.9v-9.31a58.06,58.06,0,0,1-18,12.07,56.84,56.84,0,0,1-22.5,4.33,69.17,69.17,0,0,1-18.8-2.43,43.8,43.8,0,0,1-14.81-7.21,33,33,0,0,1-9.72-11.86,37.34,37.34,0,0,1-3.45-16.52,34.76,34.76,0,0,1,4.39-17.76,33.88,33.88,0,0,1,13.11-12.46c5.77-3.28,13-5.69,21.64-7.28a170.86,170.86,0,0,1,30.08-2.36h12.51v-7.07a34.3,34.3,0,0,0-1.21-9.64,16,16,0,0,0-4-6.89,17.11,17.11,0,0,0-7.49-4.06,43.64,43.64,0,0,0-11.57-1.31,65.81,65.81,0,0,0-16.2,1.84,101,101,0,0,0-12.58,4.06c-3.65,1.49-6.69,2.83-9.15,4.07a14,14,0,0,1-6,1.84,4.52,4.52,0,0,1-2.79-.92,6.75,6.75,0,0,1-2-2.62,17.72,17.72,0,0,1-1.22-4.19,32.23,32.23,0,0,1-.43-5.5,22.69,22.69,0,0,1,.72-6.42,10,10,0,0,1,2.72-4.28,27.17,27.17,0,0,1,7.07-4.19,88.76,88.76,0,0,1,11.79-4.27,119.67,119.67,0,0,1,14.76-3.2,118.57,118.57,0,0,1,42.31,1.44,45.26,45.26,0,0,1,17.62,8.25,31.94,31.94,0,0,1,10.07,14.35,61.67,61.67,0,0,1,3.16,20.85Zm-35.54-50.08h-13.8a81.3,81.3,0,0,0-15,1.19,30.06,30.06,0,0,0-10.06,3.55,15.12,15.12,0,0,0-5.68,5.7,15.73,15.73,0,0,0-1.81,7.65q0,7.35,5.13,11.55c3.4,2.78,8.11,4.19,14.17,4.19a28.32,28.32,0,0,0,14-3.55,57.15,57.15,0,0,0,13-10.34Z" transform="translate(-26.15 -47.21)"/><path class="cls-3" d="M2065,775.79c0,3.14-.1,5.72-.27,7.73a22.66,22.66,0,0,1-.88,4.72,4.48,4.48,0,0,1-1.51,2.35,4,4,0,0,1-2.36.68,8.41,8.41,0,0,1-2.59-.48l-3.24-1c-1.2-.35-2.54-.69-4-1a23.05,23.05,0,0,0-4.76-.47,17.45,17.45,0,0,0-6,1.12,26.19,26.19,0,0,0-6.25,3.48,45.42,45.42,0,0,0-6.78,6.29,105.19,105.19,0,0,0-7.56,9.71v72.86a3.37,3.37,0,0,1-.85,2.31,6.67,6.67,0,0,1-3,1.64,27.93,27.93,0,0,1-5.56,1c-2.29.21-5.2.32-8.76.32s-6.47-.11-8.77-.32a28.48,28.48,0,0,1-5.56-1,6.74,6.74,0,0,1-2.94-1.64,3.42,3.42,0,0,1-.85-2.31V764.89a3.74,3.74,0,0,1,.72-2.29,5.38,5.38,0,0,1,2.57-1.63,22.56,22.56,0,0,1,4.82-1,68.75,68.75,0,0,1,7.41-.33,72.29,72.29,0,0,1,7.64.33,18.91,18.91,0,0,1,4.69,1,5.35,5.35,0,0,1,2.36,1.63,3.72,3.72,0,0,1,.7,2.29v14.57a95.18,95.18,0,0,1,9.53-10.82,53.84,53.84,0,0,1,8.47-6.76,28.75,28.75,0,0,1,8.07-3.48,34.54,34.54,0,0,1,8-1c1.25,0,2.59.07,4,.19s2.94.36,4.46.65a33,33,0,0,1,4,1.06,8.18,8.18,0,0,1,2.54,1.24,4.31,4.31,0,0,1,1.14,1.46,10,10,0,0,1,.65,2.14,29.11,29.11,0,0,1,.43,4.15c.09,1.83.14,4.31.14,7.47" transform="translate(-26.15 -47.21)"/><path class="cls-3" d="M2205.82,820c0,4-1,7-2.94,8.91a11.12,11.12,0,0,1-8.14,2.91h-78.12a44.74,44.74,0,0,0,1.93,13.56,25.76,25.76,0,0,0,6.19,10.34,27.14,27.14,0,0,0,11,6.49,50.51,50.51,0,0,0,16,2.23,100,100,0,0,0,16.69-1.23,123.93,123.93,0,0,0,12.45-2.76c3.51-1,6.41-1.9,8.71-2.76a18,18,0,0,1,5.61-1.24,4.27,4.27,0,0,1,2.16.47,3.49,3.49,0,0,1,1.44,1.63,9.7,9.7,0,0,1,.78,3.34,51.45,51.45,0,0,1,.22,5.44c0,1.93,0,3.56-.16,4.94a27.53,27.53,0,0,1-.41,3.45,8.33,8.33,0,0,1-.86,2.43,9.25,9.25,0,0,1-1.52,1.9c-.62.6-2.31,1.44-5.1,2.48a84.18,84.18,0,0,1-10.66,3.09c-4.32,1-9.25,1.88-14.82,2.62a137,137,0,0,1-17.82,1.12q-17.16,0-30-3.93a54.67,54.67,0,0,1-21.5-11.94,48.92,48.92,0,0,1-12.89-20.2q-4.23-12.18-4.25-28.55a83.05,83.05,0,0,1,4.48-28.13,57.74,57.74,0,0,1,12.92-21.25A56.22,56.22,0,0,1,2117.84,762a77,77,0,0,1,27.43-4.6q16.07,0,27.54,4.32a50,50,0,0,1,18.77,12,47.53,47.53,0,0,1,10.8,18.16,72.65,72.65,0,0,1,3.44,22.8Zm-35.11-9.42q.43-13.92-6.11-21.83t-20.22-7.94a28.31,28.31,0,0,0-12,2.37,24.41,24.41,0,0,0-8.5,6.35,28.31,28.31,0,0,0-5.16,9.43,42.18,42.18,0,0,0-2.09,11.62Z" transform="translate(-26.15 -47.21)"/><path class="cls-3" d="M2372.32,820.35c0,5.06-.54,8.61-1.6,10.62a5.25,5.25,0,0,1-5,3h-59.86a5.41,5.41,0,0,1-5.19-3.07c-1.06-2-1.59-5.58-1.59-10.56s.53-8.34,1.59-10.34a5.45,5.45,0,0,1,5.19-3h59.86a6.23,6.23,0,0,1,2.94.67,5.22,5.22,0,0,1,2.07,2.22,12.44,12.44,0,0,1,1.26,4.2,51.08,51.08,0,0,1,.34,6.29" transform="translate(-26.15 -47.21)"/><path class="cls-3" d="M2601.69,768.18a62,62,0,0,1-4.89,25.29A49,49,0,0,1,2582.55,812a65.1,65.1,0,0,1-23,11.48c-9.07,2.61-19.71,3.91-32,3.91H2512v54.15a3.39,3.39,0,0,1-.93,2.35,6.39,6.39,0,0,1-3.08,1.7,33,33,0,0,1-5.75,1.06,91.84,91.84,0,0,1-9.23.39c-3.63,0-6.68-.14-9.14-.39a31.86,31.86,0,0,1-5.81-1.06,5.84,5.84,0,0,1-3-1.7,3.51,3.51,0,0,1-.87-2.35V729c0-4.1,1.18-7.19,3.54-9.24a13.57,13.57,0,0,1,9.26-3.08h43.89q6.63,0,12.6.45c4,.33,8.74,1,14.33,2a68.15,68.15,0,0,1,16.9,5.58,50.07,50.07,0,0,1,14.6,10.28,42.16,42.16,0,0,1,9.21,14.57,51.93,51.93,0,0,1,3.16,18.67m-39.56,2.49c0-5.95-1.14-10.83-3.46-14.69a22.78,22.78,0,0,0-8.49-8.51,30.12,30.12,0,0,0-10.57-3.48,88.9,88.9,0,0,0-11.43-.72H2512v57.55h17a44.36,44.36,0,0,0,15.19-2.23,26.24,26.24,0,0,0,10-6.21,26.55,26.55,0,0,0,5.9-9.57,35.35,35.35,0,0,0,2-12.14" transform="translate(-26.15 -47.21)"/><path class="cls-3" d="M2714.58,775.79c0,3.14-.1,5.72-.28,7.73a23.44,23.44,0,0,1-.87,4.72,4.61,4.61,0,0,1-1.51,2.35,4.05,4.05,0,0,1-2.37.68,8.57,8.57,0,0,1-2.59-.48c-1-.3-2-.62-3.23-1s-2.53-.69-4-1a23,23,0,0,0-4.75-.47,17.5,17.5,0,0,0-6,1.12,26.19,26.19,0,0,0-6.25,3.48,45.88,45.88,0,0,0-6.77,6.29,103.55,103.55,0,0,0-7.55,9.71v72.86a3.3,3.3,0,0,1-.87,2.31,6.51,6.51,0,0,1-2.94,1.64,28,28,0,0,1-5.55,1q-3.45.32-8.77.32c-3.55,0-6.47-.11-8.78-.32a27.83,27.83,0,0,1-5.54-1,6.77,6.77,0,0,1-3-1.64,3.41,3.41,0,0,1-.84-2.31V764.89a3.68,3.68,0,0,1,.72-2.29,5.35,5.35,0,0,1,2.59-1.63,21.92,21.92,0,0,1,4.82-1,68.22,68.22,0,0,1,7.39-.33,72.21,72.21,0,0,1,7.63.33,18.7,18.7,0,0,1,4.69,1,5.38,5.38,0,0,1,2.37,1.63,3.8,3.8,0,0,1,.71,2.29v14.57a94.22,94.22,0,0,1,9.51-10.82,54.77,54.77,0,0,1,8.47-6.76,28.8,28.8,0,0,1,8.08-3.48,34.46,34.46,0,0,1,8-1c1.27,0,2.59.07,4,.19s2.91.36,4.46.65a34.36,34.36,0,0,1,4,1.06,8.22,8.22,0,0,1,2.53,1.24,4.51,4.51,0,0,1,1.16,1.46,10.73,10.73,0,0,1,.64,2.14,31,31,0,0,1,.42,4.15c.11,1.83.15,4.31.15,7.47" transform="translate(-26.15 -47.21)"/><path class="cls-3" d="M2855.39,820c0,4-1,7-2.95,8.91s-4.67,2.91-8.15,2.91h-78.11a44.74,44.74,0,0,0,1.92,13.56,25.67,25.67,0,0,0,6.2,10.34,27.1,27.1,0,0,0,10.94,6.49,50.46,50.46,0,0,0,16,2.23,100.14,100.14,0,0,0,16.7-1.23,123.93,123.93,0,0,0,12.45-2.76c3.5-1,6.4-1.9,8.7-2.76a18.09,18.09,0,0,1,5.62-1.24,4.32,4.32,0,0,1,2.16.47,3.53,3.53,0,0,1,1.43,1.63,9.89,9.89,0,0,1,.8,3.34c.14,1.43.22,3.26.22,5.44,0,1.93-.06,3.56-.15,4.94a31.39,31.39,0,0,1-.43,3.45,8.33,8.33,0,0,1-.87,2.43,8.92,8.92,0,0,1-1.52,1.9c-.61.6-2.32,1.44-5.1,2.48a82.52,82.52,0,0,1-10.65,3.09c-4.32,1-9.26,1.88-14.82,2.62a137.2,137.2,0,0,1-17.83,1.12q-17.14,0-30-3.93a54.72,54.72,0,0,1-21.51-11.94,49.1,49.1,0,0,1-12.88-20.2q-4.23-12.18-4.25-28.55a83.55,83.55,0,0,1,4.47-28.13,57.78,57.78,0,0,1,12.94-21.25A56.1,56.1,0,0,1,2767.4,762a77,77,0,0,1,27.43-4.6q16.07,0,27.54,4.32a50,50,0,0,1,18.76,12,47.41,47.41,0,0,1,10.8,18.16,72.36,72.36,0,0,1,3.46,22.8Zm-35.11-9.42q.41-13.92-6.12-21.83t-20.22-7.94a28.36,28.36,0,0,0-12,2.37,24.42,24.42,0,0,0-8.48,6.35,28,28,0,0,0-5.17,9.43,42.18,42.18,0,0,0-2.09,11.62Z" transform="translate(-26.15 -47.21)"/><path class="cls-3" d="M2978.78,848.8a35,35,0,0,1-15.68,30.28,54.66,54.66,0,0,1-17.71,7.67,91.86,91.86,0,0,1-22.17,2.57,93.73,93.73,0,0,1-13.75-1,91.6,91.6,0,0,1-11.7-2.49,62.85,62.85,0,0,1-8.64-3.09,21.81,21.81,0,0,1-5-2.93,8.89,8.89,0,0,1-2.46-4.34,32.84,32.84,0,0,1-.87-8.73,50.87,50.87,0,0,1,.29-6.07,14.7,14.7,0,0,1,.86-3.68,3.55,3.55,0,0,1,1.45-1.83,4.4,4.4,0,0,1,2.16-.46,11.32,11.32,0,0,1,4.66,1.65c2.08,1.09,4.63,2.28,7.72,3.58a83.55,83.55,0,0,0,10.72,3.68,52.27,52.27,0,0,0,13.88,1.7,37,37,0,0,0,8.71-.9,23.82,23.82,0,0,0,6.6-2.63,11.4,11.4,0,0,0,4.25-4.34,12.14,12.14,0,0,0,1.45-6,9.61,9.61,0,0,0-2.66-6.75,24.15,24.15,0,0,0-7.07-4.92,82.09,82.09,0,0,0-9.9-3.91c-3.7-1.24-7.48-2.61-11.38-4.07a113.53,113.53,0,0,1-11.37-5.12,44,44,0,0,1-10-7.08,32.44,32.44,0,0,1-7-10.1,34.14,34.14,0,0,1-2.65-14.15,33.2,33.2,0,0,1,3.59-15.4,34.14,34.14,0,0,1,10.35-12,51.78,51.78,0,0,1,16.48-7.73,80.13,80.13,0,0,1,21.81-2.74,85.68,85.68,0,0,1,11.7.78,95.5,95.5,0,0,1,10.31,2,52.06,52.06,0,0,1,7.78,2.57,25.12,25.12,0,0,1,4.5,2.34,7.36,7.36,0,0,1,2,2,8.94,8.94,0,0,1,.84,2.36,29.86,29.86,0,0,1,.5,3.41,44.66,44.66,0,0,1,.22,5,56.42,56.42,0,0,1-.22,5.76,12.67,12.67,0,0,1-.72,3.56,3.06,3.06,0,0,1-1.37,1.76,4,4,0,0,1-2,.46,10.37,10.37,0,0,1-4-1.38,72.67,72.67,0,0,0-6.81-2.94,87.43,87.43,0,0,0-9.51-3,50.89,50.89,0,0,0-12.3-1.37,35.08,35.08,0,0,0-8.49.93,16.64,16.64,0,0,0-5.91,2.61,11.71,11.71,0,0,0-3.45,4,11,11,0,0,0-1.15,4.91,9.36,9.36,0,0,0,2.72,6.84,25.21,25.21,0,0,0,7.23,4.85,86.74,86.74,0,0,0,10.13,3.93c3.79,1.22,7.61,2.56,11.52,4a108.54,108.54,0,0,1,11.5,5,43.23,43.23,0,0,1,10.16,7.07,31.28,31.28,0,0,1,9.91,23.86" transform="translate(-26.15 -47.21)"/><path class="cls-3" d="M3106.34,863.21c0,2.28-.06,4.18-.21,5.71a27.87,27.87,0,0,1-.57,3.87,12,12,0,0,1-.87,2.56,10.17,10.17,0,0,1-2.23,2.49,32.19,32.19,0,0,1-5.9,3.66,64.84,64.84,0,0,1-9.5,3.88,85.61,85.61,0,0,1-11.58,2.74,82.74,82.74,0,0,1-39.14-3.14,49.9,49.9,0,0,1-19.22-12.39,53.15,53.15,0,0,1-11.71-20,85,85,0,0,1-4-27q0-17.57,4.81-30.35a57,57,0,0,1,13.46-21.17,54,54,0,0,1,20.42-12.47,79.77,79.77,0,0,1,25.91-4,70.33,70.33,0,0,1,11.3.9,71.72,71.72,0,0,1,10.36,2.5,57.09,57.09,0,0,1,8.63,3.55,25.92,25.92,0,0,1,5.4,3.39,15.82,15.82,0,0,1,2.24,2.43,8.92,8.92,0,0,1,1,2.56,37,37,0,0,1,.57,3.86c.14,1.52.21,3.4.21,5.58,0,5.07-.49,8.62-1.44,10.68s-2.22,3.09-3.75,3.09a9.33,9.33,0,0,1-5.16-1.85c-1.84-1.22-4-2.57-6.49-4.07a50.12,50.12,0,0,0-8.92-4,36.72,36.72,0,0,0-12.38-1.85q-14.12,0-21.56,9.9t-7.51,29a66.85,66.85,0,0,0,1.87,16.64,34.11,34.11,0,0,0,5.54,12.07,23.07,23.07,0,0,0,9.23,7.29,31.92,31.92,0,0,0,12.87,2.4,36.7,36.7,0,0,0,12.87-2,54.54,54.54,0,0,0,9.43-4.53c2.69-1.66,4.93-3.17,6.76-4.53a8.4,8.4,0,0,1,4.61-2,3.66,3.66,0,0,1,2.18.65,4.69,4.69,0,0,1,1.34,2.43,28,28,0,0,1,.79,4.53,68.06,68.06,0,0,1,.29,7.07" transform="translate(-26.15 -47.21)"/><path class="cls-3" d="M3258.38,881.82a3.35,3.35,0,0,1-.88,2.31,6.61,6.61,0,0,1-2.87,1.64,26.63,26.63,0,0,1-5.55,1c-2.35.21-5.26.32-8.69.32s-6.49-.11-8.86-.32a26.4,26.4,0,0,1-5.53-1,6.7,6.7,0,0,1-2.89-1.64,3.37,3.37,0,0,1-.85-2.31V815.11a50.42,50.42,0,0,0-1.39-13.37,25.52,25.52,0,0,0-3.94-8.33,17.25,17.25,0,0,0-6.69-5.37,22.71,22.71,0,0,0-9.58-1.9,25.45,25.45,0,0,0-13.95,4.59A72.22,72.22,0,0,0,3172,804.09v77.73a3.39,3.39,0,0,1-.87,2.31,6.55,6.55,0,0,1-3,1.64,27.81,27.81,0,0,1-5.55,1c-2.3.21-5.23.32-8.76.32s-6.49-.11-8.79-.32a27.83,27.83,0,0,1-5.54-1,6.73,6.73,0,0,1-2.95-1.64,3.43,3.43,0,0,1-.86-2.31V709.46a3.66,3.66,0,0,1,.86-2.37,6.77,6.77,0,0,1,2.95-1.77,26.71,26.71,0,0,1,5.54-1.11,98.91,98.91,0,0,1,17.55,0,26.68,26.68,0,0,1,5.55,1.11,6.59,6.59,0,0,1,3,1.77,3.62,3.62,0,0,1,.87,2.37v64.62a69.44,69.44,0,0,1,19.06-12.52,51.08,51.08,0,0,1,20.22-4.13q13.09,0,22.08,3.93a37.73,37.73,0,0,1,14.52,10.75,42.37,42.37,0,0,1,8,15.93,86.14,86.14,0,0,1,2.46,22.08Z" transform="translate(-26.15 -47.21)"/><path class="cls-3" d="M3426.94,822.19a82.17,82.17,0,0,1-4.32,27.26,56.46,56.46,0,0,1-13.08,21.24,58.85,58.85,0,0,1-22,13.77c-8.8,3.21-19.14,4.85-30.94,4.85-11.41,0-21.34-1.47-29.77-4.33a54.22,54.22,0,0,1-21-12.6,50.49,50.49,0,0,1-12.36-20.3,86.09,86.09,0,0,1-4-27.54,80.91,80.91,0,0,1,4.4-27.32A56.41,56.41,0,0,1,3306.93,776a59.45,59.45,0,0,1,21.94-13.71c8.79-3.23,19.06-4.85,30.89-4.85,11.48,0,21.48,1.42,29.92,4.27a53.35,53.35,0,0,1,20.94,12.49,51.14,51.14,0,0,1,12.29,20.34,87.12,87.12,0,0,1,4,27.66m-37.26,1.32a78.87,78.87,0,0,0-1.52-15.94,35.31,35.31,0,0,0-5.1-12.64,24.48,24.48,0,0,0-9.57-8.39q-6-3-15-3a34.57,34.57,0,0,0-14.1,2.68,24.8,24.8,0,0,0-9.93,7.87,36.22,36.22,0,0,0-5.84,12.45,65.63,65.63,0,0,0-1.94,16.58,73.33,73.33,0,0,0,1.6,15.92,36.51,36.51,0,0,0,5.11,12.66,23.22,23.22,0,0,0,9.56,8.33,34,34,0,0,0,15,3,34.65,34.65,0,0,0,14.24-2.71,24.73,24.73,0,0,0,9.93-7.8,34.41,34.41,0,0,0,5.76-12.4,67,67,0,0,0,1.87-16.56" transform="translate(-26.15 -47.21)"/><path class="cls-3" d="M3588.62,822.19a81.92,81.92,0,0,1-4.32,27.26,56.5,56.5,0,0,1-13.1,21.24,58.69,58.69,0,0,1-22,13.77c-8.83,3.21-19.15,4.85-30.94,4.85-11.42,0-21.33-1.47-29.78-4.33a54.11,54.11,0,0,1-21-12.6,50.41,50.41,0,0,1-12.38-20.3,86.37,86.37,0,0,1-4-27.54,81.41,81.41,0,0,1,4.4-27.32A56.46,56.46,0,0,1,3468.61,776a59.37,59.37,0,0,1,21.94-13.71q13.15-4.85,30.87-4.85,17.26,0,29.91,4.27a53.11,53.11,0,0,1,21,12.49,51.38,51.38,0,0,1,12.3,20.34,87.4,87.4,0,0,1,4,27.66m-37.29,1.32a78.16,78.16,0,0,0-1.52-15.94,35.29,35.29,0,0,0-5.08-12.64,24.65,24.65,0,0,0-9.58-8.39q-6-3-15-3a34.6,34.6,0,0,0-14.1,2.68,24.9,24.9,0,0,0-9.94,7.87,35.65,35.65,0,0,0-5.81,12.45,64.22,64.22,0,0,0-2,16.58,74.6,74.6,0,0,0,1.6,15.92,36.91,36.91,0,0,0,5.12,12.66,23.13,23.13,0,0,0,9.55,8.33,34.13,34.13,0,0,0,15,3,34.72,34.72,0,0,0,14.26-2.71,24.63,24.63,0,0,0,9.92-7.8,34.41,34.41,0,0,0,5.76-12.4,67.56,67.56,0,0,0,1.85-16.56" transform="translate(-26.15 -47.21)"/><path class="cls-3" d="M3656.75,881.82a3.39,3.39,0,0,1-.87,2.31,6.57,6.57,0,0,1-2.94,1.64,28,28,0,0,1-5.55,1c-2.29.21-5.22.32-8.76.32s-6.48-.11-8.8-.32a27.85,27.85,0,0,1-5.53-1,6.67,6.67,0,0,1-3-1.64,3.44,3.44,0,0,1-.87-2.31V709.46a3.67,3.67,0,0,1,.87-2.37,6.71,6.71,0,0,1,3-1.77,26.74,26.74,0,0,1,5.53-1.11,81.36,81.36,0,0,1,8.8-.39,80.43,80.43,0,0,1,8.76.39,26.82,26.82,0,0,1,5.55,1.11,6.61,6.61,0,0,1,2.94,1.77,3.62,3.62,0,0,1,.87,2.37Z" transform="translate(-26.15 -47.21)"/><path class="cls-4" d="M1074.17,570.67c0,289.1-234.36,523.47-523.47,523.47S27.25,859.77,27.25,570.67,261.6,47.21,550.7,47.21s523.47,234.36,523.47,523.46" transform="translate(-26.15 -47.21)"/><path class="cls-1" d="M206.24,308.5c14.65,0,23.07-9.06,23.07-24.86,0-15.06-8.42-23.67-23.07-23.67-15.42,0-24.27,8.61-24.27,23.67,0,15.8,8.85,24.86,24.27,24.86" transform="translate(-26.15 -47.21)"/><path class="cls-1" d="M1042,389.58c-18.87,32.76-51,85-84.34,122.51-24.46,27.58-60,38.28-61.49,11-.77-10.88,1.81-29.61,7.63-55.7,5.31-24.27,7.9-39.41,7.9-46.29,0-48.81-28.45-59.07-52.33-59.07-12.86,0-24.15,3.46-33.69,10.38-4.38,3.34-12.69,11.86-25.3,26-9.76-24.13-26.83-36.34-50.87-36.34-20.71,0-42.55,12.09-65,36-13.43-32.41-35.94-37.72-53-35.95-8.13.48-18.81,5.77-33.57,17a302.18,302.18,0,0,0-33.45,43.76c-5.72,8.64-10.87,16.4-15.53,23.37l-.52-.68-4.93,7.92c-12.91,20.71-25.27,38.15-36.78,51.79a115.09,115.09,0,0,1-8.87,9.43c8.38-17,12.62-37.13,12.62-60.26,0-23.47-6-44.16-17.81-61.48-13.93-20.47-32.78-30.84-56-30.84-22.2,0-29,1.18-32.44,2.16a66.22,66.22,0,0,0-16.33,8l17.6-66.89H367.85l-1.19,4.8c-6.6,26.37-14.61,47.71-23.82,63.42-13.74,23.55-29.78,48.81-47.72,75.12l-.1-.1-4.44,6.33c-27.38,39.13-36.26,50.81-39,53.8-23.8,27.19-36,31.26-41.52,31.26-11.76.68-17.18-4.13-18.41-15.92-1.93-17.24,5.67-69.58,22.6-155.62l1.53-7.76-38.17.91-.93,5.09c-5.3,29-9.13,48-11.26,51.51C115.84,499.14,66.05,523.26,29,527.37c-.46,0-3.75,36.36-2.63,39.51.25.71.54,1.11.87,1.1,31.9-.69,80.37-13.54,130.57-70.69-2.51,27.08-2.15,34.41-1.4,37.39,5.75,28.57,23.18,43.67,50.42,43.67,20.84,0,41.3-10.67,61-32q16.84-20.29,29.17-35.5l.69.47,3.67-4.65c5.61-7.11,10.3-13.27,14.21-18.67L276.07,604.53c-13.09,37.26-22.9,64.11-29.3,80.13-14.17,43.68-24,74.66-29.32,92.16a426.36,426.36,0,0,0-13.36,67.33c-5,44.68-.26,75.69,14.5,94.77,8.41,10.74,18.36,16.17,29.54,16.17a45.5,45.5,0,0,0,15.5-2.83c17.34-6.83,30.13-26.79,39.11-60.93,3.26-11.82,7.55-35.56,12.73-70.57l39.78-267.29a67.91,67.91,0,0,0,13.16,10.72c12.38,8.14,28.87,12.9,49,14.16,31.52,2,61.62-5.91,89.71-23.7,17.55-11.3,38.6-34.5,64.35-70.92l1.95-4.14c5.22-7.14,9.42-12.75,12.52-16.79,36.45-57.23,47-61,48.67-61.17,12.71.63,19,7.05,20.24,20.73a79.73,79.73,0,0,1-1.59,25L617,578.34l37.93.1,31.46-114.1c11.76-25.08,18.47-33.74,22.63-37.17,22.06-23.07,34.59-27.93,41.2-27.93,4.69,0,9,2.6,13.11,8,4.44,5.79,6.7,11.2,6.7,16.07,0,15.56-3,33-9.06,51.71L727.66,578.08l39.77.31,1.33-4.6c15.77-53.61,28.36-92.61,37.45-115.93a128.22,128.22,0,0,1,22.25-37.41c10.89-13.14,21.27-19.47,31.32-18.82,3.31.11,12.16.41,13.57,21,.73,10.07-1.63,27.31-7,51.16-6.54,27-9.74,45.44-9.74,56.43,0,12.3,4.36,23.46,12.95,33.16,8.77,10,19.43,15,31.5,15,21.79.31,44.53-9.27,68.07-29.34a732.15,732.15,0,0,0,88-111.48C1058.25,435.73,1043.91,386.28,1042,389.58Zm-584.4,115.7c-13.19,20.54-30,30.52-51.36,30.52-9.46,0-18-4.07-26.21-12.43-8.39-8.56-13-17.87-14.05-28.52-2.21-19.22,2.74-39.61,14.71-60.54,14.22-24.47,29.65-36.85,45.84-36.85,12.29,0,22.53,4.28,31.33,13.07a52.45,52.45,0,0,1,15.48,32.55c2.24,22.27-3.05,43.17-15.74,62.2m-152.07,127c-16.92,123-26.51,189.66-28.49,198.45l0,.08c-10.27,48.55-14.28,63.73-15.88,68-6.42,17.94-13,16.28-15.22,15.73-.79-.18-7.66-2.78-7.66-35.65,0-39.68,11-90.22,32.66-150.19q21.39-59.42,34.61-96.39m8-152.32,4.33,1.4-.44,1.31Z" transform="translate(-26.15 -47.21)"/><polygon class="cls-2" points="1418.87 589.59 1418.87 328.28 1417.69 328.28 1365.76 535.81 1328.6 535.81 1276.66 328.28 1275.47 328.28 1275.47 589.59 1216.49 589.59 1216.49 213.23 1298.48 213.23 1347.47 415.39 1348.65 415.39 1397.04 213.23 1481.41 213.23 1481.41 589.59 1418.87 589.59"/></svg>