<?xml version="1.0" encoding="utf-8"?>
<!-- Generator: Adobe Illustrator 23.0.1, SVG Export Plug-In . SVG Version: 6.00 Build 0)  -->
<svg version="1.1" id="Layer_1" xmlns="http://www.w3.org/2000/svg" xmlns:xlink="http://www.w3.org/1999/xlink" x="0px" y="0px"
	 viewBox="0 0 792 612" style="enable-background:new 0 0 792 612;" xml:space="preserve">
<style type="text/css">
	.st0{fill-rule:evenodd;clip-rule:evenodd;fill:#F05323;}
	.st1{fill:#0047BA;}
	.st2{fill:#6ABF4B;}
	.st3{fill:#F05323;}
	.st4{fill:#2452A1;}
</style>
<path class="st0" d="M415.74,41.99c-1.7,1.11-1.88,3.99-1.74,5.74c4.69,2.34,3.42,7.72,4.69,11.65c-1.24,3.77,3.54,6.24,3.75,10.13
	c1.21,9.38,8.22,17.79,9.92,27c-1.65,4.99-2.43,10.3-2.82,15.5c-0.23,2.84-0.43,5.6-0.62,8.36c-2.23,4.92-3.95,10.23-5.08,15.92
	l8.63,0.74c-0.7,3.29-1.69,7.61-4.57,9.93c-4.26,4.57-3.83,11.45-5.79,17.13c-2.07,3.21-6.66,6.34-4.37,10.87
	c-0.72,7.24,0.13,14.54,3.91,20.78c0.97,0.85,2.94,1.35,4.14,0.97c4.8-6.17,15.23-8.26,16.82-16.71c1.46-1.57,2.69-3.43,4.56-4.64
	c5.02,6.64,11.66,11.19,18.32,15.78c1.39,2.41,3.63,4.31,6.59,3.75c3.98-1.96,8.78-2.37,11.4-5.97l0.79-1.34
	c0.09-0.11,0.13-0.2,0.21-0.32c2.19-13.76-3.13-26.23-1.14-39.95c3.81-2.71-0.47-7.68,2.24-11.28l0.06-3.97
	c-4.9-1.85-9.59,1.83-12.97,4.39c-1.24,1.34-2.65,3.19-2.16,5.26c3.2,3.67,2.06,8.13,5.21,11.8c-0.34,2.68-0.16,5.82-1.07,8.06
	c-11.72-16.3-1.8-37.2,2.24-55.84c2.47-1.9,0.68-5.11,3.76-6.62c7.22-1.38,5.87-8.92,11.13-11.8c3.17-2.18,6.38-4.32,6.9-8.46
	c2.4-4.39,9.6-6.47,8.58-12.12l8.98-10.14c1.73-1.14,3.67-1.61,5.63-1.37c0.96-1.17,1.49-3.46,1.19-4.96
	c-1.79-3.19-5.77-1.69-8.67-2.5l-2.63,3.74l-0.91,2.06c-3.37,8.38-13.47,9.39-16.64,18.01l-9.69,5.62l-0.52,2.12l-1.22-0.28
	c0.23-3.79,1.69-7.81-0.46-11.12c-3.98-1.62-9-2.86-13.3-3.22c-5.3-0.51-5.56,6.14-10.33,6.37c-1.52,1.43-2.36,3.28-2.68,5.53
	c1.93,3.16-0.84,6.56-2.11,9.19c-1.99-1.31-4.36-2.03-6.65-2.84c-2.89-1.07-5.8-2.16-8-4.16c-2.3-1.83,0.88-4.44-0.68-6.35
	c-3.03-0.72-5.29-2.63-6.66-5.54c-5.73-2.28-1.85-9.52-7.43-11.43c-1.31-3.15-1.61-6.54-0.19-10.13
	C424.27,45.34,423.11,38.08,415.74,41.99"/>
<path class="st1" d="M75.75,238.84c0.74-2.09,1.7-3.37,2.8-3.8c1.13-0.46,2.14,0.07,3.03,1.55c0.6,1.21,1.88,1.5,3.85,0.92
	c2.23-0.47,4.99,1.14,8.29,4.82c3.29,3.67,5.38,7.68,6.3,12.03c1.03,4.63,1.61,18.69,1.67,42.22c0.09,23.5-0.4,38.48-1.46,44.9
	c-0.76,4.5-2.29,10.14-4.6,16.97c-2.33,6.82-4.76,12.68-7.3,17.63c-2.39,4.79-8.54,7.85-18.42,9.2c-3.15,0.46-5.55,0.5-7.18,0.14
	c-1.66-0.37-2.7-0.9-3.15-1.49c-0.46-0.6-0.98-1.19-1.59-1.77c-0.58-0.59-1.41-0.93-2.44-0.93c-1.37,0-4.02-1.71-7.98-5.15
	c-3.98-3.46-5.97-5.77-5.97-6.97c0-0.9-1.33-2.79-4.03-5.72c-2.68-2.92-3.82-4.98-3.34-6.2c0.58-1.48,0.06-3.44-1.6-5.83
	c-1.2-2.4-1.75-5.28-1.68-8.65c0.09-3.36,0.45-6.54,1.13-9.55c0.66-2.99,1.31-4.56,1.91-4.71c1.96-0.43,3.93-1.04,5.95-1.8
	c2.02-0.74,3.45-1.23,4.27-1.47c0.82-0.22,1.79-0.13,2.92,0.24c1.13,0.38,2.28,1.16,3.47,2.35c2.56,2.24,3.97,7.37,4.28,15.38
	c0.3,8.02,1.71,13.22,4.26,15.63l3.6,3.58l3.58-3.58c2.53-2.25,4.49-5.69,5.84-10.35c2.26-8.09,3.87-25.75,4.95-53.01
	c1.04-27.26,0.68-43.25-1.13-48.06C74.78,244.39,74.72,241.54,75.75,238.84"/>
<path class="st2" d="M65.45,387.92c-1.27,0-2.32-0.11-3.24-0.32c-2.23-0.49-3.65-1.24-4.45-2.3c-0.4-0.52-0.84-1.03-1.37-1.56
	c-0.13-0.14-0.44-0.23-0.84-0.23c-1.5,0-3.69-0.7-9.47-5.72c-5.6-4.85-6.73-6.97-6.73-8.68c-0.01,0.1-0.35-0.81-3.45-4.17
	c-3.5-3.81-4.64-6.35-3.82-8.53c0.3-0.74-0.2-2.13-1.32-3.74c-1.52-3.01-2.16-6.26-2.09-9.99c0.1-3.5,0.48-6.87,1.2-9.99
	c0.86-3.81,1.66-5.93,3.58-6.43c1.85-0.42,3.76-1.02,5.72-1.72c2.11-0.79,3.59-1.29,4.43-1.54c1.25-0.32,2.67-0.24,4.25,0.27
	c1.46,0.49,2.89,1.45,4.36,2.91c2.96,2.6,4.61,8.17,4.93,16.91c0.34,9.14,2.12,12.68,3.55,14.03l2.04,2.03l1.98-1.99
	c2.31-2.05,4.05-5.16,5.27-9.36c2.18-7.84,3.8-25.49,4.86-52.45c1.28-33.41,0.18-44.09-1-47.17c-1.38-3.48-1.45-6.92-0.19-10.17
	c0.94-2.7,2.3-4.39,4.08-5.09c0.53-0.2,1.07-0.31,1.59-0.31c1.17,0,2.84,0.49,4.24,2.82c0.33,0.11,0.64,0.07,1.19-0.11
	c0.61-0.11,1-0.16,1.42-0.16c2.8,0,5.83,1.83,9.24,5.65c3.57,3.96,5.86,8.35,6.85,13.07c1.08,4.82,1.65,18.79,1.72,42.7
	c0.09,23.83-0.41,38.63-1.49,45.29c-0.77,4.59-2.34,10.42-4.69,17.31c-2.35,6.9-4.84,12.92-7.42,17.94
	c-2.78,5.55-9.37,8.96-20.14,10.42C68.41,387.78,66.8,387.92,65.45,387.92 M61.41,382.54c0.01,0,0.41,0.3,1.81,0.63
	c1.35,0.3,3.54,0.26,6.36-0.14c9.08-1.24,14.69-3.92,16.71-7.99c2.51-4.83,4.9-10.66,7.18-17.35c2.28-6.66,3.79-12.24,4.52-16.59
	c1.01-6.29,1.5-21.27,1.42-44.53c-0.08-23.23-0.62-37.26-1.62-41.73c-0.82-3.94-2.74-7.65-5.78-11c-3.21-3.61-5.05-4.15-5.85-4.15
	c-3.4,0.87-5.52,0.13-6.62-2.1c-0.16-0.27-0.32-0.41-0.4-0.48c0.06,0.13-0.56,0.57-1.24,2.5c-0.87,2.21-0.8,4.47,0.19,6.92
	c1.23,3.3,2.71,11.95,1.28,48.99c-1.08,27.7-2.71,45.2-5.03,53.51c-1.48,5.07-3.66,8.92-6.52,11.44l-5.09,5.12l-5.2-5.21
	c-2.99-2.81-4.62-8.42-4.92-17.13c-0.36-9.12-2.11-12.53-3.52-13.76c-1.05-1.04-1.91-1.66-2.68-1.92c-0.47-0.15-0.87-0.23-1.21-0.23
	c-1.18,0.27-2.53,0.72-4.47,1.45c-1.87,0.69-3.7,1.26-5.52,1.7c-0.17,0.43-0.5,1.34-0.91,3.16c-0.62,2.83-0.99,5.91-1.06,9.1
	c-0.07,2.99,0.42,5.55,1.45,7.59c1.92,2.76,2.53,5.43,1.65,7.67c0.06-0.09,0.3,0.96,2.93,3.81c3.84,4.16,4.65,5.9,4.65,7.26l0,0
	c0.03,0,0.65,1.35,5.15,5.24c4.94,4.28,6.4,4.6,6.54,4.64c2.02,0,3.31,0.83,4.04,1.54C60.3,381.2,60.89,381.9,61.41,382.54"/>
<path class="st1" d="M109.22,282.17c1.92-2.23,5-3.36,9.2-3.36c4.34,0,7.31,1.76,8.87,5.28c1.57,3.51,2.35,10.06,2.35,19.64
	c0,8.24,0.72,15.92,2.14,23.02c1.42,7.11,3.18,11.65,5.28,13.59c1.05,1.21,1.9,1.73,2.58,1.58c0.67-0.14,1.91-1.05,3.72-2.71
	c2.54-2.52,5-7.08,7.4-13.69c1.5-4.35,2.39-7.9,2.7-10.66c0.31-2.78,0.22-7-0.22-12.7l-0.91-13.25l4.95-4.26
	c3.29-2.84,6.07-4.21,8.31-4.16c2.24,0.08,4.95,1.53,8.1,4.39l5.15,4.72l-0.22,20.88c0,10.35-0.26,16.75-0.78,19.2
	c-0.54,2.49-2.13,5.81-4.83,10.01l-9,14.15c-4.62,7.64-11.37,12.12-20.21,13.47c-3.88,0.61-6.58,0.55-8.07-0.11
	c-1.51-0.66-4.5-3.11-8.99-7.3c-4.34-3.88-7.53-7.29-9.66-10.22c-2.09-2.9-3.4-5.26-3.91-7.06c-0.53-1.81-1.17-5.05-1.91-9.77
	c-0.75-4.72-1.64-9.16-2.69-13.37c-1.2-4.8-1.95-11.68-2.27-20.65c-0.12-5.54-0.02-9.35,0.35-11.45
	C107,285.25,107.86,283.53,109.22,282.17"/>
<path class="st2" d="M139.11,370c-1.82,0-3.23-0.24-4.33-0.74c-1.13-0.5-3.33-1.86-9.59-7.71c-4.5-4-7.77-7.46-9.98-10.55
	c-2.27-3.17-3.67-5.7-4.28-7.77c-0.56-1.9-1.19-5.19-1.95-10.05c-0.76-4.62-1.64-9.04-2.65-13.17c-1.26-4.92-2.03-12.04-2.32-21.13
	c-0.16-5.76-0.04-9.68,0.36-11.93c0.46-2.56,1.52-4.69,3.21-6.38c2.28-2.64,5.96-4.02,10.81-4.02c6.62,0,9.61,3.59,10.96,6.62
	c1.71,3.84,2.56,10.58,2.56,20.57c0,8.06,0.68,15.66,2.08,22.58c1.72,8.66,3.6,11.46,4.57,12.37c0.38,0.42,0.66,0.69,0.82,0.84
	c0.38-0.25,1.11-0.79,2.4-1.97c2.23-2.22,4.54-6.55,6.8-12.79c1.41-4.13,2.29-7.55,2.58-10.14c0.27-2.64,0.19-6.75-0.25-12.28
	l-0.96-14.41l5.81-5.01c3.65-3.17,6.81-4.69,9.62-4.69c3.07,0.1,6.19,1.72,9.77,4.96l5.93,5.41l-0.24,21.89
	c0,10.56-0.28,17-0.83,19.66c-0.59,2.78-2.28,6.3-5.16,10.76l-8.96,14.13c-4.97,8.19-12.3,13.07-21.79,14.51
	C142.21,369.85,140.52,370,139.11,370 M118.42,281.08c-3.49,0-6,0.87-7.49,2.59c-1.11,1.13-1.76,2.43-2.05,4.08
	c-0.34,1.93-0.46,5.64-0.31,10.99c0.29,8.78,1.03,15.58,2.18,20.16c1.07,4.29,1.99,8.85,2.74,13.58c0.73,4.62,1.35,7.79,1.85,9.48
	c0.3,1.07,1.18,3.04,3.58,6.39c2.01,2.79,5.14,6.1,9.33,9.86c5.66,5.27,7.69,6.58,8.4,6.91c0.51,0.21,2.95,0.55,6.8-0.05
	c8.23-1.25,14.33-5.32,18.64-12.4l9-14.19c2.52-3.95,4.04-7.05,4.5-9.24c0.36-1.6,0.76-6.15,0.76-18.75l0.21-19.89l-4.42-4.02
	c-3.37-3.06-5.46-3.75-6.61-3.79c-1.23,0-3.3,0.62-6.75,3.6l-4.1,3.52l0.84,12.13c0.46,5.85,0.53,10.13,0.22,13.08
	c-0.31,2.98-1.24,6.63-2.81,11.16c-2.55,7.01-5.12,11.77-7.95,14.57c-2.86,2.62-4.02,3.13-4.84,3.31l-0.71,0.07
	c-1.8,0-3.17-1.35-4.07-2.37c-2.35-2.16-4.25-6.86-5.79-14.65c-1.45-7.21-2.17-15.11-2.17-23.46c0-9.22-0.73-15.5-2.18-18.72
	C124.01,282.34,121.86,281.08,118.42,281.08"/>
<path class="st1" d="M227.34,334.08c-2.1,0-4.48-1.1-7.18-3.27c-2.7-2.17-5.1-4.35-7.21-6.5c-2.09-2.18-3.43-3.27-4.03-3.27
	c-0.75,0-0.81,7.25-0.22,21.78l0.9,21.56l-5.4,3.82c-2.54,1.81-4.16,2.75-4.82,2.82c-0.67,0.09-1.62-0.65-2.82-2.14
	c-1.48-2.1-3.14-3.15-4.94-3.15c-2.7,0-4.53-2.81-5.51-8.42c-0.98-5.63-1.75-17.79-2.35-36.5c-0.76-13.18-0.87-23.14-0.32-29.87
	c0.53-6.74,1.39-11.08,2.57-13.04c1.2-1.91,3.53-3.5,6.96-4.71c4.95-1.79,8.84-2.08,11.68-0.88c2.84,1.19,4.87,2.5,6.07,3.91
	c1.19,1.44,1.79,2.66,1.79,3.72c0,1.48,1.34,4.79,4.04,9.86c2.7,5.11,5.07,8.93,7.19,11.45c1.35,1.51,2.38,2.41,3.14,2.71
	c0.75,0.28,1.65,0,2.7-0.9c1.63-1.2,2.46-2.78,2.46-4.71c0-1.81,2.51-5.28,7.54-10.46c5-5.16,8.87-8.25,11.55-9.31
	c2.56-1.06,5.7-1.2,9.45-0.46c3.44,0.6,6,2.71,7.73,6.3c1.73,3.59,2.67,7.44,2.81,11.55c0.15,4.12,0.53,8.72,1.14,13.83
	c0.59,5.08,1.49,8.9,2.68,11.46c1.66,3.28,3.37,10.62,5.17,22c1.34,7.94,2.04,12.88,2.04,14.83c0,1.93-0.77,3.67-2.27,5.17
	c-2.22,2.54-4.41,3.92-6.49,4.13c-2.12,0.26-4.49-0.66-7.2-2.7c-2.68-2-4.68-4.58-5.95-7.73c-1.27-3.14-2.59-8.98-3.93-17.52
	c-0.6-3.9-1.23-6.96-1.91-9.2c-0.68-2.24-1.2-3.52-1.58-3.83c-0.37-0.31-0.67-0.71-0.9-1.25c-0.21-0.52-0.33-1.38-0.33-2.59
	c0-2.09-0.75-3.13-2.24-3.13c-1.8,0.15-3.53,1.72-5.17,4.72c-1.49,2.83-3.81,5.21-6.96,7.07
	C234.08,333.14,230.78,334.08,227.34,334.08"/>
<path class="st2" d="M199.28,373.29c-1.86,0-3.36-1.59-4.49-2.99c-1.11-1.55-2.15-2.29-3.17-2.29c-3.97,0-6.55-3.48-7.72-10.33
	c-1.02-5.76-1.8-17.79-2.41-36.8c-0.74-13.17-0.86-23.31-0.34-30.11c0.57-7.26,1.5-11.74,2.91-14.05c1.5-2.41,4.18-4.28,8.15-5.67
	c5.45-1.97,9.93-2.27,13.32-0.85c3.23,1.37,5.47,2.84,6.94,4.56c1.56,1.88,2.31,3.57,2.31,5.18c0,0.29,0.17,2.04,3.78,8.81
	c2.61,4.96,4.97,8.67,6.94,11.08c1.18,1.29,1.82,1.77,2.07,1.95c0.05-0.08,0.25-0.2,0.54-0.45c1.2-0.88,1.68-1.75,1.68-2.97
	c0-1.8,0.96-4.63,8.16-12.04c5.28-5.45,9.32-8.67,12.35-9.85c2.89-1.18,6.53-1.4,10.72-0.56c4.14,0.73,7.3,3.27,9.36,7.54
	c1.82,3.85,2.86,8.06,3.01,12.47c0.15,4.01,0.52,8.58,1.1,13.61c0.56,4.84,1.42,8.46,2.51,10.74c1.74,3.52,3.49,10.93,5.35,22.64
	c1.38,8.11,2.06,13.08,2.06,15.18c0,2.55-0.99,4.83-2.93,6.77c-2.51,2.87-5.2,4.52-7.86,4.8c-2.7,0.29-5.61-0.72-8.8-3.15
	c-3.02-2.24-5.27-5.17-6.7-8.7c-1.34-3.32-2.67-9.23-4.08-18.01c-0.57-3.79-1.18-6.78-1.82-8.93c-0.69-2.33-1.04-2.89-1.09-2.95
	c-0.4-0.26-0.92-0.98-1.31-1.84c-0.34-0.82-0.5-1.95-0.5-3.49c0-0.79-0.14-1.02-0.14-1.02c-0.08,0.19-1.29,0.61-3,3.71
	c-1.66,3.16-4.29,5.84-7.79,7.92c-3.49,2.08-7.2,3.13-11.05,3.13c-2.66,0-5.47-1.23-8.62-3.76c-2.78-2.23-5.25-4.49-7.37-6.69
	c-0.28-0.29-0.51-0.54-0.74-0.74c-0.08,2.78-0.02,7.95,0.38,17.59l0.95,22.79l-6.41,4.53c-3.6,2.54-4.92,3.13-5.91,3.21
	L199.28,373.29z M200.74,273.86c-1.93,0-4.28,0.49-6.98,1.48c-2.96,1.04-4.9,2.29-5.8,3.78c-0.56,0.91-1.63,3.67-2.25,12.01
	c-0.52,6.6-0.4,16.55,0.34,29.56c0.6,18.59,1.39,30.75,2.32,36.23c0.72,4.09,1.94,6.54,3.26,6.54c2.57,0,4.86,1.38,6.79,4.1
	c0.43,0.57,0.77,0.86,0.99,1.07c0.45-0.26,1.45-0.86,3.48-2.28l4.38-3.11l-0.85-20.31c-0.89-21.69-0.15-22.45,0.75-23.4l0.67-0.7
	l1.08-0.04c1.21,0,2.46,0.6,5.67,3.93c2,2.09,4.37,4.22,6.97,6.32c2.25,1.82,4.23,2.77,5.77,2.77c3.02,0,5.93-0.84,8.74-2.49
	c2.74-1.66,4.82-3.73,6.11-6.19c2.06-3.78,4.33-5.7,6.98-5.92c2.32-0.12,4.7,1.42,4.7,5.4c0,1.29,0.15,1.69,0.15,1.71
	c0.95,0.91,1.55,1.91,2.57,5.28c0.72,2.37,1.34,5.48,1.97,9.52c1.32,8.32,2.58,14.05,3.79,17.01c1.11,2.76,2.87,5.04,5.21,6.76
	c2,1.53,3.75,2.3,5.18,2.3c1.9-0.2,3.62-1.34,5.45-3.41c1.16-1.17,1.67-2.35,1.67-3.67c0-1.25-0.34-4.76-1.99-14.45
	c-2.17-13.84-3.9-19.27-4.95-21.38c-1.33-2.84-2.28-6.82-2.92-12.21c-0.6-5.13-0.98-9.85-1.15-13.99
	c-0.13-3.78-1.01-7.39-2.57-10.67c-1.4-2.9-3.4-4.55-6.11-5.03c-3.37-0.67-6.05-0.57-8.17,0.31c-1.67,0.66-4.87,2.69-10.81,8.8
	c-6.52,6.74-6.84,8.68-6.85,8.87c0,2.66-1.19,4.93-3.43,6.55c-1.54,1.32-3.3,1.79-4.87,1.15c-1.11-0.43-2.35-1.43-3.98-3.28
	c-2.31-2.74-4.71-6.62-7.52-11.9c-3.81-7.21-4.3-9.62-4.3-10.94c0-0.13-0.06-0.81-1.28-2.25c-0.96-1.14-2.69-2.25-5.19-3.29
	C202.91,274.04,201.92,273.86,200.74,273.86"/>
<path class="st1" d="M291.34,288.91c1.8-0.29,3.95-0.89,6.43-1.8c2.45-0.9,4.69-1.64,6.73-2.24c2.01-0.6,5.12-0.85,9.32-0.78
	c4.18,0.07,9.06,0.78,14.59,2.11c4.95,1.23,8.54,2.48,10.78,3.83c2.25,1.34,5.47,4.19,9.66,8.53c4.63,4.81,7.42,8.06,8.31,9.77
	c0.91,1.72,1.36,4.76,1.36,9.09c0.14,3.75-0.03,6.32-0.55,7.75c-0.53,1.43-1.63,2.83-3.28,4.18c-2.68,2.09-4.77,3.14-6.27,3.14
	c-1.21,0-2.47,0.59-3.84,1.79c-1.35,1.2-3.36,2.64-6.05,4.27c-2.71,1.66-6.15,2.85-10.32,3.59c-2.41,0.31-4.06,0.52-4.96,0.67
	c-0.91,0.15-2.02,0.54-3.37,1.15c-1.36,0.58-2.21,0.96-2.59,1.1c-0.37,0.15-0.84,0.87-1.46,2.15c-0.6,1.27-0.93,2.23-1,2.91
	c-0.09,0.67-0.14,2.19-0.22,4.59c-0.1,2.4-0.1,4.39,0,5.96c0.07,1.57,0.25,4.3,0.54,8.2c0.59,14.24,1.36,23.51,2.25,27.84
	c3.59,15.73,0.6,23.58-8.97,23.58c-3.59,0-7.12-2.31-10.54-6.94c-3.47-4.66-5.41-9.75-5.87-15.29c-1.32-14.95-2.62-33.31-3.82-55
	c-1.19-21.73-1.71-35.27-1.57-40.68c0.31-6.27,0.69-10.06,1.14-11.34C288.19,289.79,289.39,289.07,291.34,288.91 M329.52,310.48
	c-1.79-2.69-4.94-5.08-9.43-7.19c-4.49-2.1-7.11-2.33-7.86-0.67c-0.59,1.35-0.59,6.38,0,15.04c0.61,8.69,1.2,13.04,1.8,13.04
	c2.08,0,4.4-0.88,6.96-2.59c2.53-1.72,4.8-4,6.75-6.84c2.26-3.16,3.44-5.21,3.6-6.17C331.46,314.1,330.88,312.59,329.52,310.48"/>
<path class="st2" d="M308.42,422.58c-4.34,0-8.51-2.65-12.41-7.87c-3.66-4.98-5.78-10.52-6.26-16.46
	c-1.34-14.87-2.64-33.43-3.82-55.08c-1.21-21.64-1.73-35.37-1.58-40.84c0.4-8.68,0.88-10.99,1.25-12.02
	c0.52-1.51,1.93-3.37,5.58-3.65c1.44-0.25,3.47-0.83,5.79-1.67c2.53-0.91,4.8-1.69,6.86-2.29c2.05-0.6,4.86-0.89,8.63-0.89h1.37
	c4.36,0.09,9.42,0.82,15.1,2.19c5.22,1.28,8.95,2.61,11.42,4.09c2.42,1.47,5.74,4.38,10.11,8.89c6.46,6.68,8.06,9.09,8.69,10.32
	c1.09,2.08,1.61,5.39,1.61,10.14c0.16,4.05-0.06,6.79-0.68,8.54c-0.69,1.82-2.01,3.52-3.98,5.13c-3.22,2.51-5.65,3.66-7.71,3.66
	c-0.62,0-1.42,0.42-2.31,1.23c-1.46,1.3-3.56,2.76-6.41,4.49c-2.92,1.81-6.65,3.11-11.11,3.89c-2.48,0.33-4.1,0.55-4.98,0.68
	c-0.44,0.08-1.34,0.33-2.79,0.97c-1.05,0.46-1.82,0.78-2.3,0.99c-0.11,0.19-0.32,0.52-0.61,1.14c-0.68,1.46-0.81,2.06-0.82,2.21
	c-0.07,0.65-0.12,2.13-0.21,4.42c-0.06,2.32-0.08,4.24,0,5.77c0.09,1.56,0.27,4.28,0.57,8.13c0.58,14.11,1.31,23.36,2.2,27.57
	c2.41,10.62,1.94,17.91-1.48,22.18C315.98,421.21,312.69,422.58,308.42,422.58 M312.47,286.34c-3.29,0-5.75,0.26-7.34,0.73
	c-1.99,0.57-4.19,1.32-6.61,2.19c-2.59,0.94-4.9,1.58-6.82,1.9c-0.73,0.08-1.66,0.2-1.82,0.65c-0.17,0.49-0.6,2.48-0.99,10.7
	c-0.14,5.28,0.39,18.9,1.58,40.4c1.18,21.58,2.47,40.1,3.83,54.97c0.4,5.09,2.21,9.83,5.38,14.1c2.99,4.01,5.91,6.06,8.74,6.06
	c2.86,0,4.88-0.79,6.18-2.43c2.44-3.05,2.63-9.41,0.59-18.38c-0.96-4.58-1.71-13.79-2.32-28.26c-0.28-3.84-0.48-6.61-0.55-8.18
	c-0.09-1.62-0.09-3.67,0-6.12c0.07-2.5,0.15-4.1,0.25-4.8c0.1-0.94,0.48-2.09,1.18-3.64c0.94-1.95,1.68-2.86,2.69-3.26
	c0.37-0.15,1.22-0.52,2.5-1.1c1.56-0.68,2.82-1.1,3.93-1.29c0.91-0.15,2.59-0.38,5.02-0.68c3.79-0.68,6.99-1.79,9.44-3.28
	c2.57-1.57,4.5-2.92,5.73-4.01c1.78-1.59,3.57-2.4,5.34-2.4c0.34,0,1.71-0.19,4.89-2.65c1.27-1.05,2.13-2.13,2.51-3.16
	c0.23-0.64,0.58-2.37,0.42-6.87c0-5.02-0.6-7.17-1.09-8.13c-0.57-1.03-2.37-3.47-7.95-9.24c-4.01-4.19-7.14-6.93-9.18-8.16
	c-2.02-1.23-5.45-2.42-10.15-3.56c-5.35-1.31-10.06-2-14.11-2.06L312.47,286.34z M314.03,332.97c-2.49,0-3.12-1.3-4.06-15.13
	c-0.82-11.95-0.4-14.82,0.19-16.14c0.41-0.92,1.51-2.43,4.16-2.43c1.69,0,3.89,0.64,6.73,1.99c4.93,2.28,8.32,4.9,10.37,7.98
	c1.74,2.71,2.39,4.6,2.16,6.19c-0.16,1-0.74,2.63-4.01,7.16c-2.05,3.05-4.53,5.56-7.31,7.42
	C319.36,331.96,316.57,332.97,314.03,332.97 M314.32,303.81c-0.23,0-0.3,0.02-0.3,0.02c0.16,0.1-0.29,2.38,0.48,13.68
	c0.43,6.26,0.82,9.28,1.05,10.72c1.26-0.31,2.66-0.98,4.18-2.01c2.31-1.54,4.35-3.65,6.12-6.24c2.89-4.07,3.21-5.16,3.23-5.27
	c0,0,0.44-0.05-1.47-3c-1.53-2.3-4.39-4.47-8.49-6.36C316.23,304.01,314.87,303.81,314.32,303.81"/>
<path class="st1" d="M364.57,328.24c1.04-1.04,4.86-2.37,11.45-3.93c6.58-1.59,14.41-2.74,23.48-3.48
	c9.05-0.75,17.71,0.21,25.93,2.91c4.34,1.48,8.16,2.24,11.46,2.24c3.74,0,6.21,0.84,7.42,2.47c1.19,1.65,0.88,3.81-0.89,6.5
	c-1.08,1.66-2.25,2.75-3.6,3.26c-1.36,0.54-3.9,0.8-7.63,0.8c-4.95,0-9.78-0.42-14.51-1.24c-4.71-0.83-8.07-1.28-10.11-1.36
	c-2.01-0.07-6.92,0.5-14.69,1.69c-6.9,1.64-12.1,2.21-15.62,1.67c-3.51-0.51-7.01-2.2-10.45-5.04c-2.24-1.8-3.48-3.04-3.7-3.72
	C362.87,330.37,363.36,329.42,364.57,328.24"/>
<path class="st2" d="M380.12,342.27c-1.19,0-2.24-0.09-3.21-0.23c-3.91-0.59-7.81-2.45-11.55-5.54c-3.21-2.58-4.08-3.75-4.41-4.75
	c-0.78-2.34,1.32-4.43,2.03-5.12c1-1,3.28-2.33,12.52-4.53c6.64-1.59,14.67-2.78,23.82-3.53c9.32-0.77,18.33,0.23,26.82,3.02
	c4.13,1.41,7.73,2.13,10.76,2.13c4.57,0,7.57,1.13,9.24,3.42c1.26,1.7,2.1,4.68-0.84,9.1c-1.27,2.02-2.86,3.43-4.66,4.13
	c-1.64,0.64-4.32,0.93-8.44,0.93c-5.04,0-10.05-0.43-14.9-1.26c-5.67-0.99-8.45-1.26-9.8-1.32h-0.03c-1.73,0-5.36,0.29-14.23,1.65
	C387.95,341.63,383.58,342.27,380.12,342.27 M365.5,330.58c0.36,0.35,1.14,1.11,2.72,2.39c3.14,2.59,6.28,4.13,9.37,4.57
	c3.26,0.49,8.22-0.08,14.76-1.64c7.68-1.2,12.5-1.77,14.87-1.77l0.46,0.02c2.16,0.09,5.66,0.55,10.4,1.39
	c4.57,0.79,9.32,1.2,14.11,1.2c4.5,0,6.19-0.39,6.78-0.64c0.9-0.34,1.75-1.14,2.52-2.36c1.23-1.85,1.55-3.16,0.98-3.97
	c-0.73-0.98-2.7-1.52-5.58-1.52c-3.52,0-7.63-0.79-12.18-2.37c-7.89-2.58-16.3-3.52-25.03-2.81c-8.91,0.74-16.71,1.91-23.14,3.43
	c-8.64,2.05-10.15,3.15-10.37,3.32C365.86,330.15,365.65,330.4,365.5,330.58"/>
<path class="st1" d="M453.49,356.53c0-8.7-0.67-19.18-2.01-31.45c-1.35-12.27-1.98-21.56-1.9-27.85c0.04-6.28,1.45-10.32,4.13-12.14
	c0.9-0.57,3.38-0.96,7.43-1.1c3.43-0.17,5.86,0.45,7.27,1.8c1.42,1.33,2.49,3.96,3.15,7.84c0.68,3.91,1.15,10.56,1.47,20
	c0.6,12.28,1.26,20.29,2.01,24.01c0.76,3.76,1.19,9.3,1.34,16.63l0.69,14.6l-6.05,2.48c-2.27,0.88-4.02,1.33-5.3,1.33
	c-1.26,0-2.14-0.21-2.69-0.66c-0.52-0.44-1.35-1.15-2.46-2.02c-1.13-0.9-2.53-1.66-4.16-2.26c-1.19-0.44-1.99-1.38-2.35-2.79
	C453.69,363.53,453.49,360.71,453.49,356.53 M463.6,244.46l6.07-1.35c0.58-0.16,2.12,0.99,4.58,3.48c2.48,2.47,3.71,4.16,3.71,5.05
	c0,1.49-1.05,3.12-3.13,4.84c-2.11,1.72-3.97,2.58-5.62,2.58c-2.26,0-5.32-1.59-9.21-4.71c-3.15-2.71-4.48-4.78-4.04-6.2
	C456.41,246.75,458.96,245.51,463.6,244.46"/>
<path class="st2" d="M465.72,374.97c-1.83,0-3.2-0.39-4.16-1.2c-0.51-0.48-1.33-1.13-2.41-2c-0.93-0.72-2.1-1.37-3.52-1.88
	c-1.34-0.5-3.07-1.66-3.78-4.37c-0.43-1.63-0.62-4.52-0.62-8.99c0-8.56-0.67-19.05-2.01-31.2c-1.36-12.34-2.01-21.8-1.95-28.13
	c0.11-7.16,1.79-11.73,5.2-13.99c0.93-0.62,2.67-1.28,8.58-1.5c3.99-0.2,7.03,0.6,8.93,2.41c1.81,1.72,3.08,4.7,3.82,9.11
	c0.71,4.01,1.2,10.68,1.51,20.31c0.59,12.06,1.25,20.01,1.97,23.67c0.78,3.9,1.22,9.46,1.39,16.99l0.74,16.15l-7.54,3.09
	C469.31,374.49,467.32,374.97,465.72,374.97 M464.52,370.3c0.03,0,0.37,0.1,1.2,0.1c0.67,0,1.99-0.19,4.45-1.17l4.56-1.86
	l-0.61-12.99c-0.14-7.23-0.58-12.69-1.3-16.28c-0.76-3.9-1.46-11.88-2.06-24.37c-0.32-9.33-0.78-15.95-1.43-19.73
	c-0.77-4.41-1.89-6-2.48-6.57c-0.82-0.79-2.47-1.2-4.73-1.2l-0.91,0.03c-5.09,0.18-6.16,0.7-6.26,0.74
	c-1.97,1.32-3.05,4.86-3.13,10.25c-0.07,6.14,0.58,15.43,1.9,27.57c1.37,12.32,2.06,22.97,2.06,31.7c0,4.95,0.26,6.99,0.49,7.84
	c0.21,0.86,0.58,1.12,0.95,1.25c1.86,0.68,3.47,1.55,4.77,2.59C463.14,369.13,463.98,369.84,464.52,370.3 M469.22,261.32
	c-2.81,0-6.27-1.7-10.63-5.22c-2.77-2.38-5.79-5.45-4.78-8.64c0.73-2.37,3.52-3.92,9.27-5.23l6.71-1.42c1.23,0,2.61,0.68,6.1,4.17
	c3.63,3.63,4.36,5.28,4.36,6.66c0,2.25-1.3,4.39-3.96,6.59C473.73,260.31,471.4,261.32,469.22,261.32 M458.11,248.92
	c0.09,0.01,0.46,1.17,3.38,3.69c4.48,3.62,6.77,4.17,7.72,4.17c0.77,0,2.08-0.36,4.18-2.08c2.14-1.76,2.3-2.78,2.3-3.06
	c0.04,0.18-0.33-0.75-3.03-3.45c-1.84-1.84-2.74-2.51-3.14-2.77l-5.42,1.25C459.29,247.77,458.25,248.75,458.11,248.92"/>
<path class="st1" d="M542.44,318.57c0.89,0,1.79-1.88,2.69-5.62c0.9-3.74,2.16-8.69,3.83-14.83c1.63-6.12,3.72-11.37,6.27-15.7
	c1.36-2.1,2.55-3.53,3.6-4.29c1.05-0.73,2.69-1.12,4.94-1.12c3.58,0,6.89,1.34,9.88,4.05c3.01,2.69,4.04,5.31,3.16,7.85
	c-0.47,1.51-1.25,6.16-2.38,13.93c-1.11,7.78-2.13,12.95-3.02,15.51c-1.21,2.98-1.8,6.2-1.8,9.67c0,3.43-0.98,7.92-2.92,13.45
	c-1.21,3.15-2.52,5.59-3.95,7.31c-1.41,1.72-3.61,3.5-6.62,5.28l-7.42,4.73l-7.39-4.28c-3.14-1.95-5.96-4.15-8.43-6.63
	c-2.48-2.46-4.2-4.44-5.18-5.94c-0.96-1.5-2.11-3.56-3.47-6.19c-1.35-2.6-2.02-4-2.02-4.13c-1.35-2.12-2.41-3.99-3.15-5.63
	c-1.95-4.19-3.58-2.61-4.93,4.72c-0.74,4.34-1.42,10.62-2.03,18.87c-0.75,7.78-1.76,12.83-3.03,15.13
	c-1.28,2.34-3.79,3.49-7.52,3.49c-4.18,0-7.72-1.47-10.56-4.49c-1.8-1.93-3.07-4.31-3.83-7.07c-0.75-2.77-1.69-8.12-2.91-16.04
	c-1.19-9.46-1.78-16.98-1.78-22.58c0-5.62,0.74-12.92,2.24-21.9c1.05-5.84,2.2-9.62,3.47-11.35c1.27-1.72,3.84-2.81,7.75-3.24
	c4.33-0.45,9.04,1.08,14.16,4.58c5.07,3.53,11.29,9.64,18.64,18.31C536.66,313.85,541.23,318.57,542.44,318.57"/>
<path class="st2" d="M501.56,370.47c-4.83,0-8.95-1.74-12.21-5.2c-2.07-2.22-3.53-4.93-4.37-8.05c-0.78-2.89-1.75-8.22-2.96-16.3
	c-1.22-9.51-1.83-17.22-1.83-22.91c0-5.73,0.75-13.22,2.28-22.27c1.13-6.35,2.36-10.27,3.88-12.32c1.67-2.27,4.72-3.65,9.33-4.17
	c5.07-0.54,10.15,1.17,15.7,4.97c5.3,3.67,11.54,9.78,19.08,18.73c6.89,8.19,10.07,11.41,11.51,12.66c0.25-0.63,0.57-1.64,0.94-3.19
	c0.89-3.77,2.18-8.74,3.84-14.89c1.68-6.3,3.87-11.79,6.5-16.28c1.55-2.44,2.92-4.04,4.23-4.98c1.47-1.03,3.51-1.52,6.26-1.52
	c4.16,0,7.98,1.55,11.41,4.62c4.64,4.18,4.61,7.9,3.78,10.3c-0.26,0.83-0.89,3.95-2.26,13.5c-1.17,8.02-2.21,13.23-3.14,15.93
	c-1.11,2.79-1.66,5.76-1.66,8.91c0,3.7-1,8.36-3.06,14.21c-1.32,3.48-2.73,6.07-4.33,7.99c-1.61,1.94-3.96,3.84-7.2,5.78l-8.53,5.42
	l-8.61-4.95c-3.33-2.06-6.29-4.39-8.9-7c-2.63-2.62-4.42-4.7-5.47-6.32c-0.98-1.5-2.16-3.58-3.58-6.36
	c-1.25-2.46-1.83-3.59-2.07-4.22c-1.22-1.89-2.19-3.63-2.92-5.16c-0.24,0.82-0.54,1.99-0.86,3.69c-0.72,4.2-1.4,10.47-1.99,18.62
	c-0.79,8.22-1.86,13.47-3.31,16.08C509.37,368.91,506.18,370.47,501.56,370.47 M497.43,283.7c-0.41,0-0.84,0.03-1.25,0.07
	c-3.99,0.46-5.55,1.53-6.15,2.35c-0.61,0.81-1.81,3.22-3.08,10.37c-1.48,8.8-2.2,16.04-2.2,21.51c0,5.51,0.6,13,1.77,22.28
	c1.17,7.75,2.13,13.06,2.85,15.75c0.65,2.4,1.76,4.47,3.29,6.13c2.39,2.52,5.3,3.77,8.89,3.77c4.27,0,5.21-1.75,5.53-2.3
	c0.77-1.42,1.86-5.03,2.76-14.3c0.6-8.35,1.27-14.6,2.04-19.02c0.99-5.35,2.23-8.89,5.19-8.89c2.37,0,3.59,2.61,4.06,3.59
	c0.7,1.56,1.69,3.35,2.99,5.35l0.35,0.81c0.26,0.56,0.86,1.75,1.77,3.52c1.36,2.65,2.48,4.59,3.38,5.97
	c0.86,1.36,2.52,3.24,4.86,5.59c2.36,2.36,5.04,4.49,8,6.31l6.19,3.54l6.24-3.98c2.78-1.68,4.84-3.29,6.08-4.79
	c1.27-1.51,2.45-3.78,3.55-6.67c1.85-5.23,2.78-9.51,2.78-12.64c0-3.74,0.67-7.27,1.95-10.52c0.81-2.31,1.82-7.38,2.9-14.99
	c1.55-10.65,2.13-13.23,2.43-14.25c0.24-0.68,0.86-2.48-2.48-5.51c-2.6-2.32-5.33-3.47-8.37-3.47c-2.3,0-3.25,0.44-3.61,0.71
	c-0.57,0.39-1.52,1.35-3,3.63c-2.37,4.08-4.42,9.17-5.99,15.09c-1.66,6.12-2.92,11.03-3.82,14.78c-0.84,3.55-2.01,7.35-4.9,7.35
	c-1.41,0-2.86,0-15.45-14.96c-7.17-8.49-13.3-14.51-18.18-17.88C504.68,285.15,500.85,283.7,497.43,283.7"/>
<path class="st3" d="M505.15,128.98c148.03,4.89,246.24,149.3,199.13,289.04c-26.23,77.82-100.41,131.4-181.23,136.66
	c-86.07,5.61-163.82-49.39-200.78-124.26c-2.88-5.89-22.62,1.06-20.43,5.47c74.91,151.87,279.98,168.82,386.95,42.15
	c120.51-142.64,5.32-352.72-170.66-358.53C513.06,119.36,494.51,128.62,505.15,128.98"/>
<path class="st4" d="M368.92,442.73l0.21-12.49c0.12-8.14,0.03-10.57-0.03-11.29c-0.11-0.04-0.31-0.07-0.68-0.07
	c-0.68,0-1.64,0.12-2.85,0.36c-0.11,0.01-0.28,0.04-0.43,0.04c-0.97,0-1.94-0.61-2.95-1.92c-1.03-1.31-1.63-2.39-1.25-3.35
	c0.3-0.83,1.17-1.31,5.72-1.97c0.84-0.11,1.76-0.24,2.78-0.39c1-0.14,1.58-0.23,1.75-0.26c0.18-0.05,0.48-0.08,1.33-0.14
	c0.46-0.01,0.83-0.04,1.15-0.04c0.17,0,0.32,0.02,0.45,0.02c0.36,0.01,1.08,0.05,2.14,0.12c2.49,0.09,3.25,0.22,3.6,0.31
	c0.69,0.19,1.36,0.62,2,1.31c0.89,0.99,1.24,1.63,1.24,2.26c0,0.87-0.7,1.55-1.32,2.06c-0.93,0.69-2.12,1.04-3.56,1.04
	c-0.41,0-0.7,0-0.9,0.04c-0.02,0.65-0.06,2-0.09,4.71c-0.03,3.25-0.1,11.25-0.1,11.25c-0.04,4.01-0.11,6.42-0.21,7.33
	c-0.22,1.35-0.47,1.86-0.63,2.12c-0.31,0.5-0.86,0.92-1.75,1.33l-2.12,1.19L368.92,442.73z"/>
<path class="st2" d="M373.68,412.43c0.14,0,0.27,0,0.39,0c0.37,0.01,1.07,0.05,2.14,0.13c1.78,0.08,2.91,0.17,3.37,0.29
	c0.47,0.11,0.93,0.43,1.41,0.95c0.62,0.68,0.93,1.17,0.93,1.45c0,0.27-0.29,0.64-0.87,1.12c-0.68,0.5-1.62,0.77-2.8,0.77
	c-1.18,0-1.86,0.12-2.04,0.37c-0.06,0.16-0.12,2.02-0.15,5.56c-0.04,3.57-0.08,7.3-0.11,11.26c-0.04,3.93-0.1,6.34-0.21,7.21
	c-0.14,0.81-0.29,1.37-0.46,1.63c-0.18,0.28-0.58,0.57-1.24,0.89l-1.38,0.76l-2.52-2.56l0.2-12c0.11-7.31,0.07-11.26-0.11-11.85
	c-0.06-0.19-0.24-0.36-0.51-0.52c-0.28-0.14-0.72-0.21-1.3-0.21c-0.77,0-1.79,0.14-3.07,0.39c-0.07,0.01-0.14,0.01-0.21,0.01
	c-0.57,0-1.24-0.5-2-1.47c-0.86-1.08-1.22-1.81-1.08-2.16c0.13-0.37,1.72-0.79,4.78-1.23c0.82-0.11,1.74-0.24,2.78-0.39
	c1.03-0.17,1.62-0.26,1.8-0.29c0.17-0.05,0.57-0.08,1.18-0.12C373.02,412.43,373.38,412.43,373.68,412.43 M373.68,410.02
	c-0.33,0-0.73,0.01-1.2,0.03c-0.94,0.05-1.28,0.09-1.54,0.15c-0.14,0.04-0.71,0.1-1.68,0.25c-1,0.16-1.92,0.28-2.72,0.39
	c-4.52,0.66-6.14,1.16-6.74,2.76c-0.61,1.57,0.33,3.1,1.44,4.5c0.46,0.59,1.86,2.39,3.89,2.39c0.25,0,0.49-0.03,0.73-0.08
	c0.95-0.18,1.63-0.27,2.09-0.29c0.04,1.35,0.06,4.19-0.02,10.11l-0.2,11.98l-0.01,1l0.7,0.72l2.53,2.57l1.28,1.3l1.6-0.88l1.32-0.74
	c1.08-0.51,1.75-1.06,2.17-1.73c0.36-0.59,0.61-1.39,0.8-2.54l0.01-0.05l0.01-0.06c0.07-0.61,0.18-2.04,0.23-7.46l0.01-0.99
	c0.04-3.59,0.06-6.99,0.1-10.24c0.01-1.66,0.04-2.81,0.06-3.57c1.58-0.06,2.92-0.46,3.97-1.26l0.04-0.04l0.04-0.03
	c0.75-0.62,1.76-1.6,1.76-2.98c0-1.19-0.75-2.17-1.55-3.06c-0.83-0.88-1.68-1.43-2.6-1.66c-0.46-0.12-1.3-0.26-3.85-0.35
	c-1.06-0.08-1.77-0.11-2.13-0.13C374.04,410.02,373.86,410.02,373.68,410.02"/>
<path class="st4" d="M389.61,445.84c-0.18,0-0.35-0.01-0.51-0.06c-0.71-0.15-1.5-0.67-2.5-1.63l-1.83-1.77l-0.28-4.75
	c-0.17-2.83-0.22-5.65-0.16-8.44l0.19-5.02l2.21-0.45c0.79-0.08,1.27-0.12,1.56-0.14l0.15-0.02c0.61,0,1.12,0.24,1.46,0.66
	c0.36,0.48,0.43,0.92,0.42,1.24c0.01,0.03,0.03,0.09,0.07,0.18c0.04,0.08,0.07,0.15,0.12,0.22c0.47-0.42,1.04-0.63,1.66-0.63h0.02
	c0.26-0.24,0.59-0.48,1.01-0.7c0.52-0.3,1.23-0.41,2.17-0.41c2.38,0,4.26,0.68,5.59,2.06c0.73,0.73,1.07,1.52,0.99,2.3
	c-0.08,0.75-0.53,1.42-1.34,1.95c-0.16,0.12-0.31,0.2-0.48,0.26c-0.81,0.45-1.51,0.65-2.16,0.65c-0.83-0.03-1.52-0.32-2.17-0.88
	c-0.15,0.18-0.42,0.54-0.82,1.26c-0.26,0.48-0.79,1.95-1.3,6.4c-0.29,2.53-0.51,4.06-0.7,4.77c-0.23,0.92-0.64,1.62-1.22,2.1
	C391,445.56,390.29,445.84,389.61,445.84"/>
<path class="st2" d="M388.43,424.79c0.23,0,0.4,0.05,0.51,0.21c0.12,0.15,0.17,0.31,0.15,0.46c-0.02,0.14,0.04,0.39,0.18,0.7
	c0.14,0.31,0.34,0.6,0.62,0.86c0.37,0.24,0.62,0.36,0.75,0.36c0.03,0,0.05,0,0.07-0.01c0.07-0.09,0.24-0.25,0.49-0.51
	c0.26-0.25,0.57-0.39,0.95-0.39c0.34,0,0.61-0.1,0.8-0.29c0.19-0.19,0.45-0.37,0.8-0.58c0.34-0.19,0.88-0.27,1.6-0.27
	c2.06,0,3.63,0.56,4.73,1.69c0.93,0.93,0.87,1.74-0.16,2.43c-0.1,0.07-0.2,0.13-0.31,0.15c-0.66,0.36-1.22,0.54-1.67,0.54
	c-0.02,0-0.04,0-0.06,0c-0.46-0.01-0.91-0.22-1.36-0.63c-0.28-0.23-0.54-0.37-0.79-0.37c-0.15,0-0.3,0.05-0.44,0.15
	c-0.37,0.24-0.84,0.84-1.39,1.86c-0.55,0.99-1.02,3.27-1.44,6.82c-0.27,2.41-0.49,3.96-0.67,4.62c-0.17,0.65-0.44,1.16-0.82,1.48
	c-0.51,0.39-0.97,0.59-1.37,0.59c-0.09,0-0.18,0-0.26-0.04c-0.46-0.1-1.11-0.54-1.93-1.32l-1.5-1.45l-0.25-4.28
	c-0.18-2.81-0.23-5.58-0.16-8.33l0.16-4.06l1.29-0.25c0.65-0.07,1.11-0.11,1.38-0.12C388.38,424.79,388.4,424.79,388.43,424.79
	 M388.43,422.38c-0.07,0-0.15,0-0.23,0c-0.3,0.03-0.8,0.08-1.49,0.15h-0.11l-0.11,0.04l-1.29,0.26l-1.86,0.36l-0.07,1.89l-0.16,4.07
	c-0.08,2.84-0.02,5.71,0.16,8.58l0.25,4.26l0.05,0.94l0.68,0.64l1.5,1.46c1.2,1.12,2.14,1.74,3.08,1.94c0.25,0.05,0.51,0.1,0.77,0.1
	c0.95,0,1.91-0.4,2.85-1.11c0.83-0.68,1.38-1.6,1.68-2.78c0.13-0.53,0.34-1.56,0.72-4.92c0.52-4.52,1.01-5.71,1.15-5.94
	c0.04-0.08,0.07-0.15,0.11-0.21c0.64,0.32,1.23,0.41,1.68,0.42l0.04,0.01h0.11c0.84,0,1.71-0.24,2.66-0.74
	c0.24-0.09,0.46-0.21,0.67-0.37c1.38-0.93,1.77-2.04,1.85-2.83c0.09-0.81-0.08-2.02-1.34-3.27c-1.54-1.59-3.71-2.41-6.43-2.41
	c-1.15,0-2.05,0.2-2.76,0.58c-0.33,0.19-0.63,0.37-0.89,0.57c-0.16,0.02-0.31,0.06-0.47,0.1c-0.1-0.23-0.23-0.45-0.39-0.65
	C390.25,422.76,389.41,422.38,388.43,422.38"/>
<path class="st4" d="M421.92,443.36c-0.11,0-0.21,0-0.33-0.01c-1.09-0.1-2.12-0.66-3.04-1.66c-0.71-0.85-1.2-1.48-1.51-2.01
	c-0.12,0.05-0.3,0.1-0.53,0.17c-0.51,0.2-1.31,0.68-2.32,1.39c-1.35,0.96-2.22,1.36-2.93,1.36c-0.35,0-0.66,0.07-0.92,0.22
	c-0.36,0.24-0.79,0.35-1.25,0.35c-0.54,0-1.11-0.14-1.74-0.48c-1-0.5-1.75-1.25-2.24-2.19c-1.39-2.45-1.73-3.35-1.85-3.81
	c-0.24-0.92-0.15-1.86,0.28-2.78c0.4-0.8,0.45-1.25,0.45-1.44c0-0.44,0.09-0.82,0.26-1.16c0.15-0.3,0.35-0.56,0.6-0.79
	c0,0,0.1-0.12,0.32-0.51c0.2-0.38,0.42-0.87,0.64-1.45c0.38-1.16,1.15-2.38,2.35-3.69c1.16-1.28,2.31-2.18,3.42-2.7
	c0.69-0.31,1.27-0.48,1.79-0.51c0.14-0.02,0.28-0.02,0.41-0.02c0.37,0,0.72,0.04,1.04,0.13c0.33,0.09,0.9,0.26,1.77,0.51
	c0.77,0.25,1.66,0.44,2.64,0.61c0.94,0.21,1.75,0.68,2.43,1.41c0.51,0.51,0.83,1.17,0.88,1.9c0.03,0.36,0.04,1.05-0.15,3.33
	c-0.23,2.38-0.25,4.15-0.07,5.3c0.13,0.75,0.36,1.25,0.63,1.36c0.66,0.21,1.59,0.85,2.02,2.48c0.33,1.25,0.21,2.34-0.36,3.21
	C423.93,442.86,423.01,443.36,421.92,443.36 M411.57,429.44c-0.03,0.48-0.29,1.23-1.21,2.99c-0.55,0.97-0.87,1.97-0.98,2.9
	c-0.01,0.14-0.02,0.25-0.02,0.36c0.25-0.18,0.59-0.46,1.07-0.92c1.09-1.04,1.81-1.98,2.12-2.77c0.32-0.89,0.67-1.69,1.03-2.41
	l0.6-1.18l-0.02-0.03c-0.3-0.32-0.48-0.37-0.65-0.37c-0.02,0.01-0.36,0.05-1.19,0.71C411.82,429.11,411.63,429.34,411.57,429.44"/>
<path class="st2" d="M413.77,422.84c0.27,0,0.5,0.03,0.72,0.09c0.31,0.07,0.89,0.26,1.73,0.52c0.84,0.26,1.78,0.48,2.8,0.64
	c0.65,0.12,1.23,0.48,1.75,1.04c0.35,0.35,0.53,0.73,0.57,1.17c0.02,0.46-0.02,1.49-0.16,3.15c-0.24,2.47-0.26,4.34-0.05,5.59
	c0.21,1.25,0.67,2,1.39,2.28c0.62,0.21,1.05,0.77,1.29,1.67c0.24,0.91,0.17,1.66-0.2,2.25c-0.43,0.62-1,0.94-1.69,0.94
	c-0.07,0-0.15,0-0.22-0.02c-0.78-0.08-1.54-0.5-2.26-1.29c-0.75-0.89-1.25-1.57-1.49-2.01c-0.18-0.31-0.35-0.46-0.54-0.46
	c-0.19,0-0.6,0.09-1.26,0.32c-0.69,0.27-1.57,0.79-2.65,1.54c-1.08,0.76-1.83,1.12-2.24,1.12c-0.58,0-1.1,0.15-1.54,0.42
	c-0.18,0.11-0.39,0.17-0.63,0.17c-0.34,0-0.74-0.12-1.19-0.35c-0.78-0.41-1.34-0.96-1.73-1.68c-0.99-1.74-1.57-2.93-1.75-3.57
	c-0.17-0.64-0.09-1.29,0.21-1.94c0.37-0.78,0.57-1.45,0.57-1.97c0-0.24,0.04-0.44,0.13-0.6c0.08-0.18,0.2-0.34,0.33-0.44
	c0.15-0.13,0.33-0.39,0.57-0.83c0.24-0.43,0.47-0.98,0.72-1.62c0.34-1.03,1.04-2.13,2.11-3.29c1.07-1.18,2.08-1.97,3.04-2.42
	c0.54-0.24,1.01-0.38,1.39-0.41C413.57,422.84,413.68,422.84,413.77,422.84 M408.91,437.2c0.48,0,1.26-0.52,2.34-1.56
	c1.24-1.17,2.04-2.27,2.41-3.21c0.31-0.85,0.64-1.64,0.98-2.29c0.34-0.68,0.57-1.1,0.67-1.31c0.11-0.22,0.15-0.39,0.13-0.6
	c-0.02-0.19-0.16-0.43-0.44-0.7c-0.41-0.48-0.91-0.7-1.49-0.7c-0.48,0-1.12,0.32-1.93,0.95c-0.81,0.65-1.21,1.14-1.21,1.53
	c0,0.33-0.36,1.19-1.08,2.57c-0.62,1.12-0.99,2.24-1.1,3.33c-0.12,1.1,0.06,1.76,0.54,1.97C408.79,437.19,408.85,437.2,408.91,437.2
	 M413.77,420.43c-0.17,0-0.34,0.01-0.5,0.01c-0.67,0.08-1.37,0.28-2.16,0.63c-1.32,0.61-2.56,1.57-3.84,2.99
	c-1.29,1.4-2.14,2.77-2.6,4.11c-0.2,0.54-0.38,0.95-0.56,1.27c-0.08,0.15-0.14,0.26-0.18,0.3c-0.33,0.31-0.58,0.67-0.77,1.04
	c-0.25,0.5-0.39,1.07-0.39,1.69c0,0-0.01,0.28-0.32,0.92c-0.56,1.19-0.68,2.41-0.37,3.62c0.16,0.56,0.52,1.54,1.96,4.09
	c0.61,1.14,1.54,2.04,2.74,2.65c0.81,0.43,1.56,0.63,2.29,0.63c0.68,0,1.33-0.19,1.9-0.53c0.01-0.02,0.08-0.06,0.27-0.06
	c0.98,0,2.03-0.46,3.62-1.57c0.78-0.53,1.33-0.88,1.71-1.08c0.28,0.39,0.62,0.82,1.02,1.28l0.03,0.05l0.03,0.02
	c1.14,1.25,2.42,1.94,3.83,2.05c0.14,0.01,0.29,0.03,0.42,0.03c1.48,0,2.78-0.72,3.66-1.96l0.02-0.05l0.02-0.03
	c0.54-0.82,1.04-2.19,0.51-4.16c-0.5-1.91-1.57-2.79-2.49-3.19c-0.04-0.12-0.1-0.28-0.13-0.56c-0.12-0.71-0.2-2.16,0.07-4.95
	c0.2-2.39,0.19-3.14,0.17-3.54c-0.09-1.04-0.52-1.95-1.24-2.68c-0.84-0.9-1.84-1.48-2.98-1.71l-0.06-0.01h-0.05
	c-0.92-0.15-1.76-0.35-2.49-0.57c-0.88-0.26-1.47-0.44-1.79-0.55C414.7,420.5,414.25,420.43,413.77,420.43"/>
<path class="st4" d="M431.17,445.07c-0.73,0-1.24-0.53-1.56-0.93c-0.18-0.25-0.26-0.28-0.26-0.28h-0.03c-0.83,0-1.95-0.53-2.36-2.92
	c-0.23-1.35-0.42-4.15-0.55-8.51c-0.18-3.1-0.2-5.38-0.08-6.99c0.17-2.28,0.5-3.1,0.76-3.52c0.43-0.7,1.18-1.21,2.23-1.61
	c0.8-0.26,1.52-0.41,2.17-0.41c0.49,0,0.96,0.07,1.36,0.25c0.84,0.35,1.45,0.75,1.84,1.24c0.47,0.54,0.7,1.08,0.7,1.61l0,0
	c0,0,0.09,0.42,0.79,1.72c0.49,0.94,0.94,1.68,1.32,2.17c0.12-0.61,0.6-1.42,2.03-2.89c1.3-1.35,2.27-2.1,3.07-2.41
	c0.47-0.2,1.02-0.29,1.6-0.29c0.4,0,0.81,0.03,1.24,0.13c0.79,0.12,1.92,0.6,2.62,2.08c0.46,0.99,0.72,2.03,0.76,3.13
	c0.03,0.88,0.12,1.94,0.25,3.08c0.15,1.28,0.36,1.93,0.51,2.24c0.26,0.54,0.71,1.71,1.28,5.37c0.43,2.52,0.49,3.25,0.49,3.59
	c0,0.77-0.31,1.47-0.88,2.04c-0.66,0.76-1.43,1.22-2.22,1.29c-0.08,0.01-0.17,0.01-0.26,0.01c-0.71,0-1.44-0.29-2.22-0.86
	c-0.78-0.59-1.38-1.36-1.76-2.28c-0.33-0.82-0.65-2.22-0.97-4.29c-0.12-0.83-0.26-1.48-0.4-1.94c-0.06-0.2-0.1-0.35-0.15-0.46
	c-0.08-0.09-0.15-0.19-0.22-0.29c-0.44,0.66-1.05,1.21-1.81,1.66c-0.89,0.54-1.87,0.81-2.87,0.81c-0.77,0-1.55-0.32-2.39-1.01
	c-0.27-0.23-0.52-0.41-0.75-0.61c0.01,0.59,0.03,1.39,0.07,2.39l0.23,5.58l-1.77,1.26c-0.96,0.68-1.33,0.83-1.67,0.86H431.17z"/>
<path class="st2" d="M431.5,421.09c0.34,0,0.63,0.06,0.9,0.17c0.64,0.27,1.11,0.56,1.39,0.9c0.27,0.32,0.41,0.61,0.41,0.84
	c0,0.35,0.31,1.11,0.92,2.26c0.63,1.18,1.17,2.04,1.65,2.63c0.31,0.35,0.55,0.56,0.71,0.63c0.05,0.03,0.09,0.03,0.14,0.03
	c0.15,0,0.31-0.08,0.49-0.25c0.38-0.27,0.57-0.63,0.57-1.07c0-0.41,0.58-1.21,1.73-2.38c1.15-1.2,2.03-1.92,2.65-2.16
	c0.35-0.12,0.73-0.21,1.17-0.21c0.3,0,0.64,0.05,0.99,0.12c0.79,0.12,1.38,0.59,1.78,1.42c0.39,0.83,0.61,1.72,0.65,2.66
	c0.03,0.95,0.11,2,0.25,3.15c0.13,1.17,0.34,2.07,0.62,2.63c0.37,0.76,0.77,2.45,1.18,5.05c0.31,1.81,0.46,2.95,0.46,3.4
	c0,0.44-0.17,0.85-0.52,1.18c-0.51,0.59-1.01,0.9-1.48,0.95c-0.05,0-0.1,0.01-0.15,0.01c-0.45,0-0.94-0.22-1.5-0.62
	c-0.61-0.46-1.06-1.07-1.36-1.79c-0.29-0.72-0.59-2.06-0.9-4.01c-0.14-0.9-0.29-1.6-0.44-2.12c-0.16-0.51-0.28-0.79-0.37-0.86
	c-0.09-0.07-0.15-0.17-0.21-0.3c-0.05-0.13-0.07-0.32-0.07-0.58c0-0.48-0.17-0.72-0.52-0.72c-0.41,0.03-0.81,0.38-1.19,1.06
	c-0.33,0.66-0.87,1.19-1.6,1.64c-0.71,0.43-1.46,0.65-2.26,0.65c-0.48,0-1.03-0.26-1.65-0.76c-0.61-0.49-1.17-0.99-1.64-1.49
	c-0.49-0.5-0.8-0.75-0.93-0.75c-0.18,0-0.19,1.66-0.05,4.99l0.21,4.93l-1.23,0.88c-0.59,0.41-0.97,0.63-1.11,0.65
	c-0.01,0-0.02,0-0.02,0c-0.16,0-0.37-0.17-0.62-0.5c-0.35-0.47-0.73-0.72-1.13-0.72c-0.62,0-1.04-0.63-1.26-1.92
	c-0.22-1.29-0.41-4.07-0.54-8.36c-0.17-3.04-0.2-5.32-0.08-6.85c0.12-1.54,0.33-2.54,0.59-2.98c0.28-0.44,0.81-0.81,1.6-1.08
	C430.41,421.22,431,421.09,431.5,421.09 M431.5,418.69c-0.8,0-1.65,0.18-2.6,0.51c-1.29,0.45-2.25,1.16-2.82,2.08
	c-0.5,0.84-0.79,2.06-0.94,4.06c-0.13,1.66-0.11,4,0.08,7.17c0.13,4.38,0.32,7.23,0.57,8.65c0.48,2.83,1.95,3.63,2.98,3.83
	c0.35,0.42,1.15,1.28,2.41,1.28h0.12l0.15-0.01c0.72-0.07,1.34-0.43,2.24-1.06l1.24-0.88l1.06-0.76l-0.05-1.3l-0.2-4.89
	c0.62,0.28,1.25,0.43,1.87,0.43c1.23,0,2.41-0.33,3.49-0.98c0.24-0.14,0.46-0.29,0.67-0.44c0.03,0.19,0.05,0.39,0.1,0.63
	c0.34,2.19,0.67,3.62,1.05,4.53c0.47,1.14,1.19,2.09,2.15,2.81c0.98,0.73,1.97,1.1,2.94,1.1c0.14,0,0.26,0,0.4-0.02
	c1.08-0.1,2.08-0.67,2.99-1.69c0.76-0.79,1.16-1.77,1.16-2.83c0-0.45-0.05-1.22-0.5-3.8c-0.59-3.76-1.06-5.03-1.4-5.71
	c-0.04-0.08-0.23-0.57-0.38-1.84c-0.13-1.11-0.21-2.12-0.24-2.97c-0.04-1.28-0.34-2.48-0.88-3.61c-0.72-1.5-1.96-2.47-3.49-2.76
	c-0.51-0.1-0.99-0.16-1.45-0.16c-0.74,0-1.44,0.14-2.08,0.39c-0.95,0.39-2.03,1.22-3.46,2.71c-0.5,0.5-0.9,0.96-1.23,1.36
	c-0.06-0.13-0.13-0.25-0.2-0.39c-0.44-0.83-0.6-1.23-0.65-1.38c-0.06-0.74-0.39-1.46-0.97-2.16c-0.53-0.62-1.29-1.14-2.29-1.56
	C432.78,418.81,432.16,418.69,431.5,418.69"/>
<path class="st4" d="M458.76,456.37c-1.23,0-2.36-0.68-3.38-2.09c-0.92-1.23-1.45-2.62-1.58-4.09c-0.3-3.46-0.6-7.72-0.87-12.66
	c-0.27-4.96-0.4-8.12-0.36-9.41c0.1-2.21,0.22-2.69,0.33-2.98c0.11-0.34,0.54-1.16,1.87-1.28c0.23-0.04,0.65-0.17,1.14-0.32
	c0.59-0.23,1.13-0.41,1.61-0.56c0.53-0.14,1.25-0.24,2.19-0.24h0.31c1.05,0.03,2.26,0.21,3.61,0.53c1.27,0.31,2.18,0.64,2.8,1.01
	c0.61,0.36,1.43,1.08,2.46,2.14c1.52,1.59,1.92,2.17,2.11,2.52c0.3,0.59,0.44,1.42,0.44,2.66c0.04,0.99-0.03,1.69-0.21,2.19
	c-0.2,0.53-0.56,1.01-1.1,1.45c-0.89,0.68-1.55,0.99-2.17,1.01c0,0-0.05,0.04-0.11,0.1c-0.37,0.33-0.88,0.68-1.57,1.1
	c-0.75,0.46-1.68,0.79-2.78,1c-0.58,0.08-0.97,0.11-1.15,0.15c-0.03,0-0.18,0.03-0.48,0.17c-0.12,0.07-0.23,0.11-0.31,0.15
	c0,0.02,0,0.02-0.01,0.02c-0.11,0.23-0.12,0.31-0.12,0.33c-0.01,0.09-0.03,0.41-0.05,0.92c-0.01,0.5-0.01,0.94,0,1.29
	c0.02,0.32,0.07,0.95,0.14,1.83c0.17,4,0.36,5.57,0.49,6.22c0.61,2.65,0.46,4.49-0.47,5.65
	C461.09,455.72,460.25,456.37,458.76,456.37 M460.72,429.37c0,0.42,0.03,1.11,0.11,2.21c0.04,0.64,0.08,1.12,0.12,1.48
	c0,0,0.01-0.01,0.02-0.01c0.45-0.29,0.86-0.72,1.22-1.25c0.31-0.43,0.48-0.7,0.56-0.85c-0.04-0.08-0.09-0.17-0.17-0.3
	c-0.28-0.4-0.85-0.82-1.66-1.21C460.85,429.42,460.78,429.39,460.72,429.37"/>
<path class="st2" d="M459.7,423.96c0.09,0,0.19,0,0.3,0c0.96,0.02,2.07,0.18,3.34,0.49c1.13,0.27,1.95,0.56,2.47,0.87
	c0.52,0.31,1.26,0.95,2.21,1.95c1.06,1.1,1.71,1.86,1.91,2.24c0.21,0.41,0.31,1.09,0.31,2.1c0.03,0.84-0.01,1.43-0.14,1.76
	c-0.11,0.33-0.37,0.65-0.73,0.96c-0.62,0.48-1.1,0.72-1.44,0.72c-0.28,0-0.57,0.15-0.88,0.4c-0.3,0.28-0.77,0.61-1.38,1
	c-0.62,0.36-1.41,0.64-2.37,0.8c-0.55,0.08-0.92,0.14-1.13,0.17c-0.21,0.04-0.46,0.12-0.77,0.27c-0.31,0.12-0.51,0.22-0.59,0.25
	c-0.09,0.03-0.21,0.18-0.35,0.48c-0.13,0.29-0.22,0.52-0.23,0.67c-0.01,0.15-0.03,0.5-0.05,1.05c-0.01,0.54-0.01,1.02,0,1.35
	c0.02,0.38,0.06,1,0.13,1.88c0.13,3.28,0.3,5.39,0.51,6.4c0.83,3.59,0.14,5.4-2.05,5.4c-0.83,0-1.64-0.53-2.42-1.61
	c-0.78-1.04-1.23-2.21-1.34-3.48c-0.3-3.43-0.59-7.64-0.87-12.6c-0.28-4.98-0.4-8.09-0.36-9.33c0.07-1.43,0.15-2.3,0.25-2.59
	c0.1-0.3,0.38-0.47,0.82-0.5c0.42-0.06,0.9-0.2,1.47-0.41c0.56-0.2,1.09-0.37,1.54-0.51C458.26,424.01,458.88,423.96,459.7,423.96
	 M460.05,434.64c0.47,0,1.01-0.21,1.59-0.59c0.58-0.4,1.09-0.93,1.54-1.59c0.51-0.7,0.79-1.19,0.82-1.41
	c0.03-0.22-0.1-0.58-0.41-1.05c-0.41-0.63-1.13-1.19-2.16-1.66c-0.58-0.28-1.01-0.41-1.32-0.41c-0.25,0-0.41,0.1-0.48,0.26
	c-0.14,0.31-0.14,1.45,0,3.44C459.77,433.66,459.9,434.64,460.05,434.64 M459.7,421.55L459.7,421.55c-1.07,0-1.87,0.09-2.53,0.29
	c-0.48,0.13-1.04,0.32-1.68,0.57c-0.46,0.16-0.78,0.23-0.97,0.27c-1.34,0.17-2.36,0.94-2.77,2.1c-0.17,0.45-0.29,1.15-0.37,3.27
	c-0.05,1.38,0.08,4.48,0.35,9.57c0.27,4.93,0.58,9.2,0.88,12.69c0.14,1.69,0.75,3.29,1.81,4.71c1.27,1.71,2.74,2.57,4.36,2.57
	c1.97,0,3.1-0.9,3.7-1.65c1.17-1.48,1.4-3.66,0.69-6.69c-0.08-0.46-0.28-1.86-0.45-5.94v-0.07l0-0.03
	c-0.07-0.87-0.11-1.49-0.13-1.83c-0.01-0.28-0.01-0.69,0-1.16c0.01-0.17,0.01-0.31,0.02-0.44c0.2-0.02,0.54-0.08,1-0.14h0.06
	l0.06-0.01c1.25-0.22,2.32-0.61,3.19-1.15c0.66-0.41,1.17-0.75,1.57-1.08c0.73-0.1,1.48-0.5,2.36-1.16l0.04-0.03l0.03-0.03
	c0.7-0.57,1.19-1.24,1.46-1.96c0.24-0.65,0.33-1.46,0.28-2.66c0-1.42-0.18-2.39-0.57-3.15c-0.25-0.48-0.69-1.14-2.32-2.82
	c-1.11-1.15-1.98-1.89-2.69-2.33c-0.75-0.44-1.75-0.81-3.15-1.14c-1.46-0.37-2.72-0.55-3.87-0.57H459.7z"/>
<path class="st4" d="M480.47,446.71c-1.1,0-2.07-0.23-2.88-0.72c-0.73-0.39-1.76-1.24-3.14-2.55l-1.82-1.66v-4.67
	c0-1.63,0.11-3.14,0.33-4.5c0.21-1.39,0.51-2.56,0.86-3.5c0.36-0.96,0.82-1.81,1.37-2.54c0.56-0.75,1.09-1.32,1.64-1.72
	c0.51-0.38,1.07-0.7,1.68-0.98c0.65-0.3,1.19-0.46,1.63-0.53c0.35-0.05,0.73-0.08,1.13-0.15c0.29-0.03,0.52-0.07,0.66-0.08h0.05
	l0.18-0.03c0.63,0,1.1,0.42,1.47,0.85c0.14,0.06,0.65,0.21,2.09,0.21c2.76,0,4.58,0.61,5.57,1.94c0.94,1.24,1.3,3.34,1.14,6.63
	c-0.11,2.49-0.41,4.31-0.92,5.52c-0.51,1.21-1.53,2.68-3.14,4.52c-1.42,1.59-2.62,2.6-3.67,3.12
	C483.61,446.43,482.22,446.71,480.47,446.71 M482.29,429.79c-0.14,0.24-0.31,0.63-0.55,1.21c-2.07,5.39-2.01,7.86-1.58,8.97
	c0.08,0.21,0.12,0.23,0.34,0.23c0.61-0.02,1.18-0.33,1.79-0.89c0.98-0.95,1.38-1.57,1.54-1.93c0.14-0.3,0.38-1.07,0.54-2.96
	l0.21-2.37l-1.21-1.27C482.87,430.27,482.53,429.97,482.29,429.79"/>
<path class="st2" d="M482.16,424.29c0.14,0,0.35,0.16,0.63,0.5c0.3,0.35,1.29,0.53,2.93,0.53c2.34,0,3.87,0.5,4.61,1.46
	c0.74,0.98,1.04,2.93,0.9,5.84c-0.09,2.32-0.38,4.05-0.83,5.13c-0.44,1.08-1.42,2.48-2.92,4.2c-1.31,1.42-2.42,2.39-3.33,2.84
	c-0.91,0.47-2.14,0.7-3.68,0.7c-0.89,0-1.65-0.19-2.29-0.54c-0.64-0.37-1.61-1.16-2.91-2.39l-1.44-1.34v-4.13
	c0-1.58,0.1-3.01,0.31-4.31c0.2-1.31,0.46-2.39,0.8-3.24c0.32-0.86,0.73-1.62,1.22-2.28c0.47-0.65,0.93-1.12,1.38-1.45
	c0.44-0.34,0.93-0.61,1.46-0.86c0.54-0.23,0.98-0.39,1.32-0.43c0.34-0.06,0.71-0.11,1.1-0.17c0.39-0.04,0.63-0.06,0.7-0.06
	C482.12,424.29,482.14,424.29,482.16,424.29 M480.5,441.41c0.04,0,0.11,0,0.15-0.02c0.82-0.03,1.63-0.43,2.45-1.19
	c0.93-0.9,1.54-1.67,1.83-2.31c0.29-0.65,0.51-1.79,0.64-3.36l0.25-2.92l-1.58-1.66c-1.04-1.06-1.76-1.59-2.15-1.59
	c-0.02,0-0.04,0-0.07,0c-0.38,0.08-0.84,0.81-1.39,2.21c-1.79,4.63-2.32,7.9-1.59,9.83C479.29,441.08,479.77,441.41,480.5,441.41
	 M482.16,421.89h-0.28l-0.11,0.01c-0.15,0.01-0.35,0.06-0.65,0.09c-0.41,0.05-0.79,0.12-1.15,0.14c-0.57,0.1-1.18,0.29-1.95,0.63
	c-0.7,0.31-1.33,0.7-1.9,1.1c-0.66,0.48-1.28,1.13-1.9,1.99c-0.6,0.83-1.11,1.77-1.53,2.84c-0.39,1.03-0.69,2.24-0.92,3.74
	c-0.22,1.41-0.34,2.99-0.34,4.68v4.13v1.05l0.76,0.72l1.44,1.34c1.46,1.36,2.54,2.24,3.36,2.72c0.99,0.55,2.16,0.84,3.47,0.84
	c1.95,0,3.51-0.31,4.77-0.96c1.18-0.6,2.5-1.71,4.01-3.39c1.73-1.96,2.82-3.55,3.37-4.89c0.56-1.36,0.88-3.3,1-5.94
	c0.17-3.57-0.27-5.91-1.38-7.39c-1.24-1.62-3.37-2.42-6.53-2.42c-0.78,0-1.22-0.05-1.46-0.08
	C483.83,422.42,483.13,421.89,482.16,421.89 M481.12,438.71c-0.06-1.08,0.18-3.13,1.59-6.86l0.62,0.65l-0.17,1.83
	c-0.16,1.86-0.4,2.48-0.44,2.57c-0.05,0.12-0.31,0.61-1.28,1.53C481.34,438.54,481.23,438.63,481.12,438.71"/>
<path class="st4" d="M499.62,446.55c-0.74,0-1.45-0.27-2.02-0.76c-1.07-0.97-1.79-2.04-2.18-3.15c-0.36-1.01-0.72-2.92-1.11-5.99
	c-0.56-4.4-0.76-9.72-0.6-15.84c0.23-8.99,0.95-10.26,1.74-10.86c0.5-0.39,0.92-0.65,1.42-0.65c0.32,0,0.64,0.09,1.75,0.65
	c0.45,0.23,0.79,0.46,1.05,0.64c0.27,0.22,0.53,0.46,0.78,0.72c0.35,0.39,0.6,0.91,0.74,1.58c0.11,0.48,0.2,0.95,0.3,1.45
	c0.1,0.57,0.16,1.37,0.18,2.46c0.01,1,0.12,7.22,0.12,7.22c0,4.28,0.12,8.2,0.33,11.66c0.3,4.63,0.44,5.63,0.5,5.87
	c0.15,0.67,0.15,1.6,0,2.83l-0.02,0.13l-0.05,0.1c-0.34,0.99-1.13,1.64-2.2,1.86C500.1,446.53,499.85,446.55,499.62,446.55"/>
<path class="st2" d="M496.87,410.49c0.12,0,0.51,0.19,1.2,0.53c0.38,0.2,0.67,0.39,0.88,0.55c0.2,0.15,0.41,0.34,0.61,0.56
	c0.21,0.21,0.36,0.57,0.47,1.03c0.1,0.47,0.19,0.94,0.28,1.41c0.09,0.48,0.14,1.24,0.16,2.25c0.01,1.02,0.03,2.02,0.05,3.02
	c0.03,0.99,0.04,2.38,0.08,4.2c0,4.33,0.11,8.22,0.33,11.72c0.22,3.48,0.4,5.5,0.52,6.05c0.11,0.55,0.11,1.35-0.03,2.42
	c-0.21,0.59-0.65,0.96-1.32,1.08c-0.17,0.05-0.32,0.06-0.49,0.06c-0.47,0-0.88-0.16-1.24-0.46c-0.89-0.83-1.5-1.72-1.82-2.63
	c-0.33-0.94-0.67-2.86-1.06-5.76c-0.55-4.35-0.75-9.55-0.59-15.65c0.15-6.1,0.57-9.42,1.26-9.93
	C496.51,410.64,496.74,410.49,496.87,410.49 M496.87,408.11c-0.9,0-1.59,0.44-2.19,0.92c-1.1,0.83-1.93,2.19-2.17,11.77
	c-0.17,6.16,0.05,11.55,0.61,16c0.54,4.16,0.93,5.57,1.18,6.26c0.45,1.31,1.28,2.5,2.46,3.59l0.02,0.03l0.04,0.04
	c0.79,0.68,1.77,1.05,2.8,1.05c0.32,0,0.64-0.03,0.97-0.11c1.48-0.28,2.61-1.27,3.1-2.62l0.08-0.25l0.03-0.26
	c0.18-1.38,0.17-2.41-0.01-3.26c-0.02-0.09-0.15-0.95-0.46-5.68c-0.21-3.42-0.33-7.31-0.33-11.55c-0.03-1.86-0.06-3.25-0.08-4.26
	c-0.01-0.98-0.03-1.99-0.05-3c-0.02-1.15-0.08-2-0.19-2.61c-0.1-0.54-0.19-1.03-0.3-1.52c-0.2-0.91-0.55-1.61-1.06-2.16
	c-0.28-0.29-0.6-0.59-0.92-0.84c-0.32-0.25-0.7-0.48-1.19-0.74l-0.03-0.02l-0.04-0.01C498.07,408.33,497.5,408.11,496.87,408.11"/>
<path class="st4" d="M508.86,445.46c-0.6,0-1.06-0.12-1.4-0.44c-0.12-0.1-0.28-0.23-0.49-0.42c-0.2-0.14-0.4-0.25-0.65-0.35
	c-0.66-0.26-1.11-0.77-1.3-1.46c-0.08-0.29-0.17-0.83-0.17-2.25c0-1.92-0.14-4.31-0.45-7.06c-0.32-2.85-0.47-5.03-0.45-6.53
	c0.03-1.88,0.51-3.1,1.49-3.76c0.37-0.23,0.89-0.41,2.32-0.46c0.09,0,0.18,0,0.27,0c0.98,0,1.75,0.25,2.28,0.76
	c0.53,0.5,0.87,1.29,1.07,2.46c0.17,0.95,0.29,2.5,0.36,4.75c0.13,2.71,0.28,4.52,0.44,5.3c0.19,0.91,0.29,2.23,0.33,4.02l0.2,4.17
	l-2.19,0.88C509.83,445.33,509.31,445.46,508.86,445.46 M509.65,419.42c-0.81,0-1.73-0.42-2.87-1.34c-0.48-0.42-1.71-1.46-1.31-2.71
	c0.31-1.01,1.5-1.41,2.63-1.68l1.53-0.33h0.15c0.62,0,1.12,0.38,1.89,1.15c0.87,0.88,1.2,1.43,1.2,2.01c0,0.72-0.4,1.41-1.17,2.03
	C511,419.14,510.32,419.42,509.65,419.42"/>
<path class="st2" d="M509.77,414.56c0.16,0,0.5,0.27,1.04,0.81c0.56,0.57,0.85,0.96,0.85,1.16c0,0.33-0.24,0.71-0.72,1.1
	c-0.49,0.39-0.91,0.6-1.29,0.6c-0.51,0-1.22-0.37-2.11-1.08c-0.72-0.62-1.03-1.09-0.92-1.43c0.09-0.31,0.68-0.59,1.75-0.84
	l1.39-0.32H509.77 M508.02,423.92c0.67,0,1.15,0.14,1.44,0.42c0.33,0.31,0.57,0.9,0.72,1.81c0.16,0.88,0.26,2.43,0.33,4.58
	c0.13,2.81,0.29,4.64,0.47,5.51c0.18,0.85,0.27,2.12,0.3,3.79l0.17,3.35l-1.39,0.57c-0.51,0.21-0.92,0.31-1.2,0.31
	c-0.3,0-0.5-0.05-0.62-0.15c-0.12-0.1-0.3-0.25-0.56-0.46c-0.26-0.21-0.58-0.38-0.96-0.52c-0.27-0.1-0.45-0.32-0.53-0.64
	c-0.09-0.31-0.13-0.96-0.13-1.95c0-1.98-0.16-4.38-0.47-7.2c-0.3-2.79-0.45-4.93-0.44-6.35c0.02-1.46,0.33-2.38,0.96-2.81
	c0.2-0.13,0.76-0.19,1.69-0.24C507.88,423.92,507.95,423.92,508.02,423.92 M509.77,412.15h-0.28l-0.31,0.08l-1.35,0.28
	c-0.89,0.23-2.96,0.68-3.53,2.48c-0.42,1.33,0.14,2.68,1.66,3.98L506,419l0.03,0.01c1.36,1.11,2.52,1.62,3.62,1.62
	c0.94,0,1.89-0.38,2.81-1.14c1.06-0.88,1.61-1.88,1.61-2.96c0-1.21-0.81-2.11-1.55-2.87C511.71,412.86,510.91,412.15,509.77,412.15
	 M508.02,421.53c-0.1,0-0.22,0-0.33,0c-1.49,0.06-2.29,0.24-2.92,0.64c-1.32,0.88-2.01,2.5-2.03,4.76
	c-0.02,1.57,0.13,3.74,0.45,6.68c0.29,2.7,0.44,5.04,0.44,6.93c0,1.24,0.07,2.01,0.21,2.56c0.28,1.08,1.01,1.9,2.01,2.29
	c0.21,0.07,0.29,0.13,0.31,0.14l0.03,0.01c0.21,0.17,0.35,0.28,0.45,0.37c0.59,0.5,1.32,0.75,2.2,0.75c0.61,0,1.27-0.16,2.1-0.48
	l1.4-0.56l1.58-0.64l-0.08-1.72l-0.16-3.31c-0.04-1.88-0.15-3.19-0.36-4.21c-0.09-0.4-0.25-1.59-0.42-5.12
	c-0.07-2.33-0.2-3.87-0.37-4.88c-0.25-1.45-0.7-2.45-1.43-3.14C510.37,421.89,509.33,421.53,508.02,421.53"/>
<path class="st4" d="M519.63,444.42c-1.28,0-2.42-0.48-3.28-1.39c-0.56-0.61-0.95-1.32-1.17-2.14c-0.18-0.69-0.42-1.98-0.69-3.81
	c-0.29-2.19-0.42-4-0.42-5.34c0-1.36,0.17-3.1,0.52-5.22c0.29-1.6,0.6-2.55,1.02-3.1c0.5-0.71,1.36-1.1,2.61-1.24
	c0.16-0.01,0.32-0.03,0.47-0.03c1.14,0,2.35,0.44,3.59,1.29c1.27,0.88,2.75,2.33,4.5,4.42c0.8,0.95,1.37,1.59,1.78,2.04
	c0.2-0.81,0.45-1.83,0.79-3.03c0.4-1.5,0.92-2.82,1.56-3.89c0.43-0.69,0.79-1.08,1.16-1.35c0.45-0.33,1.05-0.47,1.83-0.47
	c1.12,0,2.15,0.4,3.07,1.23c1.42,1.27,1.27,2.48,1.05,3.09c-0.01,0.03-0.14,0.57-0.49,2.97c-0.27,1.88-0.51,3.1-0.75,3.76
	c-0.23,0.59-0.34,1.19-0.34,1.82c0,0.92-0.25,2.07-0.73,3.5c-0.34,0.88-0.71,1.54-1.11,2.04c-0.41,0.48-1.01,0.96-1.83,1.47
	l-2.29,1.46l-2.33-1.35c-0.82-0.51-1.54-1.06-2.17-1.7c-0.66-0.66-1.08-1.17-1.35-1.57c-0.26-0.41-0.55-0.91-0.86-1.5
	c-0.08-0.19-0.16-0.32-0.21-0.44c-0.11,0.84-0.21,1.89-0.29,3.14c-0.25,2.61-0.59,3.47-0.84,3.95
	C522.06,443.66,521.29,444.42,519.63,444.42"/>
<path class="st2" d="M533.89,422.34c0.82,0,1.58,0.31,2.26,0.93c0.69,0.62,0.93,1.23,0.72,1.79c-0.11,0.34-0.29,1.42-0.55,3.21
	c-0.25,1.78-0.47,2.95-0.69,3.54c-0.27,0.69-0.41,1.42-0.41,2.21c0,0.79-0.22,1.83-0.67,3.08c-0.27,0.72-0.57,1.27-0.89,1.68
	c-0.32,0.41-0.83,0.8-1.52,1.21l-1.7,1.06l-1.69-0.96c-0.73-0.45-1.37-0.94-1.93-1.51c-0.57-0.57-0.96-1.04-1.19-1.36
	c-0.22-0.34-0.49-0.83-0.8-1.44c-0.3-0.58-0.47-0.9-0.47-0.93c-0.3-0.48-0.54-0.93-0.71-1.29c-0.17-0.36-0.31-0.53-0.46-0.53
	c-0.25,0-0.48,0.53-0.66,1.61c-0.19,1-0.33,2.44-0.48,4.33c-0.17,1.79-0.4,2.94-0.69,3.48c-0.3,0.54-0.86,0.79-1.73,0.79
	c-0.96,0-1.76-0.35-2.42-1.03c-0.42-0.43-0.7-1-0.87-1.61c-0.18-0.66-0.4-1.88-0.67-3.69c-0.28-2.17-0.42-3.89-0.42-5.17
	c0-1.28,0.17-2.96,0.51-5.02c0.24-1.35,0.51-2.21,0.8-2.61c0.3-0.39,0.89-0.64,1.77-0.75c0.11-0.01,0.24-0.01,0.34-0.01
	c0.9,0,1.88,0.35,2.91,1.07c1.16,0.81,2.59,2.2,4.27,4.19c1.82,2.17,2.87,3.26,3.14,3.26c0.2,0,0.41-0.44,0.61-1.3
	c0.21-0.85,0.5-1.99,0.88-3.38c0.37-1.41,0.85-2.62,1.44-3.62c0.31-0.47,0.58-0.81,0.82-0.97
	C532.99,422.42,533.37,422.34,533.89,422.34 M533.89,419.93c-1.05,0-1.89,0.23-2.55,0.72c-0.47,0.35-0.94,0.86-1.42,1.62l-0.04,0.04
	l-0.02,0.04c-0.69,1.19-1.26,2.58-1.69,4.21c-0.08,0.27-0.15,0.55-0.22,0.8c-0.08-0.09-0.17-0.17-0.26-0.3
	c-1.83-2.17-3.38-3.67-4.74-4.61c-1.44-0.99-2.88-1.5-4.28-1.5c-0.2,0-0.39,0.01-0.59,0.03c-1.6,0.19-2.76,0.76-3.46,1.71
	c-0.54,0.72-0.91,1.81-1.23,3.6c-0.37,2.19-0.54,4.02-0.54,5.45c0,1.4,0.14,3.25,0.43,5.46c0.29,1.97,0.53,3.25,0.73,4
	c0.27,1.01,0.75,1.9,1.43,2.64c1.12,1.18,2.57,1.79,4.18,1.79c2.36,0,3.42-1.28,3.84-2.06c0.44-0.79,0.73-2.02,0.94-4.05
	c0.2,0.23,0.43,0.47,0.69,0.75c0.71,0.69,1.51,1.34,2.37,1.88l0.04,0.02l0.03,0.01l1.7,0.97l1.26,0.72l1.23-0.78l1.68-1.06
	c0.92-0.55,1.61-1.12,2.11-1.73c0.49-0.59,0.91-1.36,1.29-2.34l0.02-0.03l0.01-0.03c0.54-1.54,0.8-2.82,0.8-3.88
	c0-0.48,0.08-0.92,0.25-1.32l0.02-0.04l0.02-0.05c0.16-0.48,0.42-1.41,0.8-4c0.31-2.15,0.42-2.72,0.46-2.85
	c0.25-0.78,0.51-2.56-1.42-4.28C536.64,420.46,535.3,419.93,533.89,419.93"/>
<path class="st4" d="M551.51,448.81c-0.24,0-0.48-0.04-0.71-0.08c-2.68-0.39-3.56-0.68-3.99-0.89c-0.7-0.33-1.61-1.08-2.87-2.39
	c-1.28-1.3-2.12-2.44-2.59-3.48c-0.45-1.03-0.79-2.61-1.05-4.84c-0.1-0.85-0.2-1.26-0.26-1.46c-0.52-0.38-1.01-1.22-0.62-2.94
	c0.25-1.05,0.64-2.19,1.19-3.37c0.55-1.21,1.25-2.35,2.07-3.42c0.91-1.2,1.75-1.96,2.58-2.35c0.66-0.31,1.46-0.45,2.44-0.45
	c0.3,0,0.62,0,0.95,0.03c1.24,0.08,2.19,0.39,2.89,0.97c0.37,0.28,1.1,0.98,3.3,3.7c0.66,0.83,1.06,1.48,1.24,2.05
	c0.18,0.57,0.26,1.39,0.26,2.61c0,2.02-0.42,3.4-1.28,4.15c-0.8,0.7-2.27,1.15-4.78,1.5c-1.36,0.19-2.08,0.33-2.45,0.45
	c0,0.05,0.01,0.11,0.01,0.17c0.01,0.28,0.11,0.77,0.49,1.57c0.24,0.53,0.57,0.9,1.01,1.12c0.68,0.33,1.28,0.5,1.75,0.5
	c0.13,0,0.25-0.01,0.36-0.03c0.51-0.14,0.88-0.34,1.1-0.63c0.42-0.56,0.85-1.05,1.27-1.46c0.58-0.59,1.16-0.7,1.54-0.7
	c0.38,0,0.74,0.11,1.08,0.32c0.7,0.45,1.12,1.27,1.28,2.44c0.15,1.15-0.04,2.04-0.58,2.68c-0.25,0.3-0.49,0.68-0.73,1.16
	c-0.45,0.93-1.25,1.7-2.38,2.31C553.16,448.55,552.31,448.81,551.51,448.81"/>
<path class="st2" d="M547.71,424.36c0.26,0,0.55,0,0.85,0.04c1,0.06,1.75,0.3,2.24,0.69c0.5,0.39,1.54,1.58,3.12,3.52
	c0.55,0.7,0.9,1.26,1.02,1.68c0.14,0.42,0.21,1.18,0.21,2.24c0,1.66-0.3,2.72-0.88,3.24c-0.58,0.52-1.96,0.92-4.13,1.21
	c-2.18,0.3-3.34,0.62-3.48,0.96c-0.04,0.1-0.04,0.41,0,0.96c0.03,0.53,0.23,1.18,0.59,1.97c0.36,0.79,0.88,1.35,1.57,1.71
	c0.87,0.41,1.63,0.61,2.29,0.61c0.23,0,0.44-0.01,0.65-0.08c0.78-0.18,1.38-0.53,1.78-1.04c0.38-0.52,0.77-0.97,1.15-1.34
	c0.24-0.24,0.46-0.35,0.69-0.35c0.15,0,0.29,0.06,0.45,0.15c0.38,0.24,0.62,0.75,0.71,1.56c0.1,0.81,0,1.4-0.31,1.79
	c-0.3,0.37-0.6,0.83-0.87,1.38c-0.35,0.68-0.98,1.27-1.88,1.78c-0.71,0.39-1.36,0.6-1.97,0.6c-0.16,0-0.32-0.01-0.48-0.05
	c-1.92-0.28-3.16-0.55-3.71-0.79c-0.55-0.28-1.39-0.98-2.52-2.14c-1.17-1.21-1.95-2.25-2.34-3.14c-0.39-0.89-0.71-2.39-0.95-4.48
	c-0.18-1.32-0.36-2.02-0.56-2.16c-0.46-0.24-0.57-0.85-0.34-1.84c0.22-0.99,0.6-2.01,1.11-3.12c0.51-1.13,1.16-2.19,1.93-3.2
	c0.76-1.01,1.48-1.68,2.13-1.97C546.27,424.47,546.91,424.36,547.71,424.36 M548.26,432.08c0.74,0,1.22-0.16,1.44-0.46
	c0.2-0.32,0.17-0.83-0.11-1.55c-0.23-0.62-0.54-0.95-0.93-0.99c-0.02,0-0.03,0-0.06,0c-0.36,0-0.71,0.26-1.07,0.83
	C546.5,431.35,546.74,432.08,548.26,432.08 M547.71,421.96L547.71,421.96c-1.16,0-2.13,0.18-2.96,0.57c-1,0.47-1.99,1.35-3.02,2.7
	c-0.87,1.14-1.62,2.35-2.2,3.65c-0.59,1.26-1.01,2.47-1.27,3.59c-0.44,1.97,0.09,3.15,0.7,3.83c0.04,0.21,0.1,0.51,0.17,1.01
	c0.27,2.35,0.63,3.99,1.13,5.13c0.53,1.19,1.45,2.45,2.82,3.85c1.39,1.43,2.38,2.23,3.22,2.65c0.57,0.25,1.53,0.58,4.33,0.99
	c0.29,0.06,0.58,0.07,0.87,0.07c1.01,0,2.06-0.29,3.12-0.88c1.33-0.73,2.3-1.68,2.87-2.79c0.2-0.41,0.39-0.72,0.58-0.94
	c0.75-0.92,1.03-2.15,0.85-3.61c-0.2-1.55-0.8-2.65-1.81-3.3c-0.55-0.35-1.14-0.53-1.74-0.53h-0.03c0.19-0.11,0.36-0.23,0.52-0.39
	c1.14-0.99,1.69-2.65,1.69-5.04c0-1.36-0.09-2.28-0.32-2.95c-0.23-0.74-0.69-1.51-1.45-2.45c-2.25-2.8-3.02-3.55-3.5-3.93
	c-0.88-0.7-2.08-1.09-3.58-1.21C548.4,421.97,548.04,421.96,547.71,421.96 M549.29,439.53c0.31-0.04,0.69-0.1,1.15-0.15
	c1.06-0.15,1.94-0.31,2.69-0.5c-0.06,0.04-0.1,0.09-0.15,0.12c-0.46,0.46-0.92,0.99-1.37,1.59c-0.02,0.01-0.13,0.09-0.43,0.17
	c0,0-0.02,0-0.08,0c-0.13,0-0.54-0.03-1.27-0.39c-0.03-0.02-0.21-0.08-0.41-0.51C549.38,439.76,549.33,439.64,549.29,439.53"/>
<path class="st4" d="M589.29,444.74c-0.6-0.07-1.25-0.46-2.25-1.33c-0.24-0.2-0.4-0.34-0.46-0.4c-0.08-0.08-0.2-0.21-0.35-0.4
	c-0.18-0.23-0.32-0.49-0.43-0.72c-0.08-0.18-0.18-0.44-0.3-0.81c-0.11-0.33-0.21-0.7-0.31-1.09c-0.1-0.39-0.19-0.86-0.3-1.43
	c-0.11-0.57-0.2-1.19-0.27-1.86c-0.07-0.63-0.15-1.38-0.23-2.28c-0.08-0.88-0.16-1.83-0.23-2.83c-0.17-2.45-0.36-4.19-0.59-5.24
	c-0.29-1.29-0.42-3.2-0.36-5.82c0.05-2.57,0.26-4.91,0.61-6.99c0.13-0.91,0.52-1.78,1.17-2.53c0.67-0.79,1.45-1.29,2.33-1.49
	c0.29-0.07,0.62-0.08,1.11-0.08c0.98,0,2.63,0.1,4.91,0.27c1.67,0.16,3.07,0.53,4.18,1.08c1.15,0.6,2.15,1.49,2.98,2.67
	c1.39,2.04,1.91,3.98,1.53,5.74c-0.37,1.75-1.65,3.42-3.89,5.12c-1.17,0.94-2.01,1.5-2.62,1.73c-0.61,0.23-1.58,0.38-3.15,0.46
	l-1.79,0.12l-0.05,0.99c-0.04,0.74,0,2.28,0.44,5.61c0.35,2.72,0.73,4.88,1.12,6.4c0.41,1.41,0.43,1.96,0.39,2.28
	c-0.08,0.57-0.38,1.12-0.95,1.7c-0.45,0.46-1.18,1.11-2.05,1.11H589.29z M590.24,419.9c0.05,0.01,0.1,0.01,0.16,0.01
	c0.19,0,0.44-0.05,0.72-0.15c0.74-0.21,1.45-0.68,2.14-1.36c0.73-0.78,0.98-1.19,1.05-1.37c-0.26-0.04-0.89-0.14-2.23-0.19
	c-0.37-0.02-0.7-0.02-1.01-0.02c-0.46,0-0.77,0.02-0.97,0.03c-0.02,0.25-0.04,0.72-0.01,1.47
	C590.12,419.23,590.19,419.7,590.24,419.9"/>
<path class="st2" d="M588.42,410.67c0.95,0,2.55,0.07,4.81,0.26c1.51,0.12,2.76,0.44,3.74,0.94c0.97,0.5,1.82,1.27,2.54,2.3
	c1.2,1.75,1.65,3.36,1.34,4.77c-0.31,1.45-1.45,2.93-3.44,4.44c-1.07,0.85-1.83,1.38-2.33,1.57c-0.47,0.19-1.4,0.31-2.77,0.39
	l-2.89,0.21l-0.1,2.05c-0.06,1.11,0.08,3.04,0.44,5.81c0.37,2.79,0.74,4.97,1.16,6.55c0.27,0.95,0.4,1.59,0.36,1.86
	c-0.04,0.28-0.25,0.59-0.62,0.99c-0.49,0.52-0.89,0.76-1.19,0.76c-0.01,0-0.03,0-0.05,0c-0.3-0.03-0.83-0.38-1.6-1.03
	c-0.2-0.17-0.33-0.28-0.38-0.33c-0.05-0.06-0.14-0.17-0.26-0.31c-0.12-0.17-0.21-0.32-0.28-0.49c-0.07-0.14-0.16-0.36-0.26-0.67
	c-0.11-0.31-0.2-0.64-0.28-1.01c-0.09-0.35-0.18-0.8-0.28-1.36c-0.11-0.55-0.19-1.14-0.26-1.76c-0.07-0.65-0.15-1.39-0.24-2.28
	c-0.09-0.86-0.16-1.8-0.23-2.8c-0.17-2.5-0.38-4.3-0.62-5.41c-0.28-1.19-0.39-3.05-0.33-5.55c0.05-2.5,0.25-4.76,0.59-6.8
	c0.1-0.74,0.4-1.37,0.91-1.97c0.5-0.58,1.05-0.94,1.68-1.08C587.73,410.69,588.02,410.67,588.42,410.67 M590.4,421.11
	c0.32,0,0.68-0.05,1.08-0.18c0.92-0.29,1.8-0.85,2.62-1.67c0.76-0.79,1.22-1.41,1.37-1.88c0.15-0.48,0.04-0.88-0.33-1.26
	c-0.24-0.25-1.25-0.4-3.01-0.46c-0.38-0.03-0.73-0.03-1.05-0.03c-1.1,0-1.74,0.09-1.9,0.28c-0.25,0.24-0.33,1.07-0.29,2.48
	c0.05,1.4,0.21,2.21,0.49,2.41C589.65,421.01,589.98,421.11,590.4,421.11 M588.42,408.25c-0.56,0-0.96,0.04-1.29,0.1h-0.04
	l-0.05,0.02c-1.14,0.25-2.14,0.88-2.97,1.88c-0.79,0.89-1.28,1.97-1.46,3.12c-0.36,2.13-0.56,4.52-0.61,7.11
	c-0.07,2.73,0.07,4.75,0.39,6.14c0.14,0.67,0.36,2.09,0.56,5.04c0.07,0.99,0.15,1.97,0.25,2.87c0.08,0.89,0.16,1.66,0.23,2.3
	c0.08,0.69,0.17,1.34,0.28,1.95c0.11,0.61,0.22,1.09,0.31,1.47c0.11,0.46,0.22,0.85,0.34,1.22c0.13,0.41,0.24,0.7,0.36,0.93
	c0.13,0.31,0.32,0.63,0.56,0.95c0.19,0.23,0.33,0.4,0.42,0.5c0.09,0.09,0.27,0.26,0.58,0.52c1.19,1.03,2.01,1.47,2.85,1.57
	l0.14,0.02h0.19c1.34,0,2.31-0.88,2.93-1.53c0.72-0.73,1.14-1.5,1.25-2.31c0.06-0.59,0.01-1.27-0.44-2.83
	c-0.36-1.41-0.74-3.51-1.08-6.17c-0.41-3.19-0.46-4.64-0.43-5.34l0.77-0.05c1.68-0.08,2.74-0.25,3.49-0.53
	c0.71-0.28,1.61-0.87,2.92-1.92c2.47-1.9,3.88-3.79,4.31-5.83c0.45-2.09-0.12-4.31-1.7-6.63c-0.97-1.38-2.12-2.39-3.44-3.07
	c-1.26-0.65-2.8-1.05-4.6-1.21C591.07,408.35,589.45,408.25,588.42,408.25 M591.28,418.4c0-0.03,0-0.08,0-0.11c0-0.1,0-0.19,0-0.25
	c0.18,0,0.37,0,0.58,0C591.67,418.18,591.48,418.31,591.28,418.4"/>
<path class="st4" d="M622.17,443.36c-0.1,0-0.22,0-0.32-0.01c-1.1-0.1-2.12-0.66-3.04-1.68c-0.72-0.83-1.2-1.47-1.52-1.99
	c-0.13,0.05-0.3,0.1-0.53,0.17c-0.5,0.2-1.31,0.68-2.32,1.39c-1.35,0.96-2.22,1.36-2.93,1.36c-0.35,0-0.65,0.07-0.91,0.22
	c-0.38,0.24-0.8,0.35-1.26,0.35c-0.54,0-1.11-0.14-1.74-0.48c-1-0.51-1.75-1.25-2.24-2.19c-1.39-2.45-1.72-3.35-1.86-3.81
	c-0.25-0.92-0.15-1.86,0.29-2.78c0.39-0.8,0.45-1.25,0.45-1.44c0-0.42,0.09-0.82,0.27-1.16c0.13-0.3,0.34-0.56,0.6-0.79
	c0,0,0.1-0.12,0.32-0.51c0.2-0.38,0.42-0.87,0.65-1.45c0.38-1.16,1.16-2.38,2.35-3.69c1.16-1.26,2.31-2.18,3.41-2.7
	c0.7-0.31,1.28-0.48,1.79-0.51c0.14-0.02,0.28-0.02,0.42-0.02c0.36,0,0.71,0.04,1.04,0.13c0.32,0.09,0.9,0.26,1.75,0.51
	c0.79,0.25,1.68,0.47,2.65,0.61c0.95,0.21,1.75,0.68,2.44,1.41c0.51,0.51,0.83,1.19,0.89,1.9c0.02,0.34,0.04,1.03-0.16,3.33
	c-0.22,2.38-0.25,4.15-0.06,5.3c0.12,0.75,0.36,1.25,0.63,1.36c0.66,0.21,1.59,0.85,2.02,2.48c0.33,1.25,0.21,2.31-0.35,3.21
	C624.18,442.86,623.25,443.36,622.17,443.36 M611.82,429.44c-0.04,0.48-0.29,1.21-1.21,2.99c-0.56,0.97-0.88,1.97-0.98,2.9
	c-0.01,0.14-0.01,0.25-0.02,0.36c0.25-0.18,0.59-0.46,1.07-0.92c1.11-1.04,1.82-1.98,2.13-2.77c0.32-0.91,0.66-1.72,1.03-2.41
	l0.6-1.18l-0.02-0.03c-0.29-0.32-0.48-0.37-0.64-0.37c-0.02,0.01-0.36,0.05-1.19,0.71C612.07,429.11,611.89,429.34,611.82,429.44"/>
<path class="st2" d="M614.03,422.84c0.25,0,0.49,0.03,0.71,0.09c0.31,0.07,0.89,0.26,1.74,0.52c0.84,0.26,1.78,0.48,2.8,0.64
	c0.65,0.12,1.23,0.48,1.74,1.04c0.34,0.35,0.54,0.73,0.57,1.17c0.03,0.46-0.02,1.49-0.16,3.15c-0.23,2.47-0.25,4.34-0.05,5.59
	c0.21,1.25,0.67,2,1.39,2.28c0.62,0.21,1.05,0.77,1.29,1.67c0.23,0.91,0.17,1.66-0.21,2.25c-0.44,0.62-1,0.94-1.69,0.94
	c-0.07,0-0.14,0-0.22-0.02c-0.79-0.08-1.55-0.5-2.26-1.29c-0.75-0.89-1.26-1.57-1.5-2.01c-0.17-0.31-0.35-0.46-0.54-0.46
	c-0.19,0-0.61,0.09-1.26,0.32c-0.69,0.27-1.57,0.79-2.65,1.54c-1.09,0.76-1.83,1.12-2.25,1.12c-0.58,0-1.09,0.15-1.54,0.42
	c-0.18,0.11-0.39,0.17-0.63,0.17c-0.34,0-0.74-0.12-1.19-0.35c-0.77-0.41-1.34-0.96-1.73-1.68c-0.99-1.74-1.58-2.93-1.75-3.57
	c-0.17-0.64-0.11-1.29,0.21-1.94c0.38-0.78,0.57-1.45,0.57-1.97c0-0.24,0.04-0.44,0.13-0.6c0.08-0.18,0.2-0.34,0.33-0.44
	c0.14-0.13,0.33-0.39,0.57-0.83c0.23-0.43,0.47-0.98,0.72-1.62c0.35-1.03,1.04-2.13,2.11-3.29c1.06-1.18,2.08-1.97,3.03-2.42
	c0.55-0.24,1.01-0.38,1.39-0.41C613.82,422.84,613.92,422.84,614.03,422.84 M609.17,437.2c0.47,0,1.26-0.52,2.33-1.56
	c1.25-1.17,2.05-2.27,2.42-3.21c0.32-0.85,0.63-1.64,0.98-2.29c0.34-0.68,0.56-1.1,0.67-1.31c0.1-0.22,0.15-0.39,0.14-0.6
	c-0.02-0.19-0.16-0.43-0.43-0.7c-0.42-0.48-0.91-0.7-1.5-0.7c-0.48,0-1.13,0.32-1.93,0.95c-0.81,0.65-1.21,1.14-1.21,1.53
	c0,0.33-0.36,1.19-1.08,2.57c-0.62,1.12-0.98,2.24-1.11,3.33c-0.12,1.1,0.07,1.76,0.55,1.97
	C609.04,437.19,609.09,437.2,609.17,437.2 M614.03,420.43c-0.18,0-0.34,0.01-0.51,0.01c-0.66,0.08-1.36,0.28-2.16,0.61
	c-1.3,0.61-2.58,1.62-3.85,3.01c-1.29,1.4-2.14,2.77-2.6,4.11c-0.2,0.54-0.38,0.95-0.56,1.27c-0.08,0.15-0.15,0.26-0.18,0.3
	c-0.33,0.32-0.59,0.68-0.78,1.05c-0.24,0.49-0.37,1.06-0.37,1.68c0,0-0.03,0.28-0.33,0.92c-0.56,1.19-0.68,2.41-0.36,3.62
	c0.16,0.56,0.51,1.54,1.96,4.09c0.61,1.14,1.53,2.04,2.74,2.65c0.8,0.43,1.55,0.63,2.29,0.63c0.68,0,1.33-0.19,1.89-0.53
	c0.01-0.02,0.09-0.06,0.28-0.06c0.99,0,2.04-0.46,3.62-1.57c0.77-0.54,1.33-0.88,1.71-1.08c0.28,0.39,0.62,0.82,1.02,1.28l0.03,0.05
	l0.03,0.02c1.13,1.25,2.41,1.94,3.82,2.05c0.15,0.01,0.29,0.03,0.43,0.03c1.48,0,2.78-0.72,3.66-1.96l0.03-0.05l0.03-0.03
	c0.52-0.82,1.03-2.19,0.51-4.16c-0.51-1.91-1.58-2.79-2.5-3.21c-0.03-0.09-0.09-0.25-0.13-0.53c-0.12-0.71-0.2-2.16,0.07-4.95
	c0.2-2.39,0.19-3.14,0.16-3.57c-0.08-1.02-0.5-1.91-1.22-2.66c-0.86-0.9-1.85-1.48-3-1.71l-0.05-0.01h-0.05
	c-0.92-0.15-1.76-0.35-2.49-0.57c-0.89-0.26-1.47-0.44-1.79-0.55C614.95,420.5,614.5,420.43,614.03,420.43"/>
<path class="st4" d="M631.85,445.84c-0.18,0-0.35-0.01-0.51-0.06c-0.7-0.15-1.5-0.67-2.51-1.63l-1.83-1.77l-0.29-4.75
	c-0.18-2.84-0.22-5.68-0.15-8.44l0.19-5.02l2.22-0.45c0.78-0.08,1.27-0.12,1.55-0.14l0.16-0.02c0.61,0,1.12,0.24,1.46,0.68
	c0.35,0.46,0.43,0.9,0.41,1.22c0.01,0.03,0.04,0.09,0.07,0.18c0.03,0.08,0.07,0.15,0.12,0.22c0.47-0.41,1.03-0.63,1.66-0.63
	c0,0,0.01,0,0.01,0c0.27-0.24,0.61-0.48,1.01-0.7c0.53-0.3,1.24-0.41,2.16-0.41c2.39,0,4.27,0.68,5.6,2.06
	c0.73,0.73,1.06,1.52,0.99,2.3c-0.08,0.75-0.53,1.42-1.34,1.95c-0.15,0.12-0.31,0.2-0.48,0.26c-0.81,0.45-1.51,0.65-2.16,0.65
	c-0.83-0.03-1.52-0.32-2.17-0.88c-0.15,0.18-0.43,0.54-0.82,1.26c-0.26,0.48-0.78,1.95-1.3,6.4c-0.3,2.54-0.51,4.06-0.7,4.77
	c-0.23,0.92-0.64,1.63-1.23,2.1C633.24,445.56,632.53,445.84,631.85,445.84"/>
<path class="st2" d="M630.67,424.79c0.23,0,0.41,0.05,0.51,0.21c0.12,0.15,0.17,0.31,0.15,0.46c-0.02,0.14,0.04,0.39,0.18,0.7
	c0.15,0.31,0.35,0.6,0.62,0.86c0.38,0.24,0.62,0.36,0.75,0.36c0.04,0,0.06,0,0.07-0.01c0.07-0.09,0.22-0.25,0.49-0.51
	c0.26-0.25,0.57-0.39,0.95-0.39c0.34,0,0.6-0.1,0.8-0.29c0.19-0.19,0.46-0.37,0.8-0.58c0.34-0.19,0.87-0.27,1.59-0.27
	c2.06,0,3.63,0.56,4.74,1.69c0.93,0.93,0.88,1.74-0.16,2.43c-0.1,0.07-0.2,0.13-0.3,0.15c-0.67,0.36-1.22,0.54-1.67,0.54
	c-0.02,0-0.03,0-0.05,0c-0.46-0.01-0.91-0.22-1.37-0.63c-0.28-0.23-0.54-0.37-0.79-0.37c-0.15,0-0.3,0.05-0.44,0.15
	c-0.37,0.24-0.84,0.84-1.39,1.86c-0.55,0.99-1.03,3.27-1.45,6.82c-0.28,2.41-0.5,3.96-0.67,4.62c-0.17,0.65-0.45,1.16-0.83,1.48
	c-0.51,0.39-0.97,0.59-1.36,0.59c-0.09,0-0.18,0-0.25-0.04c-0.46-0.1-1.12-0.54-1.93-1.32l-1.49-1.45l-0.26-4.28
	c-0.18-2.81-0.22-5.58-0.16-8.33l0.16-4.06l1.28-0.25c0.65-0.07,1.11-0.11,1.39-0.12C630.62,424.79,630.64,424.79,630.67,424.79
	 M630.67,422.38c-0.07,0-0.15,0-0.23,0c-0.3,0.03-0.8,0.08-1.49,0.15h-0.11l-0.11,0.04l-1.29,0.26l-1.87,0.36l-0.07,1.89l-0.15,4.07
	c-0.08,2.81-0.02,5.68,0.15,8.58l0.26,4.28l0.06,0.92l0.67,0.64l1.5,1.46c1.18,1.12,2.14,1.74,3.08,1.94
	c0.26,0.05,0.52,0.1,0.78,0.1c0.96,0,1.92-0.4,2.85-1.13c0.81-0.66,1.37-1.57,1.67-2.76c0.13-0.52,0.33-1.56,0.72-4.92
	c0.52-4.52,1.02-5.71,1.16-5.95c0.04-0.07,0.07-0.14,0.11-0.19c0.63,0.32,1.23,0.41,1.67,0.42l0.05,0.01h0.1
	c0.83,0,1.71-0.24,2.67-0.74c0.22-0.09,0.45-0.21,0.65-0.37c1.39-0.93,1.77-2.04,1.86-2.83c0.07-0.81-0.09-2.02-1.35-3.27
	c-1.54-1.59-3.72-2.41-6.44-2.41c-1.14,0-2.04,0.2-2.75,0.58c-0.33,0.19-0.63,0.37-0.89,0.57c-0.16,0.02-0.31,0.06-0.48,0.1
	c-0.1-0.24-0.24-0.46-0.4-0.67C632.51,422.78,631.66,422.38,630.67,422.38"/>
<path class="st4" d="M650.8,448.12c-0.66,0-1.4-0.31-2.33-0.97c-1.02-0.77-1.68-1.68-1.98-2.72c-0.26-0.9-0.38-2.21-0.4-3.98
	c-0.02-1.68-0.06-2.85-0.13-3.65c-0.13-1.27-0.29-5.26-0.47-12.21c-0.13-4.78-0.19-7.67-0.15-8.8c0.04-1.55,0.33-2.46,0.92-2.99
	c0.55-0.61,1.45-0.97,2.5-0.97c0.31,0,0.46-0.06,0.51-0.08c0.02,0,0.04-0.02,0.06-0.02c0.27-0.31,0.65-0.49,1.09-0.49h0.1l0.14,0.01
	c0.59,0.11,0.95,0.53,1.19,0.91c0.47,0.64,0.88,1.93,0.79,8.55c-0.03,2.04-0.03,3.43,0,4.41c0.85-1.12,1.61-1.94,2.3-2.52
	c0.78-0.65,1.43-0.95,2.07-0.95c0.52,0,1,0.2,1.34,0.59c-0.01,0,0-0.01,0.02-0.01c0.04,0,0.17,0.03,0.38,0.03
	c0.89,0,1.67,0.46,2.21,1.32c0.5,0.79,0.6,1.67,0.31,2.52c-0.15,0.45-0.51,1.05-3.21,4.14c-1.29,1.47-1.93,2.26-2.25,2.69
	c0.27,0.3,0.75,0.86,1.61,1.74c1.47,1.5,2.89,3.1,4.24,4.73c1.55,1.87,2.39,3.25,1.73,4.37c-0.28,0.45-0.65,0.76-1.14,1.03
	c-0.48,0.27-1.07,0.43-1.8,0.52c-0.15,0.01-0.3,0.01-0.45,0.01c-0.57,0-1.17-0.1-1.78-0.31c-0.78-0.26-1.61-0.78-2.53-1.61
	c-0.62-0.54-1.21-1.21-1.78-2.02c-0.02,0.61-0.04,1.22-0.08,1.86c-0.08,1.56-0.31,2.62-0.73,3.31c-0.67,1-1.39,1.5-2.19,1.53
	L650.8,448.12z"/>
<path class="st2" d="M650.42,412.43c0.01,0,0.02,0,0.04,0c0.11,0.01,0.24,0.16,0.41,0.43c0.45,0.56,0.63,3.17,0.58,7.84
	c-0.08,4.65,0.02,7.01,0.29,7.04c0.05,0.02,0.09,0.03,0.14,0.03c0.22,0,0.53-0.27,0.89-0.79c1.13-1.63,2.11-2.77,2.93-3.48
	c0.54-0.44,0.96-0.66,1.3-0.66c0.18,0,0.33,0.08,0.45,0.2c0.28,0.28,0.71,0.41,1.3,0.41c0.48,0,0.87,0.25,1.18,0.75
	c0.32,0.5,0.38,1,0.21,1.53c-0.14,0.37-1.13,1.62-2.99,3.71c-1.85,2.12-2.78,3.3-2.78,3.53c0,0.17,0.73,1.01,2.19,2.52
	c1.46,1.51,2.85,3.07,4.17,4.67c1.32,1.59,1.86,2.6,1.62,2.99c-0.13,0.2-0.37,0.4-0.69,0.59c-0.33,0.2-0.77,0.31-1.32,0.37
	c-0.11,0.02-0.22,0.02-0.34,0.02c-0.44,0-0.91-0.1-1.4-0.27c-0.62-0.2-1.32-0.66-2.11-1.36c-0.79-0.7-1.54-1.64-2.26-2.79
	c-0.69-1.14-1.12-1.7-1.29-1.7c-0.14,0-0.21,0.52-0.21,1.59c0,1.06-0.04,2.26-0.11,3.57c-0.06,1.34-0.25,2.24-0.56,2.75
	c-0.41,0.62-0.82,0.94-1.21,0.96c-0.02,0-0.02,0-0.04,0c-0.38,0-0.93-0.26-1.63-0.77c-0.79-0.55-1.3-1.24-1.52-2.04
	c-0.23-0.78-0.35-2.01-0.36-3.68c-0.02-1.66-0.07-2.9-0.13-3.72c-0.13-1.25-0.29-5.28-0.46-12.15c-0.14-4.7-0.19-7.61-0.16-8.73
	c0.03-1.14,0.2-1.83,0.51-2.12c0.41-0.43,0.99-0.68,1.7-0.68c0.38,0,0.69-0.03,0.95-0.15c0.25-0.1,0.42-0.2,0.49-0.3
	C650.26,412.46,650.33,412.43,650.42,412.43 M650.42,410.02c-0.62,0-1.2,0.22-1.66,0.59c-1.7,0-2.78,0.72-3.4,1.36
	c-1,1-1.18,2.53-1.22,3.75c-0.04,1.17,0.01,4.1,0.14,8.89c0.18,6.97,0.34,11.02,0.49,12.34c0.05,0.68,0.09,1.88,0.11,3.5
	c0.02,1.89,0.17,3.29,0.46,4.31c0.36,1.3,1.17,2.43,2.39,3.34c1.19,0.83,2.15,1.22,3.07,1.22h0.06h0.09c1.2-0.06,2.25-0.75,3.1-2.04
	l0.04-0.05l0.02-0.03c0.42-0.72,0.68-1.6,0.83-2.82c1.02,0.9,1.97,1.5,2.9,1.79c0.73,0.25,1.46,0.37,2.16,0.37
	c0.2,0,0.38,0,0.57-0.02c0.91-0.1,1.66-0.31,2.3-0.68c0.63-0.34,1.13-0.81,1.48-1.33l0.05-0.05l0.03-0.07
	c1.11-1.9-0.37-3.97-1.85-5.76c-1.37-1.63-2.81-3.26-4.29-4.78c-0.37-0.4-0.67-0.72-0.9-0.97c0.36-0.43,0.86-1.02,1.57-1.83
	c2.87-3.28,3.23-3.94,3.45-4.53c0.41-1.23,0.25-2.49-0.43-3.58c-0.74-1.21-1.86-1.86-3.14-1.88c-0.52-0.41-1.15-0.63-1.82-0.63
	c-1.22,0-2.2,0.7-2.83,1.23c-0.12,0.09-0.23,0.18-0.34,0.29c0-0.38,0-0.79,0.01-1.23c0.1-6.93-0.37-8.41-1.01-9.25
	c-0.26-0.42-0.85-1.23-1.95-1.41l-0.21-0.04L650.42,410.02z"/>
</svg>
