<svg id="Capa_1" data-name="Capa 1" xmlns="http://www.w3.org/2000/svg" viewBox="0 0 676 178"><defs><style>.cls-1{fill:#ab0033;}.cls-2{fill:#f18a00;}</style></defs><circle class="cls-1" cx="583.58" cy="45.28" r="11.05"/><circle class="cls-1" cx="212.87" cy="45.3" r="11.05"/><path class="cls-1" d="M308.1,40.71a10.78,10.78,0,0,0-7.75-6.15,17.43,17.43,0,0,0-4.4-.3l-5.58,0L285.8,71.43a37.8,37.8,0,0,0-4.31-3.76A50.23,50.23,0,0,0,276,64.86a22.76,22.76,0,0,0-7.45-1.79,38,38,0,0,0-26.83,8.78A45.2,45.2,0,0,0,231.18,85a53,53,0,0,0-5.88,19.35,40.64,40.64,0,0,0,1,16,36.87,36.87,0,0,0,6.5,13c3.06,3.75,6.44,7.07,10.78,9.23a14.44,14.44,0,0,0,3.72,1.78,42.73,42.73,0,0,0,12.11,1.37c5.15-.23,9.3-1.23,12.48-3a31.55,31.55,0,0,0,7.1-5h0a2.55,2.55,0,0,0,.13.29,10.87,10.87,0,0,0,3.3,4.15,11.2,11.2,0,0,0,4.51,2,17.93,17.93,0,0,0,4.38.24h5.58l4.69-38.06c.1-.64.2-1.28.28-1.94l6.95-56.64A11.15,11.15,0,0,0,308.1,40.71Zm-26.81,61.93a42.31,42.31,0,0,1-2.43,13.56,28,28,0,0,1-5,8.53,17.12,17.12,0,0,1-5.92,4.43,17.63,17.63,0,0,1-5.3,1.45,16.5,16.5,0,0,1-5.3-.6,11.78,11.78,0,0,1-5.63-3.41,20.72,20.72,0,0,1-4.35-7.67q-1.77-5-1.44-13.22a41.77,41.77,0,0,1,2.43-13.56,26.42,26.42,0,0,1,5-8.44,17.3,17.3,0,0,1,5.9-4.35,17.63,17.63,0,0,1,5.3-1.45,16.79,16.79,0,0,1,5.3.6,12.22,12.22,0,0,1,5.65,3.32,19.92,19.92,0,0,1,4.35,7.59Q281.61,94.46,281.29,102.64Z"/><path class="cls-1" d="M215.05,65.53a11.31,11.31,0,0,0-4.52-2,17.87,17.87,0,0,0-4.37-.24H200.6l-8.3,67.56a12.31,12.31,0,0,0,.19,5.52,12,12,0,0,0,2.68,4.69,10.64,10.64,0,0,0,4.6,2.76,18.3,18.3,0,0,0,5,.52h6l8.31-67.73a11.1,11.1,0,0,0-.73-7A11,11,0,0,0,215.05,65.53Z"/><path class="cls-1" d="M403.05,35.19c-.06-.24-.35-.92-.35-.92H330.44a10.49,10.49,0,0,0-6.21,1.54,10,10,0,0,0-3.6,3.54,13.9,13.9,0,0,0-1.56,4.2c-.3,1.48-1,7.45-1.1,8.23h60.59c-6.5,6.43-13.89,13.67-20.06,19.62q-4.8,4.59-9.82,9.52t-9.84,9.7q-4.81,4.76-9.28,9.09l-8,7.74a51.22,51.22,0,0,0-9.45,12.44,44.46,44.46,0,0,0-4.62,17.66,33.8,33.8,0,0,0,.3,6.81s73,0,73.22,0a9.94,9.94,0,0,0,5.53-1.48,10,10,0,0,0,3.6-3.55,13.69,13.69,0,0,0,1.55-4.2,33.23,33.23,0,0,0,.58-4.14c.12-1.3.49-3.68.59-4.67H328.15c6.34-6.15,13.24-12.44,19.29-18.36q4.8-4.59,9.82-9.52t9.93-9.69c3.27-3.18,6-5.87,9-8.82s5.65-5.56,8-7.83a113.68,113.68,0,0,0,11.61-12.77,43.28,43.28,0,0,0,5.51-9.42,24.17,24.17,0,0,0,2-7.91A22.14,22.14,0,0,0,403.05,35.19Z"/><path class="cls-1" d="M585.71,65.51a11.11,11.11,0,0,0-4.52-2,17.78,17.78,0,0,0-4.37-.25h-5.56L563,130.86a12.07,12.07,0,0,0,.19,5.53,11.9,11.9,0,0,0,2.67,4.69,10.72,10.72,0,0,0,4.61,2.76,18.23,18.23,0,0,0,5,.52h6l8.31-67.74a11.06,11.06,0,0,0-.73-7A10.87,10.87,0,0,0,585.71,65.51Z"/><path class="cls-1" d="M555.38,85.13A32.43,32.43,0,0,0,548,72a27.39,27.39,0,0,0-11.52-7.18,34.69,34.69,0,0,0-13.38-1.62,27.89,27.89,0,0,0-6.94,1.54,43.51,43.51,0,0,0-5.87,2.56,37.07,37.07,0,0,0-4.54,2.82c-1.26.92-2.13,1.61-2.66,2.07,0-.19-.06-.38-.1-.55a2.34,2.34,0,0,0-.31-1.06c-.12-.34-.25-.67-.39-1a11.06,11.06,0,0,0-3.3-4.15,10.93,10.93,0,0,0-4.46-2,27.24,27.24,0,0,0-3.89-.34h-6s-8.32,67.85-8.32,67.89a11,11,0,0,0,.74,6.92,10.78,10.78,0,0,0,7.75,6.15,16,16,0,0,0,3.94.3l.09,0h6l5-40.85a41.38,41.38,0,0,1,3.22-12.3,25.47,25.47,0,0,1,5.41-7.86,17.89,17.89,0,0,1,6.83-4.11,20.88,20.88,0,0,1,7.31-1,18.15,18.15,0,0,1,6.48,1.45A10.87,10.87,0,0,1,534,84a20.07,20.07,0,0,1,2.57,8.29,55.11,55.11,0,0,1-.32,13.07l-3.13,25.47s0,0,0,.05h0a11.1,11.1,0,0,0,.73,7,10.87,10.87,0,0,0,3.3,4.15,11.07,11.07,0,0,0,4.45,2,15.91,15.91,0,0,0,3.93.3l.12,0h6l4.89-39.82Q557.9,93.25,555.38,85.13Z"/><path class="cls-1" d="M469.8,76.62q-2.78-6.77-7.54-9.76a27.18,27.18,0,0,0-10.42-3.93,79.22,79.22,0,0,0-16.52-1.46c-9.49,0-17.49,1.14-20.06,2.69-.34.17-.66.34-1,.53a10,10,0,0,0-3.61,3.56,13.94,13.94,0,0,0-1.57,4.22,32,32,0,0,0-.57,4.16c-.15,1.53-.18,2.59-.18,2.59l.39-.09a86.58,86.58,0,0,1,17.77-1.53c7.77,0,14.6.69,18.55,1.71a8.9,8.9,0,0,1,6.19,4,14.63,14.63,0,0,1,1.89,6.81,25.75,25.75,0,0,1-1,6.46Q428.6,92.81,414.33,98t-16.45,20.29a24.51,24.51,0,0,0,1,12.42,20.48,20.48,0,0,0,6.22,8.65,26.22,26.22,0,0,0,10,5,42.36,42.36,0,0,0,12.16,1.37q7.75-.34,12.53-3a32.14,32.14,0,0,0,7.13-5l.25-.23.22.45a10.85,10.85,0,0,0,7.75,6.15,18,18,0,0,0,4.41.3h5.56L471,96.06Q472.56,83.39,469.8,76.62ZM448,119.78a18.5,18.5,0,0,1-4.92,6.59,17.11,17.11,0,0,1-6.49,3.34,27.57,27.57,0,0,1-7.14.94,28.46,28.46,0,0,1-5.5-.51,11.15,11.15,0,0,1-4.4-1.8,7.36,7.36,0,0,1-2.66-3.51,12,12,0,0,1-.42-5.65,11.81,11.81,0,0,1,2.07-5.65,14.35,14.35,0,0,1,4-3.69,16.26,16.26,0,0,1,4.88-2,31,31,0,0,1,5-.77,51.66,51.66,0,0,1,7.35.17q3.38.34,5.74.69a50.85,50.85,0,0,1,5.16,1.19A33,33,0,0,1,448,119.78Z"/><path class="cls-1" d="M666.2,76.62q-2.76-6.77-7.53-9.76a27.18,27.18,0,0,0-10.42-3.93,79.29,79.29,0,0,0-16.52-1.46c-9.49,0-17.49,1.14-20.06,2.69-.34.17-.66.34-1,.53a10.13,10.13,0,0,0-3.62,3.56,14.2,14.2,0,0,0-1.56,4.22,32,32,0,0,0-.57,4.16c-.15,1.53-.19,2.59-.19,2.59l.39-.09a86.76,86.76,0,0,1,17.78-1.53c7.77,0,14.59.69,18.55,1.71a8.9,8.9,0,0,1,6.18,4,14.56,14.56,0,0,1,1.9,6.81,25.75,25.75,0,0,1-1,6.46Q625,92.81,610.74,98t-16.45,20.29a24.4,24.4,0,0,0,1,12.42,20.39,20.39,0,0,0,6.22,8.65,26.17,26.17,0,0,0,10,5,42.43,42.43,0,0,0,12.17,1.37q7.74-.34,12.52-3a31.67,31.67,0,0,0,7.13-5,2.68,2.68,0,0,1,.26-.23c.05.12.17.34.22.45a10.76,10.76,0,0,0,3.3,4.14,11,11,0,0,0,4.45,2,18,18,0,0,0,4.41.3h5.55l5.93-48.28Q669,83.39,666.2,76.62Zm-21.82,43.16a18.5,18.5,0,0,1-4.92,6.59,17.11,17.11,0,0,1-6.49,3.34,27.62,27.62,0,0,1-7.14.94,28.39,28.39,0,0,1-5.5-.51,11.26,11.26,0,0,1-4.41-1.8,7.34,7.34,0,0,1-2.65-3.51,12,12,0,0,1-.42-5.65,11.71,11.71,0,0,1,2.07-5.65,14.35,14.35,0,0,1,4-3.69,16.26,16.26,0,0,1,4.88-2,31,31,0,0,1,5-.77,51.48,51.48,0,0,1,7.34.17q3.39.34,5.74.69a50.45,50.45,0,0,1,5.17,1.19A33,33,0,0,1,644.38,119.78Z"/><path class="cls-1" d="M58.86,144.8,72.46,34.26h8.28a13.3,13.3,0,0,1,3,.31A13.1,13.1,0,0,1,89,36.84a12.71,12.71,0,0,1,3.8,4.8c.93,2,1.25,5.66.63,9.64L90.05,79l42.49-42.5-.83-.16a74.12,74.12,0,0,1-13.41-3.95,69,69,0,0,1-11.43-5.76,75.07,75.07,0,0,0-7.55-4.34A77.32,77.32,0,0,0,89.1,18.05,74.48,74.48,0,0,0,22.42,28.43L8.13,145.22A4.77,4.77,0,0,0,13.82,151a22.86,22.86,0,0,0,2.53-1,72.54,72.54,0,0,1,8.36-3.08,75,75,0,0,1,32.76-2.32Z"/><path class="cls-2" d="M191.08,24a4.73,4.73,0,0,0-3.29.9c-2.1,1.37-4,2.61-6,3.65-3.17,1.7-5.65,2.78-5.65,2.78-1.49.65-2.67,1.13-4,1.62-1.78.67-3.48,1.22-5,1.67L112,89.89a5.4,5.4,0,0,1,1.08.83l48,48a24.77,24.77,0,0,1-5.06,4.46,18.34,18.34,0,0,1-9.36,2.56c-12.79,0-24.46-12.91-24.46-12.91L94.46,105.21l-6.8-6.81L81,152.34l1.36.72c.3.15,3.08,1.74,3.08,1.74.75.45,4,2,3.94,2,1.15.52,2.31,1,3.52,1.51,2.39.95,4.55,1.64,6.74,2.31a73.93,73.93,0,0,0,8.49,2s1,.2,2.92.44a78.38,78.38,0,0,0,8.78.59c1.58,0,3.32,0,5.26-.13,1.58-.09,3.29-.23,5.12-.46,1.39-.18,3-.45,4.4-.71,1-.2,2.07-.42,3.1-.66a73.12,73.12,0,0,0,10.15-3.16c1.59-.62,3.64-1.52,4.89-2.13,1.57-.76,3.4-1.71,5-2.64a71.44,71.44,0,0,0,6.53-4.25,76.26,76.26,0,0,0,7.38-6.14,72.37,72.37,0,0,0,7.18-7.85c.41-.51,3.11-4.06,3.88-5.33L195.2,29A4.72,4.72,0,0,0,194,25.6,4.67,4.67,0,0,0,191.08,24Z"/></svg>