<?xml version="1.0" encoding="utf-8"?>
<!-- Generator: Adobe Illustrator 24.0.0, SVG Export Plug-In . SVG Version: 6.00 Build 0)  -->
<svg version="1.1" id="Capa_1" xmlns="http://www.w3.org/2000/svg" xmlns:xlink="http://www.w3.org/1999/xlink" x="0px" y="0px"
	 viewBox="0 0 772 200" style="enable-background:new 0 0 772 200;" xml:space="preserve">
<style type="text/css">
	.st0{fill:#B1CA34;}
	.st1{fill:#3E3B40;}
	.st2{fill:#D9DADB;}
	.st3{fill:#EB007B;}
</style>
<g>
	<path class="st0" d="M105.84,93.56c0.53,11.97-8.73,22.09-20.68,22.63c-11.95,0.54-22.1-8.72-22.63-20.69
		c-0.53-11.95,8.74-22.09,20.7-22.63C95.17,72.35,105.29,81.61,105.84,93.56"/>
	<path class="st1" d="M125.7,32.41c0.53,11.97-8.73,22.09-20.68,22.63c-11.96,0.54-22.09-8.71-22.63-20.68
		c-0.53-11.94,8.71-22.08,20.68-22.62C115.03,11.2,125.16,20.46,125.7,32.41"/>
	<path class="st2" d="M159.78,77.29c0.54,11.96-8.72,22.09-20.67,22.63c-11.96,0.54-22.1-8.73-22.63-20.69
		c-0.53-11.94,8.72-22.08,20.68-22.62C149.11,56.07,159.25,65.35,159.78,77.29"/>
	<path class="st3" d="M70.71,56.37C67,67.76,54.77,73.98,43.39,70.27c-11.38-3.7-17.61-15.93-13.91-27.3
		c3.71-11.38,15.94-17.63,27.32-13.93C68.18,32.74,74.4,45,70.71,56.37"/>
	<path class="st1" d="M723.92,91.76h1.84c2.08,0,3.05-0.58,3.05-2.01c0-1.49-1.04-2.11-3.17-2.11h-1.73V91.76 M726.16,85.86
		c3.69,0,5.54,1.26,5.54,3.56c0,1.91-1.03,3.21-2.91,3.63l2.91,5.92h-3.14l-2.59-5.47h-2.05v5.47h-2.81V85.86H726.16z M718.94,85.5
		c-1.94,1.97-3.01,4.5-3.01,7.13c0,2.62,1,5.09,2.88,6.99c1.92,1.91,4.4,2.98,6.93,2.98c2.76,0,5.26-1,7.23-2.91
		c1.88-1.81,2.91-4.28,2.91-6.9c0-2.82-0.97-5.24-2.85-7.16c-1.94-1.94-4.37-2.98-7.12-2.98C723.18,82.65,720.82,83.62,718.94,85.5
		 M734.26,84.44c2.17,2.2,3.33,5.05,3.33,8.2c0,3.24-1.19,6.12-3.43,8.29c-2.29,2.24-5.25,3.43-8.29,3.43
		c-3.11,0-6.06-1.27-8.3-3.52c-2.19-2.24-3.39-5.12-3.39-8.2c0-3.11,1.26-6.09,3.52-8.36c2.21-2.2,4.99-3.33,8.17-3.33
		C729.07,80.94,731.99,82.14,734.26,84.44"/>
	<polygon class="st1" points="203.16,50.06 215.96,50.06 215.96,136.79 249.96,136.79 249.96,148.82 203.16,148.82 	"/>
	<path class="st1" d="M295.46,139.77c8.66,0,16.29-3.63,22.63-10.99l8.66,6.98c-8.66,10.08-18.75,14.73-31.67,14.73
		c-10.73,0-20.3-4-26.89-11.11c-5.81-6.34-9.04-14.87-9.04-24.05c0-21.71,14.34-36.06,34.9-36.06c20.95,0,35.55,15.12,35.55,38.65
		v0.91h-58.43C271.94,131.37,281.9,139.77,295.46,139.77 M316.28,109.26c-1.55-11.63-10.6-19.39-22.36-19.39
		c-11.9,0-21.46,8.01-22.76,19.39H316.28z"/>
	<path class="st1" d="M398.62,148.82V137.7c-5.69,8.01-13.95,12.02-24.56,12.02c-9.43,0-18.22-3.75-24.81-10.47
		c-6.21-6.47-9.57-14.74-9.57-24.56c0-20.94,13.7-35.03,34.38-35.03c10.61,0,19.38,4.4,25.47,12.41V80.95h11.13v67.87H398.62
		 M399.27,114.82c0-14.35-9.83-24.57-23.53-24.57c-13.7,0-23.52,10.08-23.52,24.57c0,14.48,9.82,24.56,23.52,24.56
		C389.45,139.38,399.27,129.17,399.27,114.82"/>
	<path class="st1" d="M430.95,80.95h11.38v9.18c4.13-6.98,9.95-10.34,17.71-10.34c1.3,0,2.71,0,4.14,0.26V92.2
		c-2.33-0.52-4.27-0.77-5.95-0.77c-10.22,0-15.39,6.59-15.39,19.39v38h-11.89V80.95"/>
	<path class="st1" d="M476.97,80.95h11.9v7.76c5.95-6.08,12.41-9.05,20.03-9.05c15.26,0,25.2,10.86,25.2,29.86v39.3H522.1v-38.14
		c0-13.95-4.53-20.55-15.26-20.55c-11.89,0-17.96,6.97-17.96,21.07v37.62h-11.9V80.95"/>
	<path class="st1" d="M584.78,139.77c8.67,0,16.29-3.63,22.62-10.99l8.67,6.98c-8.67,10.08-18.74,14.73-31.67,14.73
		c-10.72,0-20.29-4-26.87-11.11c-5.82-6.34-9.06-14.87-9.06-24.05c0-21.71,14.35-36.06,34.9-36.06c20.94,0,35.55,15.12,35.55,38.65
		v0.91h-58.43C561.26,131.37,571.21,139.77,584.78,139.77 M605.6,109.26c-1.56-11.63-10.61-19.39-22.37-19.39
		c-11.9,0-21.46,8.01-22.75,19.39H605.6z"/>
	<polygon class="st1" points="653.18,113.92 625.64,80.96 640.77,80.96 659.64,105.91 678.12,80.96 694.02,80.96 666.36,114.17 
		695.32,148.82 679.67,148.82 660.03,122.57 639.99,148.82 624.36,148.82 	"/>
</g>
<g>
	<path class="st3" d="M31.85,187.67h-2.93l8.96-21.09h3.02l8.46,21.09h-3.29l-2.1-5.45H34.2L31.85,187.67z M43.11,179.82
		l-3.87-10.39l-4.09,10.39H43.11z"/>
	<path class="st3" d="M52.03,187.67v-21.09h7.35c2.31,0,4.03,0.48,5.17,1.44c1.14,0.96,1.71,2.42,1.71,4.36
		c0,2.08-0.66,3.6-1.99,4.57c-1.33,0.97-3.41,1.46-6.25,1.46h-3.16v9.25H52.03z M58.9,175.82c1.56,0,2.68-0.26,3.35-0.79
		c0.67-0.53,1.01-1.39,1.01-2.58c0-1.23-0.33-2.11-0.99-2.64c-0.66-0.53-1.78-0.79-3.37-0.79h-4.06v6.8H58.9z"/>
	<path class="st3" d="M69.68,187.67v-21.09h7.43c2.33,0,4.07,0.46,5.25,1.39c1.17,0.92,1.76,2.3,1.76,4.12
		c0,1.26-0.34,2.32-1.02,3.2c-0.68,0.87-1.63,1.47-2.85,1.79c0.92,0.21,1.6,0.54,2.04,0.98s0.76,1.17,0.98,2.17
		c0.07,0.31,0.21,1.32,0.44,3.02c0.22,1.7,0.52,3.18,0.88,4.42h-3.02c-0.3-1.19-0.54-2.62-0.74-4.27c-0.2-1.66-0.37-2.69-0.52-3.1
		c-0.29-0.81-0.73-1.37-1.34-1.68c-0.6-0.31-1.58-0.46-2.94-0.46H72.5v9.52H69.68z M76.62,175.57c1.62,0,2.77-0.25,3.46-0.74
		c0.69-0.5,1.03-1.31,1.03-2.44c0-1.14-0.31-1.95-0.92-2.42c-0.61-0.47-1.8-0.71-3.57-0.71H72.5v6.32H76.62z"/>
	<path class="st3" d="M88.65,187.67v-21.09h13.08v2.5H91.47v6.41h9.84v2.49h-9.84v7.18h10.51v2.52H88.65z"/>
	<path class="st3" d="M106.37,187.67v-21.09h4.02l9.98,17.2v-17.2h2.54v21.09h-3.46l-10.48-17.88v17.88H106.37z"/>
	<path class="st3" d="M134.5,187.67h-6.68v-21.09h5.92c2.07,0,3.62,0.14,4.66,0.42c1.04,0.28,1.97,0.75,2.8,1.39
		c1.18,0.93,2.09,2.17,2.72,3.72c0.63,1.55,0.94,3.31,0.94,5.3c0,1.6-0.23,3.08-0.68,4.42s-1.09,2.46-1.92,3.34
		c-0.87,0.9-1.87,1.53-3.01,1.92C138.11,187.48,136.53,187.67,134.5,187.67z M135.14,185.15c2.26,0,3.95-0.64,5.07-1.93
		c1.12-1.29,1.69-3.22,1.69-5.8c0-2.74-0.63-4.84-1.88-6.31c-1.25-1.47-3.05-2.21-5.38-2.21h-4v16.25H135.14z"/>
	<path class="st3" d="M148.84,187.67v-21.09h13.08v2.5h-10.26v6.41h9.84v2.49h-9.84v7.18h10.51v2.52H148.84z"/>
	<path class="st3" d="M177.44,187.67h-2.82v-21.09h2.82V187.67z"/>
	<path class="st3" d="M182.36,187.67v-21.09h4.02l9.98,17.2v-17.2h2.54v21.09h-3.46l-10.48-17.88v17.88H182.36z"/>
	<path class="st3" d="M220.75,186.7c-1.38,0.46-2.68,0.8-3.9,1.02c-1.22,0.22-2.39,0.34-3.5,0.34c-3.23,0-5.76-0.95-7.59-2.84
		c-1.83-1.9-2.75-4.51-2.75-7.85c0-3.45,0.92-6.16,2.76-8.13c1.84-1.97,4.37-2.96,7.58-2.96c2.25,0,4.03,0.5,5.35,1.49
		c1.31,0.99,2,2.35,2.06,4.07h-3.07c-0.04-0.98-0.5-1.79-1.38-2.44c-0.88-0.64-1.99-0.96-3.34-0.96c-2.18,0-3.89,0.78-5.12,2.34
		c-1.23,1.56-1.84,3.72-1.84,6.48c0,2.69,0.65,4.77,1.95,6.25c1.3,1.48,3.14,2.22,5.51,2.22c0.59,0,1.23-0.06,1.92-0.19
		c0.69-0.12,1.48-0.31,2.38-0.57v-6.28h-4.39v-2.37h7.38V186.7z"/>
	<path class="st3" d="M225.61,187.67v-21.09h2.79v18.57h9.59v2.52H225.61z"/>
	<path class="st3" d="M241.28,187.67v-21.09h13.08v2.5h-10.26v6.41h9.84v2.49h-9.84v7.18h10.51v2.52H241.28z M245.82,164.67
		l2.92-4.98h2.87l-4.07,4.98H245.82z"/>
	<path class="st3" d="M261.18,181.49c0.05,1.37,0.46,2.39,1.25,3.04c0.79,0.66,1.99,0.99,3.62,0.99c1.58,0,2.83-0.33,3.75-0.98
		c0.92-0.65,1.37-1.55,1.37-2.68c0-1.61-1.64-2.83-4.92-3.65c-0.38-0.1-0.67-0.17-0.86-0.21c-0.18-0.05-0.46-0.12-0.83-0.21
		c-1.86-0.46-3.15-0.9-3.87-1.33c-0.71-0.43-1.27-1.02-1.68-1.77c-0.41-0.75-0.61-1.58-0.61-2.48c0-1.83,0.71-3.28,2.13-4.35
		c1.42-1.07,3.36-1.6,5.83-1.6c2.18,0,3.9,0.46,5.15,1.39c1.25,0.93,1.88,2.2,1.88,3.81v0.33h-2.84c-0.05-1.03-0.46-1.82-1.22-2.38
		c-0.77-0.56-1.84-0.84-3.22-0.84c-1.44,0-2.58,0.31-3.44,0.94s-1.28,1.46-1.28,2.51c0,1.38,1.58,2.47,4.73,3.26
		c0.45,0.11,0.79,0.2,1.03,0.26c2.82,0.72,4.68,1.52,5.59,2.39c0.91,0.87,1.36,2.09,1.36,3.67c0,2.01-0.7,3.58-2.11,4.72
		s-3.36,1.7-5.85,1.7c-2.71,0-4.71-0.51-6.01-1.53c-1.3-1.02-1.95-2.59-1.95-4.72v-0.29H261.18z"/>
	<path class="st3" d="M286.27,187.67v-21.09h7.35c2.31,0,4.03,0.48,5.17,1.44s1.71,2.42,1.71,4.36c0,2.08-0.66,3.6-1.99,4.57
		c-1.33,0.97-3.41,1.46-6.25,1.46h-3.16v9.25H286.27z M293.14,175.82c1.56,0,2.68-0.26,3.35-0.79c0.67-0.53,1.01-1.39,1.01-2.58
		c0-1.23-0.33-2.11-0.99-2.64c-0.66-0.53-1.78-0.79-3.37-0.79h-4.06v6.8H293.14z"/>
	<path class="st3" d="M304.62,187.67h-2.93l8.96-21.09h3.02l8.46,21.09h-3.29l-2.1-5.45h-9.78L304.62,187.67z M315.87,179.82
		L312,169.43l-4.09,10.39H315.87z"/>
	<path class="st3" d="M324.79,187.67v-21.09h7.43c2.32,0,4.07,0.46,5.25,1.39c1.17,0.92,1.76,2.3,1.76,4.12
		c0,1.26-0.34,2.32-1.02,3.2s-1.63,1.47-2.85,1.79c0.92,0.21,1.6,0.54,2.04,0.98s0.76,1.17,0.98,2.17c0.07,0.31,0.21,1.32,0.44,3.02
		c0.22,1.7,0.52,3.18,0.88,4.42h-3.02c-0.29-1.19-0.54-2.62-0.74-4.27s-0.37-2.69-0.52-3.1c-0.29-0.81-0.73-1.37-1.34-1.68
		c-0.61-0.31-1.59-0.46-2.94-0.46h-3.53v9.52H324.79z M331.73,175.57c1.62,0,2.77-0.25,3.46-0.74c0.69-0.5,1.03-1.31,1.03-2.44
		c0-1.14-0.31-1.95-0.92-2.42c-0.62-0.47-1.8-0.71-3.57-0.71h-4.12v6.32H331.73z"/>
	<path class="st3" d="M344.46,187.67h-2.93l8.96-21.09h3.02l8.46,21.09h-3.29l-2.1-5.45h-9.78L344.46,187.67z M355.71,179.82
		l-3.87-10.39l-4.09,10.39H355.71z"/>
	<path class="st3" d="M374.96,181.49c0.05,1.37,0.46,2.39,1.25,3.04c0.79,0.66,1.99,0.99,3.62,0.99c1.58,0,2.83-0.33,3.75-0.98
		c0.92-0.65,1.37-1.55,1.37-2.68c0-1.61-1.64-2.83-4.92-3.65c-0.38-0.1-0.67-0.17-0.86-0.21c-0.18-0.05-0.46-0.12-0.83-0.21
		c-1.86-0.46-3.15-0.9-3.87-1.33c-0.71-0.43-1.27-1.02-1.68-1.77s-0.61-1.58-0.61-2.48c0-1.83,0.71-3.28,2.13-4.35
		s3.36-1.6,5.83-1.6c2.18,0,3.9,0.46,5.15,1.39c1.25,0.93,1.88,2.2,1.88,3.81v0.33h-2.84c-0.05-1.03-0.46-1.82-1.22-2.38
		c-0.77-0.56-1.84-0.84-3.22-0.84c-1.44,0-2.58,0.31-3.44,0.94c-0.85,0.62-1.28,1.46-1.28,2.51c0,1.38,1.58,2.47,4.73,3.26
		c0.45,0.11,0.79,0.2,1.03,0.26c2.82,0.72,4.68,1.52,5.59,2.39c0.91,0.87,1.36,2.09,1.36,3.67c0,2.01-0.7,3.58-2.11,4.72
		s-3.36,1.7-5.85,1.7c-2.71,0-4.71-0.51-6.01-1.53c-1.3-1.02-1.95-2.59-1.95-4.72v-0.29H374.96z"/>
	<path class="st3" d="M394.76,187.67h-2.82v-21.09h2.82V187.67z"/>
	<path class="st3" d="M399.65,187.67v-21.09h13.08v2.5h-10.26v6.41h9.83v2.49h-9.83v7.18h10.51v2.52H399.65z"/>
	<path class="st3" d="M436.3,187.67v-18.86l-6.73,18.86h-2.43l-6.96-18.66v18.66h-2.82v-21.09h4.8l6.26,17.2l5.98-17.2h4.66v21.09
		H436.3z"/>
	<path class="st3" d="M443.95,187.67v-21.09h7.35c2.31,0,4.03,0.48,5.17,1.44s1.71,2.42,1.71,4.36c0,2.08-0.67,3.6-2,4.57
		c-1.33,0.97-3.41,1.46-6.25,1.46h-3.16v9.25H443.95z M450.83,175.82c1.56,0,2.68-0.26,3.35-0.79c0.67-0.53,1.01-1.39,1.01-2.58
		c0-1.23-0.33-2.11-0.99-2.64c-0.66-0.53-1.79-0.79-3.37-0.79h-4.06v6.8H450.83z"/>
	<path class="st3" d="M461.61,187.67v-21.09h7.43c2.33,0,4.07,0.46,5.25,1.39c1.17,0.92,1.76,2.3,1.76,4.12
		c0,1.26-0.34,2.32-1.02,3.2c-0.68,0.87-1.63,1.47-2.85,1.79c0.92,0.21,1.6,0.54,2.04,0.98s0.76,1.17,0.98,2.17
		c0.07,0.31,0.21,1.32,0.44,3.02s0.52,3.18,0.88,4.42h-3.02c-0.3-1.19-0.54-2.62-0.74-4.27s-0.37-2.69-0.52-3.1
		c-0.29-0.81-0.73-1.37-1.34-1.68c-0.61-0.31-1.58-0.46-2.94-0.46h-3.53v9.52H461.61z M468.54,175.57c1.62,0,2.77-0.25,3.46-0.74
		c0.69-0.5,1.03-1.31,1.03-2.44c0-1.14-0.31-1.95-0.92-2.42c-0.61-0.47-1.8-0.71-3.57-0.71h-4.12v6.32H468.54z"/>
	<path class="st3" d="M480.58,187.67v-21.09h13.08v2.5h-10.26v6.41h9.83v2.49h-9.83v7.18h10.51v2.52H480.58z"/>
	<path class="st3" d="M506.37,187.67v-21.09h13.08v2.5h-10.26v6.41h9.83v2.49h-9.83v7.18h10.51v2.52H506.37z"/>
	<path class="st3" d="M524.08,187.67v-21.09h4.02l9.98,17.2v-17.2h2.54v21.09h-3.46l-10.48-17.88v17.88H524.08z"/>
	<path class="st3" d="M552.41,182.26h3.07c0.09,1.13,0.42,1.96,1.01,2.51s1.45,0.82,2.59,0.82c1.28,0,2.29-0.32,3.04-0.96
		s1.12-1.5,1.12-2.58c0-1.23-0.44-2.18-1.31-2.84s-2.12-1-3.74-1c-0.08,0-0.19,0.01-0.34,0.02s-0.27,0.02-0.36,0.02l0.01-2.23
		c1.82-0.05,3.17-0.36,4.04-0.94s1.31-1.46,1.31-2.63c0-0.96-0.31-1.72-0.93-2.29c-0.62-0.56-1.46-0.84-2.53-0.84
		c-1.1,0-1.98,0.27-2.64,0.82c-0.66,0.55-1.01,1.29-1.05,2.22h-2.92c0.03-1.67,0.62-2.99,1.78-3.96c1.16-0.97,2.73-1.46,4.71-1.46
		c1.99,0,3.57,0.5,4.75,1.51c1.17,1.01,1.76,2.35,1.76,4.02c0,1.1-0.31,2.03-0.93,2.81c-0.62,0.78-1.54,1.38-2.76,1.82
		c1.27,0.26,2.26,0.82,2.97,1.7c0.71,0.88,1.06,1.97,1.06,3.27c0,1.78-0.65,3.22-1.96,4.31c-1.31,1.09-3.05,1.64-5.23,1.64
		c-2.08,0-3.68-0.5-4.81-1.5C553.01,185.52,552.43,184.1,552.41,182.26z"/>
	<path class="st3" d="M568.75,177.59c0-2.13,0.12-3.78,0.37-4.96c0.25-1.18,0.65-2.19,1.21-3.03c0.62-0.9,1.36-1.57,2.21-2.02
		c0.85-0.45,1.82-0.67,2.91-0.67c1.22,0,2.3,0.28,3.25,0.84c0.94,0.56,1.71,1.36,2.29,2.41c0.45,0.82,0.77,1.8,0.96,2.93
		c0.2,1.13,0.29,2.74,0.29,4.8c0,3.38-0.55,5.91-1.67,7.59c-1.11,1.68-2.79,2.52-5.04,2.52c-2.33,0-4.04-0.84-5.14-2.53
		C569.3,183.78,568.75,181.15,568.75,177.59z M571.6,177.56c0,2.81,0.31,4.87,0.94,6.17c0.63,1.3,1.62,1.95,2.97,1.95
		c1.33,0,2.31-0.67,2.94-2.02c0.62-1.34,0.94-3.46,0.94-6.33c0-2.75-0.32-4.79-0.96-6.12c-0.64-1.32-1.62-1.99-2.95-1.99
		c-1.32,0-2.29,0.68-2.93,2.05C571.92,172.64,571.6,174.74,571.6,177.56z"/>
	<path class="st3" d="M596.36,181.49c0.05,1.37,0.46,2.39,1.25,3.04c0.79,0.66,1.99,0.99,3.62,0.99c1.58,0,2.83-0.33,3.75-0.98
		c0.92-0.65,1.37-1.55,1.37-2.68c0-1.61-1.64-2.83-4.92-3.65c-0.38-0.1-0.67-0.17-0.86-0.21c-0.18-0.05-0.46-0.12-0.83-0.21
		c-1.86-0.46-3.15-0.9-3.87-1.33c-0.71-0.43-1.27-1.02-1.68-1.77s-0.61-1.58-0.61-2.48c0-1.83,0.71-3.28,2.13-4.35
		s3.36-1.6,5.83-1.6c2.18,0,3.9,0.46,5.15,1.39c1.25,0.93,1.88,2.2,1.88,3.81v0.33h-2.84c-0.05-1.03-0.46-1.82-1.22-2.38
		c-0.77-0.56-1.84-0.84-3.22-0.84c-1.44,0-2.58,0.31-3.44,0.94c-0.85,0.62-1.28,1.46-1.28,2.51c0,1.38,1.58,2.47,4.73,3.26
		c0.45,0.11,0.79,0.2,1.03,0.26c2.82,0.72,4.68,1.52,5.59,2.39c0.91,0.87,1.36,2.09,1.36,3.67c0,2.01-0.7,3.58-2.11,4.72
		s-3.36,1.7-5.85,1.7c-2.71,0-4.71-0.51-6.01-1.53c-1.3-1.02-1.95-2.59-1.95-4.72v-0.29H596.36z"/>
	<path class="st3" d="M613.34,187.67v-21.09h13.08v2.5h-10.26v6.41h9.83v2.49h-9.83v7.18h10.51v2.52H613.34z"/>
	<path class="st3" d="M650,187.67v-18.86l-6.73,18.86h-2.43l-6.96-18.66v18.66h-2.82v-21.09h4.8l6.26,17.2l5.98-17.2h4.66v21.09H650
		z"/>
	<path class="st3" d="M658.35,187.67h-2.93l8.96-21.09h3.02l8.46,21.09h-3.29l-2.1-5.45h-9.78L658.35,187.67z M669.6,179.82
		l-3.87-10.39l-4.09,10.39H669.6z"/>
	<path class="st3" d="M678.55,187.67v-21.09h4.02l9.98,17.2v-17.2h2.54v21.09h-3.46l-10.48-17.88v17.88H678.55z"/>
	<path class="st3" d="M700.71,187.67h-2.93l8.96-21.09h3.02l8.46,21.09h-3.29l-2.1-5.45h-9.78L700.71,187.67z M711.96,179.82
		l-3.87-10.39l-4.09,10.39H711.96z"/>
	<path class="st3" d="M723.09,181.49c0.05,1.37,0.46,2.39,1.25,3.04c0.79,0.66,1.99,0.99,3.62,0.99c1.58,0,2.83-0.33,3.75-0.98
		c0.92-0.65,1.37-1.55,1.37-2.68c0-1.61-1.64-2.83-4.92-3.65c-0.38-0.1-0.67-0.17-0.86-0.21c-0.18-0.05-0.46-0.12-0.83-0.21
		c-1.86-0.46-3.15-0.9-3.87-1.33c-0.71-0.43-1.27-1.02-1.68-1.77s-0.61-1.58-0.61-2.48c0-1.83,0.71-3.28,2.13-4.35
		s3.36-1.6,5.83-1.6c2.18,0,3.9,0.46,5.15,1.39c1.25,0.93,1.88,2.2,1.88,3.81v0.33h-2.84c-0.05-1.03-0.46-1.82-1.22-2.38
		c-0.77-0.56-1.84-0.84-3.22-0.84c-1.44,0-2.58,0.31-3.44,0.94c-0.85,0.62-1.28,1.46-1.28,2.51c0,1.38,1.58,2.47,4.73,3.26
		c0.45,0.11,0.79,0.2,1.03,0.26c2.82,0.72,4.68,1.52,5.59,2.39c0.91,0.87,1.36,2.09,1.36,3.67c0,2.01-0.7,3.58-2.11,4.72
		s-3.36,1.7-5.85,1.7c-2.71,0-4.71-0.51-6.01-1.53c-1.3-1.02-1.95-2.59-1.95-4.72v-0.29H723.09z"/>
</g>
</svg>
