<svg id="Capa_1" data-name="Capa 1" xmlns="http://www.w3.org/2000/svg" xmlns:xlink="http://www.w3.org/1999/xlink" viewBox="0 0 620 188.33"><defs><style>.cls-1{fill:#2f3888;}.cls-2{fill:url(#linear-gradient);}</style><linearGradient id="linear-gradient" x1="258.49" y1="3183.66" x2="295.54" y2="3183.66" gradientTransform="translate(-397.53 -6132.71) scale(1.95)" gradientUnits="userSpaceOnUse"><stop offset="0" stop-color="#ca571e"/><stop offset="1" stop-color="#e3ae88"/></linearGradient></defs><title>LOGOS MEXICANA DE BECAS ENERO 2022</title><path class="cls-1" d="M54.83,52.66c.05-2.7-.52-4.8-1.95-6.25S49.17,44.22,46,44.22h-9.6v82.2H71.55c4,0,5.12-2.38,5.12-5.66V110.25H54.9Z"/><path class="cls-1" d="M154.16,89.78c0,6.81.18,23.27.13,27.3,0,3.65.35,6.18,1.88,7.73,1.24,1.23,3,1.72,5.34,1.72h11.05l.05-58.93S154.16,69.64,154.16,89.78Z"/><path class="cls-1" d="M215.88,44.34H188.39v82.19H199c7.06,0,7.29-3.16,7.25-8.9-.08-12.81,0-60.52,0-60.52h1.58c7.06,0,22.75,0,22.75,15.49s-16.86,18-20.51,18h-.92l.49.82c.44.77,1.11,2,1.82,3.36,1.08,2,2.2,4.13,2.78,5l.17.24.29,0a43.42,43.42,0,0,0,4.81.3c17.83,0,30.35-14.27,30.35-28.51C249.82,47.12,226.43,44.34,215.88,44.34Z"/><path class="cls-1" d="M114.74,69.39c-3.56-7.45-8.7-18.33-8.7-18.33-3.26-6.4-6.61-6.84-11.36-6.84h-10v82.2H96.24c4.38,0,6.88-1.4,6.88-6.09,0-10.31,0-22.93,0-31C103.12,76.88,109.47,71.64,114.74,69.39Z"/><path class="cls-2" d="M179.3,44.66A25.32,25.32,0,0,0,175,43.42a19.62,19.62,0,0,0-16.75,5.35s-11,10.38-26.26,39.74c-1,1.89-3.27,6.22-3.85,8.81A36.25,36.25,0,0,0,125.05,90c-3-5.75-6.1-11.45-8.8-16.77-9.79,3.14-11.8,13.47-6.08,24.06,3.19,5.9,7.43,12.14,9.89,16.73,1.67,3.11,3.36,5.16,7.94,5.16h1.51c4.54,0,5.72-.6,8.06-5.38C162,57,179.3,44.66,179.3,44.66Z"/><path class="cls-1" d="M303,92.82a143,143,0,0,0-8.53,20.91,162.9,162.9,0,0,0-8.45-20.91h-6.67L277.59,126h5.1s.73-10.82,1.41-26.48c4,9.79,7.67,20.66,7.67,20.66h5.44a197.43,197.43,0,0,1,7.72-20.76c0,2.08,1.35,26.59,1.35,26.59h5l-1.62-33.19Z"/><path class="cls-1" d="M328.37,115.8c7.22-1.54,8.1-5,8.08-7.43,0-3.18-2.47-7.31-8.83-7-9.69,0-11.72,8.51-11.65,12.73.14,8.89,4.69,12.75,11.08,12.75a18.81,18.81,0,0,0,9-2.24l0-4.08a21.19,21.19,0,0,1-8.36,2.23c-3.66.14-5.64-1.6-5.75-3.61C321.73,116.78,324.67,116.61,328.37,115.8Zm-7.55-1.69v-.24s.1-8.58,6.65-8.58c3.57,0,3.95,2,3.95,3.33s-.83,2.83-5.14,3.69S320.82,114.11,320.82,114.11Z"/><polygon class="cls-1" points="334.79 91.7 328.71 91.7 325.29 98.59 329.37 98.59 334.79 91.7"/><path class="cls-1" d="M357,104.77a7.54,7.54,0,0,0-6.63-3.41c-5.08,0-9.81,3.93-9.81,12.75,0,10.09,5.75,12.75,10,12.75a7.26,7.26,0,0,0,6.62-4s.3,3.32,1.4,3.32h3.17V91.7H357Zm-5.81,17.83c-3.09,0-5.61-1.84-5.61-8.62,0-6.59,3.13-8.2,5.61-8.2,4.24,0,5.78,4.63,5.78,8.2C357,119.66,354.54,122.6,351.23,122.6Z"/><rect class="cls-1" x="367.52" y="101.62" width="4.88" height="24.4"/><path class="cls-1" d="M370,91.61a3.13,3.13,0,1,0,3.13,3.13A3.13,3.13,0,0,0,370,91.61Z"/><rect class="cls-1" x="474.83" y="54.87" width="4.88" height="24.39"/><path class="cls-1" d="M477.27,51.11A3.13,3.13,0,1,0,474.15,48,3.13,3.13,0,0,0,477.27,51.11Z"/><path class="cls-1" d="M549.09,114c0,12,8.84,12.74,10.8,12.74a13.7,13.7,0,0,0,5.74-1.14v-4a13.91,13.91,0,0,1-5.37,1.1c-3,0-6.12-1.33-6.12-8.73s3-8.84,5.94-8.84a13.67,13.67,0,0,1,5.55,1.16v-4.19a14.94,14.94,0,0,0-5.22-.88C557.32,101.25,549.09,102,549.09,114Z"/><path class="cls-1" d="M377.94,114c0,12,8.83,12.74,10.8,12.74a13.76,13.76,0,0,0,5.75-1.14v-4a13.93,13.93,0,0,1-5.38,1.1c-3,0-6.12-1.33-6.12-8.73s3-8.84,5.94-8.84a13.69,13.69,0,0,1,5.56,1.16v-4.19a15,15,0,0,0-5.23-.88C386.17,101.25,377.94,102,377.94,114Z"/><path class="cls-1" d="M536.77,101.2c-4.69,0-6.67,2.36-7.49,4-.19-2.88-.76-3.68-.76-3.68H524.6v24.63h4.75V114c0-3.64,1.34-8.52,6.36-8.52,4.1,0,4.18,3.7,4.18,6.15v14.47h4.76V108.88h0C544.56,106.63,543.55,101.2,536.77,101.2Z"/><path class="cls-1" d="M516,102.65c-3-2.22-8.75-2.42-14.85-.12v4.27a19.93,19.93,0,0,1,8.12-1.74c4.64,0,4.55,2,4.55,2.79s-.61,2-4.18,3c-3.91,1.16-10.55,2.2-10.55,8.49,0,5.3,4.7,7.16,7.56,7.16a10.27,10.27,0,0,0,7.39-2.8,7,7,0,0,0,.65,2.44h3.93l0-14.51C518.66,108.24,518.55,104.51,516,102.65Zm-2.18,14.88c0,2.26-1.22,4.94-6.33,4.94-3.39,0-3.62-2.67-3.62-3.19s-.3-2.69,4-3.9c3.66-1,4.89-1.63,5.91-2.3Z"/><path class="cls-1" d="M405.63,79.25h3.93l-.05-14.51c.05-3.42-.07-7.16-2.58-9-3-2.22-8.74-2.42-14.84-.12v4.27a19.85,19.85,0,0,1,8.11-1.74c4.65,0,4.55,2,4.55,2.79s-.6,2-4.17,3c-3.92,1.16-10.56,2.2-10.56,8.49,0,5.3,4.7,7.16,7.56,7.16a10.29,10.29,0,0,0,7.4-2.8A6.7,6.7,0,0,0,405.63,79.25Zm-.88-8.64c0,2.26-1.21,4.94-6.33,4.94-3.38,0-3.61-2.67-3.61-3.19s-.3-2.69,4-3.9c3.67-1,4.89-1.63,5.91-2.3Z"/><path class="cls-1" d="M316.51,64.84c.05-3.42-.07-7.16-2.58-9-3-2.21-8.75-2.41-14.84-.12V60a19.85,19.85,0,0,1,8.11-1.74c4.65,0,4.55,2,4.55,2.79s-.61,2-4.17,3c-3.92,1.16-10.56,2.2-10.56,8.49,0,5.3,4.7,7.16,7.57,7.16A10.28,10.28,0,0,0,312,76.9a6.92,6.92,0,0,0,.66,2.45h3.93Zm-4.76,5.87c0,2.26-1.21,4.94-6.33,4.94-3.38,0-3.62-2.68-3.62-3.2s-.29-2.69,4-3.89c3.67-1,4.89-1.64,5.91-2.3Z"/><path class="cls-1" d="M492.5,119.35V91.1h-4.88v28.43c0,4,2,6.76,5.58,6.76a9.13,9.13,0,0,0,2.76-.39V122C494.84,122.18,492.5,122.59,492.5,119.35Z"/><polygon class="cls-1" points="293.54 75.34 282.56 75.34 282.56 45.68 277.59 45.68 277.59 79.52 293.54 79.52 293.54 75.34"/><path class="cls-1" d="M380.18,64.69c0-3.63,1.34-5.88,5.52-5.88a7.15,7.15,0,0,1,2.33.42V54.41a6.93,6.93,0,0,0-1.14-.09c-3.86,0-5.91,1.53-6.89,2.88a6.54,6.54,0,0,0-.65-2.57h-3.93V79.27h4.76Z"/><path class="cls-1" d="M462.6,64.69c0-3.63,1.34-5.88,5.52-5.88a7.09,7.09,0,0,1,2.33.42V54.41a6.93,6.93,0,0,0-1.14-.09c-3.86,0-5.92,1.53-6.89,2.88a6.45,6.45,0,0,0-.65-2.57h-3.93V79.27h4.76Z"/><path class="cls-1" d="M421.16,72.36V58.74h6.23V54.68h-6.23V48c-3.45,0-4.79,1.24-4.79,1.24v5.46h-3.31v4.06h3.31V70.88c0,7.23,3.75,9,7.37,9a26.6,26.6,0,0,0,4.29-.6V75.16C424.18,76.82,421.16,76.4,421.16,72.36Z"/><path class="cls-1" d="M332.94,53.71a6.93,6.93,0,0,0-6.31,3.7L326.72,44h-4.87V67.16c0,10.61,5.71,12.39,10.43,12.39s10.66-2.47,10.66-13.1C342.94,56.82,337.73,53.71,332.94,53.71Zm-.72,21.79c-2.68,0-5.53-2.21-5.53-8.61,0-5.5,1.79-8.7,5.53-8.7,3.32,0,5.76,2.2,5.76,8.7C338,73.9,335.28,75.5,332.22,75.5Z"/><path class="cls-1" d="M507,67.06c0-9.75-5.63-12.74-10.92-12.74h-.31c-5.29,0-10.92,3-10.92,12.74,0,10.46,6.64,12.75,10.92,12.75h.31C500.36,79.81,507,77.52,507,67.06Zm-11.07,8.52c-3.09,0-6.29-1.49-6.29-8.56s3.19-8.65,6.13-8.65h.31c2.95,0,6.13,1.62,6.13,8.65S499,75.58,495.92,75.58Z"/><path class="cls-1" d="M442.1,79.81h.15c4.29,0,10.92-2.29,10.92-12.75,0-9.75-5.63-12.74-10.92-12.74H442c-5.29,0-10.93,3-10.93,12.74,0,10.46,6.64,12.75,10.93,12.75ZM435.81,67c0-7,3.19-8.65,6.14-8.65h.3c2.95,0,6.14,1.62,6.14,8.65s-3.21,8.56-6.29,8.56S435.81,74.09,435.81,67Z"/><path class="cls-1" d="M358.51,54.32h-.3c-5.29,0-10.92,3-10.92,12.74,0,10.46,6.63,12.75,10.92,12.75h.3c4.29,0,10.93-2.29,10.93-12.75C369.44,57.31,363.8,54.32,358.51,54.32Zm-.14,21.26c-3.09,0-6.3-1.49-6.3-8.56s3.19-8.65,6.14-8.65h.3c2.95,0,6.14,1.62,6.14,8.65S361.45,75.58,358.37,75.58Z"/><path class="cls-1" d="M409.43,101.36l-.16,0-.15,0c-5.28,0-10.92,3-10.92,12.75,0,10.46,6.63,12.75,10.92,12.75h.31c4.29,0,10.92-2.29,10.92-12.75C420.35,104.35,414.71,101.36,409.43,101.36Zm-.16,21.26c-3.08,0-6.29-1.48-6.29-8.56s3.2-8.64,6.14-8.64h.31c2.94,0,6.13,1.62,6.13,8.64S412.36,122.62,409.27,122.62Z"/><path class="cls-1" d="M472.35,101.36l-.15,0-.15,0c-5.29,0-10.93,3-10.93,12.75,0,10.46,6.63,12.75,10.93,12.75h.3c4.29,0,10.92-2.29,10.92-12.75C483.27,104.35,477.64,101.36,472.35,101.36Zm-.15,21.26c-3.09,0-6.29-1.48-6.29-8.56s3.19-8.64,6.14-8.64h.3c2.95,0,6.14,1.62,6.14,8.64S475.29,122.62,472.2,122.62Z"/><path class="cls-1" d="M580.06,101.36l-.15,0-.16,0c-5.29,0-10.91,3-10.91,12.75,0,10.46,6.62,12.75,10.91,12.75h.31c4.29,0,10.92-2.29,10.92-12.75C591,104.35,585.34,101.36,580.06,101.36Zm-.15,21.26c-3.09,0-6.3-1.48-6.3-8.56s3.19-8.64,6.14-8.64h.31c2.94,0,6.13,1.62,6.13,8.64S583,122.62,579.91,122.62Z"/><path class="cls-1" d="M446.55,92.21a83.42,83.42,0,0,0-9,.61v33.36h4.88V96.68l5-.2c6.19,0,7.46,2.68,7.46,7,0,4-2.78,7.7-11.38,6.56l2.4,3.61a17.79,17.79,0,0,0,5.13.05c3.75-.52,8.69-2.67,9.06-10.37C460,93.19,451.61,92.21,446.55,92.21Z"/></svg>