<?xml version="1.0" encoding="UTF-8" standalone="no"?>
<!DOCTYPE svg PUBLIC "-//W3C//DTD SVG 1.1//EN" "http://www.w3.org/Graphics/SVG/1.1/DTD/svg11.dtd">
<svg width="100%" height="100%" viewBox="0 0 426 151" version="1.1" xmlns="http://www.w3.org/2000/svg" xmlns:xlink="http://www.w3.org/1999/xlink" xml:space="preserve" xmlns:serif="http://www.serif.com/" style="fill-rule:evenodd;clip-rule:evenodd;stroke-linejoin:round;stroke-miterlimit:2;">
    <g transform="matrix(1,0,0,1,-94.04,-58.74)">
        <path d="M101.35,59L104.14,78.24L104.2,78.24L107,59L112.83,59L112.83,86.3L109.22,86.3L109.22,64.54L109.16,64.54L105.71,86.3L102.64,86.3L99.16,64.54L99.16,86.3L95.49,86.3L95.49,59L101.35,59Z" style="fill:rgb(143,198,64);fill-rule:nonzero;"/>
    </g>
    <g transform="matrix(1,0,0,1,-94.04,-58.74)">
        <path d="M119.48,58.74L119.48,63.24L115.7,63.24L115.7,58.74L119.48,58.74ZM119.48,65.74L119.48,86.3L115.7,86.3L115.7,65.76L119.48,65.74Z" style="fill:rgb(143,198,64);fill-rule:nonzero;"/>
    </g>
    <g transform="matrix(1,0,0,1,-94.04,-58.74)">
        <rect x="122.27" y="59" width="3.78" height="27.3" style="fill:rgb(143,198,64);fill-rule:nonzero;"/>
    </g>
    <g transform="matrix(1,0,0,1,-94.04,-58.74)">
        <rect x="128.84" y="59" width="3.78" height="27.3" style="fill:rgb(143,198,64);fill-rule:nonzero;"/>
    </g>
    <g transform="matrix(1,0,0,1,-94.04,-58.74)">
        <path d="M135.25,71.56C135.225,70.544 135.363,69.531 135.66,68.56C135.883,67.837 136.262,67.171 136.77,66.61C137.22,66.123 137.783,65.755 138.41,65.54C139.054,65.321 139.73,65.213 140.41,65.22C141.344,65.186 142.276,65.339 143.15,65.67C143.803,65.94 144.365,66.391 144.77,66.97C145.167,67.575 145.433,68.256 145.55,68.97C145.692,69.806 145.759,70.652 145.75,71.5L145.75,82.33C145.743,83.081 145.776,83.832 145.85,84.58C145.924,85.163 146.048,85.738 146.22,86.3L142.61,86.3C142.479,85.977 142.382,85.642 142.32,85.3C142.25,84.93 142.2,84.57 142.14,84.21L142.08,84.21C141.819,85.05 141.288,85.782 140.57,86.29C139.876,86.637 139.105,86.802 138.33,86.77C137.737,86.787 137.153,86.619 136.66,86.29C136.19,85.95 135.815,85.496 135.57,84.97C135.281,84.346 135.089,83.682 135,83C134.87,82.314 134.803,81.618 134.8,80.92C134.792,80.081 134.866,79.244 135.02,78.42C135.143,77.79 135.369,77.186 135.69,76.63C135.987,76.144 136.378,75.723 136.84,75.39C137.367,75.031 137.934,74.736 138.53,74.51L140.66,73.71C141.139,73.576 141.556,73.279 141.84,72.87C142.09,72.386 142.205,71.844 142.17,71.3C142.204,70.659 142.066,70.02 141.77,69.45C141.466,69.028 140.976,68.777 140.456,68.777C139.91,68.777 139.399,69.053 139.1,69.51C138.784,70.109 138.635,70.783 138.67,71.46L138.67,72.03L135.27,72.03L135.25,71.56ZM141.33,76.7C141.075,76.844 140.807,76.964 140.53,77.06C139.858,77.223 139.273,77.634 138.89,78.21C138.53,78.874 138.36,79.625 138.4,80.38C138.385,81.061 138.497,81.74 138.73,82.38C138.861,82.873 139.31,83.219 139.82,83.22C140.096,83.219 140.368,83.161 140.62,83.05C140.907,82.924 141.164,82.736 141.37,82.5C141.619,82.206 141.809,81.866 141.93,81.5C142.088,81.033 142.162,80.542 142.15,80.05L142.15,76C141.913,76.273 141.637,76.509 141.33,76.7Z" style="fill:rgb(143,198,64);fill-rule:nonzero;"/>
    </g>
    <g transform="matrix(1,0,0,1,-94.04,-58.74)">
        <path d="M151.21,80.27C151.175,81.02 151.352,81.766 151.72,82.42C152.015,82.944 152.579,83.261 153.18,83.24C153.715,83.263 154.233,83.038 154.58,82.63C154.968,82.103 155.153,81.453 155.1,80.8C155.134,80.265 154.99,79.734 154.69,79.29C154.415,78.953 154.075,78.674 153.69,78.47L151.04,77.14C150.069,76.677 149.26,75.931 148.72,75C148.152,73.899 147.879,72.668 147.93,71.43C147.926,70.624 148.026,69.82 148.23,69.04C148.419,68.31 148.76,67.629 149.23,67.04C149.678,66.468 150.253,66.009 150.91,65.7C151.689,65.351 152.537,65.184 153.39,65.21C154.824,65.091 156.233,65.655 157.19,66.73C158.09,67.983 158.528,69.51 158.43,71.05L158.43,71.89L155,71.89C155.049,71.089 154.922,70.287 154.63,69.54C154.395,69.045 153.876,68.745 153.33,68.79C152.856,68.792 152.405,68.996 152.09,69.35C151.698,69.81 151.504,70.407 151.55,71.01C151.545,71.488 151.662,71.96 151.89,72.38C152.205,72.844 152.661,73.195 153.19,73.38L155.47,74.45C156.534,74.907 157.422,75.697 158,76.7C158.541,77.848 158.792,79.112 158.73,80.38C158.753,81.346 158.614,82.309 158.32,83.23C158.083,83.966 157.698,84.647 157.19,85.23C156.722,85.753 156.126,86.146 155.46,86.37C154.751,86.609 154.008,86.727 153.26,86.72C152.361,86.747 151.466,86.604 150.62,86.3C149.941,86.043 149.353,85.591 148.93,85C148.503,84.401 148.207,83.72 148.06,83C147.893,82.113 147.812,81.212 147.82,80.31L147.82,79.58L151.21,79.58L151.21,80.27Z" style="fill:rgb(143,198,64);fill-rule:nonzero;"/>
    </g>
    <g transform="matrix(1,0,0,1,-94.04,-58.74)">
        <path d="M170.79,65.76L170.79,67.94L170.84,67.94C171.139,67.145 171.622,66.432 172.25,65.86C172.803,65.43 173.49,65.207 174.19,65.23C175.755,65.238 177.145,66.265 177.61,67.76C178.34,69.46 178.7,72.21 178.7,76.03C178.7,79.85 178.34,82.58 177.61,84.24C177.124,85.713 175.741,86.716 174.19,86.72C173.535,86.738 172.892,86.541 172.36,86.16C171.771,85.688 171.305,85.08 171,84.39L171,92.9L167.23,92.9L167.23,65.76L170.79,65.76ZM171.32,81.09C171.57,82.22 172.11,82.79 172.95,82.79C173.79,82.79 174.31,82.22 174.55,81.09C174.842,79.42 174.966,77.725 174.92,76.03C174.966,74.335 174.842,72.64 174.55,70.97C174.31,69.84 173.77,69.27 172.95,69.27C172.13,69.27 171.57,69.84 171.32,70.97C171.052,72.632 170.945,74.317 171,76C170.941,77.703 171.048,79.408 171.32,81.09Z" style="fill:rgb(143,198,64);fill-rule:nonzero;"/>
    </g>
    <g transform="matrix(1,0,0,1,-94.04,-58.74)">
        <path d="M180.84,71.56C180.815,70.544 180.953,69.531 181.25,68.56C181.473,67.837 181.852,67.171 182.36,66.61C182.811,66.127 183.374,65.762 184,65.55C184.644,65.331 185.32,65.223 186,65.23C186.934,65.196 187.866,65.349 188.74,65.68C189.393,65.95 189.955,66.401 190.36,66.98C190.757,67.585 191.023,68.266 191.14,68.98C191.282,69.816 191.349,70.662 191.34,71.51L191.34,82.33C191.333,83.081 191.366,83.832 191.44,84.58C191.514,85.163 191.638,85.738 191.81,86.3L188.2,86.3C188.069,85.977 187.972,85.642 187.91,85.3C187.84,84.93 187.78,84.57 187.73,84.21L187.67,84.21C187.407,85.052 186.872,85.783 186.15,86.29C185.46,86.638 184.692,86.803 183.92,86.77C183.327,86.787 182.743,86.619 182.25,86.29C181.78,85.95 181.405,85.496 181.16,84.97C180.868,84.373 180.666,83.736 180.56,83.08C180.43,82.394 180.363,81.698 180.36,81C180.352,80.161 180.426,79.324 180.58,78.5C180.703,77.87 180.929,77.266 181.25,76.71C181.547,76.224 181.938,75.803 182.4,75.47C182.927,75.111 183.494,74.816 184.09,74.59L186.22,73.79C186.699,73.656 187.116,73.359 187.4,72.95C187.65,72.466 187.765,71.924 187.73,71.38C187.764,70.739 187.626,70.1 187.33,69.53C187.026,69.108 186.536,68.857 186.016,68.857C185.47,68.857 184.959,69.133 184.66,69.59C184.344,70.189 184.195,70.863 184.23,71.54L184.23,72.11L180.83,72.11L180.84,71.56ZM186.92,76.7C186.665,76.844 186.397,76.964 186.12,77.06C185.448,77.223 184.863,77.634 184.48,78.21C184.12,78.874 183.95,79.625 183.99,80.38C183.975,81.061 184.087,81.74 184.32,82.38C184.451,82.873 184.9,83.219 185.41,83.22C185.686,83.219 185.958,83.161 186.21,83.05C186.497,82.924 186.754,82.736 186.96,82.5C187.209,82.206 187.399,81.866 187.52,81.5C187.678,81.033 187.752,80.542 187.74,80.05L187.74,76C187.503,76.273 187.227,76.509 186.92,76.7Z" style="fill:rgb(143,198,64);fill-rule:nonzero;"/>
    </g>
    <g transform="matrix(1,0,0,1,-94.04,-58.74)">
        <path d="M197.65,65.76L197.65,68.51L197.71,68.51C198.02,67.634 198.492,66.823 199.1,66.12C199.604,65.545 200.336,65.219 201.1,65.23L201.44,65.23L201.79,65.29L201.79,70.29L201.2,70.23L200.61,70.23C200.268,70.229 199.928,70.293 199.61,70.42C199.262,70.552 198.953,70.769 198.71,71.05C198.415,71.382 198.191,71.769 198.05,72.19C197.876,72.753 197.795,73.341 197.81,73.93L197.81,86.3L194,86.3L194,65.76L197.65,65.76Z" style="fill:rgb(143,198,64);fill-rule:nonzero;"/>
    </g>
    <g transform="matrix(1,0,0,1,-94.04,-58.74)">
        <path d="M203.13,71.56C203.1,70.544 203.238,69.53 203.54,68.56C203.763,67.837 204.142,67.171 204.65,66.61C205.1,66.123 205.663,65.755 206.29,65.54C206.934,65.321 207.61,65.213 208.29,65.22C209.224,65.186 210.156,65.339 211.03,65.67C211.679,65.946 212.24,66.396 212.65,66.97C213.047,67.575 213.313,68.256 213.43,68.97C213.567,69.806 213.634,70.653 213.63,71.5L213.63,82.33C213.618,83.081 213.651,83.833 213.73,84.58C213.799,85.164 213.923,85.74 214.1,86.3L210.48,86.3C210.357,85.976 210.263,85.641 210.2,85.3C210.13,84.93 210.07,84.57 210.02,84.21L210,84.21C209.737,85.052 209.202,85.783 208.48,86.29C207.79,86.637 207.022,86.802 206.25,86.77C205.657,86.788 205.073,86.62 204.58,86.29C204.108,85.953 203.732,85.498 203.49,84.97C203.199,84.372 202.994,83.735 202.88,83.08C202.758,82.393 202.694,81.697 202.69,81C202.682,80.161 202.756,79.324 202.91,78.5C203.033,77.87 203.259,77.266 203.58,76.71C203.874,76.222 204.265,75.8 204.73,75.47C205.257,75.111 205.824,74.816 206.42,74.59L208.55,73.79C209.029,73.656 209.446,73.359 209.73,72.95C209.98,72.466 210.095,71.924 210.06,71.38C210.094,70.739 209.956,70.1 209.66,69.53C209.356,69.108 208.866,68.857 208.346,68.857C207.8,68.857 207.289,69.133 206.99,69.59C206.67,70.188 206.518,70.862 206.55,71.54L206.55,72.11L203.16,72.11L203.13,71.56ZM209.21,76.7C208.954,76.842 208.686,76.962 208.41,77.06C207.738,77.223 207.153,77.634 206.77,78.21C206.41,78.874 206.24,79.625 206.28,80.38C206.265,81.061 206.377,81.74 206.61,82.38C206.738,82.875 207.189,83.223 207.7,83.22C207.972,83.22 208.242,83.162 208.49,83.05C208.782,82.927 209.042,82.739 209.25,82.5C209.499,82.206 209.689,81.866 209.81,81.5C209.968,81.033 210.042,80.542 210.03,80.05L210.03,76C209.793,76.273 209.517,76.509 209.21,76.7Z" style="fill:rgb(143,198,64);fill-rule:nonzero;"/>
    </g>
    <g transform="matrix(1,0,0,1,-94.04,-58.74)">
        <path d="M226.13,78.47C226.129,79.064 226.159,79.659 226.22,80.25C226.275,80.766 226.382,81.276 226.54,81.77C226.653,82.163 226.847,82.527 227.11,82.84C227.328,83.099 227.651,83.247 227.99,83.24C228.61,83.254 229.174,82.871 229.39,82.29C229.744,81.362 229.947,80.383 229.99,79.39L233.38,79.39C233.433,81.302 232.955,83.192 232,84.85C231.096,86.139 229.569,86.853 228,86.72C226.849,86.778 225.714,86.423 224.8,85.72C224.01,85.055 223.421,84.182 223.1,83.2C222.718,82.066 222.493,80.885 222.43,79.69C222.35,78.39 222.31,77.1 222.31,75.8C222.308,74.464 222.375,73.129 222.51,71.8C222.621,70.632 222.9,69.487 223.34,68.4C223.708,67.469 224.315,66.651 225.1,66.03C226.001,65.413 227.079,65.107 228.17,65.16C229.125,65.119 230.069,65.378 230.87,65.9C231.6,66.437 232.171,67.163 232.52,68C232.96,69.045 233.236,70.151 233.34,71.28C233.496,72.708 233.569,74.144 233.56,75.58L233.56,76.76L226.09,76.76L226.13,78.47ZM229.88,71.62C229.839,71.101 229.742,70.588 229.59,70.09C229.493,69.712 229.296,69.367 229.02,69.09C228.744,68.851 228.384,68.732 228.02,68.76C227.67,68.75 227.33,68.884 227.08,69.13C226.812,69.397 226.61,69.722 226.49,70.08C226.337,70.507 226.229,70.95 226.17,71.4C226.11,71.881 226.08,72.365 226.08,72.85L226.08,73.65L230,73.65C230,72.91 229.93,72.22 229.88,71.62Z" style="fill:rgb(143,198,64);fill-rule:nonzero;"/>
    </g>
    <g transform="matrix(1,0,0,1,-94.04,-58.74)">
        <rect x="235.71" y="59" width="3.78" height="27.3" style="fill:rgb(143,198,64);fill-rule:nonzero;"/>
    </g>
    <g transform="matrix(1,0,0,1,-94.04,-58.74)">
        <path d="M151.83,95.33L151.83,122.78L139.46,122.78C139.46,122.78 121,122.91 121,143.19L121,198.19L94,198.19L94,146.12C94,146.12 90.91,93.41 151.83,95.33Z" style="fill:rgb(29,66,124);fill-rule:nonzero;"/>
    </g>
    <g transform="matrix(1,0,0,1,-94.04,-58.74)">
        <path d="M258.69,65L271.49,65C271.49,65 285.28,65 285.28,78L285.28,96L301.28,96L301.28,101.56C301.28,101.56 301.16,112.94 289.54,114.3L285.4,114.3L285.4,173C285.4,173 285.53,177.95 291.46,177.95L301.23,177.95L301.23,198.23L276.5,198.23C276.5,198.23 258.81,198.73 258.69,181.16C258.57,163.59 258.69,65 258.69,65Z" style="fill:rgb(29,66,124);fill-rule:nonzero;"/>
    </g>
    <g transform="matrix(1,0,0,1,-94.04,-58.74)">
        <path d="M311.54,65L325.27,65C325.27,65 339,65 339,79.25L339,86.25L311.54,86.25L311.54,64.79" style="fill:rgb(29,66,124);fill-rule:nonzero;"/>
    </g>
    <g transform="matrix(1,0,0,1,-94.04,-58.74)">
        <path d="M311.54,95.27L324.47,95.27C324.47,95.27 339,95.27 339,108.81L339,198.23L311.85,198.23L311.54,95.27Z" style="fill:rgb(29,66,124);fill-rule:nonzero;"/>
    </g>
    <g transform="matrix(1,0,0,1,-94.04,-58.74)">
        <path d="M201.18,93C201.18,93 154.42,90.52 154.42,146.63C154.42,198.25 192.13,200.3 201.85,200.3C201.85,200.3 238.03,202.3 247.43,166.3L226.78,166.42C226.78,166.42 221.46,166.3 217.5,171.99C213.54,177.68 203.92,177.8 201.87,177.8C199.82,177.8 181.87,177.68 181.76,153.44L249,153.44C249,153.44 255.84,93 201.18,93ZM221.18,136.29L181.63,136.29C181.63,136.29 181.88,114.76 201.87,115.14C221.86,115.52 221.21,136.27 221.21,136.27L221.18,136.29Z" style="fill:rgb(29,66,124);fill-rule:nonzero;"/>
    </g>
    <g transform="matrix(1,0,0,1,-94.04,-58.74)">
        <path d="M413.23,131.24C411.855,136.068 411.158,141.064 411.158,146.084C411.158,175.817 435.624,200.284 465.358,200.284C469.424,200.284 473.476,199.826 477.44,198.92C480.75,143.46 413.23,131.24 413.23,131.24Z" style="fill:rgb(29,66,124);fill-rule:nonzero;"/>
    </g>
    <g transform="matrix(1,0,0,1,-94.04,-58.74)">
        <path d="M467.43,92C445.734,91.152 425.535,103.424 416.29,123.07C429.62,121.85 488.15,118.57 519.23,151.41C519.33,150.36 519.41,149.3 519.45,148.23C519.477,147.527 519.491,146.823 519.491,146.119C519.491,117.2 496.328,93.121 467.43,92Z" style="fill:rgb(143,198,64);fill-rule:nonzero;"/>
    </g>
    <g transform="matrix(1,0,0,1,-94.04,-58.74)">
        <path d="M407.91,122.41L407.91,95.33C347,93.41 351.15,146.12 351.15,146.12L351.15,198.23L377.15,198.23L377.15,143.23C377.15,133.23 381.61,128.15 386.15,125.55L363.54,122.45L407.91,122.41Z" style="fill:rgb(29,66,124);fill-rule:nonzero;"/>
    </g>
    <g transform="matrix(1,0,0,1,-94.04,-58.74)">
        <path d="M476.77,205.58L475.9,209.16C476.251,207.982 476.542,206.788 476.77,205.58Z" style="fill:white;fill-rule:nonzero;"/>
    </g>
</svg>
