<?xml version="1.0" encoding="utf-8"?>
<!-- Generator: Adobe Illustrator 25.2.1, SVG Export Plug-In . SVG Version: 6.00 Build 0)  -->
<svg version="1.1" id="Layer_1" xmlns="http://www.w3.org/2000/svg" xmlns:xlink="http://www.w3.org/1999/xlink" x="0px" y="0px"
	 viewBox="0 0 5146.97 1559.05" style="enable-background:new 0 0 5146.97 1559.05;" xml:space="preserve">
<style type="text/css">
	.st0{fill:#E1251B;}
</style>
<g>
	<polygon class="st0" points="4724.83,1123.08 4715.51,1160.66 4705.12,1123.34 4680.82,1123.67 4681.78,1194.33 4699.07,1194.09 
		4698.65,1160.19 4707.56,1193.98 4724.19,1193.75 4732.37,1159.44 4732.87,1193.64 4750.17,1193.4 4749.21,1122.75 	"/>
	<path class="st0" d="M4805.67,1164.92c-0.87-0.91-1.84-1.78-2.9-2.63c3.58-1.27,6.48-3.16,8.66-5.65
		c3.23-3.69,4.84-8.37,4.76-13.91c-0.06-4.34-1.21-8.26-3.41-11.63c-2.22-3.43-5.23-5.84-8.96-7.18c-3.5-1.24-8.77-1.79-16.16-1.7
		l-30.35,0.41l0.96,70.65l18.25-0.25l-0.37-27.46l0.91-0.01c2.98,0,4.44,0.28,5.14,0.51c1.02,0.34,2.04,1.04,3.04,2.06
		c0.8,0.82,2.63,3.1,6.86,9.25l10.46,15.29l21.69-0.29l-10.6-16.51C4810.31,1170.67,4807.71,1167.08,4805.67,1164.92z
		 M4797.59,1143.81c0.02,1.44-0.27,2.62-0.86,3.51c-0.58,0.86-1.37,1.47-2.42,1.84c-0.59,0.21-2.86,0.71-11.1,0.82l-7.29,0.1
		l-0.16-11.59l7.82-0.11c1.86-0.03,3.46-0.04,4.8-0.04c3.16,0,4.2,0.07,4.46,0.1c1.58,0.24,2.73,0.8,3.54,1.7
		C4797.18,1141.02,4797.57,1142.21,4797.59,1143.81z"/>
	<path class="st0" d="M560.35,458.54c6.15,1.12,12.42,1.69,18.63,1.69c0,0,0,0,0,0c50.12,0,93.02-35.81,102-85.15
		c10.24-56.27-27.2-110.38-83.48-120.62c-6.15-1.12-12.41-1.69-18.62-1.69c-50.12,0-93.02,35.81-102,85.16
		C466.64,394.19,504.08,448.29,560.35,458.54z"/>
	<path class="st0" d="M4794.17,610.81c-22.26-12.46-43.89-18.78-64.28-18.78c-10.72,0-21.24,1.76-31.28,5.22
		c-47.71,16.46-69.34,66.56-70.26,68.75l-0.2,0.52l-121.11,381.52c-6.47,16.1-9.47,51.19,25.36,69.4
		c10.41,5.44,20.76,8.21,30.78,8.21c23.72,0,41.08-15.39,48.76-28.6c3.16-4.81,224.79-340.53,227.04-343.93l0.54-0.82l0.59-1.31
		C4853.71,719.02,4861.63,648.58,4794.17,610.81z"/>
	<path class="st0" d="M2086.42,731.66c1.02,0.01,2.03,0.01,3.02,0.01c0,0,0,0,0,0c32.61,0,52.34-4.8,62.08-15.11
		c5.19-5.5,7.56-12.25,7.05-20.09c-1.06-16.35-14.96-55.34-42.3-71.41c-8-4.71-16.52-7.09-25.33-7.09c-7.8,0-15.73,1.88-23.57,5.59
		c-65.05,30.84-75.46,93.12-75.87,95.75l-2.75,17.55l17.67-2.26C2006.64,734.56,2033.51,731.19,2086.42,731.66z"/>
	<path class="st0" d="M2856.5,952.07c-6.11-15.4-31.6-21.68-87.97-21.68c-11.19,0-23.73,0.28-37.26,0.83l-13.8,0.55l1.04,13.78
		c0.8,10.57,0.05,43.76-13.4,57.14c-4.55,4.51-10.4,6.4-17.97,5.78c-22.39-1.81-35.91-8.31-45.21-21.74
		c-11.1-16.03-16.22-42.37-16.13-82.89c0.03-9.14,0.78-17.82,2.23-25.8c4.82-26.48,16.71-41.69,25.84-49.79
		c13.38-11.86,27.39-14.9,35.65-15.56c2.75,10.95,7.5,26.28,15.05,40.65c10.14,19.29,22.54,31.54,36.85,36.42
		c4.61,1.57,9.38,2.36,14.17,2.36c0,0,0,0,0,0c13.99,0,28.58-6.73,43.38-20c19.68-17.65,26.98-39.9,20.55-62.66
		c-9.65-34.11-50.57-65.02-97.29-73.49c-16.69-3.04-33-4.58-48.47-4.58c-57.95,0-106.64,20.98-144.81,62.39
		c-5.97-18.21-16.75-31.69-32.09-40.11c-11.72-6.44-25.88-9.7-42.1-9.7c-29.68,0-61.01,11.1-78.82,20.61
		c-12.63,6.74-24.94,14-36.64,21.61c-2.31-18.55-7.8-30.73-17.58-39.18c-9.52-8.23-22.22-12.07-39.95-12.07
		c-6.93,0-14.54,0.58-23.26,1.78c-53.95,7.37-78.98,15.98-84.73,47.56c-0.35,1.9-0.61,3.84-0.8,5.74
		c-1.52,15.09,2.55,36.91,30.37,55.6c0.97,30.87,3.82,125.83,2.99,144.46c-0.01,0.21-0.03,0.42-0.07,0.64
		c-0.84,4.61-8.23,10.64-15.39,16.46c-11.53,9.38-25.88,21.07-29.22,39.41c-0.44,2.45-0.68,4.98-0.71,7.53
		c-0.26,27.51,30.59,38.68,51.39,39.47c20.01,0.77,74.06,2.13,110.51,2.13c15.73,0,26.63-0.25,32.4-0.75
		c18.53-1.6,41.26-14.1,44.36-44.05c3.01-29.11-20.7-43.28-37.37-45.7l-0.14-0.02c-16.67-1.46-17.6-8.32-18.69-16.27l-1.83-6.01
		l0.4-0.13c-1.04-5.43-1.36-46.23-1.53-68.15l-0.01-0.76c-0.19-22.7-0.31-36.41-0.72-41.14c-1.07-12.37,0.85-22.49,5.02-26.41
		c0.68-0.64,2.5-2.35,7.5-2.35c1.3,0,2.74,0.12,4.27,0.35c30.18,4.56,44.25,23.09,56.66,39.46c6.53,8.6,12.16,16.02,19.63,20.91
		c5.08,3.32,10.75,5,16.85,5c8.99,0,18.84-3.59,29.32-10.7c-2.34,26.64,2.37,52.75,14.02,77.7c23.05,49.35,71.25,89.74,125.8,105.41
		c18.97,5.45,38.48,8.21,57.96,8.21c40.33,0,80.18-12.17,112.23-34.26c33.16-22.86,56.58-54.67,67.75-91.97
		C2858.13,960.35,2858.05,955.97,2856.5,952.07z"/>
	<path class="st0" d="M3205.07,1007.67c-0.19-0.05-4.57-1.5-4.59-25.97c-0.02-25.35,4.52-66.69,13.52-122.88
		c7.46-46.6-3.19-84.79-29.99-107.53c-15.39-13.04-36.37-20.52-57.57-20.52c-9.76,0-19.28,1.53-28.31,4.55
		c-30.52,10.22-50.39,27.66-64.89,40.39c-5.75,5.04-12.9,11.32-16.01,12.23c-1.87,0.55-3.36,0.61-4.03,0.15
		c-1.21-0.82-2.61-3.72-2.95-7.67c-1.08-12.3-0.71-143.62-0.47-193.19l0.03-4.55l-2.76-3.6c-9.14-11.95-28.18-26.19-67-26.19
		c-23.43,0-49.52,5.43-73.47,15.28c-33.82,13.92-55.38,33.77-59.15,54.47c-0.68,3.76-0.79,7.55-0.31,11.26
		c5.68,44.16,43.94,57.71,58.41,61.27c3.43,107.08,7.03,272.43,3.04,294.35c-0.07,0.38-0.14,0.69-0.21,0.97
		c-0.68,2.57-4.71,4.95-11.27,8.58c-10.88,6.01-27.31,15.09-31.43,37.7c-0.46,2.51-0.75,5.14-0.87,7.81
		c-0.62,12.87,2.97,23.23,10.66,30.81c12.12,11.96,31.51,13.49,47.06,13.49c9.1,0,18.54-0.58,28.54-1.2
		c9.52-0.59,19.37-1.2,28.64-1.2c5.05,0,9.45,0.18,13.43,0.55c14.25,1.33,26.32,1.98,36.93,1.98c33.92,0,55.52-6.73,65.78-20.54
		c17.63,37.61,39.45,65.25,64.89,82.21c19.3,12.87,40.19,19.39,62.08,19.39c2.73,0,5.49-0.11,8.2-0.32
		c47.49-3.71,88.08-38.75,96.2-69.15c4.18-15.56,2.31-30.34-5.57-43.93C3263.4,1025.21,3218.42,1011.21,3205.07,1007.67z
		 M3011.61,861.82l0.35-20.21c7.42-0.17,17.5,0.04,29.67,0.6c23.82,1.09,29.04,22.5,30.11,29.57c-0.4,3.69-3.78,34.99-7.67,70.99
		c-2.72,25.21-5.62,52.08-7.71,71.42c-4.21-8.05-10.35-15.15-18.33-21.19c-10.02-7.58-20.67-11.77-28.41-14.03
		C3009.88,963.16,3010.99,898,3011.61,861.82z"/>
	<path class="st0" d="M4269.63,861.28l-9.08-3.8c-13.96-6.56-22.93-14.2-24.61-20.96c-1.06-4.23,0.54-9.11,4.89-14.92
		c4.72-6.3,8.71-7.12,11.71-7.13c10.58,0,25.51,12.29,34.78,24.43c10.96,14.34,27.21,23.25,42.4,23.25c3.22,0,6.37-0.39,9.37-1.17
		c9.57-2.48,26.3-11.22,30.77-41.81c2.73-18.56-2.18-35.62-14.62-50.71c-11.81-14.35-30.69-26.56-54.6-35.3
		c-18.48-6.76-39.92-11.29-57.35-12.12c-2.74-0.13-5.56-0.2-8.4-0.2c-32.4,0-66.08,8.12-92.43,22.28
		c-33.57,18.04-54.78,45.4-61.36,79.12c-5.54,28.36-0.68,53.41,14.45,74.46c31.12,43.33,94.29,52.35,96.97,52.72
		c6.48,0.86,29.2,9.69,34.94,21.02c1.54,3.06,1.38,5.62-0.55,9.16c-2.13,3.88-4.75,5.83-8.77,6.51c-1.11,0.19-2.32,0.29-3.6,0.29
		c-19.46,0-49.63-21.39-57.83-28.76c-31-27.85-56.79-30.85-66.44-30.85c-9.08,0-17.61,2.16-25.35,6.43
		c-12.86,7.08-20.96,19.33-24.06,36.4c-1.28,7.03-1.67,14.59-1.17,22.95c-8.56-6.64-18.81-10.45-31.12-11.58
		c-0.46-1.96-0.8-6.9-0.48-18.62l0.13-8.17l-0.41-219.61l-104.21,3.68c20.52-2.3,41.72-10.18,60.81-22.8
		c50.34-33.27,71.57-90.19,47.33-126.9c-12.77-19.31-34.88-29.95-62.25-29.95l-0.6,0c-23.76,0.13-49.49,8.56-72.46,23.73
		c-29.26,19.34-50.17,47.74-55.94,75.96c-3.86,18.92-0.88,36.54,8.63,50.94c9.52,14.39,24.55,24.04,43.49,27.91
		c4.44,0.9,9.09,1.47,13.86,1.7l-17.55,0.62c-17.56,1.05-48.71,10.63-54.04,39.91c-0.35,1.92-0.58,3.87-0.69,5.8
		c-1.58,28.4,20.86,38.93,31.7,43.99c0.33,0.18,2.13,1.12,3.7,1.94c0.15,15.16,1.3,124.87,1.36,130.45
		c-0.01,0.04-0.01,0.08-0.02,0.11c-0.01,0.09-0.03,0.18-0.05,0.32c-1.12,6.17-7.06,26.66-35.89,25.69
		c-27.64-0.88-31.71-17.63-34.15-39.43c-1.75-15.66-3.26-231.69-3.7-313.72c0.11-2.01,1.19-27.73-14.98-44.19
		c-8.21-8.36-19.5-12.6-32.53-12.22c-5.55-0.08-20.22-0.25-37.61-0.25c-24.18,0-56.22,0.35-71.58,2.02l-1.62,0.16
		c-34.44,3.37-52.39,19.03-53.35,46.54c-1.08,31.37,24.68,43.53,43.53,52.42c4.88,2.3,17.83,8.39,18.12,11.11
		c1.5,14.39,3.62,186.75,4.32,251.93l0,0.82l0.2,1.37c0.3,1.92,2.2,19.09-23.4,31.58c-13.95,6.81-23.93,18.46-28.12,32.8
		c-3.83,13.14-2.19,27.41,4.39,38.17c13.81,22.5,35.48,35.23,61.02,35.84c14.54,0.34,28.86,0.51,43.78,0.51
		c26.67,0,55.85-0.55,89.23-1.69c26.11-0.89,33.91-22.36,36.95-32.81c4.92,10.08,15.49,28.1,40.76,32.7
		c8,1.46,26.12,2.19,53.86,2.19c40.5,0,89.35-1.55,103.36-2.03l0.12-0.01c1.25-0.1,30.78-2.85,41.31-31.52
		c0.85-2.3,1.59-4.08,2.23-5.48c12.26,8.39,31.16,17.36,57.59,27.36c29.12,11.02,62.41,16.84,96.28,16.84
		c38.65,0,75.23-7.77,102.99-21.88c31.37-15.94,52.16-39.66,60.13-68.58C4397.66,912.71,4304.62,875.34,4269.63,861.28z"/>
	<path class="st0" d="M1438.03,913.08c-4.97-1.1-10.12-1.66-15.31-1.66c-25.45,0-50.99,13.54-60.73,32.2
		c-6.98,13.36-7.94,26.71-8.79,38.5c-1.31,18.13-2.6,22.69-12.22,25.8c-4.55,1.47-8.96,2.21-13.1,2.21
		c-22.96,0-33.16-22.44-35.73-29.31c-4.6-12.41-3.72-25.13-2.18-33.62c0.95-5.2,2.21-9.32,3.16-11.98
		c19.92-21.54,115.26-50.17,171-63.23l10.53-2.47l-0.25-10.82c-1.22-51.02-32.73-91.37-86.46-110.71
		c-20.28-7.3-43.81-11.16-68.06-11.16c-28.58,0-57.24,5.36-82.87,15.51c-28.76,11.39-52.97,28.24-71.95,50.1
		c-22.94,26.43-37.49,55.8-43.22,87.31c-10.15,55.77,9.72,103.52,19.58,122.81c-4.11,5.34-8.89,8.76-14.23,10.16
		c-8.13,2.12-18.06-0.54-29.33-7.86c-22.31-14.49-21.85-30.29-21.15-54.22c0.61-21.28,1.3-45.4-16.78-69.46
		c-18.16-24.17-32.46-37.49-47.59-48.79c39.64-9.7,86.41-27.58,136.57-80.28c24.95-26.21,42.58-59.45,48.36-91.2
		c4.07-22.38,2.32-43.67-5.21-63.28c-13.98-36.4-37.06-61.54-68.61-74.72c-16.87-7.05-36.32-10.62-57.79-10.62
		c-25.26,0-53.82,4.93-84.89,14.66c-25.71,8.05-47.67,17.66-60.79,23.4l-4.93,2.15l0-0.01l-18.15,8.08
		c-25.98,11.72-55.43,25-76.52,25c-5.74,0-10.65-1-14.62-2.98c-13.76-6.86-29.28-19.84-43.02-31.34l-0.15-0.12
		c-15.43-12.9-28.75-24.04-40.26-27.48c-2.99-0.89-6.79-1.37-11-1.37c-6.18,0-22.17,1.19-37.12,12.21
		c-8.72,6.42-19.92,18.53-23.78,39.75c-0.87,4.76-1.33,9.86-1.39,15.18c-0.26,25.84,22.84,32.06,38.15,36.18
		c20.83,5.62,33.42,9.01,30.71,36.79c-1.68,7.06-30.15,125.61-64.94,187.12L567,1008.74c-2.78,3.68-11.52,16.28-14.26,32.68
		c-2.64,15.81,1.31,30.01,11.43,41.06c10.78,11.8,29.54,17.53,57.33,17.53c23.16,0,48.17-3.98,68.25-7.17l13.17-2.03l9.18-1.25
		c56.03-7.53,116.47-18.56,124.28-54.43c1.88-8.65,0.43-16.87-4.45-25.11c-4.15-7.01-10.27-13.16-15.67-18.58
		c-14.21-14.28-27.64-27.76-21.93-56.05c3.48-17.21,13.26-27.41,26.83-27.99c10.04-0.42,19.23,4.54,22.34,11.83
		c-0.83,13.64-2.44,59.01,8.52,107.9c6.42,28.64,16.09,53.53,28.74,73.99c15.56,25.17,35.77,43.81,60.06,55.38
		c20.18,9.62,41.43,14.49,63.18,14.49c35.2,0,72.01-12.89,106.47-37.27c28.85-20.42,54.68-47.86,72.98-77.49
		c43.89,35.02,90,42.45,121.19,42.45c5.09,0,10.23-0.2,15.29-0.58c56.83-4.33,114.95-32.68,144.64-70.57
		c25.83-32.99,24.44-58.95,18.72-74.91C1474.82,928.99,1453.62,916.55,1438.03,913.08z M1277.28,859.15c0.33-2.74,0.77-5.93,1.4-9.4
		c4.1-22.5,13.96-49.49,37.72-50.33c0.68-0.02,1.36-0.04,2.03-0.04c10.67,0,18.83,3.03,24.94,9.27
		c9.43,9.64,12.26,24.99,13.09,34.55C1341.59,846.2,1297.45,855.09,1277.28,859.15z M825.78,832.17c0.01-0.05,0.02-0.09,0.03-0.14
		c20.79-69.42,46.41-147.01,54.13-159.37c0.89-0.26,2.46-0.48,4.73-0.48c8.66,0,23.32,3.03,36.16,11.55
		c14.22,9.46,20.49,21.82,18.63,36.73c-8.32,67.07-75.72,99.37-104.32,110.15c-4.73,1.78-7.75,2.35-9.5,2.51
		C825.67,832.8,825.72,832.47,825.78,832.17z"/>
	<path class="st0" d="M2187.07,905.75c-2.2-48.78-32.02-99.12-77.82-131.38c-34.39-24.23-75.14-37.04-117.85-37.04
		c-22.91,0-46.35,3.63-69.65,10.78c-48.32,14.85-82.91,46.7-102.97,94.75c-2.65-35.07-25.81-77.39-65.03-94.77
		c-23.65-10.48-54.21-16.5-83.84-16.5c-25.56,0-49.41,4.23-70.89,12.58c-40.8,15.86-70.74,45.07-88.99,86.83
		c-25.84,59.09-27.19,119.43-3.81,169.88c19.5,42.08,54.61,72.54,98.86,85.77c24.99,7.48,49.25,11.27,72.11,11.27
		c33.21,0,63.46-7.9,89.88-23.49c25.45-15.01,46.96-36.92,63.96-65.15c8.22,12.06,23.93,31.92,47.89,49.43
		c27.28,19.94,57.09,30.92,88.61,32.64c5.46,0.3,10.95,0.45,16.33,0.45c0,0,0,0,0,0c62.21,0,116.92-20.28,154.07-57.09
		C2171.86,1001.09,2189.31,955.29,2187.07,905.75z M1956.11,870.02l1.21-11.65c1.75-18.82,15.58-34.64,31.47-36.01
		c0.85-0.07,1.71-0.11,2.54-0.11c20.82,0,31.15,23.12,33.82,30.2c5.28,14.02,9.46,25.09,5.45,99.24
		c-1.76,32.81-5.79,65.09-33.33,67.92c-1.95,0.2-3.73,0.3-5.42,0.3c-13.79,0-27.44-5.75-33.83-47.44
		C1950.37,922.7,1953.55,893.5,1956.11,870.02z M1758.62,934.37c-31.24,0-36.67,2.36-39.59,3.63c-4.93,2.13-7.83,5.98-8.88,11.75
		c-0.87,4.8-0.49,10.51-0.05,17.11c0.97,14.69,0.8,24.6-0.57,32.13c-2.18,11.96-7.55,17.83-17.41,19.04c-1.65,0.2-3.31,0.3-4.94,0.3
		c-14.99,0-26.47-8.55-33.46-15.72c-21.56-22.11-31.25-60.78-25.3-100.92c0.68-4.55,1.41-8.99,2.18-13.19
		c7.32-40.19,17.31-59.17,20.6-64.6c3.7-2.62,15.24-9.66,32.56-9.86c3.95,48.81,22.27,71.58,32.95,80.86
		c11.51,10,25.39,15.07,41.25,15.07c3.87,0,7.91-0.31,12.01-0.91c14.28-2.12,25.99-8.1,34.46-17.51
		c-3.22,17.86-4.09,33.28-4.2,43.78C1784.01,934.69,1770.02,934.37,1758.62,934.37z"/>
	<path class="st0" d="M3547.08,771.54c-36.1-30.64-82.34-47.51-130.21-47.51c-15.38,0-30.92,1.71-46.22,5.1
		c-121.9,26.94-150.05,134.45-147.47,193.72c2.61,59.94,57.35,152.96,166.57,162.28c7.82,0.67,15.64,1.01,23.24,1.01c0,0,0,0,0,0
		c52.92,0,99.81-16.44,135.58-47.53c37.9-32.95,60.33-79.61,63.16-131.37C3614.32,859.58,3589.55,807.58,3547.08,771.54z
		 M3381.92,860.01l1.32-11.68c1.92-18.72,15.88-34.35,31.77-35.57c0.8-0.06,1.62-0.09,2.42-0.09c15.83,0,29.77,12,33.15,28.54
		l1.09,5.13c3.18,14.65,6.77,31.25,4.03,96.07c-1.41,33.34-6.48,64.55-33.87,67.12c-1.78,0.17-3.48,0.25-5.04,0.25
		c-13.98,0-27.75-5.77-33.81-47.62C3375.75,912.44,3379.17,883.38,3381.92,860.01z"/>
	<path class="st0" d="M552.9,520.75c-0.54-12.04-5.5-28.67-26.07-39.5c-9.55-5.03-18.99-7.57-28.08-7.57l-0.28,0
		c-27.27,0.15-41.69,22.54-43.39,25.35L226.52,843.14l-0.39,0.82c-0.38,0.89-9.35,22.16-8.7,49.06
		c0.62,25.29,10.09,60.38,51.76,83.86c21.43,12.08,42.19,18.2,61.71,18.2l0.52,0c27.21-0.15,52.38-12.38,72.81-35.36
		c15.18-17.07,22.37-33.95,22.67-34.65l0.13-0.31l122.21-381.24C550.02,541.55,553.42,532.21,552.9,520.75z"/>
	<path class="st0" d="M4500.6,1140.82c-5.74-1.03-11.58-1.55-17.37-1.55l-0.55,0c-47.12,0.26-87.38,34.19-95.71,80.66
		c-9.5,53.12,25.99,104.08,79.12,113.6c5.74,1.03,11.59,1.55,17.38,1.55l0.54,0c47.14-0.27,87.39-34.18,95.7-80.64
		c4.62-25.74-1.07-51.74-16.01-73.2C4548.75,1159.78,4526.34,1145.42,4500.6,1140.82z"/>
</g>
</svg>
