<?xml version="1.0" encoding="utf-8"?>
<!-- Generator: Adobe Illustrator 25.4.1, SVG Export Plug-In . SVG Version: 6.00 Build 0)  -->
<svg version="1.1" id="Capa_1" xmlns="http://www.w3.org/2000/svg" xmlns:xlink="http://www.w3.org/1999/xlink" x="0px" y="0px"
	 viewBox="0 0 1040.7 302.1" style="enable-background:new 0 0 1040.7 302.1;" xml:space="preserve">
<style type="text/css">
	.st0{fill:#7B7D80;}
	.st1{fill:url(#SVGID_1_);}
	.st2{fill:#535353;}
	.st3{fill:url(#SVGID_00000018956023545006599900000010916897382081710466_);}
	.st4{fill:url(#SVGID_00000158009019666079424100000011355669328857759650_);}
	.st5{fill:url(#SVGID_00000143602545609456157090000001303465235208825746_);}
	.st6{fill:url(#SVGID_00000037657795019197661980000001404640556882165908_);}
	.st7{fill:url(#SVGID_00000128450409387099043850000003350647451736933787_);}
	.st8{fill:none;stroke:#545454;stroke-miterlimit:10;}
</style>
<g>
	<g>
		<g>
			<polygon class="st0" points="669.7,237.3 660,237.3 660,227.8 657.7,227.9 657.7,248.8 660,248.8 660,239.2 669.7,239.2 
				669.7,248.8 672,248.8 672,227.9 669.7,227.9 			"/>
			<path class="st0" d="M693.9,228.8c-1.5-0.9-3.1-1.4-5-1.4c-1.9,0-3.5,0.5-5,1.5c-1.5,1-2.7,2.3-3.5,3.9c-0.8,1.6-1.3,3.5-1.3,5.6
				c0,2,0.4,3.9,1.2,5.5c0.8,1.6,2,2.9,3.4,3.8c1.5,0.9,3.1,1.4,4.9,1.4c1.9,0,3.6-0.5,5-1.5c1.5-1,2.7-2.3,3.5-3.9
				c0.8-1.7,1.3-3.5,1.3-5.6c0-2-0.4-3.9-1.2-5.5C696.5,231,695.4,229.8,693.9,228.8 M696.1,238.2c0,1.7-0.3,3.2-1,4.6
				c-0.6,1.3-1.5,2.4-2.6,3.2c-1.1,0.8-2.4,1.1-3.8,1.1c-1.3,0-2.6-0.4-3.6-1.1c-1.1-0.7-1.9-1.8-2.5-3.1c-0.6-1.3-0.9-2.8-0.9-4.5
				c0-1.7,0.3-3.2,1-4.6c0.6-1.3,1.5-2.4,2.6-3.2c1.1-0.7,2.4-1.1,3.8-1.1c1.4,0,2.6,0.4,3.6,1.1c1.1,0.7,1.9,1.8,2.5,3.1
				C695.7,235.1,696.1,236.6,696.1,238.2"/>
			<polygon class="st0" points="703.2,227.9 703.2,229.9 710.2,229.9 710.2,248.8 712.6,248.8 712.6,229.9 719.6,229.9 719.4,227.9 
							"/>
			<polygon class="st0" points="728,246.8 728,239 735.4,239 735.2,237.2 728,237.2 728,229.7 737.9,229.7 737.7,227.9 725.7,227.9 
				725.7,248.8 737.9,248.8 737.6,246.8 			"/>
			<polygon class="st0" points="746.6,246.8 746.6,227.9 744.2,227.9 744.2,248.8 756.5,248.8 756.3,246.8 			"/>
			<path class="st0" d="M809.5,238.9l0-0.2l-1.8-0.7l0,0.3c-0.1,2.1-0.6,3.8-1.2,5.1l-6.1-5.7c-0.8-0.8-1.5-1.4-1.9-1.9
				c-0.4-0.4-0.7-0.9-0.9-1.4c-0.2-0.5-0.3-1.1-0.3-1.7c0-0.6,0.1-1.1,0.4-1.6c0.3-0.5,0.7-0.9,1.2-1.2c0.5-0.3,1.1-0.5,1.8-0.5
				c0.8,0,1.4,0.1,1.9,0.2c0.5,0.1,0.9,0.3,1.2,0.5l0.9,0.4l0.9-1.8l-0.2-0.1c-0.8-0.4-1.5-0.7-2.2-0.9c-0.7-0.2-1.5-0.3-2.4-0.3
				c-1.2,0-2.2,0.2-3,0.7c-0.8,0.5-1.5,1.2-1.9,2c-0.4,0.8-0.7,1.8-0.7,2.8c0,1.2,0.3,2.2,0.8,3.1c-0.9,0.6-1.7,1.5-2.3,2.5
				c-0.6,1.1-1,2.4-1,3.8c0,1.4,0.3,2.7,1,3.7c0.7,1,1.6,1.8,2.8,2.3c1.2,0.5,2.5,0.8,4,0.8c2.8,0,5-0.9,6.5-2.5l2.5,2.3l1.1-1.6
				l-2.5-2.3C808.9,243.4,809.4,241.4,809.5,238.9 M805.4,245.1c-1.2,1.4-2.8,2-4.9,2c-1,0-1.9-0.2-2.7-0.6c-0.8-0.4-1.5-0.9-2-1.6
				c-0.5-0.7-0.8-1.6-0.8-2.7c0-1.1,0.2-2.1,0.7-2.9c0.4-0.8,0.9-1.4,1.6-1.8L805.4,245.1z"/>
			<path class="st0" d="M841.1,234c0-2.1-0.7-3.7-2.1-4.6c-1.3-0.9-3.2-1.4-5.5-1.4H828v20.9h2.3v-8.6h2.9c0.7,0,1.5,0,2.2-0.1
				l4.8,8.7h2.6l-5.4-9.4C839.9,238.4,841.1,236.6,841.1,234 M838.8,234c0,1.5-0.5,2.6-1.5,3.2c-1,0.7-2.4,1-4,1h-2.9V230h3.3
				c1.7,0,3,0.3,3.9,0.9C838.3,231.4,838.8,232.5,838.8,234"/>
			<polygon class="st0" points="851.1,246.8 851.1,239 858.5,239 858.3,237.2 851.1,237.2 851.1,229.7 861,229.7 860.8,227.9 
				848.8,227.9 848.8,248.8 861,248.8 860.7,246.8 			"/>
			<path class="st0" d="M876.7,239.3c-0.8-0.5-1.8-1.1-3.2-1.7c-1.4-0.7-2.5-1.2-3.3-1.7c-0.7-0.4-1.3-0.9-1.7-1.4
				c-0.4-0.5-0.6-1.1-0.6-1.8c0-1,0.4-1.7,1.2-2.3c0.8-0.6,1.9-0.9,3.3-0.9c0.9,0,1.6,0.1,2.2,0.3c0.6,0.2,1.3,0.4,2,0.7l0.2,0.1
				l0.8-1.8l-0.2-0.1c-0.7-0.3-1.5-0.6-2.4-0.9c-0.9-0.2-1.8-0.3-2.8-0.3c-1.3,0-2.4,0.2-3.4,0.7c-1,0.5-1.8,1.1-2.3,1.9
				c-0.6,0.8-0.8,1.7-0.8,2.7c0,2.6,1.9,4.7,5.7,6.3c1.3,0.6,2.4,1.1,3.1,1.5c0.7,0.4,1.3,0.9,1.7,1.5c0.4,0.5,0.6,1.1,0.6,1.8
				c0,1-0.4,1.8-1.3,2.5c-0.9,0.6-2.2,1-3.8,1c-0.9,0-1.8-0.1-2.6-0.3c-0.9-0.2-1.6-0.5-2.2-0.8l-0.2-0.1l-0.6,1.9l0.2,0.1
				c0.7,0.4,1.6,0.7,2.6,0.9c1.1,0.2,2.1,0.4,2.9,0.4c1.5,0,2.8-0.2,3.8-0.7c1.1-0.5,2-1.1,2.5-1.9c0.6-0.8,0.9-1.8,0.9-2.8
				c0-1-0.2-1.9-0.6-2.6C878.1,240.5,877.5,239.9,876.7,239.3"/>
			<path class="st0" d="M899.3,228.8c-1.5-0.9-3.1-1.4-5-1.4c-1.9,0-3.5,0.5-5,1.5c-1.5,1-2.6,2.3-3.5,3.9c-0.8,1.6-1.3,3.5-1.3,5.6
				c0,2,0.4,3.9,1.2,5.5c0.8,1.6,2,2.9,3.4,3.8c1.5,0.9,3.1,1.4,4.9,1.4c1.9,0,3.5-0.5,5-1.5c1.5-1,2.7-2.3,3.5-3.9
				c0.8-1.7,1.3-3.5,1.3-5.6c0-2-0.4-3.9-1.2-5.5C901.9,231,900.7,229.8,899.3,228.8 M901.4,238.2c0,1.7-0.3,3.2-0.9,4.6
				c-0.6,1.3-1.5,2.4-2.6,3.2c-1.1,0.8-2.4,1.1-3.8,1.1c-1.3,0-2.6-0.4-3.6-1.1c-1.1-0.7-1.9-1.8-2.5-3.1c-0.6-1.3-0.9-2.8-0.9-4.5
				c0-1.7,0.3-3.2,1-4.6c0.6-1.3,1.5-2.4,2.6-3.2c1.1-0.7,2.4-1.1,3.8-1.1c1.3,0,2.6,0.4,3.6,1.1c1.1,0.7,1.9,1.8,2.5,3.1
				C901.1,235.1,901.4,236.6,901.4,238.2"/>
			<path class="st0" d="M924.2,234c0-2.1-0.7-3.7-2.1-4.6c-1.3-0.9-3.2-1.4-5.5-1.4h-5.5v20.9h2.3v-8.6h2.9c0.7,0,1.5,0,2.2-0.1
				l4.8,8.7h2.6l-5.3-9.4C923,238.4,924.2,236.6,924.2,234 M921.8,234c0,1.5-0.5,2.6-1.5,3.2c-1,0.7-2.4,1-4,1h-2.9V230h3.3
				c1.7,0,3,0.3,3.9,0.9C921.4,231.4,921.8,232.5,921.8,234"/>
			<polygon class="st0" points="929.4,227.9 929.4,229.9 936.4,229.9 936.4,248.8 938.8,248.8 938.8,229.9 945.8,229.9 945.6,227.9 
							"/>
			<path class="st0" d="M963.1,241.2c-0.4-0.7-1-1.3-1.8-1.9c-0.8-0.5-1.8-1.1-3.2-1.7c-1.4-0.7-2.5-1.2-3.3-1.7
				c-0.7-0.4-1.3-0.9-1.7-1.4c-0.4-0.5-0.6-1.1-0.6-1.8c0-1,0.4-1.7,1.2-2.3c0.8-0.6,1.9-0.9,3.3-0.9c0.9,0,1.7,0.1,2.3,0.3
				c0.6,0.2,1.3,0.4,2,0.7l0.2,0.1l0.9-1.8l-0.2-0.1c-0.7-0.3-1.5-0.6-2.4-0.9c-0.9-0.2-1.8-0.3-2.8-0.3c-1.3,0-2.4,0.2-3.4,0.7
				c-1,0.5-1.8,1.1-2.3,1.9c-0.6,0.8-0.8,1.7-0.8,2.7c0,2.6,1.9,4.7,5.7,6.3c1.3,0.6,2.4,1.1,3.1,1.5c0.7,0.4,1.3,0.9,1.7,1.5
				c0.4,0.5,0.6,1.1,0.6,1.8c0,1-0.4,1.8-1.3,2.5c-0.9,0.6-2.2,1-3.8,1c-0.9,0-1.8-0.1-2.6-0.3c-0.9-0.2-1.6-0.5-2.2-0.8l-0.2-0.1
				l-0.6,1.9l0.2,0.1c0.7,0.4,1.6,0.7,2.6,0.9c1.1,0.2,2.1,0.4,2.9,0.4c1.5,0,2.8-0.2,3.9-0.7c1.1-0.5,2-1.1,2.5-1.9
				c0.6-0.8,0.9-1.8,0.9-2.8C963.7,242.8,963.5,241.9,963.1,241.2"/>
			<path class="st0" d="M774.2,241.2c-0.4-0.7-1-1.3-1.8-1.9c-0.8-0.5-1.8-1.1-3.2-1.7c-1.4-0.7-2.5-1.2-3.3-1.7
				c-0.7-0.4-1.3-0.9-1.7-1.4c-0.4-0.5-0.6-1.1-0.6-1.8c0-1,0.4-1.7,1.2-2.3c0.8-0.6,1.9-0.9,3.3-0.9c0.9,0,1.7,0.1,2.3,0.3
				c0.6,0.2,1.3,0.4,2,0.7l0.2,0.1l0.9-1.8l-0.2-0.1c-0.7-0.3-1.5-0.6-2.4-0.9c-0.9-0.2-1.8-0.3-2.8-0.3c-1.3,0-2.4,0.2-3.4,0.7
				c-1,0.5-1.8,1.1-2.3,1.9c-0.6,0.8-0.8,1.7-0.8,2.7c0,2.6,1.9,4.7,5.7,6.3c1.3,0.6,2.4,1.1,3.1,1.5c0.7,0.4,1.3,0.9,1.7,1.5
				c0.4,0.5,0.6,1.1,0.6,1.8c0,1-0.4,1.8-1.3,2.5c-0.9,0.6-2.2,1-3.8,1c-0.9,0-1.8-0.1-2.6-0.3c-0.9-0.2-1.6-0.5-2.2-0.8l-0.2-0.1
				l-0.6,1.9l0.2,0.1c0.7,0.4,1.6,0.7,2.6,0.9c1.1,0.2,2.1,0.4,2.9,0.4c1.5,0,2.8-0.2,3.9-0.7c1.1-0.5,2-1.1,2.5-1.9
				c0.6-0.8,0.9-1.8,0.9-2.8C774.9,242.8,774.6,241.9,774.2,241.2"/>
		</g>
		<g>
			<path class="st0" d="M600.1,162.7h17.2c10.1,0,16.6,5.8,16.6,14.6v0.1c0,9.8-7.8,14.9-17.4,14.9h-8.7v14h-7.7V162.7z
				 M616.7,185.3c5.8,0,9.4-3.2,9.4-7.8v-0.1c0-5.1-3.7-7.8-9.4-7.8h-8.9v15.7H616.7z"/>
			<path class="st0" d="M654.4,162.4h7.1l19.2,43.9h-8.1l-4.4-10.5h-20.6l-4.5,10.5h-7.8L654.4,162.4z M665.3,188.9l-7.5-17.4
				l-7.5,17.4H665.3z"/>
			<path class="st0" d="M689.7,162.7h19.4c5.5,0,9.8,1.6,12.6,4.4c2.3,2.4,3.6,5.6,3.6,9.4v0.1c0,7.2-4.3,11.5-10.4,13.2l11.8,16.5
				h-9L707,191.1h-0.1h-9.5v15.2h-7.7V162.7z M708.6,184.3c5.5,0,9-2.9,9-7.3v-0.1c0-4.7-3.4-7.2-9-7.2h-11.1v14.6H708.6z"/>
			<path class="st0" d="M736.4,162.7h7.7v21.9l20.7-21.9h9.4L756,181.4l18.9,24.8h-9.3l-14.9-19.6l-6.8,7v12.6h-7.7V162.7z"/>
			<path class="st0" d="M804.6,162.7H824c5.5,0,9.8,1.6,12.6,4.4c2.3,2.4,3.6,5.6,3.6,9.4v0.1c0,7.2-4.3,11.5-10.4,13.2l11.8,16.5
				h-9l-10.7-15.2h-0.1h-9.5v15.2h-7.7V162.7z M823.4,184.3c5.5,0,9-2.9,9-7.3v-0.1c0-4.7-3.4-7.2-9-7.2h-11.1v14.6H823.4z"/>
			<path class="st0" d="M849.3,184.6v-0.1c0-12.3,9.5-22.5,22.8-22.5c13.4,0,22.7,10.1,22.7,22.4v0.1c0,12.3-9.5,22.5-22.9,22.5
				C858.6,207,849.3,196.8,849.3,184.6z M886.8,184.6v-0.1c0-8.5-6.2-15.5-14.8-15.5c-8.6,0-14.7,6.9-14.7,15.4v0.1
				c0,8.5,6.2,15.5,14.8,15.5C880.8,200,886.8,193,886.8,184.6z"/>
			<path class="st0" d="M914.8,189.1l-17.3-26.4h9l12.2,19.3l12.3-19.3h8.8l-17.3,26.2v17.4h-7.7V189.1z"/>
			<path class="st0" d="M955.4,162.4h7.1l19.2,43.9h-8.1l-4.4-10.5h-20.6l-4.5,10.5h-7.8L955.4,162.4z M966.4,188.9l-7.5-17.4
				l-7.5,17.4H966.4z"/>
			<path class="st0" d="M990.8,162.7h7.7v36.6h22.9v7h-30.6V162.7z"/>
		</g>
		<linearGradient id="SVGID_1_" gradientUnits="userSpaceOnUse" x1="905.822" y1="57.8735" x2="689.2296" y2="189.5617">
			<stop  offset="8.357320e-02" style="stop-color:#C74F73"/>
			<stop  offset="0.2405" style="stop-color:#BA4C75"/>
			<stop  offset="0.5328" style="stop-color:#97467C"/>
			<stop  offset="0.9261" style="stop-color:#5E3B86"/>
			<stop  offset="1" style="stop-color:#533988"/>
		</linearGradient>
		<path class="st1" d="M702.3,127.4c0,0.1-0.1,0.2-0.1,0.3c0,0.1,0,0.1-0.1,0.2l0,0c-0.2,0.5-0.3,1-0.3,1.5c0,2.6,2.1,4.8,4.8,4.8
			c2.1,0,3.9-1.4,4.5-3.4c15.4-40,54.2-68.5,99.6-68.5c45.5,0,84.4,28.7,99.7,68.9l0,0c0.7,1.7,2.4,3,4.4,3c2.6,0,4.7-2.1,4.7-4.7
			c0-0.6-0.1-1.3-0.4-1.8h0c-16.7-43.7-59-74.8-108.5-74.8C761.3,52.8,719,83.8,702.3,127.4"/>
	</g>
	<path class="st0" d="M1029.1,201c0-0.8,0.2-1.5,0.5-2.2c0.3-0.7,0.7-1.3,1.3-1.8c0.5-0.5,1.1-0.9,1.9-1.2c0.7-0.3,1.5-0.4,2.3-0.4
		c0.8,0,1.6,0.1,2.3,0.4c0.7,0.3,1.3,0.7,1.9,1.2c0.5,0.5,0.9,1.1,1.3,1.8c0.3,0.7,0.5,1.4,0.5,2.2c0,0.8-0.2,1.5-0.5,2.2
		c-0.3,0.7-0.7,1.3-1.3,1.8c-0.5,0.5-1.1,0.9-1.9,1.2c-0.7,0.3-1.5,0.4-2.3,0.4c-0.8,0-1.6-0.1-2.3-0.4c-0.7-0.3-1.3-0.7-1.9-1.2
		c-0.5-0.5-0.9-1.1-1.3-1.8C1029.2,202.5,1029.1,201.7,1029.1,201z M1030,201c0,0.6,0.1,1.3,0.4,1.8c0.3,0.6,0.6,1.1,1,1.5
		c0.4,0.4,1,0.8,1.6,1c0.6,0.2,1.2,0.4,1.9,0.4c0.7,0,1.3-0.1,1.9-0.4c0.6-0.2,1.1-0.6,1.6-1c0.4-0.4,0.8-0.9,1-1.5
		c0.3-0.6,0.4-1.2,0.4-1.8c0-0.7-0.1-1.3-0.4-1.9c-0.3-0.6-0.6-1.1-1-1.5c-0.4-0.4-1-0.8-1.6-1c-0.6-0.2-1.2-0.4-1.9-0.4
		c-0.7,0-1.3,0.1-1.9,0.4c-0.6,0.2-1.1,0.6-1.6,1c-0.4,0.4-0.8,0.9-1,1.5C1030.1,199.7,1030,200.3,1030,201z M1032.6,197.8h2.3
		c0.3,0,0.6,0,0.9,0.1c0.3,0.1,0.5,0.2,0.8,0.3c0.2,0.1,0.4,0.3,0.5,0.6c0.1,0.2,0.2,0.5,0.2,0.9c0,0.5-0.1,0.8-0.4,1.1
		c-0.3,0.3-0.6,0.5-1.1,0.6l1.8,2.8h-1.4l-1.5-2.7h-0.8v2.7h-1.2V197.8z M1034.8,200.5c0.3,0,0.7-0.1,1-0.2c0.3-0.1,0.5-0.4,0.5-0.8
		c0-0.3-0.1-0.6-0.4-0.7c-0.3-0.1-0.6-0.2-0.9-0.2h-1.1v1.8H1034.8z"/>
</g>
<g>
	<g>
		<path class="st2" d="M331.3,267.7c1.4-0.7,2.2-1.9,2.2-3.4c0-2.8-1.9-4.3-5.5-4.3h-5.6c-0.1,0-0.3,0.1-0.3,0.3V276
			c0,0.1,0.1,0.3,0.3,0.3h6.7c3.6,0,5.7-1.6,5.7-4.4C334.8,269.7,333.6,268.3,331.3,267.7z M324.3,268.8h4.2c2.8,0,4.2,1,4.2,2.9
			c0,2.2-2,2.6-3.7,2.6h-4.7V268.8z M327.7,266.9h-3.4v-5.1h3.6c2.4,0,3.5,0.8,3.5,2.6C331.4,266.7,328.8,266.9,327.7,266.9z"/>
		<path class="st2" d="M66.2,259.9h-1.7c-0.1,0-0.2,0.1-0.2,0.2l-5.8,13.8L53,260.1c0-0.1-0.1-0.2-0.2-0.2H51c-0.1,0-0.2,0-0.2,0.1
			c-0.1,0.1-0.1,0.2,0,0.2l6.4,15.8c0,0.1,0.1,0.2,0.2,0.2h1.9c0.1,0,0.2-0.1,0.2-0.1l6.8-15.8c0-0.1,0-0.2,0-0.2
			C66.3,260,66.3,259.9,66.2,259.9z"/>
		<path class="st2" d="M82.3,259.9h-1.8c-0.1,0-0.2,0.1-0.2,0.2l-6.8,15.8c0,0.1,0,0.2,0,0.2c0,0.1,0.1,0.1,0.2,0.1h1.6
			c0.1,0,0.2-0.1,0.2-0.1l1.6-3.7h8.3l1.5,3.7c0,0.1,0.1,0.2,0.2,0.2h1.6c0.1,0,0.2,0,0.2-0.1c0.1-0.1,0.1-0.2,0-0.2l-6.4-15.8
			C82.5,260,82.4,259.9,82.3,259.9z M84.8,270.7h-6.9l3.6-8.2L84.8,270.7z"/>
		<path class="st2" d="M107.1,261.4c2.1,0,3.9,0.8,5.2,2.1c0,0.1,0.1,0.1,0.2,0.1c0.1,0,0.1,0,0.2-0.1l0.8-1.1
			c0.1-0.1,0.1-0.2,0-0.3c-1.6-1.7-3.8-2.6-6.4-2.6c-4.8,0-8.4,3.6-8.4,8.4c0,4.8,3.6,8.4,8.4,8.4c2.6,0,4.8-0.9,6.4-2.6
			c0.1-0.1,0.1-0.2,0-0.3l-0.8-1.1c0-0.1-0.1-0.1-0.2-0.1c-0.1,0-0.2,0-0.2,0.1c-1.3,1.4-3.2,2.1-5.2,2.1c-3.6,0-6.3-2.7-6.3-6.4
			C100.8,264.1,103.4,261.4,107.1,261.4z"/>
		<path class="st2" d="M131.8,259.9H130c-0.1,0-0.2,0.1-0.2,0.2l-6.8,15.8c0,0.1,0,0.2,0,0.2c0,0.1,0.1,0.1,0.2,0.1h1.6
			c0.1,0,0.2-0.1,0.2-0.1l1.6-3.7h8.3l1.5,3.7c0,0.1,0.1,0.2,0.2,0.2h1.6c0.1,0,0.2,0,0.2-0.1c0-0.1,0.1-0.2,0-0.2l-6.4-15.8
			C132,260,131.9,259.9,131.8,259.9z M134.2,270.7h-7l3.6-8.2L134.2,270.7z"/>
		<path class="st2" d="M145.1,259.9c-0.1,0-0.3,0.1-0.3,0.3v1.4c0,0.1,0.1,0.3,0.3,0.3h5.9V276c0,0.1,0.1,0.3,0.3,0.3h1.6
			c0.1,0,0.3-0.1,0.3-0.3v-14.1h5.5c0.1,0,0.3-0.1,0.3-0.3v-1.4c0-0.1-0.1-0.3-0.3-0.3H145.1z"/>
		<path class="st2" d="M168.1,259.9c-0.1,0-0.3,0.1-0.3,0.3V276c0,0.1,0.1,0.3,0.3,0.3h1.6c0.1,0,0.3-0.1,0.3-0.3v-15.8
			c0-0.1-0.1-0.3-0.3-0.3H168.1z"/>
		<path class="st2" d="M189.9,259.5c-4.8,0-8.4,3.6-8.4,8.4c0,4.8,3.6,8.4,8.4,8.4c4.8,0,8.4-3.6,8.4-8.4
			C198.3,263.1,194.7,259.5,189.9,259.5z M189.9,274.2c-3.6,0-6.3-2.7-6.3-6.4c0-3.7,2.7-6.4,6.3-6.4c3.7,0,6.3,2.7,6.3,6.4
			C196.3,271.6,193.6,274.2,189.9,274.2z"/>
		<path class="st2" d="M225.3,259.9c-0.1,0-0.3,0.1-0.3,0.3v12.6L214.3,260c0-0.1-0.1-0.1-0.2-0.1h-1.4c-0.1,0-0.3,0.1-0.3,0.3V276
			c0,0.1,0.1,0.3,0.3,0.3h1.6c0.1,0,0.3-0.1,0.3-0.3v-12.6l10.8,12.7c0,0.1,0.1,0.1,0.2,0.1h1.4c0.1,0,0.3-0.1,0.3-0.3v-15.8
			c0-0.1-0.1-0.3-0.3-0.3H225.3z"/>
		<path class="st2" d="M258.1,261.4c2.1,0,3.9,0.8,5.2,2.1c0,0,0.1,0.1,0.2,0.1c0.1,0,0.2,0,0.2-0.1l0.8-1.1c0.1-0.1,0.1-0.2,0-0.3
			c-1.6-1.7-3.8-2.6-6.4-2.6c-4.8,0-8.4,3.6-8.4,8.4c0,4.8,3.6,8.4,8.4,8.4c2.6,0,4.8-0.9,6.4-2.6c0.1-0.1,0.1-0.2,0-0.3l-0.8-1.1
			c0-0.1-0.1-0.1-0.2-0.1c-0.1,0-0.2,0-0.2,0.1c-1.3,1.4-3.2,2.1-5.2,2.1c-3.7,0-6.3-2.7-6.3-6.4
			C251.8,264.1,254.5,261.4,258.1,261.4z"/>
		<path class="st2" d="M279,274.3v-14.1c0-0.1-0.1-0.3-0.3-0.3h-1.6c-0.1,0-0.3,0.1-0.3,0.3V276c0,0.1,0.1,0.3,0.3,0.3h10.7
			c0.1,0,0.3-0.1,0.3-0.3v-1.4c0-0.1-0.1-0.3-0.3-0.3H279z"/>
		<path class="st2" d="M307.8,259.6c-0.1,0-0.3,0.1-0.3,0.3v9.3c0,3.2-1.9,5.1-5,5.1c-3.2,0-4.9-1.8-4.9-5v-9.3
			c0-0.1-0.1-0.3-0.3-0.3h-1.6c-0.1,0-0.3,0.1-0.3,0.3v9.4c0,4.3,2.6,6.9,7,6.9c4.9,0,7-3.5,7-6.9v-9.4c0-0.1-0.1-0.3-0.3-0.3H307.8
			z"/>
	</g>
	<path class="st2" d="M128.5,192.2c-0.1,0-1.8-0.5-4.9-0.5c-3.8,0-7.9,0.6-12,1.9l-0.4,0.1l1.3,6l0.5-0.2c0.1,0,5.5-1.8,10.2-1.8
		c4.3,0,6.6,1.5,6.7,4.4c0.1,1.5,0.1,3.2,0.1,4.9c-3.1,0-9.6,0.3-13.2,1.7c-4,1.5-10.4,5.2-9.2,12.2c0.7,4.3,4.9,8.8,11.2,8.8
		c3.7,0,7.7-1.5,11.9-4.6c0.1,1.3,0.3,2.3,0.4,3.1l0.1,0.4h6.2v-24.5C137.3,204.1,137.9,193.7,128.5,192.2z M130.2,219.6
		c-2,1.4-5.7,3.6-9.1,4.1c-0.6,0.1-1.2,0.2-1.8,0.2c-3.8,0-4.7-2.9-4.9-4.2c0,0-0.3-1.6,1.1-3.3c1.5-1.8,5.2-4,14.3-4h0.2
		C130.1,214.9,130.1,217.4,130.2,219.6z"/>
	<path class="st2" d="M31.3,195.8c0-0.1-1-13.7-14.2-13.7H0v46.7h7.5v-17h6l11.8,17h8.7l-12.6-18.2
		C24.5,209.7,31.3,206.5,31.3,195.8z M23.7,195.9c0,9.2-7.4,9.5-8.3,9.5c0,0,0,0,0,0H7.6v-17.1H14c0,0,0.2,0,0.5,0
		C16.7,188.3,23.7,188.9,23.7,195.9z"/>
	<path class="st2" d="M53.6,191.8h-0.1c-1.7,0-16.9,0.5-17.1,19.4c0,0.3-0.2,8.3,5.1,13.8c3.1,3.2,7.4,4.8,12.8,4.8h0
		c0.7,0,6.7-0.1,11.2-4.7c3.4-3.5,5.2-8.6,5.1-15.1c0-0.3,0.2-8.1-4.9-13.4C62.7,193.5,58.7,191.9,53.6,191.8z M53.5,223.7
		c-0.4,0-9.8-0.4-9.7-12.9c0-0.1-0.4-6,2.9-9.7c1.6-1.9,3.9-2.9,6.8-3.1h0.2c1.6,0,9.5,0.6,9.7,12.4C63.4,211,64,222.8,53.5,223.7z"
		/>
	<path class="st2" d="M89.4,219.5l-8.9-27h-7.7l12.7,36.7c-2.7,5.8-7.9,8.1-8,8.1l-0.5,0.3l3.6,5.3l0.4-0.2
		c9.7-4.8,12.1-14,12.2-14.3l12.6-35.9h-7.1L89.4,219.5z"/>
	<polygon class="st2" points="145.8,228.8 153.4,228.8 153.4,177.3 145.8,178.8 	"/>
	<path class="st2" d="M229.7,191.8h-0.1c-1.7,0-16.9,0.5-17.1,19.4c0,0.3-0.2,8.4,5.1,13.8c3.1,3.2,7.4,4.8,12.9,4.8h0
		c0.7,0,6.7-0.1,11.2-4.7c3.4-3.5,5.2-8.6,5.1-15.2c0-0.3,0.2-8.1-4.9-13.4C238.9,193.5,234.8,191.9,229.7,191.8z M229.6,223.8
		c-0.4,0-9.8-0.4-9.7-12.9c0-0.1-0.4-6,2.9-9.7c1.6-1.9,3.9-2.9,6.8-3.1h0.2c1.6,0,9.5,0.6,9.7,12.4
		C239.5,211.1,240.1,222.9,229.6,223.8z"/>
	<polygon class="st2" points="250.3,228.7 258.2,228.7 258.2,175.4 250.3,176.9 	"/>
	<path class="st2" d="M307.1,175.4v19.1c-2.6-1.7-5.9-2.7-9.7-2.7h-0.1c-1.7,0-16.9,0.5-17.1,19.4c0,0.3-0.2,8.4,5.1,13.8
		c3.1,3.2,7.4,4.8,12.9,4.8h0c0.6,0,5.3-0.1,9.6-3.3l0.4,2.1h6.8v-53.3H307.1z M297.3,223.8c-0.4,0-9.8-0.4-9.7-12.9
		c0-0.1-0.4-6,2.9-9.7c1.6-1.9,3.9-2.9,6.8-3.1h0.2c1.5,0,8.6,0.5,9.6,10.5v4.6C306.6,216.9,304.8,223.2,297.3,223.8z"/>
	<polygon class="st2" points="199.6,181.9 199.6,201.4 181.3,201.4 181.3,181.9 173.5,181.9 173.5,228.7 181.3,228.7 181.3,209.3 
		199.6,209.3 199.6,228.7 207.4,228.7 207.4,181.9 	"/>
	<g>
		<rect x="267.3" y="193.1" class="st2" width="7.9" height="35.6"/>
		<rect x="267.3" y="179.6" class="st2" width="7.9" height="6.5"/>
	</g>
	<path class="st2" d="M340.2,192.5c-0.1,0-1.8-0.5-4.9-0.5c-3.8,0-7.9,0.6-12,1.9l-0.4,0.1l1.3,6.1l0.5-0.2c0.1,0,5.5-1.8,10.2-1.8
		c4.4,0,6.6,1.5,6.7,4.4c0.1,1.6,0.1,3.2,0.1,4.9c-3.1,0-9.6,0.3-13.3,1.7c-4,1.5-10.5,5.2-9.2,12.2c0.7,4.3,4.9,8.8,11.2,8.8
		c3.7,0,7.8-1.5,11.9-4.6c0.1,1.3,0.3,2.3,0.4,3.1l0.1,0.4h6.2v-24.6C349.1,204.5,349.7,194.1,340.2,192.5z M342,220
		c-2,1.4-5.8,3.6-9.1,4.2c-0.6,0.1-1.2,0.2-1.8,0.2c-3.8,0-4.7-2.9-4.9-4.2c0,0-0.3-1.6,1.1-3.3c1.5-1.8,5.2-4,14.4-4h0.2
		C341.9,215.3,341.9,217.8,342,220z"/>
	<path class="st2" d="M369.2,220l-8.9-27.1h-7.7l12.7,36.8c-2.7,5.8-8,8.1-8,8.1l-0.5,0.2l3.6,5.4l0.4-0.2
		c9.7-4.9,12.1-14,12.2-14.4l12.6-36h-7.1L369.2,220z"/>
	<g>
		
			<linearGradient id="SVGID_00000021087302706448533730000005611968660088806545_" gradientUnits="userSpaceOnUse" x1="87.9245" y1="122.931" x2="291.6776" y2="33.8728">
			<stop  offset="0" style="stop-color:#1EC1F1"/>
			<stop  offset="0.3139" style="stop-color:#C9CC33"/>
			<stop  offset="0.6461" style="stop-color:#F69A2E"/>
			<stop  offset="1" style="stop-color:#EB2E64"/>
		</linearGradient>
		<path style="fill:url(#SVGID_00000021087302706448533730000005611968660088806545_);" d="M191.4,77.2c-0.8,2.4-3.4,3.7-5.8,2.9
			c-16.5-5.5-34-5.6-50.6-0.2c-33.3,10.8-55.8,41.6-56,76.7c0,2.5-2.1,4.6-4.6,4.6c0,0,0,0,0,0c-2.5,0-4.6-2.1-4.5-4.6
			c0.1-39,25.2-73.3,62.3-85.3c18.5-6,37.9-5.9,56.3,0.2C190.9,72.2,192.2,74.8,191.4,77.2z"/>
		
			<linearGradient id="SVGID_00000176763338965891617760000010459577104766469280_" gradientUnits="userSpaceOnUse" x1="86.8226" y1="120.4082" x2="290.5767" y2="31.3496">
			<stop  offset="0" style="stop-color:#1EC1F1"/>
			<stop  offset="0.3139" style="stop-color:#C9CC33"/>
			<stop  offset="0.6461" style="stop-color:#F69A2E"/>
			<stop  offset="1" style="stop-color:#EB2E64"/>
		</linearGradient>
		<path style="fill:url(#SVGID_00000176763338965891617760000010459577104766469280_);" d="M243.6,99.5c-2,1.5-4.9,1-6.4-1
			C212.9,65.1,170,51.2,130.5,64c-19.5,6.3-36.1,18.5-48,35c-0.9,1.2-2.3,1.9-3.7,1.9c-0.9,0-1.9-0.3-2.7-0.9c-2-1.5-2.5-4.3-1-6.4
			c13.1-18.2,31.3-31.4,52.6-38.4c43.2-14,90.2,1.2,116.9,37.8C246.1,95.2,245.7,98,243.6,99.5z"/>
		
			<linearGradient id="SVGID_00000066516910698644182500000016945033583925247390_" gradientUnits="userSpaceOnUse" x1="97.9306" y1="145.8015" x2="301.6754" y2="56.7469">
			<stop  offset="0" style="stop-color:#1EC1F1"/>
			<stop  offset="0.3139" style="stop-color:#C9CC33"/>
			<stop  offset="0.6461" style="stop-color:#F69A2E"/>
			<stop  offset="1" style="stop-color:#EB2E64"/>
		</linearGradient>
		<path style="fill:url(#SVGID_00000066516910698644182500000016945033583925247390_);" d="M283.2,157.6L283.2,157.6v-0.1
			c-0.2-68.2-55.7-123.6-124-123.6c-11.7,0-23.4,1.7-34.7,5c0,0-0.1,0-0.1,0.1c-1.9,0.4-3.4,2.1-3.4,4.2c0,2.3,1.9,4.2,4.2,4.2
			c0.3,0,0.6,0,0.9-0.1v0l0.9-0.3c0,0,0.1,0,0.1,0c10.4-3,21.2-4.5,32-4.5c63.7,0,115.5,51.7,115.5,115.4c0,0.5,0.1,1,0.4,1.4
			c0.6,1.5,2.1,2.6,3.9,2.6c1.8,0,3.3-1.1,3.9-2.7c0.2-0.4,0.3-0.9,0.3-1.3C283.2,157.7,283.2,157.6,283.2,157.6z"/>
		
			<linearGradient id="SVGID_00000042004380542388622500000003779684439506662328_" gradientUnits="userSpaceOnUse" x1="103.1466" y1="157.7593" x2="306.9064" y2="68.6982">
			<stop  offset="0" style="stop-color:#1EC1F1"/>
			<stop  offset="0.3139" style="stop-color:#C9CC33"/>
			<stop  offset="0.6461" style="stop-color:#F69A2E"/>
			<stop  offset="1" style="stop-color:#EB2E64"/>
		</linearGradient>
		<path style="fill:url(#SVGID_00000042004380542388622500000003779684439506662328_);" d="M299,151.4l0-1.2h0l-0.1-1.1
			c0-1.3-0.1-2.3-0.1-2.3l0,0.1c0-1-0.1-2-0.2-2.9l-0.1-1h0c-0.8-10.6-2.8-21-6.1-31.2c-6.6-20.4-18.1-39-33.3-53.9
			c-14.7-14.4-32.8-25.4-52.4-31.8c-2.4-0.8-5,0.5-5.8,2.9c-0.8,2.4,0.5,5,2.9,5.7c37.8,12.3,67.6,42.1,79.8,79.8
			c3.9,12,6,24.5,6.1,37v5.2l0,0c0,2.5,2.1,4.6,4.6,4.6c2.5,0,4.5-1.9,4.6-4.4l0,0v-0.1l0-0.1C299.1,156.3,299,153.7,299,151.4z"/>
		
			<linearGradient id="SVGID_00000079476265927955258630000013899664004472064942_" gradientUnits="userSpaceOnUse" x1="117.2871" y1="190.0798" x2="321.0332" y2="101.0247">
			<stop  offset="0" style="stop-color:#1EC1F1"/>
			<stop  offset="0.3139" style="stop-color:#C9CC33"/>
			<stop  offset="0.6461" style="stop-color:#F69A2E"/>
			<stop  offset="1" style="stop-color:#EB2E64"/>
		</linearGradient>
		<path style="fill:url(#SVGID_00000079476265927955258630000013899664004472064942_);" d="M315.6,149.9c0-15.4-2.5-30.7-7.3-45.4
			c-4.8-14.9-11.9-28.7-21-41.3c-1.5-2-4.3-2.5-6.4-1c-2,1.5-2.5,4.3-1,6.4c8.5,11.8,15.1,24.8,19.7,38.7
			c4.5,13.9,6.8,28.4,6.8,42.9v6.7l0,0c0,2.5,2,4.6,4.6,4.6c2.5,0,4.6-2,4.6-4.6l0,0V149.9L315.6,149.9z"/>
	</g>
	<path class="st2" d="M396.8,204.5c-3.4,0-6.1-2.6-6.1-6.1c0-3.4,2.7-6.1,6.1-6.1c3.4,0,6.1,2.6,6.1,6.1
		C402.8,201.9,400.2,204.5,396.8,204.5z M396.8,193.3c-2.9,0-5.2,2.2-5.2,5.2c0,2.9,2.3,5.1,5.2,5.1c2.9,0,5.2-2.3,5.2-5.1
		C401.9,195.6,399.7,193.3,396.8,193.3z M399.8,202h-1.7l-1.5-2.8h-0.7v2.8h-1.5v-7.1h2.5c1.6,0,2.5,0.8,2.5,2.1
		c0,1.3-0.9,1.8-1.4,2L399.8,202z M396.7,196.1h-0.8v2h0.8c0.7,0,1.3-0.2,1.3-1C398,196.3,397.4,196.1,396.7,196.1z"/>
</g>
<line class="st8" x1="501.1" y1="0" x2="501.1" y2="302.1"/>
</svg>
