<?xml version="1.0" encoding="utf-8"?>
<!-- Generator: Adobe Illustrator 26.0.2, SVG Export Plug-In . SVG Version: 6.00 Build 0)  -->
<svg version="1.1" xmlns="http://www.w3.org/2000/svg" xmlns:xlink="http://www.w3.org/1999/xlink" x="0px" y="0px"
	 viewBox="0 0 1299.08 643.32" style="enable-background:new 0 0 1299.08 643.32;" xml:space="preserve">
<style type="text/css">
	.st0{fill:#007078;}
	.st1{fill:#FF7F40;}
	.st2{fill:#004E59;}
</style>
<g id="Capa_3">
</g>
<g id="Capa_4">
</g>
<g id="Capa_5">
</g>
<g id="Capa_1">
	<g>
		<path class="st0" d="M1086.6,165.29h-62.34c-5.13,0-10.11,1.76-14.11,4.98l-28.61,23.1l-16.62-19.98
			c-4.16-5-10.29-7.94-16.78-8.09l0.58-2.76c10.4-49.05-27.02-95.22-77.16-95.22H710.18c-17.87,0-33.31,12.51-37.01,29.99l-2,9.09
			c-9.46-3.04-19.59-4.69-30.17-4.69H230.06c-18.79,0-35.01,13.15-38.91,31.53l-50.5,238.3c-5.24,24.74,13.62,48.02,38.91,48.02
			h79.53c18.79,0,35.01-13.15,38.91-31.53l33.73-159.17l37.34,0.98l-30.03,141.7c-5.24,24.74,13.62,48.02,38.91,48.02h83.06
			c18.79,0,35.01-13.15,38.91-31.53l33.73-159.17l38.58,0.98l-30.69,141.52c-5.38,24.79,13.51,48.2,38.87,48.2h82.41
			c18.79,0,35.01-13.15,38.91-31.53l17.95-84.7h125.32l-6.41,5.14c-25.84,20.71-11.19,62.4,21.92,62.4h60.12
			c5.13,0,10.12-1.76,14.11-4.98l24.61-19.87l13.93,16.75c4.27,5.13,10.6,8.1,17.27,8.1h66.1c28.81,0,44.56-33.59,26.14-55.74
			l-34.21-41.14l59.46-48C1133.09,205.77,1118.79,165.29,1086.6,165.29z"/>
		<path class="st1" d="M1084.41,200.35h-56.65l-50.05,40.4l-33.63-40.44H907.6l11.5-54.26c4.79-22.62-12.46-43.92-35.58-43.92
			H706.18l-6.92,32.67l133.58,0.06c13.03,0.01,22.75,12.01,20.05,24.76l-1.69,7.99H717.97c-8,0-15.63,1.93-22.39,5.4
			c-12.11-22.44-35.8-38.14-63.82-38.15l-403.31-0.06l-52.3,249.35l88.87,0.58l41.41-197.68h110.67l-41.89,197.68h89.06
			l41.89-197.68h65.99c24.02,0,41.94,22.12,36.96,45.61l-32.23,152.06h91.33l26.45-124.79c6.89,3.72,14.8,5.87,23.3,5.87h175.75
			l10.27-48.44l40.82,49.94l-83,67h56.65l49.89-39.34l32.72,39.34h54.48l-55.06-66.21L1084.41,200.35z M837.33,233.39h-90.16
			c-10.51,0-18.36-9.68-16.18-19.97c1.62-7.64,8.37-13.11,16.18-13.11h97.1L837.33,233.39z"/>
		<g>
			<g>
				<path d="M158.2,548.1h-5.95v-42.73h-16.31v-5.27h38.57v5.27H158.2V548.1z"/>
				<path d="M184.2,506.08v-6.21h5.66v6.21H184.2z M184.35,548.1v-34.08h5.66v34.08H184.35z"/>
				<path d="M209.33,518.75h0.11c0.63-0.79,1.33-1.52,2.1-2.21c0.77-0.68,1.62-1.28,2.57-1.79c0.95-0.51,1.99-0.91,3.12-1.2
					c1.13-0.29,2.37-0.43,3.7-0.43c1.58,0,3.06,0.21,4.45,0.65c1.39,0.43,2.59,1.13,3.61,2.08c1.02,0.96,1.83,2.21,2.43,3.75
					c0.6,1.54,0.89,3.44,0.89,5.69v22.82h-5.65v-21.92c0-2.94-0.58-5.06-1.73-6.35c-1.16-1.29-2.84-1.94-5.05-1.94
					c-1.94,0-3.83,0.53-5.65,1.6c-1.82,1.06-3.39,2.53-4.71,4.4v24.22h-5.65v-34.08h4.38L209.33,518.75z"/>
				<path d="M264.08,548.17c-0.49,0.19-1.23,0.37-2.23,0.54c-1,0.17-2.19,0.26-3.57,0.29c-1.82,0-3.41-0.22-4.74-0.66
					c-1.34-0.44-2.45-1.08-3.34-1.9c-0.89-0.83-1.55-1.82-1.99-3c-0.44-1.17-0.66-2.48-0.66-3.91v-20.74h-6.68v-4.77h6.68v-9.33
					h5.66v9.33h10.36v4.77h-10.36v19.88c0,0.79,0.11,1.52,0.35,2.19c0.23,0.67,0.6,1.25,1.09,1.74c0.5,0.49,1.14,0.87,1.92,1.15
					c0.78,0.28,1.72,0.41,2.81,0.41c0.75,0,1.55-0.06,2.39-0.18c0.84-0.12,1.61-0.28,2.32-0.47V548.17z"/>
				<path d="M305.19,531.09c0,2.68-0.39,5.12-1.17,7.32c-0.78,2.2-1.88,4.08-3.3,5.65c-1.42,1.57-3.14,2.78-5.16,3.64
					c-2.02,0.86-4.28,1.29-6.79,1.29c-2.58,0-4.88-0.43-6.91-1.29c-2.03-0.86-3.76-2.07-5.18-3.64c-1.42-1.57-2.51-3.45-3.27-5.65
					c-0.75-2.2-1.13-4.64-1.13-7.32c0-2.7,0.39-5.16,1.17-7.36c0.78-2.2,1.88-4.09,3.3-5.67c1.42-1.58,3.15-2.8,5.18-3.66
					c2.03-0.86,4.3-1.29,6.8-1.29c2.55,0,4.85,0.43,6.9,1.29c2.04,0.86,3.77,2.08,5.18,3.66c1.41,1.58,2.49,3.47,3.25,5.67
					C304.81,525.94,305.19,528.39,305.19,531.09z M299.28,531.09c0-2.1-0.26-3.98-0.78-5.61c-0.52-1.64-1.25-3.03-2.19-4.16
					c-0.94-1.14-2.05-2-3.34-2.58c-1.29-0.59-2.7-0.88-4.23-0.88c-1.53,0-2.94,0.29-4.23,0.88c-1.29,0.59-2.4,1.45-3.34,2.58
					c-0.94,1.14-1.67,2.52-2.19,4.16c-0.52,1.64-0.78,3.51-0.78,5.61c0,2.08,0.26,3.94,0.78,5.58c0.52,1.64,1.26,3.02,2.21,4.14
					c0.95,1.12,2.07,1.98,3.36,2.57c1.29,0.59,2.7,0.88,4.23,0.88c1.53,0,2.94-0.29,4.21-0.88c1.28-0.59,2.38-1.44,3.32-2.57
					c0.94-1.12,1.67-2.51,2.19-4.14C299.01,535.03,299.28,533.17,299.28,531.09z"/>
				<path d="M335.67,518.53h-0.44c-1.34,0-2.65,0.12-3.94,0.36c-1.29,0.24-2.5,0.61-3.63,1.09c-1.13,0.49-2.15,1.09-3.06,1.81
					c-0.91,0.72-1.67,1.57-2.28,2.55v23.75h-5.65v-34.08h4.38l1.1,5.42h0.11c0.56-0.88,1.25-1.71,2.06-2.48
					c0.81-0.77,1.73-1.43,2.75-2.01c1.02-0.57,2.14-1.02,3.36-1.35c1.22-0.32,2.49-0.48,3.83-0.48c0.24,0,0.49,0,0.75,0.02
					c0.26,0.01,0.48,0.03,0.67,0.06V518.53z"/>
				<path d="M360.69,544.15c1.87,0,3.58-0.15,5.13-0.45c1.54-0.3,3.08-0.72,4.62-1.27v4.63c-1.24,0.6-2.77,1.07-4.6,1.42
					c-1.82,0.35-3.78,0.52-5.87,0.52c-2.48,0-4.81-0.31-6.99-0.93c-2.18-0.62-4.06-1.63-5.65-3.01c-1.59-1.39-2.84-3.2-3.74-5.44
					c-0.9-2.24-1.35-4.93-1.35-8.09c0-3.11,0.44-5.81,1.31-8.09c0.87-2.28,2.04-4.19,3.49-5.72c1.46-1.53,3.13-2.68,5.02-3.45
					c1.89-0.76,3.87-1.15,5.93-1.15c1.94,0,3.76,0.32,5.44,0.95c1.69,0.64,3.15,1.63,4.38,3c1.24,1.36,2.21,3.12,2.93,5.27
					c0.72,2.15,1.07,4.74,1.07,7.75c0,0.29,0,0.53,0,0.74c0,0.2-0.01,0.66-0.04,1.38h-23.93c0,2.18,0.33,4.02,1,5.54
					c0.67,1.52,1.58,2.75,2.74,3.7c1.16,0.94,2.51,1.63,4.07,2.06C357.21,543.93,358.89,544.15,360.69,544.15z M357.71,517.89
					c-1.31,0-2.52,0.25-3.64,0.75c-1.12,0.5-2.1,1.18-2.94,2.04c-0.84,0.86-1.52,1.87-2.03,3.03c-0.52,1.16-0.84,2.4-0.96,3.71
					h17.73c0-1.34-0.18-2.59-0.54-3.75c-0.36-1.16-0.88-2.17-1.57-3.03c-0.69-0.86-1.54-1.54-2.55-2.03
					C360.21,518.13,359.04,517.89,357.71,517.89z"/>
				<path d="M402.96,518.53h-0.44c-1.34,0-2.65,0.12-3.94,0.36c-1.29,0.24-2.5,0.61-3.63,1.09c-1.13,0.49-2.15,1.09-3.06,1.81
					c-0.91,0.72-1.67,1.57-2.28,2.55v23.75h-5.65v-34.08h4.38l1.09,5.42h0.11c0.56-0.88,1.25-1.71,2.06-2.48
					c0.81-0.77,1.73-1.43,2.75-2.01c1.02-0.57,2.14-1.02,3.36-1.35c1.22-0.32,2.49-0.48,3.83-0.48c0.24,0,0.49,0,0.75,0.02
					c0.26,0.01,0.48,0.03,0.68,0.06V518.53z"/>
				<path d="M411.89,548.1v-34.08h5.65v34.08H411.89z M423.13,495.25l-5.87,12.52h-4.74l4.49-12.52H423.13z"/>
				<path d="M451.68,544.33h-0.15c-0.46,0.58-1.05,1.14-1.75,1.71c-0.71,0.56-1.52,1.06-2.44,1.51c-0.92,0.44-1.93,0.8-3.03,1.06
					c-1.09,0.26-2.26,0.4-3.5,0.4c-1.68,0-3.22-0.25-4.62-0.74c-1.4-0.49-2.6-1.21-3.61-2.15c-1.01-0.94-1.79-2.1-2.35-3.46
					c-0.56-1.36-0.84-2.91-0.84-4.63c0-1.7,0.31-3.22,0.93-4.56c0.62-1.34,1.49-2.48,2.61-3.41c1.12-0.93,2.46-1.65,4.03-2.15
					c1.57-0.5,3.3-0.75,5.2-0.75c1.8,0.02,3.47,0.18,5,0.47c1.53,0.29,2.89,0.65,4.09,1.08h0.15v-2.37c0-0.93-0.06-1.76-0.18-2.48
					c-0.12-0.72-0.33-1.35-0.62-1.9c-0.63-1.15-1.64-2.1-3.03-2.85c-1.39-0.75-3.26-1.13-5.62-1.13c-1.75,0-3.4,0.16-4.94,0.48
					c-1.54,0.32-3.08,0.77-4.62,1.35v-4.66c0.58-0.29,1.27-0.56,2.06-0.81c0.79-0.25,1.62-0.47,2.5-0.65
					c0.88-0.18,1.8-0.32,2.77-0.41c0.97-0.1,1.95-0.14,2.92-0.14c3.5,0,6.37,0.61,8.59,1.83c2.23,1.22,3.82,2.83,4.8,4.84
					c0.36,0.77,0.63,1.61,0.78,2.53c0.16,0.92,0.24,1.93,0.24,3.03v22.75h-4.74L451.68,544.33z M451.39,533.14
					c-1.04-0.29-2.28-0.56-3.71-0.83c-1.43-0.26-3-0.41-4.72-0.43c-2.4,0-4.27,0.5-5.63,1.51c-1.36,1-2.03,2.55-2.03,4.63
					c0,1.05,0.17,1.97,0.51,2.76c0.34,0.79,0.81,1.44,1.4,1.95c0.59,0.51,1.29,0.9,2.11,1.15c0.81,0.25,1.68,0.38,2.6,0.38
					c1.21,0,2.34-0.17,3.38-0.52c1.04-0.35,1.97-0.76,2.78-1.24c0.81-0.48,1.5-0.96,2.07-1.44c0.57-0.48,0.99-0.85,1.25-1.11V533.14
					z"/>
				<path d="M474.58,523.09c0,0.93,0.2,1.7,0.61,2.3c0.4,0.6,0.95,1.08,1.62,1.45c0.68,0.37,1.46,0.68,2.35,0.92
					c0.89,0.24,1.81,0.45,2.76,0.65c1.31,0.29,2.54,0.6,3.71,0.95c1.16,0.35,2.24,0.87,3.23,1.56c0.99,0.69,1.78,1.63,2.39,2.82
					c0.61,1.18,0.91,2.72,0.91,4.61c0,1.72-0.34,3.25-1.02,4.58c-0.68,1.33-1.64,2.44-2.88,3.34c-1.24,0.9-2.72,1.58-4.45,2.04
					c-1.73,0.47-3.63,0.7-5.69,0.7c-1.26,0-2.41-0.07-3.45-0.2c-1.03-0.13-1.95-0.3-2.74-0.5c-0.79-0.2-1.47-0.41-2.03-0.63
					c-0.56-0.21-1.02-0.42-1.39-0.61v-4.67c1.43,0.58,2.85,1.03,4.26,1.36c1.41,0.34,2.96,0.5,4.66,0.5c1.34,0,2.54-0.12,3.62-0.36
					c1.07-0.24,2-0.59,2.78-1.06c0.78-0.47,1.37-1.05,1.79-1.76c0.42-0.71,0.63-1.52,0.63-2.46c0-0.96-0.19-1.75-0.57-2.37
					c-0.38-0.62-0.9-1.13-1.54-1.54c-0.65-0.41-1.39-0.74-2.24-1c-0.85-0.26-1.74-0.5-2.67-0.72c-1.22-0.26-2.45-0.57-3.71-0.93
					c-1.25-0.36-2.39-0.86-3.42-1.51c-1.03-0.65-1.86-1.53-2.49-2.64c-0.63-1.11-0.95-2.54-0.95-4.29c0-1.79,0.33-3.35,0.98-4.66
					c0.66-1.32,1.54-2.4,2.66-3.26c1.12-0.86,2.42-1.51,3.9-1.94c1.48-0.43,3.05-0.65,4.71-0.65c1.92,0,3.7,0.18,5.35,0.54
					c1.64,0.36,3.13,0.81,4.47,1.36v4.74c-1.42-0.55-2.87-1-4.33-1.35c-1.46-0.35-2.96-0.53-4.5-0.55c-1.31,0-2.42,0.13-3.35,0.39
					c-0.93,0.26-1.69,0.63-2.28,1.09c-0.59,0.47-1.03,1.02-1.3,1.65C474.72,521.62,474.58,522.33,474.58,523.09z"/>
				<path d="M541.07,544.33h-0.15c-0.46,0.58-1.05,1.14-1.75,1.71c-0.71,0.56-1.52,1.06-2.44,1.51c-0.92,0.44-1.93,0.8-3.03,1.06
					c-1.09,0.26-2.26,0.4-3.5,0.4c-1.68,0-3.22-0.25-4.62-0.74c-1.4-0.49-2.6-1.21-3.61-2.15c-1.01-0.94-1.79-2.1-2.35-3.46
					c-0.56-1.36-0.84-2.91-0.84-4.63c0-1.7,0.31-3.22,0.93-4.56c0.62-1.34,1.49-2.48,2.61-3.41c1.12-0.93,2.46-1.65,4.03-2.15
					c1.57-0.5,3.3-0.75,5.2-0.75c1.8,0.02,3.47,0.18,5,0.47c1.53,0.29,2.89,0.65,4.09,1.08h0.14v-2.37c0-0.93-0.06-1.76-0.18-2.48
					c-0.12-0.72-0.33-1.35-0.62-1.9c-0.63-1.15-1.64-2.1-3.03-2.85c-1.39-0.75-3.26-1.13-5.62-1.13c-1.75,0-3.4,0.16-4.94,0.48
					c-1.54,0.32-3.08,0.77-4.62,1.35v-4.66c0.58-0.29,1.27-0.56,2.06-0.81c0.79-0.25,1.62-0.47,2.5-0.65
					c0.88-0.18,1.8-0.32,2.77-0.41c0.97-0.1,1.94-0.14,2.92-0.14c3.5,0,6.37,0.61,8.59,1.83c2.23,1.22,3.82,2.83,4.8,4.84
					c0.36,0.77,0.63,1.61,0.78,2.53c0.16,0.92,0.24,1.93,0.24,3.03v22.75h-4.74L541.07,544.33z M540.77,533.14
					c-1.04-0.29-2.28-0.56-3.7-0.83c-1.43-0.26-3-0.41-4.72-0.43c-2.4,0-4.27,0.5-5.63,1.51c-1.36,1-2.03,2.55-2.03,4.63
					c0,1.05,0.17,1.97,0.51,2.76c0.34,0.79,0.8,1.44,1.4,1.95c0.59,0.51,1.3,0.9,2.11,1.15c0.81,0.25,1.68,0.38,2.6,0.38
					c1.21,0,2.34-0.17,3.38-0.52c1.04-0.35,1.97-0.76,2.78-1.24s1.5-0.96,2.07-1.44c0.57-0.48,0.99-0.85,1.25-1.11V533.14z"/>
				<path d="M605.73,548.1h-5.65v-21.92c0-1.48-0.17-2.74-0.49-3.78c-0.33-1.04-0.8-1.9-1.42-2.57c-0.62-0.67-1.36-1.16-2.22-1.47
					c-0.86-0.31-1.83-0.47-2.9-0.47c-2.02,0-3.86,0.53-5.51,1.6c-1.65,1.06-3.14,2.53-4.45,4.4v24.22h-5.66v-34.08h4.38l1.09,4.74
					H583c0.63-0.79,1.32-1.52,2.06-2.21c0.74-0.68,1.57-1.28,2.48-1.79c0.91-0.51,1.91-0.91,3.01-1.2c1.09-0.29,2.29-0.43,3.58-0.43
					c2.58,0,4.72,0.61,6.42,1.83c1.7,1.22,3.02,2.88,3.94,4.99h0.15c1.54-2.13,3.29-3.8,5.26-5c1.97-1.21,4.27-1.81,6.91-1.81
					c1.22,0,2.51,0.17,3.87,0.5c1.37,0.34,2.62,0.95,3.76,1.85c1.15,0.9,2.1,2.13,2.85,3.71c0.76,1.58,1.13,3.61,1.13,6.1v22.82
					h-5.66v-21.92c0-1.48-0.17-2.74-0.49-3.78c-0.33-1.04-0.8-1.9-1.42-2.57c-0.62-0.67-1.36-1.16-2.22-1.47
					c-0.86-0.31-1.83-0.47-2.9-0.47c-2.02,0-3.86,0.53-5.53,1.6c-1.67,1.06-3.16,2.53-4.47,4.4V548.1z"/>
				<path d="M662.16,544.33h-0.15c-0.46,0.58-1.04,1.14-1.75,1.71c-0.71,0.56-1.52,1.06-2.44,1.51c-0.93,0.44-1.94,0.8-3.03,1.06
					c-1.09,0.26-2.26,0.4-3.5,0.4c-1.68,0-3.22-0.25-4.62-0.74c-1.4-0.49-2.6-1.21-3.61-2.15c-1.01-0.94-1.79-2.1-2.35-3.46
					c-0.56-1.36-0.84-2.91-0.84-4.63c0-1.7,0.31-3.22,0.93-4.56c0.62-1.34,1.49-2.48,2.61-3.41c1.12-0.93,2.46-1.65,4.03-2.15
					c1.57-0.5,3.3-0.75,5.2-0.75c1.8,0.02,3.47,0.18,5,0.47c1.53,0.29,2.9,0.65,4.09,1.08h0.15v-2.37c0-0.93-0.06-1.76-0.18-2.48
					c-0.12-0.72-0.33-1.35-0.62-1.9c-0.63-1.15-1.64-2.1-3.03-2.85c-1.39-0.75-3.26-1.13-5.62-1.13c-1.75,0-3.4,0.16-4.94,0.48
					c-1.54,0.32-3.08,0.77-4.62,1.35v-4.66c0.58-0.29,1.27-0.56,2.06-0.81c0.79-0.25,1.62-0.47,2.5-0.65
					c0.88-0.18,1.8-0.32,2.77-0.41c0.97-0.1,1.95-0.14,2.92-0.14c3.5,0,6.37,0.61,8.59,1.83c2.22,1.22,3.82,2.83,4.8,4.84
					c0.37,0.77,0.63,1.61,0.78,2.53c0.16,0.92,0.24,1.93,0.24,3.03v22.75h-4.74L662.16,544.33z M661.87,533.14
					c-1.04-0.29-2.28-0.56-3.7-0.83c-1.43-0.26-3-0.41-4.72-0.43c-2.4,0-4.27,0.5-5.63,1.51c-1.36,1-2.04,2.55-2.04,4.63
					c0,1.05,0.17,1.97,0.51,2.76c0.34,0.79,0.81,1.44,1.4,1.95c0.59,0.51,1.29,0.9,2.11,1.15c0.81,0.25,1.67,0.38,2.59,0.38
					c1.21,0,2.34-0.17,3.38-0.52c1.04-0.35,1.97-0.76,2.78-1.24c0.81-0.48,1.5-0.96,2.07-1.44c0.57-0.48,0.99-0.85,1.25-1.11V533.14
					z M662.12,495.25l-5.87,12.52h-4.74l4.49-12.52H662.12z"/>
				<path d="M692.68,527.14l9.41-13.13h6.24l-12.66,16.86l13.13,17.22h-6.13l-10.14-13.63h-0.15l-10,13.63h-6.13l13.14-17.36
					l-12.66-16.72h6.24l9.56,13.13H692.68z"/>
				<path d="M717.77,506.08v-6.21h5.66v6.21H717.77z M717.92,548.1v-34.08h5.65v34.08H717.92z"/>
				<path d="M765.74,548.1h-5.65v-21.92c0-1.48-0.17-2.74-0.49-3.78c-0.33-1.04-0.8-1.9-1.42-2.57c-0.62-0.67-1.36-1.16-2.22-1.47
					c-0.86-0.31-1.83-0.47-2.9-0.47c-2.02,0-3.86,0.53-5.51,1.6c-1.66,1.06-3.14,2.53-4.45,4.4v24.22h-5.66v-34.08h4.38l1.09,4.74
					h0.11c0.63-0.79,1.32-1.52,2.06-2.21c0.74-0.68,1.57-1.28,2.48-1.79c0.91-0.51,1.92-0.91,3.01-1.2
					c1.09-0.29,2.29-0.43,3.58-0.43c2.58,0,4.72,0.61,6.42,1.83c1.7,1.22,3.02,2.88,3.94,4.99h0.15c1.54-2.13,3.29-3.8,5.26-5
					c1.97-1.21,4.28-1.81,6.91-1.81c1.22,0,2.51,0.17,3.87,0.5c1.37,0.34,2.62,0.95,3.76,1.85c1.15,0.9,2.1,2.13,2.85,3.71
					c0.76,1.58,1.14,3.61,1.14,6.1v22.82h-5.66v-21.92c0-1.48-0.16-2.74-0.49-3.78c-0.33-1.04-0.8-1.9-1.42-2.57
					c-0.62-0.67-1.36-1.16-2.22-1.47c-0.86-0.31-1.83-0.47-2.9-0.47c-2.02,0-3.86,0.53-5.53,1.6c-1.67,1.06-3.16,2.53-4.47,4.4
					V548.1z"/>
				<path d="M822.17,544.33h-0.15c-0.46,0.58-1.04,1.14-1.75,1.71c-0.71,0.56-1.52,1.06-2.44,1.51c-0.93,0.44-1.94,0.8-3.03,1.06
					c-1.09,0.26-2.26,0.4-3.5,0.4c-1.68,0-3.22-0.25-4.61-0.74c-1.4-0.49-2.6-1.21-3.61-2.15c-1.01-0.94-1.79-2.1-2.35-3.46
					c-0.56-1.36-0.84-2.91-0.84-4.63c0-1.7,0.31-3.22,0.93-4.56c0.62-1.34,1.49-2.48,2.61-3.41c1.12-0.93,2.46-1.65,4.03-2.15
					c1.57-0.5,3.3-0.75,5.2-0.75c1.8,0.02,3.47,0.18,5,0.47c1.53,0.29,2.9,0.65,4.09,1.08h0.15v-2.37c0-0.93-0.06-1.76-0.18-2.48
					c-0.12-0.72-0.33-1.35-0.62-1.9c-0.63-1.15-1.64-2.1-3.03-2.85c-1.39-0.75-3.26-1.13-5.62-1.13c-1.75,0-3.4,0.16-4.94,0.48
					c-1.55,0.32-3.08,0.77-4.62,1.35v-4.66c0.58-0.29,1.27-0.56,2.06-0.81c0.79-0.25,1.62-0.47,2.5-0.65
					c0.88-0.18,1.8-0.32,2.77-0.41c0.97-0.1,1.95-0.14,2.92-0.14c3.5,0,6.37,0.61,8.59,1.83c2.23,1.22,3.82,2.83,4.8,4.84
					c0.37,0.77,0.63,1.61,0.78,2.53c0.16,0.92,0.24,1.93,0.24,3.03v22.75h-4.74L822.17,544.33z M821.87,533.14
					c-1.04-0.29-2.28-0.56-3.7-0.83c-1.43-0.26-3-0.41-4.72-0.43c-2.4,0-4.27,0.5-5.63,1.51c-1.36,1-2.03,2.55-2.03,4.63
					c0,1.05,0.17,1.97,0.51,2.76c0.34,0.79,0.81,1.44,1.4,1.95c0.59,0.51,1.3,0.9,2.11,1.15c0.81,0.25,1.67,0.38,2.59,0.38
					c1.21,0,2.34-0.17,3.38-0.52c1.04-0.35,1.97-0.76,2.78-1.24s1.5-0.96,2.07-1.44c0.57-0.48,0.99-0.85,1.25-1.11V533.14z"/>
				<path d="M870.21,542.46c0.84-2.49,1.97-5.65,3.4-9.51l6.95-18.94h5.65l-13.1,34.08h-5.87l-13.1-34.08h5.66l6.9,18.94
					c1.37,3.73,2.49,6.9,3.37,9.51H870.21z"/>
				<path d="M912.02,544.15c1.87,0,3.58-0.15,5.13-0.45c1.54-0.3,3.08-0.72,4.62-1.27v4.63c-1.24,0.6-2.77,1.07-4.6,1.42
					c-1.83,0.35-3.78,0.52-5.88,0.52c-2.48,0-4.81-0.31-6.99-0.93c-2.18-0.62-4.06-1.63-5.66-3.01c-1.59-1.39-2.84-3.2-3.74-5.44
					c-0.9-2.24-1.35-4.93-1.35-8.09c0-3.11,0.44-5.81,1.31-8.09c0.87-2.28,2.04-4.19,3.49-5.72s3.13-2.68,5.02-3.45
					c1.89-0.76,3.87-1.15,5.93-1.15c1.94,0,3.75,0.32,5.44,0.95c1.69,0.64,3.15,1.63,4.39,3c1.24,1.36,2.21,3.12,2.93,5.27
					c0.72,2.15,1.07,4.74,1.07,7.75c0,0.29,0,0.53,0,0.74c0,0.2-0.01,0.66-0.04,1.38h-23.93c0,2.18,0.33,4.02,1,5.54
					c0.67,1.52,1.58,2.75,2.73,3.7c1.16,0.94,2.51,1.63,4.07,2.06C908.55,543.93,910.22,544.15,912.02,544.15z M909.04,517.89
					c-1.31,0-2.52,0.25-3.64,0.75c-1.12,0.5-2.1,1.18-2.94,2.04c-0.84,0.86-1.51,1.87-2.03,3.03c-0.52,1.16-0.84,2.4-0.96,3.71
					h17.73c0-1.34-0.18-2.59-0.53-3.75c-0.36-1.16-0.88-2.17-1.57-3.03c-0.69-0.86-1.54-1.54-2.55-2.03
					C911.54,518.13,910.37,517.89,909.04,517.89z"/>
				<path d="M935.65,548.1v-51.95h5.66v51.95H935.65z"/>
				<path d="M986.07,531.09c0,2.68-0.39,5.12-1.17,7.32c-0.78,2.2-1.88,4.08-3.3,5.65c-1.42,1.57-3.14,2.78-5.16,3.64
					c-2.02,0.86-4.28,1.29-6.79,1.29c-2.58,0-4.88-0.43-6.91-1.29c-2.03-0.86-3.76-2.07-5.18-3.64c-1.42-1.57-2.51-3.45-3.27-5.65
					c-0.75-2.2-1.13-4.64-1.13-7.32c0-2.7,0.39-5.16,1.17-7.36c0.78-2.2,1.88-4.09,3.3-5.67c1.42-1.58,3.15-2.8,5.18-3.66
					c2.03-0.86,4.3-1.29,6.81-1.29c2.55,0,4.85,0.43,6.89,1.29c2.04,0.86,3.77,2.08,5.18,3.66c1.41,1.58,2.49,3.47,3.25,5.67
					C985.69,525.94,986.07,528.39,986.07,531.09z M980.15,531.09c0-2.1-0.26-3.98-0.79-5.61c-0.52-1.64-1.25-3.03-2.19-4.16
					c-0.94-1.14-2.05-2-3.34-2.58c-1.29-0.59-2.7-0.88-4.23-0.88c-1.53,0-2.95,0.29-4.23,0.88c-1.29,0.59-2.4,1.45-3.34,2.58
					c-0.94,1.14-1.66,2.52-2.19,4.16c-0.52,1.64-0.78,3.51-0.78,5.61c0,2.08,0.26,3.94,0.78,5.58c0.52,1.64,1.26,3.02,2.21,4.14
					c0.95,1.12,2.07,1.98,3.36,2.57c1.29,0.59,2.7,0.88,4.23,0.88c1.53,0,2.94-0.29,4.21-0.88c1.28-0.59,2.38-1.44,3.32-2.57
					c0.94-1.12,1.67-2.51,2.19-4.14C979.89,535.03,980.15,533.17,980.15,531.09z"/>
				<path d="M1012.43,513.12c1.68,0,3.28,0.17,4.82,0.52c1.53,0.35,2.85,0.83,3.94,1.45v4.63c-1.53-0.58-2.94-1-4.23-1.29
					c-1.29-0.29-2.6-0.43-3.94-0.43c-1.41,0-2.81,0.23-4.2,0.68c-1.39,0.45-2.63,1.2-3.72,2.24c-1.09,1.04-1.98,2.42-2.65,4.13
					c-0.67,1.71-1,3.83-1,6.37c0,1.84,0.25,3.54,0.75,5.09c0.5,1.56,1.24,2.9,2.22,4.04c0.99,1.14,2.22,2.02,3.7,2.65
					c1.48,0.64,3.2,0.95,5.14,0.95c1.41,0,2.83-0.15,4.27-0.45c1.43-0.3,2.83-0.72,4.19-1.27v4.63c-0.41,0.24-0.95,0.48-1.62,0.72
					c-0.67,0.24-1.4,0.45-2.21,0.63c-0.8,0.18-1.65,0.32-2.55,0.43c-0.9,0.11-1.8,0.16-2.7,0.16c-2.34,0-4.54-0.35-6.62-1.04
					c-2.08-0.69-3.9-1.76-5.46-3.19c-1.56-1.44-2.78-3.25-3.68-5.45c-0.9-2.2-1.35-4.81-1.35-7.82c0-2.25,0.24-4.27,0.71-6.06
					c0.47-1.79,1.12-3.37,1.95-4.74c0.83-1.36,1.79-2.52,2.9-3.48c1.11-0.96,2.28-1.74,3.54-2.35c1.25-0.61,2.55-1.05,3.89-1.33
					C1009.86,513.25,1011.16,513.12,1012.43,513.12z"/>
				<path d="M1033.07,506.08v-6.21h5.66v6.21H1033.07z M1033.21,548.1v-34.08h5.65v34.08H1033.21z"/>
				<path d="M1050.71,531.49c0-2.37,0.24-4.47,0.71-6.3c0.47-1.83,1.1-3.43,1.88-4.79c0.78-1.36,1.69-2.51,2.74-3.43
					c1.05-0.92,2.13-1.67,3.25-2.24c1.12-0.57,2.26-0.99,3.41-1.24c1.15-0.25,2.24-0.38,3.26-0.38c2.12,0,3.96,0.35,5.51,1.04
					c1.56,0.69,2.96,1.71,4.2,3.05h0.11v-21.06h5.66v51.95h-4.27l-1.17-3.8h-0.15c-0.44,0.55-0.95,1.11-1.53,1.67
					c-0.59,0.56-1.27,1.07-2.06,1.52c-0.79,0.45-1.7,0.82-2.74,1.09c-1.03,0.27-2.23,0.41-3.59,0.41c-1.9,0-3.76-0.32-5.58-0.95
					c-1.82-0.63-3.45-1.65-4.87-3.05c-1.42-1.4-2.57-3.2-3.45-5.42C1051.15,537.36,1050.71,534.67,1050.71,531.49z M1056.62,531.41
					c0,1.96,0.22,3.74,0.68,5.33c0.45,1.59,1.1,2.94,1.95,4.05c0.85,1.11,1.9,1.97,3.14,2.57c1.24,0.6,2.66,0.9,4.27,0.9
					c1.19,0,2.28-0.15,3.25-0.47c0.97-0.31,1.84-0.7,2.61-1.18c0.77-0.48,1.42-0.99,1.97-1.52c0.55-0.54,0.98-1.03,1.3-1.49v-17.83
					c-1.17-1.17-2.52-2.11-4.05-2.82c-1.53-0.71-3.19-1.06-4.96-1.06c-1.07,0-2.2,0.2-3.38,0.59c-1.18,0.39-2.28,1.11-3.28,2.13
					c-1.01,1.03-1.84,2.41-2.5,4.14C1056.95,526.49,1056.62,528.71,1056.62,531.41z"/>
				<path d="M1115.57,544.33h-0.15c-0.46,0.58-1.04,1.14-1.75,1.71c-0.71,0.56-1.52,1.06-2.44,1.51c-0.93,0.44-1.94,0.8-3.03,1.06
					c-1.09,0.26-2.26,0.4-3.5,0.4c-1.68,0-3.22-0.25-4.62-0.74c-1.4-0.49-2.6-1.21-3.61-2.15c-1.01-0.94-1.79-2.1-2.35-3.46
					c-0.56-1.36-0.84-2.91-0.84-4.63c0-1.7,0.31-3.22,0.93-4.56c0.62-1.34,1.49-2.48,2.61-3.41c1.12-0.93,2.46-1.65,4.03-2.15
					c1.57-0.5,3.3-0.75,5.2-0.75c1.8,0.02,3.47,0.18,5,0.47c1.53,0.29,2.9,0.65,4.09,1.08h0.15v-2.37c0-0.93-0.06-1.76-0.18-2.48
					c-0.12-0.72-0.33-1.35-0.62-1.9c-0.63-1.15-1.64-2.1-3.03-2.85c-1.39-0.75-3.26-1.13-5.62-1.13c-1.75,0-3.4,0.16-4.94,0.48
					c-1.54,0.32-3.08,0.77-4.62,1.35v-4.66c0.58-0.29,1.27-0.56,2.06-0.81c0.79-0.25,1.62-0.47,2.5-0.65
					c0.88-0.18,1.8-0.32,2.77-0.41c0.97-0.1,1.95-0.14,2.92-0.14c3.5,0,6.37,0.61,8.59,1.83c2.22,1.22,3.82,2.83,4.8,4.84
					c0.37,0.77,0.63,1.61,0.78,2.53c0.16,0.92,0.24,1.93,0.24,3.03v22.75h-4.74L1115.57,544.33z M1115.28,533.14
					c-1.04-0.29-2.28-0.56-3.7-0.83c-1.43-0.26-3-0.41-4.72-0.43c-2.4,0-4.27,0.5-5.63,1.51c-1.36,1-2.03,2.55-2.03,4.63
					c0,1.05,0.17,1.97,0.51,2.76c0.34,0.79,0.81,1.44,1.4,1.95c0.59,0.51,1.3,0.9,2.11,1.15c0.81,0.25,1.67,0.38,2.59,0.38
					c1.21,0,2.34-0.17,3.38-0.52c1.04-0.35,1.97-0.76,2.78-1.24c0.81-0.48,1.5-0.96,2.07-1.44c0.57-0.48,0.99-0.85,1.25-1.11V533.14
					z"/>
				<path d="M1132.41,531.49c0-2.37,0.24-4.47,0.71-6.3c0.47-1.83,1.1-3.43,1.88-4.79c0.78-1.36,1.69-2.51,2.74-3.43
					c1.04-0.92,2.13-1.67,3.25-2.24c1.12-0.57,2.26-0.99,3.41-1.24c1.16-0.25,2.24-0.38,3.26-0.38c2.12,0,3.95,0.35,5.51,1.04
					c1.56,0.69,2.96,1.71,4.2,3.05h0.11v-21.06h5.66v51.95h-4.27l-1.17-3.8h-0.15c-0.44,0.55-0.95,1.11-1.53,1.67
					c-0.59,0.56-1.27,1.07-2.06,1.52c-0.79,0.45-1.7,0.82-2.74,1.09c-1.03,0.27-2.23,0.41-3.59,0.41c-1.9,0-3.76-0.32-5.58-0.95
					c-1.82-0.63-3.45-1.65-4.87-3.05c-1.42-1.4-2.57-3.2-3.45-5.42C1132.85,537.36,1132.41,534.67,1132.41,531.49z M1138.32,531.41
					c0,1.96,0.22,3.74,0.67,5.33c0.45,1.59,1.1,2.94,1.95,4.05c0.85,1.11,1.9,1.97,3.14,2.57s2.66,0.9,4.27,0.9
					c1.19,0,2.27-0.15,3.25-0.47c0.97-0.31,1.84-0.7,2.61-1.18c0.77-0.48,1.42-0.99,1.97-1.52c0.55-0.54,0.98-1.03,1.3-1.49v-17.83
					c-1.17-1.17-2.52-2.11-4.05-2.82c-1.53-0.71-3.19-1.06-4.96-1.06c-1.07,0-2.2,0.2-3.38,0.59c-1.18,0.39-2.27,1.11-3.28,2.13
					c-1.01,1.03-1.84,2.41-2.5,4.14C1138.65,526.49,1138.32,528.71,1138.32,531.41z"/>
			</g>
		</g>
		<g>
			<path class="st2" d="M537.93,415.17c-10.53-13.06-14.53-29.95-10.98-46.35l26.55-122.4l-6.56-0.17l-30.88,145.71
				c-5.37,25.35-28.08,43.76-54,43.76h-76.69c4.23,16.95,19.53,30.03,38.43,30.03h82.67c18.7,0,34.85-13.08,38.72-31.38l2.13-10.04
				C543.89,421.69,540.73,418.63,537.93,415.17z"/>
			<path class="st2" d="M336.51,415.27c-10.53-13-14.58-29.83-11.11-46.2l26-122.67l-5.42-0.14l-30.88,145.7
				c-5.37,25.35-28.08,43.76-54,43.76h-73.18c4.23,16.95,19.53,30.03,38.43,30.03h79.15c18.7,0,34.85-13.08,38.72-31.38l2.05-9.69
				C342.7,421.98,339.41,418.85,336.51,415.27z"/>
			<path class="st2" d="M964.47,156c4.21,2.28,8,5.35,11.13,9.12l6.7,8.05l6.87-5.55c-5-14.16-14-26.6-25.74-35.81
				C964.8,139.74,965.17,147.86,964.47,156z"/>
			<path class="st2" d="M1132.96,212.89c-2.51,10.25-8.35,19.63-17.12,26.71l-46.85,37.82l23.92,28.77c2.27,2.73,4.2,5.63,5.81,8.66
				l51.72-41.75C1174.34,253.8,1162.24,215.97,1132.96,212.89z"/>
			<path class="st2" d="M811.88,320.04h-79.72l-15.24,71.92c-5.37,25.35-28.08,43.76-54,43.76h-76.04
				c4.23,16.94,19.52,30.03,38.43,30.03h82.01c18.7,0,34.85-13.08,38.72-31.38l17.87-84.3h47.05
				C808.15,339.9,808.56,329.5,811.88,320.04z"/>
			<path class="st2" d="M1104.4,336.67c0.16,7.46-1.4,15.01-4.74,22.13c-8.23,17.55-25.39,28.45-44.77,28.45H989.1
				c-11.32,0-21.96-4.99-29.2-13.69l-4.02-4.84l-12.52,10.11c-6.73,5.43-15.2,8.43-23.85,8.43h-49.99
				c2.35,15.88,15.32,30.03,34.57,30.03h59.83c5.11,0,10.07-1.75,14.04-4.96l24.49-19.77l13.86,16.67
				c4.25,5.11,10.55,8.06,17.19,8.06h65.79c28.67,0,44.35-33.43,26.02-55.47L1104.4,336.67z"/>
		</g>
	</g>
</g>
</svg>
